<?xml version="1.0" encoding="utf-8"?>
<svg xmlns="http://www.w3.org/2000/svg" xmlns:xlink="http://www.w3.org/1999/xlink" width="600" height="400" viewBox="0 0 2400 1600">
<defs>
  <clipPath id="clip860">
    <rect x="0" y="0" width="2400" height="1600"/>
  </clipPath>
</defs>
<path clip-path="url(#clip860)" d="M0 1600 L2400 1600 L2400 8.88178e-14 L0 8.88178e-14  Z" fill="#000000" fill-rule="evenodd" fill-opacity="1"/>
<defs>
  <clipPath id="clip861">
    <rect x="480" y="0" width="1681" height="1600"/>
  </clipPath>
</defs>
<path clip-path="url(#clip860)" d="M249.542 1423.18 L2352.76 1423.18 L2352.76 47.2441 L249.542 47.2441  Z" fill="#30343b" fill-rule="evenodd" fill-opacity="1"/>
<defs>
  <clipPath id="clip862">
    <rect x="249" y="47" width="2104" height="1377"/>
  </clipPath>
</defs>
<polyline clip-path="url(#clip862)" style="stroke:#ffffff; stroke-linecap:round; stroke-linejoin:round; stroke-width:2; stroke-opacity:0.1; fill:none" points="299.341,1423.18 299.341,47.2441 "/>
<polyline clip-path="url(#clip862)" style="stroke:#ffffff; stroke-linecap:round; stroke-linejoin:round; stroke-width:2; stroke-opacity:0.1; fill:none" points="785.655,1423.18 785.655,47.2441 "/>
<polyline clip-path="url(#clip862)" style="stroke:#ffffff; stroke-linecap:round; stroke-linejoin:round; stroke-width:2; stroke-opacity:0.1; fill:none" points="1271.97,1423.18 1271.97,47.2441 "/>
<polyline clip-path="url(#clip862)" style="stroke:#ffffff; stroke-linecap:round; stroke-linejoin:round; stroke-width:2; stroke-opacity:0.1; fill:none" points="1758.28,1423.18 1758.28,47.2441 "/>
<polyline clip-path="url(#clip862)" style="stroke:#ffffff; stroke-linecap:round; stroke-linejoin:round; stroke-width:2; stroke-opacity:0.1; fill:none" points="2244.6,1423.18 2244.6,47.2441 "/>
<polyline clip-path="url(#clip862)" style="stroke:#ffffff; stroke-linecap:round; stroke-linejoin:round; stroke-width:2; stroke-opacity:0.1; fill:none" points="299.341,1423.18 299.341,47.2441 "/>
<polyline clip-path="url(#clip862)" style="stroke:#ffffff; stroke-linecap:round; stroke-linejoin:round; stroke-width:2; stroke-opacity:0.1; fill:none" points="785.655,1423.18 785.655,47.2441 "/>
<polyline clip-path="url(#clip862)" style="stroke:#ffffff; stroke-linecap:round; stroke-linejoin:round; stroke-width:2; stroke-opacity:0.1; fill:none" points="1271.97,1423.18 1271.97,47.2441 "/>
<polyline clip-path="url(#clip862)" style="stroke:#ffffff; stroke-linecap:round; stroke-linejoin:round; stroke-width:2; stroke-opacity:0.1; fill:none" points="1758.28,1423.18 1758.28,47.2441 "/>
<polyline clip-path="url(#clip862)" style="stroke:#ffffff; stroke-linecap:round; stroke-linejoin:round; stroke-width:2; stroke-opacity:0.1; fill:none" points="2244.6,1423.18 2244.6,47.2441 "/>
<polyline clip-path="url(#clip862)" style="stroke:#ffffff; stroke-linecap:round; stroke-linejoin:round; stroke-width:2; stroke-opacity:0.1; fill:none" points="249.542,1197.02 2352.76,1197.02 "/>
<polyline clip-path="url(#clip862)" style="stroke:#ffffff; stroke-linecap:round; stroke-linejoin:round; stroke-width:2; stroke-opacity:0.1; fill:none" points="249.542,919.314 2352.76,919.314 "/>
<polyline clip-path="url(#clip862)" style="stroke:#ffffff; stroke-linecap:round; stroke-linejoin:round; stroke-width:2; stroke-opacity:0.1; fill:none" points="249.542,641.604 2352.76,641.604 "/>
<polyline clip-path="url(#clip862)" style="stroke:#ffffff; stroke-linecap:round; stroke-linejoin:round; stroke-width:2; stroke-opacity:0.1; fill:none" points="249.542,363.895 2352.76,363.895 "/>
<polyline clip-path="url(#clip862)" style="stroke:#ffffff; stroke-linecap:round; stroke-linejoin:round; stroke-width:2; stroke-opacity:0.1; fill:none" points="249.542,86.1857 2352.76,86.1857 "/>
<polyline clip-path="url(#clip862)" style="stroke:#ffffff; stroke-linecap:round; stroke-linejoin:round; stroke-width:2; stroke-opacity:0.1; fill:none" points="249.542,1197.02 2352.76,1197.02 "/>
<polyline clip-path="url(#clip862)" style="stroke:#ffffff; stroke-linecap:round; stroke-linejoin:round; stroke-width:2; stroke-opacity:0.1; fill:none" points="249.542,919.314 2352.76,919.314 "/>
<polyline clip-path="url(#clip862)" style="stroke:#ffffff; stroke-linecap:round; stroke-linejoin:round; stroke-width:2; stroke-opacity:0.1; fill:none" points="249.542,641.604 2352.76,641.604 "/>
<polyline clip-path="url(#clip862)" style="stroke:#ffffff; stroke-linecap:round; stroke-linejoin:round; stroke-width:2; stroke-opacity:0.1; fill:none" points="249.542,363.895 2352.76,363.895 "/>
<polyline clip-path="url(#clip862)" style="stroke:#ffffff; stroke-linecap:round; stroke-linejoin:round; stroke-width:2; stroke-opacity:0.1; fill:none" points="249.542,86.1857 2352.76,86.1857 "/>
<polyline clip-path="url(#clip860)" style="stroke:#ffffff; stroke-linecap:round; stroke-linejoin:round; stroke-width:4; stroke-opacity:1; fill:none" points="249.542,1423.18 2352.76,1423.18 "/>
<polyline clip-path="url(#clip860)" style="stroke:#ffffff; stroke-linecap:round; stroke-linejoin:round; stroke-width:4; stroke-opacity:1; fill:none" points="249.542,47.2441 2352.76,47.2441 "/>
<polyline clip-path="url(#clip860)" style="stroke:#ffffff; stroke-linecap:round; stroke-linejoin:round; stroke-width:4; stroke-opacity:1; fill:none" points="299.341,1423.18 299.341,1404.28 "/>
<polyline clip-path="url(#clip860)" style="stroke:#ffffff; stroke-linecap:round; stroke-linejoin:round; stroke-width:4; stroke-opacity:1; fill:none" points="785.655,1423.18 785.655,1404.28 "/>
<polyline clip-path="url(#clip860)" style="stroke:#ffffff; stroke-linecap:round; stroke-linejoin:round; stroke-width:4; stroke-opacity:1; fill:none" points="1271.97,1423.18 1271.97,1404.28 "/>
<polyline clip-path="url(#clip860)" style="stroke:#ffffff; stroke-linecap:round; stroke-linejoin:round; stroke-width:4; stroke-opacity:1; fill:none" points="1758.28,1423.18 1758.28,1404.28 "/>
<polyline clip-path="url(#clip860)" style="stroke:#ffffff; stroke-linecap:round; stroke-linejoin:round; stroke-width:4; stroke-opacity:1; fill:none" points="2244.6,1423.18 2244.6,1404.28 "/>
<polyline clip-path="url(#clip860)" style="stroke:#ffffff; stroke-linecap:round; stroke-linejoin:round; stroke-width:4; stroke-opacity:1; fill:none" points="299.341,47.2441 299.341,66.1417 "/>
<polyline clip-path="url(#clip860)" style="stroke:#ffffff; stroke-linecap:round; stroke-linejoin:round; stroke-width:4; stroke-opacity:1; fill:none" points="785.655,47.2441 785.655,66.1417 "/>
<polyline clip-path="url(#clip860)" style="stroke:#ffffff; stroke-linecap:round; stroke-linejoin:round; stroke-width:4; stroke-opacity:1; fill:none" points="1271.97,47.2441 1271.97,66.1417 "/>
<polyline clip-path="url(#clip860)" style="stroke:#ffffff; stroke-linecap:round; stroke-linejoin:round; stroke-width:4; stroke-opacity:1; fill:none" points="1758.28,47.2441 1758.28,66.1417 "/>
<polyline clip-path="url(#clip860)" style="stroke:#ffffff; stroke-linecap:round; stroke-linejoin:round; stroke-width:4; stroke-opacity:1; fill:none" points="2244.6,47.2441 2244.6,66.1417 "/>
<path clip-path="url(#clip860)" d="M299.341 1454.1 Q295.73 1454.1 293.901 1457.66 Q292.095 1461.2 292.095 1468.33 Q292.095 1475.44 293.901 1479.01 Q295.73 1482.55 299.341 1482.55 Q302.975 1482.55 304.78 1479.01 Q306.609 1475.44 306.609 1468.33 Q306.609 1461.2 304.78 1457.66 Q302.975 1454.1 299.341 1454.1 M299.341 1450.39 Q305.151 1450.39 308.206 1455 Q311.285 1459.58 311.285 1468.33 Q311.285 1477.06 308.206 1481.67 Q305.151 1486.25 299.341 1486.25 Q293.531 1486.25 290.452 1481.67 Q287.396 1477.06 287.396 1468.33 Q287.396 1459.58 290.452 1455 Q293.531 1450.39 299.341 1450.39 Z" fill="#ffffff" fill-rule="nonzero" fill-opacity="1" /><path clip-path="url(#clip860)" d="M760.355 1451.02 L778.711 1451.02 L778.711 1454.96 L764.637 1454.96 L764.637 1463.43 Q765.655 1463.08 766.674 1462.92 Q767.693 1462.73 768.711 1462.73 Q774.498 1462.73 777.878 1465.9 Q781.257 1469.08 781.257 1474.49 Q781.257 1480.07 777.785 1483.17 Q774.313 1486.25 767.993 1486.25 Q765.818 1486.25 763.549 1485.88 Q761.304 1485.51 758.896 1484.77 L758.896 1480.07 Q760.98 1481.2 763.202 1481.76 Q765.424 1482.32 767.901 1482.32 Q771.905 1482.32 774.243 1480.21 Q776.581 1478.1 776.581 1474.49 Q776.581 1470.88 774.243 1468.77 Q771.905 1466.67 767.901 1466.67 Q766.026 1466.67 764.151 1467.08 Q762.299 1467.5 760.355 1468.38 L760.355 1451.02 Z" fill="#ffffff" fill-rule="nonzero" fill-opacity="1" /><path clip-path="url(#clip860)" d="M800.47 1454.1 Q796.859 1454.1 795.03 1457.66 Q793.225 1461.2 793.225 1468.33 Q793.225 1475.44 795.03 1479.01 Q796.859 1482.55 800.47 1482.55 Q804.104 1482.55 805.91 1479.01 Q807.739 1475.44 807.739 1468.33 Q807.739 1461.2 805.91 1457.66 Q804.104 1454.1 800.47 1454.1 M800.47 1450.39 Q806.28 1450.39 809.336 1455 Q812.414 1459.58 812.414 1468.33 Q812.414 1477.06 809.336 1481.67 Q806.28 1486.25 800.47 1486.25 Q794.66 1486.25 791.581 1481.67 Q788.526 1477.06 788.526 1468.33 Q788.526 1459.58 791.581 1455 Q794.66 1450.39 800.47 1450.39 Z" fill="#ffffff" fill-rule="nonzero" fill-opacity="1" /><path clip-path="url(#clip860)" d="M1231.58 1481.64 L1239.22 1481.64 L1239.22 1455.28 L1230.91 1456.95 L1230.91 1452.69 L1239.17 1451.02 L1243.85 1451.02 L1243.85 1481.64 L1251.48 1481.64 L1251.48 1485.58 L1231.58 1485.58 L1231.58 1481.64 Z" fill="#ffffff" fill-rule="nonzero" fill-opacity="1" /><path clip-path="url(#clip860)" d="M1270.93 1454.1 Q1267.32 1454.1 1265.49 1457.66 Q1263.68 1461.2 1263.68 1468.33 Q1263.68 1475.44 1265.49 1479.01 Q1267.32 1482.55 1270.93 1482.55 Q1274.56 1482.55 1276.37 1479.01 Q1278.2 1475.44 1278.2 1468.33 Q1278.2 1461.2 1276.37 1457.66 Q1274.56 1454.1 1270.93 1454.1 M1270.93 1450.39 Q1276.74 1450.39 1279.79 1455 Q1282.87 1459.58 1282.87 1468.33 Q1282.87 1477.06 1279.79 1481.67 Q1276.74 1486.25 1270.93 1486.25 Q1265.12 1486.25 1262.04 1481.67 Q1258.98 1477.06 1258.98 1468.33 Q1258.98 1459.58 1262.04 1455 Q1265.12 1450.39 1270.93 1450.39 Z" fill="#ffffff" fill-rule="nonzero" fill-opacity="1" /><path clip-path="url(#clip860)" d="M1301.09 1454.1 Q1297.48 1454.1 1295.65 1457.66 Q1293.84 1461.2 1293.84 1468.33 Q1293.84 1475.44 1295.65 1479.01 Q1297.48 1482.55 1301.09 1482.55 Q1304.72 1482.55 1306.53 1479.01 Q1308.36 1475.44 1308.36 1468.33 Q1308.36 1461.2 1306.53 1457.66 Q1304.72 1454.1 1301.09 1454.1 M1301.09 1450.39 Q1306.9 1450.39 1309.96 1455 Q1313.03 1459.58 1313.03 1468.33 Q1313.03 1477.06 1309.96 1481.67 Q1306.9 1486.25 1301.09 1486.25 Q1295.28 1486.25 1292.2 1481.67 Q1289.15 1477.06 1289.15 1468.33 Q1289.15 1459.58 1292.2 1455 Q1295.28 1450.39 1301.09 1450.39 Z" fill="#ffffff" fill-rule="nonzero" fill-opacity="1" /><path clip-path="url(#clip860)" d="M1717.89 1481.64 L1725.53 1481.64 L1725.53 1455.28 L1717.22 1456.95 L1717.22 1452.69 L1725.48 1451.02 L1730.16 1451.02 L1730.16 1481.64 L1737.8 1481.64 L1737.8 1485.58 L1717.89 1485.58 L1717.89 1481.64 Z" fill="#ffffff" fill-rule="nonzero" fill-opacity="1" /><path clip-path="url(#clip860)" d="M1747.29 1451.02 L1765.65 1451.02 L1765.65 1454.96 L1751.57 1454.96 L1751.57 1463.43 Q1752.59 1463.08 1753.61 1462.92 Q1754.63 1462.73 1755.65 1462.73 Q1761.43 1462.73 1764.81 1465.9 Q1768.19 1469.08 1768.19 1474.49 Q1768.19 1480.07 1764.72 1483.17 Q1761.25 1486.25 1754.93 1486.25 Q1752.75 1486.25 1750.48 1485.88 Q1748.24 1485.51 1745.83 1484.77 L1745.83 1480.07 Q1747.91 1481.2 1750.14 1481.76 Q1752.36 1482.32 1754.84 1482.32 Q1758.84 1482.32 1761.18 1480.21 Q1763.52 1478.1 1763.52 1474.49 Q1763.52 1470.88 1761.18 1468.77 Q1758.84 1466.67 1754.84 1466.67 Q1752.96 1466.67 1751.09 1467.08 Q1749.23 1467.5 1747.29 1468.38 L1747.29 1451.02 Z" fill="#ffffff" fill-rule="nonzero" fill-opacity="1" /><path clip-path="url(#clip860)" d="M1787.41 1454.1 Q1783.79 1454.1 1781.97 1457.66 Q1780.16 1461.2 1780.16 1468.33 Q1780.16 1475.44 1781.97 1479.01 Q1783.79 1482.55 1787.41 1482.55 Q1791.04 1482.55 1792.84 1479.01 Q1794.67 1475.44 1794.67 1468.33 Q1794.67 1461.2 1792.84 1457.66 Q1791.04 1454.1 1787.41 1454.1 M1787.41 1450.39 Q1793.22 1450.39 1796.27 1455 Q1799.35 1459.58 1799.35 1468.33 Q1799.35 1477.06 1796.27 1481.67 Q1793.22 1486.25 1787.41 1486.25 Q1781.59 1486.25 1778.52 1481.67 Q1775.46 1477.06 1775.46 1468.33 Q1775.46 1459.58 1778.52 1455 Q1781.59 1450.39 1787.41 1450.39 Z" fill="#ffffff" fill-rule="nonzero" fill-opacity="1" /><path clip-path="url(#clip860)" d="M2208.29 1481.64 L2224.61 1481.64 L2224.61 1485.58 L2202.67 1485.58 L2202.67 1481.64 Q2205.33 1478.89 2209.91 1474.26 Q2214.52 1469.61 2215.7 1468.27 Q2217.94 1465.74 2218.82 1464.01 Q2219.73 1462.25 2219.73 1460.56 Q2219.73 1457.8 2217.78 1456.07 Q2215.86 1454.33 2212.76 1454.33 Q2210.56 1454.33 2208.11 1455.09 Q2205.68 1455.86 2202.9 1457.41 L2202.9 1452.69 Q2205.72 1451.55 2208.18 1450.97 Q2210.63 1450.39 2212.67 1450.39 Q2218.04 1450.39 2221.23 1453.08 Q2224.43 1455.77 2224.43 1460.26 Q2224.43 1462.39 2223.62 1464.31 Q2222.83 1466.2 2220.72 1468.8 Q2220.14 1469.47 2217.04 1472.69 Q2213.94 1475.88 2208.29 1481.64 Z" fill="#ffffff" fill-rule="nonzero" fill-opacity="1" /><path clip-path="url(#clip860)" d="M2244.43 1454.1 Q2240.81 1454.1 2238.99 1457.66 Q2237.18 1461.2 2237.18 1468.33 Q2237.18 1475.44 2238.99 1479.01 Q2240.81 1482.55 2244.43 1482.55 Q2248.06 1482.55 2249.87 1479.01 Q2251.69 1475.44 2251.69 1468.33 Q2251.69 1461.2 2249.87 1457.66 Q2248.06 1454.1 2244.43 1454.1 M2244.43 1450.39 Q2250.24 1450.39 2253.29 1455 Q2256.37 1459.58 2256.37 1468.33 Q2256.37 1477.06 2253.29 1481.67 Q2250.24 1486.25 2244.43 1486.25 Q2238.62 1486.25 2235.54 1481.67 Q2232.48 1477.06 2232.48 1468.33 Q2232.48 1459.58 2235.54 1455 Q2238.62 1450.39 2244.43 1450.39 Z" fill="#ffffff" fill-rule="nonzero" fill-opacity="1" /><path clip-path="url(#clip860)" d="M2274.59 1454.1 Q2270.98 1454.1 2269.15 1457.66 Q2267.34 1461.2 2267.34 1468.33 Q2267.34 1475.44 2269.15 1479.01 Q2270.98 1482.55 2274.59 1482.55 Q2278.22 1482.55 2280.03 1479.01 Q2281.86 1475.44 2281.86 1468.33 Q2281.86 1461.2 2280.03 1457.66 Q2278.22 1454.1 2274.59 1454.1 M2274.59 1450.39 Q2280.4 1450.39 2283.45 1455 Q2286.53 1459.58 2286.53 1468.33 Q2286.53 1477.06 2283.45 1481.67 Q2280.4 1486.25 2274.59 1486.25 Q2268.78 1486.25 2265.7 1481.67 Q2262.64 1477.06 2262.64 1468.33 Q2262.64 1459.58 2265.7 1455 Q2268.78 1450.39 2274.59 1450.39 Z" fill="#ffffff" fill-rule="nonzero" fill-opacity="1" /><path clip-path="url(#clip860)" d="M1024.99 1520.52 L1031.42 1520.52 L1031.42 1562.63 L1054.56 1562.63 L1054.56 1568.04 L1024.99 1568.04 L1024.99 1520.52 Z" fill="#ffffff" fill-rule="nonzero" fill-opacity="1" /><path clip-path="url(#clip860)" d="M1077.25 1550.12 Q1070.15 1550.12 1067.42 1551.75 Q1064.68 1553.37 1064.68 1557.29 Q1064.68 1560.4 1066.72 1562.25 Q1068.78 1564.07 1072.32 1564.07 Q1077.19 1564.07 1080.12 1560.63 Q1083.08 1557.16 1083.08 1551.43 L1083.08 1550.12 L1077.25 1550.12 M1088.93 1547.71 L1088.93 1568.04 L1083.08 1568.04 L1083.08 1562.63 Q1081.07 1565.88 1078.08 1567.44 Q1075.09 1568.97 1070.76 1568.97 Q1065.28 1568.97 1062.04 1565.91 Q1058.82 1562.82 1058.82 1557.67 Q1058.82 1551.65 1062.83 1548.6 Q1066.88 1545.54 1074.86 1545.54 L1083.08 1545.54 L1083.08 1544.97 Q1083.08 1540.93 1080.4 1538.73 Q1077.76 1536.5 1072.95 1536.5 Q1069.9 1536.5 1067 1537.23 Q1064.11 1537.97 1061.43 1539.43 L1061.43 1534.02 Q1064.65 1532.78 1067.67 1532.17 Q1070.69 1531.54 1073.56 1531.54 Q1081.29 1531.54 1085.11 1535.55 Q1088.93 1539.56 1088.93 1547.71 Z" fill="#ffffff" fill-rule="nonzero" fill-opacity="1" /><path clip-path="url(#clip860)" d="M1124.45 1549.81 Q1124.45 1543.44 1121.81 1539.94 Q1119.2 1536.44 1114.46 1536.44 Q1109.75 1536.44 1107.11 1539.94 Q1104.5 1543.44 1104.5 1549.81 Q1104.5 1556.14 1107.11 1559.64 Q1109.75 1563.14 1114.46 1563.14 Q1119.2 1563.14 1121.81 1559.64 Q1124.45 1556.14 1124.45 1549.81 M1130.31 1563.62 Q1130.31 1572.72 1126.27 1577.15 Q1122.22 1581.6 1113.89 1581.6 Q1110.8 1581.6 1108.06 1581.13 Q1105.32 1580.68 1102.75 1579.72 L1102.75 1574.03 Q1105.32 1575.43 1107.84 1576.1 Q1110.35 1576.76 1112.96 1576.76 Q1118.72 1576.76 1121.59 1573.74 Q1124.45 1570.75 1124.45 1564.67 L1124.45 1561.77 Q1122.64 1564.92 1119.81 1566.48 Q1116.97 1568.04 1113.03 1568.04 Q1106.47 1568.04 1102.46 1563.05 Q1098.45 1558.05 1098.45 1549.81 Q1098.45 1541.53 1102.46 1536.53 Q1106.47 1531.54 1113.03 1531.54 Q1116.97 1531.54 1119.81 1533.1 Q1122.64 1534.66 1124.45 1537.81 L1124.45 1532.4 L1130.31 1532.4 L1130.31 1563.62 Z" fill="#ffffff" fill-rule="nonzero" fill-opacity="1" /><path clip-path="url(#clip860)" d="M1177.16 1518.58 Q1172.9 1525.9 1170.83 1533.06 Q1168.76 1540.23 1168.76 1547.58 Q1168.76 1554.93 1170.83 1562.16 Q1172.93 1569.35 1177.16 1576.64 L1172.07 1576.64 Q1167.29 1569.16 1164.91 1561.93 Q1162.55 1554.71 1162.55 1547.58 Q1162.55 1540.48 1164.91 1533.29 Q1167.26 1526.09 1172.07 1518.58 L1177.16 1518.58 Z" fill="#ffffff" fill-rule="nonzero" fill-opacity="1" /><path clip-path="url(#clip860)" d="M1194.32 1522.27 L1194.32 1532.4 L1206.38 1532.4 L1206.38 1536.95 L1194.32 1536.95 L1194.32 1556.3 Q1194.32 1560.66 1195.49 1561.9 Q1196.7 1563.14 1200.36 1563.14 L1206.38 1563.14 L1206.38 1568.04 L1200.36 1568.04 Q1193.58 1568.04 1191.01 1565.53 Q1188.43 1562.98 1188.43 1556.3 L1188.43 1536.95 L1184.13 1536.95 L1184.13 1532.4 L1188.43 1532.4 L1188.43 1522.27 L1194.32 1522.27 Z" fill="#ffffff" fill-rule="nonzero" fill-opacity="1" /><path clip-path="url(#clip860)" d="M1234.74 1537.87 Q1233.75 1537.3 1232.57 1537.04 Q1231.43 1536.76 1230.03 1536.76 Q1225.06 1536.76 1222.39 1540 Q1219.75 1543.22 1219.75 1549.27 L1219.75 1568.04 L1213.86 1568.04 L1213.86 1532.4 L1219.75 1532.4 L1219.75 1537.93 Q1221.59 1534.69 1224.55 1533.13 Q1227.51 1531.54 1231.75 1531.54 Q1232.35 1531.54 1233.08 1531.63 Q1233.82 1531.7 1234.71 1531.85 L1234.74 1537.87 Z" fill="#ffffff" fill-rule="nonzero" fill-opacity="1" /><path clip-path="url(#clip860)" d="M1257.08 1550.12 Q1249.98 1550.12 1247.25 1551.75 Q1244.51 1553.37 1244.51 1557.29 Q1244.51 1560.4 1246.55 1562.25 Q1248.62 1564.07 1252.15 1564.07 Q1257.02 1564.07 1259.95 1560.63 Q1262.91 1557.16 1262.91 1551.43 L1262.91 1550.12 L1257.08 1550.12 M1268.76 1547.71 L1268.76 1568.04 L1262.91 1568.04 L1262.91 1562.63 Q1260.9 1565.88 1257.91 1567.44 Q1254.92 1568.97 1250.59 1568.97 Q1245.11 1568.97 1241.87 1565.91 Q1238.65 1562.82 1238.65 1557.67 Q1238.65 1551.65 1242.66 1548.6 Q1246.71 1545.54 1254.7 1545.54 L1262.91 1545.54 L1262.91 1544.97 Q1262.91 1540.93 1260.23 1538.73 Q1257.59 1536.5 1252.79 1536.5 Q1249.73 1536.5 1246.83 1537.23 Q1243.94 1537.97 1241.26 1539.43 L1241.26 1534.02 Q1244.48 1532.78 1247.5 1532.17 Q1250.53 1531.54 1253.39 1531.54 Q1261.12 1531.54 1264.94 1535.55 Q1268.76 1539.56 1268.76 1547.71 Z" fill="#ffffff" fill-rule="nonzero" fill-opacity="1" /><path clip-path="url(#clip860)" d="M1304.28 1537.81 L1304.28 1518.52 L1310.14 1518.52 L1310.14 1568.04 L1304.28 1568.04 L1304.28 1562.7 Q1302.44 1565.88 1299.61 1567.44 Q1296.8 1568.97 1292.86 1568.97 Q1286.4 1568.97 1282.32 1563.81 Q1278.28 1558.65 1278.28 1550.25 Q1278.28 1541.85 1282.32 1536.69 Q1286.4 1531.54 1292.86 1531.54 Q1296.8 1531.54 1299.61 1533.1 Q1302.44 1534.62 1304.28 1537.81 M1284.33 1550.25 Q1284.33 1556.71 1286.97 1560.4 Q1289.64 1564.07 1294.29 1564.07 Q1298.94 1564.07 1301.61 1560.4 Q1304.28 1556.71 1304.28 1550.25 Q1304.28 1543.79 1301.61 1540.13 Q1298.94 1536.44 1294.29 1536.44 Q1289.64 1536.44 1286.97 1540.13 Q1284.33 1543.79 1284.33 1550.25 Z" fill="#ffffff" fill-rule="nonzero" fill-opacity="1" /><path clip-path="url(#clip860)" d="M1322.2 1532.4 L1328.06 1532.4 L1328.06 1568.04 L1322.2 1568.04 L1322.2 1532.4 M1322.2 1518.52 L1328.06 1518.52 L1328.06 1525.93 L1322.2 1525.93 L1322.2 1518.52 Z" fill="#ffffff" fill-rule="nonzero" fill-opacity="1" /><path clip-path="url(#clip860)" d="M1369.95 1546.53 L1369.95 1568.04 L1364.09 1568.04 L1364.09 1546.72 Q1364.09 1541.66 1362.12 1539.14 Q1360.14 1536.63 1356.2 1536.63 Q1351.45 1536.63 1348.72 1539.65 Q1345.98 1542.68 1345.98 1547.9 L1345.98 1568.04 L1340.09 1568.04 L1340.09 1532.4 L1345.98 1532.4 L1345.98 1537.93 Q1348.08 1534.72 1350.91 1533.13 Q1353.78 1531.54 1357.5 1531.54 Q1363.64 1531.54 1366.8 1535.36 Q1369.95 1539.14 1369.95 1546.53 Z" fill="#ffffff" fill-rule="nonzero" fill-opacity="1" /><path clip-path="url(#clip860)" d="M1405.09 1549.81 Q1405.09 1543.44 1402.44 1539.94 Q1399.83 1536.44 1395.09 1536.44 Q1390.38 1536.44 1387.74 1539.94 Q1385.13 1543.44 1385.13 1549.81 Q1385.13 1556.14 1387.74 1559.64 Q1390.38 1563.14 1395.09 1563.14 Q1399.83 1563.14 1402.44 1559.64 Q1405.09 1556.14 1405.09 1549.81 M1410.94 1563.62 Q1410.94 1572.72 1406.9 1577.15 Q1402.86 1581.6 1394.52 1581.6 Q1391.43 1581.6 1388.69 1581.13 Q1385.96 1580.68 1383.38 1579.72 L1383.38 1574.03 Q1385.96 1575.43 1388.47 1576.1 Q1390.99 1576.76 1393.59 1576.76 Q1399.36 1576.76 1402.22 1573.74 Q1405.09 1570.75 1405.09 1564.67 L1405.09 1561.77 Q1403.27 1564.92 1400.44 1566.48 Q1397.61 1568.04 1393.66 1568.04 Q1387.1 1568.04 1383.09 1563.05 Q1379.08 1558.05 1379.08 1549.81 Q1379.08 1541.53 1383.09 1536.53 Q1387.1 1531.54 1393.66 1531.54 Q1397.61 1531.54 1400.44 1533.1 Q1403.27 1534.66 1405.09 1537.81 L1405.09 1532.4 L1410.94 1532.4 L1410.94 1563.62 Z" fill="#ffffff" fill-rule="nonzero" fill-opacity="1" /><path clip-path="url(#clip860)" d="M1467.18 1537.81 L1467.18 1518.52 L1473.04 1518.52 L1473.04 1568.04 L1467.18 1568.04 L1467.18 1562.7 Q1465.34 1565.88 1462.5 1567.44 Q1459.7 1568.97 1455.76 1568.97 Q1449.29 1568.97 1445.22 1563.81 Q1441.18 1558.65 1441.18 1550.25 Q1441.18 1541.85 1445.22 1536.69 Q1449.29 1531.54 1455.76 1531.54 Q1459.7 1531.54 1462.5 1533.1 Q1465.34 1534.62 1467.18 1537.81 M1447.23 1550.25 Q1447.23 1556.71 1449.87 1560.4 Q1452.54 1564.07 1457.19 1564.07 Q1461.84 1564.07 1464.51 1560.4 Q1467.18 1556.71 1467.18 1550.25 Q1467.18 1543.79 1464.51 1540.13 Q1461.84 1536.44 1457.19 1536.44 Q1452.54 1536.44 1449.87 1540.13 Q1447.23 1543.79 1447.23 1550.25 Z" fill="#ffffff" fill-rule="nonzero" fill-opacity="1" /><path clip-path="url(#clip860)" d="M1501.3 1550.12 Q1494.2 1550.12 1491.47 1551.75 Q1488.73 1553.37 1488.73 1557.29 Q1488.73 1560.4 1490.77 1562.25 Q1492.84 1564.07 1496.37 1564.07 Q1501.24 1564.07 1504.17 1560.63 Q1507.13 1557.16 1507.13 1551.43 L1507.13 1550.12 L1501.3 1550.12 M1512.98 1547.71 L1512.98 1568.04 L1507.13 1568.04 L1507.13 1562.63 Q1505.12 1565.88 1502.13 1567.44 Q1499.14 1568.97 1494.81 1568.97 Q1489.34 1568.97 1486.09 1565.91 Q1482.87 1562.82 1482.87 1557.67 Q1482.87 1551.65 1486.88 1548.6 Q1490.93 1545.54 1498.92 1545.54 L1507.13 1545.54 L1507.13 1544.97 Q1507.13 1540.93 1504.45 1538.73 Q1501.81 1536.5 1497.01 1536.5 Q1493.95 1536.5 1491.05 1537.23 Q1488.16 1537.97 1485.48 1539.43 L1485.48 1534.02 Q1488.7 1532.78 1491.72 1532.17 Q1494.75 1531.54 1497.61 1531.54 Q1505.34 1531.54 1509.16 1535.55 Q1512.98 1539.56 1512.98 1547.71 Z" fill="#ffffff" fill-rule="nonzero" fill-opacity="1" /><path clip-path="url(#clip860)" d="M1539.88 1571.35 Q1537.4 1577.72 1535.04 1579.66 Q1532.69 1581.6 1528.74 1581.6 L1524.06 1581.6 L1524.06 1576.7 L1527.5 1576.7 Q1529.92 1576.7 1531.25 1575.56 Q1532.59 1574.41 1534.21 1570.14 L1535.26 1567.47 L1520.85 1532.4 L1527.05 1532.4 L1538.19 1560.28 L1549.33 1532.4 L1555.54 1532.4 L1539.88 1571.35 Z" fill="#ffffff" fill-rule="nonzero" fill-opacity="1" /><path clip-path="url(#clip860)" d="M1562.7 1518.58 L1567.79 1518.58 Q1572.57 1526.09 1574.92 1533.29 Q1577.31 1540.48 1577.31 1547.58 Q1577.31 1554.71 1574.92 1561.93 Q1572.57 1569.16 1567.79 1576.64 L1562.7 1576.64 Q1566.93 1569.35 1569 1562.16 Q1571.1 1554.93 1571.1 1547.58 Q1571.1 1540.23 1569 1533.06 Q1566.93 1525.9 1562.7 1518.58 Z" fill="#ffffff" fill-rule="nonzero" fill-opacity="1" /><polyline clip-path="url(#clip860)" style="stroke:#ffffff; stroke-linecap:round; stroke-linejoin:round; stroke-width:4; stroke-opacity:1; fill:none" points="249.542,1423.18 249.542,47.2441 "/>
<polyline clip-path="url(#clip860)" style="stroke:#ffffff; stroke-linecap:round; stroke-linejoin:round; stroke-width:4; stroke-opacity:1; fill:none" points="2352.76,1423.18 2352.76,47.2441 "/>
<polyline clip-path="url(#clip860)" style="stroke:#ffffff; stroke-linecap:round; stroke-linejoin:round; stroke-width:4; stroke-opacity:1; fill:none" points="249.542,1197.02 268.44,1197.02 "/>
<polyline clip-path="url(#clip860)" style="stroke:#ffffff; stroke-linecap:round; stroke-linejoin:round; stroke-width:4; stroke-opacity:1; fill:none" points="249.542,919.314 268.44,919.314 "/>
<polyline clip-path="url(#clip860)" style="stroke:#ffffff; stroke-linecap:round; stroke-linejoin:round; stroke-width:4; stroke-opacity:1; fill:none" points="249.542,641.604 268.44,641.604 "/>
<polyline clip-path="url(#clip860)" style="stroke:#ffffff; stroke-linecap:round; stroke-linejoin:round; stroke-width:4; stroke-opacity:1; fill:none" points="249.542,363.895 268.44,363.895 "/>
<polyline clip-path="url(#clip860)" style="stroke:#ffffff; stroke-linecap:round; stroke-linejoin:round; stroke-width:4; stroke-opacity:1; fill:none" points="249.542,86.1857 268.44,86.1857 "/>
<polyline clip-path="url(#clip860)" style="stroke:#ffffff; stroke-linecap:round; stroke-linejoin:round; stroke-width:4; stroke-opacity:1; fill:none" points="2352.76,1197.02 2333.86,1197.02 "/>
<polyline clip-path="url(#clip860)" style="stroke:#ffffff; stroke-linecap:round; stroke-linejoin:round; stroke-width:4; stroke-opacity:1; fill:none" points="2352.76,919.314 2333.86,919.314 "/>
<polyline clip-path="url(#clip860)" style="stroke:#ffffff; stroke-linecap:round; stroke-linejoin:round; stroke-width:4; stroke-opacity:1; fill:none" points="2352.76,641.604 2333.86,641.604 "/>
<polyline clip-path="url(#clip860)" style="stroke:#ffffff; stroke-linecap:round; stroke-linejoin:round; stroke-width:4; stroke-opacity:1; fill:none" points="2352.76,363.895 2333.86,363.895 "/>
<polyline clip-path="url(#clip860)" style="stroke:#ffffff; stroke-linecap:round; stroke-linejoin:round; stroke-width:4; stroke-opacity:1; fill:none" points="2352.76,86.1857 2333.86,86.1857 "/>
<path clip-path="url(#clip860)" d="M126.205 1182.82 Q122.593 1182.82 120.765 1186.39 Q118.959 1189.93 118.959 1197.06 Q118.959 1204.16 120.765 1207.73 Q122.593 1211.27 126.205 1211.27 Q129.839 1211.27 131.644 1207.73 Q133.473 1204.16 133.473 1197.06 Q133.473 1189.93 131.644 1186.39 Q129.839 1182.82 126.205 1182.82 M126.205 1179.12 Q132.015 1179.12 135.07 1183.72 Q138.149 1188.31 138.149 1197.06 Q138.149 1205.78 135.07 1210.39 Q132.015 1214.97 126.205 1214.97 Q120.394 1214.97 117.316 1210.39 Q114.26 1205.78 114.26 1197.06 Q114.26 1188.31 117.316 1183.72 Q120.394 1179.12 126.205 1179.12 Z" fill="#ffffff" fill-rule="nonzero" fill-opacity="1" /><path clip-path="url(#clip860)" d="M146.366 1208.42 L151.251 1208.42 L151.251 1214.3 L146.366 1214.3 L146.366 1208.42 Z" fill="#ffffff" fill-rule="nonzero" fill-opacity="1" /><path clip-path="url(#clip860)" d="M171.436 1182.82 Q167.825 1182.82 165.996 1186.39 Q164.19 1189.93 164.19 1197.06 Q164.19 1204.16 165.996 1207.73 Q167.825 1211.27 171.436 1211.27 Q175.07 1211.27 176.876 1207.73 Q178.704 1204.16 178.704 1197.06 Q178.704 1189.93 176.876 1186.39 Q175.07 1182.82 171.436 1182.82 M171.436 1179.12 Q177.246 1179.12 180.301 1183.72 Q183.38 1188.31 183.38 1197.06 Q183.38 1205.78 180.301 1210.39 Q177.246 1214.97 171.436 1214.97 Q165.626 1214.97 162.547 1210.39 Q159.491 1205.78 159.491 1197.06 Q159.491 1188.31 162.547 1183.72 Q165.626 1179.12 171.436 1179.12 Z" fill="#ffffff" fill-rule="nonzero" fill-opacity="1" /><path clip-path="url(#clip860)" d="M201.598 1182.82 Q197.987 1182.82 196.158 1186.39 Q194.352 1189.93 194.352 1197.06 Q194.352 1204.16 196.158 1207.73 Q197.987 1211.27 201.598 1211.27 Q205.232 1211.27 207.037 1207.73 Q208.866 1204.16 208.866 1197.06 Q208.866 1189.93 207.037 1186.39 Q205.232 1182.82 201.598 1182.82 M201.598 1179.12 Q207.408 1179.12 210.463 1183.72 Q213.542 1188.31 213.542 1197.06 Q213.542 1205.78 210.463 1210.39 Q207.408 1214.97 201.598 1214.97 Q195.787 1214.97 192.709 1210.39 Q189.653 1205.78 189.653 1197.06 Q189.653 1188.31 192.709 1183.72 Q195.787 1179.12 201.598 1179.12 Z" fill="#ffffff" fill-rule="nonzero" fill-opacity="1" /><path clip-path="url(#clip860)" d="M127.2 905.112 Q123.589 905.112 121.76 908.677 Q119.955 912.219 119.955 919.348 Q119.955 926.455 121.76 930.019 Q123.589 933.561 127.2 933.561 Q130.834 933.561 132.64 930.019 Q134.468 926.455 134.468 919.348 Q134.468 912.219 132.64 908.677 Q130.834 905.112 127.2 905.112 M127.2 901.409 Q133.01 901.409 136.066 906.015 Q139.144 910.598 139.144 919.348 Q139.144 928.075 136.066 932.681 Q133.01 937.265 127.2 937.265 Q121.39 937.265 118.311 932.681 Q115.256 928.075 115.256 919.348 Q115.256 910.598 118.311 906.015 Q121.39 901.409 127.2 901.409 Z" fill="#ffffff" fill-rule="nonzero" fill-opacity="1" /><path clip-path="url(#clip860)" d="M147.362 930.714 L152.246 930.714 L152.246 936.594 L147.362 936.594 L147.362 930.714 Z" fill="#ffffff" fill-rule="nonzero" fill-opacity="1" /><path clip-path="url(#clip860)" d="M166.459 932.658 L182.778 932.658 L182.778 936.594 L160.834 936.594 L160.834 932.658 Q163.496 929.904 168.079 925.274 Q172.686 920.621 173.866 919.279 Q176.112 916.756 176.991 915.02 Q177.894 913.26 177.894 911.571 Q177.894 908.816 175.95 907.08 Q174.028 905.344 170.927 905.344 Q168.727 905.344 166.274 906.108 Q163.843 906.871 161.065 908.422 L161.065 903.7 Q163.89 902.566 166.343 901.987 Q168.797 901.409 170.834 901.409 Q176.204 901.409 179.399 904.094 Q182.593 906.779 182.593 911.27 Q182.593 913.399 181.783 915.32 Q180.996 917.219 178.889 919.811 Q178.311 920.482 175.209 923.7 Q172.107 926.894 166.459 932.658 Z" fill="#ffffff" fill-rule="nonzero" fill-opacity="1" /><path clip-path="url(#clip860)" d="M192.639 902.034 L210.996 902.034 L210.996 905.969 L196.922 905.969 L196.922 914.441 Q197.94 914.094 198.959 913.932 Q199.977 913.746 200.996 913.746 Q206.783 913.746 210.162 916.918 Q213.542 920.089 213.542 925.506 Q213.542 931.084 210.07 934.186 Q206.598 937.265 200.278 937.265 Q198.102 937.265 195.834 936.894 Q193.588 936.524 191.181 935.783 L191.181 931.084 Q193.264 932.219 195.487 932.774 Q197.709 933.33 200.186 933.33 Q204.19 933.33 206.528 931.223 Q208.866 929.117 208.866 925.506 Q208.866 921.895 206.528 919.788 Q204.19 917.682 200.186 917.682 Q198.311 917.682 196.436 918.098 Q194.584 918.515 192.639 919.395 L192.639 902.034 Z" fill="#ffffff" fill-rule="nonzero" fill-opacity="1" /><path clip-path="url(#clip860)" d="M126.205 627.403 Q122.593 627.403 120.765 630.968 Q118.959 634.509 118.959 641.639 Q118.959 648.745 120.765 652.31 Q122.593 655.852 126.205 655.852 Q129.839 655.852 131.644 652.31 Q133.473 648.745 133.473 641.639 Q133.473 634.509 131.644 630.968 Q129.839 627.403 126.205 627.403 M126.205 623.699 Q132.015 623.699 135.07 628.306 Q138.149 632.889 138.149 641.639 Q138.149 650.366 135.07 654.972 Q132.015 659.556 126.205 659.556 Q120.394 659.556 117.316 654.972 Q114.26 650.366 114.26 641.639 Q114.26 632.889 117.316 628.306 Q120.394 623.699 126.205 623.699 Z" fill="#ffffff" fill-rule="nonzero" fill-opacity="1" /><path clip-path="url(#clip860)" d="M146.366 653.005 L151.251 653.005 L151.251 658.884 L146.366 658.884 L146.366 653.005 Z" fill="#ffffff" fill-rule="nonzero" fill-opacity="1" /><path clip-path="url(#clip860)" d="M161.482 624.324 L179.839 624.324 L179.839 628.259 L165.765 628.259 L165.765 636.732 Q166.783 636.384 167.802 636.222 Q168.82 636.037 169.839 636.037 Q175.626 636.037 179.005 639.208 Q182.385 642.38 182.385 647.796 Q182.385 653.375 178.913 656.477 Q175.44 659.556 169.121 659.556 Q166.945 659.556 164.677 659.185 Q162.431 658.815 160.024 658.074 L160.024 653.375 Q162.107 654.509 164.329 655.065 Q166.552 655.62 169.028 655.62 Q173.033 655.62 175.371 653.514 Q177.709 651.407 177.709 647.796 Q177.709 644.185 175.371 642.079 Q173.033 639.972 169.028 639.972 Q167.153 639.972 165.278 640.389 Q163.427 640.806 161.482 641.685 L161.482 624.324 Z" fill="#ffffff" fill-rule="nonzero" fill-opacity="1" /><path clip-path="url(#clip860)" d="M201.598 627.403 Q197.987 627.403 196.158 630.968 Q194.352 634.509 194.352 641.639 Q194.352 648.745 196.158 652.31 Q197.987 655.852 201.598 655.852 Q205.232 655.852 207.037 652.31 Q208.866 648.745 208.866 641.639 Q208.866 634.509 207.037 630.968 Q205.232 627.403 201.598 627.403 M201.598 623.699 Q207.408 623.699 210.463 628.306 Q213.542 632.889 213.542 641.639 Q213.542 650.366 210.463 654.972 Q207.408 659.556 201.598 659.556 Q195.787 659.556 192.709 654.972 Q189.653 650.366 189.653 641.639 Q189.653 632.889 192.709 628.306 Q195.787 623.699 201.598 623.699 Z" fill="#ffffff" fill-rule="nonzero" fill-opacity="1" /><path clip-path="url(#clip860)" d="M127.2 349.694 Q123.589 349.694 121.76 353.258 Q119.955 356.8 119.955 363.93 Q119.955 371.036 121.76 374.601 Q123.589 378.143 127.2 378.143 Q130.834 378.143 132.64 374.601 Q134.468 371.036 134.468 363.93 Q134.468 356.8 132.64 353.258 Q130.834 349.694 127.2 349.694 M127.2 345.99 Q133.01 345.99 136.066 350.596 Q139.144 355.18 139.144 363.93 Q139.144 372.656 136.066 377.263 Q133.01 381.846 127.2 381.846 Q121.39 381.846 118.311 377.263 Q115.256 372.656 115.256 363.93 Q115.256 355.18 118.311 350.596 Q121.39 345.99 127.2 345.99 Z" fill="#ffffff" fill-rule="nonzero" fill-opacity="1" /><path clip-path="url(#clip860)" d="M147.362 375.295 L152.246 375.295 L152.246 381.175 L147.362 381.175 L147.362 375.295 Z" fill="#ffffff" fill-rule="nonzero" fill-opacity="1" /><path clip-path="url(#clip860)" d="M161.251 346.615 L183.473 346.615 L183.473 348.606 L170.927 381.175 L166.042 381.175 L177.848 350.55 L161.251 350.55 L161.251 346.615 Z" fill="#ffffff" fill-rule="nonzero" fill-opacity="1" /><path clip-path="url(#clip860)" d="M192.639 346.615 L210.996 346.615 L210.996 350.55 L196.922 350.55 L196.922 359.022 Q197.94 358.675 198.959 358.513 Q199.977 358.328 200.996 358.328 Q206.783 358.328 210.162 361.499 Q213.542 364.67 213.542 370.087 Q213.542 375.666 210.07 378.768 Q206.598 381.846 200.278 381.846 Q198.102 381.846 195.834 381.476 Q193.588 381.106 191.181 380.365 L191.181 375.666 Q193.264 376.8 195.487 377.356 Q197.709 377.911 200.186 377.911 Q204.19 377.911 206.528 375.805 Q208.866 373.698 208.866 370.087 Q208.866 366.476 206.528 364.369 Q204.19 362.263 200.186 362.263 Q198.311 362.263 196.436 362.68 Q194.584 363.096 192.639 363.976 L192.639 346.615 Z" fill="#ffffff" fill-rule="nonzero" fill-opacity="1" /><path clip-path="url(#clip860)" d="M117.015 99.5305 L124.654 99.5305 L124.654 73.1649 L116.343 74.8316 L116.343 70.5723 L124.607 68.9057 L129.283 68.9057 L129.283 99.5305 L136.922 99.5305 L136.922 103.466 L117.015 103.466 L117.015 99.5305 Z" fill="#ffffff" fill-rule="nonzero" fill-opacity="1" /><path clip-path="url(#clip860)" d="M146.366 97.5861 L151.251 97.5861 L151.251 103.466 L146.366 103.466 L146.366 97.5861 Z" fill="#ffffff" fill-rule="nonzero" fill-opacity="1" /><path clip-path="url(#clip860)" d="M171.436 71.9844 Q167.825 71.9844 165.996 75.5492 Q164.19 79.0908 164.19 86.2204 Q164.19 93.3268 165.996 96.8916 Q167.825 100.433 171.436 100.433 Q175.07 100.433 176.876 96.8916 Q178.704 93.3268 178.704 86.2204 Q178.704 79.0908 176.876 75.5492 Q175.07 71.9844 171.436 71.9844 M171.436 68.2807 Q177.246 68.2807 180.301 72.8871 Q183.38 77.4704 183.38 86.2204 Q183.38 94.9472 180.301 99.5537 Q177.246 104.137 171.436 104.137 Q165.626 104.137 162.547 99.5537 Q159.491 94.9472 159.491 86.2204 Q159.491 77.4704 162.547 72.8871 Q165.626 68.2807 171.436 68.2807 Z" fill="#ffffff" fill-rule="nonzero" fill-opacity="1" /><path clip-path="url(#clip860)" d="M201.598 71.9844 Q197.987 71.9844 196.158 75.5492 Q194.352 79.0908 194.352 86.2204 Q194.352 93.3268 196.158 96.8916 Q197.987 100.433 201.598 100.433 Q205.232 100.433 207.037 96.8916 Q208.866 93.3268 208.866 86.2204 Q208.866 79.0908 207.037 75.5492 Q205.232 71.9844 201.598 71.9844 M201.598 68.2807 Q207.408 68.2807 210.463 72.8871 Q213.542 77.4704 213.542 86.2204 Q213.542 94.9472 210.463 99.5537 Q207.408 104.137 201.598 104.137 Q195.787 104.137 192.709 99.5537 Q189.653 94.9472 189.653 86.2204 Q189.653 77.4704 192.709 72.8871 Q195.787 68.2807 201.598 68.2807 Z" fill="#ffffff" fill-rule="nonzero" fill-opacity="1" /><path clip-path="url(#clip860)" d="M18.0438 1223.51 L24.314 1223.51 Q22.5634 1227.17 21.704 1230.42 Q20.8447 1233.66 20.8447 1236.69 Q20.8447 1241.94 22.8817 1244.8 Q24.9187 1247.64 28.6745 1247.64 Q31.8255 1247.64 33.4488 1245.76 Q35.0402 1243.85 36.0269 1238.56 L36.8226 1234.68 Q38.1912 1227.49 41.6605 1224.08 Q45.098 1220.64 50.8908 1220.64 Q57.7976 1220.64 61.3624 1225.29 Q64.9272 1229.91 64.9272 1238.85 Q64.9272 1242.22 64.1633 1246.04 Q63.3994 1249.83 61.9035 1253.91 L55.2831 1253.91 Q57.4793 1249.99 58.5933 1246.23 Q59.7073 1242.48 59.7073 1238.85 Q59.7073 1233.34 57.543 1230.35 Q55.3786 1227.36 51.3682 1227.36 Q47.8671 1227.36 45.8937 1229.53 Q43.9204 1231.66 42.9337 1236.56 L42.1698 1240.47 Q40.7375 1247.67 37.682 1250.88 Q34.6264 1254.1 29.1837 1254.1 Q22.8817 1254.1 19.2532 1249.67 Q15.6248 1245.22 15.6248 1237.42 Q15.6248 1234.08 16.2295 1230.61 Q16.8343 1227.14 18.0438 1223.51 Z" fill="#ffffff" fill-rule="nonzero" fill-opacity="1" /><path clip-path="url(#clip860)" d="M21.7677 1204.19 L39.6235 1204.19 L39.6235 1196.11 Q39.6235 1191.62 37.3 1189.17 Q34.9765 1186.72 30.6797 1186.72 Q26.4147 1186.72 24.0912 1189.17 Q21.7677 1191.62 21.7677 1196.11 L21.7677 1204.19 M16.4842 1210.62 L16.4842 1196.11 Q16.4842 1188.12 20.1126 1184.04 Q23.7092 1179.94 30.6797 1179.94 Q37.7138 1179.94 41.3104 1184.04 Q44.907 1188.12 44.907 1196.11 L44.907 1204.19 L64.0042 1204.19 L64.0042 1210.62 L16.4842 1210.62 Z" fill="#ffffff" fill-rule="nonzero" fill-opacity="1" /><path clip-path="url(#clip860)" d="M16.4842 1179.27 L16.4842 1172.36 L36.0269 1159.18 L16.4842 1146.1 L16.4842 1139.2 L41.3741 1156 L64.0042 1156 L64.0042 1162.46 L41.3741 1162.46 L16.4842 1179.27 Z" fill="#ffffff" fill-rule="nonzero" fill-opacity="1" /><path clip-path="url(#clip860)" d="M46.0847 1096.26 Q46.0847 1103.36 47.7079 1106.09 Q49.3312 1108.83 53.2461 1108.83 Q56.3653 1108.83 58.2114 1106.79 Q60.0256 1104.73 60.0256 1101.19 Q60.0256 1096.32 56.5881 1093.39 Q53.1188 1090.43 47.3897 1090.43 L46.0847 1090.43 L46.0847 1096.26 M43.6657 1084.58 L64.0042 1084.58 L64.0042 1090.43 L58.5933 1090.43 Q61.8398 1092.44 63.3994 1095.43 Q64.9272 1098.42 64.9272 1102.75 Q64.9272 1108.23 61.8716 1111.47 Q58.7843 1114.69 53.6281 1114.69 Q47.6125 1114.69 44.5569 1110.68 Q41.5014 1106.64 41.5014 1098.65 L41.5014 1090.43 L40.9285 1090.43 Q36.8862 1090.43 34.6901 1093.11 Q32.4621 1095.75 32.4621 1100.56 Q32.4621 1103.61 33.1941 1106.51 Q33.9262 1109.4 35.3903 1112.08 L29.9795 1112.08 Q28.7381 1108.86 28.1334 1105.84 Q27.4968 1102.82 27.4968 1099.95 Q27.4968 1092.22 31.5072 1088.4 Q35.5176 1084.58 43.6657 1084.58 Z" fill="#ffffff" fill-rule="nonzero" fill-opacity="1" /><path clip-path="url(#clip860)" d="M49.9359 1073.12 L28.3562 1073.12 L28.3562 1067.26 L49.7131 1067.26 Q54.7739 1067.26 57.3202 1065.29 Q59.8346 1063.32 59.8346 1059.37 Q59.8346 1054.63 56.8109 1051.89 Q53.7872 1049.12 48.5673 1049.12 L28.3562 1049.12 L28.3562 1043.26 L64.0042 1043.26 L64.0042 1049.12 L58.5296 1049.12 Q61.7762 1051.25 63.3676 1054.09 Q64.9272 1056.89 64.9272 1060.61 Q64.9272 1066.75 61.1078 1069.94 Q57.2883 1073.12 49.9359 1073.12 M27.4968 1058.38 L27.4968 1058.38 Z" fill="#ffffff" fill-rule="nonzero" fill-opacity="1" /><path clip-path="url(#clip860)" d="M18.2347 1025.41 L28.3562 1025.41 L28.3562 1013.35 L32.9077 1013.35 L32.9077 1025.41 L52.2594 1025.41 Q56.6199 1025.41 57.8613 1024.23 Q59.1026 1023.02 59.1026 1019.36 L59.1026 1013.35 L64.0042 1013.35 L64.0042 1019.36 Q64.0042 1026.14 61.4897 1028.72 Q58.9434 1031.3 52.2594 1031.3 L32.9077 1031.3 L32.9077 1035.59 L28.3562 1035.59 L28.3562 1031.3 L18.2347 1031.3 L18.2347 1025.41 Z" fill="#ffffff" fill-rule="nonzero" fill-opacity="1" /><path clip-path="url(#clip860)" d="M32.4621 991.83 Q32.4621 996.54 36.1542 999.277 Q39.8145 1002.01 46.212 1002.01 Q52.6095 1002.01 56.3017 999.309 Q59.9619 996.572 59.9619 991.83 Q59.9619 987.151 56.2698 984.413 Q52.5777 981.676 46.212 981.676 Q39.8781 981.676 36.186 984.413 Q32.4621 987.151 32.4621 991.83 M27.4968 991.83 Q27.4968 984.191 32.4621 979.83 Q37.4273 975.47 46.212 975.47 Q54.9649 975.47 59.9619 979.83 Q64.9272 984.191 64.9272 991.83 Q64.9272 999.5 59.9619 1003.86 Q54.9649 1008.19 46.212 1008.19 Q37.4273 1008.19 32.4621 1003.86 Q27.4968 999.5 27.4968 991.83 Z" fill="#ffffff" fill-rule="nonzero" fill-opacity="1" /><path clip-path="url(#clip860)" d="M29.7248 940.108 L35.1993 940.108 Q33.8307 942.591 33.1623 945.105 Q32.4621 947.588 32.4621 950.134 Q32.4621 955.831 36.0905 958.982 Q39.6872 962.133 46.212 962.133 Q52.7369 962.133 56.3653 958.982 Q59.9619 955.831 59.9619 950.134 Q59.9619 947.588 59.2935 945.105 Q58.5933 942.591 57.2247 940.108 L62.6355 940.108 Q63.7814 942.559 64.3543 945.201 Q64.9272 947.811 64.9272 950.771 Q64.9272 958.823 59.8664 963.566 Q54.8057 968.308 46.212 968.308 Q37.491 968.308 32.4939 963.534 Q27.4968 958.728 27.4968 950.389 Q27.4968 947.683 28.0697 945.105 Q28.6108 942.527 29.7248 940.108 Z" fill="#ffffff" fill-rule="nonzero" fill-opacity="1" /><path clip-path="url(#clip860)" d="M32.4621 916.109 Q32.4621 920.82 36.1542 923.557 Q39.8145 926.295 46.212 926.295 Q52.6095 926.295 56.3017 923.589 Q59.9619 920.852 59.9619 916.109 Q59.9619 911.431 56.2698 908.693 Q52.5777 905.956 46.212 905.956 Q39.8781 905.956 36.186 908.693 Q32.4621 911.431 32.4621 916.109 M27.4968 916.109 Q27.4968 908.471 32.4621 904.11 Q37.4273 899.75 46.212 899.75 Q54.9649 899.75 59.9619 904.11 Q64.9272 908.471 64.9272 916.109 Q64.9272 923.78 59.9619 928.141 Q54.9649 932.469 46.212 932.469 Q37.4273 932.469 32.4621 928.141 Q27.4968 923.78 27.4968 916.109 Z" fill="#ffffff" fill-rule="nonzero" fill-opacity="1" /><path clip-path="url(#clip860)" d="M33.8307 869.385 Q33.2578 870.372 33.0032 871.549 Q32.7167 872.695 32.7167 874.096 Q32.7167 879.061 35.9632 881.735 Q39.1779 884.376 45.2253 884.376 L64.0042 884.376 L64.0042 890.265 L28.3562 890.265 L28.3562 884.376 L33.8944 884.376 Q30.6479 882.53 29.0883 879.57 Q27.4968 876.61 27.4968 872.377 Q27.4968 871.772 27.5923 871.04 Q27.656 870.308 27.8151 869.417 L33.8307 869.385 Z" fill="#ffffff" fill-rule="nonzero" fill-opacity="1" /><path clip-path="url(#clip860)" d="M33.8307 843.731 Q33.2578 844.718 33.0032 845.896 Q32.7167 847.042 32.7167 848.442 Q32.7167 853.407 35.9632 856.081 Q39.1779 858.723 45.2253 858.723 L64.0042 858.723 L64.0042 864.611 L28.3562 864.611 L28.3562 858.723 L33.8944 858.723 Q30.6479 856.877 29.0883 853.916 Q27.4968 850.956 27.4968 846.723 Q27.4968 846.118 27.5923 845.386 Q27.656 844.654 27.8151 843.763 L33.8307 843.731 Z" fill="#ffffff" fill-rule="nonzero" fill-opacity="1" /><path clip-path="url(#clip860)" d="M44.7161 808.529 L47.5806 808.529 L47.5806 835.456 Q53.6281 835.074 56.8109 831.827 Q59.9619 828.549 59.9619 822.725 Q59.9619 819.351 59.1344 816.2 Q58.3069 813.017 56.6518 809.898 L62.1899 809.898 Q63.5267 813.049 64.227 816.359 Q64.9272 819.669 64.9272 823.075 Q64.9272 831.605 59.9619 836.602 Q54.9967 841.567 46.5303 841.567 Q37.7774 841.567 32.6531 836.856 Q27.4968 832.114 27.4968 824.093 Q27.4968 816.9 32.1438 812.73 Q36.7589 808.529 44.7161 808.529 M42.9973 814.385 Q38.1912 814.449 35.3266 817.091 Q32.4621 819.701 32.4621 824.029 Q32.4621 828.931 35.2312 831.891 Q38.0002 834.819 43.0292 835.265 L42.9973 814.385 Z" fill="#ffffff" fill-rule="nonzero" fill-opacity="1" /><path clip-path="url(#clip860)" d="M14.479 798.917 L14.479 793.06 L64.0042 793.06 L64.0042 798.917 L14.479 798.917 Z" fill="#ffffff" fill-rule="nonzero" fill-opacity="1" /><path clip-path="url(#clip860)" d="M46.0847 764.606 Q46.0847 771.703 47.7079 774.441 Q49.3312 777.178 53.2461 777.178 Q56.3653 777.178 58.2114 775.141 Q60.0256 773.072 60.0256 769.539 Q60.0256 764.669 56.5881 761.741 Q53.1188 758.781 47.3897 758.781 L46.0847 758.781 L46.0847 764.606 M43.6657 752.925 L64.0042 752.925 L64.0042 758.781 L58.5933 758.781 Q61.8398 760.786 63.3994 763.778 Q64.9272 766.77 64.9272 771.099 Q64.9272 776.573 61.8716 779.82 Q58.7843 783.034 53.6281 783.034 Q47.6125 783.034 44.5569 779.024 Q41.5014 774.982 41.5014 766.993 L41.5014 758.781 L40.9285 758.781 Q36.8862 758.781 34.6901 761.455 Q32.4621 764.096 32.4621 768.902 Q32.4621 771.958 33.1941 774.854 Q33.9262 777.751 35.3903 780.424 L29.9795 780.424 Q28.7381 777.21 28.1334 774.186 Q27.4968 771.162 27.4968 768.298 Q27.4968 760.563 31.5072 756.744 Q35.5176 752.925 43.6657 752.925 Z" fill="#ffffff" fill-rule="nonzero" fill-opacity="1" /><path clip-path="url(#clip860)" d="M18.2347 735.069 L28.3562 735.069 L28.3562 723.006 L32.9077 723.006 L32.9077 735.069 L52.2594 735.069 Q56.6199 735.069 57.8613 733.891 Q59.1026 732.682 59.1026 729.021 L59.1026 723.006 L64.0042 723.006 L64.0042 729.021 Q64.0042 735.801 61.4897 738.379 Q58.9434 740.957 52.2594 740.957 L32.9077 740.957 L32.9077 745.254 L28.3562 745.254 L28.3562 740.957 L18.2347 740.957 L18.2347 735.069 Z" fill="#ffffff" fill-rule="nonzero" fill-opacity="1" /><path clip-path="url(#clip860)" d="M28.3562 715.303 L28.3562 709.447 L64.0042 709.447 L64.0042 715.303 L28.3562 715.303 M14.479 715.303 L14.479 709.447 L21.895 709.447 L21.895 715.303 L14.479 715.303 Z" fill="#ffffff" fill-rule="nonzero" fill-opacity="1" /><path clip-path="url(#clip860)" d="M32.4621 683.379 Q32.4621 688.09 36.1542 690.827 Q39.8145 693.564 46.212 693.564 Q52.6095 693.564 56.3017 690.859 Q59.9619 688.122 59.9619 683.379 Q59.9619 678.7 56.2698 675.963 Q52.5777 673.226 46.212 673.226 Q39.8781 673.226 36.186 675.963 Q32.4621 678.7 32.4621 683.379 M27.4968 683.379 Q27.4968 675.74 32.4621 671.38 Q37.4273 667.019 46.212 667.019 Q54.9649 667.019 59.9619 671.38 Q64.9272 675.74 64.9272 683.379 Q64.9272 691.05 59.9619 695.41 Q54.9649 699.739 46.212 699.739 Q37.4273 699.739 32.4621 695.41 Q27.4968 691.05 27.4968 683.379 Z" fill="#ffffff" fill-rule="nonzero" fill-opacity="1" /><path clip-path="url(#clip860)" d="M42.4881 627.679 L64.0042 627.679 L64.0042 633.536 L42.679 633.536 Q37.6183 633.536 35.1038 635.509 Q32.5894 637.482 32.5894 641.429 Q32.5894 646.172 35.6131 648.909 Q38.6368 651.646 43.8567 651.646 L64.0042 651.646 L64.0042 657.534 L28.3562 657.534 L28.3562 651.646 L33.8944 651.646 Q30.6797 649.545 29.0883 646.713 Q27.4968 643.848 27.4968 640.124 Q27.4968 633.981 31.3163 630.83 Q35.1038 627.679 42.4881 627.679 Z" fill="#ffffff" fill-rule="nonzero" fill-opacity="1" /><path clip-path="url(#clip860)" d="M45.7664 571.82 Q39.4007 571.82 35.8996 574.462 Q32.3984 577.072 32.3984 581.814 Q32.3984 586.525 35.8996 589.167 Q39.4007 591.777 45.7664 591.777 Q52.1003 591.777 55.6014 589.167 Q59.1026 586.525 59.1026 581.814 Q59.1026 577.072 55.6014 574.462 Q52.1003 571.82 45.7664 571.82 M59.58 565.964 Q68.683 565.964 73.1071 570.006 Q77.5631 574.048 77.5631 582.387 Q77.5631 585.475 77.0857 588.212 Q76.6401 590.949 75.6852 593.527 L69.9879 593.527 Q71.3884 590.949 72.0568 588.435 Q72.7252 585.92 72.7252 583.31 Q72.7252 577.549 69.7015 574.685 Q66.7096 571.82 60.6303 571.82 L57.7339 571.82 Q60.885 573.634 62.4446 576.467 Q64.0042 579.3 64.0042 583.247 Q64.0042 589.803 59.0071 593.814 Q54.01 597.824 45.7664 597.824 Q37.491 597.824 32.4939 593.814 Q27.4968 589.803 27.4968 583.247 Q27.4968 579.3 29.0564 576.467 Q30.616 573.634 33.7671 571.82 L28.3562 571.82 L28.3562 565.964 L59.58 565.964 Z" fill="#ffffff" fill-rule="nonzero" fill-opacity="1" /><path clip-path="url(#clip860)" d="M33.8307 533.244 Q33.2578 534.231 33.0032 535.408 Q32.7167 536.554 32.7167 537.955 Q32.7167 542.92 35.9632 545.593 Q39.1779 548.235 45.2253 548.235 L64.0042 548.235 L64.0042 554.124 L28.3562 554.124 L28.3562 548.235 L33.8944 548.235 Q30.6479 546.389 29.0883 543.429 Q27.4968 540.469 27.4968 536.236 Q27.4968 535.631 27.5923 534.899 Q27.656 534.167 27.8151 533.276 L33.8307 533.244 Z" fill="#ffffff" fill-rule="nonzero" fill-opacity="1" /><path clip-path="url(#clip860)" d="M32.4621 514.72 Q32.4621 519.43 36.1542 522.168 Q39.8145 524.905 46.212 524.905 Q52.6095 524.905 56.3017 522.2 Q59.9619 519.462 59.9619 514.72 Q59.9619 510.041 56.2698 507.304 Q52.5777 504.567 46.212 504.567 Q39.8781 504.567 36.186 507.304 Q32.4621 510.041 32.4621 514.72 M27.4968 514.72 Q27.4968 507.081 32.4621 502.72 Q37.4273 498.36 46.212 498.36 Q54.9649 498.36 59.9619 502.72 Q64.9272 507.081 64.9272 514.72 Q64.9272 522.39 59.9619 526.751 Q54.9649 531.08 46.212 531.08 Q37.4273 531.08 32.4621 526.751 Q27.4968 522.39 27.4968 514.72 Z" fill="#ffffff" fill-rule="nonzero" fill-opacity="1" /><path clip-path="url(#clip860)" d="M28.3562 492.058 L28.3562 486.201 L56.1743 478.881 L28.3562 471.592 L28.3562 464.685 L56.1743 457.365 L28.3562 450.076 L28.3562 444.22 L64.0042 453.545 L64.0042 460.452 L34.7856 468.123 L64.0042 475.825 L64.0042 482.732 L28.3562 492.058 Z" fill="#ffffff" fill-rule="nonzero" fill-opacity="1" /><path clip-path="url(#clip860)" d="M18.2347 429.547 L28.3562 429.547 L28.3562 417.484 L32.9077 417.484 L32.9077 429.547 L52.2594 429.547 Q56.6199 429.547 57.8613 428.369 Q59.1026 427.16 59.1026 423.499 L59.1026 417.484 L64.0042 417.484 L64.0042 423.499 Q64.0042 430.279 61.4897 432.857 Q58.9434 435.435 52.2594 435.435 L32.9077 435.435 L32.9077 439.732 L28.3562 439.732 L28.3562 435.435 L18.2347 435.435 L18.2347 429.547 Z" fill="#ffffff" fill-rule="nonzero" fill-opacity="1" /><path clip-path="url(#clip860)" d="M42.4881 380.149 L64.0042 380.149 L64.0042 386.005 L42.679 386.005 Q37.6183 386.005 35.1038 387.979 Q32.5894 389.952 32.5894 393.899 Q32.5894 398.641 35.6131 401.378 Q38.6368 404.116 43.8567 404.116 L64.0042 404.116 L64.0042 410.004 L14.479 410.004 L14.479 404.116 L33.8944 404.116 Q30.6797 402.015 29.0883 399.182 Q27.4968 396.318 27.4968 392.594 Q27.4968 386.451 31.3163 383.3 Q35.1038 380.149 42.4881 380.149 Z" fill="#ffffff" fill-rule="nonzero" fill-opacity="1" /><path clip-path="url(#clip860)" d="M14.5426 333.679 Q21.8632 337.944 29.0246 340.013 Q36.186 342.082 43.5384 342.082 Q50.8908 342.082 58.1159 340.013 Q65.3091 337.912 72.5979 333.679 L72.5979 338.772 Q65.1182 343.546 57.8931 345.933 Q50.668 348.288 43.5384 348.288 Q36.4406 348.288 29.2474 345.933 Q22.0542 343.578 14.5426 338.772 L14.5426 333.679 Z" fill="#ffffff" fill-rule="nonzero" fill-opacity="1" /><path clip-path="url(#clip860)" d="M22.818 306.179 L46.4666 314.9 L46.4666 297.426 L22.818 306.179 M16.4842 309.808 L16.4842 302.519 L64.0042 284.409 L64.0042 291.093 L51.8138 295.421 L51.8138 316.842 L64.0042 321.17 L64.0042 327.95 L16.4842 309.808 Z" fill="#ffffff" fill-rule="nonzero" fill-opacity="1" /><path clip-path="url(#clip860)" d="M16.4842 278.202 L16.4842 271.741 L45.3526 271.741 Q52.9915 271.741 56.3653 268.972 Q59.7073 266.203 59.7073 259.996 Q59.7073 253.821 56.3653 251.052 Q52.9915 248.283 45.3526 248.283 L16.4842 248.283 L16.4842 241.822 L46.1484 241.822 Q55.4423 241.822 60.1847 246.437 Q64.9272 251.02 64.9272 259.996 Q64.9272 269.004 60.1847 273.619 Q55.4423 278.202 46.1484 278.202 L16.4842 278.202 Z" fill="#ffffff" fill-rule="nonzero" fill-opacity="1" /><path clip-path="url(#clip860)" d="M14.5426 230.937 L14.5426 225.844 Q22.0542 221.07 29.2474 218.714 Q36.4406 216.327 43.5384 216.327 Q50.668 216.327 57.8931 218.714 Q65.1182 221.07 72.5979 225.844 L72.5979 230.937 Q65.3091 226.703 58.1159 224.635 Q50.8908 222.534 43.5384 222.534 Q36.186 222.534 29.0246 224.635 Q21.8632 226.703 14.5426 230.937 Z" fill="#ffffff" fill-rule="nonzero" fill-opacity="1" /><polyline clip-path="url(#clip862)" style="stroke:#ff7d00; stroke-linecap:round; stroke-linejoin:round; stroke-width:4; stroke-opacity:1; fill:none" points="309.067,86.1857 318.793,86.1857 318.793,975.84 328.52,975.84 328.52,1330.64 338.246,1330.64 338.246,1172.43 347.972,1172.43 347.972,1062.53 357.698,1062.53 357.698,1237.23 367.425,1237.23 367.425,1248.73 377.151,1248.73 377.151,1184.47 386.877,1184.47 386.877,1258.92 396.604,1258.92 396.604,1276.18 406.33,1276.18 406.33,1251.57 416.056,1251.57 416.056,1194.05 425.782,1194.05 425.782,1330.4 435.509,1330.4 435.509,1152.29 445.235,1152.29 445.235,1277.09 454.961,1277.09 454.961,1374.09 464.688,1374.09 464.688,1349.18 474.414,1349.18 474.414,1178.16 484.14,1178.16 484.14,1187.9 493.867,1187.9 493.867,1191.69 503.593,1191.69 503.593,1152.73 513.319,1152.73 513.319,1148.6 523.045,1148.6 523.045,1145.05 532.772,1145.05 532.772,1113.04 542.498,1113.04 542.498,1083.21 552.224,1083.21 552.224,1276.46 561.951,1276.46 561.951,1279 571.677,1279 571.677,1181.7 581.403,1181.7 581.403,1242.42 591.129,1242.42 591.129,1227.86 600.856,1227.86 600.856,1129.13 610.582,1129.13 610.582,1127.96 620.308,1127.96 620.308,1255.95 630.035,1255.95 630.035,1190.18 639.761,1190.18 639.761,1248.19 649.487,1248.19 649.487,1260.46 659.214,1260.46 659.214,1251.4 668.94,1251.4 668.94,1189.1 678.666,1189.1 678.666,1206.76 688.392,1206.76 688.392,1248.91 698.119,1248.91 698.119,1242.79 707.845,1242.79 707.845,1104.43 717.571,1104.43 717.571,1140.48 727.298,1140.48 727.298,1305.71 737.024,1305.71 737.024,1190.42 746.75,1190.42 746.75,1115.2 756.476,1115.2 756.476,1191.06 766.203,1191.06 766.203,1285.72 775.929,1285.72 775.929,1215.27 785.655,1215.27 785.655,1180.62 795.382,1180.62 795.382,1202.66 805.108,1202.66 805.108,1231.33 814.834,1231.33 814.834,1142.72 824.561,1142.72 824.561,1241.09 834.287,1241.09 834.287,1285.78 844.013,1285.78 844.013,1261.92 853.739,1261.92 853.739,1296.37 863.466,1296.37 863.466,1284.76 873.192,1284.76 873.192,1183.63 882.918,1183.63 882.918,1250.99 892.645,1250.99 892.645,1297.72 902.371,1297.72 902.371,1247.75 912.097,1247.75 912.097,1207.74 921.823,1207.74 921.823,1196.44 931.55,1196.44 931.55,1158.73 941.276,1158.73 941.276,1032.96 951.002,1032.96 951.002,1147.93 960.729,1147.93 960.729,1172.49 970.455,1172.49 970.455,1100.15 980.181,1100.15 980.181,1071.83 989.908,1071.83 989.908,1194.44 999.634,1194.44 999.634,1191.51 1009.36,1191.51 1009.36,1123.68 1019.09,1123.68 1019.09,1097.67 1028.81,1097.67 1028.81,1147.26 1038.54,1147.26 1038.54,1172.52 1048.27,1172.52 1048.27,1165.87 1057.99,1165.87 1057.99,1191.1 1067.72,1191.1 1067.72,1210.67 1077.44,1210.67 1077.44,1192.27 1087.17,1192.27 1087.17,1162.1 1096.9,1162.1 1096.9,1219.44 1106.62,1219.44 1106.62,1185.04 1116.35,1185.04 1116.35,1321.92 1126.08,1321.92 1126.08,1245.17 1135.8,1245.17 1135.8,1166.47 1145.53,1166.47 1145.53,1159.49 1155.25,1159.49 1155.25,1251.53 1164.98,1251.53 1164.98,1262.86 1174.71,1262.86 1174.71,1128.3 1184.43,1128.3 1184.43,1093.07 1194.16,1093.07 1194.16,1233.42 1203.89,1233.42 1203.89,1309.48 1213.61,1309.48 1213.61,1206.69 1223.34,1206.69 1223.34,1225.91 1233.06,1225.91 1233.06,1204.56 1242.79,1204.56 1242.79,1200.21 1252.52,1200.21 1252.52,1077.65 1262.24,1077.65 1262.24,1167.36 1271.97,1167.36 1271.97,1196.99 1281.7,1196.99 1281.7,1162.62 1291.42,1162.62 1291.42,1155.74 1301.15,1155.74 1301.15,1243.54 1310.88,1243.54 1310.88,1165.73 1320.6,1165.73 1320.6,1147.02 1330.33,1147.02 1330.33,1310.18 1340.05,1310.18 1340.05,1236.59 1349.78,1236.59 1349.78,1156.87 1359.51,1156.87 1359.51,1176.65 1369.23,1176.65 1369.23,1223.4 1378.96,1223.4 1378.96,1185.54 1388.69,1185.54 1388.69,1182.79 1398.41,1182.79 1398.41,1312.21 1408.14,1312.21 1408.14,1302.08 1417.86,1302.08 1417.86,1130.6 1427.59,1130.6 1427.59,1163.57 1437.32,1163.57 1437.32,1243.56 1447.04,1243.56 1447.04,1172.59 1456.77,1172.59 1456.77,1200.19 1466.5,1200.19 1466.5,1177.01 1476.22,1177.01 1476.22,1131.08 1485.95,1131.08 1485.95,1148.27 1495.67,1148.27 1495.67,1251.49 1505.4,1251.49 1505.4,1266.99 1515.13,1266.99 1515.13,1233.02 1524.85,1233.02 1524.85,1279.18 1534.58,1279.18 1534.58,1229.79 1544.31,1229.79 1544.31,1156.79 1554.03,1156.79 1554.03,1162.31 1563.76,1162.31 1563.76,1295.56 1573.49,1295.56 1573.49,1162.73 1583.21,1162.73 1583.21,1148.58 1592.94,1148.58 1592.94,1186.03 1602.66,1186.03 1602.66,1252.31 1612.39,1252.31 1612.39,1196.82 1622.12,1196.82 1622.12,1277.82 1631.84,1277.82 1631.84,1273.93 1641.57,1273.93 1641.57,1154.55 1651.3,1154.55 1651.3,1134.14 1661.02,1134.14 1661.02,1137.14 1670.75,1137.14 1670.75,1159.47 1680.47,1159.47 1680.47,1139.56 1690.2,1139.56 1690.2,1201.6 1699.93,1201.6 1699.93,1248.97 1709.65,1248.97 1709.65,1211.21 1719.38,1211.21 1719.38,1103.92 1729.11,1103.92 1729.11,1261.22 1738.83,1261.22 1738.83,1230.51 1748.56,1230.51 1748.56,1164.35 1758.28,1164.35 1758.28,1211.6 1768.01,1211.6 1768.01,1182.99 1777.74,1182.99 1777.74,1173.7 1787.46,1173.7 1787.46,1185.19 1797.19,1185.19 1797.19,1208.36 1806.92,1208.36 1806.92,1200.58 1816.64,1200.58 1816.64,1197.24 1826.37,1197.24 1826.37,1228.96 1836.1,1228.96 1836.1,1233.87 1845.82,1233.87 1845.82,1184.15 1855.55,1184.15 1855.55,1186.48 1865.27,1186.48 1865.27,1203.45 1875,1203.45 1875,1142.01 1884.73,1142.01 1884.73,1182.98 1894.45,1182.98 1894.45,1197.11 1904.18,1197.11 1904.18,1211.09 1913.91,1211.09 1913.91,1212.79 1923.63,1212.79 1923.63,1198.74 1933.36,1198.74 1933.36,1214.42 1943.08,1214.42 1943.08,1197.87 1952.81,1197.87 1952.81,1169.96 1962.54,1169.96 1962.54,1191.96 1972.26,1191.96 1972.26,1180.33 1981.99,1180.33 1981.99,1171.16 1991.72,1171.16 1991.72,1228.3 2001.44,1228.3 2001.44,1200.47 2011.17,1200.47 2011.17,1174.32 2020.89,1174.32 2020.89,1208.34 2030.62,1208.34 2030.62,1235.02 2040.35,1235.02 2040.35,1179.39 2050.07,1179.39 2050.07,1185.84 2059.8,1185.84 2059.8,1204.7 2069.53,1204.7 2069.53,1189.85 2079.25,1189.85 2079.25,1195.14 2088.98,1195.14 2088.98,1195.86 2098.71,1195.86 2098.71,1191.62 2108.43,1191.62 2108.43,1189.19 2118.16,1189.19 2118.16,1206.49 2127.88,1206.49 2127.88,1204.55 2137.61,1204.55 2137.61,1192.64 2147.34,1192.64 2147.34,1194.52 2157.06,1194.52 2157.06,1197.61 2166.79,1197.61 2166.79,1209.1 2176.52,1209.1 2176.52,1204.36 2186.24,1204.36 2186.24,1195.14 2195.97,1195.14 2195.97,1193.01 2205.69,1193.01 2205.69,1192.62 2215.42,1192.62 2215.42,1196.4 2225.15,1196.4 2225.15,1197.4 2234.87,1197.4 2234.87,1205.52 2244.6,1205.52 2244.6,1200.95 2254.33,1200.95 2254.33,1202.18 2264.05,1202.18 2264.05,1193.67 2273.78,1193.67 2273.78,1190.83 2283.5,1190.83 2283.5,1197.39 2293.23,1197.39 2293.23,1197.99 "/>
<polyline clip-path="url(#clip862)" style="stroke:#e5e5e5; stroke-linecap:round; stroke-linejoin:round; stroke-width:4; stroke-opacity:1; fill:none" points="309.067,86.1857 318.793,86.1857 318.793,1351.43 328.52,1351.43 328.52,1210.18 338.246,1210.18 338.246,1221.77 347.972,1221.77 347.972,1254.32 357.698,1254.32 357.698,1117.94 367.425,1117.94 367.425,1181.62 377.151,1181.62 377.151,1205.25 386.877,1205.25 386.877,1111.73 396.604,1111.73 396.604,1384.24 406.33,1384.24 406.33,1108.13 416.056,1108.13 416.056,1144.8 425.782,1144.8 425.782,1124.86 435.509,1124.86 435.509,1283.73 445.235,1283.73 445.235,1374.61 454.961,1374.61 454.961,1205.14 464.688,1205.14 464.688,1185.47 474.414,1185.47 474.414,1306.78 484.14,1306.78 484.14,1075.35 493.867,1075.35 493.867,1382.1 503.593,1382.1 503.593,1134 513.319,1134 513.319,1211.93 523.045,1211.93 523.045,1035.51 532.772,1035.51 532.772,1225.17 542.498,1225.17 542.498,1203.93 552.224,1203.93 552.224,1288.2 561.951,1288.2 561.951,1193.85 571.677,1193.85 571.677,1063.01 581.403,1063.01 581.403,1040.19 591.129,1040.19 591.129,1152.95 600.856,1152.95 600.856,1172.38 610.582,1172.38 610.582,1302.93 620.308,1302.93 620.308,1223.6 630.035,1223.6 630.035,1142.49 639.761,1142.49 639.761,1151.18 649.487,1151.18 649.487,1203.91 659.214,1203.91 659.214,1143.13 668.94,1143.13 668.94,1150.73 678.666,1150.73 678.666,1201.43 688.392,1201.43 688.392,1278.08 698.119,1278.08 698.119,1155.16 707.845,1155.16 707.845,1340.94 717.571,1340.94 717.571,1177.16 727.298,1177.16 727.298,1215.37 737.024,1215.37 737.024,1236.1 746.75,1236.1 746.75,1154.36 756.476,1154.36 756.476,1252.6 766.203,1252.6 766.203,1233.58 775.929,1233.58 775.929,1078.76 785.655,1078.76 785.655,1125.1 795.382,1125.1 795.382,1170.82 805.108,1170.82 805.108,1270.86 814.834,1270.86 814.834,1202.16 824.561,1202.16 824.561,1227.58 834.287,1227.58 834.287,1115.13 844.013,1115.13 844.013,1200.09 853.739,1200.09 853.739,1117.43 863.466,1117.43 863.466,1202.34 873.192,1202.34 873.192,1207.09 882.918,1207.09 882.918,1200.8 892.645,1200.8 892.645,1174.1 902.371,1174.1 902.371,1215.42 912.097,1215.42 912.097,1202.96 921.823,1202.96 921.823,1253.95 931.55,1253.95 931.55,1181.36 941.276,1181.36 941.276,1147.08 951.002,1147.08 951.002,1293.64 960.729,1293.64 960.729,1146.93 970.455,1146.93 970.455,1341.28 980.181,1341.28 980.181,1242.02 989.908,1242.02 989.908,1133.41 999.634,1133.41 999.634,1207.86 1009.36,1207.86 1009.36,1140.36 1019.09,1140.36 1019.09,1262.22 1028.81,1262.22 1028.81,1243.86 1038.54,1243.86 1038.54,1205.81 1048.27,1205.81 1048.27,1147.34 1057.99,1147.34 1057.99,1194.33 1067.72,1194.33 1067.72,1227.24 1077.44,1227.24 1077.44,1227.28 1087.17,1227.28 1087.17,1223.64 1096.9,1223.64 1096.9,1191.23 1106.62,1191.23 1106.62,1084.31 1116.35,1084.31 1116.35,1136.51 1126.08,1136.51 1126.08,1255.94 1135.8,1255.94 1135.8,1114.4 1145.53,1114.4 1145.53,1236.64 1155.25,1236.64 1155.25,1189.09 1164.98,1189.09 1164.98,1279.55 1174.71,1279.55 1174.71,1162.44 1184.43,1162.44 1184.43,1166.11 1194.16,1166.11 1194.16,1243.4 1203.89,1243.4 1203.89,1284.51 1213.61,1284.51 1213.61,1121.56 1223.34,1121.56 1223.34,1126.76 1233.06,1126.76 1233.06,1318.75 1242.79,1318.75 1242.79,1215.28 1252.52,1215.28 1252.52,1173.73 1262.24,1173.73 1262.24,1236.27 1271.97,1236.27 1271.97,1198.96 1281.7,1198.96 1281.7,1236.25 1291.42,1236.25 1291.42,1135.36 1301.15,1135.36 1301.15,1222.82 1310.88,1222.82 1310.88,1231.53 1320.6,1231.53 1320.6,1214.79 1330.33,1214.79 1330.33,1177.41 1340.05,1177.41 1340.05,1259.81 1349.78,1259.81 1349.78,1160.97 1359.51,1160.97 1359.51,1268.18 1369.23,1268.18 1369.23,1154.05 1378.96,1154.05 1378.96,1227.37 1388.69,1227.37 1388.69,1225.24 1398.41,1225.24 1398.41,1135.4 1408.14,1135.4 1408.14,1192.49 1417.86,1192.49 1417.86,1258.14 1427.59,1258.14 1427.59,1232.36 1437.32,1232.36 1437.32,1265.61 1447.04,1265.61 1447.04,1131.05 1456.77,1131.05 1456.77,1253.88 1466.5,1253.88 1466.5,1109.47 1476.22,1109.47 1476.22,1268.43 1485.95,1268.43 1485.95,1139.74 1495.67,1139.74 1495.67,1255.23 1505.4,1255.23 1505.4,1192.39 1515.13,1192.39 1515.13,1196.11 1524.85,1196.11 1524.85,1222.27 1534.58,1222.27 1534.58,1228.55 1544.31,1228.55 1544.31,1168.51 1554.03,1168.51 1554.03,1266.72 1563.76,1266.72 1563.76,1097.05 1573.49,1097.05 1573.49,1182.54 1583.21,1182.54 1583.21,1149.01 1592.94,1149.01 1592.94,1217.34 1602.66,1217.34 1602.66,1304.56 1612.39,1304.56 1612.39,1131.43 1622.12,1131.43 1622.12,1221.5 1631.84,1221.5 1631.84,1226.92 1641.57,1226.92 1641.57,1140.68 1651.3,1140.68 1651.3,1311.34 1661.02,1311.34 1661.02,1071.16 1670.75,1071.16 1670.75,1282.71 1680.47,1282.71 1680.47,1164.81 1690.2,1164.81 1690.2,1166.24 1699.93,1166.24 1699.93,1286.51 1709.65,1286.51 1709.65,1239.18 1719.38,1239.18 1719.38,1221.5 1729.11,1221.5 1729.11,1197.13 1738.83,1197.13 1738.83,1111.16 1748.56,1111.16 1748.56,1280.16 1758.28,1280.16 1758.28,1125.46 1768.01,1125.46 1768.01,1179.84 1777.74,1179.84 1777.74,1250.91 1787.46,1250.91 1787.46,1081.1 1797.19,1081.1 1797.19,1245.41 1806.92,1245.41 1806.92,1241.44 1816.64,1241.44 1816.64,1174.64 1826.37,1174.64 1826.37,1228.27 1836.1,1228.27 1836.1,1161.67 1845.82,1161.67 1845.82,1199.22 1855.55,1199.22 1855.55,1194.2 1865.27,1194.2 1865.27,1178.27 1875,1178.27 1875,1199.42 1884.73,1199.42 1884.73,1230.9 1894.45,1230.9 1894.45,1149.43 1904.18,1149.43 1904.18,1241.37 1913.91,1241.37 1913.91,1176.6 1923.63,1176.6 1923.63,1211.08 1933.36,1211.08 1933.36,1185.36 1943.08,1185.36 1943.08,1198.12 1952.81,1198.12 1952.81,1187.6 1962.54,1187.6 1962.54,1170.73 1972.26,1170.73 1972.26,1214.95 1981.99,1214.95 1981.99,1202.08 1991.72,1202.08 1991.72,1208.67 2001.44,1208.67 2001.44,1199.61 2011.17,1199.61 2011.17,1218.8 2020.89,1218.8 2020.89,1184.41 2030.62,1184.41 2030.62,1203.09 2040.35,1203.09 2040.35,1206.29 2050.07,1206.29 2050.07,1172.35 2059.8,1172.35 2059.8,1195.44 2069.53,1195.44 2069.53,1200.33 2079.25,1200.33 2079.25,1186.97 2088.98,1186.97 2088.98,1200.81 2098.71,1200.81 2098.71,1203.33 2108.43,1203.33 2108.43,1197.57 2118.16,1197.57 2118.16,1197.03 2127.88,1197.03 2127.88,1186.8 2137.61,1186.8 2137.61,1201.71 2147.34,1201.71 2147.34,1192.27 2157.06,1192.27 2157.06,1204.78 2166.79,1204.78 2166.79,1189.1 2176.52,1189.1 2176.52,1191.69 2186.24,1191.69 2186.24,1202.59 2195.97,1202.59 2195.97,1193.74 2205.69,1193.74 2205.69,1204.14 2215.42,1204.14 2215.42,1195.33 2225.15,1195.33 2225.15,1188.9 2234.87,1188.9 2234.87,1199.84 2244.6,1199.84 2244.6,1198.95 2254.33,1198.95 2254.33,1193.43 2264.05,1193.43 2264.05,1198.71 2273.78,1198.71 2273.78,1196.35 2283.5,1196.35 2283.5,1196.63 2293.23,1196.63 2293.23,1198.3 "/>
<polyline clip-path="url(#clip862)" style="stroke:#ffffff; stroke-linecap:round; stroke-linejoin:round; stroke-width:8; stroke-opacity:1; fill:none" stroke-dasharray="32, 20" points="309.067,1044.96 318.793,1044.96 328.52,1044.96 338.246,1044.96 347.972,1044.96 357.698,1044.96 367.425,1044.96 377.151,1044.96 386.877,1044.96 396.604,1044.96 406.33,1044.96 416.056,1044.96 425.782,1044.96 435.509,1044.96 445.235,1044.96 454.961,1044.96 464.688,1044.96 474.414,1044.96 484.14,1044.96 493.867,1044.96 503.593,1044.96 513.319,1044.96 523.045,1044.96 532.772,1044.96 542.498,1044.96 552.224,1044.96 561.951,1044.96 571.677,1044.96 581.403,1044.96 591.129,1044.96 600.856,1044.96 610.582,1044.96 620.308,1044.96 630.035,1044.96 639.761,1044.96 649.487,1044.96 659.214,1044.96 668.94,1044.96 678.666,1044.96 688.392,1044.96 698.119,1044.96 707.845,1044.96 717.571,1044.96 727.298,1044.96 737.024,1044.96 746.75,1044.96 756.476,1044.96 766.203,1044.96 775.929,1044.96 785.655,1044.96 795.382,1044.96 805.108,1044.96 814.834,1044.96 824.561,1044.96 834.287,1044.96 844.013,1044.96 853.739,1044.96 863.466,1044.96 873.192,1044.96 882.918,1044.96 892.645,1044.96 902.371,1044.96 912.097,1044.96 921.823,1044.96 931.55,1044.96 941.276,1044.96 951.002,1044.96 960.729,1044.96 970.455,1044.96 980.181,1044.96 989.908,1044.96 999.634,1044.96 1009.36,1044.96 1019.09,1044.96 1028.81,1044.96 1038.54,1044.96 1048.27,1044.96 1057.99,1044.96 1067.72,1044.96 1077.44,1044.96 1087.17,1044.96 1096.9,1044.96 1106.62,1044.96 1116.35,1044.96 1126.08,1044.96 1135.8,1044.96 1145.53,1044.96 1155.25,1044.96 1164.98,1044.96 1174.71,1044.96 1184.43,1044.96 1194.16,1044.96 1203.89,1044.96 1213.61,1044.96 1223.34,1044.96 1233.06,1044.96 1242.79,1044.96 1252.52,1044.96 1262.24,1044.96 1271.97,1044.96 1281.7,1044.96 1291.42,1044.96 1301.15,1044.96 1310.88,1044.96 1320.6,1044.96 1330.33,1044.96 1340.05,1044.96 1349.78,1044.96 1359.51,1044.96 1369.23,1044.96 1378.96,1044.96 1388.69,1044.96 1398.41,1044.96 1408.14,1044.96 1417.86,1044.96 1427.59,1044.96 1437.32,1044.96 1447.04,1044.96 1456.77,1044.96 1466.5,1044.96 1476.22,1044.96 1485.95,1044.96 1495.67,1044.96 1505.4,1044.96 1515.13,1044.96 1524.85,1044.96 1534.58,1044.96 1544.31,1044.96 1554.03,1044.96 1563.76,1044.96 1573.49,1044.96 1583.21,1044.96 1592.94,1044.96 1602.66,1044.96 1612.39,1044.96 1622.12,1044.96 1631.84,1044.96 1641.57,1044.96 1651.3,1044.96 1661.02,1044.96 1670.75,1044.96 1680.47,1044.96 1690.2,1044.96 1699.93,1044.96 1709.65,1044.96 1719.38,1044.96 1729.11,1044.96 1738.83,1044.96 1748.56,1044.96 1758.28,1044.96 1768.01,1044.96 1777.74,1044.96 1787.46,1044.96 1797.19,1044.96 1806.92,1044.96 1816.64,1044.96 1826.37,1044.96 1836.1,1044.96 1845.82,1044.96 1855.55,1044.96 1865.27,1044.96 1875,1044.96 1884.73,1044.96 1894.45,1044.96 1904.18,1044.96 1913.91,1044.96 1923.63,1044.96 1933.36,1044.96 1943.08,1044.96 1952.81,1044.96 1962.54,1044.96 1972.26,1044.96 1981.99,1044.96 1991.72,1044.96 2001.44,1044.96 2011.17,1044.96 2020.89,1044.96 2030.62,1044.96 2040.35,1044.96 2050.07,1044.96 2059.8,1044.96 2069.53,1044.96 2079.25,1044.96 2088.98,1044.96 2098.71,1044.96 2108.43,1044.96 2118.16,1044.96 2127.88,1044.96 2137.61,1044.96 2147.34,1044.96 2157.06,1044.96 2166.79,1044.96 2176.52,1044.96 2186.24,1044.96 2195.97,1044.96 2205.69,1044.96 2215.42,1044.96 2225.15,1044.96 2234.87,1044.96 2244.6,1044.96 2254.33,1044.96 2264.05,1044.96 2273.78,1044.96 2283.5,1044.96 "/>
<polyline clip-path="url(#clip862)" style="stroke:#ffffff; stroke-linecap:round; stroke-linejoin:round; stroke-width:8; stroke-opacity:1; fill:none" stroke-dasharray="32, 20" points="309.067,1349.09 318.793,1349.09 328.52,1349.09 338.246,1349.09 347.972,1349.09 357.698,1349.09 367.425,1349.09 377.151,1349.09 386.877,1349.09 396.604,1349.09 406.33,1349.09 416.056,1349.09 425.782,1349.09 435.509,1349.09 445.235,1349.09 454.961,1349.09 464.688,1349.09 474.414,1349.09 484.14,1349.09 493.867,1349.09 503.593,1349.09 513.319,1349.09 523.045,1349.09 532.772,1349.09 542.498,1349.09 552.224,1349.09 561.951,1349.09 571.677,1349.09 581.403,1349.09 591.129,1349.09 600.856,1349.09 610.582,1349.09 620.308,1349.09 630.035,1349.09 639.761,1349.09 649.487,1349.09 659.214,1349.09 668.94,1349.09 678.666,1349.09 688.392,1349.09 698.119,1349.09 707.845,1349.09 717.571,1349.09 727.298,1349.09 737.024,1349.09 746.75,1349.09 756.476,1349.09 766.203,1349.09 775.929,1349.09 785.655,1349.09 795.382,1349.09 805.108,1349.09 814.834,1349.09 824.561,1349.09 834.287,1349.09 844.013,1349.09 853.739,1349.09 863.466,1349.09 873.192,1349.09 882.918,1349.09 892.645,1349.09 902.371,1349.09 912.097,1349.09 921.823,1349.09 931.55,1349.09 941.276,1349.09 951.002,1349.09 960.729,1349.09 970.455,1349.09 980.181,1349.09 989.908,1349.09 999.634,1349.09 1009.36,1349.09 1019.09,1349.09 1028.81,1349.09 1038.54,1349.09 1048.27,1349.09 1057.99,1349.09 1067.72,1349.09 1077.44,1349.09 1087.17,1349.09 1096.9,1349.09 1106.62,1349.09 1116.35,1349.09 1126.08,1349.09 1135.8,1349.09 1145.53,1349.09 1155.25,1349.09 1164.98,1349.09 1174.71,1349.09 1184.43,1349.09 1194.16,1349.09 1203.89,1349.09 1213.61,1349.09 1223.34,1349.09 1233.06,1349.09 1242.79,1349.09 1252.52,1349.09 1262.24,1349.09 1271.97,1349.09 1281.7,1349.09 1291.42,1349.09 1301.15,1349.09 1310.88,1349.09 1320.6,1349.09 1330.33,1349.09 1340.05,1349.09 1349.78,1349.09 1359.51,1349.09 1369.23,1349.09 1378.96,1349.09 1388.69,1349.09 1398.41,1349.09 1408.14,1349.09 1417.86,1349.09 1427.59,1349.09 1437.32,1349.09 1447.04,1349.09 1456.77,1349.09 1466.5,1349.09 1476.22,1349.09 1485.95,1349.09 1495.67,1349.09 1505.4,1349.09 1515.13,1349.09 1524.85,1349.09 1534.58,1349.09 1544.31,1349.09 1554.03,1349.09 1563.76,1349.09 1573.49,1349.09 1583.21,1349.09 1592.94,1349.09 1602.66,1349.09 1612.39,1349.09 1622.12,1349.09 1631.84,1349.09 1641.57,1349.09 1651.3,1349.09 1661.02,1349.09 1670.75,1349.09 1680.47,1349.09 1690.2,1349.09 1699.93,1349.09 1709.65,1349.09 1719.38,1349.09 1729.11,1349.09 1738.83,1349.09 1748.56,1349.09 1758.28,1349.09 1768.01,1349.09 1777.74,1349.09 1787.46,1349.09 1797.19,1349.09 1806.92,1349.09 1816.64,1349.09 1826.37,1349.09 1836.1,1349.09 1845.82,1349.09 1855.55,1349.09 1865.27,1349.09 1875,1349.09 1884.73,1349.09 1894.45,1349.09 1904.18,1349.09 1913.91,1349.09 1923.63,1349.09 1933.36,1349.09 1943.08,1349.09 1952.81,1349.09 1962.54,1349.09 1972.26,1349.09 1981.99,1349.09 1991.72,1349.09 2001.44,1349.09 2011.17,1349.09 2020.89,1349.09 2030.62,1349.09 2040.35,1349.09 2050.07,1349.09 2059.8,1349.09 2069.53,1349.09 2079.25,1349.09 2088.98,1349.09 2098.71,1349.09 2108.43,1349.09 2118.16,1349.09 2127.88,1349.09 2137.61,1349.09 2147.34,1349.09 2157.06,1349.09 2166.79,1349.09 2176.52,1349.09 2186.24,1349.09 2195.97,1349.09 2205.69,1349.09 2215.42,1349.09 2225.15,1349.09 2234.87,1349.09 2244.6,1349.09 2254.33,1349.09 2264.05,1349.09 2273.78,1349.09 2283.5,1349.09 "/>
<path clip-path="url(#clip860)" d="M1584.23 300.469 L2282.65 300.469 L2282.65 93.1086 L1584.23 93.1086  Z" fill="#31343a" fill-rule="evenodd" fill-opacity="1"/>
<polyline clip-path="url(#clip860)" style="stroke:#000000; stroke-linecap:round; stroke-linejoin:round; stroke-width:4; stroke-opacity:0; fill:none" points="1584.23,300.469 2282.65,300.469 2282.65,93.1086 1584.23,93.1086 1584.23,300.469 "/>
<polyline clip-path="url(#clip860)" style="stroke:#ff7d00; stroke-linecap:round; stroke-linejoin:round; stroke-width:4; stroke-opacity:1; fill:none" points="1607.6,144.949 1747.81,144.949 "/>
<path clip-path="url(#clip860)" d="M1787.2 130.84 Q1782.11 130.84 1779.1 134.636 Q1776.11 138.432 1776.11 144.983 Q1776.11 151.511 1779.1 155.307 Q1782.11 159.104 1787.2 159.104 Q1792.29 159.104 1795.25 155.307 Q1798.24 151.511 1798.24 144.983 Q1798.24 138.432 1795.25 134.636 Q1792.29 130.84 1787.2 130.84 M1787.2 127.044 Q1794.47 127.044 1798.82 131.928 Q1803.17 136.789 1803.17 144.983 Q1803.17 153.155 1798.82 158.039 Q1794.47 162.9 1787.2 162.9 Q1779.91 162.9 1775.53 158.039 Q1771.18 153.178 1771.18 144.983 Q1771.18 136.789 1775.53 131.928 Q1779.91 127.044 1787.2 127.044 Z" fill="#ffffff" fill-rule="nonzero" fill-opacity="1" /><path clip-path="url(#clip860)" d="M1828.91 149.289 Q1828.91 144.59 1826.97 141.928 Q1825.05 139.243 1821.67 139.243 Q1818.29 139.243 1816.34 141.928 Q1814.42 144.59 1814.42 149.289 Q1814.42 153.988 1816.34 156.673 Q1818.29 159.335 1821.67 159.335 Q1825.05 159.335 1826.97 156.673 Q1828.91 153.988 1828.91 149.289 M1814.42 140.238 Q1815.76 137.923 1817.8 136.812 Q1819.86 135.678 1822.71 135.678 Q1827.43 135.678 1830.37 139.428 Q1833.33 143.178 1833.33 149.289 Q1833.33 155.4 1830.37 159.15 Q1827.43 162.9 1822.71 162.9 Q1819.86 162.9 1817.8 161.789 Q1815.76 160.655 1814.42 158.34 L1814.42 162.229 L1810.14 162.229 L1810.14 126.21 L1814.42 126.21 L1814.42 140.238 Z" fill="#ffffff" fill-rule="nonzero" fill-opacity="1" /><path clip-path="url(#clip860)" d="M1856.92 137.067 L1856.92 141.094 Q1855.12 140.169 1853.17 139.706 Q1851.23 139.243 1849.14 139.243 Q1845.97 139.243 1844.37 140.215 Q1842.8 141.187 1842.8 143.131 Q1842.8 144.613 1843.93 145.469 Q1845.07 146.303 1848.49 147.067 L1849.95 147.391 Q1854.49 148.363 1856.39 150.145 Q1858.31 151.905 1858.31 155.076 Q1858.31 158.687 1855.44 160.793 Q1852.59 162.9 1847.59 162.9 Q1845.51 162.9 1843.24 162.483 Q1840.99 162.09 1838.49 161.28 L1838.49 156.881 Q1840.86 158.108 1843.15 158.733 Q1845.44 159.335 1847.68 159.335 Q1850.69 159.335 1852.31 158.317 Q1853.93 157.275 1853.93 155.4 Q1853.93 153.664 1852.75 152.738 Q1851.6 151.812 1847.64 150.956 L1846.16 150.608 Q1842.2 149.775 1840.44 148.062 Q1838.68 146.326 1838.68 143.317 Q1838.68 139.659 1841.27 137.669 Q1843.87 135.678 1848.63 135.678 Q1850.99 135.678 1853.08 136.025 Q1855.16 136.372 1856.92 137.067 Z" fill="#ffffff" fill-rule="nonzero" fill-opacity="1" /><path clip-path="url(#clip860)" d="M1887.27 148.201 L1887.27 150.284 L1867.68 150.284 Q1867.96 154.682 1870.32 156.997 Q1872.71 159.289 1876.94 159.289 Q1879.4 159.289 1881.69 158.687 Q1884 158.085 1886.27 156.881 L1886.27 160.909 Q1883.98 161.881 1881.57 162.391 Q1879.17 162.9 1876.69 162.9 Q1870.49 162.9 1866.85 159.289 Q1863.24 155.678 1863.24 149.52 Q1863.24 143.155 1866.67 139.428 Q1870.12 135.678 1875.95 135.678 Q1881.18 135.678 1884.21 139.057 Q1887.27 142.414 1887.27 148.201 M1883.01 146.951 Q1882.96 143.456 1881.04 141.372 Q1879.14 139.289 1875.99 139.289 Q1872.43 139.289 1870.28 141.303 Q1868.15 143.317 1867.82 146.974 L1883.01 146.951 Z" fill="#ffffff" fill-rule="nonzero" fill-opacity="1" /><path clip-path="url(#clip860)" d="M1909.28 140.284 Q1908.56 139.868 1907.71 139.682 Q1906.87 139.474 1905.86 139.474 Q1902.24 139.474 1900.3 141.835 Q1898.38 144.173 1898.38 148.571 L1898.38 162.229 L1894.1 162.229 L1894.1 136.303 L1898.38 136.303 L1898.38 140.331 Q1899.72 137.969 1901.87 136.835 Q1904.03 135.678 1907.11 135.678 Q1907.55 135.678 1908.08 135.747 Q1908.61 135.794 1909.26 135.909 L1909.28 140.284 Z" fill="#ffffff" fill-rule="nonzero" fill-opacity="1" /><path clip-path="url(#clip860)" d="M1910.69 136.303 L1915.21 136.303 L1923.31 158.062 L1931.41 136.303 L1935.92 136.303 L1926.2 162.229 L1920.42 162.229 L1910.69 136.303 Z" fill="#ffffff" fill-rule="nonzero" fill-opacity="1" /><path clip-path="url(#clip860)" d="M1963.98 148.201 L1963.98 150.284 L1944.4 150.284 Q1944.67 154.682 1947.04 156.997 Q1949.42 159.289 1953.66 159.289 Q1956.11 159.289 1958.4 158.687 Q1960.72 158.085 1962.99 156.881 L1962.99 160.909 Q1960.69 161.881 1958.29 162.391 Q1955.88 162.9 1953.4 162.9 Q1947.2 162.9 1943.56 159.289 Q1939.95 155.678 1939.95 149.52 Q1939.95 143.155 1943.38 139.428 Q1946.83 135.678 1952.66 135.678 Q1957.89 135.678 1960.92 139.057 Q1963.98 142.414 1963.98 148.201 M1959.72 146.951 Q1959.67 143.456 1957.75 141.372 Q1955.86 139.289 1952.71 139.289 Q1949.14 139.289 1946.99 141.303 Q1944.86 143.317 1944.54 146.974 L1959.72 146.951 Z" fill="#ffffff" fill-rule="nonzero" fill-opacity="1" /><path clip-path="url(#clip860)" d="M1988.03 140.238 L1988.03 126.21 L1992.29 126.21 L1992.29 162.229 L1988.03 162.229 L1988.03 158.34 Q1986.69 160.655 1984.63 161.789 Q1982.59 162.9 1979.72 162.9 Q1975.02 162.9 1972.06 159.15 Q1969.12 155.4 1969.12 149.289 Q1969.12 143.178 1972.06 139.428 Q1975.02 135.678 1979.72 135.678 Q1982.59 135.678 1984.63 136.812 Q1986.69 137.923 1988.03 140.238 M1973.52 149.289 Q1973.52 153.988 1975.44 156.673 Q1977.38 159.335 1980.76 159.335 Q1984.14 159.335 1986.09 156.673 Q1988.03 153.988 1988.03 149.289 Q1988.03 144.59 1986.09 141.928 Q1984.14 139.243 1980.76 139.243 Q1977.38 139.243 1975.44 141.928 Q1973.52 144.59 1973.52 149.289 Z" fill="#ffffff" fill-rule="nonzero" fill-opacity="1" /><polyline clip-path="url(#clip860)" style="stroke:#e5e5e5; stroke-linecap:round; stroke-linejoin:round; stroke-width:4; stroke-opacity:1; fill:none" points="1607.6,196.789 1747.81,196.789 "/>
<path clip-path="url(#clip860)" d="M1793.43 180.643 L1793.43 185.203 Q1790.76 183.93 1788.4 183.305 Q1786.04 182.68 1783.84 182.68 Q1780.02 182.68 1777.94 184.161 Q1775.88 185.643 1775.88 188.374 Q1775.88 190.666 1777.25 191.847 Q1778.63 193.004 1782.48 193.722 L1785.3 194.3 Q1790.53 195.296 1793.01 197.819 Q1795.51 200.319 1795.51 204.532 Q1795.51 209.555 1792.13 212.147 Q1788.77 214.74 1782.27 214.74 Q1779.81 214.74 1777.04 214.184 Q1774.28 213.629 1771.32 212.541 L1771.32 207.726 Q1774.17 209.323 1776.9 210.133 Q1779.63 210.944 1782.27 210.944 Q1786.27 210.944 1788.45 209.37 Q1790.62 207.796 1790.62 204.879 Q1790.62 202.333 1789.05 200.897 Q1787.5 199.462 1783.94 198.745 L1781.09 198.189 Q1775.86 197.147 1773.52 194.925 Q1771.18 192.703 1771.18 188.745 Q1771.18 184.161 1774.4 181.522 Q1777.64 178.884 1783.31 178.884 Q1785.74 178.884 1788.26 179.323 Q1790.79 179.763 1793.43 180.643 Z" fill="#ffffff" fill-rule="nonzero" fill-opacity="1" /><path clip-path="url(#clip860)" d="M1802.62 188.143 L1806.87 188.143 L1806.87 214.069 L1802.62 214.069 L1802.62 188.143 M1802.62 178.05 L1806.87 178.05 L1806.87 183.444 L1802.62 183.444 L1802.62 178.05 Z" fill="#ffffff" fill-rule="nonzero" fill-opacity="1" /><path clip-path="url(#clip860)" d="M1835.97 193.12 Q1837.57 190.249 1839.79 188.884 Q1842.01 187.518 1845.02 187.518 Q1849.07 187.518 1851.27 190.365 Q1853.47 193.189 1853.47 198.421 L1853.47 214.069 L1849.19 214.069 L1849.19 198.559 Q1849.19 194.833 1847.87 193.027 Q1846.55 191.222 1843.84 191.222 Q1840.53 191.222 1838.61 193.421 Q1836.69 195.62 1836.69 199.416 L1836.69 214.069 L1832.41 214.069 L1832.41 198.559 Q1832.41 194.809 1831.09 193.027 Q1829.77 191.222 1827.01 191.222 Q1823.75 191.222 1821.83 193.444 Q1819.91 195.643 1819.91 199.416 L1819.91 214.069 L1815.62 214.069 L1815.62 188.143 L1819.91 188.143 L1819.91 192.171 Q1821.37 189.786 1823.4 188.652 Q1825.44 187.518 1828.24 187.518 Q1831.06 187.518 1833.03 188.953 Q1835.02 190.388 1835.97 193.12 Z" fill="#ffffff" fill-rule="nonzero" fill-opacity="1" /><path clip-path="url(#clip860)" d="M1861.53 203.837 L1861.53 188.143 L1865.79 188.143 L1865.79 203.675 Q1865.79 207.356 1867.22 209.208 Q1868.66 211.036 1871.53 211.036 Q1874.98 211.036 1876.97 208.837 Q1878.98 206.638 1878.98 202.842 L1878.98 188.143 L1883.24 188.143 L1883.24 214.069 L1878.98 214.069 L1878.98 210.087 Q1877.43 212.448 1875.37 213.606 Q1873.33 214.74 1870.62 214.74 Q1866.16 214.74 1863.84 211.962 Q1861.53 209.184 1861.53 203.837 M1872.24 187.518 L1872.24 187.518 Z" fill="#ffffff" fill-rule="nonzero" fill-opacity="1" /><path clip-path="url(#clip860)" d="M1892.01 178.05 L1896.27 178.05 L1896.27 214.069 L1892.01 214.069 L1892.01 178.05 Z" fill="#ffffff" fill-rule="nonzero" fill-opacity="1" /><path clip-path="url(#clip860)" d="M1916.97 201.036 Q1911.8 201.036 1909.81 202.217 Q1907.82 203.397 1907.82 206.245 Q1907.82 208.513 1909.3 209.856 Q1910.81 211.175 1913.38 211.175 Q1916.92 211.175 1919.05 208.675 Q1921.2 206.152 1921.2 201.985 L1921.2 201.036 L1916.97 201.036 M1925.46 199.277 L1925.46 214.069 L1921.2 214.069 L1921.2 210.133 Q1919.74 212.495 1917.57 213.629 Q1915.39 214.74 1912.24 214.74 Q1908.26 214.74 1905.9 212.518 Q1903.56 210.272 1903.56 206.522 Q1903.56 202.147 1906.48 199.925 Q1909.42 197.703 1915.23 197.703 L1921.2 197.703 L1921.2 197.286 Q1921.2 194.347 1919.26 192.749 Q1917.34 191.129 1913.84 191.129 Q1911.62 191.129 1909.51 191.661 Q1907.41 192.194 1905.46 193.259 L1905.46 189.323 Q1907.8 188.421 1910 187.981 Q1912.2 187.518 1914.28 187.518 Q1919.91 187.518 1922.68 190.434 Q1925.46 193.351 1925.46 199.277 Z" fill="#ffffff" fill-rule="nonzero" fill-opacity="1" /><path clip-path="url(#clip860)" d="M1938.45 180.782 L1938.45 188.143 L1947.22 188.143 L1947.22 191.453 L1938.45 191.453 L1938.45 205.527 Q1938.45 208.698 1939.3 209.601 Q1940.18 210.504 1942.85 210.504 L1947.22 210.504 L1947.22 214.069 L1942.85 214.069 Q1937.92 214.069 1936.04 212.24 Q1934.17 210.388 1934.17 205.527 L1934.17 191.453 L1931.04 191.453 L1931.04 188.143 L1934.17 188.143 L1934.17 180.782 L1938.45 180.782 Z" fill="#ffffff" fill-rule="nonzero" fill-opacity="1" /><path clip-path="url(#clip860)" d="M1975 200.041 L1975 202.124 L1955.42 202.124 Q1955.69 206.522 1958.05 208.837 Q1960.44 211.129 1964.67 211.129 Q1967.13 211.129 1969.42 210.527 Q1971.73 209.925 1974 208.721 L1974 212.749 Q1971.71 213.721 1969.3 214.231 Q1966.9 214.74 1964.42 214.74 Q1958.22 214.74 1954.58 211.129 Q1950.97 207.518 1950.97 201.36 Q1950.97 194.995 1954.4 191.268 Q1957.85 187.518 1963.68 187.518 Q1968.91 187.518 1971.94 190.897 Q1975 194.254 1975 200.041 M1970.74 198.791 Q1970.69 195.296 1968.77 193.212 Q1966.87 191.129 1963.73 191.129 Q1960.16 191.129 1958.01 193.143 Q1955.88 195.157 1955.55 198.814 L1970.74 198.791 Z" fill="#ffffff" fill-rule="nonzero" fill-opacity="1" /><path clip-path="url(#clip860)" d="M1999.05 192.078 L1999.05 178.05 L2003.31 178.05 L2003.31 214.069 L1999.05 214.069 L1999.05 210.18 Q1997.71 212.495 1995.65 213.629 Q1993.61 214.74 1990.74 214.74 Q1986.04 214.74 1983.08 210.99 Q1980.14 207.24 1980.14 201.129 Q1980.14 195.018 1983.08 191.268 Q1986.04 187.518 1990.74 187.518 Q1993.61 187.518 1995.65 188.652 Q1997.71 189.763 1999.05 192.078 M1984.54 201.129 Q1984.54 205.828 1986.46 208.513 Q1988.4 211.175 1991.78 211.175 Q1995.16 211.175 1997.11 208.513 Q1999.05 205.828 1999.05 201.129 Q1999.05 196.43 1997.11 193.768 Q1995.16 191.083 1991.78 191.083 Q1988.4 191.083 1986.46 193.768 Q1984.54 196.43 1984.54 201.129 Z" fill="#ffffff" fill-rule="nonzero" fill-opacity="1" /><path clip-path="url(#clip860)" d="M2037.38 178.097 Q2034.28 183.421 2032.78 188.629 Q2031.27 193.837 2031.27 199.184 Q2031.27 204.532 2032.78 209.786 Q2034.3 215.018 2037.38 220.319 L2033.68 220.319 Q2030.21 214.879 2028.47 209.624 Q2026.76 204.37 2026.76 199.184 Q2026.76 194.022 2028.47 188.791 Q2030.18 183.56 2033.68 178.097 L2037.38 178.097 Z" fill="#ffffff" fill-rule="nonzero" fill-opacity="1" /><path clip-path="url(#clip860)" d="M2045.65 188.143 L2049.91 188.143 L2049.91 214.069 L2045.65 214.069 L2045.65 188.143 M2045.65 178.05 L2049.91 178.05 L2049.91 183.444 L2045.65 183.444 L2045.65 178.05 Z" fill="#ffffff" fill-rule="nonzero" fill-opacity="1" /><path clip-path="url(#clip860)" d="M2074.44 192.541 L2104.12 192.541 L2104.12 196.43 L2074.44 196.43 L2074.44 192.541 M2074.44 201.985 L2104.12 201.985 L2104.12 205.921 L2074.44 205.921 L2074.44 201.985 Z" fill="#ffffff" fill-rule="nonzero" fill-opacity="1" /><path clip-path="url(#clip860)" d="M2129.42 213.351 L2129.42 209.092 Q2131.18 209.925 2132.98 210.365 Q2134.79 210.805 2136.53 210.805 Q2141.16 210.805 2143.59 207.703 Q2146.04 204.578 2146.39 198.235 Q2145.04 200.226 2142.98 201.291 Q2140.92 202.356 2138.42 202.356 Q2133.24 202.356 2130.21 199.231 Q2127.2 196.083 2127.2 190.643 Q2127.2 185.319 2130.35 182.101 Q2133.49 178.884 2138.72 178.884 Q2144.72 178.884 2147.87 183.49 Q2151.04 188.073 2151.04 196.823 Q2151.04 204.995 2147.15 209.879 Q2143.28 214.74 2136.73 214.74 Q2134.97 214.74 2133.17 214.393 Q2131.36 214.045 2129.42 213.351 M2138.72 198.698 Q2141.87 198.698 2143.7 196.546 Q2145.55 194.393 2145.55 190.643 Q2145.55 186.916 2143.7 184.763 Q2141.87 182.587 2138.72 182.587 Q2135.58 182.587 2133.72 184.763 Q2131.9 186.916 2131.9 190.643 Q2131.9 194.393 2133.72 196.546 Q2135.58 198.698 2138.72 198.698 Z" fill="#ffffff" fill-rule="nonzero" fill-opacity="1" /><path clip-path="url(#clip860)" d="M2173.61 195.434 Q2176.97 196.152 2178.84 198.421 Q2180.74 200.689 2180.74 204.022 Q2180.74 209.138 2177.22 211.939 Q2173.7 214.74 2167.22 214.74 Q2165.04 214.74 2162.73 214.3 Q2160.44 213.883 2157.98 213.027 L2157.98 208.513 Q2159.93 209.647 2162.24 210.226 Q2164.56 210.805 2167.08 210.805 Q2171.48 210.805 2173.77 209.069 Q2176.09 207.333 2176.09 204.022 Q2176.09 200.967 2173.93 199.254 Q2171.8 197.518 2167.98 197.518 L2163.96 197.518 L2163.96 193.675 L2168.17 193.675 Q2171.62 193.675 2173.45 192.309 Q2175.28 190.921 2175.28 188.328 Q2175.28 185.666 2173.38 184.254 Q2171.5 182.819 2167.98 182.819 Q2166.06 182.819 2163.86 183.235 Q2161.66 183.652 2159.03 184.532 L2159.03 180.365 Q2161.69 179.624 2164 179.254 Q2166.34 178.884 2168.4 178.884 Q2173.72 178.884 2176.83 181.314 Q2179.93 183.722 2179.93 187.842 Q2179.93 190.712 2178.28 192.703 Q2176.64 194.671 2173.61 195.434 Z" fill="#ffffff" fill-rule="nonzero" fill-opacity="1" /><path clip-path="url(#clip860)" d="M2190.41 210.133 L2198.05 210.133 L2198.05 183.768 L2189.74 185.435 L2189.74 181.175 L2198.01 179.509 L2202.68 179.509 L2202.68 210.133 L2210.32 210.133 L2210.32 214.069 L2190.41 214.069 L2190.41 210.133 Z" fill="#ffffff" fill-rule="nonzero" fill-opacity="1" /><path clip-path="url(#clip860)" d="M2229.77 197.657 Q2226.43 197.657 2224.51 199.439 Q2222.61 201.221 2222.61 204.346 Q2222.61 207.471 2224.51 209.254 Q2226.43 211.036 2229.77 211.036 Q2233.1 211.036 2235.02 209.254 Q2236.94 207.448 2236.94 204.346 Q2236.94 201.221 2235.02 199.439 Q2233.12 197.657 2229.77 197.657 M2225.09 195.666 Q2222.08 194.925 2220.39 192.865 Q2218.72 190.805 2218.72 187.842 Q2218.72 183.698 2221.66 181.291 Q2224.63 178.884 2229.77 178.884 Q2234.93 178.884 2237.87 181.291 Q2240.81 183.698 2240.81 187.842 Q2240.81 190.805 2239.12 192.865 Q2237.45 194.925 2234.47 195.666 Q2237.84 196.453 2239.72 198.745 Q2241.62 201.036 2241.62 204.346 Q2241.62 209.37 2238.54 212.055 Q2235.48 214.74 2229.77 214.74 Q2224.05 214.74 2220.97 212.055 Q2217.91 209.37 2217.91 204.346 Q2217.91 201.036 2219.81 198.745 Q2221.71 196.453 2225.09 195.666 M2223.38 188.282 Q2223.38 190.967 2225.04 192.472 Q2226.73 193.976 2229.77 193.976 Q2232.78 193.976 2234.47 192.472 Q2236.18 190.967 2236.18 188.282 Q2236.18 185.597 2234.47 184.092 Q2232.78 182.587 2229.77 182.587 Q2226.73 182.587 2225.04 184.092 Q2223.38 185.597 2223.38 188.282 Z" fill="#ffffff" fill-rule="nonzero" fill-opacity="1" /><path clip-path="url(#clip860)" d="M2248.65 178.097 L2252.36 178.097 Q2255.83 183.56 2257.54 188.791 Q2259.28 194.022 2259.28 199.184 Q2259.28 204.37 2257.54 209.624 Q2255.83 214.879 2252.36 220.319 L2248.65 220.319 Q2251.73 215.018 2253.24 209.786 Q2254.77 204.532 2254.77 199.184 Q2254.77 193.837 2253.24 188.629 Q2251.73 183.421 2248.65 178.097 Z" fill="#ffffff" fill-rule="nonzero" fill-opacity="1" /><polyline clip-path="url(#clip860)" style="stroke:#ffffff; stroke-linecap:round; stroke-linejoin:round; stroke-width:8; stroke-opacity:1; fill:none" stroke-dasharray="32, 20" points="1607.6,248.629 1747.81,248.629 "/>
<path clip-path="url(#clip860)" d="M1773.4 265.191 L1773.4 260.932 Q1775.16 261.765 1776.97 262.205 Q1778.77 262.645 1780.51 262.645 Q1785.14 262.645 1787.57 259.543 Q1790.02 256.418 1790.37 250.075 Q1789.03 252.066 1786.97 253.131 Q1784.91 254.196 1782.41 254.196 Q1777.22 254.196 1774.19 251.071 Q1771.18 247.923 1771.18 242.483 Q1771.18 237.159 1774.33 233.941 Q1777.48 230.724 1782.71 230.724 Q1788.7 230.724 1791.85 235.33 Q1795.02 239.913 1795.02 248.663 Q1795.02 256.835 1791.13 261.719 Q1787.27 266.58 1780.72 266.58 Q1778.96 266.58 1777.15 266.233 Q1775.35 265.885 1773.4 265.191 M1782.71 250.538 Q1785.86 250.538 1787.69 248.386 Q1789.54 246.233 1789.54 242.483 Q1789.54 238.756 1787.69 236.603 Q1785.86 234.427 1782.71 234.427 Q1779.56 234.427 1777.71 236.603 Q1775.88 238.756 1775.88 242.483 Q1775.88 246.233 1777.71 248.386 Q1779.56 250.538 1782.71 250.538 Z" fill="#ffffff" fill-rule="nonzero" fill-opacity="1" /><path clip-path="url(#clip860)" d="M1803.47 231.349 L1821.83 231.349 L1821.83 235.284 L1807.75 235.284 L1807.75 243.756 Q1808.77 243.409 1809.79 243.247 Q1810.81 243.062 1811.83 243.062 Q1817.62 243.062 1821 246.233 Q1824.37 249.404 1824.37 254.821 Q1824.37 260.399 1820.9 263.501 Q1817.43 266.58 1811.11 266.58 Q1808.93 266.58 1806.67 266.21 Q1804.42 265.839 1802.01 265.098 L1802.01 260.399 Q1804.1 261.534 1806.32 262.089 Q1808.54 262.645 1811.02 262.645 Q1815.02 262.645 1817.36 260.538 Q1819.7 258.432 1819.7 254.821 Q1819.7 251.21 1817.36 249.103 Q1815.02 246.997 1811.02 246.997 Q1809.14 246.997 1807.27 247.413 Q1805.42 247.83 1803.47 248.71 L1803.47 231.349 Z" fill="#ffffff" fill-rule="nonzero" fill-opacity="1" /><path clip-path="url(#clip860)" d="M1862.99 250.7 Q1860.97 250.7 1859.81 252.413 Q1858.68 254.126 1858.68 257.182 Q1858.68 260.191 1859.81 261.927 Q1860.97 263.64 1862.99 263.64 Q1864.95 263.64 1866.09 261.927 Q1867.24 260.191 1867.24 257.182 Q1867.24 254.149 1866.09 252.436 Q1864.95 250.7 1862.99 250.7 M1862.99 247.761 Q1866.64 247.761 1868.8 250.307 Q1870.95 252.853 1870.95 257.182 Q1870.95 261.51 1868.77 264.057 Q1866.62 266.58 1862.99 266.58 Q1859.28 266.58 1857.13 264.057 Q1854.98 261.51 1854.98 257.182 Q1854.98 252.83 1857.13 250.307 Q1859.31 247.761 1862.99 247.761 M1839.1 233.663 Q1837.11 233.663 1835.95 235.4 Q1834.81 237.112 1834.81 240.122 Q1834.81 243.177 1835.95 244.89 Q1837.08 246.603 1839.1 246.603 Q1841.11 246.603 1842.24 244.89 Q1843.4 243.177 1843.4 240.122 Q1843.4 237.136 1842.24 235.4 Q1841.09 233.663 1839.1 233.663 M1860 230.724 L1863.7 230.724 L1842.08 266.58 L1838.38 266.58 L1860 230.724 M1839.1 230.724 Q1842.75 230.724 1844.93 233.27 Q1847.11 235.793 1847.11 240.122 Q1847.11 244.497 1844.93 247.02 Q1842.78 249.543 1839.1 249.543 Q1835.42 249.543 1833.26 247.02 Q1831.13 244.474 1831.13 240.122 Q1831.13 235.816 1833.29 233.27 Q1835.44 230.724 1839.1 230.724 Z" fill="#ffffff" fill-rule="nonzero" fill-opacity="1" /><path clip-path="url(#clip860)" d="M1911.76 240.978 L1911.76 244.96 Q1909.95 243.964 1908.12 243.478 Q1906.32 242.969 1904.47 242.969 Q1900.32 242.969 1898.03 245.608 Q1895.74 248.224 1895.74 252.969 Q1895.74 257.714 1898.03 260.353 Q1900.32 262.969 1904.47 262.969 Q1906.32 262.969 1908.12 262.483 Q1909.95 261.973 1911.76 260.978 L1911.76 264.913 Q1909.98 265.747 1908.05 266.163 Q1906.16 266.58 1904 266.58 Q1898.15 266.58 1894.7 262.899 Q1891.25 259.219 1891.25 252.969 Q1891.25 246.626 1894.72 242.992 Q1898.22 239.358 1904.28 239.358 Q1906.25 239.358 1908.12 239.775 Q1910 240.168 1911.76 240.978 Z" fill="#ffffff" fill-rule="nonzero" fill-opacity="1" /><path clip-path="url(#clip860)" d="M1929.21 242.969 Q1925.79 242.969 1923.8 245.654 Q1921.8 248.316 1921.8 252.969 Q1921.8 257.622 1923.77 260.307 Q1925.76 262.969 1929.21 262.969 Q1932.61 262.969 1934.61 260.284 Q1936.6 257.598 1936.6 252.969 Q1936.6 248.362 1934.61 245.677 Q1932.61 242.969 1929.21 242.969 M1929.21 239.358 Q1934.77 239.358 1937.94 242.969 Q1941.11 246.58 1941.11 252.969 Q1941.11 259.335 1937.94 262.969 Q1934.77 266.58 1929.21 266.58 Q1923.63 266.58 1920.46 262.969 Q1917.31 259.335 1917.31 252.969 Q1917.31 246.58 1920.46 242.969 Q1923.63 239.358 1929.21 239.358 Z" fill="#ffffff" fill-rule="nonzero" fill-opacity="1" /><path clip-path="url(#clip860)" d="M1969.72 250.261 L1969.72 265.909 L1965.46 265.909 L1965.46 250.399 Q1965.46 246.719 1964.03 244.89 Q1962.59 243.062 1959.72 243.062 Q1956.27 243.062 1954.28 245.261 Q1952.29 247.46 1952.29 251.256 L1952.29 265.909 L1948.01 265.909 L1948.01 239.983 L1952.29 239.983 L1952.29 244.011 Q1953.82 241.673 1955.88 240.515 Q1957.96 239.358 1960.67 239.358 Q1965.14 239.358 1967.43 242.136 Q1969.72 244.89 1969.72 250.261 Z" fill="#ffffff" fill-rule="nonzero" fill-opacity="1" /><path clip-path="url(#clip860)" d="M1991.34 229.89 L1991.34 233.432 L1987.27 233.432 Q1984.98 233.432 1984.07 234.358 Q1983.19 235.284 1983.19 237.691 L1983.19 239.983 L1990.21 239.983 L1990.21 243.293 L1983.19 243.293 L1983.19 265.909 L1978.91 265.909 L1978.91 243.293 L1974.84 243.293 L1974.84 239.983 L1978.91 239.983 L1978.91 238.177 Q1978.91 233.849 1980.92 231.881 Q1982.94 229.89 1987.31 229.89 L1991.34 229.89 Z" fill="#ffffff" fill-rule="nonzero" fill-opacity="1" /><path clip-path="url(#clip860)" d="M1994.91 239.983 L1999.17 239.983 L1999.17 265.909 L1994.91 265.909 L1994.91 239.983 M1994.91 229.89 L1999.17 229.89 L1999.17 235.284 L1994.91 235.284 L1994.91 229.89 Z" fill="#ffffff" fill-rule="nonzero" fill-opacity="1" /><path clip-path="url(#clip860)" d="M2025.14 243.918 L2025.14 229.89 L2029.4 229.89 L2029.4 265.909 L2025.14 265.909 L2025.14 262.02 Q2023.79 264.335 2021.73 265.469 Q2019.7 266.58 2016.83 266.58 Q2012.13 266.58 2009.17 262.83 Q2006.23 259.08 2006.23 252.969 Q2006.23 246.858 2009.17 243.108 Q2012.13 239.358 2016.83 239.358 Q2019.7 239.358 2021.73 240.492 Q2023.79 241.603 2025.14 243.918 M2010.62 252.969 Q2010.62 257.668 2012.54 260.353 Q2014.49 263.015 2017.87 263.015 Q2021.25 263.015 2023.19 260.353 Q2025.14 257.668 2025.14 252.969 Q2025.14 248.27 2023.19 245.608 Q2021.25 242.923 2017.87 242.923 Q2014.49 242.923 2012.54 245.608 Q2010.62 248.27 2010.62 252.969 Z" fill="#ffffff" fill-rule="nonzero" fill-opacity="1" /><path clip-path="url(#clip860)" d="M2060.35 251.881 L2060.35 253.964 L2040.76 253.964 Q2041.04 258.362 2043.4 260.677 Q2045.79 262.969 2050.02 262.969 Q2052.48 262.969 2054.77 262.367 Q2057.08 261.765 2059.35 260.561 L2059.35 264.589 Q2057.06 265.561 2054.65 266.071 Q2052.24 266.58 2049.77 266.58 Q2043.56 266.58 2039.93 262.969 Q2036.32 259.358 2036.32 253.2 Q2036.32 246.835 2039.74 243.108 Q2043.19 239.358 2049.03 239.358 Q2054.26 239.358 2057.29 242.737 Q2060.35 246.094 2060.35 251.881 M2056.09 250.631 Q2056.04 247.136 2054.12 245.052 Q2052.22 242.969 2049.07 242.969 Q2045.51 242.969 2043.35 244.983 Q2041.23 246.997 2040.9 250.654 L2056.09 250.631 Z" fill="#ffffff" fill-rule="nonzero" fill-opacity="1" /><path clip-path="url(#clip860)" d="M2088.89 250.261 L2088.89 265.909 L2084.63 265.909 L2084.63 250.399 Q2084.63 246.719 2083.19 244.89 Q2081.76 243.062 2078.89 243.062 Q2075.44 243.062 2073.45 245.261 Q2071.46 247.46 2071.46 251.256 L2071.46 265.909 L2067.17 265.909 L2067.17 239.983 L2071.46 239.983 L2071.46 244.011 Q2072.98 241.673 2075.04 240.515 Q2077.13 239.358 2079.84 239.358 Q2084.3 239.358 2086.6 242.136 Q2088.89 244.89 2088.89 250.261 Z" fill="#ffffff" fill-rule="nonzero" fill-opacity="1" /><path clip-path="url(#clip860)" d="M2116.04 240.978 L2116.04 244.96 Q2114.23 243.964 2112.41 243.478 Q2110.6 242.969 2108.75 242.969 Q2104.6 242.969 2102.31 245.608 Q2100.02 248.224 2100.02 252.969 Q2100.02 257.714 2102.31 260.353 Q2104.6 262.969 2108.75 262.969 Q2110.6 262.969 2112.41 262.483 Q2114.23 261.973 2116.04 260.978 L2116.04 264.913 Q2114.26 265.747 2112.34 266.163 Q2110.44 266.58 2108.29 266.58 Q2102.43 266.58 2098.98 262.899 Q2095.53 259.219 2095.53 252.969 Q2095.53 246.626 2099 242.992 Q2102.5 239.358 2108.56 239.358 Q2110.53 239.358 2112.41 239.775 Q2114.28 240.168 2116.04 240.978 Z" fill="#ffffff" fill-rule="nonzero" fill-opacity="1" /><path clip-path="url(#clip860)" d="M2145.62 251.881 L2145.62 253.964 L2126.04 253.964 Q2126.32 258.362 2128.68 260.677 Q2131.06 262.969 2135.3 262.969 Q2137.75 262.969 2140.04 262.367 Q2142.36 261.765 2144.63 260.561 L2144.63 264.589 Q2142.34 265.561 2139.93 266.071 Q2137.52 266.58 2135.04 266.58 Q2128.84 266.58 2125.21 262.969 Q2121.6 259.358 2121.6 253.2 Q2121.6 246.835 2125.02 243.108 Q2128.47 239.358 2134.3 239.358 Q2139.54 239.358 2142.57 242.737 Q2145.62 246.094 2145.62 251.881 M2141.36 250.631 Q2141.32 247.136 2139.4 245.052 Q2137.5 242.969 2134.35 242.969 Q2130.79 242.969 2128.63 244.983 Q2126.5 246.997 2126.18 250.654 L2141.36 250.631 Z" fill="#ffffff" fill-rule="nonzero" fill-opacity="1" /></svg>
