<?xml version="1.0" encoding="UTF-8"?>
<svg width="721px" height="199px" viewBox="0 0 721 199" version="1.1" xmlns="http://www.w3.org/2000/svg" xmlns:xlink="http://www.w3.org/1999/xlink">
    <title>Artboard</title>
    <g id="Artboard" stroke="none" stroke-width="1" fill="none" fill-rule="evenodd">
        <g id="Group" transform="translate(117, 37)">
            <circle id="Oval" stroke="#55565A" stroke-width="3" fill="#F7B500" cx="36" cy="36" r="34.5"></circle>
            <text id="1" font-family="Helvetica-Bold, Helvetica" font-size="28" font-weight="bold" fill="#FFFFFF">
                <tspan x="28.4277344" y="46">1</tspan>
            </text>
        </g>
        <g id="Group-2" transform="translate(321, 37)">
            <circle id="Oval" stroke="#55565A" stroke-width="3" fill="#E02020" cx="36" cy="36" r="34.5"></circle>
            <text id="2" font-family="Helvetica-Bold, Helvetica" font-size="28" font-weight="bold" fill="#FFFFFF">
                <tspan x="28.4277344" y="46">2</tspan>
            </text>
        </g>
        <g id="Group-2" transform="translate(524, 37)">
            <circle id="Oval" stroke="#55565A" stroke-width="3" fill="#32C5FF" cx="36" cy="36" r="34.5"></circle>
            <text id="3" font-family="Helvetica-Bold, Helvetica" font-size="28" font-weight="bold" fill="#FFFFFF">
                <tspan x="27.4277344" y="46">3</tspan>
            </text>
        </g>
        <path id="Line" d="M302.868686,42.3881632 L303.740261,42.8784245 L315.740261,49.6284245 L317.289729,50.5 L315.740261,51.3715755 L303.740261,58.1215755 L302.868686,58.6118368 L301.888163,56.8686857 L302.759739,56.3784245 L311.432,51.5 L193.5,51.5 L193.5,49.5 L311.432,49.5 L302.759739,44.6215755 L301.888163,44.1313143 L302.868686,42.3881632 Z" fill="#000000" fill-rule="nonzero"></path>
        <path id="Line" d="M206.140578,80.4014625 L207.119108,82.1457331 L206.246972,82.6349979 L197.567,87.503 L205.749399,87.5128568 C217.930644,87.5261513 228.555364,87.5355491 237.623542,87.5410503 L239.207651,87.5419806 C239.991626,87.5424255 240.763483,87.5428402 241.523222,87.5432244 L243.026541,87.5439525 L243.397321,87.5441219 L245.220928,87.544893 L245.57959,87.545032 L248.033671,87.5458638 C248.26268,87.5459312 248.490343,87.5459952 248.716659,87.5460559 L260.032861,87.5461218 C260.248925,87.546066 260.466227,87.5460071 260.684767,87.5459451 L263.36668,87.5450525 L263.710277,87.54492 L265.456117,87.5441877 C265.691991,87.5440823 265.929103,87.5439738 266.167454,87.5438623 L267.612413,87.5431556 C268.342321,87.5427836 269.083373,87.5423838 269.835568,87.541956 L271.354815,87.5410634 C283.116283,87.5339345 297.497626,87.5202469 314.498809,87.5000007 L315.498808,87.4988098 L315.50119,89.4988084 L314.501191,89.4999993 C297.499537,89.520246 283.117731,89.533934 271.355738,89.5410632 L269.836422,89.5419559 C269.084192,89.5423836 268.343106,89.5427835 267.613162,89.5431554 L266.168132,89.5438622 L265.811517,89.5440272 L264.056301,89.5447827 C263.825367,89.5448757 263.595672,89.5449656 263.367215,89.5450524 L260.685154,89.5459451 L260.358253,89.5460358 L248.716276,89.5460559 L248.375771,89.5459623 L245.935685,89.5451659 C245.698583,89.5450783 245.460135,89.5449873 245.22034,89.5448929 L243.765415,89.5442861 C243.520235,89.5441783 243.273708,89.544067 243.025834,89.5439524 L241.522437,89.5432243 C240.762659,89.54284 239.990763,89.5424254 239.206749,89.5419804 L237.622564,89.54105 C228.553953,89.5355487 217.92883,89.5261505 205.747165,89.5128556 L197.566,89.503 L206.233535,94.3918391 L207.104549,94.8830962 L206.122035,96.6251254 L205.251021,96.1338684 L193.258743,89.3701574 L191.710273,88.4968115 L193.260736,87.6270075 L205.268443,80.8907272 L206.140578,80.4014625 Z" fill="#000000" fill-rule="nonzero"></path>
        <path id="Line" d="M508.868686,43.3881632 L509.740261,43.8784245 L521.740261,50.6284245 L523.289729,51.5 L521.740261,52.3715755 L509.740261,59.1215755 L508.868686,59.6118368 L507.888163,57.8686857 L508.759739,57.3784245 L517.432,52.5 L399.5,52.5 L399.5,50.5 L517.432,50.5 L508.759739,45.6215755 L507.888163,45.1313143 L508.868686,43.3881632 Z" fill="#000000" fill-rule="nonzero"></path>
        <path id="Line" d="M410.140578,81.4014625 L411.119108,83.1457331 L410.246972,83.6349979 L401.567,88.503 L409.749399,88.5128568 C421.930644,88.5261513 432.555364,88.5355491 441.623542,88.5410503 L443.207651,88.5419806 C443.991626,88.5424255 444.763483,88.5428402 445.523222,88.5432244 L447.026541,88.5439525 L447.397321,88.5441219 L449.220928,88.544893 L449.57959,88.545032 L452.033671,88.5458638 C452.26268,88.5459312 452.490343,88.5459952 452.716659,88.5460559 L464.032861,88.5461218 C464.248925,88.546066 464.466227,88.5460071 464.684767,88.5459451 L467.36668,88.5450525 L467.710277,88.54492 L469.456117,88.5441877 C469.691991,88.5440823 469.929103,88.5439738 470.167454,88.5438623 L471.612413,88.5431556 C472.342321,88.5427836 473.083373,88.5423838 473.835568,88.541956 L475.354815,88.5410634 C487.116283,88.5339345 501.497626,88.5202469 518.498809,88.5000007 L519.498808,88.4988098 L519.50119,90.4988084 L518.501191,90.4999993 C501.499537,90.520246 487.117731,90.533934 475.355738,90.5410632 L473.836422,90.5419559 C473.084192,90.5423836 472.343106,90.5427835 471.613162,90.5431554 L470.168132,90.5438622 L469.811517,90.5440272 L468.056301,90.5447827 C467.825367,90.5448757 467.595672,90.5449656 467.367215,90.5450524 L464.685154,90.5459451 L464.358253,90.5460358 L452.716276,90.5460559 L452.375771,90.5459623 L449.935685,90.5451659 C449.698583,90.5450783 449.460135,90.5449873 449.22034,90.5448929 L447.765415,90.5442861 C447.520235,90.5441783 447.273708,90.544067 447.025834,90.5439524 L445.522437,90.5432243 C444.762659,90.54284 443.990763,90.5424254 443.206749,90.5419804 L441.622564,90.54105 C432.553953,90.5355487 421.92883,90.5261505 409.747165,90.5128556 L401.566,90.503 L410.233535,95.3918391 L411.104549,95.8830962 L410.122035,97.6251254 L409.251021,97.1338684 L397.258743,90.3701574 L395.710273,89.4968115 L397.260736,88.6270075 L409.268443,81.8907272 L410.140578,81.4014625 Z" fill="#000000" fill-rule="nonzero"></path>
        <path id="Line-2" d="M620.740261,59.8784245 L621.611837,60.3686857 L620.631314,62.1118368 L619.759739,61.6215755 L607.759739,54.8715755 L606.210271,54 L607.759739,53.1284245 L619.759739,46.3784245 L620.631314,45.8881632 L621.611837,47.6313143 L620.740261,48.1215755 L612.067,53 L657.790026,53 L657.790026,93.046875 L608.486301,93.046875 L608.486301,91.046875 L655.79,91.046 L655.79,55 L612.067,55 L620.740261,59.8784245 Z" fill="#000000" fill-rule="nonzero"></path>
        <path id="Line-2" d="M352.740261,120.878424 L353.611837,121.368686 L352.631314,123.111837 L351.759739,122.621576 L339.759739,115.871576 L338.210271,115 L339.759739,114.128424 L351.759739,107.378424 L352.631314,106.888163 L353.611837,108.631314 L352.740261,109.121576 L344.067,114 L375,114 L375,154.046875 L340.335801,154.046875 L340.335801,152.046875 L373,152.046 L373,116 L344.067,116 L352.740261,120.878424 Z" transform="translate(357.5, 134.0234) rotate(90) translate(-357.5, -134.0234)" fill="#000000" fill-rule="nonzero"></path>
        <path id="Line-2" d="M73.7402612,59.8784245 L74.6118368,60.3686857 L73.6313143,62.1118368 L72.7597388,61.6215755 L60.7597388,54.8715755 L59.2102711,54 L60.7597388,53.1284245 L72.7597388,46.3784245 L73.6313143,45.8881632 L74.6118368,47.6313143 L73.7402612,48.1215755 L65.067,53 L110.790026,53 L110.790026,93.046875 L61.4863014,93.046875 L61.4863014,91.046875 L108.79,91.046 L108.79,55 L65.067,55 L73.7402612,59.8784245 Z" transform="translate(85.895, 73.0234) scale(-1, -1) translate(-85.895, -73.0234)" fill="#000000" fill-rule="nonzero"></path>
        <text id="p12" font-family="Helvetica" font-size="20" font-weight="normal" fill="#090909">
            <tspan x="231.630859" y="32">p</tspan>
            <tspan x="242.753906" y="32">12</tspan>
        </text>
        <text id="p23" font-family="Helvetica" font-size="20" font-weight="normal" fill="#090909">
            <tspan x="435.630859" y="32">p</tspan>
            <tspan x="446.753906" y="32">23</tspan>
        </text>
        <text id="p32" font-family="Helvetica" font-size="20" font-weight="normal" fill="#090909">
            <tspan x="435.630859" y="111">p</tspan>
            <tspan x="446.753906" y="111">32</tspan>
        </text>
        <text id="p22" font-family="Helvetica" font-size="20" font-weight="normal" fill="#090909">
            <tspan x="340.630859" y="178">p</tspan>
            <tspan x="351.753906" y="178">22</tspan>
        </text>
        <text id="p21" font-family="Helvetica" font-size="20" font-weight="normal" fill="#090909">
            <tspan x="231.630859" y="111">p</tspan>
            <tspan x="242.753906" y="111">21</tspan>
        </text>
        <text id="p33" font-family="Helvetica" font-size="20" font-weight="normal" fill="#090909">
            <tspan x="675.630859" y="76">p</tspan>
            <tspan x="686.753906" y="76">33</tspan>
        </text>
        <text id="p11" font-family="Helvetica" font-size="20" font-weight="normal" fill="#090909">
            <tspan x="12.1054688" y="76">p</tspan>
            <tspan x="23.2285156" y="76">11</tspan>
        </text>
    </g>
</svg>