<?xml version="1.0" encoding="utf-8"?>
<svg xmlns="http://www.w3.org/2000/svg" xmlns:xlink="http://www.w3.org/1999/xlink" width="600" height="400" viewBox="0 0 2400 1600">
<defs>
  <clipPath id="clip680">
    <rect x="0" y="0" width="2400" height="1600"/>
  </clipPath>
</defs>
<path clip-path="url(#clip680)" d="M0 1600 L2400 1600 L2400 8.88178e-14 L0 8.88178e-14  Z" fill="#000000" fill-rule="evenodd" fill-opacity="1"/>
<defs>
  <clipPath id="clip681">
    <rect x="480" y="0" width="1681" height="1600"/>
  </clipPath>
</defs>
<path clip-path="url(#clip680)" d="M249.542 1423.18 L2352.76 1423.18 L2352.76 47.2441 L249.542 47.2441  Z" fill="#30343b" fill-rule="evenodd" fill-opacity="1"/>
<defs>
  <clipPath id="clip682">
    <rect x="249" y="47" width="2104" height="1377"/>
  </clipPath>
</defs>
<polyline clip-path="url(#clip682)" style="stroke:#ffffff; stroke-linecap:round; stroke-linejoin:round; stroke-width:2; stroke-opacity:0.1; fill:none" points="299.341,1423.18 299.341,47.2441 "/>
<polyline clip-path="url(#clip682)" style="stroke:#ffffff; stroke-linecap:round; stroke-linejoin:round; stroke-width:2; stroke-opacity:0.1; fill:none" points="785.655,1423.18 785.655,47.2441 "/>
<polyline clip-path="url(#clip682)" style="stroke:#ffffff; stroke-linecap:round; stroke-linejoin:round; stroke-width:2; stroke-opacity:0.1; fill:none" points="1271.97,1423.18 1271.97,47.2441 "/>
<polyline clip-path="url(#clip682)" style="stroke:#ffffff; stroke-linecap:round; stroke-linejoin:round; stroke-width:2; stroke-opacity:0.1; fill:none" points="1758.28,1423.18 1758.28,47.2441 "/>
<polyline clip-path="url(#clip682)" style="stroke:#ffffff; stroke-linecap:round; stroke-linejoin:round; stroke-width:2; stroke-opacity:0.1; fill:none" points="2244.6,1423.18 2244.6,47.2441 "/>
<polyline clip-path="url(#clip682)" style="stroke:#ffffff; stroke-linecap:round; stroke-linejoin:round; stroke-width:2; stroke-opacity:0.1; fill:none" points="299.341,1423.18 299.341,47.2441 "/>
<polyline clip-path="url(#clip682)" style="stroke:#ffffff; stroke-linecap:round; stroke-linejoin:round; stroke-width:2; stroke-opacity:0.1; fill:none" points="785.655,1423.18 785.655,47.2441 "/>
<polyline clip-path="url(#clip682)" style="stroke:#ffffff; stroke-linecap:round; stroke-linejoin:round; stroke-width:2; stroke-opacity:0.1; fill:none" points="1271.97,1423.18 1271.97,47.2441 "/>
<polyline clip-path="url(#clip682)" style="stroke:#ffffff; stroke-linecap:round; stroke-linejoin:round; stroke-width:2; stroke-opacity:0.1; fill:none" points="1758.28,1423.18 1758.28,47.2441 "/>
<polyline clip-path="url(#clip682)" style="stroke:#ffffff; stroke-linecap:round; stroke-linejoin:round; stroke-width:2; stroke-opacity:0.1; fill:none" points="2244.6,1423.18 2244.6,47.2441 "/>
<polyline clip-path="url(#clip682)" style="stroke:#ffffff; stroke-linecap:round; stroke-linejoin:round; stroke-width:2; stroke-opacity:0.1; fill:none" points="249.542,1174.18 2352.76,1174.18 "/>
<polyline clip-path="url(#clip682)" style="stroke:#ffffff; stroke-linecap:round; stroke-linejoin:round; stroke-width:2; stroke-opacity:0.1; fill:none" points="249.542,902.179 2352.76,902.179 "/>
<polyline clip-path="url(#clip682)" style="stroke:#ffffff; stroke-linecap:round; stroke-linejoin:round; stroke-width:2; stroke-opacity:0.1; fill:none" points="249.542,630.181 2352.76,630.181 "/>
<polyline clip-path="url(#clip682)" style="stroke:#ffffff; stroke-linecap:round; stroke-linejoin:round; stroke-width:2; stroke-opacity:0.1; fill:none" points="249.542,358.184 2352.76,358.184 "/>
<polyline clip-path="url(#clip682)" style="stroke:#ffffff; stroke-linecap:round; stroke-linejoin:round; stroke-width:2; stroke-opacity:0.1; fill:none" points="249.542,86.1857 2352.76,86.1857 "/>
<polyline clip-path="url(#clip682)" style="stroke:#ffffff; stroke-linecap:round; stroke-linejoin:round; stroke-width:2; stroke-opacity:0.1; fill:none" points="249.542,1174.18 2352.76,1174.18 "/>
<polyline clip-path="url(#clip682)" style="stroke:#ffffff; stroke-linecap:round; stroke-linejoin:round; stroke-width:2; stroke-opacity:0.1; fill:none" points="249.542,902.179 2352.76,902.179 "/>
<polyline clip-path="url(#clip682)" style="stroke:#ffffff; stroke-linecap:round; stroke-linejoin:round; stroke-width:2; stroke-opacity:0.1; fill:none" points="249.542,630.181 2352.76,630.181 "/>
<polyline clip-path="url(#clip682)" style="stroke:#ffffff; stroke-linecap:round; stroke-linejoin:round; stroke-width:2; stroke-opacity:0.1; fill:none" points="249.542,358.184 2352.76,358.184 "/>
<polyline clip-path="url(#clip682)" style="stroke:#ffffff; stroke-linecap:round; stroke-linejoin:round; stroke-width:2; stroke-opacity:0.1; fill:none" points="249.542,86.1857 2352.76,86.1857 "/>
<polyline clip-path="url(#clip680)" style="stroke:#ffffff; stroke-linecap:round; stroke-linejoin:round; stroke-width:4; stroke-opacity:1; fill:none" points="249.542,1423.18 2352.76,1423.18 "/>
<polyline clip-path="url(#clip680)" style="stroke:#ffffff; stroke-linecap:round; stroke-linejoin:round; stroke-width:4; stroke-opacity:1; fill:none" points="249.542,47.2441 2352.76,47.2441 "/>
<polyline clip-path="url(#clip680)" style="stroke:#ffffff; stroke-linecap:round; stroke-linejoin:round; stroke-width:4; stroke-opacity:1; fill:none" points="299.341,1423.18 299.341,1404.28 "/>
<polyline clip-path="url(#clip680)" style="stroke:#ffffff; stroke-linecap:round; stroke-linejoin:round; stroke-width:4; stroke-opacity:1; fill:none" points="785.655,1423.18 785.655,1404.28 "/>
<polyline clip-path="url(#clip680)" style="stroke:#ffffff; stroke-linecap:round; stroke-linejoin:round; stroke-width:4; stroke-opacity:1; fill:none" points="1271.97,1423.18 1271.97,1404.28 "/>
<polyline clip-path="url(#clip680)" style="stroke:#ffffff; stroke-linecap:round; stroke-linejoin:round; stroke-width:4; stroke-opacity:1; fill:none" points="1758.28,1423.18 1758.28,1404.28 "/>
<polyline clip-path="url(#clip680)" style="stroke:#ffffff; stroke-linecap:round; stroke-linejoin:round; stroke-width:4; stroke-opacity:1; fill:none" points="2244.6,1423.18 2244.6,1404.28 "/>
<polyline clip-path="url(#clip680)" style="stroke:#ffffff; stroke-linecap:round; stroke-linejoin:round; stroke-width:4; stroke-opacity:1; fill:none" points="299.341,47.2441 299.341,66.1417 "/>
<polyline clip-path="url(#clip680)" style="stroke:#ffffff; stroke-linecap:round; stroke-linejoin:round; stroke-width:4; stroke-opacity:1; fill:none" points="785.655,47.2441 785.655,66.1417 "/>
<polyline clip-path="url(#clip680)" style="stroke:#ffffff; stroke-linecap:round; stroke-linejoin:round; stroke-width:4; stroke-opacity:1; fill:none" points="1271.97,47.2441 1271.97,66.1417 "/>
<polyline clip-path="url(#clip680)" style="stroke:#ffffff; stroke-linecap:round; stroke-linejoin:round; stroke-width:4; stroke-opacity:1; fill:none" points="1758.28,47.2441 1758.28,66.1417 "/>
<polyline clip-path="url(#clip680)" style="stroke:#ffffff; stroke-linecap:round; stroke-linejoin:round; stroke-width:4; stroke-opacity:1; fill:none" points="2244.6,47.2441 2244.6,66.1417 "/>
<path clip-path="url(#clip680)" d="M299.341 1454.1 Q295.73 1454.1 293.901 1457.66 Q292.095 1461.2 292.095 1468.33 Q292.095 1475.44 293.901 1479.01 Q295.73 1482.55 299.341 1482.55 Q302.975 1482.55 304.78 1479.01 Q306.609 1475.44 306.609 1468.33 Q306.609 1461.2 304.78 1457.66 Q302.975 1454.1 299.341 1454.1 M299.341 1450.39 Q305.151 1450.39 308.206 1455 Q311.285 1459.58 311.285 1468.33 Q311.285 1477.06 308.206 1481.67 Q305.151 1486.25 299.341 1486.25 Q293.531 1486.25 290.452 1481.67 Q287.396 1477.06 287.396 1468.33 Q287.396 1459.58 290.452 1455 Q293.531 1450.39 299.341 1450.39 Z" fill="#ffffff" fill-rule="nonzero" fill-opacity="1" /><path clip-path="url(#clip680)" d="M760.355 1451.02 L778.711 1451.02 L778.711 1454.96 L764.637 1454.96 L764.637 1463.43 Q765.655 1463.08 766.674 1462.92 Q767.693 1462.73 768.711 1462.73 Q774.498 1462.73 777.878 1465.9 Q781.257 1469.08 781.257 1474.49 Q781.257 1480.07 777.785 1483.17 Q774.313 1486.25 767.993 1486.25 Q765.818 1486.25 763.549 1485.88 Q761.304 1485.51 758.896 1484.77 L758.896 1480.07 Q760.98 1481.2 763.202 1481.76 Q765.424 1482.32 767.901 1482.32 Q771.905 1482.32 774.243 1480.21 Q776.581 1478.1 776.581 1474.49 Q776.581 1470.88 774.243 1468.77 Q771.905 1466.67 767.901 1466.67 Q766.026 1466.67 764.151 1467.08 Q762.299 1467.5 760.355 1468.38 L760.355 1451.02 Z" fill="#ffffff" fill-rule="nonzero" fill-opacity="1" /><path clip-path="url(#clip680)" d="M800.47 1454.1 Q796.859 1454.1 795.03 1457.66 Q793.225 1461.2 793.225 1468.33 Q793.225 1475.44 795.03 1479.01 Q796.859 1482.55 800.47 1482.55 Q804.104 1482.55 805.91 1479.01 Q807.739 1475.44 807.739 1468.33 Q807.739 1461.2 805.91 1457.66 Q804.104 1454.1 800.47 1454.1 M800.47 1450.39 Q806.28 1450.39 809.336 1455 Q812.414 1459.58 812.414 1468.33 Q812.414 1477.06 809.336 1481.67 Q806.28 1486.25 800.47 1486.25 Q794.66 1486.25 791.581 1481.67 Q788.526 1477.06 788.526 1468.33 Q788.526 1459.58 791.581 1455 Q794.66 1450.39 800.47 1450.39 Z" fill="#ffffff" fill-rule="nonzero" fill-opacity="1" /><path clip-path="url(#clip680)" d="M1231.58 1481.64 L1239.22 1481.64 L1239.22 1455.28 L1230.91 1456.95 L1230.91 1452.69 L1239.17 1451.02 L1243.85 1451.02 L1243.85 1481.64 L1251.48 1481.64 L1251.48 1485.58 L1231.58 1485.58 L1231.58 1481.64 Z" fill="#ffffff" fill-rule="nonzero" fill-opacity="1" /><path clip-path="url(#clip680)" d="M1270.93 1454.1 Q1267.32 1454.1 1265.49 1457.66 Q1263.68 1461.2 1263.68 1468.33 Q1263.68 1475.44 1265.49 1479.01 Q1267.32 1482.55 1270.93 1482.55 Q1274.56 1482.55 1276.37 1479.01 Q1278.2 1475.44 1278.2 1468.33 Q1278.2 1461.2 1276.37 1457.66 Q1274.56 1454.1 1270.93 1454.1 M1270.93 1450.39 Q1276.74 1450.39 1279.79 1455 Q1282.87 1459.58 1282.87 1468.33 Q1282.87 1477.06 1279.79 1481.67 Q1276.74 1486.25 1270.93 1486.25 Q1265.12 1486.25 1262.04 1481.67 Q1258.98 1477.06 1258.98 1468.33 Q1258.98 1459.58 1262.04 1455 Q1265.12 1450.39 1270.93 1450.39 Z" fill="#ffffff" fill-rule="nonzero" fill-opacity="1" /><path clip-path="url(#clip680)" d="M1301.09 1454.1 Q1297.48 1454.1 1295.65 1457.66 Q1293.84 1461.2 1293.84 1468.33 Q1293.84 1475.44 1295.65 1479.01 Q1297.48 1482.55 1301.09 1482.55 Q1304.72 1482.55 1306.53 1479.01 Q1308.36 1475.44 1308.36 1468.33 Q1308.36 1461.2 1306.53 1457.66 Q1304.72 1454.1 1301.09 1454.1 M1301.09 1450.39 Q1306.9 1450.39 1309.96 1455 Q1313.03 1459.58 1313.03 1468.33 Q1313.03 1477.06 1309.96 1481.67 Q1306.9 1486.25 1301.09 1486.25 Q1295.28 1486.25 1292.2 1481.67 Q1289.15 1477.06 1289.15 1468.33 Q1289.15 1459.58 1292.2 1455 Q1295.28 1450.39 1301.09 1450.39 Z" fill="#ffffff" fill-rule="nonzero" fill-opacity="1" /><path clip-path="url(#clip680)" d="M1717.89 1481.64 L1725.53 1481.64 L1725.53 1455.28 L1717.22 1456.95 L1717.22 1452.69 L1725.48 1451.02 L1730.16 1451.02 L1730.16 1481.64 L1737.8 1481.64 L1737.8 1485.58 L1717.89 1485.58 L1717.89 1481.64 Z" fill="#ffffff" fill-rule="nonzero" fill-opacity="1" /><path clip-path="url(#clip680)" d="M1747.29 1451.02 L1765.65 1451.02 L1765.65 1454.96 L1751.57 1454.96 L1751.57 1463.43 Q1752.59 1463.08 1753.61 1462.92 Q1754.63 1462.73 1755.65 1462.73 Q1761.43 1462.73 1764.81 1465.9 Q1768.19 1469.08 1768.19 1474.49 Q1768.19 1480.07 1764.72 1483.17 Q1761.25 1486.25 1754.93 1486.25 Q1752.75 1486.25 1750.48 1485.88 Q1748.24 1485.51 1745.83 1484.77 L1745.83 1480.07 Q1747.91 1481.2 1750.14 1481.76 Q1752.36 1482.32 1754.84 1482.32 Q1758.84 1482.32 1761.18 1480.21 Q1763.52 1478.1 1763.52 1474.49 Q1763.52 1470.88 1761.18 1468.77 Q1758.84 1466.67 1754.84 1466.67 Q1752.96 1466.67 1751.09 1467.08 Q1749.23 1467.5 1747.29 1468.38 L1747.29 1451.02 Z" fill="#ffffff" fill-rule="nonzero" fill-opacity="1" /><path clip-path="url(#clip680)" d="M1787.41 1454.1 Q1783.79 1454.1 1781.97 1457.66 Q1780.16 1461.2 1780.16 1468.33 Q1780.16 1475.44 1781.97 1479.01 Q1783.79 1482.55 1787.41 1482.55 Q1791.04 1482.55 1792.84 1479.01 Q1794.67 1475.44 1794.67 1468.33 Q1794.67 1461.2 1792.84 1457.66 Q1791.04 1454.1 1787.41 1454.1 M1787.41 1450.39 Q1793.22 1450.39 1796.27 1455 Q1799.35 1459.58 1799.35 1468.33 Q1799.35 1477.06 1796.27 1481.67 Q1793.22 1486.25 1787.41 1486.25 Q1781.59 1486.25 1778.52 1481.67 Q1775.46 1477.06 1775.46 1468.33 Q1775.46 1459.58 1778.52 1455 Q1781.59 1450.39 1787.41 1450.39 Z" fill="#ffffff" fill-rule="nonzero" fill-opacity="1" /><path clip-path="url(#clip680)" d="M2208.29 1481.64 L2224.61 1481.64 L2224.61 1485.58 L2202.67 1485.58 L2202.67 1481.64 Q2205.33 1478.89 2209.91 1474.26 Q2214.52 1469.61 2215.7 1468.27 Q2217.94 1465.74 2218.82 1464.01 Q2219.73 1462.25 2219.73 1460.56 Q2219.73 1457.8 2217.78 1456.07 Q2215.86 1454.33 2212.76 1454.33 Q2210.56 1454.33 2208.11 1455.09 Q2205.68 1455.86 2202.9 1457.41 L2202.9 1452.69 Q2205.72 1451.55 2208.18 1450.97 Q2210.63 1450.39 2212.67 1450.39 Q2218.04 1450.39 2221.23 1453.08 Q2224.43 1455.77 2224.43 1460.26 Q2224.43 1462.39 2223.62 1464.31 Q2222.83 1466.2 2220.72 1468.8 Q2220.14 1469.47 2217.04 1472.69 Q2213.94 1475.88 2208.29 1481.64 Z" fill="#ffffff" fill-rule="nonzero" fill-opacity="1" /><path clip-path="url(#clip680)" d="M2244.43 1454.1 Q2240.81 1454.1 2238.99 1457.66 Q2237.18 1461.2 2237.18 1468.33 Q2237.18 1475.44 2238.99 1479.01 Q2240.81 1482.55 2244.43 1482.55 Q2248.06 1482.55 2249.87 1479.01 Q2251.69 1475.44 2251.69 1468.33 Q2251.69 1461.2 2249.87 1457.66 Q2248.06 1454.1 2244.43 1454.1 M2244.43 1450.39 Q2250.24 1450.39 2253.29 1455 Q2256.37 1459.58 2256.37 1468.33 Q2256.37 1477.06 2253.29 1481.67 Q2250.24 1486.25 2244.43 1486.25 Q2238.62 1486.25 2235.54 1481.67 Q2232.48 1477.06 2232.48 1468.33 Q2232.48 1459.58 2235.54 1455 Q2238.62 1450.39 2244.43 1450.39 Z" fill="#ffffff" fill-rule="nonzero" fill-opacity="1" /><path clip-path="url(#clip680)" d="M2274.59 1454.1 Q2270.98 1454.1 2269.15 1457.66 Q2267.34 1461.2 2267.34 1468.33 Q2267.34 1475.44 2269.15 1479.01 Q2270.98 1482.55 2274.59 1482.55 Q2278.22 1482.55 2280.03 1479.01 Q2281.86 1475.44 2281.86 1468.33 Q2281.86 1461.2 2280.03 1457.66 Q2278.22 1454.1 2274.59 1454.1 M2274.59 1450.39 Q2280.4 1450.39 2283.45 1455 Q2286.53 1459.58 2286.53 1468.33 Q2286.53 1477.06 2283.45 1481.67 Q2280.4 1486.25 2274.59 1486.25 Q2268.78 1486.25 2265.7 1481.67 Q2262.64 1477.06 2262.64 1468.33 Q2262.64 1459.58 2265.7 1455 Q2268.78 1450.39 2274.59 1450.39 Z" fill="#ffffff" fill-rule="nonzero" fill-opacity="1" /><path clip-path="url(#clip680)" d="M1024.99 1520.52 L1031.42 1520.52 L1031.42 1562.63 L1054.56 1562.63 L1054.56 1568.04 L1024.99 1568.04 L1024.99 1520.52 Z" fill="#ffffff" fill-rule="nonzero" fill-opacity="1" /><path clip-path="url(#clip680)" d="M1077.25 1550.12 Q1070.15 1550.12 1067.42 1551.75 Q1064.68 1553.37 1064.68 1557.29 Q1064.68 1560.4 1066.72 1562.25 Q1068.78 1564.07 1072.32 1564.07 Q1077.19 1564.07 1080.12 1560.63 Q1083.08 1557.16 1083.08 1551.43 L1083.08 1550.12 L1077.25 1550.12 M1088.93 1547.71 L1088.93 1568.04 L1083.08 1568.04 L1083.08 1562.63 Q1081.07 1565.88 1078.08 1567.44 Q1075.09 1568.97 1070.76 1568.97 Q1065.28 1568.97 1062.04 1565.91 Q1058.82 1562.82 1058.82 1557.67 Q1058.82 1551.65 1062.83 1548.6 Q1066.88 1545.54 1074.86 1545.54 L1083.08 1545.54 L1083.08 1544.97 Q1083.08 1540.93 1080.4 1538.73 Q1077.76 1536.5 1072.95 1536.5 Q1069.9 1536.5 1067 1537.23 Q1064.11 1537.97 1061.43 1539.43 L1061.43 1534.02 Q1064.65 1532.78 1067.67 1532.17 Q1070.69 1531.54 1073.56 1531.54 Q1081.29 1531.54 1085.11 1535.55 Q1088.93 1539.56 1088.93 1547.71 Z" fill="#ffffff" fill-rule="nonzero" fill-opacity="1" /><path clip-path="url(#clip680)" d="M1124.45 1549.81 Q1124.45 1543.44 1121.81 1539.94 Q1119.2 1536.44 1114.46 1536.44 Q1109.75 1536.44 1107.11 1539.94 Q1104.5 1543.44 1104.5 1549.81 Q1104.5 1556.14 1107.11 1559.64 Q1109.75 1563.14 1114.46 1563.14 Q1119.2 1563.14 1121.81 1559.64 Q1124.45 1556.14 1124.45 1549.81 M1130.31 1563.62 Q1130.31 1572.72 1126.27 1577.15 Q1122.22 1581.6 1113.89 1581.6 Q1110.8 1581.6 1108.06 1581.13 Q1105.32 1580.68 1102.75 1579.72 L1102.75 1574.03 Q1105.32 1575.43 1107.84 1576.1 Q1110.35 1576.76 1112.96 1576.76 Q1118.72 1576.76 1121.59 1573.74 Q1124.45 1570.75 1124.45 1564.67 L1124.45 1561.77 Q1122.64 1564.92 1119.81 1566.48 Q1116.97 1568.04 1113.03 1568.04 Q1106.47 1568.04 1102.46 1563.05 Q1098.45 1558.05 1098.45 1549.81 Q1098.45 1541.53 1102.46 1536.53 Q1106.47 1531.54 1113.03 1531.54 Q1116.97 1531.54 1119.81 1533.1 Q1122.64 1534.66 1124.45 1537.81 L1124.45 1532.4 L1130.31 1532.4 L1130.31 1563.62 Z" fill="#ffffff" fill-rule="nonzero" fill-opacity="1" /><path clip-path="url(#clip680)" d="M1177.16 1518.58 Q1172.9 1525.9 1170.83 1533.06 Q1168.76 1540.23 1168.76 1547.58 Q1168.76 1554.93 1170.83 1562.16 Q1172.93 1569.35 1177.16 1576.64 L1172.07 1576.64 Q1167.29 1569.16 1164.91 1561.93 Q1162.55 1554.71 1162.55 1547.58 Q1162.55 1540.48 1164.91 1533.29 Q1167.26 1526.09 1172.07 1518.58 L1177.16 1518.58 Z" fill="#ffffff" fill-rule="nonzero" fill-opacity="1" /><path clip-path="url(#clip680)" d="M1194.32 1522.27 L1194.32 1532.4 L1206.38 1532.4 L1206.38 1536.95 L1194.32 1536.95 L1194.32 1556.3 Q1194.32 1560.66 1195.49 1561.9 Q1196.7 1563.14 1200.36 1563.14 L1206.38 1563.14 L1206.38 1568.04 L1200.36 1568.04 Q1193.58 1568.04 1191.01 1565.53 Q1188.43 1562.98 1188.43 1556.3 L1188.43 1536.95 L1184.13 1536.95 L1184.13 1532.4 L1188.43 1532.4 L1188.43 1522.27 L1194.32 1522.27 Z" fill="#ffffff" fill-rule="nonzero" fill-opacity="1" /><path clip-path="url(#clip680)" d="M1234.74 1537.87 Q1233.75 1537.3 1232.57 1537.04 Q1231.43 1536.76 1230.03 1536.76 Q1225.06 1536.76 1222.39 1540 Q1219.75 1543.22 1219.75 1549.27 L1219.75 1568.04 L1213.86 1568.04 L1213.86 1532.4 L1219.75 1532.4 L1219.75 1537.93 Q1221.59 1534.69 1224.55 1533.13 Q1227.51 1531.54 1231.75 1531.54 Q1232.35 1531.54 1233.08 1531.63 Q1233.82 1531.7 1234.71 1531.85 L1234.74 1537.87 Z" fill="#ffffff" fill-rule="nonzero" fill-opacity="1" /><path clip-path="url(#clip680)" d="M1257.08 1550.12 Q1249.98 1550.12 1247.25 1551.75 Q1244.51 1553.37 1244.51 1557.29 Q1244.51 1560.4 1246.55 1562.25 Q1248.62 1564.07 1252.15 1564.07 Q1257.02 1564.07 1259.95 1560.63 Q1262.91 1557.16 1262.91 1551.43 L1262.91 1550.12 L1257.08 1550.12 M1268.76 1547.71 L1268.76 1568.04 L1262.91 1568.04 L1262.91 1562.63 Q1260.9 1565.88 1257.91 1567.44 Q1254.92 1568.97 1250.59 1568.97 Q1245.11 1568.97 1241.87 1565.91 Q1238.65 1562.82 1238.65 1557.67 Q1238.65 1551.65 1242.66 1548.6 Q1246.71 1545.54 1254.7 1545.54 L1262.91 1545.54 L1262.91 1544.97 Q1262.91 1540.93 1260.23 1538.73 Q1257.59 1536.5 1252.79 1536.5 Q1249.73 1536.5 1246.83 1537.23 Q1243.94 1537.97 1241.26 1539.43 L1241.26 1534.02 Q1244.48 1532.78 1247.5 1532.17 Q1250.53 1531.54 1253.39 1531.54 Q1261.12 1531.54 1264.94 1535.55 Q1268.76 1539.56 1268.76 1547.71 Z" fill="#ffffff" fill-rule="nonzero" fill-opacity="1" /><path clip-path="url(#clip680)" d="M1304.28 1537.81 L1304.28 1518.52 L1310.14 1518.52 L1310.14 1568.04 L1304.28 1568.04 L1304.28 1562.7 Q1302.44 1565.88 1299.61 1567.44 Q1296.8 1568.97 1292.86 1568.97 Q1286.4 1568.97 1282.32 1563.81 Q1278.28 1558.65 1278.28 1550.25 Q1278.28 1541.85 1282.32 1536.69 Q1286.4 1531.54 1292.86 1531.54 Q1296.8 1531.54 1299.61 1533.1 Q1302.44 1534.62 1304.28 1537.81 M1284.33 1550.25 Q1284.33 1556.71 1286.97 1560.4 Q1289.64 1564.07 1294.29 1564.07 Q1298.94 1564.07 1301.61 1560.4 Q1304.28 1556.71 1304.28 1550.25 Q1304.28 1543.79 1301.61 1540.13 Q1298.94 1536.44 1294.29 1536.44 Q1289.64 1536.44 1286.97 1540.13 Q1284.33 1543.79 1284.33 1550.25 Z" fill="#ffffff" fill-rule="nonzero" fill-opacity="1" /><path clip-path="url(#clip680)" d="M1322.2 1532.4 L1328.06 1532.4 L1328.06 1568.04 L1322.2 1568.04 L1322.2 1532.4 M1322.2 1518.52 L1328.06 1518.52 L1328.06 1525.93 L1322.2 1525.93 L1322.2 1518.52 Z" fill="#ffffff" fill-rule="nonzero" fill-opacity="1" /><path clip-path="url(#clip680)" d="M1369.95 1546.53 L1369.95 1568.04 L1364.09 1568.04 L1364.09 1546.72 Q1364.09 1541.66 1362.12 1539.14 Q1360.14 1536.63 1356.2 1536.63 Q1351.45 1536.63 1348.72 1539.65 Q1345.98 1542.68 1345.98 1547.9 L1345.98 1568.04 L1340.09 1568.04 L1340.09 1532.4 L1345.98 1532.4 L1345.98 1537.93 Q1348.08 1534.72 1350.91 1533.13 Q1353.78 1531.54 1357.5 1531.54 Q1363.64 1531.54 1366.8 1535.36 Q1369.95 1539.14 1369.95 1546.53 Z" fill="#ffffff" fill-rule="nonzero" fill-opacity="1" /><path clip-path="url(#clip680)" d="M1405.09 1549.81 Q1405.09 1543.44 1402.44 1539.94 Q1399.83 1536.44 1395.09 1536.44 Q1390.38 1536.44 1387.74 1539.94 Q1385.13 1543.44 1385.13 1549.81 Q1385.13 1556.14 1387.74 1559.64 Q1390.38 1563.14 1395.09 1563.14 Q1399.83 1563.14 1402.44 1559.64 Q1405.09 1556.14 1405.09 1549.81 M1410.94 1563.62 Q1410.94 1572.72 1406.9 1577.15 Q1402.86 1581.6 1394.52 1581.6 Q1391.43 1581.6 1388.69 1581.13 Q1385.96 1580.68 1383.38 1579.72 L1383.38 1574.03 Q1385.96 1575.43 1388.47 1576.1 Q1390.99 1576.76 1393.59 1576.76 Q1399.36 1576.76 1402.22 1573.74 Q1405.09 1570.75 1405.09 1564.67 L1405.09 1561.77 Q1403.27 1564.92 1400.44 1566.48 Q1397.61 1568.04 1393.66 1568.04 Q1387.1 1568.04 1383.09 1563.05 Q1379.08 1558.05 1379.08 1549.81 Q1379.08 1541.53 1383.09 1536.53 Q1387.1 1531.54 1393.66 1531.54 Q1397.61 1531.54 1400.44 1533.1 Q1403.27 1534.66 1405.09 1537.81 L1405.09 1532.4 L1410.94 1532.4 L1410.94 1563.62 Z" fill="#ffffff" fill-rule="nonzero" fill-opacity="1" /><path clip-path="url(#clip680)" d="M1467.18 1537.81 L1467.18 1518.52 L1473.04 1518.52 L1473.04 1568.04 L1467.18 1568.04 L1467.18 1562.7 Q1465.34 1565.88 1462.5 1567.44 Q1459.7 1568.97 1455.76 1568.97 Q1449.29 1568.97 1445.22 1563.81 Q1441.18 1558.65 1441.18 1550.25 Q1441.18 1541.85 1445.22 1536.69 Q1449.29 1531.54 1455.76 1531.54 Q1459.7 1531.54 1462.5 1533.1 Q1465.34 1534.62 1467.18 1537.81 M1447.23 1550.25 Q1447.23 1556.71 1449.87 1560.4 Q1452.54 1564.07 1457.19 1564.07 Q1461.84 1564.07 1464.51 1560.4 Q1467.18 1556.71 1467.18 1550.25 Q1467.18 1543.79 1464.51 1540.13 Q1461.84 1536.44 1457.19 1536.44 Q1452.54 1536.44 1449.87 1540.13 Q1447.23 1543.79 1447.23 1550.25 Z" fill="#ffffff" fill-rule="nonzero" fill-opacity="1" /><path clip-path="url(#clip680)" d="M1501.3 1550.12 Q1494.2 1550.12 1491.47 1551.75 Q1488.73 1553.37 1488.73 1557.29 Q1488.73 1560.4 1490.77 1562.25 Q1492.84 1564.07 1496.37 1564.07 Q1501.24 1564.07 1504.17 1560.63 Q1507.13 1557.16 1507.13 1551.43 L1507.13 1550.12 L1501.3 1550.12 M1512.98 1547.71 L1512.98 1568.04 L1507.13 1568.04 L1507.13 1562.63 Q1505.12 1565.88 1502.13 1567.44 Q1499.14 1568.97 1494.81 1568.97 Q1489.34 1568.97 1486.09 1565.91 Q1482.87 1562.82 1482.87 1557.67 Q1482.87 1551.65 1486.88 1548.6 Q1490.93 1545.54 1498.92 1545.54 L1507.13 1545.54 L1507.13 1544.97 Q1507.13 1540.93 1504.45 1538.73 Q1501.81 1536.5 1497.01 1536.5 Q1493.95 1536.5 1491.05 1537.23 Q1488.16 1537.97 1485.48 1539.43 L1485.48 1534.02 Q1488.7 1532.78 1491.72 1532.17 Q1494.75 1531.54 1497.61 1531.54 Q1505.34 1531.54 1509.16 1535.55 Q1512.98 1539.56 1512.98 1547.71 Z" fill="#ffffff" fill-rule="nonzero" fill-opacity="1" /><path clip-path="url(#clip680)" d="M1539.88 1571.35 Q1537.4 1577.72 1535.04 1579.66 Q1532.69 1581.6 1528.74 1581.6 L1524.06 1581.6 L1524.06 1576.7 L1527.5 1576.7 Q1529.92 1576.7 1531.25 1575.56 Q1532.59 1574.41 1534.21 1570.14 L1535.26 1567.47 L1520.85 1532.4 L1527.05 1532.4 L1538.19 1560.28 L1549.33 1532.4 L1555.54 1532.4 L1539.88 1571.35 Z" fill="#ffffff" fill-rule="nonzero" fill-opacity="1" /><path clip-path="url(#clip680)" d="M1562.7 1518.58 L1567.79 1518.58 Q1572.57 1526.09 1574.92 1533.29 Q1577.31 1540.48 1577.31 1547.58 Q1577.31 1554.71 1574.92 1561.93 Q1572.57 1569.16 1567.79 1576.64 L1562.7 1576.64 Q1566.93 1569.35 1569 1562.16 Q1571.1 1554.93 1571.1 1547.58 Q1571.1 1540.23 1569 1533.06 Q1566.93 1525.9 1562.7 1518.58 Z" fill="#ffffff" fill-rule="nonzero" fill-opacity="1" /><polyline clip-path="url(#clip680)" style="stroke:#ffffff; stroke-linecap:round; stroke-linejoin:round; stroke-width:4; stroke-opacity:1; fill:none" points="249.542,1423.18 249.542,47.2441 "/>
<polyline clip-path="url(#clip680)" style="stroke:#ffffff; stroke-linecap:round; stroke-linejoin:round; stroke-width:4; stroke-opacity:1; fill:none" points="2352.76,1423.18 2352.76,47.2441 "/>
<polyline clip-path="url(#clip680)" style="stroke:#ffffff; stroke-linecap:round; stroke-linejoin:round; stroke-width:4; stroke-opacity:1; fill:none" points="249.542,1174.18 268.44,1174.18 "/>
<polyline clip-path="url(#clip680)" style="stroke:#ffffff; stroke-linecap:round; stroke-linejoin:round; stroke-width:4; stroke-opacity:1; fill:none" points="249.542,902.179 268.44,902.179 "/>
<polyline clip-path="url(#clip680)" style="stroke:#ffffff; stroke-linecap:round; stroke-linejoin:round; stroke-width:4; stroke-opacity:1; fill:none" points="249.542,630.181 268.44,630.181 "/>
<polyline clip-path="url(#clip680)" style="stroke:#ffffff; stroke-linecap:round; stroke-linejoin:round; stroke-width:4; stroke-opacity:1; fill:none" points="249.542,358.184 268.44,358.184 "/>
<polyline clip-path="url(#clip680)" style="stroke:#ffffff; stroke-linecap:round; stroke-linejoin:round; stroke-width:4; stroke-opacity:1; fill:none" points="249.542,86.1857 268.44,86.1857 "/>
<polyline clip-path="url(#clip680)" style="stroke:#ffffff; stroke-linecap:round; stroke-linejoin:round; stroke-width:4; stroke-opacity:1; fill:none" points="2352.76,1174.18 2333.86,1174.18 "/>
<polyline clip-path="url(#clip680)" style="stroke:#ffffff; stroke-linecap:round; stroke-linejoin:round; stroke-width:4; stroke-opacity:1; fill:none" points="2352.76,902.179 2333.86,902.179 "/>
<polyline clip-path="url(#clip680)" style="stroke:#ffffff; stroke-linecap:round; stroke-linejoin:round; stroke-width:4; stroke-opacity:1; fill:none" points="2352.76,630.181 2333.86,630.181 "/>
<polyline clip-path="url(#clip680)" style="stroke:#ffffff; stroke-linecap:round; stroke-linejoin:round; stroke-width:4; stroke-opacity:1; fill:none" points="2352.76,358.184 2333.86,358.184 "/>
<polyline clip-path="url(#clip680)" style="stroke:#ffffff; stroke-linecap:round; stroke-linejoin:round; stroke-width:4; stroke-opacity:1; fill:none" points="2352.76,86.1857 2333.86,86.1857 "/>
<path clip-path="url(#clip680)" d="M126.205 1159.98 Q122.593 1159.98 120.765 1163.54 Q118.959 1167.08 118.959 1174.21 Q118.959 1181.32 120.765 1184.88 Q122.593 1188.42 126.205 1188.42 Q129.839 1188.42 131.644 1184.88 Q133.473 1181.32 133.473 1174.21 Q133.473 1167.08 131.644 1163.54 Q129.839 1159.98 126.205 1159.98 M126.205 1156.27 Q132.015 1156.27 135.07 1160.88 Q138.149 1165.46 138.149 1174.21 Q138.149 1182.94 135.07 1187.55 Q132.015 1192.13 126.205 1192.13 Q120.394 1192.13 117.316 1187.55 Q114.26 1182.94 114.26 1174.21 Q114.26 1165.46 117.316 1160.88 Q120.394 1156.27 126.205 1156.27 Z" fill="#ffffff" fill-rule="nonzero" fill-opacity="1" /><path clip-path="url(#clip680)" d="M146.366 1185.58 L151.251 1185.58 L151.251 1191.46 L146.366 1191.46 L146.366 1185.58 Z" fill="#ffffff" fill-rule="nonzero" fill-opacity="1" /><path clip-path="url(#clip680)" d="M171.436 1159.98 Q167.825 1159.98 165.996 1163.54 Q164.19 1167.08 164.19 1174.21 Q164.19 1181.32 165.996 1184.88 Q167.825 1188.42 171.436 1188.42 Q175.07 1188.42 176.876 1184.88 Q178.704 1181.32 178.704 1174.21 Q178.704 1167.08 176.876 1163.54 Q175.07 1159.98 171.436 1159.98 M171.436 1156.27 Q177.246 1156.27 180.301 1160.88 Q183.38 1165.46 183.38 1174.21 Q183.38 1182.94 180.301 1187.55 Q177.246 1192.13 171.436 1192.13 Q165.626 1192.13 162.547 1187.55 Q159.491 1182.94 159.491 1174.21 Q159.491 1165.46 162.547 1160.88 Q165.626 1156.27 171.436 1156.27 Z" fill="#ffffff" fill-rule="nonzero" fill-opacity="1" /><path clip-path="url(#clip680)" d="M201.598 1159.98 Q197.987 1159.98 196.158 1163.54 Q194.352 1167.08 194.352 1174.21 Q194.352 1181.32 196.158 1184.88 Q197.987 1188.42 201.598 1188.42 Q205.232 1188.42 207.037 1184.88 Q208.866 1181.32 208.866 1174.21 Q208.866 1167.08 207.037 1163.54 Q205.232 1159.98 201.598 1159.98 M201.598 1156.27 Q207.408 1156.27 210.463 1160.88 Q213.542 1165.46 213.542 1174.21 Q213.542 1182.94 210.463 1187.55 Q207.408 1192.13 201.598 1192.13 Q195.787 1192.13 192.709 1187.55 Q189.653 1182.94 189.653 1174.21 Q189.653 1165.46 192.709 1160.88 Q195.787 1156.27 201.598 1156.27 Z" fill="#ffffff" fill-rule="nonzero" fill-opacity="1" /><path clip-path="url(#clip680)" d="M127.2 887.978 Q123.589 887.978 121.76 891.543 Q119.955 895.084 119.955 902.214 Q119.955 909.32 121.76 912.885 Q123.589 916.427 127.2 916.427 Q130.834 916.427 132.64 912.885 Q134.468 909.32 134.468 902.214 Q134.468 895.084 132.64 891.543 Q130.834 887.978 127.2 887.978 M127.2 884.274 Q133.01 884.274 136.066 888.881 Q139.144 893.464 139.144 902.214 Q139.144 910.941 136.066 915.547 Q133.01 920.13 127.2 920.13 Q121.39 920.13 118.311 915.547 Q115.256 910.941 115.256 902.214 Q115.256 893.464 118.311 888.881 Q121.39 884.274 127.2 884.274 Z" fill="#ffffff" fill-rule="nonzero" fill-opacity="1" /><path clip-path="url(#clip680)" d="M147.362 913.58 L152.246 913.58 L152.246 919.459 L147.362 919.459 L147.362 913.58 Z" fill="#ffffff" fill-rule="nonzero" fill-opacity="1" /><path clip-path="url(#clip680)" d="M166.459 915.524 L182.778 915.524 L182.778 919.459 L160.834 919.459 L160.834 915.524 Q163.496 912.769 168.079 908.14 Q172.686 903.487 173.866 902.144 Q176.112 899.621 176.991 897.885 Q177.894 896.126 177.894 894.436 Q177.894 891.682 175.95 889.945 Q174.028 888.209 170.927 888.209 Q168.727 888.209 166.274 888.973 Q163.843 889.737 161.065 891.288 L161.065 886.566 Q163.89 885.432 166.343 884.853 Q168.797 884.274 170.834 884.274 Q176.204 884.274 179.399 886.959 Q182.593 889.645 182.593 894.135 Q182.593 896.265 181.783 898.186 Q180.996 900.084 178.889 902.677 Q178.311 903.348 175.209 906.566 Q172.107 909.76 166.459 915.524 Z" fill="#ffffff" fill-rule="nonzero" fill-opacity="1" /><path clip-path="url(#clip680)" d="M192.639 884.899 L210.996 884.899 L210.996 888.834 L196.922 888.834 L196.922 897.307 Q197.94 896.959 198.959 896.797 Q199.977 896.612 200.996 896.612 Q206.783 896.612 210.162 899.783 Q213.542 902.955 213.542 908.371 Q213.542 913.95 210.07 917.052 Q206.598 920.13 200.278 920.13 Q198.102 920.13 195.834 919.76 Q193.588 919.39 191.181 918.649 L191.181 913.95 Q193.264 915.084 195.487 915.64 Q197.709 916.195 200.186 916.195 Q204.19 916.195 206.528 914.089 Q208.866 911.982 208.866 908.371 Q208.866 904.76 206.528 902.654 Q204.19 900.547 200.186 900.547 Q198.311 900.547 196.436 900.964 Q194.584 901.381 192.639 902.26 L192.639 884.899 Z" fill="#ffffff" fill-rule="nonzero" fill-opacity="1" /><path clip-path="url(#clip680)" d="M126.205 615.98 Q122.593 615.98 120.765 619.545 Q118.959 623.086 118.959 630.216 Q118.959 637.323 120.765 640.887 Q122.593 644.429 126.205 644.429 Q129.839 644.429 131.644 640.887 Q133.473 637.323 133.473 630.216 Q133.473 623.086 131.644 619.545 Q129.839 615.98 126.205 615.98 M126.205 612.276 Q132.015 612.276 135.07 616.883 Q138.149 621.466 138.149 630.216 Q138.149 638.943 135.07 643.549 Q132.015 648.133 126.205 648.133 Q120.394 648.133 117.316 643.549 Q114.26 638.943 114.26 630.216 Q114.26 621.466 117.316 616.883 Q120.394 612.276 126.205 612.276 Z" fill="#ffffff" fill-rule="nonzero" fill-opacity="1" /><path clip-path="url(#clip680)" d="M146.366 641.582 L151.251 641.582 L151.251 647.461 L146.366 647.461 L146.366 641.582 Z" fill="#ffffff" fill-rule="nonzero" fill-opacity="1" /><path clip-path="url(#clip680)" d="M161.482 612.901 L179.839 612.901 L179.839 616.837 L165.765 616.837 L165.765 625.309 Q166.783 624.961 167.802 624.799 Q168.82 624.614 169.839 624.614 Q175.626 624.614 179.005 627.786 Q182.385 630.957 182.385 636.373 Q182.385 641.952 178.913 645.054 Q175.44 648.133 169.121 648.133 Q166.945 648.133 164.677 647.762 Q162.431 647.392 160.024 646.651 L160.024 641.952 Q162.107 643.086 164.329 643.642 Q166.552 644.197 169.028 644.197 Q173.033 644.197 175.371 642.091 Q177.709 639.985 177.709 636.373 Q177.709 632.762 175.371 630.656 Q173.033 628.549 169.028 628.549 Q167.153 628.549 165.278 628.966 Q163.427 629.383 161.482 630.262 L161.482 612.901 Z" fill="#ffffff" fill-rule="nonzero" fill-opacity="1" /><path clip-path="url(#clip680)" d="M201.598 615.98 Q197.987 615.98 196.158 619.545 Q194.352 623.086 194.352 630.216 Q194.352 637.323 196.158 640.887 Q197.987 644.429 201.598 644.429 Q205.232 644.429 207.037 640.887 Q208.866 637.323 208.866 630.216 Q208.866 623.086 207.037 619.545 Q205.232 615.98 201.598 615.98 M201.598 612.276 Q207.408 612.276 210.463 616.883 Q213.542 621.466 213.542 630.216 Q213.542 638.943 210.463 643.549 Q207.408 648.133 201.598 648.133 Q195.787 648.133 192.709 643.549 Q189.653 638.943 189.653 630.216 Q189.653 621.466 192.709 616.883 Q195.787 612.276 201.598 612.276 Z" fill="#ffffff" fill-rule="nonzero" fill-opacity="1" /><path clip-path="url(#clip680)" d="M127.2 343.982 Q123.589 343.982 121.76 347.547 Q119.955 351.089 119.955 358.218 Q119.955 365.325 121.76 368.889 Q123.589 372.431 127.2 372.431 Q130.834 372.431 132.64 368.889 Q134.468 365.325 134.468 358.218 Q134.468 351.089 132.64 347.547 Q130.834 343.982 127.2 343.982 M127.2 340.279 Q133.01 340.279 136.066 344.885 Q139.144 349.468 139.144 358.218 Q139.144 366.945 136.066 371.551 Q133.01 376.135 127.2 376.135 Q121.39 376.135 118.311 371.551 Q115.256 366.945 115.256 358.218 Q115.256 349.468 118.311 344.885 Q121.39 340.279 127.2 340.279 Z" fill="#ffffff" fill-rule="nonzero" fill-opacity="1" /><path clip-path="url(#clip680)" d="M147.362 369.584 L152.246 369.584 L152.246 375.464 L147.362 375.464 L147.362 369.584 Z" fill="#ffffff" fill-rule="nonzero" fill-opacity="1" /><path clip-path="url(#clip680)" d="M161.251 340.904 L183.473 340.904 L183.473 342.894 L170.927 375.464 L166.042 375.464 L177.848 344.839 L161.251 344.839 L161.251 340.904 Z" fill="#ffffff" fill-rule="nonzero" fill-opacity="1" /><path clip-path="url(#clip680)" d="M192.639 340.904 L210.996 340.904 L210.996 344.839 L196.922 344.839 L196.922 353.311 Q197.94 352.964 198.959 352.802 Q199.977 352.616 200.996 352.616 Q206.783 352.616 210.162 355.788 Q213.542 358.959 213.542 364.376 Q213.542 369.954 210.07 373.056 Q206.598 376.135 200.278 376.135 Q198.102 376.135 195.834 375.764 Q193.588 375.394 191.181 374.653 L191.181 369.954 Q193.264 371.089 195.487 371.644 Q197.709 372.2 200.186 372.2 Q204.19 372.2 206.528 370.093 Q208.866 367.987 208.866 364.376 Q208.866 360.765 206.528 358.658 Q204.19 356.552 200.186 356.552 Q198.311 356.552 196.436 356.968 Q194.584 357.385 192.639 358.265 L192.639 340.904 Z" fill="#ffffff" fill-rule="nonzero" fill-opacity="1" /><path clip-path="url(#clip680)" d="M117.015 99.5305 L124.654 99.5305 L124.654 73.1649 L116.343 74.8316 L116.343 70.5723 L124.607 68.9057 L129.283 68.9057 L129.283 99.5305 L136.922 99.5305 L136.922 103.466 L117.015 103.466 L117.015 99.5305 Z" fill="#ffffff" fill-rule="nonzero" fill-opacity="1" /><path clip-path="url(#clip680)" d="M146.366 97.5861 L151.251 97.5861 L151.251 103.466 L146.366 103.466 L146.366 97.5861 Z" fill="#ffffff" fill-rule="nonzero" fill-opacity="1" /><path clip-path="url(#clip680)" d="M171.436 71.9844 Q167.825 71.9844 165.996 75.5492 Q164.19 79.0908 164.19 86.2204 Q164.19 93.3268 165.996 96.8916 Q167.825 100.433 171.436 100.433 Q175.07 100.433 176.876 96.8916 Q178.704 93.3268 178.704 86.2204 Q178.704 79.0908 176.876 75.5492 Q175.07 71.9844 171.436 71.9844 M171.436 68.2807 Q177.246 68.2807 180.301 72.8871 Q183.38 77.4704 183.38 86.2204 Q183.38 94.9472 180.301 99.5537 Q177.246 104.137 171.436 104.137 Q165.626 104.137 162.547 99.5537 Q159.491 94.9472 159.491 86.2204 Q159.491 77.4704 162.547 72.8871 Q165.626 68.2807 171.436 68.2807 Z" fill="#ffffff" fill-rule="nonzero" fill-opacity="1" /><path clip-path="url(#clip680)" d="M201.598 71.9844 Q197.987 71.9844 196.158 75.5492 Q194.352 79.0908 194.352 86.2204 Q194.352 93.3268 196.158 96.8916 Q197.987 100.433 201.598 100.433 Q205.232 100.433 207.037 96.8916 Q208.866 93.3268 208.866 86.2204 Q208.866 79.0908 207.037 75.5492 Q205.232 71.9844 201.598 71.9844 M201.598 68.2807 Q207.408 68.2807 210.463 72.8871 Q213.542 77.4704 213.542 86.2204 Q213.542 94.9472 210.463 99.5537 Q207.408 104.137 201.598 104.137 Q195.787 104.137 192.709 99.5537 Q189.653 94.9472 189.653 86.2204 Q189.653 77.4704 192.709 72.8871 Q195.787 68.2807 201.598 68.2807 Z" fill="#ffffff" fill-rule="nonzero" fill-opacity="1" /><path clip-path="url(#clip680)" d="M22.818 1258 L46.4666 1266.72 L46.4666 1249.24 L22.818 1258 M16.4842 1261.62 L16.4842 1254.34 L64.0042 1236.22 L64.0042 1242.91 L51.8138 1247.24 L51.8138 1268.66 L64.0042 1272.99 L64.0042 1279.77 L16.4842 1261.62 Z" fill="#ffffff" fill-rule="nonzero" fill-opacity="1" /><path clip-path="url(#clip680)" d="M22.818 1211.59 L46.4666 1220.31 L46.4666 1202.84 L22.818 1211.59 M16.4842 1215.22 L16.4842 1207.93 L64.0042 1189.82 L64.0042 1196.5 L51.8138 1200.83 L51.8138 1222.25 L64.0042 1226.58 L64.0042 1233.36 L16.4842 1215.22 Z" fill="#ffffff" fill-rule="nonzero" fill-opacity="1" /><path clip-path="url(#clip680)" d="M21.7677 1176.45 L39.6235 1176.45 L39.6235 1168.37 Q39.6235 1163.88 37.3 1161.43 Q34.9765 1158.98 30.6797 1158.98 Q26.4147 1158.98 24.0912 1161.43 Q21.7677 1163.88 21.7677 1168.37 L21.7677 1176.45 M16.4842 1182.88 L16.4842 1168.37 Q16.4842 1160.38 20.1126 1156.3 Q23.7092 1152.2 30.6797 1152.2 Q37.7138 1152.2 41.3104 1156.3 Q44.907 1160.38 44.907 1168.37 L44.907 1176.45 L64.0042 1176.45 L64.0042 1182.88 L16.4842 1182.88 Z" fill="#ffffff" fill-rule="nonzero" fill-opacity="1" /><path clip-path="url(#clip680)" d="M16.4842 1143.57 L16.4842 1137.14 L58.5933 1137.14 L58.5933 1114 L64.0042 1114 L64.0042 1143.57 L16.4842 1143.57 Z" fill="#ffffff" fill-rule="nonzero" fill-opacity="1" /><path clip-path="url(#clip680)" d="M46.0847 1070.59 Q46.0847 1077.69 47.7079 1080.42 Q49.3312 1083.16 53.2461 1083.16 Q56.3653 1083.16 58.2114 1081.12 Q60.0256 1079.06 60.0256 1075.52 Q60.0256 1070.65 56.5881 1067.72 Q53.1188 1064.76 47.3897 1064.76 L46.0847 1064.76 L46.0847 1070.59 M43.6657 1058.91 L64.0042 1058.91 L64.0042 1064.76 L58.5933 1064.76 Q61.8398 1066.77 63.3994 1069.76 Q64.9272 1072.75 64.9272 1077.08 Q64.9272 1082.56 61.8716 1085.8 Q58.7843 1089.02 53.6281 1089.02 Q47.6125 1089.02 44.5569 1085.01 Q41.5014 1080.97 41.5014 1072.98 L41.5014 1064.76 L40.9285 1064.76 Q36.8862 1064.76 34.6901 1067.44 Q32.4621 1070.08 32.4621 1074.89 Q32.4621 1077.94 33.1941 1080.84 Q33.9262 1083.73 35.3903 1086.41 L29.9795 1086.41 Q28.7381 1083.19 28.1334 1080.17 Q27.4968 1077.15 27.4968 1074.28 Q27.4968 1066.55 31.5072 1062.73 Q35.5176 1058.91 43.6657 1058.91 Z" fill="#ffffff" fill-rule="nonzero" fill-opacity="1" /><path clip-path="url(#clip680)" d="M49.9359 1047.45 L28.3562 1047.45 L28.3562 1041.59 L49.7131 1041.59 Q54.7739 1041.59 57.3202 1039.62 Q59.8346 1037.65 59.8346 1033.7 Q59.8346 1028.96 56.8109 1026.22 Q53.7872 1023.45 48.5673 1023.45 L28.3562 1023.45 L28.3562 1017.59 L64.0042 1017.59 L64.0042 1023.45 L58.5296 1023.45 Q61.7762 1025.58 63.3676 1028.42 Q64.9272 1031.22 64.9272 1034.94 Q64.9272 1041.08 61.1078 1044.27 Q57.2883 1047.45 49.9359 1047.45 M27.4968 1032.71 L27.4968 1032.71 Z" fill="#ffffff" fill-rule="nonzero" fill-opacity="1" /><path clip-path="url(#clip680)" d="M18.2347 999.739 L28.3562 999.739 L28.3562 987.676 L32.9077 987.676 L32.9077 999.739 L52.2594 999.739 Q56.6199 999.739 57.8613 998.561 Q59.1026 997.352 59.1026 993.691 L59.1026 987.676 L64.0042 987.676 L64.0042 993.691 Q64.0042 1000.47 61.4897 1003.05 Q58.9434 1005.63 52.2594 1005.63 L32.9077 1005.63 L32.9077 1009.92 L28.3562 1009.92 L28.3562 1005.63 L18.2347 1005.63 L18.2347 999.739 Z" fill="#ffffff" fill-rule="nonzero" fill-opacity="1" /><path clip-path="url(#clip680)" d="M32.4621 966.16 Q32.4621 970.87 36.1542 973.608 Q39.8145 976.345 46.212 976.345 Q52.6095 976.345 56.3017 973.64 Q59.9619 970.902 59.9619 966.16 Q59.9619 961.481 56.2698 958.744 Q52.5777 956.007 46.212 956.007 Q39.8781 956.007 36.186 958.744 Q32.4621 961.481 32.4621 966.16 M27.4968 966.16 Q27.4968 958.521 32.4621 954.16 Q37.4273 949.8 46.212 949.8 Q54.9649 949.8 59.9619 954.16 Q64.9272 958.521 64.9272 966.16 Q64.9272 973.83 59.9619 978.191 Q54.9649 982.52 46.212 982.52 Q37.4273 982.52 32.4621 978.191 Q27.4968 973.83 27.4968 966.16 Z" fill="#ffffff" fill-rule="nonzero" fill-opacity="1" /><path clip-path="url(#clip680)" d="M29.7248 914.438 L35.1993 914.438 Q33.8307 916.921 33.1623 919.436 Q32.4621 921.918 32.4621 924.464 Q32.4621 930.162 36.0905 933.313 Q39.6872 936.464 46.212 936.464 Q52.7369 936.464 56.3653 933.313 Q59.9619 930.162 59.9619 924.464 Q59.9619 921.918 59.2935 919.436 Q58.5933 916.921 57.2247 914.438 L62.6355 914.438 Q63.7814 916.889 64.3543 919.531 Q64.9272 922.141 64.9272 925.101 Q64.9272 933.154 59.8664 937.896 Q54.8057 942.639 46.212 942.639 Q37.491 942.639 32.4939 937.864 Q27.4968 933.058 27.4968 924.719 Q27.4968 922.014 28.0697 919.436 Q28.6108 916.857 29.7248 914.438 Z" fill="#ffffff" fill-rule="nonzero" fill-opacity="1" /><path clip-path="url(#clip680)" d="M32.4621 890.44 Q32.4621 895.15 36.1542 897.888 Q39.8145 900.625 46.212 900.625 Q52.6095 900.625 56.3017 897.919 Q59.9619 895.182 59.9619 890.44 Q59.9619 885.761 56.2698 883.024 Q52.5777 880.286 46.212 880.286 Q39.8781 880.286 36.186 883.024 Q32.4621 885.761 32.4621 890.44 M27.4968 890.44 Q27.4968 882.801 32.4621 878.44 Q37.4273 874.08 46.212 874.08 Q54.9649 874.08 59.9619 878.44 Q64.9272 882.801 64.9272 890.44 Q64.9272 898.11 59.9619 902.471 Q54.9649 906.8 46.212 906.8 Q37.4273 906.8 32.4621 902.471 Q27.4968 898.11 27.4968 890.44 Z" fill="#ffffff" fill-rule="nonzero" fill-opacity="1" /><path clip-path="url(#clip680)" d="M33.8307 843.715 Q33.2578 844.702 33.0032 845.88 Q32.7167 847.026 32.7167 848.426 Q32.7167 853.391 35.9632 856.065 Q39.1779 858.707 45.2253 858.707 L64.0042 858.707 L64.0042 864.595 L28.3562 864.595 L28.3562 858.707 L33.8944 858.707 Q30.6479 856.861 29.0883 853.901 Q27.4968 850.941 27.4968 846.707 Q27.4968 846.103 27.5923 845.371 Q27.656 844.638 27.8151 843.747 L33.8307 843.715 Z" fill="#ffffff" fill-rule="nonzero" fill-opacity="1" /><path clip-path="url(#clip680)" d="M33.8307 818.062 Q33.2578 819.048 33.0032 820.226 Q32.7167 821.372 32.7167 822.772 Q32.7167 827.738 35.9632 830.411 Q39.1779 833.053 45.2253 833.053 L64.0042 833.053 L64.0042 838.941 L28.3562 838.941 L28.3562 833.053 L33.8944 833.053 Q30.6479 831.207 29.0883 828.247 Q27.4968 825.287 27.4968 821.054 Q27.4968 820.449 27.5923 819.717 Q27.656 818.985 27.8151 818.093 L33.8307 818.062 Z" fill="#ffffff" fill-rule="nonzero" fill-opacity="1" /><path clip-path="url(#clip680)" d="M44.7161 782.859 L47.5806 782.859 L47.5806 809.786 Q53.6281 809.404 56.8109 806.158 Q59.9619 802.879 59.9619 797.055 Q59.9619 793.681 59.1344 790.53 Q58.3069 787.347 56.6518 784.228 L62.1899 784.228 Q63.5267 787.379 64.227 790.689 Q64.9272 793.999 64.9272 797.405 Q64.9272 805.935 59.9619 810.932 Q54.9967 815.897 46.5303 815.897 Q37.7774 815.897 32.6531 811.187 Q27.4968 806.444 27.4968 798.423 Q27.4968 791.23 32.1438 787.061 Q36.7589 782.859 44.7161 782.859 M42.9973 788.716 Q38.1912 788.779 35.3266 791.421 Q32.4621 794.031 32.4621 798.36 Q32.4621 803.261 35.2312 806.221 Q38.0002 809.15 43.0292 809.595 L42.9973 788.716 Z" fill="#ffffff" fill-rule="nonzero" fill-opacity="1" /><path clip-path="url(#clip680)" d="M14.479 773.247 L14.479 767.391 L64.0042 767.391 L64.0042 773.247 L14.479 773.247 Z" fill="#ffffff" fill-rule="nonzero" fill-opacity="1" /><path clip-path="url(#clip680)" d="M46.0847 738.936 Q46.0847 746.034 47.7079 748.771 Q49.3312 751.508 53.2461 751.508 Q56.3653 751.508 58.2114 749.471 Q60.0256 747.402 60.0256 743.869 Q60.0256 739 56.5881 736.071 Q53.1188 733.111 47.3897 733.111 L46.0847 733.111 L46.0847 738.936 M43.6657 727.255 L64.0042 727.255 L64.0042 733.111 L58.5933 733.111 Q61.8398 735.116 63.3994 738.108 Q64.9272 741.1 64.9272 745.429 Q64.9272 750.903 61.8716 754.15 Q58.7843 757.365 53.6281 757.365 Q47.6125 757.365 44.5569 753.354 Q41.5014 749.312 41.5014 741.323 L41.5014 733.111 L40.9285 733.111 Q36.8862 733.111 34.6901 735.785 Q32.4621 738.427 32.4621 743.233 Q32.4621 746.288 33.1941 749.185 Q33.9262 752.081 35.3903 754.755 L29.9795 754.755 Q28.7381 751.54 28.1334 748.516 Q27.4968 745.493 27.4968 742.628 Q27.4968 734.894 31.5072 731.074 Q35.5176 727.255 43.6657 727.255 Z" fill="#ffffff" fill-rule="nonzero" fill-opacity="1" /><path clip-path="url(#clip680)" d="M18.2347 709.399 L28.3562 709.399 L28.3562 697.336 L32.9077 697.336 L32.9077 709.399 L52.2594 709.399 Q56.6199 709.399 57.8613 708.221 Q59.1026 707.012 59.1026 703.352 L59.1026 697.336 L64.0042 697.336 L64.0042 703.352 Q64.0042 710.131 61.4897 712.709 Q58.9434 715.287 52.2594 715.287 L32.9077 715.287 L32.9077 719.584 L28.3562 719.584 L28.3562 715.287 L18.2347 715.287 L18.2347 709.399 Z" fill="#ffffff" fill-rule="nonzero" fill-opacity="1" /><path clip-path="url(#clip680)" d="M28.3562 689.634 L28.3562 683.777 L64.0042 683.777 L64.0042 689.634 L28.3562 689.634 M14.479 689.634 L14.479 683.777 L21.895 683.777 L21.895 689.634 L14.479 689.634 Z" fill="#ffffff" fill-rule="nonzero" fill-opacity="1" /><path clip-path="url(#clip680)" d="M32.4621 657.709 Q32.4621 662.42 36.1542 665.157 Q39.8145 667.895 46.212 667.895 Q52.6095 667.895 56.3017 665.189 Q59.9619 662.452 59.9619 657.709 Q59.9619 653.031 56.2698 650.293 Q52.5777 647.556 46.212 647.556 Q39.8781 647.556 36.186 650.293 Q32.4621 653.031 32.4621 657.709 M27.4968 657.709 Q27.4968 650.071 32.4621 645.71 Q37.4273 641.35 46.212 641.35 Q54.9649 641.35 59.9619 645.71 Q64.9272 650.071 64.9272 657.709 Q64.9272 665.38 59.9619 669.741 Q54.9649 674.069 46.212 674.069 Q37.4273 674.069 32.4621 669.741 Q27.4968 665.38 27.4968 657.709 Z" fill="#ffffff" fill-rule="nonzero" fill-opacity="1" /><path clip-path="url(#clip680)" d="M42.4881 602.01 L64.0042 602.01 L64.0042 607.866 L42.679 607.866 Q37.6183 607.866 35.1038 609.839 Q32.5894 611.813 32.5894 615.759 Q32.5894 620.502 35.6131 623.239 Q38.6368 625.976 43.8567 625.976 L64.0042 625.976 L64.0042 631.865 L28.3562 631.865 L28.3562 625.976 L33.8944 625.976 Q30.6797 623.876 29.0883 621.043 Q27.4968 618.178 27.4968 614.455 Q27.4968 608.312 31.3163 605.161 Q35.1038 602.01 42.4881 602.01 Z" fill="#ffffff" fill-rule="nonzero" fill-opacity="1" /><path clip-path="url(#clip680)" d="M45.7664 546.15 Q39.4007 546.15 35.8996 548.792 Q32.3984 551.402 32.3984 556.145 Q32.3984 560.855 35.8996 563.497 Q39.4007 566.107 45.7664 566.107 Q52.1003 566.107 55.6014 563.497 Q59.1026 560.855 59.1026 556.145 Q59.1026 551.402 55.6014 548.792 Q52.1003 546.15 45.7664 546.15 M59.58 540.294 Q68.683 540.294 73.1071 544.336 Q77.5631 548.378 77.5631 556.718 Q77.5631 559.805 77.0857 562.542 Q76.6401 565.279 75.6852 567.858 L69.9879 567.858 Q71.3884 565.279 72.0568 562.765 Q72.7252 560.251 72.7252 557.641 Q72.7252 551.88 69.7015 549.015 Q66.7096 546.15 60.6303 546.15 L57.7339 546.15 Q60.885 547.965 62.4446 550.797 Q64.0042 553.63 64.0042 557.577 Q64.0042 564.134 59.0071 568.144 Q54.01 572.154 45.7664 572.154 Q37.491 572.154 32.4939 568.144 Q27.4968 564.134 27.4968 557.577 Q27.4968 553.63 29.0564 550.797 Q30.616 547.965 33.7671 546.15 L28.3562 546.15 L28.3562 540.294 L59.58 540.294 Z" fill="#ffffff" fill-rule="nonzero" fill-opacity="1" /><path clip-path="url(#clip680)" d="M33.8307 507.574 Q33.2578 508.561 33.0032 509.739 Q32.7167 510.884 32.7167 512.285 Q32.7167 517.25 35.9632 519.924 Q39.1779 522.566 45.2253 522.566 L64.0042 522.566 L64.0042 528.454 L28.3562 528.454 L28.3562 522.566 L33.8944 522.566 Q30.6479 520.719 29.0883 517.759 Q27.4968 514.799 27.4968 510.566 Q27.4968 509.961 27.5923 509.229 Q27.656 508.497 27.8151 507.606 L33.8307 507.574 Z" fill="#ffffff" fill-rule="nonzero" fill-opacity="1" /><path clip-path="url(#clip680)" d="M32.4621 489.05 Q32.4621 493.761 36.1542 496.498 Q39.8145 499.235 46.212 499.235 Q52.6095 499.235 56.3017 496.53 Q59.9619 493.793 59.9619 489.05 Q59.9619 484.371 56.2698 481.634 Q52.5777 478.897 46.212 478.897 Q39.8781 478.897 36.186 481.634 Q32.4621 484.371 32.4621 489.05 M27.4968 489.05 Q27.4968 481.411 32.4621 477.051 Q37.4273 472.69 46.212 472.69 Q54.9649 472.69 59.9619 477.051 Q64.9272 481.411 64.9272 489.05 Q64.9272 496.721 59.9619 501.081 Q54.9649 505.41 46.212 505.41 Q37.4273 505.41 32.4621 501.081 Q27.4968 496.721 27.4968 489.05 Z" fill="#ffffff" fill-rule="nonzero" fill-opacity="1" /><path clip-path="url(#clip680)" d="M28.3562 466.388 L28.3562 460.532 L56.1743 453.211 L28.3562 445.922 L28.3562 439.016 L56.1743 431.695 L28.3562 424.406 L28.3562 418.55 L64.0042 427.876 L64.0042 434.782 L34.7856 442.453 L64.0042 450.156 L64.0042 457.062 L28.3562 466.388 Z" fill="#ffffff" fill-rule="nonzero" fill-opacity="1" /><path clip-path="url(#clip680)" d="M18.2347 403.877 L28.3562 403.877 L28.3562 391.814 L32.9077 391.814 L32.9077 403.877 L52.2594 403.877 Q56.6199 403.877 57.8613 402.699 Q59.1026 401.49 59.1026 397.83 L59.1026 391.814 L64.0042 391.814 L64.0042 397.83 Q64.0042 404.609 61.4897 407.187 Q58.9434 409.765 52.2594 409.765 L32.9077 409.765 L32.9077 414.062 L28.3562 414.062 L28.3562 409.765 L18.2347 409.765 L18.2347 403.877 Z" fill="#ffffff" fill-rule="nonzero" fill-opacity="1" /><path clip-path="url(#clip680)" d="M42.4881 354.479 L64.0042 354.479 L64.0042 360.336 L42.679 360.336 Q37.6183 360.336 35.1038 362.309 Q32.5894 364.282 32.5894 368.229 Q32.5894 372.971 35.6131 375.709 Q38.6368 378.446 43.8567 378.446 L64.0042 378.446 L64.0042 384.334 L14.479 384.334 L14.479 378.446 L33.8944 378.446 Q30.6797 376.345 29.0883 373.513 Q27.4968 370.648 27.4968 366.924 Q27.4968 360.781 31.3163 357.63 Q35.1038 354.479 42.4881 354.479 Z" fill="#ffffff" fill-rule="nonzero" fill-opacity="1" /><path clip-path="url(#clip680)" d="M14.5426 308.009 Q21.8632 312.274 29.0246 314.343 Q36.186 316.412 43.5384 316.412 Q50.8908 316.412 58.1159 314.343 Q65.3091 312.243 72.5979 308.009 L72.5979 313.102 Q65.1182 317.876 57.8931 320.263 Q50.668 322.619 43.5384 322.619 Q36.4406 322.619 29.2474 320.263 Q22.0542 317.908 14.5426 313.102 L14.5426 308.009 Z" fill="#ffffff" fill-rule="nonzero" fill-opacity="1" /><path clip-path="url(#clip680)" d="M22.818 280.51 L46.4666 289.231 L46.4666 271.757 L22.818 280.51 M16.4842 284.138 L16.4842 276.849 L64.0042 258.739 L64.0042 265.423 L51.8138 269.751 L51.8138 291.172 L64.0042 295.501 L64.0042 302.28 L16.4842 284.138 Z" fill="#ffffff" fill-rule="nonzero" fill-opacity="1" /><path clip-path="url(#clip680)" d="M16.4842 252.532 L16.4842 246.071 L45.3526 246.071 Q52.9915 246.071 56.3653 243.302 Q59.7073 240.533 59.7073 234.326 Q59.7073 228.152 56.3653 225.383 Q52.9915 222.613 45.3526 222.613 L16.4842 222.613 L16.4842 216.152 L46.1484 216.152 Q55.4423 216.152 60.1847 220.767 Q64.9272 225.351 64.9272 234.326 Q64.9272 243.334 60.1847 247.949 Q55.4423 252.532 46.1484 252.532 L16.4842 252.532 Z" fill="#ffffff" fill-rule="nonzero" fill-opacity="1" /><path clip-path="url(#clip680)" d="M14.5426 205.267 L14.5426 200.174 Q22.0542 195.4 29.2474 193.045 Q36.4406 190.658 43.5384 190.658 Q50.668 190.658 57.8931 193.045 Q65.1182 195.4 72.5979 200.174 L72.5979 205.267 Q65.3091 201.034 58.1159 198.965 Q50.8908 196.864 43.5384 196.864 Q36.186 196.864 29.0246 198.965 Q21.8632 201.034 14.5426 205.267 Z" fill="#ffffff" fill-rule="nonzero" fill-opacity="1" /><polyline clip-path="url(#clip682)" style="stroke:#ff7d00; stroke-linecap:round; stroke-linejoin:round; stroke-width:4; stroke-opacity:1; fill:none" points="309.067,86.1857 318.793,86.1857 318.793,1010.69 328.52,1010.69 328.52,1255.52 338.246,1255.52 338.246,1279.04 347.972,1279.04 347.972,1101.04 357.698,1101.04 357.698,1250.27 367.425,1250.27 367.425,1179.97 377.151,1179.97 377.151,1160.46 386.877,1160.46 386.877,1184.11 396.604,1184.11 396.604,1191.44 406.33,1191.44 406.33,1221.88 416.056,1221.88 416.056,1145.43 425.782,1145.43 425.782,1133.16 435.509,1133.16 435.509,1186.64 445.235,1186.64 445.235,1190.29 454.961,1190.29 454.961,1111.18 464.688,1111.18 464.688,1210.13 474.414,1210.13 474.414,1128.83 484.14,1128.83 484.14,1186.48 493.867,1186.48 493.867,1184.51 503.593,1184.51 503.593,1116.88 513.319,1116.88 513.319,1118.48 523.045,1118.48 523.045,1141.81 532.772,1141.81 532.772,1152.44 542.498,1152.44 542.498,1192.38 552.224,1192.38 552.224,1236.78 561.951,1236.78 561.951,1158.97 571.677,1158.97 571.677,1037.03 581.403,1037.03 581.403,1176.83 591.129,1176.83 591.129,1219.81 600.856,1219.81 600.856,1206.26 610.582,1206.26 610.582,1072.39 620.308,1072.39 620.308,1217.75 630.035,1217.75 630.035,1147.68 639.761,1147.68 639.761,1142.92 649.487,1142.92 649.487,1104.76 659.214,1104.76 659.214,1259.22 668.94,1259.22 668.94,1264.28 678.666,1264.28 678.666,1216.23 688.392,1216.23 688.392,1243.48 698.119,1243.48 698.119,1169.84 707.845,1169.84 707.845,1101.86 717.571,1101.86 717.571,1039.51 727.298,1039.51 727.298,1190.65 737.024,1190.65 737.024,1201.07 746.75,1201.07 746.75,1176.91 756.476,1176.91 756.476,1142.71 766.203,1142.71 766.203,1219.85 775.929,1219.85 775.929,1172.88 785.655,1172.88 785.655,1230.34 795.382,1230.34 795.382,1300.95 805.108,1300.95 805.108,1230.68 814.834,1230.68 814.834,1205.58 824.561,1205.58 824.561,1153.26 834.287,1153.26 834.287,1175.47 844.013,1175.47 844.013,1221.07 853.739,1221.07 853.739,1249.41 863.466,1249.41 863.466,1277.18 873.192,1277.18 873.192,1156.76 882.918,1156.76 882.918,1165.23 892.645,1165.23 892.645,1182.97 902.371,1182.97 902.371,1249.62 912.097,1249.62 912.097,1183.49 921.823,1183.49 921.823,1284.35 931.55,1284.35 931.55,1215.84 941.276,1215.84 941.276,1164.43 951.002,1164.43 951.002,1186.17 960.729,1186.17 960.729,1244.55 970.455,1244.55 970.455,1094.67 980.181,1094.67 980.181,1127.35 989.908,1127.35 989.908,1243 999.634,1243 999.634,1238.83 1009.36,1238.83 1009.36,1210.71 1019.09,1210.71 1019.09,1078.3 1028.81,1078.3 1028.81,1048.78 1038.54,1048.78 1038.54,1145.15 1048.27,1145.15 1048.27,1200.98 1057.99,1200.98 1057.99,1198.8 1067.72,1198.8 1067.72,1226.56 1077.44,1226.56 1077.44,1246.04 1087.17,1246.04 1087.17,1139.27 1096.9,1139.27 1096.9,1170.13 1106.62,1170.13 1106.62,1201.28 1116.35,1201.28 1116.35,1260.02 1126.08,1260.02 1126.08,1294.94 1135.8,1294.94 1135.8,1159.16 1145.53,1159.16 1145.53,1112.65 1155.25,1112.65 1155.25,1182.46 1164.98,1182.46 1164.98,1226.15 1174.71,1226.15 1174.71,1124.86 1184.43,1124.86 1184.43,1195.62 1194.16,1195.62 1194.16,1188.08 1203.89,1188.08 1203.89,1295.33 1213.61,1295.33 1213.61,1172.79 1223.34,1172.79 1223.34,1175.69 1233.06,1175.69 1233.06,1130.7 1242.79,1130.7 1242.79,1203.44 1252.52,1203.44 1252.52,1142.33 1262.24,1142.33 1262.24,1152.76 1271.97,1152.76 1271.97,1166.68 1281.7,1166.68 1281.7,1078.62 1291.42,1078.62 1291.42,1135.19 1301.15,1135.19 1301.15,1194.71 1310.88,1194.71 1310.88,1228.23 1320.6,1228.23 1320.6,1170.14 1330.33,1170.14 1330.33,1137.11 1340.05,1137.11 1340.05,1108.85 1349.78,1108.85 1349.78,1189.51 1359.51,1189.51 1359.51,1224.85 1369.23,1224.85 1369.23,1167.96 1378.96,1167.96 1378.96,1161.31 1388.69,1161.31 1388.69,1161.4 1398.41,1161.4 1398.41,1186.2 1408.14,1186.2 1408.14,1171.52 1417.86,1171.52 1417.86,1193.84 1427.59,1193.84 1427.59,1180.95 1437.32,1180.95 1437.32,1082.43 1447.04,1082.43 1447.04,1101.38 1456.77,1101.38 1456.77,1174.42 1466.5,1174.42 1466.5,1218.47 1476.22,1218.47 1476.22,1136.42 1485.95,1136.42 1485.95,1154.49 1495.67,1154.49 1495.67,1148.06 1505.4,1148.06 1505.4,1276.19 1515.13,1276.19 1515.13,1212.61 1524.85,1212.61 1524.85,1265.24 1534.58,1265.24 1534.58,1141.87 1544.31,1141.87 1544.31,1165.39 1554.03,1165.39 1554.03,1095.49 1563.76,1095.49 1563.76,1155.03 1573.49,1155.03 1573.49,1181.12 1583.21,1181.12 1583.21,1153.63 1592.94,1153.63 1592.94,1160.77 1602.66,1160.77 1602.66,1144.57 1612.39,1144.57 1612.39,1172.87 1622.12,1172.87 1622.12,1201.13 1631.84,1201.13 1631.84,1261.01 1641.57,1261.01 1641.57,1257.34 1651.3,1257.34 1651.3,1195.77 1661.02,1195.77 1661.02,1087.31 1670.75,1087.31 1670.75,1165.04 1680.47,1165.04 1680.47,1131.37 1690.2,1131.37 1690.2,1192.12 1699.93,1192.12 1699.93,1167.2 1709.65,1167.2 1709.65,1198.41 1719.38,1198.41 1719.38,1168.96 1729.11,1168.96 1729.11,1137.54 1738.83,1137.54 1738.83,1162.05 1748.56,1162.05 1748.56,1136.25 1758.28,1136.25 1758.28,1144.86 1768.01,1144.86 1768.01,1188.17 1777.74,1188.17 1777.74,1169.75 1787.46,1169.75 1787.46,1179.98 1797.19,1179.98 1797.19,1173.33 1806.92,1173.33 1806.92,1210.6 1816.64,1210.6 1816.64,1172.4 1826.37,1172.4 1826.37,1189.76 1836.1,1189.76 1836.1,1195.48 1845.82,1195.48 1845.82,1188.59 1855.55,1188.59 1855.55,1157.45 1865.27,1157.45 1865.27,1178.54 1875,1178.54 1875,1205.25 1884.73,1205.25 1884.73,1140.04 1894.45,1140.04 1894.45,1165.86 1904.18,1165.86 1904.18,1202.37 1913.91,1202.37 1913.91,1215.42 1923.63,1215.42 1923.63,1167.38 1933.36,1167.38 1933.36,1153.58 1943.08,1153.58 1943.08,1137.41 1952.81,1137.41 1952.81,1160.53 1962.54,1160.53 1962.54,1170.68 1972.26,1170.68 1972.26,1187.48 1981.99,1187.48 1981.99,1170.46 1991.72,1170.46 1991.72,1181.72 2001.44,1181.72 2001.44,1151.89 2011.17,1151.89 2011.17,1149.92 2020.89,1149.92 2020.89,1170.51 2030.62,1170.51 2030.62,1218.96 2040.35,1218.96 2040.35,1205.33 2050.07,1205.33 2050.07,1169.07 2059.8,1169.07 2059.8,1181.09 2069.53,1181.09 2069.53,1182.6 2079.25,1182.6 2079.25,1166.25 2088.98,1166.25 2088.98,1149.77 2098.71,1149.77 2098.71,1184.22 2108.43,1184.22 2108.43,1164.78 2118.16,1164.78 2118.16,1152.66 2127.88,1152.66 2127.88,1156.72 2137.61,1156.72 2137.61,1191.33 2147.34,1191.33 2147.34,1169.12 2157.06,1169.12 2157.06,1149.96 2166.79,1149.96 2166.79,1191.76 2176.52,1191.76 2176.52,1197.52 2186.24,1197.52 2186.24,1185.17 2195.97,1185.17 2195.97,1164.1 2205.69,1164.1 2205.69,1172.34 2215.42,1172.34 2215.42,1176.92 2225.15,1176.92 2225.15,1165.72 2234.87,1165.72 2234.87,1176.75 2244.6,1176.75 2244.6,1181.9 2254.33,1181.9 2254.33,1180.46 2264.05,1180.46 2264.05,1172.57 2273.78,1172.57 2273.78,1164.59 2283.5,1164.59 2283.5,1172.65 2293.23,1172.65 2293.23,1176.42 "/>
<polyline clip-path="url(#clip682)" style="stroke:#e5e5e5; stroke-linecap:round; stroke-linejoin:round; stroke-width:4; stroke-opacity:1; fill:none" points="309.067,86.1857 318.793,86.1857 318.793,960.659 328.52,960.659 328.52,1036.47 338.246,1036.47 338.246,1161.35 347.972,1161.35 347.972,1214.4 357.698,1214.4 357.698,1318.94 367.425,1318.94 367.425,1115.98 377.151,1115.98 377.151,1169.56 386.877,1169.56 386.877,1258.87 396.604,1258.87 396.604,1292.96 406.33,1292.96 406.33,1319.19 416.056,1319.19 416.056,1328.71 425.782,1328.71 425.782,1341.12 435.509,1341.12 435.509,1152.03 445.235,1152.03 445.235,1146.61 454.961,1146.61 454.961,1262.27 464.688,1262.27 464.688,1176.89 474.414,1176.89 474.414,1219.18 484.14,1219.18 484.14,1328.84 493.867,1328.84 493.867,1223.68 503.593,1223.68 503.593,1081.47 513.319,1081.47 513.319,989.752 523.045,989.752 523.045,1017.69 532.772,1017.69 532.772,1042.6 542.498,1042.6 542.498,1202.6 552.224,1202.6 552.224,1245.54 561.951,1245.54 561.951,1202.9 571.677,1202.9 571.677,1170.33 581.403,1170.33 581.403,1116.17 591.129,1116.17 591.129,1210.65 600.856,1210.65 600.856,1193.46 610.582,1193.46 610.582,1316.48 620.308,1316.48 620.308,1256.81 630.035,1256.81 630.035,1384.24 639.761,1384.24 639.761,1218.33 649.487,1218.33 649.487,1190.22 659.214,1190.22 659.214,1101.44 668.94,1101.44 668.94,1088.8 678.666,1088.8 678.666,1095.16 688.392,1095.16 688.392,1267.68 698.119,1267.68 698.119,1240.32 707.845,1240.32 707.845,1168.1 717.571,1168.1 717.571,1168.41 727.298,1168.41 727.298,1072.29 737.024,1072.29 737.024,975.638 746.75,975.638 746.75,1086.25 756.476,1086.25 756.476,1102.28 766.203,1102.28 766.203,1141.77 775.929,1141.77 775.929,1096.3 785.655,1096.3 785.655,1165.04 795.382,1165.04 795.382,1130.52 805.108,1130.52 805.108,1199.34 814.834,1199.34 814.834,1260.56 824.561,1260.56 824.561,1325.28 834.287,1325.28 834.287,1265.53 844.013,1265.53 844.013,1336.23 853.739,1336.23 853.739,1341.07 863.466,1341.07 863.466,1143.3 873.192,1143.3 873.192,1129.48 882.918,1129.48 882.918,1132.08 892.645,1132.08 892.645,1112.06 902.371,1112.06 902.371,1151.3 912.097,1151.3 912.097,1184.18 921.823,1184.18 921.823,1137.46 931.55,1137.46 931.55,1028.92 941.276,1028.92 941.276,1127.59 951.002,1127.59 951.002,1165.43 960.729,1165.43 960.729,1185.97 970.455,1185.97 970.455,1165.65 980.181,1165.65 980.181,1240.89 989.908,1240.89 989.908,1183.05 999.634,1183.05 999.634,1172.57 1009.36,1172.57 1009.36,1185.04 1019.09,1185.04 1019.09,1133.77 1028.81,1133.77 1028.81,1170.25 1038.54,1170.25 1038.54,1287.35 1048.27,1287.35 1048.27,1278.19 1057.99,1278.19 1057.99,1304.32 1067.72,1304.32 1067.72,1224.58 1077.44,1224.58 1077.44,1211.13 1087.17,1211.13 1087.17,1130.4 1096.9,1130.4 1096.9,1110.08 1106.62,1110.08 1106.62,1112.57 1116.35,1112.57 1116.35,1194.84 1126.08,1194.84 1126.08,1123.84 1135.8,1123.84 1135.8,1056.5 1145.53,1056.5 1145.53,1166.97 1155.25,1166.97 1155.25,1158.17 1164.98,1158.17 1164.98,1183.6 1174.71,1183.6 1174.71,1167.78 1184.43,1167.78 1184.43,1164.12 1194.16,1164.12 1194.16,1117.65 1203.89,1117.65 1203.89,1208.91 1213.61,1208.91 1213.61,1154.87 1223.34,1154.87 1223.34,1119.8 1233.06,1119.8 1233.06,1134.46 1242.79,1134.46 1242.79,1184.88 1252.52,1184.88 1252.52,1279.22 1262.24,1279.22 1262.24,1210.79 1271.97,1210.79 1271.97,1249.51 1281.7,1249.51 1281.7,1243.18 1291.42,1243.18 1291.42,1214.16 1301.15,1214.16 1301.15,1172.64 1310.88,1172.64 1310.88,1218.53 1320.6,1218.53 1320.6,1194.9 1330.33,1194.9 1330.33,1136.79 1340.05,1136.79 1340.05,1121.84 1349.78,1121.84 1349.78,1106.77 1359.51,1106.77 1359.51,1113.1 1369.23,1113.1 1369.23,1156.71 1378.96,1156.71 1378.96,1200.38 1388.69,1200.38 1388.69,1161.68 1398.41,1161.68 1398.41,1182.15 1408.14,1182.15 1408.14,1253.24 1417.86,1253.24 1417.86,1227.28 1427.59,1227.28 1427.59,1237.8 1437.32,1237.8 1437.32,1199 1447.04,1199 1447.04,1073.43 1456.77,1073.43 1456.77,1164.94 1466.5,1164.94 1466.5,1147.64 1476.22,1147.64 1476.22,1186.04 1485.95,1186.04 1485.95,1220.01 1495.67,1220.01 1495.67,1178.66 1505.4,1178.66 1505.4,1157.69 1515.13,1157.69 1515.13,1199.72 1524.85,1199.72 1524.85,1175.4 1534.58,1175.4 1534.58,1189.18 1544.31,1189.18 1544.31,1139.84 1554.03,1139.84 1554.03,1141.23 1563.76,1141.23 1563.76,1165.76 1573.49,1165.76 1573.49,1118.23 1583.21,1118.23 1583.21,1141.1 1592.94,1141.1 1592.94,1216.5 1602.66,1216.5 1602.66,1172.06 1612.39,1172.06 1612.39,1201.96 1622.12,1201.96 1622.12,1217.76 1631.84,1217.76 1631.84,1168.93 1641.57,1168.93 1641.57,1132 1651.3,1132 1651.3,1150.75 1661.02,1150.75 1661.02,1160.15 1670.75,1160.15 1670.75,1145.66 1680.47,1145.66 1680.47,1216.91 1690.2,1216.91 1690.2,1147.63 1699.93,1147.63 1699.93,1165.47 1709.65,1165.47 1709.65,1127.86 1719.38,1127.86 1719.38,1132.92 1729.11,1132.92 1729.11,1184.32 1738.83,1184.32 1738.83,1204.24 1748.56,1204.24 1748.56,1177.67 1758.28,1177.67 1758.28,1165.39 1768.01,1165.39 1768.01,1215.96 1777.74,1215.96 1777.74,1231.04 1787.46,1231.04 1787.46,1212.39 1797.19,1212.39 1797.19,1216.13 1806.92,1216.13 1806.92,1200.21 1816.64,1200.21 1816.64,1162.95 1826.37,1162.95 1826.37,1210.64 1836.1,1210.64 1836.1,1177.07 1845.82,1177.07 1845.82,1223.64 1855.55,1223.64 1855.55,1181.96 1865.27,1181.96 1865.27,1252.22 1875,1252.22 1875,1178.87 1884.73,1178.87 1884.73,1216.42 1894.45,1216.42 1894.45,1126.76 1904.18,1126.76 1904.18,1188.69 1913.91,1188.69 1913.91,1088.61 1923.63,1088.61 1923.63,1134.21 1933.36,1134.21 1933.36,1116.71 1943.08,1116.71 1943.08,1129.4 1952.81,1129.4 1952.81,1124.59 1962.54,1124.59 1962.54,1145.69 1972.26,1145.69 1972.26,1160.98 1981.99,1160.98 1981.99,1161.6 1991.72,1161.6 1991.72,1219.12 2001.44,1219.12 2001.44,1150.28 2011.17,1150.28 2011.17,1184.79 2020.89,1184.79 2020.89,1133.15 2030.62,1133.15 2030.62,1210.39 2040.35,1210.39 2040.35,1148.2 2050.07,1148.2 2050.07,1199.15 2059.8,1199.15 2059.8,1147.3 2069.53,1147.3 2069.53,1179.03 2079.25,1179.03 2079.25,1146.43 2088.98,1146.43 2088.98,1180.71 2098.71,1180.71 2098.71,1146.8 2108.43,1146.8 2108.43,1134.25 2118.16,1134.25 2118.16,1139.13 2127.88,1139.13 2127.88,1144.7 2137.61,1144.7 2137.61,1170.77 2147.34,1170.77 2147.34,1165.57 2157.06,1165.57 2157.06,1192.05 2166.79,1192.05 2166.79,1169.2 2176.52,1169.2 2176.52,1192.04 2186.24,1192.04 2186.24,1181.68 2195.97,1181.68 2195.97,1216.91 2205.69,1216.91 2205.69,1212.88 2215.42,1212.88 2215.42,1204.24 2225.15,1204.24 2225.15,1184 2234.87,1184 2234.87,1182.65 2244.6,1182.65 2244.6,1190.54 2254.33,1190.54 2254.33,1187.91 2264.05,1187.91 2264.05,1182.22 2273.78,1182.22 2273.78,1171.91 2283.5,1171.91 2283.5,1173.49 2293.23,1173.49 2293.23,1172.23 "/>
<polyline clip-path="url(#clip682)" style="stroke:#ffffff; stroke-linecap:round; stroke-linejoin:round; stroke-width:8; stroke-opacity:1; fill:none" stroke-dasharray="32, 20" points="309.067,1025.24 318.793,1025.24 328.52,1025.24 338.246,1025.24 347.972,1025.24 357.698,1025.24 367.425,1025.24 377.151,1025.24 386.877,1025.24 396.604,1025.24 406.33,1025.24 416.056,1025.24 425.782,1025.24 435.509,1025.24 445.235,1025.24 454.961,1025.24 464.688,1025.24 474.414,1025.24 484.14,1025.24 493.867,1025.24 503.593,1025.24 513.319,1025.24 523.045,1025.24 532.772,1025.24 542.498,1025.24 552.224,1025.24 561.951,1025.24 571.677,1025.24 581.403,1025.24 591.129,1025.24 600.856,1025.24 610.582,1025.24 620.308,1025.24 630.035,1025.24 639.761,1025.24 649.487,1025.24 659.214,1025.24 668.94,1025.24 678.666,1025.24 688.392,1025.24 698.119,1025.24 707.845,1025.24 717.571,1025.24 727.298,1025.24 737.024,1025.24 746.75,1025.24 756.476,1025.24 766.203,1025.24 775.929,1025.24 785.655,1025.24 795.382,1025.24 805.108,1025.24 814.834,1025.24 824.561,1025.24 834.287,1025.24 844.013,1025.24 853.739,1025.24 863.466,1025.24 873.192,1025.24 882.918,1025.24 892.645,1025.24 902.371,1025.24 912.097,1025.24 921.823,1025.24 931.55,1025.24 941.276,1025.24 951.002,1025.24 960.729,1025.24 970.455,1025.24 980.181,1025.24 989.908,1025.24 999.634,1025.24 1009.36,1025.24 1019.09,1025.24 1028.81,1025.24 1038.54,1025.24 1048.27,1025.24 1057.99,1025.24 1067.72,1025.24 1077.44,1025.24 1087.17,1025.24 1096.9,1025.24 1106.62,1025.24 1116.35,1025.24 1126.08,1025.24 1135.8,1025.24 1145.53,1025.24 1155.25,1025.24 1164.98,1025.24 1174.71,1025.24 1184.43,1025.24 1194.16,1025.24 1203.89,1025.24 1213.61,1025.24 1223.34,1025.24 1233.06,1025.24 1242.79,1025.24 1252.52,1025.24 1262.24,1025.24 1271.97,1025.24 1281.7,1025.24 1291.42,1025.24 1301.15,1025.24 1310.88,1025.24 1320.6,1025.24 1330.33,1025.24 1340.05,1025.24 1349.78,1025.24 1359.51,1025.24 1369.23,1025.24 1378.96,1025.24 1388.69,1025.24 1398.41,1025.24 1408.14,1025.24 1417.86,1025.24 1427.59,1025.24 1437.32,1025.24 1447.04,1025.24 1456.77,1025.24 1466.5,1025.24 1476.22,1025.24 1485.95,1025.24 1495.67,1025.24 1505.4,1025.24 1515.13,1025.24 1524.85,1025.24 1534.58,1025.24 1544.31,1025.24 1554.03,1025.24 1563.76,1025.24 1573.49,1025.24 1583.21,1025.24 1592.94,1025.24 1602.66,1025.24 1612.39,1025.24 1622.12,1025.24 1631.84,1025.24 1641.57,1025.24 1651.3,1025.24 1661.02,1025.24 1670.75,1025.24 1680.47,1025.24 1690.2,1025.24 1699.93,1025.24 1709.65,1025.24 1719.38,1025.24 1729.11,1025.24 1738.83,1025.24 1748.56,1025.24 1758.28,1025.24 1768.01,1025.24 1777.74,1025.24 1787.46,1025.24 1797.19,1025.24 1806.92,1025.24 1816.64,1025.24 1826.37,1025.24 1836.1,1025.24 1845.82,1025.24 1855.55,1025.24 1865.27,1025.24 1875,1025.24 1884.73,1025.24 1894.45,1025.24 1904.18,1025.24 1913.91,1025.24 1923.63,1025.24 1933.36,1025.24 1943.08,1025.24 1952.81,1025.24 1962.54,1025.24 1972.26,1025.24 1981.99,1025.24 1991.72,1025.24 2001.44,1025.24 2011.17,1025.24 2020.89,1025.24 2030.62,1025.24 2040.35,1025.24 2050.07,1025.24 2059.8,1025.24 2069.53,1025.24 2079.25,1025.24 2088.98,1025.24 2098.71,1025.24 2108.43,1025.24 2118.16,1025.24 2127.88,1025.24 2137.61,1025.24 2147.34,1025.24 2157.06,1025.24 2166.79,1025.24 2176.52,1025.24 2186.24,1025.24 2195.97,1025.24 2205.69,1025.24 2215.42,1025.24 2225.15,1025.24 2234.87,1025.24 2244.6,1025.24 2254.33,1025.24 2264.05,1025.24 2273.78,1025.24 2283.5,1025.24 "/>
<polyline clip-path="url(#clip682)" style="stroke:#ffffff; stroke-linecap:round; stroke-linejoin:round; stroke-width:8; stroke-opacity:1; fill:none" stroke-dasharray="32, 20" points="309.067,1323.11 318.793,1323.11 328.52,1323.11 338.246,1323.11 347.972,1323.11 357.698,1323.11 367.425,1323.11 377.151,1323.11 386.877,1323.11 396.604,1323.11 406.33,1323.11 416.056,1323.11 425.782,1323.11 435.509,1323.11 445.235,1323.11 454.961,1323.11 464.688,1323.11 474.414,1323.11 484.14,1323.11 493.867,1323.11 503.593,1323.11 513.319,1323.11 523.045,1323.11 532.772,1323.11 542.498,1323.11 552.224,1323.11 561.951,1323.11 571.677,1323.11 581.403,1323.11 591.129,1323.11 600.856,1323.11 610.582,1323.11 620.308,1323.11 630.035,1323.11 639.761,1323.11 649.487,1323.11 659.214,1323.11 668.94,1323.11 678.666,1323.11 688.392,1323.11 698.119,1323.11 707.845,1323.11 717.571,1323.11 727.298,1323.11 737.024,1323.11 746.75,1323.11 756.476,1323.11 766.203,1323.11 775.929,1323.11 785.655,1323.11 795.382,1323.11 805.108,1323.11 814.834,1323.11 824.561,1323.11 834.287,1323.11 844.013,1323.11 853.739,1323.11 863.466,1323.11 873.192,1323.11 882.918,1323.11 892.645,1323.11 902.371,1323.11 912.097,1323.11 921.823,1323.11 931.55,1323.11 941.276,1323.11 951.002,1323.11 960.729,1323.11 970.455,1323.11 980.181,1323.11 989.908,1323.11 999.634,1323.11 1009.36,1323.11 1019.09,1323.11 1028.81,1323.11 1038.54,1323.11 1048.27,1323.11 1057.99,1323.11 1067.72,1323.11 1077.44,1323.11 1087.17,1323.11 1096.9,1323.11 1106.62,1323.11 1116.35,1323.11 1126.08,1323.11 1135.8,1323.11 1145.53,1323.11 1155.25,1323.11 1164.98,1323.11 1174.71,1323.11 1184.43,1323.11 1194.16,1323.11 1203.89,1323.11 1213.61,1323.11 1223.34,1323.11 1233.06,1323.11 1242.79,1323.11 1252.52,1323.11 1262.24,1323.11 1271.97,1323.11 1281.7,1323.11 1291.42,1323.11 1301.15,1323.11 1310.88,1323.11 1320.6,1323.11 1330.33,1323.11 1340.05,1323.11 1349.78,1323.11 1359.51,1323.11 1369.23,1323.11 1378.96,1323.11 1388.69,1323.11 1398.41,1323.11 1408.14,1323.11 1417.86,1323.11 1427.59,1323.11 1437.32,1323.11 1447.04,1323.11 1456.77,1323.11 1466.5,1323.11 1476.22,1323.11 1485.95,1323.11 1495.67,1323.11 1505.4,1323.11 1515.13,1323.11 1524.85,1323.11 1534.58,1323.11 1544.31,1323.11 1554.03,1323.11 1563.76,1323.11 1573.49,1323.11 1583.21,1323.11 1592.94,1323.11 1602.66,1323.11 1612.39,1323.11 1622.12,1323.11 1631.84,1323.11 1641.57,1323.11 1651.3,1323.11 1661.02,1323.11 1670.75,1323.11 1680.47,1323.11 1690.2,1323.11 1699.93,1323.11 1709.65,1323.11 1719.38,1323.11 1729.11,1323.11 1738.83,1323.11 1748.56,1323.11 1758.28,1323.11 1768.01,1323.11 1777.74,1323.11 1787.46,1323.11 1797.19,1323.11 1806.92,1323.11 1816.64,1323.11 1826.37,1323.11 1836.1,1323.11 1845.82,1323.11 1855.55,1323.11 1865.27,1323.11 1875,1323.11 1884.73,1323.11 1894.45,1323.11 1904.18,1323.11 1913.91,1323.11 1923.63,1323.11 1933.36,1323.11 1943.08,1323.11 1952.81,1323.11 1962.54,1323.11 1972.26,1323.11 1981.99,1323.11 1991.72,1323.11 2001.44,1323.11 2011.17,1323.11 2020.89,1323.11 2030.62,1323.11 2040.35,1323.11 2050.07,1323.11 2059.8,1323.11 2069.53,1323.11 2079.25,1323.11 2088.98,1323.11 2098.71,1323.11 2108.43,1323.11 2118.16,1323.11 2127.88,1323.11 2137.61,1323.11 2147.34,1323.11 2157.06,1323.11 2166.79,1323.11 2176.52,1323.11 2186.24,1323.11 2195.97,1323.11 2205.69,1323.11 2215.42,1323.11 2225.15,1323.11 2234.87,1323.11 2244.6,1323.11 2254.33,1323.11 2264.05,1323.11 2273.78,1323.11 2283.5,1323.11 "/>
<path clip-path="url(#clip680)" d="M1584.23 300.469 L2282.65 300.469 L2282.65 93.1086 L1584.23 93.1086  Z" fill="#31343a" fill-rule="evenodd" fill-opacity="1"/>
<polyline clip-path="url(#clip680)" style="stroke:#000000; stroke-linecap:round; stroke-linejoin:round; stroke-width:4; stroke-opacity:0; fill:none" points="1584.23,300.469 2282.65,300.469 2282.65,93.1086 1584.23,93.1086 1584.23,300.469 "/>
<polyline clip-path="url(#clip680)" style="stroke:#ff7d00; stroke-linecap:round; stroke-linejoin:round; stroke-width:4; stroke-opacity:1; fill:none" points="1607.6,144.949 1747.81,144.949 "/>
<path clip-path="url(#clip680)" d="M1787.2 130.84 Q1782.11 130.84 1779.1 134.636 Q1776.11 138.432 1776.11 144.983 Q1776.11 151.511 1779.1 155.307 Q1782.11 159.104 1787.2 159.104 Q1792.29 159.104 1795.25 155.307 Q1798.24 151.511 1798.24 144.983 Q1798.24 138.432 1795.25 134.636 Q1792.29 130.84 1787.2 130.84 M1787.2 127.044 Q1794.47 127.044 1798.82 131.928 Q1803.17 136.789 1803.17 144.983 Q1803.17 153.155 1798.82 158.039 Q1794.47 162.9 1787.2 162.9 Q1779.91 162.9 1775.53 158.039 Q1771.18 153.178 1771.18 144.983 Q1771.18 136.789 1775.53 131.928 Q1779.91 127.044 1787.2 127.044 Z" fill="#ffffff" fill-rule="nonzero" fill-opacity="1" /><path clip-path="url(#clip680)" d="M1828.91 149.289 Q1828.91 144.59 1826.97 141.928 Q1825.05 139.243 1821.67 139.243 Q1818.29 139.243 1816.34 141.928 Q1814.42 144.59 1814.42 149.289 Q1814.42 153.988 1816.34 156.673 Q1818.29 159.335 1821.67 159.335 Q1825.05 159.335 1826.97 156.673 Q1828.91 153.988 1828.91 149.289 M1814.42 140.238 Q1815.76 137.923 1817.8 136.812 Q1819.86 135.678 1822.71 135.678 Q1827.43 135.678 1830.37 139.428 Q1833.33 143.178 1833.33 149.289 Q1833.33 155.4 1830.37 159.15 Q1827.43 162.9 1822.71 162.9 Q1819.86 162.9 1817.8 161.789 Q1815.76 160.655 1814.42 158.34 L1814.42 162.229 L1810.14 162.229 L1810.14 126.21 L1814.42 126.21 L1814.42 140.238 Z" fill="#ffffff" fill-rule="nonzero" fill-opacity="1" /><path clip-path="url(#clip680)" d="M1856.92 137.067 L1856.92 141.094 Q1855.12 140.169 1853.17 139.706 Q1851.23 139.243 1849.14 139.243 Q1845.97 139.243 1844.37 140.215 Q1842.8 141.187 1842.8 143.131 Q1842.8 144.613 1843.93 145.469 Q1845.07 146.303 1848.49 147.067 L1849.95 147.391 Q1854.49 148.363 1856.39 150.145 Q1858.31 151.905 1858.31 155.076 Q1858.31 158.687 1855.44 160.793 Q1852.59 162.9 1847.59 162.9 Q1845.51 162.9 1843.24 162.483 Q1840.99 162.09 1838.49 161.28 L1838.49 156.881 Q1840.86 158.108 1843.15 158.733 Q1845.44 159.335 1847.68 159.335 Q1850.69 159.335 1852.31 158.317 Q1853.93 157.275 1853.93 155.4 Q1853.93 153.664 1852.75 152.738 Q1851.6 151.812 1847.64 150.956 L1846.16 150.608 Q1842.2 149.775 1840.44 148.062 Q1838.68 146.326 1838.68 143.317 Q1838.68 139.659 1841.27 137.669 Q1843.87 135.678 1848.63 135.678 Q1850.99 135.678 1853.08 136.025 Q1855.16 136.372 1856.92 137.067 Z" fill="#ffffff" fill-rule="nonzero" fill-opacity="1" /><path clip-path="url(#clip680)" d="M1887.27 148.201 L1887.27 150.284 L1867.68 150.284 Q1867.96 154.682 1870.32 156.997 Q1872.71 159.289 1876.94 159.289 Q1879.4 159.289 1881.69 158.687 Q1884 158.085 1886.27 156.881 L1886.27 160.909 Q1883.98 161.881 1881.57 162.391 Q1879.17 162.9 1876.69 162.9 Q1870.49 162.9 1866.85 159.289 Q1863.24 155.678 1863.24 149.52 Q1863.24 143.155 1866.67 139.428 Q1870.12 135.678 1875.95 135.678 Q1881.18 135.678 1884.21 139.057 Q1887.27 142.414 1887.27 148.201 M1883.01 146.951 Q1882.96 143.456 1881.04 141.372 Q1879.14 139.289 1875.99 139.289 Q1872.43 139.289 1870.28 141.303 Q1868.15 143.317 1867.82 146.974 L1883.01 146.951 Z" fill="#ffffff" fill-rule="nonzero" fill-opacity="1" /><path clip-path="url(#clip680)" d="M1909.28 140.284 Q1908.56 139.868 1907.71 139.682 Q1906.87 139.474 1905.86 139.474 Q1902.24 139.474 1900.3 141.835 Q1898.38 144.173 1898.38 148.571 L1898.38 162.229 L1894.1 162.229 L1894.1 136.303 L1898.38 136.303 L1898.38 140.331 Q1899.72 137.969 1901.87 136.835 Q1904.03 135.678 1907.11 135.678 Q1907.55 135.678 1908.08 135.747 Q1908.61 135.794 1909.26 135.909 L1909.28 140.284 Z" fill="#ffffff" fill-rule="nonzero" fill-opacity="1" /><path clip-path="url(#clip680)" d="M1910.69 136.303 L1915.21 136.303 L1923.31 158.062 L1931.41 136.303 L1935.92 136.303 L1926.2 162.229 L1920.42 162.229 L1910.69 136.303 Z" fill="#ffffff" fill-rule="nonzero" fill-opacity="1" /><path clip-path="url(#clip680)" d="M1963.98 148.201 L1963.98 150.284 L1944.4 150.284 Q1944.67 154.682 1947.04 156.997 Q1949.42 159.289 1953.66 159.289 Q1956.11 159.289 1958.4 158.687 Q1960.72 158.085 1962.99 156.881 L1962.99 160.909 Q1960.69 161.881 1958.29 162.391 Q1955.88 162.9 1953.4 162.9 Q1947.2 162.9 1943.56 159.289 Q1939.95 155.678 1939.95 149.52 Q1939.95 143.155 1943.38 139.428 Q1946.83 135.678 1952.66 135.678 Q1957.89 135.678 1960.92 139.057 Q1963.98 142.414 1963.98 148.201 M1959.72 146.951 Q1959.67 143.456 1957.75 141.372 Q1955.86 139.289 1952.71 139.289 Q1949.14 139.289 1946.99 141.303 Q1944.86 143.317 1944.54 146.974 L1959.72 146.951 Z" fill="#ffffff" fill-rule="nonzero" fill-opacity="1" /><path clip-path="url(#clip680)" d="M1988.03 140.238 L1988.03 126.21 L1992.29 126.21 L1992.29 162.229 L1988.03 162.229 L1988.03 158.34 Q1986.69 160.655 1984.63 161.789 Q1982.59 162.9 1979.72 162.9 Q1975.02 162.9 1972.06 159.15 Q1969.12 155.4 1969.12 149.289 Q1969.12 143.178 1972.06 139.428 Q1975.02 135.678 1979.72 135.678 Q1982.59 135.678 1984.63 136.812 Q1986.69 137.923 1988.03 140.238 M1973.52 149.289 Q1973.52 153.988 1975.44 156.673 Q1977.38 159.335 1980.76 159.335 Q1984.14 159.335 1986.09 156.673 Q1988.03 153.988 1988.03 149.289 Q1988.03 144.59 1986.09 141.928 Q1984.14 139.243 1980.76 139.243 Q1977.38 139.243 1975.44 141.928 Q1973.52 144.59 1973.52 149.289 Z" fill="#ffffff" fill-rule="nonzero" fill-opacity="1" /><polyline clip-path="url(#clip680)" style="stroke:#e5e5e5; stroke-linecap:round; stroke-linejoin:round; stroke-width:4; stroke-opacity:1; fill:none" points="1607.6,196.789 1747.81,196.789 "/>
<path clip-path="url(#clip680)" d="M1793.43 180.643 L1793.43 185.203 Q1790.76 183.93 1788.4 183.305 Q1786.04 182.68 1783.84 182.68 Q1780.02 182.68 1777.94 184.161 Q1775.88 185.643 1775.88 188.374 Q1775.88 190.666 1777.25 191.847 Q1778.63 193.004 1782.48 193.722 L1785.3 194.3 Q1790.53 195.296 1793.01 197.819 Q1795.51 200.319 1795.51 204.532 Q1795.51 209.555 1792.13 212.147 Q1788.77 214.74 1782.27 214.74 Q1779.81 214.74 1777.04 214.184 Q1774.28 213.629 1771.32 212.541 L1771.32 207.726 Q1774.17 209.323 1776.9 210.133 Q1779.63 210.944 1782.27 210.944 Q1786.27 210.944 1788.45 209.37 Q1790.62 207.796 1790.62 204.879 Q1790.62 202.333 1789.05 200.897 Q1787.5 199.462 1783.94 198.745 L1781.09 198.189 Q1775.86 197.147 1773.52 194.925 Q1771.18 192.703 1771.18 188.745 Q1771.18 184.161 1774.4 181.522 Q1777.64 178.884 1783.31 178.884 Q1785.74 178.884 1788.26 179.323 Q1790.79 179.763 1793.43 180.643 Z" fill="#ffffff" fill-rule="nonzero" fill-opacity="1" /><path clip-path="url(#clip680)" d="M1802.62 188.143 L1806.87 188.143 L1806.87 214.069 L1802.62 214.069 L1802.62 188.143 M1802.62 178.05 L1806.87 178.05 L1806.87 183.444 L1802.62 183.444 L1802.62 178.05 Z" fill="#ffffff" fill-rule="nonzero" fill-opacity="1" /><path clip-path="url(#clip680)" d="M1835.97 193.12 Q1837.57 190.249 1839.79 188.884 Q1842.01 187.518 1845.02 187.518 Q1849.07 187.518 1851.27 190.365 Q1853.47 193.189 1853.47 198.421 L1853.47 214.069 L1849.19 214.069 L1849.19 198.559 Q1849.19 194.833 1847.87 193.027 Q1846.55 191.222 1843.84 191.222 Q1840.53 191.222 1838.61 193.421 Q1836.69 195.62 1836.69 199.416 L1836.69 214.069 L1832.41 214.069 L1832.41 198.559 Q1832.41 194.809 1831.09 193.027 Q1829.77 191.222 1827.01 191.222 Q1823.75 191.222 1821.83 193.444 Q1819.91 195.643 1819.91 199.416 L1819.91 214.069 L1815.62 214.069 L1815.62 188.143 L1819.91 188.143 L1819.91 192.171 Q1821.37 189.786 1823.4 188.652 Q1825.44 187.518 1828.24 187.518 Q1831.06 187.518 1833.03 188.953 Q1835.02 190.388 1835.97 193.12 Z" fill="#ffffff" fill-rule="nonzero" fill-opacity="1" /><path clip-path="url(#clip680)" d="M1861.53 203.837 L1861.53 188.143 L1865.79 188.143 L1865.79 203.675 Q1865.79 207.356 1867.22 209.208 Q1868.66 211.036 1871.53 211.036 Q1874.98 211.036 1876.97 208.837 Q1878.98 206.638 1878.98 202.842 L1878.98 188.143 L1883.24 188.143 L1883.24 214.069 L1878.98 214.069 L1878.98 210.087 Q1877.43 212.448 1875.37 213.606 Q1873.33 214.74 1870.62 214.74 Q1866.16 214.74 1863.84 211.962 Q1861.53 209.184 1861.53 203.837 M1872.24 187.518 L1872.24 187.518 Z" fill="#ffffff" fill-rule="nonzero" fill-opacity="1" /><path clip-path="url(#clip680)" d="M1892.01 178.05 L1896.27 178.05 L1896.27 214.069 L1892.01 214.069 L1892.01 178.05 Z" fill="#ffffff" fill-rule="nonzero" fill-opacity="1" /><path clip-path="url(#clip680)" d="M1916.97 201.036 Q1911.8 201.036 1909.81 202.217 Q1907.82 203.397 1907.82 206.245 Q1907.82 208.513 1909.3 209.856 Q1910.81 211.175 1913.38 211.175 Q1916.92 211.175 1919.05 208.675 Q1921.2 206.152 1921.2 201.985 L1921.2 201.036 L1916.97 201.036 M1925.46 199.277 L1925.46 214.069 L1921.2 214.069 L1921.2 210.133 Q1919.74 212.495 1917.57 213.629 Q1915.39 214.74 1912.24 214.74 Q1908.26 214.74 1905.9 212.518 Q1903.56 210.272 1903.56 206.522 Q1903.56 202.147 1906.48 199.925 Q1909.42 197.703 1915.23 197.703 L1921.2 197.703 L1921.2 197.286 Q1921.2 194.347 1919.26 192.749 Q1917.34 191.129 1913.84 191.129 Q1911.62 191.129 1909.51 191.661 Q1907.41 192.194 1905.46 193.259 L1905.46 189.323 Q1907.8 188.421 1910 187.981 Q1912.2 187.518 1914.28 187.518 Q1919.91 187.518 1922.68 190.434 Q1925.46 193.351 1925.46 199.277 Z" fill="#ffffff" fill-rule="nonzero" fill-opacity="1" /><path clip-path="url(#clip680)" d="M1938.45 180.782 L1938.45 188.143 L1947.22 188.143 L1947.22 191.453 L1938.45 191.453 L1938.45 205.527 Q1938.45 208.698 1939.3 209.601 Q1940.18 210.504 1942.85 210.504 L1947.22 210.504 L1947.22 214.069 L1942.85 214.069 Q1937.92 214.069 1936.04 212.24 Q1934.17 210.388 1934.17 205.527 L1934.17 191.453 L1931.04 191.453 L1931.04 188.143 L1934.17 188.143 L1934.17 180.782 L1938.45 180.782 Z" fill="#ffffff" fill-rule="nonzero" fill-opacity="1" /><path clip-path="url(#clip680)" d="M1975 200.041 L1975 202.124 L1955.42 202.124 Q1955.69 206.522 1958.05 208.837 Q1960.44 211.129 1964.67 211.129 Q1967.13 211.129 1969.42 210.527 Q1971.73 209.925 1974 208.721 L1974 212.749 Q1971.71 213.721 1969.3 214.231 Q1966.9 214.74 1964.42 214.74 Q1958.22 214.74 1954.58 211.129 Q1950.97 207.518 1950.97 201.36 Q1950.97 194.995 1954.4 191.268 Q1957.85 187.518 1963.68 187.518 Q1968.91 187.518 1971.94 190.897 Q1975 194.254 1975 200.041 M1970.74 198.791 Q1970.69 195.296 1968.77 193.212 Q1966.87 191.129 1963.73 191.129 Q1960.16 191.129 1958.01 193.143 Q1955.88 195.157 1955.55 198.814 L1970.74 198.791 Z" fill="#ffffff" fill-rule="nonzero" fill-opacity="1" /><path clip-path="url(#clip680)" d="M1999.05 192.078 L1999.05 178.05 L2003.31 178.05 L2003.31 214.069 L1999.05 214.069 L1999.05 210.18 Q1997.71 212.495 1995.65 213.629 Q1993.61 214.74 1990.74 214.74 Q1986.04 214.74 1983.08 210.99 Q1980.14 207.24 1980.14 201.129 Q1980.14 195.018 1983.08 191.268 Q1986.04 187.518 1990.74 187.518 Q1993.61 187.518 1995.65 188.652 Q1997.71 189.763 1999.05 192.078 M1984.54 201.129 Q1984.54 205.828 1986.46 208.513 Q1988.4 211.175 1991.78 211.175 Q1995.16 211.175 1997.11 208.513 Q1999.05 205.828 1999.05 201.129 Q1999.05 196.43 1997.11 193.768 Q1995.16 191.083 1991.78 191.083 Q1988.4 191.083 1986.46 193.768 Q1984.54 196.43 1984.54 201.129 Z" fill="#ffffff" fill-rule="nonzero" fill-opacity="1" /><path clip-path="url(#clip680)" d="M2037.38 178.097 Q2034.28 183.421 2032.78 188.629 Q2031.27 193.837 2031.27 199.184 Q2031.27 204.532 2032.78 209.786 Q2034.3 215.018 2037.38 220.319 L2033.68 220.319 Q2030.21 214.879 2028.47 209.624 Q2026.76 204.37 2026.76 199.184 Q2026.76 194.022 2028.47 188.791 Q2030.18 183.56 2033.68 178.097 L2037.38 178.097 Z" fill="#ffffff" fill-rule="nonzero" fill-opacity="1" /><path clip-path="url(#clip680)" d="M2045.65 188.143 L2049.91 188.143 L2049.91 214.069 L2045.65 214.069 L2045.65 188.143 M2045.65 178.05 L2049.91 178.05 L2049.91 183.444 L2045.65 183.444 L2045.65 178.05 Z" fill="#ffffff" fill-rule="nonzero" fill-opacity="1" /><path clip-path="url(#clip680)" d="M2074.44 192.541 L2104.12 192.541 L2104.12 196.43 L2074.44 196.43 L2074.44 192.541 M2074.44 201.985 L2104.12 201.985 L2104.12 205.921 L2074.44 205.921 L2074.44 201.985 Z" fill="#ffffff" fill-rule="nonzero" fill-opacity="1" /><path clip-path="url(#clip680)" d="M2128.1 179.509 L2150.32 179.509 L2150.32 181.499 L2137.78 214.069 L2132.89 214.069 L2144.7 183.444 L2128.1 183.444 L2128.1 179.509 Z" fill="#ffffff" fill-rule="nonzero" fill-opacity="1" /><path clip-path="url(#clip680)" d="M2159.49 179.509 L2177.84 179.509 L2177.84 183.444 L2163.77 183.444 L2163.77 191.916 Q2164.79 191.569 2165.81 191.407 Q2166.83 191.222 2167.85 191.222 Q2173.63 191.222 2177.01 194.393 Q2180.39 197.564 2180.39 202.981 Q2180.39 208.559 2176.92 211.661 Q2173.45 214.74 2167.13 214.74 Q2164.95 214.74 2162.68 214.37 Q2160.44 213.999 2158.03 213.258 L2158.03 208.559 Q2160.11 209.694 2162.34 210.249 Q2164.56 210.805 2167.03 210.805 Q2171.04 210.805 2173.38 208.698 Q2175.72 206.592 2175.72 202.981 Q2175.72 199.37 2173.38 197.263 Q2171.04 195.157 2167.03 195.157 Q2165.16 195.157 2163.28 195.573 Q2161.43 195.99 2159.49 196.87 L2159.49 179.509 Z" fill="#ffffff" fill-rule="nonzero" fill-opacity="1" /><path clip-path="url(#clip680)" d="M2189.65 179.509 L2208.01 179.509 L2208.01 183.444 L2193.93 183.444 L2193.93 191.916 Q2194.95 191.569 2195.97 191.407 Q2196.99 191.222 2198.01 191.222 Q2203.79 191.222 2207.17 194.393 Q2210.55 197.564 2210.55 202.981 Q2210.55 208.559 2207.08 211.661 Q2203.61 214.74 2197.29 214.74 Q2195.11 214.74 2192.84 214.37 Q2190.6 213.999 2188.19 213.258 L2188.19 208.559 Q2190.28 209.694 2192.5 210.249 Q2194.72 210.805 2197.2 210.805 Q2201.2 210.805 2203.54 208.698 Q2205.88 206.592 2205.88 202.981 Q2205.88 199.37 2203.54 197.263 Q2201.2 195.157 2197.2 195.157 Q2195.32 195.157 2193.45 195.573 Q2191.59 195.99 2189.65 196.87 L2189.65 179.509 Z" fill="#ffffff" fill-rule="nonzero" fill-opacity="1" /><path clip-path="url(#clip680)" d="M2230.34 194.925 Q2227.2 194.925 2225.34 197.078 Q2223.52 199.231 2223.52 202.981 Q2223.52 206.708 2225.34 208.883 Q2227.2 211.036 2230.34 211.036 Q2233.49 211.036 2235.32 208.883 Q2237.17 206.708 2237.17 202.981 Q2237.17 199.231 2235.32 197.078 Q2233.49 194.925 2230.34 194.925 M2239.63 180.273 L2239.63 184.532 Q2237.87 183.698 2236.06 183.259 Q2234.28 182.819 2232.52 182.819 Q2227.89 182.819 2225.44 185.944 Q2223.01 189.069 2222.66 195.388 Q2224.03 193.374 2226.09 192.309 Q2228.15 191.222 2230.62 191.222 Q2235.83 191.222 2238.84 194.393 Q2241.87 197.541 2241.87 202.981 Q2241.87 208.305 2238.72 211.522 Q2235.58 214.74 2230.34 214.74 Q2224.35 214.74 2221.18 210.157 Q2218.01 205.55 2218.01 196.823 Q2218.01 188.629 2221.9 183.768 Q2225.78 178.884 2232.34 178.884 Q2234.09 178.884 2235.88 179.231 Q2237.68 179.578 2239.63 180.273 Z" fill="#ffffff" fill-rule="nonzero" fill-opacity="1" /><path clip-path="url(#clip680)" d="M2248.65 178.097 L2252.36 178.097 Q2255.83 183.56 2257.54 188.791 Q2259.28 194.022 2259.28 199.184 Q2259.28 204.37 2257.54 209.624 Q2255.83 214.879 2252.36 220.319 L2248.65 220.319 Q2251.73 215.018 2253.24 209.786 Q2254.77 204.532 2254.77 199.184 Q2254.77 193.837 2253.24 188.629 Q2251.73 183.421 2248.65 178.097 Z" fill="#ffffff" fill-rule="nonzero" fill-opacity="1" /><polyline clip-path="url(#clip680)" style="stroke:#ffffff; stroke-linecap:round; stroke-linejoin:round; stroke-width:8; stroke-opacity:1; fill:none" stroke-dasharray="32, 20" points="1607.6,248.629 1747.81,248.629 "/>
<path clip-path="url(#clip680)" d="M1773.4 265.191 L1773.4 260.932 Q1775.16 261.765 1776.97 262.205 Q1778.77 262.645 1780.51 262.645 Q1785.14 262.645 1787.57 259.543 Q1790.02 256.418 1790.37 250.075 Q1789.03 252.066 1786.97 253.131 Q1784.91 254.196 1782.41 254.196 Q1777.22 254.196 1774.19 251.071 Q1771.18 247.923 1771.18 242.483 Q1771.18 237.159 1774.33 233.941 Q1777.48 230.724 1782.71 230.724 Q1788.7 230.724 1791.85 235.33 Q1795.02 239.913 1795.02 248.663 Q1795.02 256.835 1791.13 261.719 Q1787.27 266.58 1780.72 266.58 Q1778.96 266.58 1777.15 266.233 Q1775.35 265.885 1773.4 265.191 M1782.71 250.538 Q1785.86 250.538 1787.69 248.386 Q1789.54 246.233 1789.54 242.483 Q1789.54 238.756 1787.69 236.603 Q1785.86 234.427 1782.71 234.427 Q1779.56 234.427 1777.71 236.603 Q1775.88 238.756 1775.88 242.483 Q1775.88 246.233 1777.71 248.386 Q1779.56 250.538 1782.71 250.538 Z" fill="#ffffff" fill-rule="nonzero" fill-opacity="1" /><path clip-path="url(#clip680)" d="M1803.47 231.349 L1821.83 231.349 L1821.83 235.284 L1807.75 235.284 L1807.75 243.756 Q1808.77 243.409 1809.79 243.247 Q1810.81 243.062 1811.83 243.062 Q1817.62 243.062 1821 246.233 Q1824.37 249.404 1824.37 254.821 Q1824.37 260.399 1820.9 263.501 Q1817.43 266.58 1811.11 266.58 Q1808.93 266.58 1806.67 266.21 Q1804.42 265.839 1802.01 265.098 L1802.01 260.399 Q1804.1 261.534 1806.32 262.089 Q1808.54 262.645 1811.02 262.645 Q1815.02 262.645 1817.36 260.538 Q1819.7 258.432 1819.7 254.821 Q1819.7 251.21 1817.36 249.103 Q1815.02 246.997 1811.02 246.997 Q1809.14 246.997 1807.27 247.413 Q1805.42 247.83 1803.47 248.71 L1803.47 231.349 Z" fill="#ffffff" fill-rule="nonzero" fill-opacity="1" /><path clip-path="url(#clip680)" d="M1862.99 250.7 Q1860.97 250.7 1859.81 252.413 Q1858.68 254.126 1858.68 257.182 Q1858.68 260.191 1859.81 261.927 Q1860.97 263.64 1862.99 263.64 Q1864.95 263.64 1866.09 261.927 Q1867.24 260.191 1867.24 257.182 Q1867.24 254.149 1866.09 252.436 Q1864.95 250.7 1862.99 250.7 M1862.99 247.761 Q1866.64 247.761 1868.8 250.307 Q1870.95 252.853 1870.95 257.182 Q1870.95 261.51 1868.77 264.057 Q1866.62 266.58 1862.99 266.58 Q1859.28 266.58 1857.13 264.057 Q1854.98 261.51 1854.98 257.182 Q1854.98 252.83 1857.13 250.307 Q1859.31 247.761 1862.99 247.761 M1839.1 233.663 Q1837.11 233.663 1835.95 235.4 Q1834.81 237.112 1834.81 240.122 Q1834.81 243.177 1835.95 244.89 Q1837.08 246.603 1839.1 246.603 Q1841.11 246.603 1842.24 244.89 Q1843.4 243.177 1843.4 240.122 Q1843.4 237.136 1842.24 235.4 Q1841.09 233.663 1839.1 233.663 M1860 230.724 L1863.7 230.724 L1842.08 266.58 L1838.38 266.58 L1860 230.724 M1839.1 230.724 Q1842.75 230.724 1844.93 233.27 Q1847.11 235.793 1847.11 240.122 Q1847.11 244.497 1844.93 247.02 Q1842.78 249.543 1839.1 249.543 Q1835.42 249.543 1833.26 247.02 Q1831.13 244.474 1831.13 240.122 Q1831.13 235.816 1833.29 233.27 Q1835.44 230.724 1839.1 230.724 Z" fill="#ffffff" fill-rule="nonzero" fill-opacity="1" /><path clip-path="url(#clip680)" d="M1911.76 240.978 L1911.76 244.96 Q1909.95 243.964 1908.12 243.478 Q1906.32 242.969 1904.47 242.969 Q1900.32 242.969 1898.03 245.608 Q1895.74 248.224 1895.74 252.969 Q1895.74 257.714 1898.03 260.353 Q1900.32 262.969 1904.47 262.969 Q1906.32 262.969 1908.12 262.483 Q1909.95 261.973 1911.76 260.978 L1911.76 264.913 Q1909.98 265.747 1908.05 266.163 Q1906.16 266.58 1904 266.58 Q1898.15 266.58 1894.7 262.899 Q1891.25 259.219 1891.25 252.969 Q1891.25 246.626 1894.72 242.992 Q1898.22 239.358 1904.28 239.358 Q1906.25 239.358 1908.12 239.775 Q1910 240.168 1911.76 240.978 Z" fill="#ffffff" fill-rule="nonzero" fill-opacity="1" /><path clip-path="url(#clip680)" d="M1929.21 242.969 Q1925.79 242.969 1923.8 245.654 Q1921.8 248.316 1921.8 252.969 Q1921.8 257.622 1923.77 260.307 Q1925.76 262.969 1929.21 262.969 Q1932.61 262.969 1934.61 260.284 Q1936.6 257.598 1936.6 252.969 Q1936.6 248.362 1934.61 245.677 Q1932.61 242.969 1929.21 242.969 M1929.21 239.358 Q1934.77 239.358 1937.94 242.969 Q1941.11 246.58 1941.11 252.969 Q1941.11 259.335 1937.94 262.969 Q1934.77 266.58 1929.21 266.58 Q1923.63 266.58 1920.46 262.969 Q1917.31 259.335 1917.31 252.969 Q1917.31 246.58 1920.46 242.969 Q1923.63 239.358 1929.21 239.358 Z" fill="#ffffff" fill-rule="nonzero" fill-opacity="1" /><path clip-path="url(#clip680)" d="M1969.72 250.261 L1969.72 265.909 L1965.46 265.909 L1965.46 250.399 Q1965.46 246.719 1964.03 244.89 Q1962.59 243.062 1959.72 243.062 Q1956.27 243.062 1954.28 245.261 Q1952.29 247.46 1952.29 251.256 L1952.29 265.909 L1948.01 265.909 L1948.01 239.983 L1952.29 239.983 L1952.29 244.011 Q1953.82 241.673 1955.88 240.515 Q1957.96 239.358 1960.67 239.358 Q1965.14 239.358 1967.43 242.136 Q1969.72 244.89 1969.72 250.261 Z" fill="#ffffff" fill-rule="nonzero" fill-opacity="1" /><path clip-path="url(#clip680)" d="M1991.34 229.89 L1991.34 233.432 L1987.27 233.432 Q1984.98 233.432 1984.07 234.358 Q1983.19 235.284 1983.19 237.691 L1983.19 239.983 L1990.21 239.983 L1990.21 243.293 L1983.19 243.293 L1983.19 265.909 L1978.91 265.909 L1978.91 243.293 L1974.84 243.293 L1974.84 239.983 L1978.91 239.983 L1978.91 238.177 Q1978.91 233.849 1980.92 231.881 Q1982.94 229.89 1987.31 229.89 L1991.34 229.89 Z" fill="#ffffff" fill-rule="nonzero" fill-opacity="1" /><path clip-path="url(#clip680)" d="M1994.91 239.983 L1999.17 239.983 L1999.17 265.909 L1994.91 265.909 L1994.91 239.983 M1994.91 229.89 L1999.17 229.89 L1999.17 235.284 L1994.91 235.284 L1994.91 229.89 Z" fill="#ffffff" fill-rule="nonzero" fill-opacity="1" /><path clip-path="url(#clip680)" d="M2025.14 243.918 L2025.14 229.89 L2029.4 229.89 L2029.4 265.909 L2025.14 265.909 L2025.14 262.02 Q2023.79 264.335 2021.73 265.469 Q2019.7 266.58 2016.83 266.58 Q2012.13 266.58 2009.17 262.83 Q2006.23 259.08 2006.23 252.969 Q2006.23 246.858 2009.17 243.108 Q2012.13 239.358 2016.83 239.358 Q2019.7 239.358 2021.73 240.492 Q2023.79 241.603 2025.14 243.918 M2010.62 252.969 Q2010.62 257.668 2012.54 260.353 Q2014.49 263.015 2017.87 263.015 Q2021.25 263.015 2023.19 260.353 Q2025.14 257.668 2025.14 252.969 Q2025.14 248.27 2023.19 245.608 Q2021.25 242.923 2017.87 242.923 Q2014.49 242.923 2012.54 245.608 Q2010.62 248.27 2010.62 252.969 Z" fill="#ffffff" fill-rule="nonzero" fill-opacity="1" /><path clip-path="url(#clip680)" d="M2060.35 251.881 L2060.35 253.964 L2040.76 253.964 Q2041.04 258.362 2043.4 260.677 Q2045.79 262.969 2050.02 262.969 Q2052.48 262.969 2054.77 262.367 Q2057.08 261.765 2059.35 260.561 L2059.35 264.589 Q2057.06 265.561 2054.65 266.071 Q2052.24 266.58 2049.77 266.58 Q2043.56 266.58 2039.93 262.969 Q2036.32 259.358 2036.32 253.2 Q2036.32 246.835 2039.74 243.108 Q2043.19 239.358 2049.03 239.358 Q2054.26 239.358 2057.29 242.737 Q2060.35 246.094 2060.35 251.881 M2056.09 250.631 Q2056.04 247.136 2054.12 245.052 Q2052.22 242.969 2049.07 242.969 Q2045.51 242.969 2043.35 244.983 Q2041.23 246.997 2040.9 250.654 L2056.09 250.631 Z" fill="#ffffff" fill-rule="nonzero" fill-opacity="1" /><path clip-path="url(#clip680)" d="M2088.89 250.261 L2088.89 265.909 L2084.63 265.909 L2084.63 250.399 Q2084.63 246.719 2083.19 244.89 Q2081.76 243.062 2078.89 243.062 Q2075.44 243.062 2073.45 245.261 Q2071.46 247.46 2071.46 251.256 L2071.46 265.909 L2067.17 265.909 L2067.17 239.983 L2071.46 239.983 L2071.46 244.011 Q2072.98 241.673 2075.04 240.515 Q2077.13 239.358 2079.84 239.358 Q2084.3 239.358 2086.6 242.136 Q2088.89 244.89 2088.89 250.261 Z" fill="#ffffff" fill-rule="nonzero" fill-opacity="1" /><path clip-path="url(#clip680)" d="M2116.04 240.978 L2116.04 244.96 Q2114.23 243.964 2112.41 243.478 Q2110.6 242.969 2108.75 242.969 Q2104.6 242.969 2102.31 245.608 Q2100.02 248.224 2100.02 252.969 Q2100.02 257.714 2102.31 260.353 Q2104.6 262.969 2108.75 262.969 Q2110.6 262.969 2112.41 262.483 Q2114.23 261.973 2116.04 260.978 L2116.04 264.913 Q2114.26 265.747 2112.34 266.163 Q2110.44 266.58 2108.29 266.58 Q2102.43 266.58 2098.98 262.899 Q2095.53 259.219 2095.53 252.969 Q2095.53 246.626 2099 242.992 Q2102.5 239.358 2108.56 239.358 Q2110.53 239.358 2112.41 239.775 Q2114.28 240.168 2116.04 240.978 Z" fill="#ffffff" fill-rule="nonzero" fill-opacity="1" /><path clip-path="url(#clip680)" d="M2145.62 251.881 L2145.62 253.964 L2126.04 253.964 Q2126.32 258.362 2128.68 260.677 Q2131.06 262.969 2135.3 262.969 Q2137.75 262.969 2140.04 262.367 Q2142.36 261.765 2144.63 260.561 L2144.63 264.589 Q2142.34 265.561 2139.93 266.071 Q2137.52 266.58 2135.04 266.58 Q2128.84 266.58 2125.21 262.969 Q2121.6 259.358 2121.6 253.2 Q2121.6 246.835 2125.02 243.108 Q2128.47 239.358 2134.3 239.358 Q2139.54 239.358 2142.57 242.737 Q2145.62 246.094 2145.62 251.881 M2141.36 250.631 Q2141.32 247.136 2139.4 245.052 Q2137.5 242.969 2134.35 242.969 Q2130.79 242.969 2128.63 244.983 Q2126.5 246.997 2126.18 250.654 L2141.36 250.631 Z" fill="#ffffff" fill-rule="nonzero" fill-opacity="1" /></svg>
