<?xml version="1.0" encoding="utf-8"?>
<svg xmlns="http://www.w3.org/2000/svg" xmlns:xlink="http://www.w3.org/1999/xlink" width="600" height="400" viewBox="0 0 2400 1600">
<defs>
  <clipPath id="clip670">
    <rect x="0" y="0" width="2400" height="1600"/>
  </clipPath>
</defs>
<path clip-path="url(#clip670)" d="M0 1600 L2400 1600 L2400 8.88178e-14 L0 8.88178e-14  Z" fill="#000000" fill-rule="evenodd" fill-opacity="1"/>
<defs>
  <clipPath id="clip671">
    <rect x="480" y="0" width="1681" height="1600"/>
  </clipPath>
</defs>
<path clip-path="url(#clip670)" d="M249.542 1423.18 L2352.76 1423.18 L2352.76 47.2441 L249.542 47.2441  Z" fill="#30343b" fill-rule="evenodd" fill-opacity="1"/>
<defs>
  <clipPath id="clip672">
    <rect x="249" y="47" width="2104" height="1377"/>
  </clipPath>
</defs>
<polyline clip-path="url(#clip672)" style="stroke:#ffffff; stroke-linecap:round; stroke-linejoin:round; stroke-width:2; stroke-opacity:0.1; fill:none" points="299.341,1423.18 299.341,47.2441 "/>
<polyline clip-path="url(#clip672)" style="stroke:#ffffff; stroke-linecap:round; stroke-linejoin:round; stroke-width:2; stroke-opacity:0.1; fill:none" points="785.655,1423.18 785.655,47.2441 "/>
<polyline clip-path="url(#clip672)" style="stroke:#ffffff; stroke-linecap:round; stroke-linejoin:round; stroke-width:2; stroke-opacity:0.1; fill:none" points="1271.97,1423.18 1271.97,47.2441 "/>
<polyline clip-path="url(#clip672)" style="stroke:#ffffff; stroke-linecap:round; stroke-linejoin:round; stroke-width:2; stroke-opacity:0.1; fill:none" points="1758.28,1423.18 1758.28,47.2441 "/>
<polyline clip-path="url(#clip672)" style="stroke:#ffffff; stroke-linecap:round; stroke-linejoin:round; stroke-width:2; stroke-opacity:0.1; fill:none" points="2244.6,1423.18 2244.6,47.2441 "/>
<polyline clip-path="url(#clip672)" style="stroke:#ffffff; stroke-linecap:round; stroke-linejoin:round; stroke-width:2; stroke-opacity:0.1; fill:none" points="299.341,1423.18 299.341,47.2441 "/>
<polyline clip-path="url(#clip672)" style="stroke:#ffffff; stroke-linecap:round; stroke-linejoin:round; stroke-width:2; stroke-opacity:0.1; fill:none" points="785.655,1423.18 785.655,47.2441 "/>
<polyline clip-path="url(#clip672)" style="stroke:#ffffff; stroke-linecap:round; stroke-linejoin:round; stroke-width:2; stroke-opacity:0.1; fill:none" points="1271.97,1423.18 1271.97,47.2441 "/>
<polyline clip-path="url(#clip672)" style="stroke:#ffffff; stroke-linecap:round; stroke-linejoin:round; stroke-width:2; stroke-opacity:0.1; fill:none" points="1758.28,1423.18 1758.28,47.2441 "/>
<polyline clip-path="url(#clip672)" style="stroke:#ffffff; stroke-linecap:round; stroke-linejoin:round; stroke-width:2; stroke-opacity:0.1; fill:none" points="2244.6,1423.18 2244.6,47.2441 "/>
<polyline clip-path="url(#clip672)" style="stroke:#ffffff; stroke-linecap:round; stroke-linejoin:round; stroke-width:2; stroke-opacity:0.1; fill:none" points="249.542,1178.38 2352.76,1178.38 "/>
<polyline clip-path="url(#clip672)" style="stroke:#ffffff; stroke-linecap:round; stroke-linejoin:round; stroke-width:2; stroke-opacity:0.1; fill:none" points="249.542,905.332 2352.76,905.332 "/>
<polyline clip-path="url(#clip672)" style="stroke:#ffffff; stroke-linecap:round; stroke-linejoin:round; stroke-width:2; stroke-opacity:0.1; fill:none" points="249.542,632.283 2352.76,632.283 "/>
<polyline clip-path="url(#clip672)" style="stroke:#ffffff; stroke-linecap:round; stroke-linejoin:round; stroke-width:2; stroke-opacity:0.1; fill:none" points="249.542,359.234 2352.76,359.234 "/>
<polyline clip-path="url(#clip672)" style="stroke:#ffffff; stroke-linecap:round; stroke-linejoin:round; stroke-width:2; stroke-opacity:0.1; fill:none" points="249.542,86.1857 2352.76,86.1857 "/>
<polyline clip-path="url(#clip672)" style="stroke:#ffffff; stroke-linecap:round; stroke-linejoin:round; stroke-width:2; stroke-opacity:0.1; fill:none" points="249.542,1178.38 2352.76,1178.38 "/>
<polyline clip-path="url(#clip672)" style="stroke:#ffffff; stroke-linecap:round; stroke-linejoin:round; stroke-width:2; stroke-opacity:0.1; fill:none" points="249.542,905.332 2352.76,905.332 "/>
<polyline clip-path="url(#clip672)" style="stroke:#ffffff; stroke-linecap:round; stroke-linejoin:round; stroke-width:2; stroke-opacity:0.1; fill:none" points="249.542,632.283 2352.76,632.283 "/>
<polyline clip-path="url(#clip672)" style="stroke:#ffffff; stroke-linecap:round; stroke-linejoin:round; stroke-width:2; stroke-opacity:0.1; fill:none" points="249.542,359.234 2352.76,359.234 "/>
<polyline clip-path="url(#clip672)" style="stroke:#ffffff; stroke-linecap:round; stroke-linejoin:round; stroke-width:2; stroke-opacity:0.1; fill:none" points="249.542,86.1857 2352.76,86.1857 "/>
<polyline clip-path="url(#clip670)" style="stroke:#ffffff; stroke-linecap:round; stroke-linejoin:round; stroke-width:4; stroke-opacity:1; fill:none" points="249.542,1423.18 2352.76,1423.18 "/>
<polyline clip-path="url(#clip670)" style="stroke:#ffffff; stroke-linecap:round; stroke-linejoin:round; stroke-width:4; stroke-opacity:1; fill:none" points="249.542,47.2441 2352.76,47.2441 "/>
<polyline clip-path="url(#clip670)" style="stroke:#ffffff; stroke-linecap:round; stroke-linejoin:round; stroke-width:4; stroke-opacity:1; fill:none" points="299.341,1423.18 299.341,1404.28 "/>
<polyline clip-path="url(#clip670)" style="stroke:#ffffff; stroke-linecap:round; stroke-linejoin:round; stroke-width:4; stroke-opacity:1; fill:none" points="785.655,1423.18 785.655,1404.28 "/>
<polyline clip-path="url(#clip670)" style="stroke:#ffffff; stroke-linecap:round; stroke-linejoin:round; stroke-width:4; stroke-opacity:1; fill:none" points="1271.97,1423.18 1271.97,1404.28 "/>
<polyline clip-path="url(#clip670)" style="stroke:#ffffff; stroke-linecap:round; stroke-linejoin:round; stroke-width:4; stroke-opacity:1; fill:none" points="1758.28,1423.18 1758.28,1404.28 "/>
<polyline clip-path="url(#clip670)" style="stroke:#ffffff; stroke-linecap:round; stroke-linejoin:round; stroke-width:4; stroke-opacity:1; fill:none" points="2244.6,1423.18 2244.6,1404.28 "/>
<polyline clip-path="url(#clip670)" style="stroke:#ffffff; stroke-linecap:round; stroke-linejoin:round; stroke-width:4; stroke-opacity:1; fill:none" points="299.341,47.2441 299.341,66.1417 "/>
<polyline clip-path="url(#clip670)" style="stroke:#ffffff; stroke-linecap:round; stroke-linejoin:round; stroke-width:4; stroke-opacity:1; fill:none" points="785.655,47.2441 785.655,66.1417 "/>
<polyline clip-path="url(#clip670)" style="stroke:#ffffff; stroke-linecap:round; stroke-linejoin:round; stroke-width:4; stroke-opacity:1; fill:none" points="1271.97,47.2441 1271.97,66.1417 "/>
<polyline clip-path="url(#clip670)" style="stroke:#ffffff; stroke-linecap:round; stroke-linejoin:round; stroke-width:4; stroke-opacity:1; fill:none" points="1758.28,47.2441 1758.28,66.1417 "/>
<polyline clip-path="url(#clip670)" style="stroke:#ffffff; stroke-linecap:round; stroke-linejoin:round; stroke-width:4; stroke-opacity:1; fill:none" points="2244.6,47.2441 2244.6,66.1417 "/>
<path clip-path="url(#clip670)" d="M299.341 1454.1 Q295.73 1454.1 293.901 1457.66 Q292.095 1461.2 292.095 1468.33 Q292.095 1475.44 293.901 1479.01 Q295.73 1482.55 299.341 1482.55 Q302.975 1482.55 304.78 1479.01 Q306.609 1475.44 306.609 1468.33 Q306.609 1461.2 304.78 1457.66 Q302.975 1454.1 299.341 1454.1 M299.341 1450.39 Q305.151 1450.39 308.206 1455 Q311.285 1459.58 311.285 1468.33 Q311.285 1477.06 308.206 1481.67 Q305.151 1486.25 299.341 1486.25 Q293.531 1486.25 290.452 1481.67 Q287.396 1477.06 287.396 1468.33 Q287.396 1459.58 290.452 1455 Q293.531 1450.39 299.341 1450.39 Z" fill="#ffffff" fill-rule="nonzero" fill-opacity="1" /><path clip-path="url(#clip670)" d="M760.355 1451.02 L778.711 1451.02 L778.711 1454.96 L764.637 1454.96 L764.637 1463.43 Q765.655 1463.08 766.674 1462.92 Q767.693 1462.73 768.711 1462.73 Q774.498 1462.73 777.878 1465.9 Q781.257 1469.08 781.257 1474.49 Q781.257 1480.07 777.785 1483.17 Q774.313 1486.25 767.993 1486.25 Q765.818 1486.25 763.549 1485.88 Q761.304 1485.51 758.896 1484.77 L758.896 1480.07 Q760.98 1481.2 763.202 1481.76 Q765.424 1482.32 767.901 1482.32 Q771.905 1482.32 774.243 1480.21 Q776.581 1478.1 776.581 1474.49 Q776.581 1470.88 774.243 1468.77 Q771.905 1466.67 767.901 1466.67 Q766.026 1466.67 764.151 1467.08 Q762.299 1467.5 760.355 1468.38 L760.355 1451.02 Z" fill="#ffffff" fill-rule="nonzero" fill-opacity="1" /><path clip-path="url(#clip670)" d="M800.47 1454.1 Q796.859 1454.1 795.03 1457.66 Q793.225 1461.2 793.225 1468.33 Q793.225 1475.44 795.03 1479.01 Q796.859 1482.55 800.47 1482.55 Q804.104 1482.55 805.91 1479.01 Q807.739 1475.44 807.739 1468.33 Q807.739 1461.2 805.91 1457.66 Q804.104 1454.1 800.47 1454.1 M800.47 1450.39 Q806.28 1450.39 809.336 1455 Q812.414 1459.58 812.414 1468.33 Q812.414 1477.06 809.336 1481.67 Q806.28 1486.25 800.47 1486.25 Q794.66 1486.25 791.581 1481.67 Q788.526 1477.06 788.526 1468.33 Q788.526 1459.58 791.581 1455 Q794.66 1450.39 800.47 1450.39 Z" fill="#ffffff" fill-rule="nonzero" fill-opacity="1" /><path clip-path="url(#clip670)" d="M1231.58 1481.64 L1239.22 1481.64 L1239.22 1455.28 L1230.91 1456.95 L1230.91 1452.69 L1239.17 1451.02 L1243.85 1451.02 L1243.85 1481.64 L1251.48 1481.64 L1251.48 1485.58 L1231.58 1485.58 L1231.58 1481.64 Z" fill="#ffffff" fill-rule="nonzero" fill-opacity="1" /><path clip-path="url(#clip670)" d="M1270.93 1454.1 Q1267.32 1454.1 1265.49 1457.66 Q1263.68 1461.2 1263.68 1468.33 Q1263.68 1475.44 1265.49 1479.01 Q1267.32 1482.55 1270.93 1482.55 Q1274.56 1482.55 1276.37 1479.01 Q1278.2 1475.44 1278.2 1468.33 Q1278.2 1461.2 1276.37 1457.66 Q1274.56 1454.1 1270.93 1454.1 M1270.93 1450.39 Q1276.74 1450.39 1279.79 1455 Q1282.87 1459.58 1282.87 1468.33 Q1282.87 1477.06 1279.79 1481.67 Q1276.74 1486.25 1270.93 1486.25 Q1265.12 1486.25 1262.04 1481.67 Q1258.98 1477.06 1258.98 1468.33 Q1258.98 1459.58 1262.04 1455 Q1265.12 1450.39 1270.93 1450.39 Z" fill="#ffffff" fill-rule="nonzero" fill-opacity="1" /><path clip-path="url(#clip670)" d="M1301.09 1454.1 Q1297.48 1454.1 1295.65 1457.66 Q1293.84 1461.2 1293.84 1468.33 Q1293.84 1475.44 1295.65 1479.01 Q1297.48 1482.55 1301.09 1482.55 Q1304.72 1482.55 1306.53 1479.01 Q1308.36 1475.44 1308.36 1468.33 Q1308.36 1461.2 1306.53 1457.66 Q1304.72 1454.1 1301.09 1454.1 M1301.09 1450.39 Q1306.9 1450.39 1309.96 1455 Q1313.03 1459.58 1313.03 1468.33 Q1313.03 1477.06 1309.96 1481.67 Q1306.9 1486.25 1301.09 1486.25 Q1295.28 1486.25 1292.2 1481.67 Q1289.15 1477.06 1289.15 1468.33 Q1289.15 1459.58 1292.2 1455 Q1295.28 1450.39 1301.09 1450.39 Z" fill="#ffffff" fill-rule="nonzero" fill-opacity="1" /><path clip-path="url(#clip670)" d="M1717.89 1481.64 L1725.53 1481.64 L1725.53 1455.28 L1717.22 1456.95 L1717.22 1452.69 L1725.48 1451.02 L1730.16 1451.02 L1730.16 1481.64 L1737.8 1481.64 L1737.8 1485.58 L1717.89 1485.58 L1717.89 1481.64 Z" fill="#ffffff" fill-rule="nonzero" fill-opacity="1" /><path clip-path="url(#clip670)" d="M1747.29 1451.02 L1765.65 1451.02 L1765.65 1454.96 L1751.57 1454.96 L1751.57 1463.43 Q1752.59 1463.08 1753.61 1462.92 Q1754.63 1462.73 1755.65 1462.73 Q1761.43 1462.73 1764.81 1465.9 Q1768.19 1469.08 1768.19 1474.49 Q1768.19 1480.07 1764.72 1483.17 Q1761.25 1486.25 1754.93 1486.25 Q1752.75 1486.25 1750.48 1485.88 Q1748.24 1485.51 1745.83 1484.77 L1745.83 1480.07 Q1747.91 1481.2 1750.14 1481.76 Q1752.36 1482.32 1754.84 1482.32 Q1758.84 1482.32 1761.18 1480.21 Q1763.52 1478.1 1763.52 1474.49 Q1763.52 1470.88 1761.18 1468.77 Q1758.84 1466.67 1754.84 1466.67 Q1752.96 1466.67 1751.09 1467.08 Q1749.23 1467.5 1747.29 1468.38 L1747.29 1451.02 Z" fill="#ffffff" fill-rule="nonzero" fill-opacity="1" /><path clip-path="url(#clip670)" d="M1787.41 1454.1 Q1783.79 1454.1 1781.97 1457.66 Q1780.16 1461.2 1780.16 1468.33 Q1780.16 1475.44 1781.97 1479.01 Q1783.79 1482.55 1787.41 1482.55 Q1791.04 1482.55 1792.84 1479.01 Q1794.67 1475.44 1794.67 1468.33 Q1794.67 1461.2 1792.84 1457.66 Q1791.04 1454.1 1787.41 1454.1 M1787.41 1450.39 Q1793.22 1450.39 1796.27 1455 Q1799.35 1459.58 1799.35 1468.33 Q1799.35 1477.06 1796.27 1481.67 Q1793.22 1486.25 1787.41 1486.25 Q1781.59 1486.25 1778.52 1481.67 Q1775.46 1477.06 1775.46 1468.33 Q1775.46 1459.58 1778.52 1455 Q1781.59 1450.39 1787.41 1450.39 Z" fill="#ffffff" fill-rule="nonzero" fill-opacity="1" /><path clip-path="url(#clip670)" d="M2208.29 1481.64 L2224.61 1481.64 L2224.61 1485.58 L2202.67 1485.58 L2202.67 1481.64 Q2205.33 1478.89 2209.91 1474.26 Q2214.52 1469.61 2215.7 1468.27 Q2217.94 1465.74 2218.82 1464.01 Q2219.73 1462.25 2219.73 1460.56 Q2219.73 1457.8 2217.78 1456.07 Q2215.86 1454.33 2212.76 1454.33 Q2210.56 1454.33 2208.11 1455.09 Q2205.68 1455.86 2202.9 1457.41 L2202.9 1452.69 Q2205.72 1451.55 2208.18 1450.97 Q2210.63 1450.39 2212.67 1450.39 Q2218.04 1450.39 2221.23 1453.08 Q2224.43 1455.77 2224.43 1460.26 Q2224.43 1462.39 2223.62 1464.31 Q2222.83 1466.2 2220.72 1468.8 Q2220.14 1469.47 2217.04 1472.69 Q2213.94 1475.88 2208.29 1481.64 Z" fill="#ffffff" fill-rule="nonzero" fill-opacity="1" /><path clip-path="url(#clip670)" d="M2244.43 1454.1 Q2240.81 1454.1 2238.99 1457.66 Q2237.18 1461.2 2237.18 1468.33 Q2237.18 1475.44 2238.99 1479.01 Q2240.81 1482.55 2244.43 1482.55 Q2248.06 1482.55 2249.87 1479.01 Q2251.69 1475.44 2251.69 1468.33 Q2251.69 1461.2 2249.87 1457.66 Q2248.06 1454.1 2244.43 1454.1 M2244.43 1450.39 Q2250.24 1450.39 2253.29 1455 Q2256.37 1459.58 2256.37 1468.33 Q2256.37 1477.06 2253.29 1481.67 Q2250.24 1486.25 2244.43 1486.25 Q2238.62 1486.25 2235.54 1481.67 Q2232.48 1477.06 2232.48 1468.33 Q2232.48 1459.58 2235.54 1455 Q2238.62 1450.39 2244.43 1450.39 Z" fill="#ffffff" fill-rule="nonzero" fill-opacity="1" /><path clip-path="url(#clip670)" d="M2274.59 1454.1 Q2270.98 1454.1 2269.15 1457.66 Q2267.34 1461.2 2267.34 1468.33 Q2267.34 1475.44 2269.15 1479.01 Q2270.98 1482.55 2274.59 1482.55 Q2278.22 1482.55 2280.03 1479.01 Q2281.86 1475.44 2281.86 1468.33 Q2281.86 1461.2 2280.03 1457.66 Q2278.22 1454.1 2274.59 1454.1 M2274.59 1450.39 Q2280.4 1450.39 2283.45 1455 Q2286.53 1459.58 2286.53 1468.33 Q2286.53 1477.06 2283.45 1481.67 Q2280.4 1486.25 2274.59 1486.25 Q2268.78 1486.25 2265.7 1481.67 Q2262.64 1477.06 2262.64 1468.33 Q2262.64 1459.58 2265.7 1455 Q2268.78 1450.39 2274.59 1450.39 Z" fill="#ffffff" fill-rule="nonzero" fill-opacity="1" /><path clip-path="url(#clip670)" d="M1024.99 1520.52 L1031.42 1520.52 L1031.42 1562.63 L1054.56 1562.63 L1054.56 1568.04 L1024.99 1568.04 L1024.99 1520.52 Z" fill="#ffffff" fill-rule="nonzero" fill-opacity="1" /><path clip-path="url(#clip670)" d="M1077.25 1550.12 Q1070.15 1550.12 1067.42 1551.75 Q1064.68 1553.37 1064.68 1557.29 Q1064.68 1560.4 1066.72 1562.25 Q1068.78 1564.07 1072.32 1564.07 Q1077.19 1564.07 1080.12 1560.63 Q1083.08 1557.16 1083.08 1551.43 L1083.08 1550.12 L1077.25 1550.12 M1088.93 1547.71 L1088.93 1568.04 L1083.08 1568.04 L1083.08 1562.63 Q1081.07 1565.88 1078.08 1567.44 Q1075.09 1568.97 1070.76 1568.97 Q1065.28 1568.97 1062.04 1565.91 Q1058.82 1562.82 1058.82 1557.67 Q1058.82 1551.65 1062.83 1548.6 Q1066.88 1545.54 1074.86 1545.54 L1083.08 1545.54 L1083.08 1544.97 Q1083.08 1540.93 1080.4 1538.73 Q1077.76 1536.5 1072.95 1536.5 Q1069.9 1536.5 1067 1537.23 Q1064.11 1537.97 1061.43 1539.43 L1061.43 1534.02 Q1064.65 1532.78 1067.67 1532.17 Q1070.69 1531.54 1073.56 1531.54 Q1081.29 1531.54 1085.11 1535.55 Q1088.93 1539.56 1088.93 1547.71 Z" fill="#ffffff" fill-rule="nonzero" fill-opacity="1" /><path clip-path="url(#clip670)" d="M1124.45 1549.81 Q1124.45 1543.44 1121.81 1539.94 Q1119.2 1536.44 1114.46 1536.44 Q1109.75 1536.44 1107.11 1539.94 Q1104.5 1543.44 1104.5 1549.81 Q1104.5 1556.14 1107.11 1559.64 Q1109.75 1563.14 1114.46 1563.14 Q1119.2 1563.14 1121.81 1559.64 Q1124.45 1556.14 1124.45 1549.81 M1130.31 1563.62 Q1130.31 1572.72 1126.27 1577.15 Q1122.22 1581.6 1113.89 1581.6 Q1110.8 1581.6 1108.06 1581.13 Q1105.32 1580.68 1102.75 1579.72 L1102.75 1574.03 Q1105.32 1575.43 1107.84 1576.1 Q1110.35 1576.76 1112.96 1576.76 Q1118.72 1576.76 1121.59 1573.74 Q1124.45 1570.75 1124.45 1564.67 L1124.45 1561.77 Q1122.64 1564.92 1119.81 1566.48 Q1116.97 1568.04 1113.03 1568.04 Q1106.47 1568.04 1102.46 1563.05 Q1098.45 1558.05 1098.45 1549.81 Q1098.45 1541.53 1102.46 1536.53 Q1106.47 1531.54 1113.03 1531.54 Q1116.97 1531.54 1119.81 1533.1 Q1122.64 1534.66 1124.45 1537.81 L1124.45 1532.4 L1130.31 1532.4 L1130.31 1563.62 Z" fill="#ffffff" fill-rule="nonzero" fill-opacity="1" /><path clip-path="url(#clip670)" d="M1177.16 1518.58 Q1172.9 1525.9 1170.83 1533.06 Q1168.76 1540.23 1168.76 1547.58 Q1168.76 1554.93 1170.83 1562.16 Q1172.93 1569.35 1177.16 1576.64 L1172.07 1576.64 Q1167.29 1569.16 1164.91 1561.93 Q1162.55 1554.71 1162.55 1547.58 Q1162.55 1540.48 1164.91 1533.29 Q1167.26 1526.09 1172.07 1518.58 L1177.16 1518.58 Z" fill="#ffffff" fill-rule="nonzero" fill-opacity="1" /><path clip-path="url(#clip670)" d="M1194.32 1522.27 L1194.32 1532.4 L1206.38 1532.4 L1206.38 1536.95 L1194.32 1536.95 L1194.32 1556.3 Q1194.32 1560.66 1195.49 1561.9 Q1196.7 1563.14 1200.36 1563.14 L1206.38 1563.14 L1206.38 1568.04 L1200.36 1568.04 Q1193.58 1568.04 1191.01 1565.53 Q1188.43 1562.98 1188.43 1556.3 L1188.43 1536.95 L1184.13 1536.95 L1184.13 1532.4 L1188.43 1532.4 L1188.43 1522.27 L1194.32 1522.27 Z" fill="#ffffff" fill-rule="nonzero" fill-opacity="1" /><path clip-path="url(#clip670)" d="M1234.74 1537.87 Q1233.75 1537.3 1232.57 1537.04 Q1231.43 1536.76 1230.03 1536.76 Q1225.06 1536.76 1222.39 1540 Q1219.75 1543.22 1219.75 1549.27 L1219.75 1568.04 L1213.86 1568.04 L1213.86 1532.4 L1219.75 1532.4 L1219.75 1537.93 Q1221.59 1534.69 1224.55 1533.13 Q1227.51 1531.54 1231.75 1531.54 Q1232.35 1531.54 1233.08 1531.63 Q1233.82 1531.7 1234.71 1531.85 L1234.74 1537.87 Z" fill="#ffffff" fill-rule="nonzero" fill-opacity="1" /><path clip-path="url(#clip670)" d="M1257.08 1550.12 Q1249.98 1550.12 1247.25 1551.75 Q1244.51 1553.37 1244.51 1557.29 Q1244.51 1560.4 1246.55 1562.25 Q1248.62 1564.07 1252.15 1564.07 Q1257.02 1564.07 1259.95 1560.63 Q1262.91 1557.16 1262.91 1551.43 L1262.91 1550.12 L1257.08 1550.12 M1268.76 1547.71 L1268.76 1568.04 L1262.91 1568.04 L1262.91 1562.63 Q1260.9 1565.88 1257.91 1567.44 Q1254.92 1568.97 1250.59 1568.97 Q1245.11 1568.97 1241.87 1565.91 Q1238.65 1562.82 1238.65 1557.67 Q1238.65 1551.65 1242.66 1548.6 Q1246.71 1545.54 1254.7 1545.54 L1262.91 1545.54 L1262.91 1544.97 Q1262.91 1540.93 1260.23 1538.73 Q1257.59 1536.5 1252.79 1536.5 Q1249.73 1536.5 1246.83 1537.23 Q1243.94 1537.97 1241.26 1539.43 L1241.26 1534.02 Q1244.48 1532.78 1247.5 1532.17 Q1250.53 1531.54 1253.39 1531.54 Q1261.12 1531.54 1264.94 1535.55 Q1268.76 1539.56 1268.76 1547.71 Z" fill="#ffffff" fill-rule="nonzero" fill-opacity="1" /><path clip-path="url(#clip670)" d="M1304.28 1537.81 L1304.28 1518.52 L1310.14 1518.52 L1310.14 1568.04 L1304.28 1568.04 L1304.28 1562.7 Q1302.44 1565.88 1299.61 1567.44 Q1296.8 1568.97 1292.86 1568.97 Q1286.4 1568.97 1282.32 1563.81 Q1278.28 1558.65 1278.28 1550.25 Q1278.28 1541.85 1282.32 1536.69 Q1286.4 1531.54 1292.86 1531.54 Q1296.8 1531.54 1299.61 1533.1 Q1302.44 1534.62 1304.28 1537.81 M1284.33 1550.25 Q1284.33 1556.71 1286.97 1560.4 Q1289.64 1564.07 1294.29 1564.07 Q1298.94 1564.07 1301.61 1560.4 Q1304.28 1556.71 1304.28 1550.25 Q1304.28 1543.79 1301.61 1540.13 Q1298.94 1536.44 1294.29 1536.44 Q1289.64 1536.44 1286.97 1540.13 Q1284.33 1543.79 1284.33 1550.25 Z" fill="#ffffff" fill-rule="nonzero" fill-opacity="1" /><path clip-path="url(#clip670)" d="M1322.2 1532.4 L1328.06 1532.4 L1328.06 1568.04 L1322.2 1568.04 L1322.2 1532.4 M1322.2 1518.52 L1328.06 1518.52 L1328.06 1525.93 L1322.2 1525.93 L1322.2 1518.52 Z" fill="#ffffff" fill-rule="nonzero" fill-opacity="1" /><path clip-path="url(#clip670)" d="M1369.95 1546.53 L1369.95 1568.04 L1364.09 1568.04 L1364.09 1546.72 Q1364.09 1541.66 1362.12 1539.14 Q1360.14 1536.63 1356.2 1536.63 Q1351.45 1536.63 1348.72 1539.65 Q1345.98 1542.68 1345.98 1547.9 L1345.98 1568.04 L1340.09 1568.04 L1340.09 1532.4 L1345.98 1532.4 L1345.98 1537.93 Q1348.08 1534.72 1350.91 1533.13 Q1353.78 1531.54 1357.5 1531.54 Q1363.64 1531.54 1366.8 1535.36 Q1369.95 1539.14 1369.95 1546.53 Z" fill="#ffffff" fill-rule="nonzero" fill-opacity="1" /><path clip-path="url(#clip670)" d="M1405.09 1549.81 Q1405.09 1543.44 1402.44 1539.94 Q1399.83 1536.44 1395.09 1536.44 Q1390.38 1536.44 1387.74 1539.94 Q1385.13 1543.44 1385.13 1549.81 Q1385.13 1556.14 1387.74 1559.64 Q1390.38 1563.14 1395.09 1563.14 Q1399.83 1563.14 1402.44 1559.64 Q1405.09 1556.14 1405.09 1549.81 M1410.94 1563.62 Q1410.94 1572.72 1406.9 1577.15 Q1402.86 1581.6 1394.52 1581.6 Q1391.43 1581.6 1388.69 1581.13 Q1385.96 1580.68 1383.38 1579.72 L1383.38 1574.03 Q1385.96 1575.43 1388.47 1576.1 Q1390.99 1576.76 1393.59 1576.76 Q1399.36 1576.76 1402.22 1573.74 Q1405.09 1570.75 1405.09 1564.67 L1405.09 1561.77 Q1403.27 1564.92 1400.44 1566.48 Q1397.61 1568.04 1393.66 1568.04 Q1387.1 1568.04 1383.09 1563.05 Q1379.08 1558.05 1379.08 1549.81 Q1379.08 1541.53 1383.09 1536.53 Q1387.1 1531.54 1393.66 1531.54 Q1397.61 1531.54 1400.44 1533.1 Q1403.27 1534.66 1405.09 1537.81 L1405.09 1532.4 L1410.94 1532.4 L1410.94 1563.62 Z" fill="#ffffff" fill-rule="nonzero" fill-opacity="1" /><path clip-path="url(#clip670)" d="M1467.18 1537.81 L1467.18 1518.52 L1473.04 1518.52 L1473.04 1568.04 L1467.18 1568.04 L1467.18 1562.7 Q1465.34 1565.88 1462.5 1567.44 Q1459.7 1568.97 1455.76 1568.97 Q1449.29 1568.97 1445.22 1563.81 Q1441.18 1558.65 1441.18 1550.25 Q1441.18 1541.85 1445.22 1536.69 Q1449.29 1531.54 1455.76 1531.54 Q1459.7 1531.54 1462.5 1533.1 Q1465.34 1534.62 1467.18 1537.81 M1447.23 1550.25 Q1447.23 1556.71 1449.87 1560.4 Q1452.54 1564.07 1457.19 1564.07 Q1461.84 1564.07 1464.51 1560.4 Q1467.18 1556.71 1467.18 1550.25 Q1467.18 1543.79 1464.51 1540.13 Q1461.84 1536.44 1457.19 1536.44 Q1452.54 1536.44 1449.87 1540.13 Q1447.23 1543.79 1447.23 1550.25 Z" fill="#ffffff" fill-rule="nonzero" fill-opacity="1" /><path clip-path="url(#clip670)" d="M1501.3 1550.12 Q1494.2 1550.12 1491.47 1551.75 Q1488.73 1553.37 1488.73 1557.29 Q1488.73 1560.4 1490.77 1562.25 Q1492.84 1564.07 1496.37 1564.07 Q1501.24 1564.07 1504.17 1560.63 Q1507.13 1557.16 1507.13 1551.43 L1507.13 1550.12 L1501.3 1550.12 M1512.98 1547.71 L1512.98 1568.04 L1507.13 1568.04 L1507.13 1562.63 Q1505.12 1565.88 1502.13 1567.44 Q1499.14 1568.97 1494.81 1568.97 Q1489.34 1568.97 1486.09 1565.91 Q1482.87 1562.82 1482.87 1557.67 Q1482.87 1551.65 1486.88 1548.6 Q1490.93 1545.54 1498.92 1545.54 L1507.13 1545.54 L1507.13 1544.97 Q1507.13 1540.93 1504.45 1538.73 Q1501.81 1536.5 1497.01 1536.5 Q1493.95 1536.5 1491.05 1537.23 Q1488.16 1537.97 1485.48 1539.43 L1485.48 1534.02 Q1488.7 1532.78 1491.72 1532.17 Q1494.75 1531.54 1497.61 1531.54 Q1505.34 1531.54 1509.16 1535.55 Q1512.98 1539.56 1512.98 1547.71 Z" fill="#ffffff" fill-rule="nonzero" fill-opacity="1" /><path clip-path="url(#clip670)" d="M1539.88 1571.35 Q1537.4 1577.72 1535.04 1579.66 Q1532.69 1581.6 1528.74 1581.6 L1524.06 1581.6 L1524.06 1576.7 L1527.5 1576.7 Q1529.92 1576.7 1531.25 1575.56 Q1532.59 1574.41 1534.21 1570.14 L1535.26 1567.47 L1520.85 1532.4 L1527.05 1532.4 L1538.19 1560.28 L1549.33 1532.4 L1555.54 1532.4 L1539.88 1571.35 Z" fill="#ffffff" fill-rule="nonzero" fill-opacity="1" /><path clip-path="url(#clip670)" d="M1562.7 1518.58 L1567.79 1518.58 Q1572.57 1526.09 1574.92 1533.29 Q1577.31 1540.48 1577.31 1547.58 Q1577.31 1554.71 1574.92 1561.93 Q1572.57 1569.16 1567.79 1576.64 L1562.7 1576.64 Q1566.93 1569.35 1569 1562.16 Q1571.1 1554.93 1571.1 1547.58 Q1571.1 1540.23 1569 1533.06 Q1566.93 1525.9 1562.7 1518.58 Z" fill="#ffffff" fill-rule="nonzero" fill-opacity="1" /><polyline clip-path="url(#clip670)" style="stroke:#ffffff; stroke-linecap:round; stroke-linejoin:round; stroke-width:4; stroke-opacity:1; fill:none" points="249.542,1423.18 249.542,47.2441 "/>
<polyline clip-path="url(#clip670)" style="stroke:#ffffff; stroke-linecap:round; stroke-linejoin:round; stroke-width:4; stroke-opacity:1; fill:none" points="2352.76,1423.18 2352.76,47.2441 "/>
<polyline clip-path="url(#clip670)" style="stroke:#ffffff; stroke-linecap:round; stroke-linejoin:round; stroke-width:4; stroke-opacity:1; fill:none" points="249.542,1178.38 268.44,1178.38 "/>
<polyline clip-path="url(#clip670)" style="stroke:#ffffff; stroke-linecap:round; stroke-linejoin:round; stroke-width:4; stroke-opacity:1; fill:none" points="249.542,905.332 268.44,905.332 "/>
<polyline clip-path="url(#clip670)" style="stroke:#ffffff; stroke-linecap:round; stroke-linejoin:round; stroke-width:4; stroke-opacity:1; fill:none" points="249.542,632.283 268.44,632.283 "/>
<polyline clip-path="url(#clip670)" style="stroke:#ffffff; stroke-linecap:round; stroke-linejoin:round; stroke-width:4; stroke-opacity:1; fill:none" points="249.542,359.234 268.44,359.234 "/>
<polyline clip-path="url(#clip670)" style="stroke:#ffffff; stroke-linecap:round; stroke-linejoin:round; stroke-width:4; stroke-opacity:1; fill:none" points="249.542,86.1857 268.44,86.1857 "/>
<polyline clip-path="url(#clip670)" style="stroke:#ffffff; stroke-linecap:round; stroke-linejoin:round; stroke-width:4; stroke-opacity:1; fill:none" points="2352.76,1178.38 2333.86,1178.38 "/>
<polyline clip-path="url(#clip670)" style="stroke:#ffffff; stroke-linecap:round; stroke-linejoin:round; stroke-width:4; stroke-opacity:1; fill:none" points="2352.76,905.332 2333.86,905.332 "/>
<polyline clip-path="url(#clip670)" style="stroke:#ffffff; stroke-linecap:round; stroke-linejoin:round; stroke-width:4; stroke-opacity:1; fill:none" points="2352.76,632.283 2333.86,632.283 "/>
<polyline clip-path="url(#clip670)" style="stroke:#ffffff; stroke-linecap:round; stroke-linejoin:round; stroke-width:4; stroke-opacity:1; fill:none" points="2352.76,359.234 2333.86,359.234 "/>
<polyline clip-path="url(#clip670)" style="stroke:#ffffff; stroke-linecap:round; stroke-linejoin:round; stroke-width:4; stroke-opacity:1; fill:none" points="2352.76,86.1857 2333.86,86.1857 "/>
<path clip-path="url(#clip670)" d="M126.205 1164.18 Q122.593 1164.18 120.765 1167.74 Q118.959 1171.29 118.959 1178.42 Q118.959 1185.52 120.765 1189.09 Q122.593 1192.63 126.205 1192.63 Q129.839 1192.63 131.644 1189.09 Q133.473 1185.52 133.473 1178.42 Q133.473 1171.29 131.644 1167.74 Q129.839 1164.18 126.205 1164.18 M126.205 1160.48 Q132.015 1160.48 135.07 1165.08 Q138.149 1169.67 138.149 1178.42 Q138.149 1187.14 135.07 1191.75 Q132.015 1196.33 126.205 1196.33 Q120.394 1196.33 117.316 1191.75 Q114.26 1187.14 114.26 1178.42 Q114.26 1169.67 117.316 1165.08 Q120.394 1160.48 126.205 1160.48 Z" fill="#ffffff" fill-rule="nonzero" fill-opacity="1" /><path clip-path="url(#clip670)" d="M146.366 1189.78 L151.251 1189.78 L151.251 1195.66 L146.366 1195.66 L146.366 1189.78 Z" fill="#ffffff" fill-rule="nonzero" fill-opacity="1" /><path clip-path="url(#clip670)" d="M171.436 1164.18 Q167.825 1164.18 165.996 1167.74 Q164.19 1171.29 164.19 1178.42 Q164.19 1185.52 165.996 1189.09 Q167.825 1192.63 171.436 1192.63 Q175.07 1192.63 176.876 1189.09 Q178.704 1185.52 178.704 1178.42 Q178.704 1171.29 176.876 1167.74 Q175.07 1164.18 171.436 1164.18 M171.436 1160.48 Q177.246 1160.48 180.301 1165.08 Q183.38 1169.67 183.38 1178.42 Q183.38 1187.14 180.301 1191.75 Q177.246 1196.33 171.436 1196.33 Q165.626 1196.33 162.547 1191.75 Q159.491 1187.14 159.491 1178.42 Q159.491 1169.67 162.547 1165.08 Q165.626 1160.48 171.436 1160.48 Z" fill="#ffffff" fill-rule="nonzero" fill-opacity="1" /><path clip-path="url(#clip670)" d="M201.598 1164.18 Q197.987 1164.18 196.158 1167.74 Q194.352 1171.29 194.352 1178.42 Q194.352 1185.52 196.158 1189.09 Q197.987 1192.63 201.598 1192.63 Q205.232 1192.63 207.037 1189.09 Q208.866 1185.52 208.866 1178.42 Q208.866 1171.29 207.037 1167.74 Q205.232 1164.18 201.598 1164.18 M201.598 1160.48 Q207.408 1160.48 210.463 1165.08 Q213.542 1169.67 213.542 1178.42 Q213.542 1187.14 210.463 1191.75 Q207.408 1196.33 201.598 1196.33 Q195.787 1196.33 192.709 1191.75 Q189.653 1187.14 189.653 1178.42 Q189.653 1169.67 192.709 1165.08 Q195.787 1160.48 201.598 1160.48 Z" fill="#ffffff" fill-rule="nonzero" fill-opacity="1" /><path clip-path="url(#clip670)" d="M127.2 891.131 Q123.589 891.131 121.76 894.695 Q119.955 898.237 119.955 905.367 Q119.955 912.473 121.76 916.038 Q123.589 919.579 127.2 919.579 Q130.834 919.579 132.64 916.038 Q134.468 912.473 134.468 905.367 Q134.468 898.237 132.64 894.695 Q130.834 891.131 127.2 891.131 M127.2 887.427 Q133.01 887.427 136.066 892.033 Q139.144 896.617 139.144 905.367 Q139.144 914.093 136.066 918.7 Q133.01 923.283 127.2 923.283 Q121.39 923.283 118.311 918.7 Q115.256 914.093 115.256 905.367 Q115.256 896.617 118.311 892.033 Q121.39 887.427 127.2 887.427 Z" fill="#ffffff" fill-rule="nonzero" fill-opacity="1" /><path clip-path="url(#clip670)" d="M147.362 916.732 L152.246 916.732 L152.246 922.612 L147.362 922.612 L147.362 916.732 Z" fill="#ffffff" fill-rule="nonzero" fill-opacity="1" /><path clip-path="url(#clip670)" d="M166.459 918.677 L182.778 918.677 L182.778 922.612 L160.834 922.612 L160.834 918.677 Q163.496 915.922 168.079 911.292 Q172.686 906.64 173.866 905.297 Q176.112 902.774 176.991 901.038 Q177.894 899.279 177.894 897.589 Q177.894 894.834 175.95 893.098 Q174.028 891.362 170.927 891.362 Q168.727 891.362 166.274 892.126 Q163.843 892.89 161.065 894.441 L161.065 889.719 Q163.89 888.584 166.343 888.006 Q168.797 887.427 170.834 887.427 Q176.204 887.427 179.399 890.112 Q182.593 892.797 182.593 897.288 Q182.593 899.418 181.783 901.339 Q180.996 903.237 178.889 905.83 Q178.311 906.501 175.209 909.718 Q172.107 912.913 166.459 918.677 Z" fill="#ffffff" fill-rule="nonzero" fill-opacity="1" /><path clip-path="url(#clip670)" d="M192.639 888.052 L210.996 888.052 L210.996 891.987 L196.922 891.987 L196.922 900.459 Q197.94 900.112 198.959 899.95 Q199.977 899.765 200.996 899.765 Q206.783 899.765 210.162 902.936 Q213.542 906.107 213.542 911.524 Q213.542 917.103 210.07 920.204 Q206.598 923.283 200.278 923.283 Q198.102 923.283 195.834 922.913 Q193.588 922.542 191.181 921.802 L191.181 917.103 Q193.264 918.237 195.487 918.792 Q197.709 919.348 200.186 919.348 Q204.19 919.348 206.528 917.242 Q208.866 915.135 208.866 911.524 Q208.866 907.913 206.528 905.806 Q204.19 903.7 200.186 903.7 Q198.311 903.7 196.436 904.117 Q194.584 904.533 192.639 905.413 L192.639 888.052 Z" fill="#ffffff" fill-rule="nonzero" fill-opacity="1" /><path clip-path="url(#clip670)" d="M126.205 618.082 Q122.593 618.082 120.765 621.647 Q118.959 625.188 118.959 632.318 Q118.959 639.424 120.765 642.989 Q122.593 646.531 126.205 646.531 Q129.839 646.531 131.644 642.989 Q133.473 639.424 133.473 632.318 Q133.473 625.188 131.644 621.647 Q129.839 618.082 126.205 618.082 M126.205 614.378 Q132.015 614.378 135.07 618.985 Q138.149 623.568 138.149 632.318 Q138.149 641.045 135.07 645.651 Q132.015 650.234 126.205 650.234 Q120.394 650.234 117.316 645.651 Q114.26 641.045 114.26 632.318 Q114.26 623.568 117.316 618.985 Q120.394 614.378 126.205 614.378 Z" fill="#ffffff" fill-rule="nonzero" fill-opacity="1" /><path clip-path="url(#clip670)" d="M146.366 643.684 L151.251 643.684 L151.251 649.563 L146.366 649.563 L146.366 643.684 Z" fill="#ffffff" fill-rule="nonzero" fill-opacity="1" /><path clip-path="url(#clip670)" d="M161.482 615.003 L179.839 615.003 L179.839 618.938 L165.765 618.938 L165.765 627.41 Q166.783 627.063 167.802 626.901 Q168.82 626.716 169.839 626.716 Q175.626 626.716 179.005 629.887 Q182.385 633.059 182.385 638.475 Q182.385 644.054 178.913 647.156 Q175.44 650.234 169.121 650.234 Q166.945 650.234 164.677 649.864 Q162.431 649.494 160.024 648.753 L160.024 644.054 Q162.107 645.188 164.329 645.744 Q166.552 646.299 169.028 646.299 Q173.033 646.299 175.371 644.193 Q177.709 642.086 177.709 638.475 Q177.709 634.864 175.371 632.758 Q173.033 630.651 169.028 630.651 Q167.153 630.651 165.278 631.068 Q163.427 631.485 161.482 632.364 L161.482 615.003 Z" fill="#ffffff" fill-rule="nonzero" fill-opacity="1" /><path clip-path="url(#clip670)" d="M201.598 618.082 Q197.987 618.082 196.158 621.647 Q194.352 625.188 194.352 632.318 Q194.352 639.424 196.158 642.989 Q197.987 646.531 201.598 646.531 Q205.232 646.531 207.037 642.989 Q208.866 639.424 208.866 632.318 Q208.866 625.188 207.037 621.647 Q205.232 618.082 201.598 618.082 M201.598 614.378 Q207.408 614.378 210.463 618.985 Q213.542 623.568 213.542 632.318 Q213.542 641.045 210.463 645.651 Q207.408 650.234 201.598 650.234 Q195.787 650.234 192.709 645.651 Q189.653 641.045 189.653 632.318 Q189.653 623.568 192.709 618.985 Q195.787 614.378 201.598 614.378 Z" fill="#ffffff" fill-rule="nonzero" fill-opacity="1" /><path clip-path="url(#clip670)" d="M127.2 345.033 Q123.589 345.033 121.76 348.598 Q119.955 352.14 119.955 359.269 Q119.955 366.376 121.76 369.94 Q123.589 373.482 127.2 373.482 Q130.834 373.482 132.64 369.94 Q134.468 366.376 134.468 359.269 Q134.468 352.14 132.64 348.598 Q130.834 345.033 127.2 345.033 M127.2 341.329 Q133.01 341.329 136.066 345.936 Q139.144 350.519 139.144 359.269 Q139.144 367.996 136.066 372.602 Q133.01 377.186 127.2 377.186 Q121.39 377.186 118.311 372.602 Q115.256 367.996 115.256 359.269 Q115.256 350.519 118.311 345.936 Q121.39 341.329 127.2 341.329 Z" fill="#ffffff" fill-rule="nonzero" fill-opacity="1" /><path clip-path="url(#clip670)" d="M147.362 370.635 L152.246 370.635 L152.246 376.514 L147.362 376.514 L147.362 370.635 Z" fill="#ffffff" fill-rule="nonzero" fill-opacity="1" /><path clip-path="url(#clip670)" d="M161.251 341.954 L183.473 341.954 L183.473 343.945 L170.927 376.514 L166.042 376.514 L177.848 345.89 L161.251 345.89 L161.251 341.954 Z" fill="#ffffff" fill-rule="nonzero" fill-opacity="1" /><path clip-path="url(#clip670)" d="M192.639 341.954 L210.996 341.954 L210.996 345.89 L196.922 345.89 L196.922 354.362 Q197.94 354.015 198.959 353.852 Q199.977 353.667 200.996 353.667 Q206.783 353.667 210.162 356.839 Q213.542 360.01 213.542 365.426 Q213.542 371.005 210.07 374.107 Q206.598 377.186 200.278 377.186 Q198.102 377.186 195.834 376.815 Q193.588 376.445 191.181 375.704 L191.181 371.005 Q193.264 372.139 195.487 372.695 Q197.709 373.251 200.186 373.251 Q204.19 373.251 206.528 371.144 Q208.866 369.038 208.866 365.426 Q208.866 361.815 206.528 359.709 Q204.19 357.602 200.186 357.602 Q198.311 357.602 196.436 358.019 Q194.584 358.436 192.639 359.315 L192.639 341.954 Z" fill="#ffffff" fill-rule="nonzero" fill-opacity="1" /><path clip-path="url(#clip670)" d="M117.015 99.5305 L124.654 99.5305 L124.654 73.1649 L116.343 74.8316 L116.343 70.5723 L124.607 68.9057 L129.283 68.9057 L129.283 99.5305 L136.922 99.5305 L136.922 103.466 L117.015 103.466 L117.015 99.5305 Z" fill="#ffffff" fill-rule="nonzero" fill-opacity="1" /><path clip-path="url(#clip670)" d="M146.366 97.5861 L151.251 97.5861 L151.251 103.466 L146.366 103.466 L146.366 97.5861 Z" fill="#ffffff" fill-rule="nonzero" fill-opacity="1" /><path clip-path="url(#clip670)" d="M171.436 71.9844 Q167.825 71.9844 165.996 75.5492 Q164.19 79.0908 164.19 86.2204 Q164.19 93.3268 165.996 96.8916 Q167.825 100.433 171.436 100.433 Q175.07 100.433 176.876 96.8916 Q178.704 93.3268 178.704 86.2204 Q178.704 79.0908 176.876 75.5492 Q175.07 71.9844 171.436 71.9844 M171.436 68.2807 Q177.246 68.2807 180.301 72.8871 Q183.38 77.4704 183.38 86.2204 Q183.38 94.9472 180.301 99.5537 Q177.246 104.137 171.436 104.137 Q165.626 104.137 162.547 99.5537 Q159.491 94.9472 159.491 86.2204 Q159.491 77.4704 162.547 72.8871 Q165.626 68.2807 171.436 68.2807 Z" fill="#ffffff" fill-rule="nonzero" fill-opacity="1" /><path clip-path="url(#clip670)" d="M201.598 71.9844 Q197.987 71.9844 196.158 75.5492 Q194.352 79.0908 194.352 86.2204 Q194.352 93.3268 196.158 96.8916 Q197.987 100.433 201.598 100.433 Q205.232 100.433 207.037 96.8916 Q208.866 93.3268 208.866 86.2204 Q208.866 79.0908 207.037 75.5492 Q205.232 71.9844 201.598 71.9844 M201.598 68.2807 Q207.408 68.2807 210.463 72.8871 Q213.542 77.4704 213.542 86.2204 Q213.542 94.9472 210.463 99.5537 Q207.408 104.137 201.598 104.137 Q195.787 104.137 192.709 99.5537 Q189.653 94.9472 189.653 86.2204 Q189.653 77.4704 192.709 72.8871 Q195.787 68.2807 201.598 68.2807 Z" fill="#ffffff" fill-rule="nonzero" fill-opacity="1" /><path clip-path="url(#clip670)" d="M18.0438 1259.43 L24.314 1259.43 Q22.5634 1263.09 21.704 1266.33 Q20.8447 1269.58 20.8447 1272.6 Q20.8447 1277.86 22.8817 1280.72 Q24.9187 1283.55 28.6745 1283.55 Q31.8255 1283.55 33.4488 1281.68 Q35.0402 1279.77 36.0269 1274.48 L36.8226 1270.6 Q38.1912 1263.41 41.6605 1260 Q45.098 1256.56 50.8908 1256.56 Q57.7976 1256.56 61.3624 1261.21 Q64.9272 1265.83 64.9272 1274.77 Q64.9272 1278.14 64.1633 1281.96 Q63.3994 1285.75 61.9035 1289.82 L55.2831 1289.82 Q57.4793 1285.91 58.5933 1282.15 Q59.7073 1278.4 59.7073 1274.77 Q59.7073 1269.26 57.543 1266.27 Q55.3786 1263.28 51.3682 1263.28 Q47.8671 1263.28 45.8937 1265.44 Q43.9204 1267.58 42.9337 1272.48 L42.1698 1276.39 Q40.7375 1283.59 37.682 1286.8 Q34.6264 1290.02 29.1837 1290.02 Q22.8817 1290.02 19.2532 1285.59 Q15.6248 1281.13 15.6248 1273.34 Q15.6248 1269.99 16.2295 1266.53 Q16.8343 1263.06 18.0438 1259.43 Z" fill="#ffffff" fill-rule="nonzero" fill-opacity="1" /><path clip-path="url(#clip670)" d="M21.7677 1240.11 L39.6235 1240.11 L39.6235 1232.02 Q39.6235 1227.54 37.3 1225.08 Q34.9765 1222.63 30.6797 1222.63 Q26.4147 1222.63 24.0912 1225.08 Q21.7677 1227.54 21.7677 1232.02 L21.7677 1240.11 M16.4842 1246.54 L16.4842 1232.02 Q16.4842 1224.03 20.1126 1219.96 Q23.7092 1215.85 30.6797 1215.85 Q37.7138 1215.85 41.3104 1219.96 Q44.907 1224.03 44.907 1232.02 L44.907 1240.11 L64.0042 1240.11 L64.0042 1246.54 L16.4842 1246.54 Z" fill="#ffffff" fill-rule="nonzero" fill-opacity="1" /><path clip-path="url(#clip670)" d="M16.4842 1215.19 L16.4842 1208.28 L36.0269 1195.1 L16.4842 1182.02 L16.4842 1175.11 L41.3741 1191.92 L64.0042 1191.92 L64.0042 1198.38 L41.3741 1198.38 L16.4842 1215.19 Z" fill="#ffffff" fill-rule="nonzero" fill-opacity="1" /><path clip-path="url(#clip670)" d="M46.0847 1132.18 Q46.0847 1139.28 47.7079 1142.01 Q49.3312 1144.75 53.2461 1144.75 Q56.3653 1144.75 58.2114 1142.71 Q60.0256 1140.64 60.0256 1137.11 Q60.0256 1132.24 56.5881 1129.31 Q53.1188 1126.35 47.3897 1126.35 L46.0847 1126.35 L46.0847 1132.18 M43.6657 1120.5 L64.0042 1120.5 L64.0042 1126.35 L58.5933 1126.35 Q61.8398 1128.36 63.3994 1131.35 Q64.9272 1134.34 64.9272 1138.67 Q64.9272 1144.14 61.8716 1147.39 Q58.7843 1150.61 53.6281 1150.61 Q47.6125 1150.61 44.5569 1146.6 Q41.5014 1142.55 41.5014 1134.56 L41.5014 1126.35 L40.9285 1126.35 Q36.8862 1126.35 34.6901 1129.03 Q32.4621 1131.67 32.4621 1136.47 Q32.4621 1139.53 33.1941 1142.43 Q33.9262 1145.32 35.3903 1148 L29.9795 1148 Q28.7381 1144.78 28.1334 1141.76 Q27.4968 1138.73 27.4968 1135.87 Q27.4968 1128.14 31.5072 1124.32 Q35.5176 1120.5 43.6657 1120.5 Z" fill="#ffffff" fill-rule="nonzero" fill-opacity="1" /><path clip-path="url(#clip670)" d="M49.9359 1109.04 L28.3562 1109.04 L28.3562 1103.18 L49.7131 1103.18 Q54.7739 1103.18 57.3202 1101.21 Q59.8346 1099.23 59.8346 1095.29 Q59.8346 1090.55 56.8109 1087.81 Q53.7872 1085.04 48.5673 1085.04 L28.3562 1085.04 L28.3562 1079.18 L64.0042 1079.18 L64.0042 1085.04 L58.5296 1085.04 Q61.7762 1087.17 63.3676 1090 Q64.9272 1092.81 64.9272 1096.53 Q64.9272 1102.67 61.1078 1105.86 Q57.2883 1109.04 49.9359 1109.04 M27.4968 1094.3 L27.4968 1094.3 Z" fill="#ffffff" fill-rule="nonzero" fill-opacity="1" /><path clip-path="url(#clip670)" d="M18.2347 1061.33 L28.3562 1061.33 L28.3562 1049.26 L32.9077 1049.26 L32.9077 1061.33 L52.2594 1061.33 Q56.6199 1061.33 57.8613 1060.15 Q59.1026 1058.94 59.1026 1055.28 L59.1026 1049.26 L64.0042 1049.26 L64.0042 1055.28 Q64.0042 1062.06 61.4897 1064.64 Q58.9434 1067.22 52.2594 1067.22 L32.9077 1067.22 L32.9077 1071.51 L28.3562 1071.51 L28.3562 1067.22 L18.2347 1067.22 L18.2347 1061.33 Z" fill="#ffffff" fill-rule="nonzero" fill-opacity="1" /><path clip-path="url(#clip670)" d="M32.4621 1027.75 Q32.4621 1032.46 36.1542 1035.2 Q39.8145 1037.93 46.212 1037.93 Q52.6095 1037.93 56.3017 1035.23 Q59.9619 1032.49 59.9619 1027.75 Q59.9619 1023.07 56.2698 1020.33 Q52.5777 1017.59 46.212 1017.59 Q39.8781 1017.59 36.186 1020.33 Q32.4621 1023.07 32.4621 1027.75 M27.4968 1027.75 Q27.4968 1020.11 32.4621 1015.75 Q37.4273 1011.39 46.212 1011.39 Q54.9649 1011.39 59.9619 1015.75 Q64.9272 1020.11 64.9272 1027.75 Q64.9272 1035.42 59.9619 1039.78 Q54.9649 1044.11 46.212 1044.11 Q37.4273 1044.11 32.4621 1039.78 Q27.4968 1035.42 27.4968 1027.75 Z" fill="#ffffff" fill-rule="nonzero" fill-opacity="1" /><path clip-path="url(#clip670)" d="M29.7248 976.027 L35.1993 976.027 Q33.8307 978.509 33.1623 981.024 Q32.4621 983.506 32.4621 986.053 Q32.4621 991.75 36.0905 994.901 Q39.6872 998.052 46.212 998.052 Q52.7369 998.052 56.3653 994.901 Q59.9619 991.75 59.9619 986.053 Q59.9619 983.506 59.2935 981.024 Q58.5933 978.509 57.2247 976.027 L62.6355 976.027 Q63.7814 978.477 64.3543 981.119 Q64.9272 983.729 64.9272 986.689 Q64.9272 994.742 59.8664 999.484 Q54.8057 1004.23 46.212 1004.23 Q37.491 1004.23 32.4939 999.452 Q27.4968 994.646 27.4968 986.307 Q27.4968 983.602 28.0697 981.024 Q28.6108 978.446 29.7248 976.027 Z" fill="#ffffff" fill-rule="nonzero" fill-opacity="1" /><path clip-path="url(#clip670)" d="M32.4621 952.028 Q32.4621 956.739 36.1542 959.476 Q39.8145 962.213 46.212 962.213 Q52.6095 962.213 56.3017 959.508 Q59.9619 956.77 59.9619 952.028 Q59.9619 947.349 56.2698 944.612 Q52.5777 941.875 46.212 941.875 Q39.8781 941.875 36.186 944.612 Q32.4621 947.349 32.4621 952.028 M27.4968 952.028 Q27.4968 944.389 32.4621 940.029 Q37.4273 935.668 46.212 935.668 Q54.9649 935.668 59.9619 940.029 Q64.9272 944.389 64.9272 952.028 Q64.9272 959.699 59.9619 964.059 Q54.9649 968.388 46.212 968.388 Q37.4273 968.388 32.4621 964.059 Q27.4968 959.699 27.4968 952.028 Z" fill="#ffffff" fill-rule="nonzero" fill-opacity="1" /><path clip-path="url(#clip670)" d="M33.8307 905.304 Q33.2578 906.29 33.0032 907.468 Q32.7167 908.614 32.7167 910.014 Q32.7167 914.98 35.9632 917.653 Q39.1779 920.295 45.2253 920.295 L64.0042 920.295 L64.0042 926.183 L28.3562 926.183 L28.3562 920.295 L33.8944 920.295 Q30.6479 918.449 29.0883 915.489 Q27.4968 912.529 27.4968 908.296 Q27.4968 907.691 27.5923 906.959 Q27.656 906.227 27.8151 905.335 L33.8307 905.304 Z" fill="#ffffff" fill-rule="nonzero" fill-opacity="1" /><path clip-path="url(#clip670)" d="M33.8307 879.65 Q33.2578 880.637 33.0032 881.814 Q32.7167 882.96 32.7167 884.36 Q32.7167 889.326 35.9632 891.999 Q39.1779 894.641 45.2253 894.641 L64.0042 894.641 L64.0042 900.529 L28.3562 900.529 L28.3562 894.641 L33.8944 894.641 Q30.6479 892.795 29.0883 889.835 Q27.4968 886.875 27.4968 882.642 Q27.4968 882.037 27.5923 881.305 Q27.656 880.573 27.8151 879.682 L33.8307 879.65 Z" fill="#ffffff" fill-rule="nonzero" fill-opacity="1" /><path clip-path="url(#clip670)" d="M44.7161 844.447 L47.5806 844.447 L47.5806 871.374 Q53.6281 870.992 56.8109 867.746 Q59.9619 864.468 59.9619 858.643 Q59.9619 855.269 59.1344 852.118 Q58.3069 848.935 56.6518 845.816 L62.1899 845.816 Q63.5267 848.967 64.227 852.277 Q64.9272 855.587 64.9272 858.993 Q64.9272 867.523 59.9619 872.52 Q54.9967 877.486 46.5303 877.486 Q37.7774 877.486 32.6531 872.775 Q27.4968 868.032 27.4968 860.012 Q27.4968 852.818 32.1438 848.649 Q36.7589 844.447 44.7161 844.447 M42.9973 850.304 Q38.1912 850.368 35.3266 853.009 Q32.4621 855.619 32.4621 859.948 Q32.4621 864.85 35.2312 867.81 Q38.0002 870.738 43.0292 871.183 L42.9973 850.304 Z" fill="#ffffff" fill-rule="nonzero" fill-opacity="1" /><path clip-path="url(#clip670)" d="M14.479 834.835 L14.479 828.979 L64.0042 828.979 L64.0042 834.835 L14.479 834.835 Z" fill="#ffffff" fill-rule="nonzero" fill-opacity="1" /><path clip-path="url(#clip670)" d="M46.0847 800.524 Q46.0847 807.622 47.7079 810.359 Q49.3312 813.096 53.2461 813.096 Q56.3653 813.096 58.2114 811.059 Q60.0256 808.991 60.0256 805.458 Q60.0256 800.588 56.5881 797.66 Q53.1188 794.699 47.3897 794.699 L46.0847 794.699 L46.0847 800.524 M43.6657 788.843 L64.0042 788.843 L64.0042 794.699 L58.5933 794.699 Q61.8398 796.705 63.3994 799.697 Q64.9272 802.688 64.9272 807.017 Q64.9272 812.492 61.8716 815.738 Q58.7843 818.953 53.6281 818.953 Q47.6125 818.953 44.5569 814.942 Q41.5014 810.9 41.5014 802.911 L41.5014 794.699 L40.9285 794.699 Q36.8862 794.699 34.6901 797.373 Q32.4621 800.015 32.4621 804.821 Q32.4621 807.877 33.1941 810.773 Q33.9262 813.669 35.3903 816.343 L29.9795 816.343 Q28.7381 813.128 28.1334 810.105 Q27.4968 807.081 27.4968 804.216 Q27.4968 796.482 31.5072 792.662 Q35.5176 788.843 43.6657 788.843 Z" fill="#ffffff" fill-rule="nonzero" fill-opacity="1" /><path clip-path="url(#clip670)" d="M18.2347 770.987 L28.3562 770.987 L28.3562 758.924 L32.9077 758.924 L32.9077 770.987 L52.2594 770.987 Q56.6199 770.987 57.8613 769.81 Q59.1026 768.6 59.1026 764.94 L59.1026 758.924 L64.0042 758.924 L64.0042 764.94 Q64.0042 771.719 61.4897 774.297 Q58.9434 776.876 52.2594 776.876 L32.9077 776.876 L32.9077 781.172 L28.3562 781.172 L28.3562 776.876 L18.2347 776.876 L18.2347 770.987 Z" fill="#ffffff" fill-rule="nonzero" fill-opacity="1" /><path clip-path="url(#clip670)" d="M28.3562 751.222 L28.3562 745.365 L64.0042 745.365 L64.0042 751.222 L28.3562 751.222 M14.479 751.222 L14.479 745.365 L21.895 745.365 L21.895 751.222 L14.479 751.222 Z" fill="#ffffff" fill-rule="nonzero" fill-opacity="1" /><path clip-path="url(#clip670)" d="M32.4621 719.298 Q32.4621 724.008 36.1542 726.746 Q39.8145 729.483 46.212 729.483 Q52.6095 729.483 56.3017 726.777 Q59.9619 724.04 59.9619 719.298 Q59.9619 714.619 56.2698 711.882 Q52.5777 709.144 46.212 709.144 Q39.8781 709.144 36.186 711.882 Q32.4621 714.619 32.4621 719.298 M27.4968 719.298 Q27.4968 711.659 32.4621 707.298 Q37.4273 702.938 46.212 702.938 Q54.9649 702.938 59.9619 707.298 Q64.9272 711.659 64.9272 719.298 Q64.9272 726.968 59.9619 731.329 Q54.9649 735.658 46.212 735.658 Q37.4273 735.658 32.4621 731.329 Q27.4968 726.968 27.4968 719.298 Z" fill="#ffffff" fill-rule="nonzero" fill-opacity="1" /><path clip-path="url(#clip670)" d="M42.4881 663.598 L64.0042 663.598 L64.0042 669.454 L42.679 669.454 Q37.6183 669.454 35.1038 671.428 Q32.5894 673.401 32.5894 677.348 Q32.5894 682.09 35.6131 684.827 Q38.6368 687.565 43.8567 687.565 L64.0042 687.565 L64.0042 693.453 L28.3562 693.453 L28.3562 687.565 L33.8944 687.565 Q30.6797 685.464 29.0883 682.631 Q27.4968 679.767 27.4968 676.043 Q27.4968 669.9 31.3163 666.749 Q35.1038 663.598 42.4881 663.598 Z" fill="#ffffff" fill-rule="nonzero" fill-opacity="1" /><path clip-path="url(#clip670)" d="M14.1925 623.653 L79.3773 623.653 L79.3773 629.064 L14.1925 629.064 L14.1925 623.653 Z" fill="#ffffff" fill-rule="nonzero" fill-opacity="1" /><path clip-path="url(#clip670)" d="M45.7664 585.777 Q39.4007 585.777 35.8996 588.419 Q32.3984 591.029 32.3984 595.771 Q32.3984 600.482 35.8996 603.124 Q39.4007 605.733 45.7664 605.733 Q52.1003 605.733 55.6014 603.124 Q59.1026 600.482 59.1026 595.771 Q59.1026 591.029 55.6014 588.419 Q52.1003 585.777 45.7664 585.777 M59.58 579.921 Q68.683 579.921 73.1071 583.963 Q77.5631 588.005 77.5631 596.344 Q77.5631 599.431 77.0857 602.169 Q76.6401 604.906 75.6852 607.484 L69.9879 607.484 Q71.3884 604.906 72.0568 602.391 Q72.7252 599.877 72.7252 597.267 Q72.7252 591.506 69.7015 588.642 Q66.7096 585.777 60.6303 585.777 L57.7339 585.777 Q60.885 587.591 62.4446 590.424 Q64.0042 593.257 64.0042 597.203 Q64.0042 603.76 59.0071 607.771 Q54.01 611.781 45.7664 611.781 Q37.491 611.781 32.4939 607.771 Q27.4968 603.76 27.4968 597.203 Q27.4968 593.257 29.0564 590.424 Q30.616 587.591 33.7671 585.777 L28.3562 585.777 L28.3562 579.921 L59.58 579.921 Z" fill="#ffffff" fill-rule="nonzero" fill-opacity="1" /><path clip-path="url(#clip670)" d="M33.8307 547.201 Q33.2578 548.188 33.0032 549.365 Q32.7167 550.511 32.7167 551.911 Q32.7167 556.877 35.9632 559.55 Q39.1779 562.192 45.2253 562.192 L64.0042 562.192 L64.0042 568.08 L28.3562 568.08 L28.3562 562.192 L33.8944 562.192 Q30.6479 560.346 29.0883 557.386 Q27.4968 554.426 27.4968 550.193 Q27.4968 549.588 27.5923 548.856 Q27.656 548.124 27.8151 547.233 L33.8307 547.201 Z" fill="#ffffff" fill-rule="nonzero" fill-opacity="1" /><path clip-path="url(#clip670)" d="M32.4621 528.677 Q32.4621 533.387 36.1542 536.124 Q39.8145 538.862 46.212 538.862 Q52.6095 538.862 56.3017 536.156 Q59.9619 533.419 59.9619 528.677 Q59.9619 523.998 56.2698 521.261 Q52.5777 518.523 46.212 518.523 Q39.8781 518.523 36.186 521.261 Q32.4621 523.998 32.4621 528.677 M27.4968 528.677 Q27.4968 521.038 32.4621 516.677 Q37.4273 512.317 46.212 512.317 Q54.9649 512.317 59.9619 516.677 Q64.9272 521.038 64.9272 528.677 Q64.9272 536.347 59.9619 540.708 Q54.9649 545.036 46.212 545.036 Q37.4273 545.036 32.4621 540.708 Q27.4968 536.347 27.4968 528.677 Z" fill="#ffffff" fill-rule="nonzero" fill-opacity="1" /><path clip-path="url(#clip670)" d="M28.3562 506.015 L28.3562 500.158 L56.1743 492.838 L28.3562 485.549 L28.3562 478.642 L56.1743 471.322 L28.3562 464.033 L28.3562 458.176 L64.0042 467.502 L64.0042 474.409 L34.7856 482.08 L64.0042 489.782 L64.0042 496.689 L28.3562 506.015 Z" fill="#ffffff" fill-rule="nonzero" fill-opacity="1" /><path clip-path="url(#clip670)" d="M18.2347 443.503 L28.3562 443.503 L28.3562 431.44 L32.9077 431.44 L32.9077 443.503 L52.2594 443.503 Q56.6199 443.503 57.8613 442.326 Q59.1026 441.116 59.1026 437.456 L59.1026 431.44 L64.0042 431.44 L64.0042 437.456 Q64.0042 444.236 61.4897 446.814 Q58.9434 449.392 52.2594 449.392 L32.9077 449.392 L32.9077 453.689 L28.3562 453.689 L28.3562 449.392 L18.2347 449.392 L18.2347 443.503 Z" fill="#ffffff" fill-rule="nonzero" fill-opacity="1" /><path clip-path="url(#clip670)" d="M42.4881 394.106 L64.0042 394.106 L64.0042 399.962 L42.679 399.962 Q37.6183 399.962 35.1038 401.935 Q32.5894 403.909 32.5894 407.856 Q32.5894 412.598 35.6131 415.335 Q38.6368 418.072 43.8567 418.072 L64.0042 418.072 L64.0042 423.961 L14.479 423.961 L14.479 418.072 L33.8944 418.072 Q30.6797 415.972 29.0883 413.139 Q27.4968 410.274 27.4968 406.551 Q27.4968 400.408 31.3163 397.257 Q35.1038 394.106 42.4881 394.106 Z" fill="#ffffff" fill-rule="nonzero" fill-opacity="1" /><path clip-path="url(#clip670)" d="M14.1925 374.881 L79.3773 374.881 L79.3773 380.292 L14.1925 380.292 L14.1925 374.881 Z" fill="#ffffff" fill-rule="nonzero" fill-opacity="1" /><path clip-path="url(#clip670)" d="M39.7508 359.158 L50.3497 359.158 L50.3497 362.882 L22.7862 362.882 L22.7862 359.158 L25.8099 359.158 Q24.0275 358.012 23.1681 356.23 Q22.3088 354.447 22.3088 351.996 Q22.3088 347.891 25.1733 345.344 Q28.0697 342.798 32.7804 342.798 Q37.491 342.798 40.3874 345.344 Q43.252 347.891 43.252 351.996 Q43.252 354.447 42.3926 356.23 Q41.5332 358.012 39.7508 359.158 M38.4458 348.272 Q36.4088 346.617 32.7804 346.617 Q29.1519 346.617 27.1149 348.272 Q25.046 349.959 25.046 352.888 Q25.046 355.816 27.1149 357.503 Q29.1519 359.158 32.7804 359.158 Q36.4088 359.158 38.4458 357.503 Q40.5147 355.816 40.5147 352.888 Q40.5147 349.959 38.4458 348.272 Z" fill="#ffffff" fill-rule="nonzero" fill-opacity="1" /><path clip-path="url(#clip670)" d="M14.5426 297.761 Q21.8632 302.026 29.0246 304.094 Q36.186 306.163 43.5384 306.163 Q50.8908 306.163 58.1159 304.094 Q65.3091 301.994 72.5979 297.761 L72.5979 302.853 Q65.1182 307.627 57.8931 310.015 Q50.668 312.37 43.5384 312.37 Q36.4406 312.37 29.2474 310.015 Q22.0542 307.659 14.5426 302.853 L14.5426 297.761 Z" fill="#ffffff" fill-rule="nonzero" fill-opacity="1" /><path clip-path="url(#clip670)" d="M22.818 270.261 L46.4666 278.982 L46.4666 261.508 L22.818 270.261 M16.4842 273.889 L16.4842 266.6 L64.0042 248.49 L64.0042 255.174 L51.8138 259.503 L51.8138 280.923 L64.0042 285.252 L64.0042 292.031 L16.4842 273.889 Z" fill="#ffffff" fill-rule="nonzero" fill-opacity="1" /><path clip-path="url(#clip670)" d="M16.4842 242.283 L16.4842 235.822 L45.3526 235.822 Q52.9915 235.822 56.3653 233.053 Q59.7073 230.284 59.7073 224.078 Q59.7073 217.903 56.3653 215.134 Q52.9915 212.365 45.3526 212.365 L16.4842 212.365 L16.4842 205.903 L46.1484 205.903 Q55.4423 205.903 60.1847 210.519 Q64.9272 215.102 64.9272 224.078 Q64.9272 233.085 60.1847 237.7 Q55.4423 242.283 46.1484 242.283 L16.4842 242.283 Z" fill="#ffffff" fill-rule="nonzero" fill-opacity="1" /><path clip-path="url(#clip670)" d="M14.5426 195.018 L14.5426 189.926 Q22.0542 185.151 29.2474 182.796 Q36.4406 180.409 43.5384 180.409 Q50.668 180.409 57.8931 182.796 Q65.1182 185.151 72.5979 189.926 L72.5979 195.018 Q65.3091 190.785 58.1159 188.716 Q50.8908 186.615 43.5384 186.615 Q36.186 186.615 29.0246 188.716 Q21.8632 190.785 14.5426 195.018 Z" fill="#ffffff" fill-rule="nonzero" fill-opacity="1" /><polyline clip-path="url(#clip672)" style="stroke:#ff7d00; stroke-linecap:round; stroke-linejoin:round; stroke-width:4; stroke-opacity:1; fill:none" points="309.067,86.1857 318.793,86.1857 318.793,1021.85 328.52,1021.85 328.52,1021.51 338.246,1021.51 338.246,1088.04 347.972,1088.04 347.972,1099.96 357.698,1099.96 357.698,1109.15 367.425,1109.15 367.425,1117.31 377.151,1117.31 377.151,988.865 386.877,988.865 386.877,997.742 396.604,997.742 396.604,1094.09 406.33,1094.09 406.33,1059.68 416.056,1059.68 416.056,1198.54 425.782,1198.54 425.782,1210.7 435.509,1210.7 435.509,1128.01 445.235,1128.01 445.235,1175.24 454.961,1175.24 454.961,1253.22 464.688,1253.22 464.688,1198.49 474.414,1198.49 474.414,1242.56 484.14,1242.56 484.14,1238.19 493.867,1238.19 493.867,1196.16 503.593,1196.16 503.593,1137.51 513.319,1137.51 513.319,1160.19 523.045,1160.19 523.045,1144.36 532.772,1144.36 532.772,1110.29 542.498,1110.29 542.498,1272.59 552.224,1272.59 552.224,1185.62 561.951,1185.62 561.951,1278.19 571.677,1278.19 571.677,1263.25 581.403,1263.25 581.403,1209.55 591.129,1209.55 591.129,1231.86 600.856,1231.86 600.856,1290.44 610.582,1290.44 610.582,1268.2 620.308,1268.2 620.308,1215.86 630.035,1215.86 630.035,1138.9 639.761,1138.9 639.761,1355.64 649.487,1355.64 649.487,1134.19 659.214,1134.19 659.214,1272.96 668.94,1272.96 668.94,1314.85 678.666,1314.85 678.666,1346.59 688.392,1346.59 688.392,1297.07 698.119,1297.07 698.119,1173.85 707.845,1173.85 707.845,1245.39 717.571,1245.39 717.571,1183.96 727.298,1183.96 727.298,1301.55 737.024,1301.55 737.024,1236.73 746.75,1236.73 746.75,1235.71 756.476,1235.71 756.476,1288.82 766.203,1288.82 766.203,1328.23 775.929,1328.23 775.929,1283.74 785.655,1283.74 785.655,1304.62 795.382,1304.62 795.382,1161.65 805.108,1161.65 805.108,1280.5 814.834,1280.5 814.834,1278.94 824.561,1278.94 824.561,1247.55 834.287,1247.55 834.287,1283.3 844.013,1283.3 844.013,1180.48 853.739,1180.48 853.739,1226.74 863.466,1226.74 863.466,1246.92 873.192,1246.92 873.192,1185.46 882.918,1185.46 882.918,1265.24 892.645,1265.24 892.645,1092.5 902.371,1092.5 902.371,1196.58 912.097,1196.58 912.097,1161.8 921.823,1161.8 921.823,1093.49 931.55,1093.49 931.55,1098.85 941.276,1098.85 941.276,1148.65 951.002,1148.65 951.002,1202.05 960.729,1202.05 960.729,1129.59 970.455,1129.59 970.455,1066.61 980.181,1066.61 980.181,1160.62 989.908,1160.62 989.908,1152.07 999.634,1152.07 999.634,1160.63 1009.36,1160.63 1009.36,1120.12 1019.09,1120.12 1019.09,1111.02 1028.81,1111.02 1028.81,1187.56 1038.54,1187.56 1038.54,1176.05 1048.27,1176.05 1048.27,1105.34 1057.99,1105.34 1057.99,1142.52 1067.72,1142.52 1067.72,1165.44 1077.44,1165.44 1077.44,1195.05 1087.17,1195.05 1087.17,1221.95 1096.9,1221.95 1096.9,1171.62 1106.62,1171.62 1106.62,1188.83 1116.35,1188.83 1116.35,1137.1 1126.08,1137.1 1126.08,1264.09 1135.8,1264.09 1135.8,1110.46 1145.53,1110.46 1145.53,1132.37 1155.25,1132.37 1155.25,1209.55 1164.98,1209.55 1164.98,1236.97 1174.71,1236.97 1174.71,1181.45 1184.43,1181.45 1184.43,1163.4 1194.16,1163.4 1194.16,1222.62 1203.89,1222.62 1203.89,1123.87 1213.61,1123.87 1213.61,1131.52 1223.34,1131.52 1223.34,1172.65 1233.06,1172.65 1233.06,1113.83 1242.79,1113.83 1242.79,1150.34 1252.52,1150.34 1252.52,1124.2 1262.24,1124.2 1262.24,1211.95 1271.97,1211.95 1271.97,1186.39 1281.7,1186.39 1281.7,1101.32 1291.42,1101.32 1291.42,1143.84 1301.15,1143.84 1301.15,1208.05 1310.88,1208.05 1310.88,1129.03 1320.6,1129.03 1320.6,1148.88 1330.33,1148.88 1330.33,1080.96 1340.05,1080.96 1340.05,1173.01 1349.78,1173.01 1349.78,1181.01 1359.51,1181.01 1359.51,1215.23 1369.23,1215.23 1369.23,1245.86 1378.96,1245.86 1378.96,1244.04 1388.69,1244.04 1388.69,1104.1 1398.41,1104.1 1398.41,1151.48 1408.14,1151.48 1408.14,1109.9 1417.86,1109.9 1417.86,1154.71 1427.59,1154.71 1427.59,1195.29 1437.32,1195.29 1437.32,1183.4 1447.04,1183.4 1447.04,1180.66 1456.77,1180.66 1456.77,1120.37 1466.5,1120.37 1466.5,1166.85 1476.22,1166.85 1476.22,1132.68 1485.95,1132.68 1485.95,1162.27 1495.67,1162.27 1495.67,1233.75 1505.4,1233.75 1505.4,1150.52 1515.13,1150.52 1515.13,1236.18 1524.85,1236.18 1524.85,1114.42 1534.58,1114.42 1534.58,1141.9 1544.31,1141.9 1544.31,1115.29 1554.03,1115.29 1554.03,1178.34 1563.76,1178.34 1563.76,1211.65 1573.49,1211.65 1573.49,1246.94 1583.21,1246.94 1583.21,1276.7 1592.94,1276.7 1592.94,1218.81 1602.66,1218.81 1602.66,1198.29 1612.39,1198.29 1612.39,1170.74 1622.12,1170.74 1622.12,1167.25 1631.84,1167.25 1631.84,1062.3 1641.57,1062.3 1641.57,1186.71 1651.3,1186.71 1651.3,1217.87 1661.02,1217.87 1661.02,1201.68 1670.75,1201.68 1670.75,1148.95 1680.47,1148.95 1680.47,1216.59 1690.2,1216.59 1690.2,1176.94 1699.93,1176.94 1699.93,1164.3 1709.65,1164.3 1709.65,1199.38 1719.38,1199.38 1719.38,1174.56 1729.11,1174.56 1729.11,1133.44 1738.83,1133.44 1738.83,1184.82 1748.56,1184.82 1748.56,1231.62 1758.28,1231.62 1758.28,1178.7 1768.01,1178.7 1768.01,1190.85 1777.74,1190.85 1777.74,1204.39 1787.46,1204.39 1787.46,1238.13 1797.19,1238.13 1797.19,1160.9 1806.92,1160.9 1806.92,1241.87 1816.64,1241.87 1816.64,1192.43 1826.37,1192.43 1826.37,1155.14 1836.1,1155.14 1836.1,1213.09 1845.82,1213.09 1845.82,1173.54 1855.55,1173.54 1855.55,1169.85 1865.27,1169.85 1865.27,1188.5 1875,1188.5 1875,1169.08 1884.73,1169.08 1884.73,1178.28 1894.45,1178.28 1894.45,1147.91 1904.18,1147.91 1904.18,1199.12 1913.91,1199.12 1913.91,1174.94 1923.63,1174.94 1923.63,1207.66 1933.36,1207.66 1933.36,1181.89 1943.08,1181.89 1943.08,1191.73 1952.81,1191.73 1952.81,1156.29 1962.54,1156.29 1962.54,1216.44 1972.26,1216.44 1972.26,1159.69 1981.99,1159.69 1981.99,1190.5 1991.72,1190.5 1991.72,1208 2001.44,1208 2001.44,1192.01 2011.17,1192.01 2011.17,1165.69 2020.89,1165.69 2020.89,1171.91 2030.62,1171.91 2030.62,1186.1 2040.35,1186.1 2040.35,1173.92 2050.07,1173.92 2050.07,1162.78 2059.8,1162.78 2059.8,1183.74 2069.53,1183.74 2069.53,1173.98 2079.25,1173.98 2079.25,1149.41 2088.98,1149.41 2088.98,1192.51 2098.71,1192.51 2098.71,1154.63 2108.43,1154.63 2108.43,1171.11 2118.16,1171.11 2118.16,1177.36 2127.88,1177.36 2127.88,1168.97 2137.61,1168.97 2137.61,1178.88 2147.34,1178.88 2147.34,1178.43 2157.06,1178.43 2157.06,1183.6 2166.79,1183.6 2166.79,1183.81 2176.52,1183.81 2176.52,1168.76 2186.24,1168.76 2186.24,1178.78 2195.97,1178.78 2195.97,1177.61 2205.69,1177.61 2205.69,1179.61 2215.42,1179.61 2215.42,1169.8 2225.15,1169.8 2225.15,1176.57 2234.87,1176.57 2234.87,1169.27 2244.6,1169.27 2244.6,1176.72 2254.33,1176.72 2254.33,1168.33 2264.05,1168.33 2264.05,1182.14 2273.78,1182.14 2273.78,1177.38 2283.5,1177.38 2283.5,1174.28 2293.23,1174.28 2293.23,1177.39 "/>
<polyline clip-path="url(#clip672)" style="stroke:#e5e5e5; stroke-linecap:round; stroke-linejoin:round; stroke-width:4; stroke-opacity:1; fill:none" points="309.067,86.1857 318.793,86.1857 318.793,817.867 328.52,817.867 328.52,968.011 338.246,968.011 338.246,973.892 347.972,973.892 347.972,1086.65 357.698,1086.65 357.698,1115.17 367.425,1115.17 367.425,1056.62 377.151,1056.62 377.151,1120.12 386.877,1120.12 386.877,1076.82 396.604,1076.82 396.604,980.049 406.33,980.049 406.33,1213.12 416.056,1213.12 416.056,1113.44 425.782,1113.44 425.782,946.719 435.509,946.719 435.509,1017 445.235,1017 445.235,1162.57 454.961,1162.57 454.961,1065.32 464.688,1065.32 464.688,1130.52 474.414,1130.52 474.414,1211.55 484.14,1211.55 484.14,1126.93 493.867,1126.93 493.867,1100.94 503.593,1100.94 503.593,1076.24 513.319,1076.24 513.319,978.527 523.045,978.527 523.045,1184.62 532.772,1184.62 532.772,1222.46 542.498,1222.46 542.498,1024.75 552.224,1024.75 552.224,1106.56 561.951,1106.56 561.951,1174.1 571.677,1174.1 571.677,1025.97 581.403,1025.97 581.403,1098.96 591.129,1098.96 591.129,1183.3 600.856,1183.3 600.856,1026.87 610.582,1026.87 610.582,1060.36 620.308,1060.36 620.308,1030.09 630.035,1030.09 630.035,1042.2 639.761,1042.2 639.761,1161.93 649.487,1161.93 649.487,1213.3 659.214,1213.3 659.214,1291.51 668.94,1291.51 668.94,1294.64 678.666,1294.64 678.666,1309.98 688.392,1309.98 688.392,1183.89 698.119,1183.89 698.119,1162.69 707.845,1162.69 707.845,1301.68 717.571,1301.68 717.571,1250.61 727.298,1250.61 727.298,1234.13 737.024,1234.13 737.024,1255.64 746.75,1255.64 746.75,1197.34 756.476,1197.34 756.476,1215.21 766.203,1215.21 766.203,1211.05 775.929,1211.05 775.929,1207.82 785.655,1207.82 785.655,1228.21 795.382,1228.21 795.382,1372.91 805.108,1372.91 805.108,1180.87 814.834,1180.87 814.834,1203.51 824.561,1203.51 824.561,1240.51 834.287,1240.51 834.287,1251.05 844.013,1251.05 844.013,1133.29 853.739,1133.29 853.739,1194.63 863.466,1194.63 863.466,1217.46 873.192,1217.46 873.192,1172.93 882.918,1172.93 882.918,1295.41 892.645,1295.41 892.645,1216.18 902.371,1216.18 902.371,1285.83 912.097,1285.83 912.097,1324.06 921.823,1324.06 921.823,1298.08 931.55,1298.08 931.55,1148.83 941.276,1148.83 941.276,1319.97 951.002,1319.97 951.002,1270.38 960.729,1270.38 960.729,1293.15 970.455,1293.15 970.455,1320.07 980.181,1320.07 980.181,1270.16 989.908,1270.16 989.908,1229.31 999.634,1229.31 999.634,1310.05 1009.36,1310.05 1009.36,1229.14 1019.09,1229.14 1019.09,1284.25 1028.81,1284.25 1028.81,1384.24 1038.54,1384.24 1038.54,1286.88 1048.27,1286.88 1048.27,1221.19 1057.99,1221.19 1057.99,1225.76 1067.72,1225.76 1067.72,1242.29 1077.44,1242.29 1077.44,1143.7 1087.17,1143.7 1087.17,1201.2 1096.9,1201.2 1096.9,1180.73 1106.62,1180.73 1106.62,1220.92 1116.35,1220.92 1116.35,1294.94 1126.08,1294.94 1126.08,1304.07 1135.8,1304.07 1135.8,1243.13 1145.53,1243.13 1145.53,1311.66 1155.25,1311.66 1155.25,1269.04 1164.98,1269.04 1164.98,1241.64 1174.71,1241.64 1174.71,1255.77 1184.43,1255.77 1184.43,1227.24 1194.16,1227.24 1194.16,1235 1203.89,1235 1203.89,1262.78 1213.61,1262.78 1213.61,1239.58 1223.34,1239.58 1223.34,1245.91 1233.06,1245.91 1233.06,1243.35 1242.79,1243.35 1242.79,1174.76 1252.52,1174.76 1252.52,1176.39 1262.24,1176.39 1262.24,1207.28 1271.97,1207.28 1271.97,1176.73 1281.7,1176.73 1281.7,1209.16 1291.42,1209.16 1291.42,1201.05 1301.15,1201.05 1301.15,1201.52 1310.88,1201.52 1310.88,1235.99 1320.6,1235.99 1320.6,1184.3 1330.33,1184.3 1330.33,1228.51 1340.05,1228.51 1340.05,1207.68 1349.78,1207.68 1349.78,1168.61 1359.51,1168.61 1359.51,1227.73 1369.23,1227.73 1369.23,1140.42 1378.96,1140.42 1378.96,1121.14 1388.69,1121.14 1388.69,1078.88 1398.41,1078.88 1398.41,1179.86 1408.14,1179.86 1408.14,1173.57 1417.86,1173.57 1417.86,1222.8 1427.59,1222.8 1427.59,1200.45 1437.32,1200.45 1437.32,1226.09 1447.04,1226.09 1447.04,1193.22 1456.77,1193.22 1456.77,1238.33 1466.5,1238.33 1466.5,1153.75 1476.22,1153.75 1476.22,1117.37 1485.95,1117.37 1485.95,1161.44 1495.67,1161.44 1495.67,1110.04 1505.4,1110.04 1505.4,1151.88 1515.13,1151.88 1515.13,1140.57 1524.85,1140.57 1524.85,1164.34 1534.58,1164.34 1534.58,1166.57 1544.31,1166.57 1544.31,1184.75 1554.03,1184.75 1554.03,1156.7 1563.76,1156.7 1563.76,1191.16 1573.49,1191.16 1573.49,1157.51 1583.21,1157.51 1583.21,1178.89 1592.94,1178.89 1592.94,1180.67 1602.66,1180.67 1602.66,1194.8 1612.39,1194.8 1612.39,1141.12 1622.12,1141.12 1622.12,1154.88 1631.84,1154.88 1631.84,1110.85 1641.57,1110.85 1641.57,1129.81 1651.3,1129.81 1651.3,1158.24 1661.02,1158.24 1661.02,1145.07 1670.75,1145.07 1670.75,1183.12 1680.47,1183.12 1680.47,1167.14 1690.2,1167.14 1690.2,1174.97 1699.93,1174.97 1699.93,1184.51 1709.65,1184.51 1709.65,1200.77 1719.38,1200.77 1719.38,1187.17 1729.11,1187.17 1729.11,1194.99 1738.83,1194.99 1738.83,1196.87 1748.56,1196.87 1748.56,1193.87 1758.28,1193.87 1758.28,1138.58 1768.01,1138.58 1768.01,1133.23 1777.74,1133.23 1777.74,1123.15 1787.46,1123.15 1787.46,1109.63 1797.19,1109.63 1797.19,1148.33 1806.92,1148.33 1806.92,1149.81 1816.64,1149.81 1816.64,1161.99 1826.37,1161.99 1826.37,1186.96 1836.1,1186.96 1836.1,1155.61 1845.82,1155.61 1845.82,1181.9 1855.55,1181.9 1855.55,1186.86 1865.27,1186.86 1865.27,1185.2 1875,1185.2 1875,1198.76 1884.73,1198.76 1884.73,1176.52 1894.45,1176.52 1894.45,1205.9 1904.18,1205.9 1904.18,1190.38 1913.91,1190.38 1913.91,1195.34 1923.63,1195.34 1923.63,1168.72 1933.36,1168.72 1933.36,1191 1943.08,1191 1943.08,1160.7 1952.81,1160.7 1952.81,1178.22 1962.54,1178.22 1962.54,1192.26 1972.26,1192.26 1972.26,1185.54 1981.99,1185.54 1981.99,1202.13 1991.72,1202.13 1991.72,1185.48 2001.44,1185.48 2001.44,1190.36 2011.17,1190.36 2011.17,1181.94 2020.89,1181.94 2020.89,1185.45 2030.62,1185.45 2030.62,1155.33 2040.35,1155.33 2040.35,1193.81 2050.07,1193.81 2050.07,1162.53 2059.8,1162.53 2059.8,1185.16 2069.53,1185.16 2069.53,1152.86 2079.25,1152.86 2079.25,1170.47 2088.98,1170.47 2088.98,1161.84 2098.71,1161.84 2098.71,1163.26 2108.43,1163.26 2108.43,1199.23 2118.16,1199.23 2118.16,1178.88 2127.88,1178.88 2127.88,1198.22 2137.61,1198.22 2137.61,1182.45 2147.34,1182.45 2147.34,1187.12 2157.06,1187.12 2157.06,1161.24 2166.79,1161.24 2166.79,1179.39 2176.52,1179.39 2176.52,1146.89 2186.24,1146.89 2186.24,1174.1 2195.97,1174.1 2195.97,1178.81 2205.69,1178.81 2205.69,1177.99 2215.42,1177.99 2215.42,1182.58 2225.15,1182.58 2225.15,1190.87 2234.87,1190.87 2234.87,1181.19 2244.6,1181.19 2244.6,1195.72 2254.33,1195.72 2254.33,1190.29 2264.05,1190.29 2264.05,1184.46 2273.78,1184.46 2273.78,1200.26 2283.5,1200.26 2283.5,1175.25 2293.23,1175.25 2293.23,1186.32 "/>
<polyline clip-path="url(#clip672)" style="stroke:#ffffff; stroke-linecap:round; stroke-linejoin:round; stroke-width:8; stroke-opacity:1; fill:none" stroke-dasharray="32, 20" points="309.067,1028.87 318.793,1028.87 328.52,1028.87 338.246,1028.87 347.972,1028.87 357.698,1028.87 367.425,1028.87 377.151,1028.87 386.877,1028.87 396.604,1028.87 406.33,1028.87 416.056,1028.87 425.782,1028.87 435.509,1028.87 445.235,1028.87 454.961,1028.87 464.688,1028.87 474.414,1028.87 484.14,1028.87 493.867,1028.87 503.593,1028.87 513.319,1028.87 523.045,1028.87 532.772,1028.87 542.498,1028.87 552.224,1028.87 561.951,1028.87 571.677,1028.87 581.403,1028.87 591.129,1028.87 600.856,1028.87 610.582,1028.87 620.308,1028.87 630.035,1028.87 639.761,1028.87 649.487,1028.87 659.214,1028.87 668.94,1028.87 678.666,1028.87 688.392,1028.87 698.119,1028.87 707.845,1028.87 717.571,1028.87 727.298,1028.87 737.024,1028.87 746.75,1028.87 756.476,1028.87 766.203,1028.87 775.929,1028.87 785.655,1028.87 795.382,1028.87 805.108,1028.87 814.834,1028.87 824.561,1028.87 834.287,1028.87 844.013,1028.87 853.739,1028.87 863.466,1028.87 873.192,1028.87 882.918,1028.87 892.645,1028.87 902.371,1028.87 912.097,1028.87 921.823,1028.87 931.55,1028.87 941.276,1028.87 951.002,1028.87 960.729,1028.87 970.455,1028.87 980.181,1028.87 989.908,1028.87 999.634,1028.87 1009.36,1028.87 1019.09,1028.87 1028.81,1028.87 1038.54,1028.87 1048.27,1028.87 1057.99,1028.87 1067.72,1028.87 1077.44,1028.87 1087.17,1028.87 1096.9,1028.87 1106.62,1028.87 1116.35,1028.87 1126.08,1028.87 1135.8,1028.87 1145.53,1028.87 1155.25,1028.87 1164.98,1028.87 1174.71,1028.87 1184.43,1028.87 1194.16,1028.87 1203.89,1028.87 1213.61,1028.87 1223.34,1028.87 1233.06,1028.87 1242.79,1028.87 1252.52,1028.87 1262.24,1028.87 1271.97,1028.87 1281.7,1028.87 1291.42,1028.87 1301.15,1028.87 1310.88,1028.87 1320.6,1028.87 1330.33,1028.87 1340.05,1028.87 1349.78,1028.87 1359.51,1028.87 1369.23,1028.87 1378.96,1028.87 1388.69,1028.87 1398.41,1028.87 1408.14,1028.87 1417.86,1028.87 1427.59,1028.87 1437.32,1028.87 1447.04,1028.87 1456.77,1028.87 1466.5,1028.87 1476.22,1028.87 1485.95,1028.87 1495.67,1028.87 1505.4,1028.87 1515.13,1028.87 1524.85,1028.87 1534.58,1028.87 1544.31,1028.87 1554.03,1028.87 1563.76,1028.87 1573.49,1028.87 1583.21,1028.87 1592.94,1028.87 1602.66,1028.87 1612.39,1028.87 1622.12,1028.87 1631.84,1028.87 1641.57,1028.87 1651.3,1028.87 1661.02,1028.87 1670.75,1028.87 1680.47,1028.87 1690.2,1028.87 1699.93,1028.87 1709.65,1028.87 1719.38,1028.87 1729.11,1028.87 1738.83,1028.87 1748.56,1028.87 1758.28,1028.87 1768.01,1028.87 1777.74,1028.87 1787.46,1028.87 1797.19,1028.87 1806.92,1028.87 1816.64,1028.87 1826.37,1028.87 1836.1,1028.87 1845.82,1028.87 1855.55,1028.87 1865.27,1028.87 1875,1028.87 1884.73,1028.87 1894.45,1028.87 1904.18,1028.87 1913.91,1028.87 1923.63,1028.87 1933.36,1028.87 1943.08,1028.87 1952.81,1028.87 1962.54,1028.87 1972.26,1028.87 1981.99,1028.87 1991.72,1028.87 2001.44,1028.87 2011.17,1028.87 2020.89,1028.87 2030.62,1028.87 2040.35,1028.87 2050.07,1028.87 2059.8,1028.87 2069.53,1028.87 2079.25,1028.87 2088.98,1028.87 2098.71,1028.87 2108.43,1028.87 2118.16,1028.87 2127.88,1028.87 2137.61,1028.87 2147.34,1028.87 2157.06,1028.87 2166.79,1028.87 2176.52,1028.87 2186.24,1028.87 2195.97,1028.87 2205.69,1028.87 2215.42,1028.87 2225.15,1028.87 2234.87,1028.87 2244.6,1028.87 2254.33,1028.87 2264.05,1028.87 2273.78,1028.87 2283.5,1028.87 "/>
<polyline clip-path="url(#clip672)" style="stroke:#ffffff; stroke-linecap:round; stroke-linejoin:round; stroke-width:8; stroke-opacity:1; fill:none" stroke-dasharray="32, 20" points="309.067,1327.89 318.793,1327.89 328.52,1327.89 338.246,1327.89 347.972,1327.89 357.698,1327.89 367.425,1327.89 377.151,1327.89 386.877,1327.89 396.604,1327.89 406.33,1327.89 416.056,1327.89 425.782,1327.89 435.509,1327.89 445.235,1327.89 454.961,1327.89 464.688,1327.89 474.414,1327.89 484.14,1327.89 493.867,1327.89 503.593,1327.89 513.319,1327.89 523.045,1327.89 532.772,1327.89 542.498,1327.89 552.224,1327.89 561.951,1327.89 571.677,1327.89 581.403,1327.89 591.129,1327.89 600.856,1327.89 610.582,1327.89 620.308,1327.89 630.035,1327.89 639.761,1327.89 649.487,1327.89 659.214,1327.89 668.94,1327.89 678.666,1327.89 688.392,1327.89 698.119,1327.89 707.845,1327.89 717.571,1327.89 727.298,1327.89 737.024,1327.89 746.75,1327.89 756.476,1327.89 766.203,1327.89 775.929,1327.89 785.655,1327.89 795.382,1327.89 805.108,1327.89 814.834,1327.89 824.561,1327.89 834.287,1327.89 844.013,1327.89 853.739,1327.89 863.466,1327.89 873.192,1327.89 882.918,1327.89 892.645,1327.89 902.371,1327.89 912.097,1327.89 921.823,1327.89 931.55,1327.89 941.276,1327.89 951.002,1327.89 960.729,1327.89 970.455,1327.89 980.181,1327.89 989.908,1327.89 999.634,1327.89 1009.36,1327.89 1019.09,1327.89 1028.81,1327.89 1038.54,1327.89 1048.27,1327.89 1057.99,1327.89 1067.72,1327.89 1077.44,1327.89 1087.17,1327.89 1096.9,1327.89 1106.62,1327.89 1116.35,1327.89 1126.08,1327.89 1135.8,1327.89 1145.53,1327.89 1155.25,1327.89 1164.98,1327.89 1174.71,1327.89 1184.43,1327.89 1194.16,1327.89 1203.89,1327.89 1213.61,1327.89 1223.34,1327.89 1233.06,1327.89 1242.79,1327.89 1252.52,1327.89 1262.24,1327.89 1271.97,1327.89 1281.7,1327.89 1291.42,1327.89 1301.15,1327.89 1310.88,1327.89 1320.6,1327.89 1330.33,1327.89 1340.05,1327.89 1349.78,1327.89 1359.51,1327.89 1369.23,1327.89 1378.96,1327.89 1388.69,1327.89 1398.41,1327.89 1408.14,1327.89 1417.86,1327.89 1427.59,1327.89 1437.32,1327.89 1447.04,1327.89 1456.77,1327.89 1466.5,1327.89 1476.22,1327.89 1485.95,1327.89 1495.67,1327.89 1505.4,1327.89 1515.13,1327.89 1524.85,1327.89 1534.58,1327.89 1544.31,1327.89 1554.03,1327.89 1563.76,1327.89 1573.49,1327.89 1583.21,1327.89 1592.94,1327.89 1602.66,1327.89 1612.39,1327.89 1622.12,1327.89 1631.84,1327.89 1641.57,1327.89 1651.3,1327.89 1661.02,1327.89 1670.75,1327.89 1680.47,1327.89 1690.2,1327.89 1699.93,1327.89 1709.65,1327.89 1719.38,1327.89 1729.11,1327.89 1738.83,1327.89 1748.56,1327.89 1758.28,1327.89 1768.01,1327.89 1777.74,1327.89 1787.46,1327.89 1797.19,1327.89 1806.92,1327.89 1816.64,1327.89 1826.37,1327.89 1836.1,1327.89 1845.82,1327.89 1855.55,1327.89 1865.27,1327.89 1875,1327.89 1884.73,1327.89 1894.45,1327.89 1904.18,1327.89 1913.91,1327.89 1923.63,1327.89 1933.36,1327.89 1943.08,1327.89 1952.81,1327.89 1962.54,1327.89 1972.26,1327.89 1981.99,1327.89 1991.72,1327.89 2001.44,1327.89 2011.17,1327.89 2020.89,1327.89 2030.62,1327.89 2040.35,1327.89 2050.07,1327.89 2059.8,1327.89 2069.53,1327.89 2079.25,1327.89 2088.98,1327.89 2098.71,1327.89 2108.43,1327.89 2118.16,1327.89 2127.88,1327.89 2137.61,1327.89 2147.34,1327.89 2157.06,1327.89 2166.79,1327.89 2176.52,1327.89 2186.24,1327.89 2195.97,1327.89 2205.69,1327.89 2215.42,1327.89 2225.15,1327.89 2234.87,1327.89 2244.6,1327.89 2254.33,1327.89 2264.05,1327.89 2273.78,1327.89 2283.5,1327.89 "/>
<path clip-path="url(#clip670)" d="M1584.23 300.469 L2282.65 300.469 L2282.65 93.1086 L1584.23 93.1086  Z" fill="#31343a" fill-rule="evenodd" fill-opacity="1"/>
<polyline clip-path="url(#clip670)" style="stroke:#000000; stroke-linecap:round; stroke-linejoin:round; stroke-width:4; stroke-opacity:0; fill:none" points="1584.23,300.469 2282.65,300.469 2282.65,93.1086 1584.23,93.1086 1584.23,300.469 "/>
<polyline clip-path="url(#clip670)" style="stroke:#ff7d00; stroke-linecap:round; stroke-linejoin:round; stroke-width:4; stroke-opacity:1; fill:none" points="1607.6,144.949 1747.81,144.949 "/>
<path clip-path="url(#clip670)" d="M1787.2 130.84 Q1782.11 130.84 1779.1 134.636 Q1776.11 138.432 1776.11 144.983 Q1776.11 151.511 1779.1 155.307 Q1782.11 159.104 1787.2 159.104 Q1792.29 159.104 1795.25 155.307 Q1798.24 151.511 1798.24 144.983 Q1798.24 138.432 1795.25 134.636 Q1792.29 130.84 1787.2 130.84 M1787.2 127.044 Q1794.47 127.044 1798.82 131.928 Q1803.17 136.789 1803.17 144.983 Q1803.17 153.155 1798.82 158.039 Q1794.47 162.9 1787.2 162.9 Q1779.91 162.9 1775.53 158.039 Q1771.18 153.178 1771.18 144.983 Q1771.18 136.789 1775.53 131.928 Q1779.91 127.044 1787.2 127.044 Z" fill="#ffffff" fill-rule="nonzero" fill-opacity="1" /><path clip-path="url(#clip670)" d="M1828.91 149.289 Q1828.91 144.59 1826.97 141.928 Q1825.05 139.243 1821.67 139.243 Q1818.29 139.243 1816.34 141.928 Q1814.42 144.59 1814.42 149.289 Q1814.42 153.988 1816.34 156.673 Q1818.29 159.335 1821.67 159.335 Q1825.05 159.335 1826.97 156.673 Q1828.91 153.988 1828.91 149.289 M1814.42 140.238 Q1815.76 137.923 1817.8 136.812 Q1819.86 135.678 1822.71 135.678 Q1827.43 135.678 1830.37 139.428 Q1833.33 143.178 1833.33 149.289 Q1833.33 155.4 1830.37 159.15 Q1827.43 162.9 1822.71 162.9 Q1819.86 162.9 1817.8 161.789 Q1815.76 160.655 1814.42 158.34 L1814.42 162.229 L1810.14 162.229 L1810.14 126.21 L1814.42 126.21 L1814.42 140.238 Z" fill="#ffffff" fill-rule="nonzero" fill-opacity="1" /><path clip-path="url(#clip670)" d="M1856.92 137.067 L1856.92 141.094 Q1855.12 140.169 1853.17 139.706 Q1851.23 139.243 1849.14 139.243 Q1845.97 139.243 1844.37 140.215 Q1842.8 141.187 1842.8 143.131 Q1842.8 144.613 1843.93 145.469 Q1845.07 146.303 1848.49 147.067 L1849.95 147.391 Q1854.49 148.363 1856.39 150.145 Q1858.31 151.905 1858.31 155.076 Q1858.31 158.687 1855.44 160.793 Q1852.59 162.9 1847.59 162.9 Q1845.51 162.9 1843.24 162.483 Q1840.99 162.09 1838.49 161.28 L1838.49 156.881 Q1840.86 158.108 1843.15 158.733 Q1845.44 159.335 1847.68 159.335 Q1850.69 159.335 1852.31 158.317 Q1853.93 157.275 1853.93 155.4 Q1853.93 153.664 1852.75 152.738 Q1851.6 151.812 1847.64 150.956 L1846.16 150.608 Q1842.2 149.775 1840.44 148.062 Q1838.68 146.326 1838.68 143.317 Q1838.68 139.659 1841.27 137.669 Q1843.87 135.678 1848.63 135.678 Q1850.99 135.678 1853.08 136.025 Q1855.16 136.372 1856.92 137.067 Z" fill="#ffffff" fill-rule="nonzero" fill-opacity="1" /><path clip-path="url(#clip670)" d="M1887.27 148.201 L1887.27 150.284 L1867.68 150.284 Q1867.96 154.682 1870.32 156.997 Q1872.71 159.289 1876.94 159.289 Q1879.4 159.289 1881.69 158.687 Q1884 158.085 1886.27 156.881 L1886.27 160.909 Q1883.98 161.881 1881.57 162.391 Q1879.17 162.9 1876.69 162.9 Q1870.49 162.9 1866.85 159.289 Q1863.24 155.678 1863.24 149.52 Q1863.24 143.155 1866.67 139.428 Q1870.12 135.678 1875.95 135.678 Q1881.18 135.678 1884.21 139.057 Q1887.27 142.414 1887.27 148.201 M1883.01 146.951 Q1882.96 143.456 1881.04 141.372 Q1879.14 139.289 1875.99 139.289 Q1872.43 139.289 1870.28 141.303 Q1868.15 143.317 1867.82 146.974 L1883.01 146.951 Z" fill="#ffffff" fill-rule="nonzero" fill-opacity="1" /><path clip-path="url(#clip670)" d="M1909.28 140.284 Q1908.56 139.868 1907.71 139.682 Q1906.87 139.474 1905.86 139.474 Q1902.24 139.474 1900.3 141.835 Q1898.38 144.173 1898.38 148.571 L1898.38 162.229 L1894.1 162.229 L1894.1 136.303 L1898.38 136.303 L1898.38 140.331 Q1899.72 137.969 1901.87 136.835 Q1904.03 135.678 1907.11 135.678 Q1907.55 135.678 1908.08 135.747 Q1908.61 135.794 1909.26 135.909 L1909.28 140.284 Z" fill="#ffffff" fill-rule="nonzero" fill-opacity="1" /><path clip-path="url(#clip670)" d="M1910.69 136.303 L1915.21 136.303 L1923.31 158.062 L1931.41 136.303 L1935.92 136.303 L1926.2 162.229 L1920.42 162.229 L1910.69 136.303 Z" fill="#ffffff" fill-rule="nonzero" fill-opacity="1" /><path clip-path="url(#clip670)" d="M1963.98 148.201 L1963.98 150.284 L1944.4 150.284 Q1944.67 154.682 1947.04 156.997 Q1949.42 159.289 1953.66 159.289 Q1956.11 159.289 1958.4 158.687 Q1960.72 158.085 1962.99 156.881 L1962.99 160.909 Q1960.69 161.881 1958.29 162.391 Q1955.88 162.9 1953.4 162.9 Q1947.2 162.9 1943.56 159.289 Q1939.95 155.678 1939.95 149.52 Q1939.95 143.155 1943.38 139.428 Q1946.83 135.678 1952.66 135.678 Q1957.89 135.678 1960.92 139.057 Q1963.98 142.414 1963.98 148.201 M1959.72 146.951 Q1959.67 143.456 1957.75 141.372 Q1955.86 139.289 1952.71 139.289 Q1949.14 139.289 1946.99 141.303 Q1944.86 143.317 1944.54 146.974 L1959.72 146.951 Z" fill="#ffffff" fill-rule="nonzero" fill-opacity="1" /><path clip-path="url(#clip670)" d="M1988.03 140.238 L1988.03 126.21 L1992.29 126.21 L1992.29 162.229 L1988.03 162.229 L1988.03 158.34 Q1986.69 160.655 1984.63 161.789 Q1982.59 162.9 1979.72 162.9 Q1975.02 162.9 1972.06 159.15 Q1969.12 155.4 1969.12 149.289 Q1969.12 143.178 1972.06 139.428 Q1975.02 135.678 1979.72 135.678 Q1982.59 135.678 1984.63 136.812 Q1986.69 137.923 1988.03 140.238 M1973.52 149.289 Q1973.52 153.988 1975.44 156.673 Q1977.38 159.335 1980.76 159.335 Q1984.14 159.335 1986.09 156.673 Q1988.03 153.988 1988.03 149.289 Q1988.03 144.59 1986.09 141.928 Q1984.14 139.243 1980.76 139.243 Q1977.38 139.243 1975.44 141.928 Q1973.52 144.59 1973.52 149.289 Z" fill="#ffffff" fill-rule="nonzero" fill-opacity="1" /><polyline clip-path="url(#clip670)" style="stroke:#e5e5e5; stroke-linecap:round; stroke-linejoin:round; stroke-width:4; stroke-opacity:1; fill:none" points="1607.6,196.789 1747.81,196.789 "/>
<path clip-path="url(#clip670)" d="M1793.43 180.643 L1793.43 185.203 Q1790.76 183.93 1788.4 183.305 Q1786.04 182.68 1783.84 182.68 Q1780.02 182.68 1777.94 184.161 Q1775.88 185.643 1775.88 188.374 Q1775.88 190.666 1777.25 191.847 Q1778.63 193.004 1782.48 193.722 L1785.3 194.3 Q1790.53 195.296 1793.01 197.819 Q1795.51 200.319 1795.51 204.532 Q1795.51 209.555 1792.13 212.147 Q1788.77 214.74 1782.27 214.74 Q1779.81 214.74 1777.04 214.184 Q1774.28 213.629 1771.32 212.541 L1771.32 207.726 Q1774.17 209.323 1776.9 210.133 Q1779.63 210.944 1782.27 210.944 Q1786.27 210.944 1788.45 209.37 Q1790.62 207.796 1790.62 204.879 Q1790.62 202.333 1789.05 200.897 Q1787.5 199.462 1783.94 198.745 L1781.09 198.189 Q1775.86 197.147 1773.52 194.925 Q1771.18 192.703 1771.18 188.745 Q1771.18 184.161 1774.4 181.522 Q1777.64 178.884 1783.31 178.884 Q1785.74 178.884 1788.26 179.323 Q1790.79 179.763 1793.43 180.643 Z" fill="#ffffff" fill-rule="nonzero" fill-opacity="1" /><path clip-path="url(#clip670)" d="M1802.62 188.143 L1806.87 188.143 L1806.87 214.069 L1802.62 214.069 L1802.62 188.143 M1802.62 178.05 L1806.87 178.05 L1806.87 183.444 L1802.62 183.444 L1802.62 178.05 Z" fill="#ffffff" fill-rule="nonzero" fill-opacity="1" /><path clip-path="url(#clip670)" d="M1835.97 193.12 Q1837.57 190.249 1839.79 188.884 Q1842.01 187.518 1845.02 187.518 Q1849.07 187.518 1851.27 190.365 Q1853.47 193.189 1853.47 198.421 L1853.47 214.069 L1849.19 214.069 L1849.19 198.559 Q1849.19 194.833 1847.87 193.027 Q1846.55 191.222 1843.84 191.222 Q1840.53 191.222 1838.61 193.421 Q1836.69 195.62 1836.69 199.416 L1836.69 214.069 L1832.41 214.069 L1832.41 198.559 Q1832.41 194.809 1831.09 193.027 Q1829.77 191.222 1827.01 191.222 Q1823.75 191.222 1821.83 193.444 Q1819.91 195.643 1819.91 199.416 L1819.91 214.069 L1815.62 214.069 L1815.62 188.143 L1819.91 188.143 L1819.91 192.171 Q1821.37 189.786 1823.4 188.652 Q1825.44 187.518 1828.24 187.518 Q1831.06 187.518 1833.03 188.953 Q1835.02 190.388 1835.97 193.12 Z" fill="#ffffff" fill-rule="nonzero" fill-opacity="1" /><path clip-path="url(#clip670)" d="M1861.53 203.837 L1861.53 188.143 L1865.79 188.143 L1865.79 203.675 Q1865.79 207.356 1867.22 209.208 Q1868.66 211.036 1871.53 211.036 Q1874.98 211.036 1876.97 208.837 Q1878.98 206.638 1878.98 202.842 L1878.98 188.143 L1883.24 188.143 L1883.24 214.069 L1878.98 214.069 L1878.98 210.087 Q1877.43 212.448 1875.37 213.606 Q1873.33 214.74 1870.62 214.74 Q1866.16 214.74 1863.84 211.962 Q1861.53 209.184 1861.53 203.837 M1872.24 187.518 L1872.24 187.518 Z" fill="#ffffff" fill-rule="nonzero" fill-opacity="1" /><path clip-path="url(#clip670)" d="M1892.01 178.05 L1896.27 178.05 L1896.27 214.069 L1892.01 214.069 L1892.01 178.05 Z" fill="#ffffff" fill-rule="nonzero" fill-opacity="1" /><path clip-path="url(#clip670)" d="M1916.97 201.036 Q1911.8 201.036 1909.81 202.217 Q1907.82 203.397 1907.82 206.245 Q1907.82 208.513 1909.3 209.856 Q1910.81 211.175 1913.38 211.175 Q1916.92 211.175 1919.05 208.675 Q1921.2 206.152 1921.2 201.985 L1921.2 201.036 L1916.97 201.036 M1925.46 199.277 L1925.46 214.069 L1921.2 214.069 L1921.2 210.133 Q1919.74 212.495 1917.57 213.629 Q1915.39 214.74 1912.24 214.74 Q1908.26 214.74 1905.9 212.518 Q1903.56 210.272 1903.56 206.522 Q1903.56 202.147 1906.48 199.925 Q1909.42 197.703 1915.23 197.703 L1921.2 197.703 L1921.2 197.286 Q1921.2 194.347 1919.26 192.749 Q1917.34 191.129 1913.84 191.129 Q1911.62 191.129 1909.51 191.661 Q1907.41 192.194 1905.46 193.259 L1905.46 189.323 Q1907.8 188.421 1910 187.981 Q1912.2 187.518 1914.28 187.518 Q1919.91 187.518 1922.68 190.434 Q1925.46 193.351 1925.46 199.277 Z" fill="#ffffff" fill-rule="nonzero" fill-opacity="1" /><path clip-path="url(#clip670)" d="M1938.45 180.782 L1938.45 188.143 L1947.22 188.143 L1947.22 191.453 L1938.45 191.453 L1938.45 205.527 Q1938.45 208.698 1939.3 209.601 Q1940.18 210.504 1942.85 210.504 L1947.22 210.504 L1947.22 214.069 L1942.85 214.069 Q1937.92 214.069 1936.04 212.24 Q1934.17 210.388 1934.17 205.527 L1934.17 191.453 L1931.04 191.453 L1931.04 188.143 L1934.17 188.143 L1934.17 180.782 L1938.45 180.782 Z" fill="#ffffff" fill-rule="nonzero" fill-opacity="1" /><path clip-path="url(#clip670)" d="M1975 200.041 L1975 202.124 L1955.42 202.124 Q1955.69 206.522 1958.05 208.837 Q1960.44 211.129 1964.67 211.129 Q1967.13 211.129 1969.42 210.527 Q1971.73 209.925 1974 208.721 L1974 212.749 Q1971.71 213.721 1969.3 214.231 Q1966.9 214.74 1964.42 214.74 Q1958.22 214.74 1954.58 211.129 Q1950.97 207.518 1950.97 201.36 Q1950.97 194.995 1954.4 191.268 Q1957.85 187.518 1963.68 187.518 Q1968.91 187.518 1971.94 190.897 Q1975 194.254 1975 200.041 M1970.74 198.791 Q1970.69 195.296 1968.77 193.212 Q1966.87 191.129 1963.73 191.129 Q1960.16 191.129 1958.01 193.143 Q1955.88 195.157 1955.55 198.814 L1970.74 198.791 Z" fill="#ffffff" fill-rule="nonzero" fill-opacity="1" /><path clip-path="url(#clip670)" d="M1999.05 192.078 L1999.05 178.05 L2003.31 178.05 L2003.31 214.069 L1999.05 214.069 L1999.05 210.18 Q1997.71 212.495 1995.65 213.629 Q1993.61 214.74 1990.74 214.74 Q1986.04 214.74 1983.08 210.99 Q1980.14 207.24 1980.14 201.129 Q1980.14 195.018 1983.08 191.268 Q1986.04 187.518 1990.74 187.518 Q1993.61 187.518 1995.65 188.652 Q1997.71 189.763 1999.05 192.078 M1984.54 201.129 Q1984.54 205.828 1986.46 208.513 Q1988.4 211.175 1991.78 211.175 Q1995.16 211.175 1997.11 208.513 Q1999.05 205.828 1999.05 201.129 Q1999.05 196.43 1997.11 193.768 Q1995.16 191.083 1991.78 191.083 Q1988.4 191.083 1986.46 193.768 Q1984.54 196.43 1984.54 201.129 Z" fill="#ffffff" fill-rule="nonzero" fill-opacity="1" /><path clip-path="url(#clip670)" d="M2037.38 178.097 Q2034.28 183.421 2032.78 188.629 Q2031.27 193.837 2031.27 199.184 Q2031.27 204.532 2032.78 209.786 Q2034.3 215.018 2037.38 220.319 L2033.68 220.319 Q2030.21 214.879 2028.47 209.624 Q2026.76 204.37 2026.76 199.184 Q2026.76 194.022 2028.47 188.791 Q2030.18 183.56 2033.68 178.097 L2037.38 178.097 Z" fill="#ffffff" fill-rule="nonzero" fill-opacity="1" /><path clip-path="url(#clip670)" d="M2045.65 188.143 L2049.91 188.143 L2049.91 214.069 L2045.65 214.069 L2045.65 188.143 M2045.65 178.05 L2049.91 178.05 L2049.91 183.444 L2045.65 183.444 L2045.65 178.05 Z" fill="#ffffff" fill-rule="nonzero" fill-opacity="1" /><path clip-path="url(#clip670)" d="M2074.44 192.541 L2104.12 192.541 L2104.12 196.43 L2074.44 196.43 L2074.44 192.541 M2074.44 201.985 L2104.12 201.985 L2104.12 205.921 L2074.44 205.921 L2074.44 201.985 Z" fill="#ffffff" fill-rule="nonzero" fill-opacity="1" /><path clip-path="url(#clip670)" d="M2143.45 195.434 Q2146.8 196.152 2148.68 198.421 Q2150.58 200.689 2150.58 204.022 Q2150.58 209.138 2147.06 211.939 Q2143.54 214.74 2137.06 214.74 Q2134.88 214.74 2132.57 214.3 Q2130.28 213.883 2127.82 213.027 L2127.82 208.513 Q2129.77 209.647 2132.08 210.226 Q2134.4 210.805 2136.92 210.805 Q2141.32 210.805 2143.61 209.069 Q2145.92 207.333 2145.92 204.022 Q2145.92 200.967 2143.77 199.254 Q2141.64 197.518 2137.82 197.518 L2133.79 197.518 L2133.79 193.675 L2138.01 193.675 Q2141.46 193.675 2143.28 192.309 Q2145.11 190.921 2145.11 188.328 Q2145.11 185.666 2143.22 184.254 Q2141.34 182.819 2137.82 182.819 Q2135.9 182.819 2133.7 183.235 Q2131.5 183.652 2128.86 184.532 L2128.86 180.365 Q2131.53 179.624 2133.84 179.254 Q2136.18 178.884 2138.24 178.884 Q2143.56 178.884 2146.66 181.314 Q2149.77 183.722 2149.77 187.842 Q2149.77 190.712 2148.12 192.703 Q2146.48 194.671 2143.45 195.434 Z" fill="#ffffff" fill-rule="nonzero" fill-opacity="1" /><path clip-path="url(#clip670)" d="M2163.47 210.133 L2179.79 210.133 L2179.79 214.069 L2157.85 214.069 L2157.85 210.133 Q2160.51 207.379 2165.09 202.749 Q2169.7 198.096 2170.88 196.754 Q2173.12 194.231 2174 192.495 Q2174.91 190.735 2174.91 189.046 Q2174.91 186.291 2172.96 184.555 Q2171.04 182.819 2167.94 182.819 Q2165.74 182.819 2163.28 183.583 Q2160.85 184.347 2158.08 185.897 L2158.08 181.175 Q2160.9 180.041 2163.35 179.462 Q2165.81 178.884 2167.85 178.884 Q2173.22 178.884 2176.41 181.569 Q2179.6 184.254 2179.6 188.745 Q2179.6 190.874 2178.79 192.796 Q2178.01 194.694 2175.9 197.286 Q2175.32 197.958 2172.22 201.175 Q2169.12 204.37 2163.47 210.133 Z" fill="#ffffff" fill-rule="nonzero" fill-opacity="1" /><path clip-path="url(#clip670)" d="M2188.42 179.509 L2210.65 179.509 L2210.65 181.499 L2198.1 214.069 L2193.22 214.069 L2205.02 183.444 L2188.42 183.444 L2188.42 179.509 Z" fill="#ffffff" fill-rule="nonzero" fill-opacity="1" /><path clip-path="url(#clip670)" d="M2229.77 182.587 Q2226.15 182.587 2224.33 186.152 Q2222.52 189.694 2222.52 196.823 Q2222.52 203.93 2224.33 207.495 Q2226.15 211.036 2229.77 211.036 Q2233.4 211.036 2235.21 207.495 Q2237.03 203.93 2237.03 196.823 Q2237.03 189.694 2235.21 186.152 Q2233.4 182.587 2229.77 182.587 M2229.77 178.884 Q2235.58 178.884 2238.63 183.49 Q2241.71 188.073 2241.71 196.823 Q2241.71 205.55 2238.63 210.157 Q2235.58 214.74 2229.77 214.74 Q2223.96 214.74 2220.88 210.157 Q2217.82 205.55 2217.82 196.823 Q2217.82 188.073 2220.88 183.49 Q2223.96 178.884 2229.77 178.884 Z" fill="#ffffff" fill-rule="nonzero" fill-opacity="1" /><path clip-path="url(#clip670)" d="M2248.65 178.097 L2252.36 178.097 Q2255.83 183.56 2257.54 188.791 Q2259.28 194.022 2259.28 199.184 Q2259.28 204.37 2257.54 209.624 Q2255.83 214.879 2252.36 220.319 L2248.65 220.319 Q2251.73 215.018 2253.24 209.786 Q2254.77 204.532 2254.77 199.184 Q2254.77 193.837 2253.24 188.629 Q2251.73 183.421 2248.65 178.097 Z" fill="#ffffff" fill-rule="nonzero" fill-opacity="1" /><polyline clip-path="url(#clip670)" style="stroke:#ffffff; stroke-linecap:round; stroke-linejoin:round; stroke-width:8; stroke-opacity:1; fill:none" stroke-dasharray="32, 20" points="1607.6,248.629 1747.81,248.629 "/>
<path clip-path="url(#clip670)" d="M1773.4 265.191 L1773.4 260.932 Q1775.16 261.765 1776.97 262.205 Q1778.77 262.645 1780.51 262.645 Q1785.14 262.645 1787.57 259.543 Q1790.02 256.418 1790.37 250.075 Q1789.03 252.066 1786.97 253.131 Q1784.91 254.196 1782.41 254.196 Q1777.22 254.196 1774.19 251.071 Q1771.18 247.923 1771.18 242.483 Q1771.18 237.159 1774.33 233.941 Q1777.48 230.724 1782.71 230.724 Q1788.7 230.724 1791.85 235.33 Q1795.02 239.913 1795.02 248.663 Q1795.02 256.835 1791.13 261.719 Q1787.27 266.58 1780.72 266.58 Q1778.96 266.58 1777.15 266.233 Q1775.35 265.885 1773.4 265.191 M1782.71 250.538 Q1785.86 250.538 1787.69 248.386 Q1789.54 246.233 1789.54 242.483 Q1789.54 238.756 1787.69 236.603 Q1785.86 234.427 1782.71 234.427 Q1779.56 234.427 1777.71 236.603 Q1775.88 238.756 1775.88 242.483 Q1775.88 246.233 1777.71 248.386 Q1779.56 250.538 1782.71 250.538 Z" fill="#ffffff" fill-rule="nonzero" fill-opacity="1" /><path clip-path="url(#clip670)" d="M1803.47 231.349 L1821.83 231.349 L1821.83 235.284 L1807.75 235.284 L1807.75 243.756 Q1808.77 243.409 1809.79 243.247 Q1810.81 243.062 1811.83 243.062 Q1817.62 243.062 1821 246.233 Q1824.37 249.404 1824.37 254.821 Q1824.37 260.399 1820.9 263.501 Q1817.43 266.58 1811.11 266.58 Q1808.93 266.58 1806.67 266.21 Q1804.42 265.839 1802.01 265.098 L1802.01 260.399 Q1804.1 261.534 1806.32 262.089 Q1808.54 262.645 1811.02 262.645 Q1815.02 262.645 1817.36 260.538 Q1819.7 258.432 1819.7 254.821 Q1819.7 251.21 1817.36 249.103 Q1815.02 246.997 1811.02 246.997 Q1809.14 246.997 1807.27 247.413 Q1805.42 247.83 1803.47 248.71 L1803.47 231.349 Z" fill="#ffffff" fill-rule="nonzero" fill-opacity="1" /><path clip-path="url(#clip670)" d="M1862.99 250.7 Q1860.97 250.7 1859.81 252.413 Q1858.68 254.126 1858.68 257.182 Q1858.68 260.191 1859.81 261.927 Q1860.97 263.64 1862.99 263.64 Q1864.95 263.64 1866.09 261.927 Q1867.24 260.191 1867.24 257.182 Q1867.24 254.149 1866.09 252.436 Q1864.95 250.7 1862.99 250.7 M1862.99 247.761 Q1866.64 247.761 1868.8 250.307 Q1870.95 252.853 1870.95 257.182 Q1870.95 261.51 1868.77 264.057 Q1866.62 266.58 1862.99 266.58 Q1859.28 266.58 1857.13 264.057 Q1854.98 261.51 1854.98 257.182 Q1854.98 252.83 1857.13 250.307 Q1859.31 247.761 1862.99 247.761 M1839.1 233.663 Q1837.11 233.663 1835.95 235.4 Q1834.81 237.112 1834.81 240.122 Q1834.81 243.177 1835.95 244.89 Q1837.08 246.603 1839.1 246.603 Q1841.11 246.603 1842.24 244.89 Q1843.4 243.177 1843.4 240.122 Q1843.4 237.136 1842.24 235.4 Q1841.09 233.663 1839.1 233.663 M1860 230.724 L1863.7 230.724 L1842.08 266.58 L1838.38 266.58 L1860 230.724 M1839.1 230.724 Q1842.75 230.724 1844.93 233.27 Q1847.11 235.793 1847.11 240.122 Q1847.11 244.497 1844.93 247.02 Q1842.78 249.543 1839.1 249.543 Q1835.42 249.543 1833.26 247.02 Q1831.13 244.474 1831.13 240.122 Q1831.13 235.816 1833.29 233.27 Q1835.44 230.724 1839.1 230.724 Z" fill="#ffffff" fill-rule="nonzero" fill-opacity="1" /><path clip-path="url(#clip670)" d="M1911.76 240.978 L1911.76 244.96 Q1909.95 243.964 1908.12 243.478 Q1906.32 242.969 1904.47 242.969 Q1900.32 242.969 1898.03 245.608 Q1895.74 248.224 1895.74 252.969 Q1895.74 257.714 1898.03 260.353 Q1900.32 262.969 1904.47 262.969 Q1906.32 262.969 1908.12 262.483 Q1909.95 261.973 1911.76 260.978 L1911.76 264.913 Q1909.98 265.747 1908.05 266.163 Q1906.16 266.58 1904 266.58 Q1898.15 266.58 1894.7 262.899 Q1891.25 259.219 1891.25 252.969 Q1891.25 246.626 1894.72 242.992 Q1898.22 239.358 1904.28 239.358 Q1906.25 239.358 1908.12 239.775 Q1910 240.168 1911.76 240.978 Z" fill="#ffffff" fill-rule="nonzero" fill-opacity="1" /><path clip-path="url(#clip670)" d="M1929.21 242.969 Q1925.79 242.969 1923.8 245.654 Q1921.8 248.316 1921.8 252.969 Q1921.8 257.622 1923.77 260.307 Q1925.76 262.969 1929.21 262.969 Q1932.61 262.969 1934.61 260.284 Q1936.6 257.598 1936.6 252.969 Q1936.6 248.362 1934.61 245.677 Q1932.61 242.969 1929.21 242.969 M1929.21 239.358 Q1934.77 239.358 1937.94 242.969 Q1941.11 246.58 1941.11 252.969 Q1941.11 259.335 1937.94 262.969 Q1934.77 266.58 1929.21 266.58 Q1923.63 266.58 1920.46 262.969 Q1917.31 259.335 1917.31 252.969 Q1917.31 246.58 1920.46 242.969 Q1923.63 239.358 1929.21 239.358 Z" fill="#ffffff" fill-rule="nonzero" fill-opacity="1" /><path clip-path="url(#clip670)" d="M1969.72 250.261 L1969.72 265.909 L1965.46 265.909 L1965.46 250.399 Q1965.46 246.719 1964.03 244.89 Q1962.59 243.062 1959.72 243.062 Q1956.27 243.062 1954.28 245.261 Q1952.29 247.46 1952.29 251.256 L1952.29 265.909 L1948.01 265.909 L1948.01 239.983 L1952.29 239.983 L1952.29 244.011 Q1953.82 241.673 1955.88 240.515 Q1957.96 239.358 1960.67 239.358 Q1965.14 239.358 1967.43 242.136 Q1969.72 244.89 1969.72 250.261 Z" fill="#ffffff" fill-rule="nonzero" fill-opacity="1" /><path clip-path="url(#clip670)" d="M1991.34 229.89 L1991.34 233.432 L1987.27 233.432 Q1984.98 233.432 1984.07 234.358 Q1983.19 235.284 1983.19 237.691 L1983.19 239.983 L1990.21 239.983 L1990.21 243.293 L1983.19 243.293 L1983.19 265.909 L1978.91 265.909 L1978.91 243.293 L1974.84 243.293 L1974.84 239.983 L1978.91 239.983 L1978.91 238.177 Q1978.91 233.849 1980.92 231.881 Q1982.94 229.89 1987.31 229.89 L1991.34 229.89 Z" fill="#ffffff" fill-rule="nonzero" fill-opacity="1" /><path clip-path="url(#clip670)" d="M1994.91 239.983 L1999.17 239.983 L1999.17 265.909 L1994.91 265.909 L1994.91 239.983 M1994.91 229.89 L1999.17 229.89 L1999.17 235.284 L1994.91 235.284 L1994.91 229.89 Z" fill="#ffffff" fill-rule="nonzero" fill-opacity="1" /><path clip-path="url(#clip670)" d="M2025.14 243.918 L2025.14 229.89 L2029.4 229.89 L2029.4 265.909 L2025.14 265.909 L2025.14 262.02 Q2023.79 264.335 2021.73 265.469 Q2019.7 266.58 2016.83 266.58 Q2012.13 266.58 2009.17 262.83 Q2006.23 259.08 2006.23 252.969 Q2006.23 246.858 2009.17 243.108 Q2012.13 239.358 2016.83 239.358 Q2019.7 239.358 2021.73 240.492 Q2023.79 241.603 2025.14 243.918 M2010.62 252.969 Q2010.62 257.668 2012.54 260.353 Q2014.49 263.015 2017.87 263.015 Q2021.25 263.015 2023.19 260.353 Q2025.14 257.668 2025.14 252.969 Q2025.14 248.27 2023.19 245.608 Q2021.25 242.923 2017.87 242.923 Q2014.49 242.923 2012.54 245.608 Q2010.62 248.27 2010.62 252.969 Z" fill="#ffffff" fill-rule="nonzero" fill-opacity="1" /><path clip-path="url(#clip670)" d="M2060.35 251.881 L2060.35 253.964 L2040.76 253.964 Q2041.04 258.362 2043.4 260.677 Q2045.79 262.969 2050.02 262.969 Q2052.48 262.969 2054.77 262.367 Q2057.08 261.765 2059.35 260.561 L2059.35 264.589 Q2057.06 265.561 2054.65 266.071 Q2052.24 266.58 2049.77 266.58 Q2043.56 266.58 2039.93 262.969 Q2036.32 259.358 2036.32 253.2 Q2036.32 246.835 2039.74 243.108 Q2043.19 239.358 2049.03 239.358 Q2054.26 239.358 2057.29 242.737 Q2060.35 246.094 2060.35 251.881 M2056.09 250.631 Q2056.04 247.136 2054.12 245.052 Q2052.22 242.969 2049.07 242.969 Q2045.51 242.969 2043.35 244.983 Q2041.23 246.997 2040.9 250.654 L2056.09 250.631 Z" fill="#ffffff" fill-rule="nonzero" fill-opacity="1" /><path clip-path="url(#clip670)" d="M2088.89 250.261 L2088.89 265.909 L2084.63 265.909 L2084.63 250.399 Q2084.63 246.719 2083.19 244.89 Q2081.76 243.062 2078.89 243.062 Q2075.44 243.062 2073.45 245.261 Q2071.46 247.46 2071.46 251.256 L2071.46 265.909 L2067.17 265.909 L2067.17 239.983 L2071.46 239.983 L2071.46 244.011 Q2072.98 241.673 2075.04 240.515 Q2077.13 239.358 2079.84 239.358 Q2084.3 239.358 2086.6 242.136 Q2088.89 244.89 2088.89 250.261 Z" fill="#ffffff" fill-rule="nonzero" fill-opacity="1" /><path clip-path="url(#clip670)" d="M2116.04 240.978 L2116.04 244.96 Q2114.23 243.964 2112.41 243.478 Q2110.6 242.969 2108.75 242.969 Q2104.6 242.969 2102.31 245.608 Q2100.02 248.224 2100.02 252.969 Q2100.02 257.714 2102.31 260.353 Q2104.6 262.969 2108.75 262.969 Q2110.6 262.969 2112.41 262.483 Q2114.23 261.973 2116.04 260.978 L2116.04 264.913 Q2114.26 265.747 2112.34 266.163 Q2110.44 266.58 2108.29 266.58 Q2102.43 266.58 2098.98 262.899 Q2095.53 259.219 2095.53 252.969 Q2095.53 246.626 2099 242.992 Q2102.5 239.358 2108.56 239.358 Q2110.53 239.358 2112.41 239.775 Q2114.28 240.168 2116.04 240.978 Z" fill="#ffffff" fill-rule="nonzero" fill-opacity="1" /><path clip-path="url(#clip670)" d="M2145.62 251.881 L2145.62 253.964 L2126.04 253.964 Q2126.32 258.362 2128.68 260.677 Q2131.06 262.969 2135.3 262.969 Q2137.75 262.969 2140.04 262.367 Q2142.36 261.765 2144.63 260.561 L2144.63 264.589 Q2142.34 265.561 2139.93 266.071 Q2137.52 266.58 2135.04 266.58 Q2128.84 266.58 2125.21 262.969 Q2121.6 259.358 2121.6 253.2 Q2121.6 246.835 2125.02 243.108 Q2128.47 239.358 2134.3 239.358 Q2139.54 239.358 2142.57 242.737 Q2145.62 246.094 2145.62 251.881 M2141.36 250.631 Q2141.32 247.136 2139.4 245.052 Q2137.5 242.969 2134.35 242.969 Q2130.79 242.969 2128.63 244.983 Q2126.5 246.997 2126.18 250.654 L2141.36 250.631 Z" fill="#ffffff" fill-rule="nonzero" fill-opacity="1" /></svg>
