<?xml version="1.0" encoding="utf-8"?>
<svg xmlns="http://www.w3.org/2000/svg" xmlns:xlink="http://www.w3.org/1999/xlink" width="600" height="400" viewBox="0 0 2400 1600">
<defs>
  <clipPath id="clip640">
    <rect x="0" y="0" width="2400" height="1600"/>
  </clipPath>
</defs>
<path clip-path="url(#clip640)" d="M0 1600 L2400 1600 L2400 8.88178e-14 L0 8.88178e-14  Z" fill="#000000" fill-rule="evenodd" fill-opacity="1"/>
<defs>
  <clipPath id="clip641">
    <rect x="480" y="0" width="1681" height="1600"/>
  </clipPath>
</defs>
<path clip-path="url(#clip640)" d="M249.542 1423.18 L2352.76 1423.18 L2352.76 47.2441 L249.542 47.2441  Z" fill="#30343b" fill-rule="evenodd" fill-opacity="1"/>
<defs>
  <clipPath id="clip642">
    <rect x="249" y="47" width="2104" height="1377"/>
  </clipPath>
</defs>
<polyline clip-path="url(#clip642)" style="stroke:#ffffff; stroke-linecap:round; stroke-linejoin:round; stroke-width:2; stroke-opacity:0.1; fill:none" points="299.341,1423.18 299.341,47.2441 "/>
<polyline clip-path="url(#clip642)" style="stroke:#ffffff; stroke-linecap:round; stroke-linejoin:round; stroke-width:2; stroke-opacity:0.1; fill:none" points="785.655,1423.18 785.655,47.2441 "/>
<polyline clip-path="url(#clip642)" style="stroke:#ffffff; stroke-linecap:round; stroke-linejoin:round; stroke-width:2; stroke-opacity:0.1; fill:none" points="1271.97,1423.18 1271.97,47.2441 "/>
<polyline clip-path="url(#clip642)" style="stroke:#ffffff; stroke-linecap:round; stroke-linejoin:round; stroke-width:2; stroke-opacity:0.1; fill:none" points="1758.28,1423.18 1758.28,47.2441 "/>
<polyline clip-path="url(#clip642)" style="stroke:#ffffff; stroke-linecap:round; stroke-linejoin:round; stroke-width:2; stroke-opacity:0.1; fill:none" points="2244.6,1423.18 2244.6,47.2441 "/>
<polyline clip-path="url(#clip642)" style="stroke:#ffffff; stroke-linecap:round; stroke-linejoin:round; stroke-width:2; stroke-opacity:0.1; fill:none" points="299.341,1423.18 299.341,47.2441 "/>
<polyline clip-path="url(#clip642)" style="stroke:#ffffff; stroke-linecap:round; stroke-linejoin:round; stroke-width:2; stroke-opacity:0.1; fill:none" points="785.655,1423.18 785.655,47.2441 "/>
<polyline clip-path="url(#clip642)" style="stroke:#ffffff; stroke-linecap:round; stroke-linejoin:round; stroke-width:2; stroke-opacity:0.1; fill:none" points="1271.97,1423.18 1271.97,47.2441 "/>
<polyline clip-path="url(#clip642)" style="stroke:#ffffff; stroke-linecap:round; stroke-linejoin:round; stroke-width:2; stroke-opacity:0.1; fill:none" points="1758.28,1423.18 1758.28,47.2441 "/>
<polyline clip-path="url(#clip642)" style="stroke:#ffffff; stroke-linecap:round; stroke-linejoin:round; stroke-width:2; stroke-opacity:0.1; fill:none" points="2244.6,1423.18 2244.6,47.2441 "/>
<polyline clip-path="url(#clip642)" style="stroke:#ffffff; stroke-linecap:round; stroke-linejoin:round; stroke-width:2; stroke-opacity:0.1; fill:none" points="249.542,1208.92 2352.76,1208.92 "/>
<polyline clip-path="url(#clip642)" style="stroke:#ffffff; stroke-linecap:round; stroke-linejoin:round; stroke-width:2; stroke-opacity:0.1; fill:none" points="249.542,928.237 2352.76,928.237 "/>
<polyline clip-path="url(#clip642)" style="stroke:#ffffff; stroke-linecap:round; stroke-linejoin:round; stroke-width:2; stroke-opacity:0.1; fill:none" points="249.542,647.553 2352.76,647.553 "/>
<polyline clip-path="url(#clip642)" style="stroke:#ffffff; stroke-linecap:round; stroke-linejoin:round; stroke-width:2; stroke-opacity:0.1; fill:none" points="249.542,366.869 2352.76,366.869 "/>
<polyline clip-path="url(#clip642)" style="stroke:#ffffff; stroke-linecap:round; stroke-linejoin:round; stroke-width:2; stroke-opacity:0.1; fill:none" points="249.542,86.1857 2352.76,86.1857 "/>
<polyline clip-path="url(#clip642)" style="stroke:#ffffff; stroke-linecap:round; stroke-linejoin:round; stroke-width:2; stroke-opacity:0.1; fill:none" points="249.542,1208.92 2352.76,1208.92 "/>
<polyline clip-path="url(#clip642)" style="stroke:#ffffff; stroke-linecap:round; stroke-linejoin:round; stroke-width:2; stroke-opacity:0.1; fill:none" points="249.542,928.237 2352.76,928.237 "/>
<polyline clip-path="url(#clip642)" style="stroke:#ffffff; stroke-linecap:round; stroke-linejoin:round; stroke-width:2; stroke-opacity:0.1; fill:none" points="249.542,647.553 2352.76,647.553 "/>
<polyline clip-path="url(#clip642)" style="stroke:#ffffff; stroke-linecap:round; stroke-linejoin:round; stroke-width:2; stroke-opacity:0.1; fill:none" points="249.542,366.869 2352.76,366.869 "/>
<polyline clip-path="url(#clip642)" style="stroke:#ffffff; stroke-linecap:round; stroke-linejoin:round; stroke-width:2; stroke-opacity:0.1; fill:none" points="249.542,86.1857 2352.76,86.1857 "/>
<polyline clip-path="url(#clip640)" style="stroke:#ffffff; stroke-linecap:round; stroke-linejoin:round; stroke-width:4; stroke-opacity:1; fill:none" points="249.542,1423.18 2352.76,1423.18 "/>
<polyline clip-path="url(#clip640)" style="stroke:#ffffff; stroke-linecap:round; stroke-linejoin:round; stroke-width:4; stroke-opacity:1; fill:none" points="249.542,47.2441 2352.76,47.2441 "/>
<polyline clip-path="url(#clip640)" style="stroke:#ffffff; stroke-linecap:round; stroke-linejoin:round; stroke-width:4; stroke-opacity:1; fill:none" points="299.341,1423.18 299.341,1404.28 "/>
<polyline clip-path="url(#clip640)" style="stroke:#ffffff; stroke-linecap:round; stroke-linejoin:round; stroke-width:4; stroke-opacity:1; fill:none" points="785.655,1423.18 785.655,1404.28 "/>
<polyline clip-path="url(#clip640)" style="stroke:#ffffff; stroke-linecap:round; stroke-linejoin:round; stroke-width:4; stroke-opacity:1; fill:none" points="1271.97,1423.18 1271.97,1404.28 "/>
<polyline clip-path="url(#clip640)" style="stroke:#ffffff; stroke-linecap:round; stroke-linejoin:round; stroke-width:4; stroke-opacity:1; fill:none" points="1758.28,1423.18 1758.28,1404.28 "/>
<polyline clip-path="url(#clip640)" style="stroke:#ffffff; stroke-linecap:round; stroke-linejoin:round; stroke-width:4; stroke-opacity:1; fill:none" points="2244.6,1423.18 2244.6,1404.28 "/>
<polyline clip-path="url(#clip640)" style="stroke:#ffffff; stroke-linecap:round; stroke-linejoin:round; stroke-width:4; stroke-opacity:1; fill:none" points="299.341,47.2441 299.341,66.1417 "/>
<polyline clip-path="url(#clip640)" style="stroke:#ffffff; stroke-linecap:round; stroke-linejoin:round; stroke-width:4; stroke-opacity:1; fill:none" points="785.655,47.2441 785.655,66.1417 "/>
<polyline clip-path="url(#clip640)" style="stroke:#ffffff; stroke-linecap:round; stroke-linejoin:round; stroke-width:4; stroke-opacity:1; fill:none" points="1271.97,47.2441 1271.97,66.1417 "/>
<polyline clip-path="url(#clip640)" style="stroke:#ffffff; stroke-linecap:round; stroke-linejoin:round; stroke-width:4; stroke-opacity:1; fill:none" points="1758.28,47.2441 1758.28,66.1417 "/>
<polyline clip-path="url(#clip640)" style="stroke:#ffffff; stroke-linecap:round; stroke-linejoin:round; stroke-width:4; stroke-opacity:1; fill:none" points="2244.6,47.2441 2244.6,66.1417 "/>
<path clip-path="url(#clip640)" d="M299.341 1454.1 Q295.73 1454.1 293.901 1457.66 Q292.095 1461.2 292.095 1468.33 Q292.095 1475.44 293.901 1479.01 Q295.73 1482.55 299.341 1482.55 Q302.975 1482.55 304.78 1479.01 Q306.609 1475.44 306.609 1468.33 Q306.609 1461.2 304.78 1457.66 Q302.975 1454.1 299.341 1454.1 M299.341 1450.39 Q305.151 1450.39 308.206 1455 Q311.285 1459.58 311.285 1468.33 Q311.285 1477.06 308.206 1481.67 Q305.151 1486.25 299.341 1486.25 Q293.531 1486.25 290.452 1481.67 Q287.396 1477.06 287.396 1468.33 Q287.396 1459.58 290.452 1455 Q293.531 1450.39 299.341 1450.39 Z" fill="#ffffff" fill-rule="nonzero" fill-opacity="1" /><path clip-path="url(#clip640)" d="M760.355 1451.02 L778.711 1451.02 L778.711 1454.96 L764.637 1454.96 L764.637 1463.43 Q765.655 1463.08 766.674 1462.92 Q767.693 1462.73 768.711 1462.73 Q774.498 1462.73 777.878 1465.9 Q781.257 1469.08 781.257 1474.49 Q781.257 1480.07 777.785 1483.17 Q774.313 1486.25 767.993 1486.25 Q765.818 1486.25 763.549 1485.88 Q761.304 1485.51 758.896 1484.77 L758.896 1480.07 Q760.98 1481.2 763.202 1481.76 Q765.424 1482.32 767.901 1482.32 Q771.905 1482.32 774.243 1480.21 Q776.581 1478.1 776.581 1474.49 Q776.581 1470.88 774.243 1468.77 Q771.905 1466.67 767.901 1466.67 Q766.026 1466.67 764.151 1467.08 Q762.299 1467.5 760.355 1468.38 L760.355 1451.02 Z" fill="#ffffff" fill-rule="nonzero" fill-opacity="1" /><path clip-path="url(#clip640)" d="M800.47 1454.1 Q796.859 1454.1 795.03 1457.66 Q793.225 1461.2 793.225 1468.33 Q793.225 1475.44 795.03 1479.01 Q796.859 1482.55 800.47 1482.55 Q804.104 1482.55 805.91 1479.01 Q807.739 1475.44 807.739 1468.33 Q807.739 1461.2 805.91 1457.66 Q804.104 1454.1 800.47 1454.1 M800.47 1450.39 Q806.28 1450.39 809.336 1455 Q812.414 1459.58 812.414 1468.33 Q812.414 1477.06 809.336 1481.67 Q806.28 1486.25 800.47 1486.25 Q794.66 1486.25 791.581 1481.67 Q788.526 1477.06 788.526 1468.33 Q788.526 1459.58 791.581 1455 Q794.66 1450.39 800.47 1450.39 Z" fill="#ffffff" fill-rule="nonzero" fill-opacity="1" /><path clip-path="url(#clip640)" d="M1231.58 1481.64 L1239.22 1481.64 L1239.22 1455.28 L1230.91 1456.95 L1230.91 1452.69 L1239.17 1451.02 L1243.85 1451.02 L1243.85 1481.64 L1251.48 1481.64 L1251.48 1485.58 L1231.58 1485.58 L1231.58 1481.64 Z" fill="#ffffff" fill-rule="nonzero" fill-opacity="1" /><path clip-path="url(#clip640)" d="M1270.93 1454.1 Q1267.32 1454.1 1265.49 1457.66 Q1263.68 1461.2 1263.68 1468.33 Q1263.68 1475.44 1265.49 1479.01 Q1267.32 1482.55 1270.93 1482.55 Q1274.56 1482.55 1276.37 1479.01 Q1278.2 1475.44 1278.2 1468.33 Q1278.2 1461.2 1276.37 1457.66 Q1274.56 1454.1 1270.93 1454.1 M1270.93 1450.39 Q1276.74 1450.39 1279.79 1455 Q1282.87 1459.58 1282.87 1468.33 Q1282.87 1477.06 1279.79 1481.67 Q1276.74 1486.25 1270.93 1486.25 Q1265.12 1486.25 1262.04 1481.67 Q1258.98 1477.06 1258.98 1468.33 Q1258.98 1459.58 1262.04 1455 Q1265.12 1450.39 1270.93 1450.39 Z" fill="#ffffff" fill-rule="nonzero" fill-opacity="1" /><path clip-path="url(#clip640)" d="M1301.09 1454.1 Q1297.48 1454.1 1295.65 1457.66 Q1293.84 1461.2 1293.84 1468.33 Q1293.84 1475.44 1295.65 1479.01 Q1297.48 1482.55 1301.09 1482.55 Q1304.72 1482.55 1306.53 1479.01 Q1308.36 1475.44 1308.36 1468.33 Q1308.36 1461.2 1306.53 1457.66 Q1304.72 1454.1 1301.09 1454.1 M1301.09 1450.39 Q1306.9 1450.39 1309.96 1455 Q1313.03 1459.58 1313.03 1468.33 Q1313.03 1477.06 1309.96 1481.67 Q1306.9 1486.25 1301.09 1486.25 Q1295.28 1486.25 1292.2 1481.67 Q1289.15 1477.06 1289.15 1468.33 Q1289.15 1459.58 1292.2 1455 Q1295.28 1450.39 1301.09 1450.39 Z" fill="#ffffff" fill-rule="nonzero" fill-opacity="1" /><path clip-path="url(#clip640)" d="M1717.89 1481.64 L1725.53 1481.64 L1725.53 1455.28 L1717.22 1456.95 L1717.22 1452.69 L1725.48 1451.02 L1730.16 1451.02 L1730.16 1481.64 L1737.8 1481.64 L1737.8 1485.58 L1717.89 1485.58 L1717.89 1481.64 Z" fill="#ffffff" fill-rule="nonzero" fill-opacity="1" /><path clip-path="url(#clip640)" d="M1747.29 1451.02 L1765.65 1451.02 L1765.65 1454.96 L1751.57 1454.96 L1751.57 1463.43 Q1752.59 1463.08 1753.61 1462.92 Q1754.63 1462.73 1755.65 1462.73 Q1761.43 1462.73 1764.81 1465.9 Q1768.19 1469.08 1768.19 1474.49 Q1768.19 1480.07 1764.72 1483.17 Q1761.25 1486.25 1754.93 1486.25 Q1752.75 1486.25 1750.48 1485.88 Q1748.24 1485.51 1745.83 1484.77 L1745.83 1480.07 Q1747.91 1481.2 1750.14 1481.76 Q1752.36 1482.32 1754.84 1482.32 Q1758.84 1482.32 1761.18 1480.21 Q1763.52 1478.1 1763.52 1474.49 Q1763.52 1470.88 1761.18 1468.77 Q1758.84 1466.67 1754.84 1466.67 Q1752.96 1466.67 1751.09 1467.08 Q1749.23 1467.5 1747.29 1468.38 L1747.29 1451.02 Z" fill="#ffffff" fill-rule="nonzero" fill-opacity="1" /><path clip-path="url(#clip640)" d="M1787.41 1454.1 Q1783.79 1454.1 1781.97 1457.66 Q1780.16 1461.2 1780.16 1468.33 Q1780.16 1475.44 1781.97 1479.01 Q1783.79 1482.55 1787.41 1482.55 Q1791.04 1482.55 1792.84 1479.01 Q1794.67 1475.44 1794.67 1468.33 Q1794.67 1461.2 1792.84 1457.66 Q1791.04 1454.1 1787.41 1454.1 M1787.41 1450.39 Q1793.22 1450.39 1796.27 1455 Q1799.35 1459.58 1799.35 1468.33 Q1799.35 1477.06 1796.27 1481.67 Q1793.22 1486.25 1787.41 1486.25 Q1781.59 1486.25 1778.52 1481.67 Q1775.46 1477.06 1775.46 1468.33 Q1775.46 1459.58 1778.52 1455 Q1781.59 1450.39 1787.41 1450.39 Z" fill="#ffffff" fill-rule="nonzero" fill-opacity="1" /><path clip-path="url(#clip640)" d="M2208.29 1481.64 L2224.61 1481.64 L2224.61 1485.58 L2202.67 1485.58 L2202.67 1481.64 Q2205.33 1478.89 2209.91 1474.26 Q2214.52 1469.61 2215.7 1468.27 Q2217.94 1465.74 2218.82 1464.01 Q2219.73 1462.25 2219.73 1460.56 Q2219.73 1457.8 2217.78 1456.07 Q2215.86 1454.33 2212.76 1454.33 Q2210.56 1454.33 2208.11 1455.09 Q2205.68 1455.86 2202.9 1457.41 L2202.9 1452.69 Q2205.72 1451.55 2208.18 1450.97 Q2210.63 1450.39 2212.67 1450.39 Q2218.04 1450.39 2221.23 1453.08 Q2224.43 1455.77 2224.43 1460.26 Q2224.43 1462.39 2223.62 1464.31 Q2222.83 1466.2 2220.72 1468.8 Q2220.14 1469.47 2217.04 1472.69 Q2213.94 1475.88 2208.29 1481.64 Z" fill="#ffffff" fill-rule="nonzero" fill-opacity="1" /><path clip-path="url(#clip640)" d="M2244.43 1454.1 Q2240.81 1454.1 2238.99 1457.66 Q2237.18 1461.2 2237.18 1468.33 Q2237.18 1475.44 2238.99 1479.01 Q2240.81 1482.55 2244.43 1482.55 Q2248.06 1482.55 2249.87 1479.01 Q2251.69 1475.44 2251.69 1468.33 Q2251.69 1461.2 2249.87 1457.66 Q2248.06 1454.1 2244.43 1454.1 M2244.43 1450.39 Q2250.24 1450.39 2253.29 1455 Q2256.37 1459.58 2256.37 1468.33 Q2256.37 1477.06 2253.29 1481.67 Q2250.24 1486.25 2244.43 1486.25 Q2238.62 1486.25 2235.54 1481.67 Q2232.48 1477.06 2232.48 1468.33 Q2232.48 1459.58 2235.54 1455 Q2238.62 1450.39 2244.43 1450.39 Z" fill="#ffffff" fill-rule="nonzero" fill-opacity="1" /><path clip-path="url(#clip640)" d="M2274.59 1454.1 Q2270.98 1454.1 2269.15 1457.66 Q2267.34 1461.2 2267.34 1468.33 Q2267.34 1475.44 2269.15 1479.01 Q2270.98 1482.55 2274.59 1482.55 Q2278.22 1482.55 2280.03 1479.01 Q2281.86 1475.44 2281.86 1468.33 Q2281.86 1461.2 2280.03 1457.66 Q2278.22 1454.1 2274.59 1454.1 M2274.59 1450.39 Q2280.4 1450.39 2283.45 1455 Q2286.53 1459.58 2286.53 1468.33 Q2286.53 1477.06 2283.45 1481.67 Q2280.4 1486.25 2274.59 1486.25 Q2268.78 1486.25 2265.7 1481.67 Q2262.64 1477.06 2262.64 1468.33 Q2262.64 1459.58 2265.7 1455 Q2268.78 1450.39 2274.59 1450.39 Z" fill="#ffffff" fill-rule="nonzero" fill-opacity="1" /><path clip-path="url(#clip640)" d="M1024.99 1520.52 L1031.42 1520.52 L1031.42 1562.63 L1054.56 1562.63 L1054.56 1568.04 L1024.99 1568.04 L1024.99 1520.52 Z" fill="#ffffff" fill-rule="nonzero" fill-opacity="1" /><path clip-path="url(#clip640)" d="M1077.25 1550.12 Q1070.15 1550.12 1067.42 1551.75 Q1064.68 1553.37 1064.68 1557.29 Q1064.68 1560.4 1066.72 1562.25 Q1068.78 1564.07 1072.32 1564.07 Q1077.19 1564.07 1080.12 1560.63 Q1083.08 1557.16 1083.08 1551.43 L1083.08 1550.12 L1077.25 1550.12 M1088.93 1547.71 L1088.93 1568.04 L1083.08 1568.04 L1083.08 1562.63 Q1081.07 1565.88 1078.08 1567.44 Q1075.09 1568.97 1070.76 1568.97 Q1065.28 1568.97 1062.04 1565.91 Q1058.82 1562.82 1058.82 1557.67 Q1058.82 1551.65 1062.83 1548.6 Q1066.88 1545.54 1074.86 1545.54 L1083.08 1545.54 L1083.08 1544.97 Q1083.08 1540.93 1080.4 1538.73 Q1077.76 1536.5 1072.95 1536.5 Q1069.9 1536.5 1067 1537.23 Q1064.11 1537.97 1061.43 1539.43 L1061.43 1534.02 Q1064.65 1532.78 1067.67 1532.17 Q1070.69 1531.54 1073.56 1531.54 Q1081.29 1531.54 1085.11 1535.55 Q1088.93 1539.56 1088.93 1547.71 Z" fill="#ffffff" fill-rule="nonzero" fill-opacity="1" /><path clip-path="url(#clip640)" d="M1124.45 1549.81 Q1124.45 1543.44 1121.81 1539.94 Q1119.2 1536.44 1114.46 1536.44 Q1109.75 1536.44 1107.11 1539.94 Q1104.5 1543.44 1104.5 1549.81 Q1104.5 1556.14 1107.11 1559.64 Q1109.75 1563.14 1114.46 1563.14 Q1119.2 1563.14 1121.81 1559.64 Q1124.45 1556.14 1124.45 1549.81 M1130.31 1563.62 Q1130.31 1572.72 1126.27 1577.15 Q1122.22 1581.6 1113.89 1581.6 Q1110.8 1581.6 1108.06 1581.13 Q1105.32 1580.68 1102.75 1579.72 L1102.75 1574.03 Q1105.32 1575.43 1107.84 1576.1 Q1110.35 1576.76 1112.96 1576.76 Q1118.72 1576.76 1121.59 1573.74 Q1124.45 1570.75 1124.45 1564.67 L1124.45 1561.77 Q1122.64 1564.92 1119.81 1566.48 Q1116.97 1568.04 1113.03 1568.04 Q1106.47 1568.04 1102.46 1563.05 Q1098.45 1558.05 1098.45 1549.81 Q1098.45 1541.53 1102.46 1536.53 Q1106.47 1531.54 1113.03 1531.54 Q1116.97 1531.54 1119.81 1533.1 Q1122.64 1534.66 1124.45 1537.81 L1124.45 1532.4 L1130.31 1532.4 L1130.31 1563.62 Z" fill="#ffffff" fill-rule="nonzero" fill-opacity="1" /><path clip-path="url(#clip640)" d="M1177.16 1518.58 Q1172.9 1525.9 1170.83 1533.06 Q1168.76 1540.23 1168.76 1547.58 Q1168.76 1554.93 1170.83 1562.16 Q1172.93 1569.35 1177.16 1576.64 L1172.07 1576.64 Q1167.29 1569.16 1164.91 1561.93 Q1162.55 1554.71 1162.55 1547.58 Q1162.55 1540.48 1164.91 1533.29 Q1167.26 1526.09 1172.07 1518.58 L1177.16 1518.58 Z" fill="#ffffff" fill-rule="nonzero" fill-opacity="1" /><path clip-path="url(#clip640)" d="M1194.32 1522.27 L1194.32 1532.4 L1206.38 1532.4 L1206.38 1536.95 L1194.32 1536.95 L1194.32 1556.3 Q1194.32 1560.66 1195.49 1561.9 Q1196.7 1563.14 1200.36 1563.14 L1206.38 1563.14 L1206.38 1568.04 L1200.36 1568.04 Q1193.58 1568.04 1191.01 1565.53 Q1188.43 1562.98 1188.43 1556.3 L1188.43 1536.95 L1184.13 1536.95 L1184.13 1532.4 L1188.43 1532.4 L1188.43 1522.27 L1194.32 1522.27 Z" fill="#ffffff" fill-rule="nonzero" fill-opacity="1" /><path clip-path="url(#clip640)" d="M1234.74 1537.87 Q1233.75 1537.3 1232.57 1537.04 Q1231.43 1536.76 1230.03 1536.76 Q1225.06 1536.76 1222.39 1540 Q1219.75 1543.22 1219.75 1549.27 L1219.75 1568.04 L1213.86 1568.04 L1213.86 1532.4 L1219.75 1532.4 L1219.75 1537.93 Q1221.59 1534.69 1224.55 1533.13 Q1227.51 1531.54 1231.75 1531.54 Q1232.35 1531.54 1233.08 1531.63 Q1233.82 1531.7 1234.71 1531.85 L1234.74 1537.87 Z" fill="#ffffff" fill-rule="nonzero" fill-opacity="1" /><path clip-path="url(#clip640)" d="M1257.08 1550.12 Q1249.98 1550.12 1247.25 1551.75 Q1244.51 1553.37 1244.51 1557.29 Q1244.51 1560.4 1246.55 1562.25 Q1248.62 1564.07 1252.15 1564.07 Q1257.02 1564.07 1259.95 1560.63 Q1262.91 1557.16 1262.91 1551.43 L1262.91 1550.12 L1257.08 1550.12 M1268.76 1547.71 L1268.76 1568.04 L1262.91 1568.04 L1262.91 1562.63 Q1260.9 1565.88 1257.91 1567.44 Q1254.92 1568.97 1250.59 1568.97 Q1245.11 1568.97 1241.87 1565.91 Q1238.65 1562.82 1238.65 1557.67 Q1238.65 1551.65 1242.66 1548.6 Q1246.71 1545.54 1254.7 1545.54 L1262.91 1545.54 L1262.91 1544.97 Q1262.91 1540.93 1260.23 1538.73 Q1257.59 1536.5 1252.79 1536.5 Q1249.73 1536.5 1246.83 1537.23 Q1243.94 1537.97 1241.26 1539.43 L1241.26 1534.02 Q1244.48 1532.78 1247.5 1532.17 Q1250.53 1531.54 1253.39 1531.54 Q1261.12 1531.54 1264.94 1535.55 Q1268.76 1539.56 1268.76 1547.71 Z" fill="#ffffff" fill-rule="nonzero" fill-opacity="1" /><path clip-path="url(#clip640)" d="M1304.28 1537.81 L1304.28 1518.52 L1310.14 1518.52 L1310.14 1568.04 L1304.28 1568.04 L1304.28 1562.7 Q1302.44 1565.88 1299.61 1567.44 Q1296.8 1568.97 1292.86 1568.97 Q1286.4 1568.97 1282.32 1563.81 Q1278.28 1558.65 1278.28 1550.25 Q1278.28 1541.85 1282.32 1536.69 Q1286.4 1531.54 1292.86 1531.54 Q1296.8 1531.54 1299.61 1533.1 Q1302.44 1534.62 1304.28 1537.81 M1284.33 1550.25 Q1284.33 1556.71 1286.97 1560.4 Q1289.64 1564.07 1294.29 1564.07 Q1298.94 1564.07 1301.61 1560.4 Q1304.28 1556.71 1304.28 1550.25 Q1304.28 1543.79 1301.61 1540.13 Q1298.94 1536.44 1294.29 1536.44 Q1289.64 1536.44 1286.97 1540.13 Q1284.33 1543.79 1284.33 1550.25 Z" fill="#ffffff" fill-rule="nonzero" fill-opacity="1" /><path clip-path="url(#clip640)" d="M1322.2 1532.4 L1328.06 1532.4 L1328.06 1568.04 L1322.2 1568.04 L1322.2 1532.4 M1322.2 1518.52 L1328.06 1518.52 L1328.06 1525.93 L1322.2 1525.93 L1322.2 1518.52 Z" fill="#ffffff" fill-rule="nonzero" fill-opacity="1" /><path clip-path="url(#clip640)" d="M1369.95 1546.53 L1369.95 1568.04 L1364.09 1568.04 L1364.09 1546.72 Q1364.09 1541.66 1362.12 1539.14 Q1360.14 1536.63 1356.2 1536.63 Q1351.45 1536.63 1348.72 1539.65 Q1345.98 1542.68 1345.98 1547.9 L1345.98 1568.04 L1340.09 1568.04 L1340.09 1532.4 L1345.98 1532.4 L1345.98 1537.93 Q1348.08 1534.72 1350.91 1533.13 Q1353.78 1531.54 1357.5 1531.54 Q1363.64 1531.54 1366.8 1535.36 Q1369.95 1539.14 1369.95 1546.53 Z" fill="#ffffff" fill-rule="nonzero" fill-opacity="1" /><path clip-path="url(#clip640)" d="M1405.09 1549.81 Q1405.09 1543.44 1402.44 1539.94 Q1399.83 1536.44 1395.09 1536.44 Q1390.38 1536.44 1387.74 1539.94 Q1385.13 1543.44 1385.13 1549.81 Q1385.13 1556.14 1387.74 1559.64 Q1390.38 1563.14 1395.09 1563.14 Q1399.83 1563.14 1402.44 1559.64 Q1405.09 1556.14 1405.09 1549.81 M1410.94 1563.62 Q1410.94 1572.72 1406.9 1577.15 Q1402.86 1581.6 1394.52 1581.6 Q1391.43 1581.6 1388.69 1581.13 Q1385.96 1580.68 1383.38 1579.72 L1383.38 1574.03 Q1385.96 1575.43 1388.47 1576.1 Q1390.99 1576.76 1393.59 1576.76 Q1399.36 1576.76 1402.22 1573.74 Q1405.09 1570.75 1405.09 1564.67 L1405.09 1561.77 Q1403.27 1564.92 1400.44 1566.48 Q1397.61 1568.04 1393.66 1568.04 Q1387.1 1568.04 1383.09 1563.05 Q1379.08 1558.05 1379.08 1549.81 Q1379.08 1541.53 1383.09 1536.53 Q1387.1 1531.54 1393.66 1531.54 Q1397.61 1531.54 1400.44 1533.1 Q1403.27 1534.66 1405.09 1537.81 L1405.09 1532.4 L1410.94 1532.4 L1410.94 1563.62 Z" fill="#ffffff" fill-rule="nonzero" fill-opacity="1" /><path clip-path="url(#clip640)" d="M1467.18 1537.81 L1467.18 1518.52 L1473.04 1518.52 L1473.04 1568.04 L1467.18 1568.04 L1467.18 1562.7 Q1465.34 1565.88 1462.5 1567.44 Q1459.7 1568.97 1455.76 1568.97 Q1449.29 1568.97 1445.22 1563.81 Q1441.18 1558.65 1441.18 1550.25 Q1441.18 1541.85 1445.22 1536.69 Q1449.29 1531.54 1455.76 1531.54 Q1459.7 1531.54 1462.5 1533.1 Q1465.34 1534.62 1467.18 1537.81 M1447.23 1550.25 Q1447.23 1556.71 1449.87 1560.4 Q1452.54 1564.07 1457.19 1564.07 Q1461.84 1564.07 1464.51 1560.4 Q1467.18 1556.71 1467.18 1550.25 Q1467.18 1543.79 1464.51 1540.13 Q1461.84 1536.44 1457.19 1536.44 Q1452.54 1536.44 1449.87 1540.13 Q1447.23 1543.79 1447.23 1550.25 Z" fill="#ffffff" fill-rule="nonzero" fill-opacity="1" /><path clip-path="url(#clip640)" d="M1501.3 1550.12 Q1494.2 1550.12 1491.47 1551.75 Q1488.73 1553.37 1488.73 1557.29 Q1488.73 1560.4 1490.77 1562.25 Q1492.84 1564.07 1496.37 1564.07 Q1501.24 1564.07 1504.17 1560.63 Q1507.13 1557.16 1507.13 1551.43 L1507.13 1550.12 L1501.3 1550.12 M1512.98 1547.71 L1512.98 1568.04 L1507.13 1568.04 L1507.13 1562.63 Q1505.12 1565.88 1502.13 1567.44 Q1499.14 1568.97 1494.81 1568.97 Q1489.34 1568.97 1486.09 1565.91 Q1482.87 1562.82 1482.87 1557.67 Q1482.87 1551.65 1486.88 1548.6 Q1490.93 1545.54 1498.92 1545.54 L1507.13 1545.54 L1507.13 1544.97 Q1507.13 1540.93 1504.45 1538.73 Q1501.81 1536.5 1497.01 1536.5 Q1493.95 1536.5 1491.05 1537.23 Q1488.16 1537.97 1485.48 1539.43 L1485.48 1534.02 Q1488.7 1532.78 1491.72 1532.17 Q1494.75 1531.54 1497.61 1531.54 Q1505.34 1531.54 1509.16 1535.55 Q1512.98 1539.56 1512.98 1547.71 Z" fill="#ffffff" fill-rule="nonzero" fill-opacity="1" /><path clip-path="url(#clip640)" d="M1539.88 1571.35 Q1537.4 1577.72 1535.04 1579.66 Q1532.69 1581.6 1528.74 1581.6 L1524.06 1581.6 L1524.06 1576.7 L1527.5 1576.7 Q1529.92 1576.7 1531.25 1575.56 Q1532.59 1574.41 1534.21 1570.14 L1535.26 1567.47 L1520.85 1532.4 L1527.05 1532.4 L1538.19 1560.28 L1549.33 1532.4 L1555.54 1532.4 L1539.88 1571.35 Z" fill="#ffffff" fill-rule="nonzero" fill-opacity="1" /><path clip-path="url(#clip640)" d="M1562.7 1518.58 L1567.79 1518.58 Q1572.57 1526.09 1574.92 1533.29 Q1577.31 1540.48 1577.31 1547.58 Q1577.31 1554.71 1574.92 1561.93 Q1572.57 1569.16 1567.79 1576.64 L1562.7 1576.64 Q1566.93 1569.35 1569 1562.16 Q1571.1 1554.93 1571.1 1547.58 Q1571.1 1540.23 1569 1533.06 Q1566.93 1525.9 1562.7 1518.58 Z" fill="#ffffff" fill-rule="nonzero" fill-opacity="1" /><polyline clip-path="url(#clip640)" style="stroke:#ffffff; stroke-linecap:round; stroke-linejoin:round; stroke-width:4; stroke-opacity:1; fill:none" points="249.542,1423.18 249.542,47.2441 "/>
<polyline clip-path="url(#clip640)" style="stroke:#ffffff; stroke-linecap:round; stroke-linejoin:round; stroke-width:4; stroke-opacity:1; fill:none" points="2352.76,1423.18 2352.76,47.2441 "/>
<polyline clip-path="url(#clip640)" style="stroke:#ffffff; stroke-linecap:round; stroke-linejoin:round; stroke-width:4; stroke-opacity:1; fill:none" points="249.542,1208.92 268.44,1208.92 "/>
<polyline clip-path="url(#clip640)" style="stroke:#ffffff; stroke-linecap:round; stroke-linejoin:round; stroke-width:4; stroke-opacity:1; fill:none" points="249.542,928.237 268.44,928.237 "/>
<polyline clip-path="url(#clip640)" style="stroke:#ffffff; stroke-linecap:round; stroke-linejoin:round; stroke-width:4; stroke-opacity:1; fill:none" points="249.542,647.553 268.44,647.553 "/>
<polyline clip-path="url(#clip640)" style="stroke:#ffffff; stroke-linecap:round; stroke-linejoin:round; stroke-width:4; stroke-opacity:1; fill:none" points="249.542,366.869 268.44,366.869 "/>
<polyline clip-path="url(#clip640)" style="stroke:#ffffff; stroke-linecap:round; stroke-linejoin:round; stroke-width:4; stroke-opacity:1; fill:none" points="249.542,86.1857 268.44,86.1857 "/>
<polyline clip-path="url(#clip640)" style="stroke:#ffffff; stroke-linecap:round; stroke-linejoin:round; stroke-width:4; stroke-opacity:1; fill:none" points="2352.76,1208.92 2333.86,1208.92 "/>
<polyline clip-path="url(#clip640)" style="stroke:#ffffff; stroke-linecap:round; stroke-linejoin:round; stroke-width:4; stroke-opacity:1; fill:none" points="2352.76,928.237 2333.86,928.237 "/>
<polyline clip-path="url(#clip640)" style="stroke:#ffffff; stroke-linecap:round; stroke-linejoin:round; stroke-width:4; stroke-opacity:1; fill:none" points="2352.76,647.553 2333.86,647.553 "/>
<polyline clip-path="url(#clip640)" style="stroke:#ffffff; stroke-linecap:round; stroke-linejoin:round; stroke-width:4; stroke-opacity:1; fill:none" points="2352.76,366.869 2333.86,366.869 "/>
<polyline clip-path="url(#clip640)" style="stroke:#ffffff; stroke-linecap:round; stroke-linejoin:round; stroke-width:4; stroke-opacity:1; fill:none" points="2352.76,86.1857 2333.86,86.1857 "/>
<path clip-path="url(#clip640)" d="M126.205 1194.72 Q122.593 1194.72 120.765 1198.28 Q118.959 1201.83 118.959 1208.95 Q118.959 1216.06 120.765 1219.63 Q122.593 1223.17 126.205 1223.17 Q129.839 1223.17 131.644 1219.63 Q133.473 1216.06 133.473 1208.95 Q133.473 1201.83 131.644 1198.28 Q129.839 1194.72 126.205 1194.72 M126.205 1191.02 Q132.015 1191.02 135.07 1195.62 Q138.149 1200.21 138.149 1208.95 Q138.149 1217.68 135.07 1222.29 Q132.015 1226.87 126.205 1226.87 Q120.394 1226.87 117.316 1222.29 Q114.26 1217.68 114.26 1208.95 Q114.26 1200.21 117.316 1195.62 Q120.394 1191.02 126.205 1191.02 Z" fill="#ffffff" fill-rule="nonzero" fill-opacity="1" /><path clip-path="url(#clip640)" d="M146.366 1220.32 L151.251 1220.32 L151.251 1226.2 L146.366 1226.2 L146.366 1220.32 Z" fill="#ffffff" fill-rule="nonzero" fill-opacity="1" /><path clip-path="url(#clip640)" d="M171.436 1194.72 Q167.825 1194.72 165.996 1198.28 Q164.19 1201.83 164.19 1208.95 Q164.19 1216.06 165.996 1219.63 Q167.825 1223.17 171.436 1223.17 Q175.07 1223.17 176.876 1219.63 Q178.704 1216.06 178.704 1208.95 Q178.704 1201.83 176.876 1198.28 Q175.07 1194.72 171.436 1194.72 M171.436 1191.02 Q177.246 1191.02 180.301 1195.62 Q183.38 1200.21 183.38 1208.95 Q183.38 1217.68 180.301 1222.29 Q177.246 1226.87 171.436 1226.87 Q165.626 1226.87 162.547 1222.29 Q159.491 1217.68 159.491 1208.95 Q159.491 1200.21 162.547 1195.62 Q165.626 1191.02 171.436 1191.02 Z" fill="#ffffff" fill-rule="nonzero" fill-opacity="1" /><path clip-path="url(#clip640)" d="M201.598 1194.72 Q197.987 1194.72 196.158 1198.28 Q194.352 1201.83 194.352 1208.95 Q194.352 1216.06 196.158 1219.63 Q197.987 1223.17 201.598 1223.17 Q205.232 1223.17 207.037 1219.63 Q208.866 1216.06 208.866 1208.95 Q208.866 1201.83 207.037 1198.28 Q205.232 1194.72 201.598 1194.72 M201.598 1191.02 Q207.408 1191.02 210.463 1195.62 Q213.542 1200.21 213.542 1208.95 Q213.542 1217.68 210.463 1222.29 Q207.408 1226.87 201.598 1226.87 Q195.787 1226.87 192.709 1222.29 Q189.653 1217.68 189.653 1208.95 Q189.653 1200.21 192.709 1195.62 Q195.787 1191.02 201.598 1191.02 Z" fill="#ffffff" fill-rule="nonzero" fill-opacity="1" /><path clip-path="url(#clip640)" d="M127.2 914.035 Q123.589 914.035 121.76 917.6 Q119.955 921.142 119.955 928.271 Q119.955 935.378 121.76 938.943 Q123.589 942.484 127.2 942.484 Q130.834 942.484 132.64 938.943 Q134.468 935.378 134.468 928.271 Q134.468 921.142 132.64 917.6 Q130.834 914.035 127.2 914.035 M127.2 910.332 Q133.01 910.332 136.066 914.938 Q139.144 919.521 139.144 928.271 Q139.144 936.998 136.066 941.605 Q133.01 946.188 127.2 946.188 Q121.39 946.188 118.311 941.605 Q115.256 936.998 115.256 928.271 Q115.256 919.521 118.311 914.938 Q121.39 910.332 127.2 910.332 Z" fill="#ffffff" fill-rule="nonzero" fill-opacity="1" /><path clip-path="url(#clip640)" d="M147.362 939.637 L152.246 939.637 L152.246 945.517 L147.362 945.517 L147.362 939.637 Z" fill="#ffffff" fill-rule="nonzero" fill-opacity="1" /><path clip-path="url(#clip640)" d="M166.459 941.581 L182.778 941.581 L182.778 945.517 L160.834 945.517 L160.834 941.581 Q163.496 938.827 168.079 934.197 Q172.686 929.544 173.866 928.202 Q176.112 925.679 176.991 923.943 Q177.894 922.183 177.894 920.494 Q177.894 917.739 175.95 916.003 Q174.028 914.267 170.927 914.267 Q168.727 914.267 166.274 915.031 Q163.843 915.795 161.065 917.345 L161.065 912.623 Q163.89 911.489 166.343 910.91 Q168.797 910.332 170.834 910.332 Q176.204 910.332 179.399 913.017 Q182.593 915.702 182.593 920.193 Q182.593 922.322 181.783 924.244 Q180.996 926.142 178.889 928.734 Q178.311 929.406 175.209 932.623 Q172.107 935.818 166.459 941.581 Z" fill="#ffffff" fill-rule="nonzero" fill-opacity="1" /><path clip-path="url(#clip640)" d="M192.639 910.957 L210.996 910.957 L210.996 914.892 L196.922 914.892 L196.922 923.364 Q197.94 923.017 198.959 922.855 Q199.977 922.67 200.996 922.67 Q206.783 922.67 210.162 925.841 Q213.542 929.012 213.542 934.429 Q213.542 940.007 210.07 943.109 Q206.598 946.188 200.278 946.188 Q198.102 946.188 195.834 945.818 Q193.588 945.447 191.181 944.706 L191.181 940.007 Q193.264 941.142 195.487 941.697 Q197.709 942.253 200.186 942.253 Q204.19 942.253 206.528 940.146 Q208.866 938.04 208.866 934.429 Q208.866 930.818 206.528 928.711 Q204.19 926.605 200.186 926.605 Q198.311 926.605 196.436 927.021 Q194.584 927.438 192.639 928.318 L192.639 910.957 Z" fill="#ffffff" fill-rule="nonzero" fill-opacity="1" /><path clip-path="url(#clip640)" d="M126.205 633.352 Q122.593 633.352 120.765 636.916 Q118.959 640.458 118.959 647.588 Q118.959 654.694 120.765 658.259 Q122.593 661.801 126.205 661.801 Q129.839 661.801 131.644 658.259 Q133.473 654.694 133.473 647.588 Q133.473 640.458 131.644 636.916 Q129.839 633.352 126.205 633.352 M126.205 629.648 Q132.015 629.648 135.07 634.254 Q138.149 638.838 138.149 647.588 Q138.149 656.314 135.07 660.921 Q132.015 665.504 126.205 665.504 Q120.394 665.504 117.316 660.921 Q114.26 656.314 114.26 647.588 Q114.26 638.838 117.316 634.254 Q120.394 629.648 126.205 629.648 Z" fill="#ffffff" fill-rule="nonzero" fill-opacity="1" /><path clip-path="url(#clip640)" d="M146.366 658.953 L151.251 658.953 L151.251 664.833 L146.366 664.833 L146.366 658.953 Z" fill="#ffffff" fill-rule="nonzero" fill-opacity="1" /><path clip-path="url(#clip640)" d="M161.482 630.273 L179.839 630.273 L179.839 634.208 L165.765 634.208 L165.765 642.68 Q166.783 642.333 167.802 642.171 Q168.82 641.986 169.839 641.986 Q175.626 641.986 179.005 645.157 Q182.385 648.328 182.385 653.745 Q182.385 659.324 178.913 662.426 Q175.44 665.504 169.121 665.504 Q166.945 665.504 164.677 665.134 Q162.431 664.764 160.024 664.023 L160.024 659.324 Q162.107 660.458 164.329 661.014 Q166.552 661.569 169.028 661.569 Q173.033 661.569 175.371 659.463 Q177.709 657.356 177.709 653.745 Q177.709 650.134 175.371 648.028 Q173.033 645.921 169.028 645.921 Q167.153 645.921 165.278 646.338 Q163.427 646.754 161.482 647.634 L161.482 630.273 Z" fill="#ffffff" fill-rule="nonzero" fill-opacity="1" /><path clip-path="url(#clip640)" d="M201.598 633.352 Q197.987 633.352 196.158 636.916 Q194.352 640.458 194.352 647.588 Q194.352 654.694 196.158 658.259 Q197.987 661.801 201.598 661.801 Q205.232 661.801 207.037 658.259 Q208.866 654.694 208.866 647.588 Q208.866 640.458 207.037 636.916 Q205.232 633.352 201.598 633.352 M201.598 629.648 Q207.408 629.648 210.463 634.254 Q213.542 638.838 213.542 647.588 Q213.542 656.314 210.463 660.921 Q207.408 665.504 201.598 665.504 Q195.787 665.504 192.709 660.921 Q189.653 656.314 189.653 647.588 Q189.653 638.838 192.709 634.254 Q195.787 629.648 201.598 629.648 Z" fill="#ffffff" fill-rule="nonzero" fill-opacity="1" /><path clip-path="url(#clip640)" d="M127.2 352.668 Q123.589 352.668 121.76 356.233 Q119.955 359.774 119.955 366.904 Q119.955 374.01 121.76 377.575 Q123.589 381.117 127.2 381.117 Q130.834 381.117 132.64 377.575 Q134.468 374.01 134.468 366.904 Q134.468 359.774 132.64 356.233 Q130.834 352.668 127.2 352.668 M127.2 348.964 Q133.01 348.964 136.066 353.571 Q139.144 358.154 139.144 366.904 Q139.144 375.631 136.066 380.237 Q133.01 384.821 127.2 384.821 Q121.39 384.821 118.311 380.237 Q115.256 375.631 115.256 366.904 Q115.256 358.154 118.311 353.571 Q121.39 348.964 127.2 348.964 Z" fill="#ffffff" fill-rule="nonzero" fill-opacity="1" /><path clip-path="url(#clip640)" d="M147.362 378.27 L152.246 378.27 L152.246 384.149 L147.362 384.149 L147.362 378.27 Z" fill="#ffffff" fill-rule="nonzero" fill-opacity="1" /><path clip-path="url(#clip640)" d="M161.251 349.589 L183.473 349.589 L183.473 351.58 L170.927 384.149 L166.042 384.149 L177.848 353.524 L161.251 353.524 L161.251 349.589 Z" fill="#ffffff" fill-rule="nonzero" fill-opacity="1" /><path clip-path="url(#clip640)" d="M192.639 349.589 L210.996 349.589 L210.996 353.524 L196.922 353.524 L196.922 361.997 Q197.94 361.649 198.959 361.487 Q199.977 361.302 200.996 361.302 Q206.783 361.302 210.162 364.474 Q213.542 367.645 213.542 373.061 Q213.542 378.64 210.07 381.742 Q206.598 384.821 200.278 384.821 Q198.102 384.821 195.834 384.45 Q193.588 384.08 191.181 383.339 L191.181 378.64 Q193.264 379.774 195.487 380.33 Q197.709 380.885 200.186 380.885 Q204.19 380.885 206.528 378.779 Q208.866 376.673 208.866 373.061 Q208.866 369.45 206.528 367.344 Q204.19 365.237 200.186 365.237 Q198.311 365.237 196.436 365.654 Q194.584 366.071 192.639 366.95 L192.639 349.589 Z" fill="#ffffff" fill-rule="nonzero" fill-opacity="1" /><path clip-path="url(#clip640)" d="M117.015 99.5305 L124.654 99.5305 L124.654 73.1649 L116.343 74.8316 L116.343 70.5723 L124.607 68.9057 L129.283 68.9057 L129.283 99.5305 L136.922 99.5305 L136.922 103.466 L117.015 103.466 L117.015 99.5305 Z" fill="#ffffff" fill-rule="nonzero" fill-opacity="1" /><path clip-path="url(#clip640)" d="M146.366 97.5861 L151.251 97.5861 L151.251 103.466 L146.366 103.466 L146.366 97.5861 Z" fill="#ffffff" fill-rule="nonzero" fill-opacity="1" /><path clip-path="url(#clip640)" d="M171.436 71.9844 Q167.825 71.9844 165.996 75.5492 Q164.19 79.0908 164.19 86.2204 Q164.19 93.3268 165.996 96.8916 Q167.825 100.433 171.436 100.433 Q175.07 100.433 176.876 96.8916 Q178.704 93.3268 178.704 86.2204 Q178.704 79.0908 176.876 75.5492 Q175.07 71.9844 171.436 71.9844 M171.436 68.2807 Q177.246 68.2807 180.301 72.8871 Q183.38 77.4704 183.38 86.2204 Q183.38 94.9472 180.301 99.5537 Q177.246 104.137 171.436 104.137 Q165.626 104.137 162.547 99.5537 Q159.491 94.9472 159.491 86.2204 Q159.491 77.4704 162.547 72.8871 Q165.626 68.2807 171.436 68.2807 Z" fill="#ffffff" fill-rule="nonzero" fill-opacity="1" /><path clip-path="url(#clip640)" d="M201.598 71.9844 Q197.987 71.9844 196.158 75.5492 Q194.352 79.0908 194.352 86.2204 Q194.352 93.3268 196.158 96.8916 Q197.987 100.433 201.598 100.433 Q205.232 100.433 207.037 96.8916 Q208.866 93.3268 208.866 86.2204 Q208.866 79.0908 207.037 75.5492 Q205.232 71.9844 201.598 71.9844 M201.598 68.2807 Q207.408 68.2807 210.463 72.8871 Q213.542 77.4704 213.542 86.2204 Q213.542 94.9472 210.463 99.5537 Q207.408 104.137 201.598 104.137 Q195.787 104.137 192.709 99.5537 Q189.653 94.9472 189.653 86.2204 Q189.653 77.4704 192.709 72.8871 Q195.787 68.2807 201.598 68.2807 Z" fill="#ffffff" fill-rule="nonzero" fill-opacity="1" /><path clip-path="url(#clip640)" d="M22.818 1293.91 L46.4666 1302.64 L46.4666 1285.16 L22.818 1293.91 M16.4842 1297.54 L16.4842 1290.25 L64.0042 1272.14 L64.0042 1278.83 L51.8138 1283.16 L51.8138 1304.58 L64.0042 1308.91 L64.0042 1315.68 L16.4842 1297.54 Z" fill="#ffffff" fill-rule="nonzero" fill-opacity="1" /><path clip-path="url(#clip640)" d="M22.818 1247.51 L46.4666 1256.23 L46.4666 1238.76 L22.818 1247.51 M16.4842 1251.14 L16.4842 1243.85 L64.0042 1225.74 L64.0042 1232.42 L51.8138 1236.75 L51.8138 1258.17 L64.0042 1262.5 L64.0042 1269.28 L16.4842 1251.14 Z" fill="#ffffff" fill-rule="nonzero" fill-opacity="1" /><path clip-path="url(#clip640)" d="M21.7677 1212.37 L39.6235 1212.37 L39.6235 1204.28 Q39.6235 1199.8 37.3 1197.35 Q34.9765 1194.9 30.6797 1194.9 Q26.4147 1194.9 24.0912 1197.35 Q21.7677 1199.8 21.7677 1204.28 L21.7677 1212.37 M16.4842 1218.8 L16.4842 1204.28 Q16.4842 1196.3 20.1126 1192.22 Q23.7092 1188.12 30.6797 1188.12 Q37.7138 1188.12 41.3104 1192.22 Q44.907 1196.3 44.907 1204.28 L44.907 1212.37 L64.0042 1212.37 L64.0042 1218.8 L16.4842 1218.8 Z" fill="#ffffff" fill-rule="nonzero" fill-opacity="1" /><path clip-path="url(#clip640)" d="M16.4842 1179.49 L16.4842 1173.06 L58.5933 1173.06 L58.5933 1149.92 L64.0042 1149.92 L64.0042 1179.49 L16.4842 1179.49 Z" fill="#ffffff" fill-rule="nonzero" fill-opacity="1" /><path clip-path="url(#clip640)" d="M46.0847 1106.51 Q46.0847 1113.61 47.7079 1116.34 Q49.3312 1119.08 53.2461 1119.08 Q56.3653 1119.08 58.2114 1117.04 Q60.0256 1114.97 60.0256 1111.44 Q60.0256 1106.57 56.5881 1103.64 Q53.1188 1100.68 47.3897 1100.68 L46.0847 1100.68 L46.0847 1106.51 M43.6657 1094.83 L64.0042 1094.83 L64.0042 1100.68 L58.5933 1100.68 Q61.8398 1102.69 63.3994 1105.68 Q64.9272 1108.67 64.9272 1113 Q64.9272 1118.48 61.8716 1121.72 Q58.7843 1124.94 53.6281 1124.94 Q47.6125 1124.94 44.5569 1120.93 Q41.5014 1116.88 41.5014 1108.89 L41.5014 1100.68 L40.9285 1100.68 Q36.8862 1100.68 34.6901 1103.36 Q32.4621 1106 32.4621 1110.8 Q32.4621 1113.86 33.1941 1116.76 Q33.9262 1119.65 35.3903 1122.33 L29.9795 1122.33 Q28.7381 1119.11 28.1334 1116.09 Q27.4968 1113.06 27.4968 1110.2 Q27.4968 1102.47 31.5072 1098.65 Q35.5176 1094.83 43.6657 1094.83 Z" fill="#ffffff" fill-rule="nonzero" fill-opacity="1" /><path clip-path="url(#clip640)" d="M49.9359 1083.37 L28.3562 1083.37 L28.3562 1077.51 L49.7131 1077.51 Q54.7739 1077.51 57.3202 1075.54 Q59.8346 1073.57 59.8346 1069.62 Q59.8346 1064.88 56.8109 1062.14 Q53.7872 1059.37 48.5673 1059.37 L28.3562 1059.37 L28.3562 1053.51 L64.0042 1053.51 L64.0042 1059.37 L58.5296 1059.37 Q61.7762 1061.5 63.3676 1064.33 Q64.9272 1067.14 64.9272 1070.86 Q64.9272 1077 61.1078 1080.19 Q57.2883 1083.37 49.9359 1083.37 M27.4968 1068.63 L27.4968 1068.63 Z" fill="#ffffff" fill-rule="nonzero" fill-opacity="1" /><path clip-path="url(#clip640)" d="M18.2347 1035.66 L28.3562 1035.66 L28.3562 1023.59 L32.9077 1023.59 L32.9077 1035.66 L52.2594 1035.66 Q56.6199 1035.66 57.8613 1034.48 Q59.1026 1033.27 59.1026 1029.61 L59.1026 1023.59 L64.0042 1023.59 L64.0042 1029.61 Q64.0042 1036.39 61.4897 1038.97 Q58.9434 1041.55 52.2594 1041.55 L32.9077 1041.55 L32.9077 1045.84 L28.3562 1045.84 L28.3562 1041.55 L18.2347 1041.55 L18.2347 1035.66 Z" fill="#ffffff" fill-rule="nonzero" fill-opacity="1" /><path clip-path="url(#clip640)" d="M32.4621 1002.08 Q32.4621 1006.79 36.1542 1009.53 Q39.8145 1012.26 46.212 1012.26 Q52.6095 1012.26 56.3017 1009.56 Q59.9619 1006.82 59.9619 1002.08 Q59.9619 997.4 56.2698 994.662 Q52.5777 991.925 46.212 991.925 Q39.8781 991.925 36.186 994.662 Q32.4621 997.4 32.4621 1002.08 M27.4968 1002.08 Q27.4968 994.439 32.4621 990.079 Q37.4273 985.718 46.212 985.718 Q54.9649 985.718 59.9619 990.079 Q64.9272 994.439 64.9272 1002.08 Q64.9272 1009.75 59.9619 1014.11 Q54.9649 1018.44 46.212 1018.44 Q37.4273 1018.44 32.4621 1014.11 Q27.4968 1009.75 27.4968 1002.08 Z" fill="#ffffff" fill-rule="nonzero" fill-opacity="1" /><path clip-path="url(#clip640)" d="M29.7248 950.357 L35.1993 950.357 Q33.8307 952.84 33.1623 955.354 Q32.4621 957.837 32.4621 960.383 Q32.4621 966.08 36.0905 969.231 Q39.6872 972.382 46.212 972.382 Q52.7369 972.382 56.3653 969.231 Q59.9619 966.08 59.9619 960.383 Q59.9619 957.837 59.2935 955.354 Q58.5933 952.84 57.2247 950.357 L62.6355 950.357 Q63.7814 952.808 64.3543 955.45 Q64.9272 958.059 64.9272 961.019 Q64.9272 969.072 59.8664 973.815 Q54.8057 978.557 46.212 978.557 Q37.491 978.557 32.4939 973.783 Q27.4968 968.977 27.4968 960.638 Q27.4968 957.932 28.0697 955.354 Q28.6108 952.776 29.7248 950.357 Z" fill="#ffffff" fill-rule="nonzero" fill-opacity="1" /><path clip-path="url(#clip640)" d="M32.4621 926.358 Q32.4621 931.069 36.1542 933.806 Q39.8145 936.543 46.212 936.543 Q52.6095 936.543 56.3017 933.838 Q59.9619 931.101 59.9619 926.358 Q59.9619 921.679 56.2698 918.942 Q52.5777 916.205 46.212 916.205 Q39.8781 916.205 36.186 918.942 Q32.4621 921.679 32.4621 926.358 M27.4968 926.358 Q27.4968 918.719 32.4621 914.359 Q37.4273 909.998 46.212 909.998 Q54.9649 909.998 59.9619 914.359 Q64.9272 918.719 64.9272 926.358 Q64.9272 934.029 59.9619 938.389 Q54.9649 942.718 46.212 942.718 Q37.4273 942.718 32.4621 938.389 Q27.4968 934.029 27.4968 926.358 Z" fill="#ffffff" fill-rule="nonzero" fill-opacity="1" /><path clip-path="url(#clip640)" d="M33.8307 879.634 Q33.2578 880.621 33.0032 881.798 Q32.7167 882.944 32.7167 884.345 Q32.7167 889.31 35.9632 891.983 Q39.1779 894.625 45.2253 894.625 L64.0042 894.625 L64.0042 900.513 L28.3562 900.513 L28.3562 894.625 L33.8944 894.625 Q30.6479 892.779 29.0883 889.819 Q27.4968 886.859 27.4968 882.626 Q27.4968 882.021 27.5923 881.289 Q27.656 880.557 27.8151 879.666 L33.8307 879.634 Z" fill="#ffffff" fill-rule="nonzero" fill-opacity="1" /><path clip-path="url(#clip640)" d="M33.8307 853.98 Q33.2578 854.967 33.0032 856.144 Q32.7167 857.29 32.7167 858.691 Q32.7167 863.656 35.9632 866.33 Q39.1779 868.971 45.2253 868.971 L64.0042 868.971 L64.0042 874.86 L28.3562 874.86 L28.3562 868.971 L33.8944 868.971 Q30.6479 867.125 29.0883 864.165 Q27.4968 861.205 27.4968 856.972 Q27.4968 856.367 27.5923 855.635 Q27.656 854.903 27.8151 854.012 L33.8307 853.98 Z" fill="#ffffff" fill-rule="nonzero" fill-opacity="1" /><path clip-path="url(#clip640)" d="M44.7161 818.778 L47.5806 818.778 L47.5806 845.705 Q53.6281 845.323 56.8109 842.076 Q59.9619 838.798 59.9619 832.973 Q59.9619 829.599 59.1344 826.448 Q58.3069 823.266 56.6518 820.146 L62.1899 820.146 Q63.5267 823.297 64.227 826.608 Q64.9272 829.918 64.9272 833.323 Q64.9272 841.853 59.9619 846.851 Q54.9967 851.816 46.5303 851.816 Q37.7774 851.816 32.6531 847.105 Q27.4968 842.363 27.4968 834.342 Q27.4968 827.149 32.1438 822.979 Q36.7589 818.778 44.7161 818.778 M42.9973 824.634 Q38.1912 824.698 35.3266 827.34 Q32.4621 829.95 32.4621 834.278 Q32.4621 839.18 35.2312 842.14 Q38.0002 845.068 43.0292 845.514 L42.9973 824.634 Z" fill="#ffffff" fill-rule="nonzero" fill-opacity="1" /><path clip-path="url(#clip640)" d="M14.479 809.166 L14.479 803.309 L64.0042 803.309 L64.0042 809.166 L14.479 809.166 Z" fill="#ffffff" fill-rule="nonzero" fill-opacity="1" /><path clip-path="url(#clip640)" d="M46.0847 774.854 Q46.0847 781.952 47.7079 784.689 Q49.3312 787.427 53.2461 787.427 Q56.3653 787.427 58.2114 785.39 Q60.0256 783.321 60.0256 779.788 Q60.0256 774.918 56.5881 771.99 Q53.1188 769.03 47.3897 769.03 L46.0847 769.03 L46.0847 774.854 M43.6657 763.173 L64.0042 763.173 L64.0042 769.03 L58.5933 769.03 Q61.8398 771.035 63.3994 774.027 Q64.9272 777.019 64.9272 781.347 Q64.9272 786.822 61.8716 790.068 Q58.7843 793.283 53.6281 793.283 Q47.6125 793.283 44.5569 789.273 Q41.5014 785.231 41.5014 777.242 L41.5014 769.03 L40.9285 769.03 Q36.8862 769.03 34.6901 771.703 Q32.4621 774.345 32.4621 779.151 Q32.4621 782.207 33.1941 785.103 Q33.9262 788 35.3903 790.673 L29.9795 790.673 Q28.7381 787.459 28.1334 784.435 Q27.4968 781.411 27.4968 778.547 Q27.4968 770.812 31.5072 766.993 Q35.5176 763.173 43.6657 763.173 Z" fill="#ffffff" fill-rule="nonzero" fill-opacity="1" /><path clip-path="url(#clip640)" d="M18.2347 745.318 L28.3562 745.318 L28.3562 733.255 L32.9077 733.255 L32.9077 745.318 L52.2594 745.318 Q56.6199 745.318 57.8613 744.14 Q59.1026 742.93 59.1026 739.27 L59.1026 733.255 L64.0042 733.255 L64.0042 739.27 Q64.0042 746.05 61.4897 748.628 Q58.9434 751.206 52.2594 751.206 L32.9077 751.206 L32.9077 755.503 L28.3562 755.503 L28.3562 751.206 L18.2347 751.206 L18.2347 745.318 Z" fill="#ffffff" fill-rule="nonzero" fill-opacity="1" /><path clip-path="url(#clip640)" d="M28.3562 725.552 L28.3562 719.696 L64.0042 719.696 L64.0042 725.552 L28.3562 725.552 M14.479 725.552 L14.479 719.696 L21.895 719.696 L21.895 725.552 L14.479 725.552 Z" fill="#ffffff" fill-rule="nonzero" fill-opacity="1" /><path clip-path="url(#clip640)" d="M32.4621 693.628 Q32.4621 698.339 36.1542 701.076 Q39.8145 703.813 46.212 703.813 Q52.6095 703.813 56.3017 701.108 Q59.9619 698.37 59.9619 693.628 Q59.9619 688.949 56.2698 686.212 Q52.5777 683.475 46.212 683.475 Q39.8781 683.475 36.186 686.212 Q32.4621 688.949 32.4621 693.628 M27.4968 693.628 Q27.4968 685.989 32.4621 681.629 Q37.4273 677.268 46.212 677.268 Q54.9649 677.268 59.9619 681.629 Q64.9272 685.989 64.9272 693.628 Q64.9272 701.299 59.9619 705.659 Q54.9649 709.988 46.212 709.988 Q37.4273 709.988 32.4621 705.659 Q27.4968 701.299 27.4968 693.628 Z" fill="#ffffff" fill-rule="nonzero" fill-opacity="1" /><path clip-path="url(#clip640)" d="M42.4881 637.928 L64.0042 637.928 L64.0042 643.785 L42.679 643.785 Q37.6183 643.785 35.1038 645.758 Q32.5894 647.731 32.5894 651.678 Q32.5894 656.42 35.6131 659.158 Q38.6368 661.895 43.8567 661.895 L64.0042 661.895 L64.0042 667.783 L28.3562 667.783 L28.3562 661.895 L33.8944 661.895 Q30.6797 659.794 29.0883 656.962 Q27.4968 654.097 27.4968 650.373 Q27.4968 644.23 31.3163 641.079 Q35.1038 637.928 42.4881 637.928 Z" fill="#ffffff" fill-rule="nonzero" fill-opacity="1" /><path clip-path="url(#clip640)" d="M14.1925 597.983 L79.3773 597.983 L79.3773 603.394 L14.1925 603.394 L14.1925 597.983 Z" fill="#ffffff" fill-rule="nonzero" fill-opacity="1" /><path clip-path="url(#clip640)" d="M45.7664 560.107 Q39.4007 560.107 35.8996 562.749 Q32.3984 565.359 32.3984 570.101 Q32.3984 574.812 35.8996 577.454 Q39.4007 580.064 45.7664 580.064 Q52.1003 580.064 55.6014 577.454 Q59.1026 574.812 59.1026 570.101 Q59.1026 565.359 55.6014 562.749 Q52.1003 560.107 45.7664 560.107 M59.58 554.251 Q68.683 554.251 73.1071 558.293 Q77.5631 562.335 77.5631 570.674 Q77.5631 573.762 77.0857 576.499 Q76.6401 579.236 75.6852 581.814 L69.9879 581.814 Q71.3884 579.236 72.0568 576.722 Q72.7252 574.207 72.7252 571.597 Q72.7252 565.836 69.7015 562.972 Q66.7096 560.107 60.6303 560.107 L57.7339 560.107 Q60.885 561.922 62.4446 564.754 Q64.0042 567.587 64.0042 571.534 Q64.0042 578.09 59.0071 582.101 Q54.01 586.111 45.7664 586.111 Q37.491 586.111 32.4939 582.101 Q27.4968 578.09 27.4968 571.534 Q27.4968 567.587 29.0564 564.754 Q30.616 561.922 33.7671 560.107 L28.3562 560.107 L28.3562 554.251 L59.58 554.251 Z" fill="#ffffff" fill-rule="nonzero" fill-opacity="1" /><path clip-path="url(#clip640)" d="M33.8307 521.531 Q33.2578 522.518 33.0032 523.695 Q32.7167 524.841 32.7167 526.242 Q32.7167 531.207 35.9632 533.881 Q39.1779 536.522 45.2253 536.522 L64.0042 536.522 L64.0042 542.411 L28.3562 542.411 L28.3562 536.522 L33.8944 536.522 Q30.6479 534.676 29.0883 531.716 Q27.4968 528.756 27.4968 524.523 Q27.4968 523.918 27.5923 523.186 Q27.656 522.454 27.8151 521.563 L33.8307 521.531 Z" fill="#ffffff" fill-rule="nonzero" fill-opacity="1" /><path clip-path="url(#clip640)" d="M32.4621 503.007 Q32.4621 507.718 36.1542 510.455 Q39.8145 513.192 46.212 513.192 Q52.6095 513.192 56.3017 510.487 Q59.9619 507.749 59.9619 503.007 Q59.9619 498.328 56.2698 495.591 Q52.5777 492.854 46.212 492.854 Q39.8781 492.854 36.186 495.591 Q32.4621 498.328 32.4621 503.007 M27.4968 503.007 Q27.4968 495.368 32.4621 491.008 Q37.4273 486.647 46.212 486.647 Q54.9649 486.647 59.9619 491.008 Q64.9272 495.368 64.9272 503.007 Q64.9272 510.678 59.9619 515.038 Q54.9649 519.367 46.212 519.367 Q37.4273 519.367 32.4621 515.038 Q27.4968 510.678 27.4968 503.007 Z" fill="#ffffff" fill-rule="nonzero" fill-opacity="1" /><path clip-path="url(#clip640)" d="M28.3562 480.345 L28.3562 474.489 L56.1743 467.168 L28.3562 459.879 L28.3562 452.972 L56.1743 445.652 L28.3562 438.363 L28.3562 432.507 L64.0042 441.832 L64.0042 448.739 L34.7856 456.41 L64.0042 464.112 L64.0042 471.019 L28.3562 480.345 Z" fill="#ffffff" fill-rule="nonzero" fill-opacity="1" /><path clip-path="url(#clip640)" d="M18.2347 417.834 L28.3562 417.834 L28.3562 405.771 L32.9077 405.771 L32.9077 417.834 L52.2594 417.834 Q56.6199 417.834 57.8613 416.656 Q59.1026 415.447 59.1026 411.786 L59.1026 405.771 L64.0042 405.771 L64.0042 411.786 Q64.0042 418.566 61.4897 421.144 Q58.9434 423.722 52.2594 423.722 L32.9077 423.722 L32.9077 428.019 L28.3562 428.019 L28.3562 423.722 L18.2347 423.722 L18.2347 417.834 Z" fill="#ffffff" fill-rule="nonzero" fill-opacity="1" /><path clip-path="url(#clip640)" d="M42.4881 368.436 L64.0042 368.436 L64.0042 374.292 L42.679 374.292 Q37.6183 374.292 35.1038 376.266 Q32.5894 378.239 32.5894 382.186 Q32.5894 386.928 35.6131 389.665 Q38.6368 392.403 43.8567 392.403 L64.0042 392.403 L64.0042 398.291 L14.479 398.291 L14.479 392.403 L33.8944 392.403 Q30.6797 390.302 29.0883 387.469 Q27.4968 384.605 27.4968 380.881 Q27.4968 374.738 31.3163 371.587 Q35.1038 368.436 42.4881 368.436 Z" fill="#ffffff" fill-rule="nonzero" fill-opacity="1" /><path clip-path="url(#clip640)" d="M14.1925 349.211 L79.3773 349.211 L79.3773 354.622 L14.1925 354.622 L14.1925 349.211 Z" fill="#ffffff" fill-rule="nonzero" fill-opacity="1" /><path clip-path="url(#clip640)" d="M39.7508 333.488 L50.3497 333.488 L50.3497 337.212 L22.7862 337.212 L22.7862 333.488 L25.8099 333.488 Q24.0275 332.342 23.1681 330.56 Q22.3088 328.778 22.3088 326.327 Q22.3088 322.221 25.1733 319.675 Q28.0697 317.128 32.7804 317.128 Q37.491 317.128 40.3874 319.675 Q43.252 322.221 43.252 326.327 Q43.252 328.778 42.3926 330.56 Q41.5332 332.342 39.7508 333.488 M38.4458 322.603 Q36.4088 320.948 32.7804 320.948 Q29.1519 320.948 27.1149 322.603 Q25.046 324.29 25.046 327.218 Q25.046 330.146 27.1149 331.833 Q29.1519 333.488 32.7804 333.488 Q36.4088 333.488 38.4458 331.833 Q40.5147 330.146 40.5147 327.218 Q40.5147 324.29 38.4458 322.603 Z" fill="#ffffff" fill-rule="nonzero" fill-opacity="1" /><path clip-path="url(#clip640)" d="M14.5426 272.091 Q21.8632 276.356 29.0246 278.425 Q36.186 280.494 43.5384 280.494 Q50.8908 280.494 58.1159 278.425 Q65.3091 276.324 72.5979 272.091 L72.5979 277.183 Q65.1182 281.958 57.8931 284.345 Q50.668 286.7 43.5384 286.7 Q36.4406 286.7 29.2474 284.345 Q22.0542 281.99 14.5426 277.183 L14.5426 272.091 Z" fill="#ffffff" fill-rule="nonzero" fill-opacity="1" /><path clip-path="url(#clip640)" d="M22.818 244.591 L46.4666 253.312 L46.4666 235.838 L22.818 244.591 M16.4842 248.219 L16.4842 240.931 L64.0042 222.82 L64.0042 229.504 L51.8138 233.833 L51.8138 255.254 L64.0042 259.582 L64.0042 266.362 L16.4842 248.219 Z" fill="#ffffff" fill-rule="nonzero" fill-opacity="1" /><path clip-path="url(#clip640)" d="M16.4842 216.614 L16.4842 210.153 L45.3526 210.153 Q52.9915 210.153 56.3653 207.383 Q59.7073 204.614 59.7073 198.408 Q59.7073 192.233 56.3653 189.464 Q52.9915 186.695 45.3526 186.695 L16.4842 186.695 L16.4842 180.234 L46.1484 180.234 Q55.4423 180.234 60.1847 184.849 Q64.9272 189.432 64.9272 198.408 Q64.9272 207.415 60.1847 212.03 Q55.4423 216.614 46.1484 216.614 L16.4842 216.614 Z" fill="#ffffff" fill-rule="nonzero" fill-opacity="1" /><path clip-path="url(#clip640)" d="M14.5426 169.348 L14.5426 164.256 Q22.0542 159.482 29.2474 157.126 Q36.4406 154.739 43.5384 154.739 Q50.668 154.739 57.8931 157.126 Q65.1182 159.482 72.5979 164.256 L72.5979 169.348 Q65.3091 165.115 58.1159 163.046 Q50.8908 160.946 43.5384 160.946 Q36.186 160.946 29.0246 163.046 Q21.8632 165.115 14.5426 169.348 Z" fill="#ffffff" fill-rule="nonzero" fill-opacity="1" /><polyline clip-path="url(#clip642)" style="stroke:#ff7d00; stroke-linecap:round; stroke-linejoin:round; stroke-width:4; stroke-opacity:1; fill:none" points="309.067,86.1857 318.793,86.1857 318.793,1069.19 328.52,1069.19 328.52,1197.37 338.246,1197.37 338.246,1200.37 347.972,1200.37 347.972,1306.66 357.698,1306.66 357.698,1278.95 367.425,1278.95 367.425,1243.87 377.151,1243.87 377.151,1326.32 386.877,1326.32 386.877,1233.69 396.604,1233.69 396.604,1297.51 406.33,1297.51 406.33,1261.79 416.056,1261.79 416.056,1278.1 425.782,1278.1 425.782,1195.63 435.509,1195.63 435.509,1129.75 445.235,1129.75 445.235,1223.12 454.961,1223.12 454.961,1210.21 464.688,1210.21 464.688,1200.7 474.414,1200.7 474.414,1319.67 484.14,1319.67 484.14,1186.37 493.867,1186.37 493.867,1206.7 503.593,1206.7 503.593,1189.5 513.319,1189.5 513.319,1183.5 523.045,1183.5 523.045,1283.19 532.772,1283.19 532.772,1239.17 542.498,1239.17 542.498,1180.27 552.224,1180.27 552.224,1364.5 561.951,1364.5 561.951,1155.39 571.677,1155.39 571.677,1139.19 581.403,1139.19 581.403,1264.86 591.129,1264.86 591.129,1104.24 600.856,1104.24 600.856,1139.83 610.582,1139.83 610.582,1151.6 620.308,1151.6 620.308,1140.52 630.035,1140.52 630.035,1212.63 639.761,1212.63 639.761,1243.18 649.487,1243.18 649.487,1279.06 659.214,1279.06 659.214,1095.74 668.94,1095.74 668.94,1180.05 678.666,1180.05 678.666,1295.64 688.392,1295.64 688.392,1143.13 698.119,1143.13 698.119,1107.71 707.845,1107.71 707.845,1198.49 717.571,1198.49 717.571,1057.93 727.298,1057.93 727.298,1156.21 737.024,1156.21 737.024,1229.48 746.75,1229.48 746.75,1303.96 756.476,1303.96 756.476,1288.6 766.203,1288.6 766.203,1302.98 775.929,1302.98 775.929,1294.64 785.655,1294.64 785.655,1240.78 795.382,1240.78 795.382,1225.14 805.108,1225.14 805.108,1241.19 814.834,1241.19 814.834,1239.59 824.561,1239.59 824.561,1291.59 834.287,1291.59 834.287,1339.36 844.013,1339.36 844.013,1162 853.739,1162 853.739,1137.58 863.466,1137.58 863.466,1142.63 873.192,1142.63 873.192,1221.53 882.918,1221.53 882.918,1220.28 892.645,1220.28 892.645,1251.86 902.371,1251.86 902.371,1213.6 912.097,1213.6 912.097,1181.27 921.823,1181.27 921.823,1060.11 931.55,1060.11 931.55,1244.45 941.276,1244.45 941.276,1127.63 951.002,1127.63 951.002,1190.97 960.729,1190.97 960.729,1210.02 970.455,1210.02 970.455,1138.1 980.181,1138.1 980.181,1127.3 989.908,1127.3 989.908,1179.69 999.634,1179.69 999.634,1262.48 1009.36,1262.48 1009.36,1261 1019.09,1261 1019.09,1225.97 1028.81,1225.97 1028.81,1234.84 1038.54,1234.84 1038.54,1229.24 1048.27,1229.24 1048.27,1139.72 1057.99,1139.72 1057.99,1254.86 1067.72,1254.86 1067.72,1253.74 1077.44,1253.74 1077.44,1257.46 1087.17,1257.46 1087.17,1264.86 1096.9,1264.86 1096.9,1174.14 1106.62,1174.14 1106.62,1219.08 1116.35,1219.08 1116.35,1205.22 1126.08,1205.22 1126.08,1268.78 1135.8,1268.78 1135.8,1261.1 1145.53,1261.1 1145.53,1217.1 1155.25,1217.1 1155.25,1196.25 1164.98,1196.25 1164.98,1216.15 1174.71,1216.15 1174.71,1199.64 1184.43,1199.64 1184.43,1326.75 1194.16,1326.75 1194.16,1303.46 1203.89,1303.46 1203.89,1180.89 1213.61,1180.89 1213.61,1154.02 1223.34,1154.02 1223.34,1181.85 1233.06,1181.85 1233.06,1188.45 1242.79,1188.45 1242.79,1187.09 1252.52,1187.09 1252.52,1233.45 1262.24,1233.45 1262.24,1163.46 1271.97,1163.46 1271.97,1136.24 1281.7,1136.24 1281.7,1245.04 1291.42,1245.04 1291.42,1193.81 1301.15,1193.81 1301.15,1186.87 1310.88,1186.87 1310.88,1213.32 1320.6,1213.32 1320.6,1274.81 1330.33,1274.81 1330.33,1189.02 1340.05,1189.02 1340.05,1215.37 1349.78,1215.37 1349.78,1172.86 1359.51,1172.86 1359.51,1205.68 1369.23,1205.68 1369.23,1268.48 1378.96,1268.48 1378.96,1227.61 1388.69,1227.61 1388.69,1225.63 1398.41,1225.63 1398.41,1238.09 1408.14,1238.09 1408.14,1166.55 1417.86,1166.55 1417.86,1234.73 1427.59,1234.73 1427.59,1239.13 1437.32,1239.13 1437.32,1208.8 1447.04,1208.8 1447.04,1221.2 1456.77,1221.2 1456.77,1224.03 1466.5,1224.03 1466.5,1209.04 1476.22,1209.04 1476.22,1235.01 1485.95,1235.01 1485.95,1282.59 1495.67,1282.59 1495.67,1203.66 1505.4,1203.66 1505.4,1219.14 1515.13,1219.14 1515.13,1248.21 1524.85,1248.21 1524.85,1125.81 1534.58,1125.81 1534.58,1226.31 1544.31,1226.31 1544.31,1209.53 1554.03,1209.53 1554.03,1163.78 1563.76,1163.78 1563.76,1171.08 1573.49,1171.08 1573.49,1247.27 1583.21,1247.27 1583.21,1227.98 1592.94,1227.98 1592.94,1267.7 1602.66,1267.7 1602.66,1228.21 1612.39,1228.21 1612.39,1207.47 1622.12,1207.47 1622.12,1184.59 1631.84,1184.59 1631.84,1165.07 1641.57,1165.07 1641.57,1102.15 1651.3,1102.15 1651.3,1200.02 1661.02,1200.02 1661.02,1173.02 1670.75,1173.02 1670.75,1266.51 1680.47,1266.51 1680.47,1250.24 1690.2,1250.24 1690.2,1225.67 1699.93,1225.67 1699.93,1247.27 1709.65,1247.27 1709.65,1191.6 1719.38,1191.6 1719.38,1211.45 1729.11,1211.45 1729.11,1192.75 1738.83,1192.75 1738.83,1227.38 1748.56,1227.38 1748.56,1231.95 1758.28,1231.95 1758.28,1211.07 1768.01,1211.07 1768.01,1214.16 1777.74,1214.16 1777.74,1204.9 1787.46,1204.9 1787.46,1208.78 1797.19,1208.78 1797.19,1246.46 1806.92,1246.46 1806.92,1225.05 1816.64,1225.05 1816.64,1181.61 1826.37,1181.61 1826.37,1210.08 1836.1,1210.08 1836.1,1134.85 1845.82,1134.85 1845.82,1190.17 1855.55,1190.17 1855.55,1194.8 1865.27,1194.8 1865.27,1209.09 1875,1209.09 1875,1222.08 1884.73,1222.08 1884.73,1229.23 1894.45,1229.23 1894.45,1246.74 1904.18,1246.74 1904.18,1212.08 1913.91,1212.08 1913.91,1217.82 1923.63,1217.82 1923.63,1187.21 1933.36,1187.21 1933.36,1212.2 1943.08,1212.2 1943.08,1143.55 1952.81,1143.55 1952.81,1169.36 1962.54,1169.36 1962.54,1218.75 1972.26,1218.75 1972.26,1203.35 1981.99,1203.35 1981.99,1261.7 1991.72,1261.7 1991.72,1224.87 2001.44,1224.87 2001.44,1228.62 2011.17,1228.62 2011.17,1190.65 2020.89,1190.65 2020.89,1186.36 2030.62,1186.36 2030.62,1206.68 2040.35,1206.68 2040.35,1202.22 2050.07,1202.22 2050.07,1198.11 2059.8,1198.11 2059.8,1219.99 2069.53,1219.99 2069.53,1195.04 2079.25,1195.04 2079.25,1225.76 2088.98,1225.76 2088.98,1218.44 2098.71,1218.44 2098.71,1209.64 2108.43,1209.64 2108.43,1215.06 2118.16,1215.06 2118.16,1194.7 2127.88,1194.7 2127.88,1200.54 2137.61,1200.54 2137.61,1189.94 2147.34,1189.94 2147.34,1215.42 2157.06,1215.42 2157.06,1196.35 2166.79,1196.35 2166.79,1224.1 2176.52,1224.1 2176.52,1215.14 2186.24,1215.14 2186.24,1207.25 2195.97,1207.25 2195.97,1220.19 2205.69,1220.19 2205.69,1202.41 2215.42,1202.41 2215.42,1212.54 2225.15,1212.54 2225.15,1201.29 2234.87,1201.29 2234.87,1209.07 2244.6,1209.07 2244.6,1207.71 2254.33,1207.71 2254.33,1202.18 2264.05,1202.18 2264.05,1212.21 2273.78,1212.21 2273.78,1206.92 2283.5,1206.92 2283.5,1208.58 2293.23,1208.58 2293.23,1209.44 "/>
<polyline clip-path="url(#clip642)" style="stroke:#e5e5e5; stroke-linecap:round; stroke-linejoin:round; stroke-width:4; stroke-opacity:1; fill:none" points="309.067,86.1857 318.793,86.1857 318.793,887.494 328.52,887.494 328.52,1013.34 338.246,1013.34 338.246,1175.17 347.972,1175.17 347.972,1115.16 357.698,1115.16 357.698,1098.09 367.425,1098.09 367.425,1166.04 377.151,1166.04 377.151,1043.1 386.877,1043.1 386.877,985.038 396.604,985.038 396.604,1003.76 406.33,1003.76 406.33,1094.63 416.056,1094.63 416.056,1177.78 425.782,1177.78 425.782,1174.36 435.509,1174.36 435.509,1078.69 445.235,1078.69 445.235,1142.44 454.961,1142.44 454.961,1226.81 464.688,1226.81 464.688,1150.33 474.414,1150.33 474.414,1291.77 484.14,1291.77 484.14,1219.28 493.867,1219.28 493.867,1231.91 503.593,1231.91 503.593,1108.51 513.319,1108.51 513.319,1133.78 523.045,1133.78 523.045,1187.11 532.772,1187.11 532.772,1111.01 542.498,1111.01 542.498,1288.92 552.224,1288.92 552.224,1225.82 561.951,1225.82 561.951,1313.89 571.677,1313.89 571.677,1242.17 581.403,1242.17 581.403,1215.59 591.129,1215.59 591.129,1246.49 600.856,1246.49 600.856,1260.91 610.582,1260.91 610.582,1229.08 620.308,1229.08 620.308,1137.28 630.035,1137.28 630.035,1148.03 639.761,1148.03 639.761,1129.26 649.487,1129.26 649.487,1190.42 659.214,1190.42 659.214,1138.46 668.94,1138.46 668.94,1274.06 678.666,1274.06 678.666,1213.52 688.392,1213.52 688.392,1233.74 698.119,1233.74 698.119,1129.59 707.845,1129.59 707.845,1002.14 717.571,1002.14 717.571,1098.43 727.298,1098.43 727.298,1078.24 737.024,1078.24 737.024,1176.34 746.75,1176.34 746.75,1109.42 756.476,1109.42 756.476,1140.51 766.203,1140.51 766.203,1194.09 775.929,1194.09 775.929,1160.68 785.655,1160.68 785.655,1262.09 795.382,1262.09 795.382,1210.86 805.108,1210.86 805.108,1171.33 814.834,1171.33 814.834,1194.5 824.561,1194.5 824.561,1277.54 834.287,1277.54 834.287,1215.19 844.013,1215.19 844.013,1212.92 853.739,1212.92 853.739,1198.63 863.466,1198.63 863.466,1298.55 873.192,1298.55 873.192,1338.58 882.918,1338.58 882.918,1288.83 892.645,1288.83 892.645,1289.2 902.371,1289.2 902.371,1178.33 912.097,1178.33 912.097,1308.41 921.823,1308.41 921.823,1254.43 931.55,1254.43 931.55,1195.95 941.276,1195.95 941.276,1275.33 951.002,1275.33 951.002,1278.67 960.729,1278.67 960.729,1384.24 970.455,1384.24 970.455,1229.84 980.181,1229.84 980.181,1298.02 989.908,1298.02 989.908,1250.03 999.634,1250.03 999.634,1358.54 1009.36,1358.54 1009.36,1299.76 1019.09,1299.76 1019.09,1311.31 1028.81,1311.31 1028.81,1307.94 1038.54,1307.94 1038.54,1357.95 1048.27,1357.95 1048.27,1259.36 1057.99,1259.36 1057.99,1169.58 1067.72,1169.58 1067.72,1237.69 1077.44,1237.69 1077.44,1282.17 1087.17,1282.17 1087.17,1352.37 1096.9,1352.37 1096.9,1382.19 1106.62,1382.19 1106.62,1333.02 1116.35,1333.02 1116.35,1294.9 1126.08,1294.9 1126.08,1256.9 1135.8,1256.9 1135.8,1215.72 1145.53,1215.72 1145.53,1178.09 1155.25,1178.09 1155.25,1231.43 1164.98,1231.43 1164.98,1253.78 1174.71,1253.78 1174.71,1334.39 1184.43,1334.39 1184.43,1259.1 1194.16,1259.1 1194.16,1268.62 1203.89,1268.62 1203.89,1272.39 1213.61,1272.39 1213.61,1231.1 1223.34,1231.1 1223.34,1268.78 1233.06,1268.78 1233.06,1306.33 1242.79,1306.33 1242.79,1275.78 1252.52,1275.78 1252.52,1232.95 1262.24,1232.95 1262.24,1237.17 1271.97,1237.17 1271.97,1244.89 1281.7,1244.89 1281.7,1293.13 1291.42,1293.13 1291.42,1257.11 1301.15,1257.11 1301.15,1240.38 1310.88,1240.38 1310.88,1286.87 1320.6,1286.87 1320.6,1283.12 1330.33,1283.12 1330.33,1300.64 1340.05,1300.64 1340.05,1217.66 1349.78,1217.66 1349.78,1229.42 1359.51,1229.42 1359.51,1291.59 1369.23,1291.59 1369.23,1270.77 1378.96,1270.77 1378.96,1231.47 1388.69,1231.47 1388.69,1202.24 1398.41,1202.24 1398.41,1257.51 1408.14,1257.51 1408.14,1256.95 1417.86,1256.95 1417.86,1280.2 1427.59,1280.2 1427.59,1218.1 1437.32,1218.1 1437.32,1284.22 1447.04,1284.22 1447.04,1207.72 1456.77,1207.72 1456.77,1207.05 1466.5,1207.05 1466.5,1211.99 1476.22,1211.99 1476.22,1257.86 1485.95,1257.86 1485.95,1252.34 1495.67,1252.34 1495.67,1236.29 1505.4,1236.29 1505.4,1218.77 1515.13,1218.77 1515.13,1216.6 1524.85,1216.6 1524.85,1244.28 1534.58,1244.28 1534.58,1210.21 1544.31,1210.21 1544.31,1231.02 1554.03,1231.02 1554.03,1207.27 1563.76,1207.27 1563.76,1201.69 1573.49,1201.69 1573.49,1197.62 1583.21,1197.62 1583.21,1173.27 1592.94,1173.27 1592.94,1209.35 1602.66,1209.35 1602.66,1194.12 1612.39,1194.12 1612.39,1151.33 1622.12,1151.33 1622.12,1212.7 1631.84,1212.7 1631.84,1183.77 1641.57,1183.77 1641.57,1190.15 1651.3,1190.15 1651.3,1172.81 1661.02,1172.81 1661.02,1215.59 1670.75,1215.59 1670.75,1204.75 1680.47,1204.75 1680.47,1228.37 1690.2,1228.37 1690.2,1192.33 1699.93,1192.33 1699.93,1214.8 1709.65,1214.8 1709.65,1189.82 1719.38,1189.82 1719.38,1188.13 1729.11,1188.13 1729.11,1165.31 1738.83,1165.31 1738.83,1169.08 1748.56,1169.08 1748.56,1217.77 1758.28,1217.77 1758.28,1203.33 1768.01,1203.33 1768.01,1219.5 1777.74,1219.5 1777.74,1212.26 1787.46,1212.26 1787.46,1183.15 1797.19,1183.15 1797.19,1189.56 1806.92,1189.56 1806.92,1201.45 1816.64,1201.45 1816.64,1204.87 1826.37,1204.87 1826.37,1205.15 1836.1,1205.15 1836.1,1176.99 1845.82,1176.99 1845.82,1170.31 1855.55,1170.31 1855.55,1198.48 1865.27,1198.48 1865.27,1225.68 1875,1225.68 1875,1209.82 1884.73,1209.82 1884.73,1186.59 1894.45,1186.59 1894.45,1159.78 1904.18,1159.78 1904.18,1202.32 1913.91,1202.32 1913.91,1189.73 1923.63,1189.73 1923.63,1210.01 1933.36,1210.01 1933.36,1189.66 1943.08,1189.66 1943.08,1189.56 1952.81,1189.56 1952.81,1203.26 1962.54,1203.26 1962.54,1192.93 1972.26,1192.93 1972.26,1198.26 1981.99,1198.26 1981.99,1202.68 1991.72,1202.68 1991.72,1173.29 2001.44,1173.29 2001.44,1205.42 2011.17,1205.42 2011.17,1187.96 2020.89,1187.96 2020.89,1193.75 2030.62,1193.75 2030.62,1205.49 2040.35,1205.49 2040.35,1184.8 2050.07,1184.8 2050.07,1200.61 2059.8,1200.61 2059.8,1210 2069.53,1210 2069.53,1204.22 2079.25,1204.22 2079.25,1212.36 2088.98,1212.36 2088.98,1191.81 2098.71,1191.81 2098.71,1198.79 2108.43,1198.79 2108.43,1204.99 2118.16,1204.99 2118.16,1199.12 2127.88,1199.12 2127.88,1194.75 2137.61,1194.75 2137.61,1209.72 2147.34,1209.72 2147.34,1189.77 2157.06,1189.77 2157.06,1204.08 2166.79,1204.08 2166.79,1202.18 2176.52,1202.18 2176.52,1197.68 2186.24,1197.68 2186.24,1213.01 2195.97,1213.01 2195.97,1198.21 2205.69,1198.21 2205.69,1202.66 2215.42,1202.66 2215.42,1204.79 2225.15,1204.79 2225.15,1207.75 2234.87,1207.75 2234.87,1209.75 2244.6,1209.75 2244.6,1211.18 2254.33,1211.18 2254.33,1206.85 2264.05,1206.85 2264.05,1209.53 2273.78,1209.53 2273.78,1211 2283.5,1211 2283.5,1208.09 2293.23,1208.09 2293.23,1208.26 "/>
<polyline clip-path="url(#clip642)" style="stroke:#ffffff; stroke-linecap:round; stroke-linejoin:round; stroke-width:8; stroke-opacity:1; fill:none" stroke-dasharray="32, 20" points="309.067,1055.23 318.793,1055.23 328.52,1055.23 338.246,1055.23 347.972,1055.23 357.698,1055.23 367.425,1055.23 377.151,1055.23 386.877,1055.23 396.604,1055.23 406.33,1055.23 416.056,1055.23 425.782,1055.23 435.509,1055.23 445.235,1055.23 454.961,1055.23 464.688,1055.23 474.414,1055.23 484.14,1055.23 493.867,1055.23 503.593,1055.23 513.319,1055.23 523.045,1055.23 532.772,1055.23 542.498,1055.23 552.224,1055.23 561.951,1055.23 571.677,1055.23 581.403,1055.23 591.129,1055.23 600.856,1055.23 610.582,1055.23 620.308,1055.23 630.035,1055.23 639.761,1055.23 649.487,1055.23 659.214,1055.23 668.94,1055.23 678.666,1055.23 688.392,1055.23 698.119,1055.23 707.845,1055.23 717.571,1055.23 727.298,1055.23 737.024,1055.23 746.75,1055.23 756.476,1055.23 766.203,1055.23 775.929,1055.23 785.655,1055.23 795.382,1055.23 805.108,1055.23 814.834,1055.23 824.561,1055.23 834.287,1055.23 844.013,1055.23 853.739,1055.23 863.466,1055.23 873.192,1055.23 882.918,1055.23 892.645,1055.23 902.371,1055.23 912.097,1055.23 921.823,1055.23 931.55,1055.23 941.276,1055.23 951.002,1055.23 960.729,1055.23 970.455,1055.23 980.181,1055.23 989.908,1055.23 999.634,1055.23 1009.36,1055.23 1019.09,1055.23 1028.81,1055.23 1038.54,1055.23 1048.27,1055.23 1057.99,1055.23 1067.72,1055.23 1077.44,1055.23 1087.17,1055.23 1096.9,1055.23 1106.62,1055.23 1116.35,1055.23 1126.08,1055.23 1135.8,1055.23 1145.53,1055.23 1155.25,1055.23 1164.98,1055.23 1174.71,1055.23 1184.43,1055.23 1194.16,1055.23 1203.89,1055.23 1213.61,1055.23 1223.34,1055.23 1233.06,1055.23 1242.79,1055.23 1252.52,1055.23 1262.24,1055.23 1271.97,1055.23 1281.7,1055.23 1291.42,1055.23 1301.15,1055.23 1310.88,1055.23 1320.6,1055.23 1330.33,1055.23 1340.05,1055.23 1349.78,1055.23 1359.51,1055.23 1369.23,1055.23 1378.96,1055.23 1388.69,1055.23 1398.41,1055.23 1408.14,1055.23 1417.86,1055.23 1427.59,1055.23 1437.32,1055.23 1447.04,1055.23 1456.77,1055.23 1466.5,1055.23 1476.22,1055.23 1485.95,1055.23 1495.67,1055.23 1505.4,1055.23 1515.13,1055.23 1524.85,1055.23 1534.58,1055.23 1544.31,1055.23 1554.03,1055.23 1563.76,1055.23 1573.49,1055.23 1583.21,1055.23 1592.94,1055.23 1602.66,1055.23 1612.39,1055.23 1622.12,1055.23 1631.84,1055.23 1641.57,1055.23 1651.3,1055.23 1661.02,1055.23 1670.75,1055.23 1680.47,1055.23 1690.2,1055.23 1699.93,1055.23 1709.65,1055.23 1719.38,1055.23 1729.11,1055.23 1738.83,1055.23 1748.56,1055.23 1758.28,1055.23 1768.01,1055.23 1777.74,1055.23 1787.46,1055.23 1797.19,1055.23 1806.92,1055.23 1816.64,1055.23 1826.37,1055.23 1836.1,1055.23 1845.82,1055.23 1855.55,1055.23 1865.27,1055.23 1875,1055.23 1884.73,1055.23 1894.45,1055.23 1904.18,1055.23 1913.91,1055.23 1923.63,1055.23 1933.36,1055.23 1943.08,1055.23 1952.81,1055.23 1962.54,1055.23 1972.26,1055.23 1981.99,1055.23 1991.72,1055.23 2001.44,1055.23 2011.17,1055.23 2020.89,1055.23 2030.62,1055.23 2040.35,1055.23 2050.07,1055.23 2059.8,1055.23 2069.53,1055.23 2079.25,1055.23 2088.98,1055.23 2098.71,1055.23 2108.43,1055.23 2118.16,1055.23 2127.88,1055.23 2137.61,1055.23 2147.34,1055.23 2157.06,1055.23 2166.79,1055.23 2176.52,1055.23 2186.24,1055.23 2195.97,1055.23 2205.69,1055.23 2215.42,1055.23 2225.15,1055.23 2234.87,1055.23 2244.6,1055.23 2254.33,1055.23 2264.05,1055.23 2273.78,1055.23 2283.5,1055.23 "/>
<polyline clip-path="url(#clip642)" style="stroke:#ffffff; stroke-linecap:round; stroke-linejoin:round; stroke-width:8; stroke-opacity:1; fill:none" stroke-dasharray="32, 20" points="309.067,1362.61 318.793,1362.61 328.52,1362.61 338.246,1362.61 347.972,1362.61 357.698,1362.61 367.425,1362.61 377.151,1362.61 386.877,1362.61 396.604,1362.61 406.33,1362.61 416.056,1362.61 425.782,1362.61 435.509,1362.61 445.235,1362.61 454.961,1362.61 464.688,1362.61 474.414,1362.61 484.14,1362.61 493.867,1362.61 503.593,1362.61 513.319,1362.61 523.045,1362.61 532.772,1362.61 542.498,1362.61 552.224,1362.61 561.951,1362.61 571.677,1362.61 581.403,1362.61 591.129,1362.61 600.856,1362.61 610.582,1362.61 620.308,1362.61 630.035,1362.61 639.761,1362.61 649.487,1362.61 659.214,1362.61 668.94,1362.61 678.666,1362.61 688.392,1362.61 698.119,1362.61 707.845,1362.61 717.571,1362.61 727.298,1362.61 737.024,1362.61 746.75,1362.61 756.476,1362.61 766.203,1362.61 775.929,1362.61 785.655,1362.61 795.382,1362.61 805.108,1362.61 814.834,1362.61 824.561,1362.61 834.287,1362.61 844.013,1362.61 853.739,1362.61 863.466,1362.61 873.192,1362.61 882.918,1362.61 892.645,1362.61 902.371,1362.61 912.097,1362.61 921.823,1362.61 931.55,1362.61 941.276,1362.61 951.002,1362.61 960.729,1362.61 970.455,1362.61 980.181,1362.61 989.908,1362.61 999.634,1362.61 1009.36,1362.61 1019.09,1362.61 1028.81,1362.61 1038.54,1362.61 1048.27,1362.61 1057.99,1362.61 1067.72,1362.61 1077.44,1362.61 1087.17,1362.61 1096.9,1362.61 1106.62,1362.61 1116.35,1362.61 1126.08,1362.61 1135.8,1362.61 1145.53,1362.61 1155.25,1362.61 1164.98,1362.61 1174.71,1362.61 1184.43,1362.61 1194.16,1362.61 1203.89,1362.61 1213.61,1362.61 1223.34,1362.61 1233.06,1362.61 1242.79,1362.61 1252.52,1362.61 1262.24,1362.61 1271.97,1362.61 1281.7,1362.61 1291.42,1362.61 1301.15,1362.61 1310.88,1362.61 1320.6,1362.61 1330.33,1362.61 1340.05,1362.61 1349.78,1362.61 1359.51,1362.61 1369.23,1362.61 1378.96,1362.61 1388.69,1362.61 1398.41,1362.61 1408.14,1362.61 1417.86,1362.61 1427.59,1362.61 1437.32,1362.61 1447.04,1362.61 1456.77,1362.61 1466.5,1362.61 1476.22,1362.61 1485.95,1362.61 1495.67,1362.61 1505.4,1362.61 1515.13,1362.61 1524.85,1362.61 1534.58,1362.61 1544.31,1362.61 1554.03,1362.61 1563.76,1362.61 1573.49,1362.61 1583.21,1362.61 1592.94,1362.61 1602.66,1362.61 1612.39,1362.61 1622.12,1362.61 1631.84,1362.61 1641.57,1362.61 1651.3,1362.61 1661.02,1362.61 1670.75,1362.61 1680.47,1362.61 1690.2,1362.61 1699.93,1362.61 1709.65,1362.61 1719.38,1362.61 1729.11,1362.61 1738.83,1362.61 1748.56,1362.61 1758.28,1362.61 1768.01,1362.61 1777.74,1362.61 1787.46,1362.61 1797.19,1362.61 1806.92,1362.61 1816.64,1362.61 1826.37,1362.61 1836.1,1362.61 1845.82,1362.61 1855.55,1362.61 1865.27,1362.61 1875,1362.61 1884.73,1362.61 1894.45,1362.61 1904.18,1362.61 1913.91,1362.61 1923.63,1362.61 1933.36,1362.61 1943.08,1362.61 1952.81,1362.61 1962.54,1362.61 1972.26,1362.61 1981.99,1362.61 1991.72,1362.61 2001.44,1362.61 2011.17,1362.61 2020.89,1362.61 2030.62,1362.61 2040.35,1362.61 2050.07,1362.61 2059.8,1362.61 2069.53,1362.61 2079.25,1362.61 2088.98,1362.61 2098.71,1362.61 2108.43,1362.61 2118.16,1362.61 2127.88,1362.61 2137.61,1362.61 2147.34,1362.61 2157.06,1362.61 2166.79,1362.61 2176.52,1362.61 2186.24,1362.61 2195.97,1362.61 2205.69,1362.61 2215.42,1362.61 2225.15,1362.61 2234.87,1362.61 2244.6,1362.61 2254.33,1362.61 2264.05,1362.61 2273.78,1362.61 2283.5,1362.61 "/>
<path clip-path="url(#clip640)" d="M1584.23 300.469 L2282.65 300.469 L2282.65 93.1086 L1584.23 93.1086  Z" fill="#31343a" fill-rule="evenodd" fill-opacity="1"/>
<polyline clip-path="url(#clip640)" style="stroke:#000000; stroke-linecap:round; stroke-linejoin:round; stroke-width:4; stroke-opacity:0; fill:none" points="1584.23,300.469 2282.65,300.469 2282.65,93.1086 1584.23,93.1086 1584.23,300.469 "/>
<polyline clip-path="url(#clip640)" style="stroke:#ff7d00; stroke-linecap:round; stroke-linejoin:round; stroke-width:4; stroke-opacity:1; fill:none" points="1607.6,144.949 1747.81,144.949 "/>
<path clip-path="url(#clip640)" d="M1787.2 130.84 Q1782.11 130.84 1779.1 134.636 Q1776.11 138.432 1776.11 144.983 Q1776.11 151.511 1779.1 155.307 Q1782.11 159.104 1787.2 159.104 Q1792.29 159.104 1795.25 155.307 Q1798.24 151.511 1798.24 144.983 Q1798.24 138.432 1795.25 134.636 Q1792.29 130.84 1787.2 130.84 M1787.2 127.044 Q1794.47 127.044 1798.82 131.928 Q1803.17 136.789 1803.17 144.983 Q1803.17 153.155 1798.82 158.039 Q1794.47 162.9 1787.2 162.9 Q1779.91 162.9 1775.53 158.039 Q1771.18 153.178 1771.18 144.983 Q1771.18 136.789 1775.53 131.928 Q1779.91 127.044 1787.2 127.044 Z" fill="#ffffff" fill-rule="nonzero" fill-opacity="1" /><path clip-path="url(#clip640)" d="M1828.91 149.289 Q1828.91 144.59 1826.97 141.928 Q1825.05 139.243 1821.67 139.243 Q1818.29 139.243 1816.34 141.928 Q1814.42 144.59 1814.42 149.289 Q1814.42 153.988 1816.34 156.673 Q1818.29 159.335 1821.67 159.335 Q1825.05 159.335 1826.97 156.673 Q1828.91 153.988 1828.91 149.289 M1814.42 140.238 Q1815.76 137.923 1817.8 136.812 Q1819.86 135.678 1822.71 135.678 Q1827.43 135.678 1830.37 139.428 Q1833.33 143.178 1833.33 149.289 Q1833.33 155.4 1830.37 159.15 Q1827.43 162.9 1822.71 162.9 Q1819.86 162.9 1817.8 161.789 Q1815.76 160.655 1814.42 158.34 L1814.42 162.229 L1810.14 162.229 L1810.14 126.21 L1814.42 126.21 L1814.42 140.238 Z" fill="#ffffff" fill-rule="nonzero" fill-opacity="1" /><path clip-path="url(#clip640)" d="M1856.92 137.067 L1856.92 141.094 Q1855.12 140.169 1853.17 139.706 Q1851.23 139.243 1849.14 139.243 Q1845.97 139.243 1844.37 140.215 Q1842.8 141.187 1842.8 143.131 Q1842.8 144.613 1843.93 145.469 Q1845.07 146.303 1848.49 147.067 L1849.95 147.391 Q1854.49 148.363 1856.39 150.145 Q1858.31 151.905 1858.31 155.076 Q1858.31 158.687 1855.44 160.793 Q1852.59 162.9 1847.59 162.9 Q1845.51 162.9 1843.24 162.483 Q1840.99 162.09 1838.49 161.28 L1838.49 156.881 Q1840.86 158.108 1843.15 158.733 Q1845.44 159.335 1847.68 159.335 Q1850.69 159.335 1852.31 158.317 Q1853.93 157.275 1853.93 155.4 Q1853.93 153.664 1852.75 152.738 Q1851.6 151.812 1847.64 150.956 L1846.16 150.608 Q1842.2 149.775 1840.44 148.062 Q1838.68 146.326 1838.68 143.317 Q1838.68 139.659 1841.27 137.669 Q1843.87 135.678 1848.63 135.678 Q1850.99 135.678 1853.08 136.025 Q1855.16 136.372 1856.92 137.067 Z" fill="#ffffff" fill-rule="nonzero" fill-opacity="1" /><path clip-path="url(#clip640)" d="M1887.27 148.201 L1887.27 150.284 L1867.68 150.284 Q1867.96 154.682 1870.32 156.997 Q1872.71 159.289 1876.94 159.289 Q1879.4 159.289 1881.69 158.687 Q1884 158.085 1886.27 156.881 L1886.27 160.909 Q1883.98 161.881 1881.57 162.391 Q1879.17 162.9 1876.69 162.9 Q1870.49 162.9 1866.85 159.289 Q1863.24 155.678 1863.24 149.52 Q1863.24 143.155 1866.67 139.428 Q1870.12 135.678 1875.95 135.678 Q1881.18 135.678 1884.21 139.057 Q1887.27 142.414 1887.27 148.201 M1883.01 146.951 Q1882.96 143.456 1881.04 141.372 Q1879.14 139.289 1875.99 139.289 Q1872.43 139.289 1870.28 141.303 Q1868.15 143.317 1867.82 146.974 L1883.01 146.951 Z" fill="#ffffff" fill-rule="nonzero" fill-opacity="1" /><path clip-path="url(#clip640)" d="M1909.28 140.284 Q1908.56 139.868 1907.71 139.682 Q1906.87 139.474 1905.86 139.474 Q1902.24 139.474 1900.3 141.835 Q1898.38 144.173 1898.38 148.571 L1898.38 162.229 L1894.1 162.229 L1894.1 136.303 L1898.38 136.303 L1898.38 140.331 Q1899.72 137.969 1901.87 136.835 Q1904.03 135.678 1907.11 135.678 Q1907.55 135.678 1908.08 135.747 Q1908.61 135.794 1909.26 135.909 L1909.28 140.284 Z" fill="#ffffff" fill-rule="nonzero" fill-opacity="1" /><path clip-path="url(#clip640)" d="M1910.69 136.303 L1915.21 136.303 L1923.31 158.062 L1931.41 136.303 L1935.92 136.303 L1926.2 162.229 L1920.42 162.229 L1910.69 136.303 Z" fill="#ffffff" fill-rule="nonzero" fill-opacity="1" /><path clip-path="url(#clip640)" d="M1963.98 148.201 L1963.98 150.284 L1944.4 150.284 Q1944.67 154.682 1947.04 156.997 Q1949.42 159.289 1953.66 159.289 Q1956.11 159.289 1958.4 158.687 Q1960.72 158.085 1962.99 156.881 L1962.99 160.909 Q1960.69 161.881 1958.29 162.391 Q1955.88 162.9 1953.4 162.9 Q1947.2 162.9 1943.56 159.289 Q1939.95 155.678 1939.95 149.52 Q1939.95 143.155 1943.38 139.428 Q1946.83 135.678 1952.66 135.678 Q1957.89 135.678 1960.92 139.057 Q1963.98 142.414 1963.98 148.201 M1959.72 146.951 Q1959.67 143.456 1957.75 141.372 Q1955.86 139.289 1952.71 139.289 Q1949.14 139.289 1946.99 141.303 Q1944.86 143.317 1944.54 146.974 L1959.72 146.951 Z" fill="#ffffff" fill-rule="nonzero" fill-opacity="1" /><path clip-path="url(#clip640)" d="M1988.03 140.238 L1988.03 126.21 L1992.29 126.21 L1992.29 162.229 L1988.03 162.229 L1988.03 158.34 Q1986.69 160.655 1984.63 161.789 Q1982.59 162.9 1979.72 162.9 Q1975.02 162.9 1972.06 159.15 Q1969.12 155.4 1969.12 149.289 Q1969.12 143.178 1972.06 139.428 Q1975.02 135.678 1979.72 135.678 Q1982.59 135.678 1984.63 136.812 Q1986.69 137.923 1988.03 140.238 M1973.52 149.289 Q1973.52 153.988 1975.44 156.673 Q1977.38 159.335 1980.76 159.335 Q1984.14 159.335 1986.09 156.673 Q1988.03 153.988 1988.03 149.289 Q1988.03 144.59 1986.09 141.928 Q1984.14 139.243 1980.76 139.243 Q1977.38 139.243 1975.44 141.928 Q1973.52 144.59 1973.52 149.289 Z" fill="#ffffff" fill-rule="nonzero" fill-opacity="1" /><polyline clip-path="url(#clip640)" style="stroke:#e5e5e5; stroke-linecap:round; stroke-linejoin:round; stroke-width:4; stroke-opacity:1; fill:none" points="1607.6,196.789 1747.81,196.789 "/>
<path clip-path="url(#clip640)" d="M1793.43 180.643 L1793.43 185.203 Q1790.76 183.93 1788.4 183.305 Q1786.04 182.68 1783.84 182.68 Q1780.02 182.68 1777.94 184.161 Q1775.88 185.643 1775.88 188.374 Q1775.88 190.666 1777.25 191.847 Q1778.63 193.004 1782.48 193.722 L1785.3 194.3 Q1790.53 195.296 1793.01 197.819 Q1795.51 200.319 1795.51 204.532 Q1795.51 209.555 1792.13 212.147 Q1788.77 214.74 1782.27 214.74 Q1779.81 214.74 1777.04 214.184 Q1774.28 213.629 1771.32 212.541 L1771.32 207.726 Q1774.17 209.323 1776.9 210.133 Q1779.63 210.944 1782.27 210.944 Q1786.27 210.944 1788.45 209.37 Q1790.62 207.796 1790.62 204.879 Q1790.62 202.333 1789.05 200.897 Q1787.5 199.462 1783.94 198.745 L1781.09 198.189 Q1775.86 197.147 1773.52 194.925 Q1771.18 192.703 1771.18 188.745 Q1771.18 184.161 1774.4 181.522 Q1777.64 178.884 1783.31 178.884 Q1785.74 178.884 1788.26 179.323 Q1790.79 179.763 1793.43 180.643 Z" fill="#ffffff" fill-rule="nonzero" fill-opacity="1" /><path clip-path="url(#clip640)" d="M1802.62 188.143 L1806.87 188.143 L1806.87 214.069 L1802.62 214.069 L1802.62 188.143 M1802.62 178.05 L1806.87 178.05 L1806.87 183.444 L1802.62 183.444 L1802.62 178.05 Z" fill="#ffffff" fill-rule="nonzero" fill-opacity="1" /><path clip-path="url(#clip640)" d="M1835.97 193.12 Q1837.57 190.249 1839.79 188.884 Q1842.01 187.518 1845.02 187.518 Q1849.07 187.518 1851.27 190.365 Q1853.47 193.189 1853.47 198.421 L1853.47 214.069 L1849.19 214.069 L1849.19 198.559 Q1849.19 194.833 1847.87 193.027 Q1846.55 191.222 1843.84 191.222 Q1840.53 191.222 1838.61 193.421 Q1836.69 195.62 1836.69 199.416 L1836.69 214.069 L1832.41 214.069 L1832.41 198.559 Q1832.41 194.809 1831.09 193.027 Q1829.77 191.222 1827.01 191.222 Q1823.75 191.222 1821.83 193.444 Q1819.91 195.643 1819.91 199.416 L1819.91 214.069 L1815.62 214.069 L1815.62 188.143 L1819.91 188.143 L1819.91 192.171 Q1821.37 189.786 1823.4 188.652 Q1825.44 187.518 1828.24 187.518 Q1831.06 187.518 1833.03 188.953 Q1835.02 190.388 1835.97 193.12 Z" fill="#ffffff" fill-rule="nonzero" fill-opacity="1" /><path clip-path="url(#clip640)" d="M1861.53 203.837 L1861.53 188.143 L1865.79 188.143 L1865.79 203.675 Q1865.79 207.356 1867.22 209.208 Q1868.66 211.036 1871.53 211.036 Q1874.98 211.036 1876.97 208.837 Q1878.98 206.638 1878.98 202.842 L1878.98 188.143 L1883.24 188.143 L1883.24 214.069 L1878.98 214.069 L1878.98 210.087 Q1877.43 212.448 1875.37 213.606 Q1873.33 214.74 1870.62 214.74 Q1866.16 214.74 1863.84 211.962 Q1861.53 209.184 1861.53 203.837 M1872.24 187.518 L1872.24 187.518 Z" fill="#ffffff" fill-rule="nonzero" fill-opacity="1" /><path clip-path="url(#clip640)" d="M1892.01 178.05 L1896.27 178.05 L1896.27 214.069 L1892.01 214.069 L1892.01 178.05 Z" fill="#ffffff" fill-rule="nonzero" fill-opacity="1" /><path clip-path="url(#clip640)" d="M1916.97 201.036 Q1911.8 201.036 1909.81 202.217 Q1907.82 203.397 1907.82 206.245 Q1907.82 208.513 1909.3 209.856 Q1910.81 211.175 1913.38 211.175 Q1916.92 211.175 1919.05 208.675 Q1921.2 206.152 1921.2 201.985 L1921.2 201.036 L1916.97 201.036 M1925.46 199.277 L1925.46 214.069 L1921.2 214.069 L1921.2 210.133 Q1919.74 212.495 1917.57 213.629 Q1915.39 214.74 1912.24 214.74 Q1908.26 214.74 1905.9 212.518 Q1903.56 210.272 1903.56 206.522 Q1903.56 202.147 1906.48 199.925 Q1909.42 197.703 1915.23 197.703 L1921.2 197.703 L1921.2 197.286 Q1921.2 194.347 1919.26 192.749 Q1917.34 191.129 1913.84 191.129 Q1911.62 191.129 1909.51 191.661 Q1907.41 192.194 1905.46 193.259 L1905.46 189.323 Q1907.8 188.421 1910 187.981 Q1912.2 187.518 1914.28 187.518 Q1919.91 187.518 1922.68 190.434 Q1925.46 193.351 1925.46 199.277 Z" fill="#ffffff" fill-rule="nonzero" fill-opacity="1" /><path clip-path="url(#clip640)" d="M1938.45 180.782 L1938.45 188.143 L1947.22 188.143 L1947.22 191.453 L1938.45 191.453 L1938.45 205.527 Q1938.45 208.698 1939.3 209.601 Q1940.18 210.504 1942.85 210.504 L1947.22 210.504 L1947.22 214.069 L1942.85 214.069 Q1937.92 214.069 1936.04 212.24 Q1934.17 210.388 1934.17 205.527 L1934.17 191.453 L1931.04 191.453 L1931.04 188.143 L1934.17 188.143 L1934.17 180.782 L1938.45 180.782 Z" fill="#ffffff" fill-rule="nonzero" fill-opacity="1" /><path clip-path="url(#clip640)" d="M1975 200.041 L1975 202.124 L1955.42 202.124 Q1955.69 206.522 1958.05 208.837 Q1960.44 211.129 1964.67 211.129 Q1967.13 211.129 1969.42 210.527 Q1971.73 209.925 1974 208.721 L1974 212.749 Q1971.71 213.721 1969.3 214.231 Q1966.9 214.74 1964.42 214.74 Q1958.22 214.74 1954.58 211.129 Q1950.97 207.518 1950.97 201.36 Q1950.97 194.995 1954.4 191.268 Q1957.85 187.518 1963.68 187.518 Q1968.91 187.518 1971.94 190.897 Q1975 194.254 1975 200.041 M1970.74 198.791 Q1970.69 195.296 1968.77 193.212 Q1966.87 191.129 1963.73 191.129 Q1960.16 191.129 1958.01 193.143 Q1955.88 195.157 1955.55 198.814 L1970.74 198.791 Z" fill="#ffffff" fill-rule="nonzero" fill-opacity="1" /><path clip-path="url(#clip640)" d="M1999.05 192.078 L1999.05 178.05 L2003.31 178.05 L2003.31 214.069 L1999.05 214.069 L1999.05 210.18 Q1997.71 212.495 1995.65 213.629 Q1993.61 214.74 1990.74 214.74 Q1986.04 214.74 1983.08 210.99 Q1980.14 207.24 1980.14 201.129 Q1980.14 195.018 1983.08 191.268 Q1986.04 187.518 1990.74 187.518 Q1993.61 187.518 1995.65 188.652 Q1997.71 189.763 1999.05 192.078 M1984.54 201.129 Q1984.54 205.828 1986.46 208.513 Q1988.4 211.175 1991.78 211.175 Q1995.16 211.175 1997.11 208.513 Q1999.05 205.828 1999.05 201.129 Q1999.05 196.43 1997.11 193.768 Q1995.16 191.083 1991.78 191.083 Q1988.4 191.083 1986.46 193.768 Q1984.54 196.43 1984.54 201.129 Z" fill="#ffffff" fill-rule="nonzero" fill-opacity="1" /><path clip-path="url(#clip640)" d="M2037.38 178.097 Q2034.28 183.421 2032.78 188.629 Q2031.27 193.837 2031.27 199.184 Q2031.27 204.532 2032.78 209.786 Q2034.3 215.018 2037.38 220.319 L2033.68 220.319 Q2030.21 214.879 2028.47 209.624 Q2026.76 204.37 2026.76 199.184 Q2026.76 194.022 2028.47 188.791 Q2030.18 183.56 2033.68 178.097 L2037.38 178.097 Z" fill="#ffffff" fill-rule="nonzero" fill-opacity="1" /><path clip-path="url(#clip640)" d="M2045.65 188.143 L2049.91 188.143 L2049.91 214.069 L2045.65 214.069 L2045.65 188.143 M2045.65 178.05 L2049.91 178.05 L2049.91 183.444 L2045.65 183.444 L2045.65 178.05 Z" fill="#ffffff" fill-rule="nonzero" fill-opacity="1" /><path clip-path="url(#clip640)" d="M2074.44 192.541 L2104.12 192.541 L2104.12 196.43 L2074.44 196.43 L2074.44 192.541 M2074.44 201.985 L2104.12 201.985 L2104.12 205.921 L2074.44 205.921 L2074.44 201.985 Z" fill="#ffffff" fill-rule="nonzero" fill-opacity="1" /><path clip-path="url(#clip640)" d="M2129.33 179.509 L2147.68 179.509 L2147.68 183.444 L2133.61 183.444 L2133.61 191.916 Q2134.63 191.569 2135.65 191.407 Q2136.66 191.222 2137.68 191.222 Q2143.47 191.222 2146.85 194.393 Q2150.23 197.564 2150.23 202.981 Q2150.23 208.559 2146.76 211.661 Q2143.28 214.74 2136.97 214.74 Q2134.79 214.74 2132.52 214.37 Q2130.28 213.999 2127.87 213.258 L2127.87 208.559 Q2129.95 209.694 2132.17 210.249 Q2134.4 210.805 2136.87 210.805 Q2140.88 210.805 2143.22 208.698 Q2145.55 206.592 2145.55 202.981 Q2145.55 199.37 2143.22 197.263 Q2140.88 195.157 2136.87 195.157 Q2135 195.157 2133.12 195.573 Q2131.27 195.99 2129.33 196.87 L2129.33 179.509 Z" fill="#ffffff" fill-rule="nonzero" fill-opacity="1" /><path clip-path="url(#clip640)" d="M2158.26 179.509 L2180.48 179.509 L2180.48 181.499 L2167.94 214.069 L2163.05 214.069 L2174.86 183.444 L2158.26 183.444 L2158.26 179.509 Z" fill="#ffffff" fill-rule="nonzero" fill-opacity="1" /><path clip-path="url(#clip640)" d="M2189.74 213.351 L2189.74 209.092 Q2191.5 209.925 2193.31 210.365 Q2195.11 210.805 2196.85 210.805 Q2201.48 210.805 2203.91 207.703 Q2206.36 204.578 2206.71 198.235 Q2205.37 200.226 2203.31 201.291 Q2201.25 202.356 2198.75 202.356 Q2193.56 202.356 2190.53 199.231 Q2187.52 196.083 2187.52 190.643 Q2187.52 185.319 2190.67 182.101 Q2193.82 178.884 2199.05 178.884 Q2205.04 178.884 2208.19 183.49 Q2211.36 188.073 2211.36 196.823 Q2211.36 204.995 2207.47 209.879 Q2203.61 214.74 2197.06 214.74 Q2195.3 214.74 2193.49 214.393 Q2191.69 214.045 2189.74 213.351 M2199.05 198.698 Q2202.2 198.698 2204.03 196.546 Q2205.88 194.393 2205.88 190.643 Q2205.88 186.916 2204.03 184.763 Q2202.2 182.587 2199.05 182.587 Q2195.9 182.587 2194.05 184.763 Q2192.22 186.916 2192.22 190.643 Q2192.22 194.393 2194.05 196.546 Q2195.9 198.698 2199.05 198.698 Z" fill="#ffffff" fill-rule="nonzero" fill-opacity="1" /><path clip-path="url(#clip640)" d="M2223.79 210.133 L2240.11 210.133 L2240.11 214.069 L2218.17 214.069 L2218.17 210.133 Q2220.83 207.379 2225.41 202.749 Q2230.02 198.096 2231.2 196.754 Q2233.45 194.231 2234.33 192.495 Q2235.23 190.735 2235.23 189.046 Q2235.23 186.291 2233.28 184.555 Q2231.36 182.819 2228.26 182.819 Q2226.06 182.819 2223.61 183.583 Q2221.18 184.347 2218.4 185.897 L2218.4 181.175 Q2221.22 180.041 2223.68 179.462 Q2226.13 178.884 2228.17 178.884 Q2233.54 178.884 2236.73 181.569 Q2239.93 184.254 2239.93 188.745 Q2239.93 190.874 2239.12 192.796 Q2238.33 194.694 2236.22 197.286 Q2235.65 197.958 2232.54 201.175 Q2229.44 204.37 2223.79 210.133 Z" fill="#ffffff" fill-rule="nonzero" fill-opacity="1" /><path clip-path="url(#clip640)" d="M2248.65 178.097 L2252.36 178.097 Q2255.83 183.56 2257.54 188.791 Q2259.28 194.022 2259.28 199.184 Q2259.28 204.37 2257.54 209.624 Q2255.83 214.879 2252.36 220.319 L2248.65 220.319 Q2251.73 215.018 2253.24 209.786 Q2254.77 204.532 2254.77 199.184 Q2254.77 193.837 2253.24 188.629 Q2251.73 183.421 2248.65 178.097 Z" fill="#ffffff" fill-rule="nonzero" fill-opacity="1" /><polyline clip-path="url(#clip640)" style="stroke:#ffffff; stroke-linecap:round; stroke-linejoin:round; stroke-width:8; stroke-opacity:1; fill:none" stroke-dasharray="32, 20" points="1607.6,248.629 1747.81,248.629 "/>
<path clip-path="url(#clip640)" d="M1773.4 265.191 L1773.4 260.932 Q1775.16 261.765 1776.97 262.205 Q1778.77 262.645 1780.51 262.645 Q1785.14 262.645 1787.57 259.543 Q1790.02 256.418 1790.37 250.075 Q1789.03 252.066 1786.97 253.131 Q1784.91 254.196 1782.41 254.196 Q1777.22 254.196 1774.19 251.071 Q1771.18 247.923 1771.18 242.483 Q1771.18 237.159 1774.33 233.941 Q1777.48 230.724 1782.71 230.724 Q1788.7 230.724 1791.85 235.33 Q1795.02 239.913 1795.02 248.663 Q1795.02 256.835 1791.13 261.719 Q1787.27 266.58 1780.72 266.58 Q1778.96 266.58 1777.15 266.233 Q1775.35 265.885 1773.4 265.191 M1782.71 250.538 Q1785.86 250.538 1787.69 248.386 Q1789.54 246.233 1789.54 242.483 Q1789.54 238.756 1787.69 236.603 Q1785.86 234.427 1782.71 234.427 Q1779.56 234.427 1777.71 236.603 Q1775.88 238.756 1775.88 242.483 Q1775.88 246.233 1777.71 248.386 Q1779.56 250.538 1782.71 250.538 Z" fill="#ffffff" fill-rule="nonzero" fill-opacity="1" /><path clip-path="url(#clip640)" d="M1803.47 231.349 L1821.83 231.349 L1821.83 235.284 L1807.75 235.284 L1807.75 243.756 Q1808.77 243.409 1809.79 243.247 Q1810.81 243.062 1811.83 243.062 Q1817.62 243.062 1821 246.233 Q1824.37 249.404 1824.37 254.821 Q1824.37 260.399 1820.9 263.501 Q1817.43 266.58 1811.11 266.58 Q1808.93 266.58 1806.67 266.21 Q1804.42 265.839 1802.01 265.098 L1802.01 260.399 Q1804.1 261.534 1806.32 262.089 Q1808.54 262.645 1811.02 262.645 Q1815.02 262.645 1817.36 260.538 Q1819.7 258.432 1819.7 254.821 Q1819.7 251.21 1817.36 249.103 Q1815.02 246.997 1811.02 246.997 Q1809.14 246.997 1807.27 247.413 Q1805.42 247.83 1803.47 248.71 L1803.47 231.349 Z" fill="#ffffff" fill-rule="nonzero" fill-opacity="1" /><path clip-path="url(#clip640)" d="M1862.99 250.7 Q1860.97 250.7 1859.81 252.413 Q1858.68 254.126 1858.68 257.182 Q1858.68 260.191 1859.81 261.927 Q1860.97 263.64 1862.99 263.64 Q1864.95 263.64 1866.09 261.927 Q1867.24 260.191 1867.24 257.182 Q1867.24 254.149 1866.09 252.436 Q1864.95 250.7 1862.99 250.7 M1862.99 247.761 Q1866.64 247.761 1868.8 250.307 Q1870.95 252.853 1870.95 257.182 Q1870.95 261.51 1868.77 264.057 Q1866.62 266.58 1862.99 266.58 Q1859.28 266.58 1857.13 264.057 Q1854.98 261.51 1854.98 257.182 Q1854.98 252.83 1857.13 250.307 Q1859.31 247.761 1862.99 247.761 M1839.1 233.663 Q1837.11 233.663 1835.95 235.4 Q1834.81 237.112 1834.81 240.122 Q1834.81 243.177 1835.95 244.89 Q1837.08 246.603 1839.1 246.603 Q1841.11 246.603 1842.24 244.89 Q1843.4 243.177 1843.4 240.122 Q1843.4 237.136 1842.24 235.4 Q1841.09 233.663 1839.1 233.663 M1860 230.724 L1863.7 230.724 L1842.08 266.58 L1838.38 266.58 L1860 230.724 M1839.1 230.724 Q1842.75 230.724 1844.93 233.27 Q1847.11 235.793 1847.11 240.122 Q1847.11 244.497 1844.93 247.02 Q1842.78 249.543 1839.1 249.543 Q1835.42 249.543 1833.26 247.02 Q1831.13 244.474 1831.13 240.122 Q1831.13 235.816 1833.29 233.27 Q1835.44 230.724 1839.1 230.724 Z" fill="#ffffff" fill-rule="nonzero" fill-opacity="1" /><path clip-path="url(#clip640)" d="M1911.76 240.978 L1911.76 244.96 Q1909.95 243.964 1908.12 243.478 Q1906.32 242.969 1904.47 242.969 Q1900.32 242.969 1898.03 245.608 Q1895.74 248.224 1895.74 252.969 Q1895.74 257.714 1898.03 260.353 Q1900.32 262.969 1904.47 262.969 Q1906.32 262.969 1908.12 262.483 Q1909.95 261.973 1911.76 260.978 L1911.76 264.913 Q1909.98 265.747 1908.05 266.163 Q1906.16 266.58 1904 266.58 Q1898.15 266.58 1894.7 262.899 Q1891.25 259.219 1891.25 252.969 Q1891.25 246.626 1894.72 242.992 Q1898.22 239.358 1904.28 239.358 Q1906.25 239.358 1908.12 239.775 Q1910 240.168 1911.76 240.978 Z" fill="#ffffff" fill-rule="nonzero" fill-opacity="1" /><path clip-path="url(#clip640)" d="M1929.21 242.969 Q1925.79 242.969 1923.8 245.654 Q1921.8 248.316 1921.8 252.969 Q1921.8 257.622 1923.77 260.307 Q1925.76 262.969 1929.21 262.969 Q1932.61 262.969 1934.61 260.284 Q1936.6 257.598 1936.6 252.969 Q1936.6 248.362 1934.61 245.677 Q1932.61 242.969 1929.21 242.969 M1929.21 239.358 Q1934.77 239.358 1937.94 242.969 Q1941.11 246.58 1941.11 252.969 Q1941.11 259.335 1937.94 262.969 Q1934.77 266.58 1929.21 266.58 Q1923.63 266.58 1920.46 262.969 Q1917.31 259.335 1917.31 252.969 Q1917.31 246.58 1920.46 242.969 Q1923.63 239.358 1929.21 239.358 Z" fill="#ffffff" fill-rule="nonzero" fill-opacity="1" /><path clip-path="url(#clip640)" d="M1969.72 250.261 L1969.72 265.909 L1965.46 265.909 L1965.46 250.399 Q1965.46 246.719 1964.03 244.89 Q1962.59 243.062 1959.72 243.062 Q1956.27 243.062 1954.28 245.261 Q1952.29 247.46 1952.29 251.256 L1952.29 265.909 L1948.01 265.909 L1948.01 239.983 L1952.29 239.983 L1952.29 244.011 Q1953.82 241.673 1955.88 240.515 Q1957.96 239.358 1960.67 239.358 Q1965.14 239.358 1967.43 242.136 Q1969.72 244.89 1969.72 250.261 Z" fill="#ffffff" fill-rule="nonzero" fill-opacity="1" /><path clip-path="url(#clip640)" d="M1991.34 229.89 L1991.34 233.432 L1987.27 233.432 Q1984.98 233.432 1984.07 234.358 Q1983.19 235.284 1983.19 237.691 L1983.19 239.983 L1990.21 239.983 L1990.21 243.293 L1983.19 243.293 L1983.19 265.909 L1978.91 265.909 L1978.91 243.293 L1974.84 243.293 L1974.84 239.983 L1978.91 239.983 L1978.91 238.177 Q1978.91 233.849 1980.92 231.881 Q1982.94 229.89 1987.31 229.89 L1991.34 229.89 Z" fill="#ffffff" fill-rule="nonzero" fill-opacity="1" /><path clip-path="url(#clip640)" d="M1994.91 239.983 L1999.17 239.983 L1999.17 265.909 L1994.91 265.909 L1994.91 239.983 M1994.91 229.89 L1999.17 229.89 L1999.17 235.284 L1994.91 235.284 L1994.91 229.89 Z" fill="#ffffff" fill-rule="nonzero" fill-opacity="1" /><path clip-path="url(#clip640)" d="M2025.14 243.918 L2025.14 229.89 L2029.4 229.89 L2029.4 265.909 L2025.14 265.909 L2025.14 262.02 Q2023.79 264.335 2021.73 265.469 Q2019.7 266.58 2016.83 266.58 Q2012.13 266.58 2009.17 262.83 Q2006.23 259.08 2006.23 252.969 Q2006.23 246.858 2009.17 243.108 Q2012.13 239.358 2016.83 239.358 Q2019.7 239.358 2021.73 240.492 Q2023.79 241.603 2025.14 243.918 M2010.62 252.969 Q2010.62 257.668 2012.54 260.353 Q2014.49 263.015 2017.87 263.015 Q2021.25 263.015 2023.19 260.353 Q2025.14 257.668 2025.14 252.969 Q2025.14 248.27 2023.19 245.608 Q2021.25 242.923 2017.87 242.923 Q2014.49 242.923 2012.54 245.608 Q2010.62 248.27 2010.62 252.969 Z" fill="#ffffff" fill-rule="nonzero" fill-opacity="1" /><path clip-path="url(#clip640)" d="M2060.35 251.881 L2060.35 253.964 L2040.76 253.964 Q2041.04 258.362 2043.4 260.677 Q2045.79 262.969 2050.02 262.969 Q2052.48 262.969 2054.77 262.367 Q2057.08 261.765 2059.35 260.561 L2059.35 264.589 Q2057.06 265.561 2054.65 266.071 Q2052.24 266.58 2049.77 266.58 Q2043.56 266.58 2039.93 262.969 Q2036.32 259.358 2036.32 253.2 Q2036.32 246.835 2039.74 243.108 Q2043.19 239.358 2049.03 239.358 Q2054.26 239.358 2057.29 242.737 Q2060.35 246.094 2060.35 251.881 M2056.09 250.631 Q2056.04 247.136 2054.12 245.052 Q2052.22 242.969 2049.07 242.969 Q2045.51 242.969 2043.35 244.983 Q2041.23 246.997 2040.9 250.654 L2056.09 250.631 Z" fill="#ffffff" fill-rule="nonzero" fill-opacity="1" /><path clip-path="url(#clip640)" d="M2088.89 250.261 L2088.89 265.909 L2084.63 265.909 L2084.63 250.399 Q2084.63 246.719 2083.19 244.89 Q2081.76 243.062 2078.89 243.062 Q2075.44 243.062 2073.45 245.261 Q2071.46 247.46 2071.46 251.256 L2071.46 265.909 L2067.17 265.909 L2067.17 239.983 L2071.46 239.983 L2071.46 244.011 Q2072.98 241.673 2075.04 240.515 Q2077.13 239.358 2079.84 239.358 Q2084.3 239.358 2086.6 242.136 Q2088.89 244.89 2088.89 250.261 Z" fill="#ffffff" fill-rule="nonzero" fill-opacity="1" /><path clip-path="url(#clip640)" d="M2116.04 240.978 L2116.04 244.96 Q2114.23 243.964 2112.41 243.478 Q2110.6 242.969 2108.75 242.969 Q2104.6 242.969 2102.31 245.608 Q2100.02 248.224 2100.02 252.969 Q2100.02 257.714 2102.31 260.353 Q2104.6 262.969 2108.75 262.969 Q2110.6 262.969 2112.41 262.483 Q2114.23 261.973 2116.04 260.978 L2116.04 264.913 Q2114.26 265.747 2112.34 266.163 Q2110.44 266.58 2108.29 266.58 Q2102.43 266.58 2098.98 262.899 Q2095.53 259.219 2095.53 252.969 Q2095.53 246.626 2099 242.992 Q2102.5 239.358 2108.56 239.358 Q2110.53 239.358 2112.41 239.775 Q2114.28 240.168 2116.04 240.978 Z" fill="#ffffff" fill-rule="nonzero" fill-opacity="1" /><path clip-path="url(#clip640)" d="M2145.62 251.881 L2145.62 253.964 L2126.04 253.964 Q2126.32 258.362 2128.68 260.677 Q2131.06 262.969 2135.3 262.969 Q2137.75 262.969 2140.04 262.367 Q2142.36 261.765 2144.63 260.561 L2144.63 264.589 Q2142.34 265.561 2139.93 266.071 Q2137.52 266.58 2135.04 266.58 Q2128.84 266.58 2125.21 262.969 Q2121.6 259.358 2121.6 253.2 Q2121.6 246.835 2125.02 243.108 Q2128.47 239.358 2134.3 239.358 Q2139.54 239.358 2142.57 242.737 Q2145.62 246.094 2145.62 251.881 M2141.36 250.631 Q2141.32 247.136 2139.4 245.052 Q2137.5 242.969 2134.35 242.969 Q2130.79 242.969 2128.63 244.983 Q2126.5 246.997 2126.18 250.654 L2141.36 250.631 Z" fill="#ffffff" fill-rule="nonzero" fill-opacity="1" /></svg>
