<?xml version="1.0" encoding="utf-8"?>
<svg xmlns="http://www.w3.org/2000/svg" xmlns:xlink="http://www.w3.org/1999/xlink" width="600" height="400" viewBox="0 0 2400 1600">
<defs>
  <clipPath id="clip060">
    <rect x="0" y="0" width="2400" height="1600"/>
  </clipPath>
</defs>
<path clip-path="url(#clip060)" d="M0 1600 L2400 1600 L2400 8.88178e-14 L0 8.88178e-14  Z" fill="#000000" fill-rule="evenodd" fill-opacity="1"/>
<defs>
  <clipPath id="clip061">
    <rect x="480" y="0" width="1681" height="1600"/>
  </clipPath>
</defs>
<path clip-path="url(#clip060)" d="M249.542 1423.18 L2352.76 1423.18 L2352.76 47.2441 L249.542 47.2441  Z" fill="#30343b" fill-rule="evenodd" fill-opacity="1"/>
<defs>
  <clipPath id="clip062">
    <rect x="249" y="47" width="2104" height="1377"/>
  </clipPath>
</defs>
<polyline clip-path="url(#clip062)" style="stroke:#ffffff; stroke-linecap:round; stroke-linejoin:round; stroke-width:2; stroke-opacity:0.1; fill:none" points="367.021,1423.18 367.021,47.2441 "/>
<polyline clip-path="url(#clip062)" style="stroke:#ffffff; stroke-linecap:round; stroke-linejoin:round; stroke-width:2; stroke-opacity:0.1; fill:none" points="829.342,1423.18 829.342,47.2441 "/>
<polyline clip-path="url(#clip062)" style="stroke:#ffffff; stroke-linecap:round; stroke-linejoin:round; stroke-width:2; stroke-opacity:0.1; fill:none" points="1291.66,1423.18 1291.66,47.2441 "/>
<polyline clip-path="url(#clip062)" style="stroke:#ffffff; stroke-linecap:round; stroke-linejoin:round; stroke-width:2; stroke-opacity:0.1; fill:none" points="1753.98,1423.18 1753.98,47.2441 "/>
<polyline clip-path="url(#clip062)" style="stroke:#ffffff; stroke-linecap:round; stroke-linejoin:round; stroke-width:2; stroke-opacity:0.1; fill:none" points="2216.3,1423.18 2216.3,47.2441 "/>
<polyline clip-path="url(#clip062)" style="stroke:#ffffff; stroke-linecap:round; stroke-linejoin:round; stroke-width:2; stroke-opacity:0.1; fill:none" points="367.021,1423.18 367.021,47.2441 "/>
<polyline clip-path="url(#clip062)" style="stroke:#ffffff; stroke-linecap:round; stroke-linejoin:round; stroke-width:2; stroke-opacity:0.1; fill:none" points="829.342,1423.18 829.342,47.2441 "/>
<polyline clip-path="url(#clip062)" style="stroke:#ffffff; stroke-linecap:round; stroke-linejoin:round; stroke-width:2; stroke-opacity:0.1; fill:none" points="1291.66,1423.18 1291.66,47.2441 "/>
<polyline clip-path="url(#clip062)" style="stroke:#ffffff; stroke-linecap:round; stroke-linejoin:round; stroke-width:2; stroke-opacity:0.1; fill:none" points="1753.98,1423.18 1753.98,47.2441 "/>
<polyline clip-path="url(#clip062)" style="stroke:#ffffff; stroke-linecap:round; stroke-linejoin:round; stroke-width:2; stroke-opacity:0.1; fill:none" points="2216.3,1423.18 2216.3,47.2441 "/>
<polyline clip-path="url(#clip062)" style="stroke:#ffffff; stroke-linecap:round; stroke-linejoin:round; stroke-width:2; stroke-opacity:0.1; fill:none" points="249.542,1384.77 2352.76,1384.77 "/>
<polyline clip-path="url(#clip062)" style="stroke:#ffffff; stroke-linecap:round; stroke-linejoin:round; stroke-width:2; stroke-opacity:0.1; fill:none" points="249.542,1059.98 2352.76,1059.98 "/>
<polyline clip-path="url(#clip062)" style="stroke:#ffffff; stroke-linecap:round; stroke-linejoin:round; stroke-width:2; stroke-opacity:0.1; fill:none" points="249.542,735.189 2352.76,735.189 "/>
<polyline clip-path="url(#clip062)" style="stroke:#ffffff; stroke-linecap:round; stroke-linejoin:round; stroke-width:2; stroke-opacity:0.1; fill:none" points="249.542,410.398 2352.76,410.398 "/>
<polyline clip-path="url(#clip062)" style="stroke:#ffffff; stroke-linecap:round; stroke-linejoin:round; stroke-width:2; stroke-opacity:0.1; fill:none" points="249.542,85.6072 2352.76,85.6072 "/>
<polyline clip-path="url(#clip062)" style="stroke:#ffffff; stroke-linecap:round; stroke-linejoin:round; stroke-width:2; stroke-opacity:0.1; fill:none" points="249.542,1384.77 2352.76,1384.77 "/>
<polyline clip-path="url(#clip062)" style="stroke:#ffffff; stroke-linecap:round; stroke-linejoin:round; stroke-width:2; stroke-opacity:0.1; fill:none" points="249.542,1059.98 2352.76,1059.98 "/>
<polyline clip-path="url(#clip062)" style="stroke:#ffffff; stroke-linecap:round; stroke-linejoin:round; stroke-width:2; stroke-opacity:0.1; fill:none" points="249.542,735.189 2352.76,735.189 "/>
<polyline clip-path="url(#clip062)" style="stroke:#ffffff; stroke-linecap:round; stroke-linejoin:round; stroke-width:2; stroke-opacity:0.1; fill:none" points="249.542,410.398 2352.76,410.398 "/>
<polyline clip-path="url(#clip062)" style="stroke:#ffffff; stroke-linecap:round; stroke-linejoin:round; stroke-width:2; stroke-opacity:0.1; fill:none" points="249.542,85.6072 2352.76,85.6072 "/>
<polyline clip-path="url(#clip060)" style="stroke:#ffffff; stroke-linecap:round; stroke-linejoin:round; stroke-width:4; stroke-opacity:1; fill:none" points="249.542,1423.18 2352.76,1423.18 "/>
<polyline clip-path="url(#clip060)" style="stroke:#ffffff; stroke-linecap:round; stroke-linejoin:round; stroke-width:4; stroke-opacity:1; fill:none" points="249.542,47.2441 2352.76,47.2441 "/>
<polyline clip-path="url(#clip060)" style="stroke:#ffffff; stroke-linecap:round; stroke-linejoin:round; stroke-width:4; stroke-opacity:1; fill:none" points="367.021,1423.18 367.021,1404.28 "/>
<polyline clip-path="url(#clip060)" style="stroke:#ffffff; stroke-linecap:round; stroke-linejoin:round; stroke-width:4; stroke-opacity:1; fill:none" points="829.342,1423.18 829.342,1404.28 "/>
<polyline clip-path="url(#clip060)" style="stroke:#ffffff; stroke-linecap:round; stroke-linejoin:round; stroke-width:4; stroke-opacity:1; fill:none" points="1291.66,1423.18 1291.66,1404.28 "/>
<polyline clip-path="url(#clip060)" style="stroke:#ffffff; stroke-linecap:round; stroke-linejoin:round; stroke-width:4; stroke-opacity:1; fill:none" points="1753.98,1423.18 1753.98,1404.28 "/>
<polyline clip-path="url(#clip060)" style="stroke:#ffffff; stroke-linecap:round; stroke-linejoin:round; stroke-width:4; stroke-opacity:1; fill:none" points="2216.3,1423.18 2216.3,1404.28 "/>
<polyline clip-path="url(#clip060)" style="stroke:#ffffff; stroke-linecap:round; stroke-linejoin:round; stroke-width:4; stroke-opacity:1; fill:none" points="367.021,47.2441 367.021,66.1417 "/>
<polyline clip-path="url(#clip060)" style="stroke:#ffffff; stroke-linecap:round; stroke-linejoin:round; stroke-width:4; stroke-opacity:1; fill:none" points="829.342,47.2441 829.342,66.1417 "/>
<polyline clip-path="url(#clip060)" style="stroke:#ffffff; stroke-linecap:round; stroke-linejoin:round; stroke-width:4; stroke-opacity:1; fill:none" points="1291.66,47.2441 1291.66,66.1417 "/>
<polyline clip-path="url(#clip060)" style="stroke:#ffffff; stroke-linecap:round; stroke-linejoin:round; stroke-width:4; stroke-opacity:1; fill:none" points="1753.98,47.2441 1753.98,66.1417 "/>
<polyline clip-path="url(#clip060)" style="stroke:#ffffff; stroke-linecap:round; stroke-linejoin:round; stroke-width:4; stroke-opacity:1; fill:none" points="2216.3,47.2441 2216.3,66.1417 "/>
<polyline clip-path="url(#clip060)" style="stroke:#ffffff; stroke-linecap:round; stroke-linejoin:round; stroke-width:4; stroke-opacity:1; fill:none" points="274.557,1423.18 274.557,1413.73 "/>
<polyline clip-path="url(#clip060)" style="stroke:#ffffff; stroke-linecap:round; stroke-linejoin:round; stroke-width:4; stroke-opacity:1; fill:none" points="459.485,1423.18 459.485,1413.73 "/>
<polyline clip-path="url(#clip060)" style="stroke:#ffffff; stroke-linecap:round; stroke-linejoin:round; stroke-width:4; stroke-opacity:1; fill:none" points="551.95,1423.18 551.95,1413.73 "/>
<polyline clip-path="url(#clip060)" style="stroke:#ffffff; stroke-linecap:round; stroke-linejoin:round; stroke-width:4; stroke-opacity:1; fill:none" points="644.414,1423.18 644.414,1413.73 "/>
<polyline clip-path="url(#clip060)" style="stroke:#ffffff; stroke-linecap:round; stroke-linejoin:round; stroke-width:4; stroke-opacity:1; fill:none" points="736.878,1423.18 736.878,1413.73 "/>
<polyline clip-path="url(#clip060)" style="stroke:#ffffff; stroke-linecap:round; stroke-linejoin:round; stroke-width:4; stroke-opacity:1; fill:none" points="921.806,1423.18 921.806,1413.73 "/>
<polyline clip-path="url(#clip060)" style="stroke:#ffffff; stroke-linecap:round; stroke-linejoin:round; stroke-width:4; stroke-opacity:1; fill:none" points="1014.27,1423.18 1014.27,1413.73 "/>
<polyline clip-path="url(#clip060)" style="stroke:#ffffff; stroke-linecap:round; stroke-linejoin:round; stroke-width:4; stroke-opacity:1; fill:none" points="1106.73,1423.18 1106.73,1413.73 "/>
<polyline clip-path="url(#clip060)" style="stroke:#ffffff; stroke-linecap:round; stroke-linejoin:round; stroke-width:4; stroke-opacity:1; fill:none" points="1199.2,1423.18 1199.2,1413.73 "/>
<polyline clip-path="url(#clip060)" style="stroke:#ffffff; stroke-linecap:round; stroke-linejoin:round; stroke-width:4; stroke-opacity:1; fill:none" points="1384.13,1423.18 1384.13,1413.73 "/>
<polyline clip-path="url(#clip060)" style="stroke:#ffffff; stroke-linecap:round; stroke-linejoin:round; stroke-width:4; stroke-opacity:1; fill:none" points="1476.59,1423.18 1476.59,1413.73 "/>
<polyline clip-path="url(#clip060)" style="stroke:#ffffff; stroke-linecap:round; stroke-linejoin:round; stroke-width:4; stroke-opacity:1; fill:none" points="1569.05,1423.18 1569.05,1413.73 "/>
<polyline clip-path="url(#clip060)" style="stroke:#ffffff; stroke-linecap:round; stroke-linejoin:round; stroke-width:4; stroke-opacity:1; fill:none" points="1661.52,1423.18 1661.52,1413.73 "/>
<polyline clip-path="url(#clip060)" style="stroke:#ffffff; stroke-linecap:round; stroke-linejoin:round; stroke-width:4; stroke-opacity:1; fill:none" points="1846.45,1423.18 1846.45,1413.73 "/>
<polyline clip-path="url(#clip060)" style="stroke:#ffffff; stroke-linecap:round; stroke-linejoin:round; stroke-width:4; stroke-opacity:1; fill:none" points="1938.91,1423.18 1938.91,1413.73 "/>
<polyline clip-path="url(#clip060)" style="stroke:#ffffff; stroke-linecap:round; stroke-linejoin:round; stroke-width:4; stroke-opacity:1; fill:none" points="2031.37,1423.18 2031.37,1413.73 "/>
<polyline clip-path="url(#clip060)" style="stroke:#ffffff; stroke-linecap:round; stroke-linejoin:round; stroke-width:4; stroke-opacity:1; fill:none" points="2123.84,1423.18 2123.84,1413.73 "/>
<polyline clip-path="url(#clip060)" style="stroke:#ffffff; stroke-linecap:round; stroke-linejoin:round; stroke-width:4; stroke-opacity:1; fill:none" points="2308.77,1423.18 2308.77,1413.73 "/>
<polyline clip-path="url(#clip060)" style="stroke:#ffffff; stroke-linecap:round; stroke-linejoin:round; stroke-width:4; stroke-opacity:1; fill:none" points="274.557,47.2441 274.557,56.6929 "/>
<polyline clip-path="url(#clip060)" style="stroke:#ffffff; stroke-linecap:round; stroke-linejoin:round; stroke-width:4; stroke-opacity:1; fill:none" points="459.485,47.2441 459.485,56.6929 "/>
<polyline clip-path="url(#clip060)" style="stroke:#ffffff; stroke-linecap:round; stroke-linejoin:round; stroke-width:4; stroke-opacity:1; fill:none" points="551.95,47.2441 551.95,56.6929 "/>
<polyline clip-path="url(#clip060)" style="stroke:#ffffff; stroke-linecap:round; stroke-linejoin:round; stroke-width:4; stroke-opacity:1; fill:none" points="644.414,47.2441 644.414,56.6929 "/>
<polyline clip-path="url(#clip060)" style="stroke:#ffffff; stroke-linecap:round; stroke-linejoin:round; stroke-width:4; stroke-opacity:1; fill:none" points="736.878,47.2441 736.878,56.6929 "/>
<polyline clip-path="url(#clip060)" style="stroke:#ffffff; stroke-linecap:round; stroke-linejoin:round; stroke-width:4; stroke-opacity:1; fill:none" points="921.806,47.2441 921.806,56.6929 "/>
<polyline clip-path="url(#clip060)" style="stroke:#ffffff; stroke-linecap:round; stroke-linejoin:round; stroke-width:4; stroke-opacity:1; fill:none" points="1014.27,47.2441 1014.27,56.6929 "/>
<polyline clip-path="url(#clip060)" style="stroke:#ffffff; stroke-linecap:round; stroke-linejoin:round; stroke-width:4; stroke-opacity:1; fill:none" points="1106.73,47.2441 1106.73,56.6929 "/>
<polyline clip-path="url(#clip060)" style="stroke:#ffffff; stroke-linecap:round; stroke-linejoin:round; stroke-width:4; stroke-opacity:1; fill:none" points="1199.2,47.2441 1199.2,56.6929 "/>
<polyline clip-path="url(#clip060)" style="stroke:#ffffff; stroke-linecap:round; stroke-linejoin:round; stroke-width:4; stroke-opacity:1; fill:none" points="1384.13,47.2441 1384.13,56.6929 "/>
<polyline clip-path="url(#clip060)" style="stroke:#ffffff; stroke-linecap:round; stroke-linejoin:round; stroke-width:4; stroke-opacity:1; fill:none" points="1476.59,47.2441 1476.59,56.6929 "/>
<polyline clip-path="url(#clip060)" style="stroke:#ffffff; stroke-linecap:round; stroke-linejoin:round; stroke-width:4; stroke-opacity:1; fill:none" points="1569.05,47.2441 1569.05,56.6929 "/>
<polyline clip-path="url(#clip060)" style="stroke:#ffffff; stroke-linecap:round; stroke-linejoin:round; stroke-width:4; stroke-opacity:1; fill:none" points="1661.52,47.2441 1661.52,56.6929 "/>
<polyline clip-path="url(#clip060)" style="stroke:#ffffff; stroke-linecap:round; stroke-linejoin:round; stroke-width:4; stroke-opacity:1; fill:none" points="1846.45,47.2441 1846.45,56.6929 "/>
<polyline clip-path="url(#clip060)" style="stroke:#ffffff; stroke-linecap:round; stroke-linejoin:round; stroke-width:4; stroke-opacity:1; fill:none" points="1938.91,47.2441 1938.91,56.6929 "/>
<polyline clip-path="url(#clip060)" style="stroke:#ffffff; stroke-linecap:round; stroke-linejoin:round; stroke-width:4; stroke-opacity:1; fill:none" points="2031.37,47.2441 2031.37,56.6929 "/>
<polyline clip-path="url(#clip060)" style="stroke:#ffffff; stroke-linecap:round; stroke-linejoin:round; stroke-width:4; stroke-opacity:1; fill:none" points="2123.84,47.2441 2123.84,56.6929 "/>
<polyline clip-path="url(#clip060)" style="stroke:#ffffff; stroke-linecap:round; stroke-linejoin:round; stroke-width:4; stroke-opacity:1; fill:none" points="2308.77,47.2441 2308.77,56.6929 "/>
<path clip-path="url(#clip060)" d="M321.084 1468.75 L350.76 1468.75 L350.76 1472.69 L321.084 1472.69 L321.084 1468.75 Z" fill="#ffffff" fill-rule="nonzero" fill-opacity="1" /><path clip-path="url(#clip060)" d="M364.88 1481.64 L381.2 1481.64 L381.2 1485.58 L359.255 1485.58 L359.255 1481.64 Q361.917 1478.89 366.501 1474.26 Q371.107 1469.61 372.288 1468.27 Q374.533 1465.74 375.413 1464.01 Q376.315 1462.25 376.315 1460.56 Q376.315 1457.8 374.371 1456.07 Q372.45 1454.33 369.348 1454.33 Q367.149 1454.33 364.695 1455.09 Q362.265 1455.86 359.487 1457.41 L359.487 1452.69 Q362.311 1451.55 364.765 1450.97 Q367.218 1450.39 369.255 1450.39 Q374.626 1450.39 377.82 1453.08 Q381.014 1455.77 381.014 1460.26 Q381.014 1462.39 380.204 1464.31 Q379.417 1466.2 377.311 1468.8 Q376.732 1469.47 373.63 1472.69 Q370.528 1475.88 364.88 1481.64 Z" fill="#ffffff" fill-rule="nonzero" fill-opacity="1" /><path clip-path="url(#clip060)" d="M401.014 1454.1 Q397.403 1454.1 395.575 1457.66 Q393.769 1461.2 393.769 1468.33 Q393.769 1475.44 395.575 1479.01 Q397.403 1482.55 401.014 1482.55 Q404.649 1482.55 406.454 1479.01 Q408.283 1475.44 408.283 1468.33 Q408.283 1461.2 406.454 1457.66 Q404.649 1454.1 401.014 1454.1 M401.014 1450.39 Q406.825 1450.39 409.88 1455 Q412.959 1459.58 412.959 1468.33 Q412.959 1477.06 409.88 1481.67 Q406.825 1486.25 401.014 1486.25 Q395.204 1486.25 392.126 1481.67 Q389.07 1477.06 389.07 1468.33 Q389.07 1459.58 392.126 1455 Q395.204 1450.39 401.014 1450.39 Z" fill="#ffffff" fill-rule="nonzero" fill-opacity="1" /><path clip-path="url(#clip060)" d="M783.404 1468.75 L813.08 1468.75 L813.08 1472.69 L783.404 1472.69 L783.404 1468.75 Z" fill="#ffffff" fill-rule="nonzero" fill-opacity="1" /><path clip-path="url(#clip060)" d="M823.983 1481.64 L831.622 1481.64 L831.622 1455.28 L823.312 1456.95 L823.312 1452.69 L831.575 1451.02 L836.251 1451.02 L836.251 1481.64 L843.89 1481.64 L843.89 1485.58 L823.983 1485.58 L823.983 1481.64 Z" fill="#ffffff" fill-rule="nonzero" fill-opacity="1" /><path clip-path="url(#clip060)" d="M863.334 1454.1 Q859.723 1454.1 857.895 1457.66 Q856.089 1461.2 856.089 1468.33 Q856.089 1475.44 857.895 1479.01 Q859.723 1482.55 863.334 1482.55 Q866.969 1482.55 868.774 1479.01 Q870.603 1475.44 870.603 1468.33 Q870.603 1461.2 868.774 1457.66 Q866.969 1454.1 863.334 1454.1 M863.334 1450.39 Q869.145 1450.39 872.2 1455 Q875.279 1459.58 875.279 1468.33 Q875.279 1477.06 872.2 1481.67 Q869.145 1486.25 863.334 1486.25 Q857.524 1486.25 854.446 1481.67 Q851.39 1477.06 851.39 1468.33 Q851.39 1459.58 854.446 1455 Q857.524 1450.39 863.334 1450.39 Z" fill="#ffffff" fill-rule="nonzero" fill-opacity="1" /><path clip-path="url(#clip060)" d="M1291.66 1454.1 Q1288.05 1454.1 1286.22 1457.66 Q1284.42 1461.2 1284.42 1468.33 Q1284.42 1475.44 1286.22 1479.01 Q1288.05 1482.55 1291.66 1482.55 Q1295.3 1482.55 1297.1 1479.01 Q1298.93 1475.44 1298.93 1468.33 Q1298.93 1461.2 1297.1 1457.66 Q1295.3 1454.1 1291.66 1454.1 M1291.66 1450.39 Q1297.47 1450.39 1300.53 1455 Q1303.61 1459.58 1303.61 1468.33 Q1303.61 1477.06 1300.53 1481.67 Q1297.47 1486.25 1291.66 1486.25 Q1285.85 1486.25 1282.77 1481.67 Q1279.72 1477.06 1279.72 1468.33 Q1279.72 1459.58 1282.77 1455 Q1285.85 1450.39 1291.66 1450.39 Z" fill="#ffffff" fill-rule="nonzero" fill-opacity="1" /><path clip-path="url(#clip060)" d="M1728.67 1481.64 L1736.31 1481.64 L1736.31 1455.28 L1728 1456.95 L1728 1452.69 L1736.26 1451.02 L1740.94 1451.02 L1740.94 1481.64 L1748.58 1481.64 L1748.58 1485.58 L1728.67 1485.58 L1728.67 1481.64 Z" fill="#ffffff" fill-rule="nonzero" fill-opacity="1" /><path clip-path="url(#clip060)" d="M1768.02 1454.1 Q1764.41 1454.1 1762.58 1457.66 Q1760.78 1461.2 1760.78 1468.33 Q1760.78 1475.44 1762.58 1479.01 Q1764.41 1482.55 1768.02 1482.55 Q1771.66 1482.55 1773.46 1479.01 Q1775.29 1475.44 1775.29 1468.33 Q1775.29 1461.2 1773.46 1457.66 Q1771.66 1454.1 1768.02 1454.1 M1768.02 1450.39 Q1773.83 1450.39 1776.89 1455 Q1779.97 1459.58 1779.97 1468.33 Q1779.97 1477.06 1776.89 1481.67 Q1773.83 1486.25 1768.02 1486.25 Q1762.21 1486.25 1759.13 1481.67 Q1756.08 1477.06 1756.08 1468.33 Q1756.08 1459.58 1759.13 1455 Q1762.21 1450.39 1768.02 1450.39 Z" fill="#ffffff" fill-rule="nonzero" fill-opacity="1" /><path clip-path="url(#clip060)" d="M2195.08 1481.64 L2211.39 1481.64 L2211.39 1485.58 L2189.45 1485.58 L2189.45 1481.64 Q2192.11 1478.89 2196.7 1474.26 Q2201.3 1469.61 2202.48 1468.27 Q2204.73 1465.74 2205.61 1464.01 Q2206.51 1462.25 2206.51 1460.56 Q2206.51 1457.8 2204.57 1456.07 Q2202.64 1454.33 2199.54 1454.33 Q2197.34 1454.33 2194.89 1455.09 Q2192.46 1455.86 2189.68 1457.41 L2189.68 1452.69 Q2192.51 1451.55 2194.96 1450.97 Q2197.41 1450.39 2199.45 1450.39 Q2204.82 1450.39 2208.01 1453.08 Q2211.21 1455.77 2211.21 1460.26 Q2211.21 1462.39 2210.4 1464.31 Q2209.61 1466.2 2207.51 1468.8 Q2206.93 1469.47 2203.83 1472.69 Q2200.72 1475.88 2195.08 1481.64 Z" fill="#ffffff" fill-rule="nonzero" fill-opacity="1" /><path clip-path="url(#clip060)" d="M2231.21 1454.1 Q2227.6 1454.1 2225.77 1457.66 Q2223.96 1461.2 2223.96 1468.33 Q2223.96 1475.44 2225.77 1479.01 Q2227.6 1482.55 2231.21 1482.55 Q2234.84 1482.55 2236.65 1479.01 Q2238.48 1475.44 2238.48 1468.33 Q2238.48 1461.2 2236.65 1457.66 Q2234.84 1454.1 2231.21 1454.1 M2231.21 1450.39 Q2237.02 1450.39 2240.07 1455 Q2243.15 1459.58 2243.15 1468.33 Q2243.15 1477.06 2240.07 1481.67 Q2237.02 1486.25 2231.21 1486.25 Q2225.4 1486.25 2222.32 1481.67 Q2219.26 1477.06 2219.26 1468.33 Q2219.26 1459.58 2222.32 1455 Q2225.4 1450.39 2231.21 1450.39 Z" fill="#ffffff" fill-rule="nonzero" fill-opacity="1" /><path clip-path="url(#clip060)" d="M781.835 1525.81 L781.835 1562.76 L789.601 1562.76 Q799.436 1562.76 803.987 1558.3 Q808.571 1553.85 808.571 1544.24 Q808.571 1534.69 803.987 1530.26 Q799.436 1525.81 789.601 1525.81 L781.835 1525.81 M775.405 1520.52 L788.614 1520.52 Q802.428 1520.52 808.889 1526.28 Q815.35 1532.01 815.35 1544.24 Q815.35 1556.52 808.857 1562.28 Q802.364 1568.04 788.614 1568.04 L775.405 1568.04 L775.405 1520.52 Z" fill="#ffffff" fill-rule="nonzero" fill-opacity="1" /><path clip-path="url(#clip060)" d="M841.545 1550.12 Q834.447 1550.12 831.71 1551.75 Q828.973 1553.37 828.973 1557.29 Q828.973 1560.4 831.01 1562.25 Q833.079 1564.07 836.612 1564.07 Q841.481 1564.07 844.41 1560.63 Q847.37 1557.16 847.37 1551.43 L847.37 1550.12 L841.545 1550.12 M853.226 1547.71 L853.226 1568.04 L847.37 1568.04 L847.37 1562.63 Q845.364 1565.88 842.372 1567.44 Q839.381 1568.97 835.052 1568.97 Q829.577 1568.97 826.331 1565.91 Q823.116 1562.82 823.116 1557.67 Q823.116 1551.65 827.127 1548.6 Q831.169 1545.54 839.158 1545.54 L847.37 1545.54 L847.37 1544.97 Q847.37 1540.93 844.696 1538.73 Q842.054 1536.5 837.248 1536.5 Q834.193 1536.5 831.296 1537.23 Q828.4 1537.97 825.726 1539.43 L825.726 1534.02 Q828.941 1532.78 831.965 1532.17 Q834.988 1531.54 837.853 1531.54 Q845.587 1531.54 849.407 1535.55 Q853.226 1539.56 853.226 1547.71 Z" fill="#ffffff" fill-rule="nonzero" fill-opacity="1" /><path clip-path="url(#clip060)" d="M865.289 1532.4 L871.145 1532.4 L871.145 1568.04 L865.289 1568.04 L865.289 1532.4 M865.289 1518.52 L871.145 1518.52 L871.145 1525.93 L865.289 1525.93 L865.289 1518.52 Z" fill="#ffffff" fill-rule="nonzero" fill-opacity="1" /><path clip-path="url(#clip060)" d="M883.399 1518.52 L889.256 1518.52 L889.256 1568.04 L883.399 1568.04 L883.399 1518.52 Z" fill="#ffffff" fill-rule="nonzero" fill-opacity="1" /><path clip-path="url(#clip060)" d="M916.342 1571.35 Q913.859 1577.72 911.504 1579.66 Q909.149 1581.6 905.202 1581.6 L900.523 1581.6 L900.523 1576.7 L903.961 1576.7 Q906.38 1576.7 907.716 1575.56 Q909.053 1574.41 910.677 1570.14 L911.727 1567.47 L897.309 1532.4 L903.515 1532.4 L914.655 1560.28 L925.795 1532.4 L932.002 1532.4 L916.342 1571.35 Z" fill="#ffffff" fill-rule="nonzero" fill-opacity="1" /><path clip-path="url(#clip060)" d="M976.944 1526.86 L968.223 1550.51 L985.696 1550.51 L976.944 1526.86 M973.315 1520.52 L980.604 1520.52 L998.714 1568.04 L992.03 1568.04 L987.702 1555.85 L966.281 1555.85 L961.952 1568.04 L955.173 1568.04 L973.315 1520.52 Z" fill="#ffffff" fill-rule="nonzero" fill-opacity="1" /><path clip-path="url(#clip060)" d="M1023.35 1526.86 L1014.63 1550.51 L1032.1 1550.51 L1023.35 1526.86 M1019.72 1520.52 L1027.01 1520.52 L1045.12 1568.04 L1038.44 1568.04 L1034.11 1555.85 L1012.69 1555.85 L1008.36 1568.04 L1001.58 1568.04 L1019.72 1520.52 Z" fill="#ffffff" fill-rule="nonzero" fill-opacity="1" /><path clip-path="url(#clip060)" d="M1058.49 1525.81 L1058.49 1543.66 L1066.57 1543.66 Q1071.06 1543.66 1073.51 1541.34 Q1075.96 1539.02 1075.96 1534.72 Q1075.96 1530.45 1073.51 1528.13 Q1071.06 1525.81 1066.57 1525.81 L1058.49 1525.81 M1052.06 1520.52 L1066.57 1520.52 Q1074.56 1520.52 1078.64 1524.15 Q1082.74 1527.75 1082.74 1534.72 Q1082.74 1541.75 1078.64 1545.35 Q1074.56 1548.95 1066.57 1548.95 L1058.49 1548.95 L1058.49 1568.04 L1052.06 1568.04 L1052.06 1520.52 Z" fill="#ffffff" fill-rule="nonzero" fill-opacity="1" /><path clip-path="url(#clip060)" d="M1091.37 1520.52 L1097.8 1520.52 L1097.8 1562.63 L1120.94 1562.63 L1120.94 1568.04 L1091.37 1568.04 L1091.37 1520.52 Z" fill="#ffffff" fill-rule="nonzero" fill-opacity="1" /><path clip-path="url(#clip060)" d="M1171.61 1549.81 Q1171.61 1543.44 1168.97 1539.94 Q1166.36 1536.44 1161.61 1536.44 Q1156.9 1536.44 1154.26 1539.94 Q1151.65 1543.44 1151.65 1549.81 Q1151.65 1556.14 1154.26 1559.64 Q1156.9 1563.14 1161.61 1563.14 Q1166.36 1563.14 1168.97 1559.64 Q1171.61 1556.14 1171.61 1549.81 M1177.46 1563.62 Q1177.46 1572.72 1173.42 1577.15 Q1169.38 1581.6 1161.04 1581.6 Q1157.95 1581.6 1155.22 1581.13 Q1152.48 1580.68 1149.9 1579.72 L1149.9 1574.03 Q1152.48 1575.43 1154.99 1576.1 Q1157.51 1576.76 1160.12 1576.76 Q1165.88 1576.76 1168.74 1573.74 Q1171.61 1570.75 1171.61 1564.67 L1171.61 1561.77 Q1169.79 1564.92 1166.96 1566.48 Q1164.13 1568.04 1160.18 1568.04 Q1153.62 1568.04 1149.61 1563.05 Q1145.6 1558.05 1145.6 1549.81 Q1145.6 1541.53 1149.61 1536.53 Q1153.62 1531.54 1160.18 1531.54 Q1164.13 1531.54 1166.96 1533.1 Q1169.79 1534.66 1171.61 1537.81 L1171.61 1532.4 L1177.46 1532.4 L1177.46 1563.62 Z" fill="#ffffff" fill-rule="nonzero" fill-opacity="1" /><path clip-path="url(#clip060)" d="M1210.18 1537.87 Q1209.2 1537.3 1208.02 1537.04 Q1206.87 1536.76 1205.47 1536.76 Q1200.51 1536.76 1197.83 1540 Q1195.19 1543.22 1195.19 1549.27 L1195.19 1568.04 L1189.3 1568.04 L1189.3 1532.4 L1195.19 1532.4 L1195.19 1537.93 Q1197.04 1534.69 1200 1533.13 Q1202.96 1531.54 1207.19 1531.54 Q1207.8 1531.54 1208.53 1531.63 Q1209.26 1531.7 1210.15 1531.85 L1210.18 1537.87 Z" fill="#ffffff" fill-rule="nonzero" fill-opacity="1" /><path clip-path="url(#clip060)" d="M1228.71 1536.5 Q1224 1536.5 1221.26 1540.19 Q1218.52 1543.85 1218.52 1550.25 Q1218.52 1556.65 1221.23 1560.34 Q1223.96 1564 1228.71 1564 Q1233.39 1564 1236.12 1560.31 Q1238.86 1556.62 1238.86 1550.25 Q1238.86 1543.92 1236.12 1540.23 Q1233.39 1536.5 1228.71 1536.5 M1228.71 1531.54 Q1236.35 1531.54 1240.71 1536.5 Q1245.07 1541.47 1245.07 1550.25 Q1245.07 1559 1240.71 1564 Q1236.35 1568.97 1228.71 1568.97 Q1221.04 1568.97 1216.68 1564 Q1212.35 1559 1212.35 1550.25 Q1212.35 1541.47 1216.68 1536.5 Q1221.04 1531.54 1228.71 1531.54 Z" fill="#ffffff" fill-rule="nonzero" fill-opacity="1" /><path clip-path="url(#clip060)" d="M1251.37 1532.4 L1257.23 1532.4 L1264.55 1560.21 L1271.83 1532.4 L1278.74 1532.4 L1286.06 1560.21 L1293.35 1532.4 L1299.21 1532.4 L1289.88 1568.04 L1282.97 1568.04 L1275.3 1538.83 L1267.6 1568.04 L1260.69 1568.04 L1251.37 1532.4 Z" fill="#ffffff" fill-rule="nonzero" fill-opacity="1" /><path clip-path="url(#clip060)" d="M1313.88 1522.27 L1313.88 1532.4 L1325.94 1532.4 L1325.94 1536.95 L1313.88 1536.95 L1313.88 1556.3 Q1313.88 1560.66 1315.06 1561.9 Q1316.27 1563.14 1319.93 1563.14 L1325.94 1563.14 L1325.94 1568.04 L1319.93 1568.04 Q1313.15 1568.04 1310.57 1565.53 Q1307.99 1562.98 1307.99 1556.3 L1307.99 1536.95 L1303.7 1536.95 L1303.7 1532.4 L1307.99 1532.4 L1307.99 1522.27 L1313.88 1522.27 Z" fill="#ffffff" fill-rule="nonzero" fill-opacity="1" /><path clip-path="url(#clip060)" d="M1363.28 1546.53 L1363.28 1568.04 L1357.42 1568.04 L1357.42 1546.72 Q1357.42 1541.66 1355.45 1539.14 Q1353.48 1536.63 1349.53 1536.63 Q1344.79 1536.63 1342.05 1539.65 Q1339.31 1542.68 1339.31 1547.9 L1339.31 1568.04 L1333.42 1568.04 L1333.42 1518.52 L1339.31 1518.52 L1339.31 1537.93 Q1341.41 1534.72 1344.24 1533.13 Q1347.11 1531.54 1350.83 1531.54 Q1356.98 1531.54 1360.13 1535.36 Q1363.28 1539.14 1363.28 1546.53 Z" fill="#ffffff" fill-rule="nonzero" fill-opacity="1" /><path clip-path="url(#clip060)" d="M1416.34 1537.87 Q1415.35 1537.3 1414.17 1537.04 Q1413.03 1536.76 1411.63 1536.76 Q1406.66 1536.76 1403.99 1540 Q1401.35 1543.22 1401.35 1549.27 L1401.35 1568.04 L1395.46 1568.04 L1395.46 1532.4 L1401.35 1532.4 L1401.35 1537.93 Q1403.19 1534.69 1406.15 1533.13 Q1409.11 1531.54 1413.34 1531.54 Q1413.95 1531.54 1414.68 1531.63 Q1415.41 1531.7 1416.3 1531.85 L1416.34 1537.87 Z" fill="#ffffff" fill-rule="nonzero" fill-opacity="1" /><path clip-path="url(#clip060)" d="M1438.68 1550.12 Q1431.58 1550.12 1428.85 1551.75 Q1426.11 1553.37 1426.11 1557.29 Q1426.11 1560.4 1428.14 1562.25 Q1430.21 1564.07 1433.75 1564.07 Q1438.62 1564.07 1441.54 1560.63 Q1444.5 1557.16 1444.5 1551.43 L1444.5 1550.12 L1438.68 1550.12 M1450.36 1547.71 L1450.36 1568.04 L1444.5 1568.04 L1444.5 1562.63 Q1442.5 1565.88 1439.51 1567.44 Q1436.52 1568.97 1432.19 1568.97 Q1426.71 1568.97 1423.47 1565.91 Q1420.25 1562.82 1420.25 1557.67 Q1420.25 1551.65 1424.26 1548.6 Q1428.3 1545.54 1436.29 1545.54 L1444.5 1545.54 L1444.5 1544.97 Q1444.5 1540.93 1441.83 1538.73 Q1439.19 1536.5 1434.38 1536.5 Q1431.33 1536.5 1428.43 1537.23 Q1425.53 1537.97 1422.86 1539.43 L1422.86 1534.02 Q1426.08 1532.78 1429.1 1532.17 Q1432.12 1531.54 1434.99 1531.54 Q1442.72 1531.54 1446.54 1535.55 Q1450.36 1539.56 1450.36 1547.71 Z" fill="#ffffff" fill-rule="nonzero" fill-opacity="1" /><path clip-path="url(#clip060)" d="M1468.22 1522.27 L1468.22 1532.4 L1480.28 1532.4 L1480.28 1536.95 L1468.22 1536.95 L1468.22 1556.3 Q1468.22 1560.66 1469.39 1561.9 Q1470.6 1563.14 1474.26 1563.14 L1480.28 1563.14 L1480.28 1568.04 L1474.26 1568.04 Q1467.48 1568.04 1464.91 1565.53 Q1462.33 1562.98 1462.33 1556.3 L1462.33 1536.95 L1458.03 1536.95 L1458.03 1532.4 L1462.33 1532.4 L1462.33 1522.27 L1468.22 1522.27 Z" fill="#ffffff" fill-rule="nonzero" fill-opacity="1" /><path clip-path="url(#clip060)" d="M1518.47 1548.76 L1518.47 1551.62 L1491.55 1551.62 Q1491.93 1557.67 1495.18 1560.85 Q1498.45 1564 1504.28 1564 Q1507.65 1564 1510.8 1563.17 Q1513.99 1562.35 1517.11 1560.69 L1517.11 1566.23 Q1513.95 1567.57 1510.64 1568.27 Q1507.33 1568.97 1503.93 1568.97 Q1495.4 1568.97 1490.4 1564 Q1485.44 1559.04 1485.44 1550.57 Q1485.44 1541.82 1490.15 1536.69 Q1494.89 1531.54 1502.91 1531.54 Q1510.1 1531.54 1514.27 1536.18 Q1518.47 1540.8 1518.47 1548.76 M1512.62 1547.04 Q1512.55 1542.23 1509.91 1539.37 Q1507.3 1536.5 1502.97 1536.5 Q1498.07 1536.5 1495.11 1539.27 Q1492.18 1542.04 1491.74 1547.07 L1512.62 1547.04 Z" fill="#ffffff" fill-rule="nonzero" fill-opacity="1" /><path clip-path="url(#clip060)" d="M1562.87 1518.58 Q1558.61 1525.9 1556.54 1533.06 Q1554.47 1540.23 1554.47 1547.58 Q1554.47 1554.93 1556.54 1562.16 Q1558.64 1569.35 1562.87 1576.64 L1557.78 1576.64 Q1553.01 1569.16 1550.62 1561.93 Q1548.27 1554.71 1548.27 1547.58 Q1548.27 1540.48 1550.62 1533.29 Q1552.98 1526.09 1557.78 1518.58 L1562.87 1518.58 Z" fill="#ffffff" fill-rule="nonzero" fill-opacity="1" /><path clip-path="url(#clip060)" d="M1603.87 1532.4 L1590.98 1549.74 L1604.54 1568.04 L1597.63 1568.04 L1587.26 1554.04 L1576.88 1568.04 L1569.97 1568.04 L1583.82 1549.39 L1571.15 1532.4 L1578.06 1532.4 L1587.51 1545.1 L1596.96 1532.4 L1603.87 1532.4 Z" fill="#ffffff" fill-rule="nonzero" fill-opacity="1" /><path clip-path="url(#clip060)" d="M1611.89 1518.58 L1616.98 1518.58 Q1621.76 1526.09 1624.11 1533.29 Q1626.5 1540.48 1626.5 1547.58 Q1626.5 1554.71 1624.11 1561.93 Q1621.76 1569.16 1616.98 1576.64 L1611.89 1576.64 Q1616.12 1569.35 1618.19 1562.16 Q1620.29 1554.93 1620.29 1547.58 Q1620.29 1540.23 1618.19 1533.06 Q1616.12 1525.9 1611.89 1518.58 Z" fill="#ffffff" fill-rule="nonzero" fill-opacity="1" /><path clip-path="url(#clip060)" d="M1673.03 1518.58 Q1668.77 1525.9 1666.7 1533.06 Q1664.63 1540.23 1664.63 1547.58 Q1664.63 1554.93 1666.7 1562.16 Q1668.8 1569.35 1673.03 1576.64 L1667.94 1576.64 Q1663.17 1569.16 1660.78 1561.93 Q1658.42 1554.71 1658.42 1547.58 Q1658.42 1540.48 1660.78 1533.29 Q1663.13 1526.09 1667.94 1518.58 L1673.03 1518.58 Z" fill="#ffffff" fill-rule="nonzero" fill-opacity="1" /><path clip-path="url(#clip060)" d="M1686.34 1562.63 L1696.84 1562.63 L1696.84 1526.38 L1685.41 1528.67 L1685.41 1522.82 L1696.78 1520.52 L1703.21 1520.52 L1703.21 1562.63 L1713.71 1562.63 L1713.71 1568.04 L1686.34 1568.04 L1686.34 1562.63 Z" fill="#ffffff" fill-rule="nonzero" fill-opacity="1" /><path clip-path="url(#clip060)" d="M1736.28 1520.52 L1741.69 1520.52 L1725.14 1574.09 L1719.73 1574.09 L1736.28 1520.52 Z" fill="#ffffff" fill-rule="nonzero" fill-opacity="1" /><path clip-path="url(#clip060)" d="M1762.66 1571.35 Q1760.18 1577.72 1757.82 1579.66 Q1755.47 1581.6 1751.52 1581.6 L1746.84 1581.6 L1746.84 1576.7 L1750.28 1576.7 Q1752.7 1576.7 1754.04 1575.56 Q1755.37 1574.41 1757 1570.14 L1758.05 1567.47 L1743.63 1532.4 L1749.84 1532.4 L1760.98 1560.28 L1772.12 1532.4 L1778.32 1532.4 L1762.66 1571.35 Z" fill="#ffffff" fill-rule="nonzero" fill-opacity="1" /><path clip-path="url(#clip060)" d="M1807.06 1537.87 Q1806.08 1537.3 1804.9 1537.04 Q1803.75 1536.76 1802.35 1536.76 Q1797.39 1536.76 1794.71 1540 Q1792.07 1543.22 1792.07 1549.27 L1792.07 1568.04 L1786.18 1568.04 L1786.18 1532.4 L1792.07 1532.4 L1792.07 1537.93 Q1793.92 1534.69 1796.88 1533.13 Q1799.84 1531.54 1804.07 1531.54 Q1804.68 1531.54 1805.41 1531.63 Q1806.14 1531.7 1807.03 1531.85 L1807.06 1537.87 Z" fill="#ffffff" fill-rule="nonzero" fill-opacity="1" /><path clip-path="url(#clip060)" d="M1812.28 1518.58 L1817.38 1518.58 Q1822.15 1526.09 1824.51 1533.29 Q1826.89 1540.48 1826.89 1547.58 Q1826.89 1554.71 1824.51 1561.93 Q1822.15 1569.16 1817.38 1576.64 L1812.28 1576.64 Q1816.52 1569.35 1818.59 1562.16 Q1820.69 1554.93 1820.69 1547.58 Q1820.69 1540.23 1818.59 1533.06 Q1816.52 1525.9 1812.28 1518.58 Z" fill="#ffffff" fill-rule="nonzero" fill-opacity="1" /><polyline clip-path="url(#clip060)" style="stroke:#ffffff; stroke-linecap:round; stroke-linejoin:round; stroke-width:4; stroke-opacity:1; fill:none" points="249.542,1423.18 249.542,47.2441 "/>
<polyline clip-path="url(#clip060)" style="stroke:#ffffff; stroke-linecap:round; stroke-linejoin:round; stroke-width:4; stroke-opacity:1; fill:none" points="2352.76,1423.18 2352.76,47.2441 "/>
<polyline clip-path="url(#clip060)" style="stroke:#ffffff; stroke-linecap:round; stroke-linejoin:round; stroke-width:4; stroke-opacity:1; fill:none" points="249.542,1384.77 268.44,1384.77 "/>
<polyline clip-path="url(#clip060)" style="stroke:#ffffff; stroke-linecap:round; stroke-linejoin:round; stroke-width:4; stroke-opacity:1; fill:none" points="249.542,1059.98 268.44,1059.98 "/>
<polyline clip-path="url(#clip060)" style="stroke:#ffffff; stroke-linecap:round; stroke-linejoin:round; stroke-width:4; stroke-opacity:1; fill:none" points="249.542,735.189 268.44,735.189 "/>
<polyline clip-path="url(#clip060)" style="stroke:#ffffff; stroke-linecap:round; stroke-linejoin:round; stroke-width:4; stroke-opacity:1; fill:none" points="249.542,410.398 268.44,410.398 "/>
<polyline clip-path="url(#clip060)" style="stroke:#ffffff; stroke-linecap:round; stroke-linejoin:round; stroke-width:4; stroke-opacity:1; fill:none" points="249.542,85.6072 268.44,85.6072 "/>
<polyline clip-path="url(#clip060)" style="stroke:#ffffff; stroke-linecap:round; stroke-linejoin:round; stroke-width:4; stroke-opacity:1; fill:none" points="2352.76,1384.77 2333.86,1384.77 "/>
<polyline clip-path="url(#clip060)" style="stroke:#ffffff; stroke-linecap:round; stroke-linejoin:round; stroke-width:4; stroke-opacity:1; fill:none" points="2352.76,1059.98 2333.86,1059.98 "/>
<polyline clip-path="url(#clip060)" style="stroke:#ffffff; stroke-linecap:round; stroke-linejoin:round; stroke-width:4; stroke-opacity:1; fill:none" points="2352.76,735.189 2333.86,735.189 "/>
<polyline clip-path="url(#clip060)" style="stroke:#ffffff; stroke-linecap:round; stroke-linejoin:round; stroke-width:4; stroke-opacity:1; fill:none" points="2352.76,410.398 2333.86,410.398 "/>
<polyline clip-path="url(#clip060)" style="stroke:#ffffff; stroke-linecap:round; stroke-linejoin:round; stroke-width:4; stroke-opacity:1; fill:none" points="2352.76,85.6072 2333.86,85.6072 "/>
<polyline clip-path="url(#clip060)" style="stroke:#ffffff; stroke-linecap:round; stroke-linejoin:round; stroke-width:4; stroke-opacity:1; fill:none" points="249.542,1319.81 258.991,1319.81 "/>
<polyline clip-path="url(#clip060)" style="stroke:#ffffff; stroke-linecap:round; stroke-linejoin:round; stroke-width:4; stroke-opacity:1; fill:none" points="249.542,1254.85 258.991,1254.85 "/>
<polyline clip-path="url(#clip060)" style="stroke:#ffffff; stroke-linecap:round; stroke-linejoin:round; stroke-width:4; stroke-opacity:1; fill:none" points="249.542,1189.9 258.991,1189.9 "/>
<polyline clip-path="url(#clip060)" style="stroke:#ffffff; stroke-linecap:round; stroke-linejoin:round; stroke-width:4; stroke-opacity:1; fill:none" points="249.542,1124.94 258.991,1124.94 "/>
<polyline clip-path="url(#clip060)" style="stroke:#ffffff; stroke-linecap:round; stroke-linejoin:round; stroke-width:4; stroke-opacity:1; fill:none" points="249.542,995.021 258.991,995.021 "/>
<polyline clip-path="url(#clip060)" style="stroke:#ffffff; stroke-linecap:round; stroke-linejoin:round; stroke-width:4; stroke-opacity:1; fill:none" points="249.542,930.063 258.991,930.063 "/>
<polyline clip-path="url(#clip060)" style="stroke:#ffffff; stroke-linecap:round; stroke-linejoin:round; stroke-width:4; stroke-opacity:1; fill:none" points="249.542,865.105 258.991,865.105 "/>
<polyline clip-path="url(#clip060)" style="stroke:#ffffff; stroke-linecap:round; stroke-linejoin:round; stroke-width:4; stroke-opacity:1; fill:none" points="249.542,800.147 258.991,800.147 "/>
<polyline clip-path="url(#clip060)" style="stroke:#ffffff; stroke-linecap:round; stroke-linejoin:round; stroke-width:4; stroke-opacity:1; fill:none" points="249.542,670.231 258.991,670.231 "/>
<polyline clip-path="url(#clip060)" style="stroke:#ffffff; stroke-linecap:round; stroke-linejoin:round; stroke-width:4; stroke-opacity:1; fill:none" points="249.542,605.272 258.991,605.272 "/>
<polyline clip-path="url(#clip060)" style="stroke:#ffffff; stroke-linecap:round; stroke-linejoin:round; stroke-width:4; stroke-opacity:1; fill:none" points="249.542,540.314 258.991,540.314 "/>
<polyline clip-path="url(#clip060)" style="stroke:#ffffff; stroke-linecap:round; stroke-linejoin:round; stroke-width:4; stroke-opacity:1; fill:none" points="249.542,475.356 258.991,475.356 "/>
<polyline clip-path="url(#clip060)" style="stroke:#ffffff; stroke-linecap:round; stroke-linejoin:round; stroke-width:4; stroke-opacity:1; fill:none" points="249.542,345.44 258.991,345.44 "/>
<polyline clip-path="url(#clip060)" style="stroke:#ffffff; stroke-linecap:round; stroke-linejoin:round; stroke-width:4; stroke-opacity:1; fill:none" points="249.542,280.482 258.991,280.482 "/>
<polyline clip-path="url(#clip060)" style="stroke:#ffffff; stroke-linecap:round; stroke-linejoin:round; stroke-width:4; stroke-opacity:1; fill:none" points="249.542,215.524 258.991,215.524 "/>
<polyline clip-path="url(#clip060)" style="stroke:#ffffff; stroke-linecap:round; stroke-linejoin:round; stroke-width:4; stroke-opacity:1; fill:none" points="249.542,150.565 258.991,150.565 "/>
<polyline clip-path="url(#clip060)" style="stroke:#ffffff; stroke-linecap:round; stroke-linejoin:round; stroke-width:4; stroke-opacity:1; fill:none" points="2352.76,1319.81 2343.31,1319.81 "/>
<polyline clip-path="url(#clip060)" style="stroke:#ffffff; stroke-linecap:round; stroke-linejoin:round; stroke-width:4; stroke-opacity:1; fill:none" points="2352.76,1254.85 2343.31,1254.85 "/>
<polyline clip-path="url(#clip060)" style="stroke:#ffffff; stroke-linecap:round; stroke-linejoin:round; stroke-width:4; stroke-opacity:1; fill:none" points="2352.76,1189.9 2343.31,1189.9 "/>
<polyline clip-path="url(#clip060)" style="stroke:#ffffff; stroke-linecap:round; stroke-linejoin:round; stroke-width:4; stroke-opacity:1; fill:none" points="2352.76,1124.94 2343.31,1124.94 "/>
<polyline clip-path="url(#clip060)" style="stroke:#ffffff; stroke-linecap:round; stroke-linejoin:round; stroke-width:4; stroke-opacity:1; fill:none" points="2352.76,995.021 2343.31,995.021 "/>
<polyline clip-path="url(#clip060)" style="stroke:#ffffff; stroke-linecap:round; stroke-linejoin:round; stroke-width:4; stroke-opacity:1; fill:none" points="2352.76,930.063 2343.31,930.063 "/>
<polyline clip-path="url(#clip060)" style="stroke:#ffffff; stroke-linecap:round; stroke-linejoin:round; stroke-width:4; stroke-opacity:1; fill:none" points="2352.76,865.105 2343.31,865.105 "/>
<polyline clip-path="url(#clip060)" style="stroke:#ffffff; stroke-linecap:round; stroke-linejoin:round; stroke-width:4; stroke-opacity:1; fill:none" points="2352.76,800.147 2343.31,800.147 "/>
<polyline clip-path="url(#clip060)" style="stroke:#ffffff; stroke-linecap:round; stroke-linejoin:round; stroke-width:4; stroke-opacity:1; fill:none" points="2352.76,670.231 2343.31,670.231 "/>
<polyline clip-path="url(#clip060)" style="stroke:#ffffff; stroke-linecap:round; stroke-linejoin:round; stroke-width:4; stroke-opacity:1; fill:none" points="2352.76,605.272 2343.31,605.272 "/>
<polyline clip-path="url(#clip060)" style="stroke:#ffffff; stroke-linecap:round; stroke-linejoin:round; stroke-width:4; stroke-opacity:1; fill:none" points="2352.76,540.314 2343.31,540.314 "/>
<polyline clip-path="url(#clip060)" style="stroke:#ffffff; stroke-linecap:round; stroke-linejoin:round; stroke-width:4; stroke-opacity:1; fill:none" points="2352.76,475.356 2343.31,475.356 "/>
<polyline clip-path="url(#clip060)" style="stroke:#ffffff; stroke-linecap:round; stroke-linejoin:round; stroke-width:4; stroke-opacity:1; fill:none" points="2352.76,345.44 2343.31,345.44 "/>
<polyline clip-path="url(#clip060)" style="stroke:#ffffff; stroke-linecap:round; stroke-linejoin:round; stroke-width:4; stroke-opacity:1; fill:none" points="2352.76,280.482 2343.31,280.482 "/>
<polyline clip-path="url(#clip060)" style="stroke:#ffffff; stroke-linecap:round; stroke-linejoin:round; stroke-width:4; stroke-opacity:1; fill:none" points="2352.76,215.524 2343.31,215.524 "/>
<polyline clip-path="url(#clip060)" style="stroke:#ffffff; stroke-linecap:round; stroke-linejoin:round; stroke-width:4; stroke-opacity:1; fill:none" points="2352.76,150.565 2343.31,150.565 "/>
<path clip-path="url(#clip060)" d="M126.205 1370.57 Q122.593 1370.57 120.765 1374.13 Q118.959 1377.68 118.959 1384.8 Q118.959 1391.91 120.765 1395.48 Q122.593 1399.02 126.205 1399.02 Q129.839 1399.02 131.644 1395.48 Q133.473 1391.91 133.473 1384.8 Q133.473 1377.68 131.644 1374.13 Q129.839 1370.57 126.205 1370.57 M126.205 1366.87 Q132.015 1366.87 135.07 1371.47 Q138.149 1376.05 138.149 1384.8 Q138.149 1393.53 135.07 1398.14 Q132.015 1402.72 126.205 1402.72 Q120.394 1402.72 117.316 1398.14 Q114.26 1393.53 114.26 1384.8 Q114.26 1376.05 117.316 1371.47 Q120.394 1366.87 126.205 1366.87 Z" fill="#ffffff" fill-rule="nonzero" fill-opacity="1" /><path clip-path="url(#clip060)" d="M146.366 1396.17 L151.251 1396.17 L151.251 1402.05 L146.366 1402.05 L146.366 1396.17 Z" fill="#ffffff" fill-rule="nonzero" fill-opacity="1" /><path clip-path="url(#clip060)" d="M171.436 1370.57 Q167.825 1370.57 165.996 1374.13 Q164.19 1377.68 164.19 1384.8 Q164.19 1391.91 165.996 1395.48 Q167.825 1399.02 171.436 1399.02 Q175.07 1399.02 176.876 1395.48 Q178.704 1391.91 178.704 1384.8 Q178.704 1377.68 176.876 1374.13 Q175.07 1370.57 171.436 1370.57 M171.436 1366.87 Q177.246 1366.87 180.301 1371.47 Q183.38 1376.05 183.38 1384.8 Q183.38 1393.53 180.301 1398.14 Q177.246 1402.72 171.436 1402.72 Q165.626 1402.72 162.547 1398.14 Q159.491 1393.53 159.491 1384.8 Q159.491 1376.05 162.547 1371.47 Q165.626 1366.87 171.436 1366.87 Z" fill="#ffffff" fill-rule="nonzero" fill-opacity="1" /><path clip-path="url(#clip060)" d="M201.598 1370.57 Q197.987 1370.57 196.158 1374.13 Q194.352 1377.68 194.352 1384.8 Q194.352 1391.91 196.158 1395.48 Q197.987 1399.02 201.598 1399.02 Q205.232 1399.02 207.037 1395.48 Q208.866 1391.91 208.866 1384.8 Q208.866 1377.68 207.037 1374.13 Q205.232 1370.57 201.598 1370.57 M201.598 1366.87 Q207.408 1366.87 210.463 1371.47 Q213.542 1376.05 213.542 1384.8 Q213.542 1393.53 210.463 1398.14 Q207.408 1402.72 201.598 1402.72 Q195.787 1402.72 192.709 1398.14 Q189.653 1393.53 189.653 1384.8 Q189.653 1376.05 192.709 1371.47 Q195.787 1366.87 201.598 1366.87 Z" fill="#ffffff" fill-rule="nonzero" fill-opacity="1" /><path clip-path="url(#clip060)" d="M127.2 1045.78 Q123.589 1045.78 121.76 1049.34 Q119.955 1052.88 119.955 1060.01 Q119.955 1067.12 121.76 1070.69 Q123.589 1074.23 127.2 1074.23 Q130.834 1074.23 132.64 1070.69 Q134.468 1067.12 134.468 1060.01 Q134.468 1052.88 132.64 1049.34 Q130.834 1045.78 127.2 1045.78 M127.2 1042.07 Q133.01 1042.07 136.066 1046.68 Q139.144 1051.26 139.144 1060.01 Q139.144 1068.74 136.066 1073.35 Q133.01 1077.93 127.2 1077.93 Q121.39 1077.93 118.311 1073.35 Q115.256 1068.74 115.256 1060.01 Q115.256 1051.26 118.311 1046.68 Q121.39 1042.07 127.2 1042.07 Z" fill="#ffffff" fill-rule="nonzero" fill-opacity="1" /><path clip-path="url(#clip060)" d="M147.362 1071.38 L152.246 1071.38 L152.246 1077.26 L147.362 1077.26 L147.362 1071.38 Z" fill="#ffffff" fill-rule="nonzero" fill-opacity="1" /><path clip-path="url(#clip060)" d="M166.459 1073.32 L182.778 1073.32 L182.778 1077.26 L160.834 1077.26 L160.834 1073.32 Q163.496 1070.57 168.079 1065.94 Q172.686 1061.29 173.866 1059.94 Q176.112 1057.42 176.991 1055.69 Q177.894 1053.93 177.894 1052.24 Q177.894 1049.48 175.95 1047.75 Q174.028 1046.01 170.927 1046.01 Q168.727 1046.01 166.274 1046.77 Q163.843 1047.54 161.065 1049.09 L161.065 1044.37 Q163.89 1043.23 166.343 1042.65 Q168.797 1042.07 170.834 1042.07 Q176.204 1042.07 179.399 1044.76 Q182.593 1047.44 182.593 1051.94 Q182.593 1054.07 181.783 1055.99 Q180.996 1057.88 178.889 1060.48 Q178.311 1061.15 175.209 1064.37 Q172.107 1067.56 166.459 1073.32 Z" fill="#ffffff" fill-rule="nonzero" fill-opacity="1" /><path clip-path="url(#clip060)" d="M192.639 1042.7 L210.996 1042.7 L210.996 1046.63 L196.922 1046.63 L196.922 1055.11 Q197.94 1054.76 198.959 1054.6 Q199.977 1054.41 200.996 1054.41 Q206.783 1054.41 210.162 1057.58 Q213.542 1060.75 213.542 1066.17 Q213.542 1071.75 210.07 1074.85 Q206.598 1077.93 200.278 1077.93 Q198.102 1077.93 195.834 1077.56 Q193.588 1077.19 191.181 1076.45 L191.181 1071.75 Q193.264 1072.88 195.487 1073.44 Q197.709 1074 200.186 1074 Q204.19 1074 206.528 1071.89 Q208.866 1069.78 208.866 1066.17 Q208.866 1062.56 206.528 1060.45 Q204.19 1058.35 200.186 1058.35 Q198.311 1058.35 196.436 1058.76 Q194.584 1059.18 192.639 1060.06 L192.639 1042.7 Z" fill="#ffffff" fill-rule="nonzero" fill-opacity="1" /><path clip-path="url(#clip060)" d="M126.205 720.987 Q122.593 720.987 120.765 724.552 Q118.959 728.094 118.959 735.223 Q118.959 742.33 120.765 745.895 Q122.593 749.436 126.205 749.436 Q129.839 749.436 131.644 745.895 Q133.473 742.33 133.473 735.223 Q133.473 728.094 131.644 724.552 Q129.839 720.987 126.205 720.987 M126.205 717.284 Q132.015 717.284 135.07 721.89 Q138.149 726.473 138.149 735.223 Q138.149 743.95 135.07 748.557 Q132.015 753.14 126.205 753.14 Q120.394 753.14 117.316 748.557 Q114.26 743.95 114.26 735.223 Q114.26 726.473 117.316 721.89 Q120.394 717.284 126.205 717.284 Z" fill="#ffffff" fill-rule="nonzero" fill-opacity="1" /><path clip-path="url(#clip060)" d="M146.366 746.589 L151.251 746.589 L151.251 752.469 L146.366 752.469 L146.366 746.589 Z" fill="#ffffff" fill-rule="nonzero" fill-opacity="1" /><path clip-path="url(#clip060)" d="M161.482 717.909 L179.839 717.909 L179.839 721.844 L165.765 721.844 L165.765 730.316 Q166.783 729.969 167.802 729.807 Q168.82 729.622 169.839 729.622 Q175.626 729.622 179.005 732.793 Q182.385 735.964 182.385 741.381 Q182.385 746.959 178.913 750.061 Q175.44 753.14 169.121 753.14 Q166.945 753.14 164.677 752.77 Q162.431 752.399 160.024 751.659 L160.024 746.959 Q162.107 748.094 164.329 748.649 Q166.552 749.205 169.028 749.205 Q173.033 749.205 175.371 747.098 Q177.709 744.992 177.709 741.381 Q177.709 737.77 175.371 735.663 Q173.033 733.557 169.028 733.557 Q167.153 733.557 165.278 733.973 Q163.427 734.39 161.482 735.27 L161.482 717.909 Z" fill="#ffffff" fill-rule="nonzero" fill-opacity="1" /><path clip-path="url(#clip060)" d="M201.598 720.987 Q197.987 720.987 196.158 724.552 Q194.352 728.094 194.352 735.223 Q194.352 742.33 196.158 745.895 Q197.987 749.436 201.598 749.436 Q205.232 749.436 207.037 745.895 Q208.866 742.33 208.866 735.223 Q208.866 728.094 207.037 724.552 Q205.232 720.987 201.598 720.987 M201.598 717.284 Q207.408 717.284 210.463 721.89 Q213.542 726.473 213.542 735.223 Q213.542 743.95 210.463 748.557 Q207.408 753.14 201.598 753.14 Q195.787 753.14 192.709 748.557 Q189.653 743.95 189.653 735.223 Q189.653 726.473 192.709 721.89 Q195.787 717.284 201.598 717.284 Z" fill="#ffffff" fill-rule="nonzero" fill-opacity="1" /><path clip-path="url(#clip060)" d="M127.2 396.197 Q123.589 396.197 121.76 399.761 Q119.955 403.303 119.955 410.433 Q119.955 417.539 121.76 421.104 Q123.589 424.646 127.2 424.646 Q130.834 424.646 132.64 421.104 Q134.468 417.539 134.468 410.433 Q134.468 403.303 132.64 399.761 Q130.834 396.197 127.2 396.197 M127.2 392.493 Q133.01 392.493 136.066 397.099 Q139.144 401.683 139.144 410.433 Q139.144 419.16 136.066 423.766 Q133.01 428.349 127.2 428.349 Q121.39 428.349 118.311 423.766 Q115.256 419.16 115.256 410.433 Q115.256 401.683 118.311 397.099 Q121.39 392.493 127.2 392.493 Z" fill="#ffffff" fill-rule="nonzero" fill-opacity="1" /><path clip-path="url(#clip060)" d="M147.362 421.798 L152.246 421.798 L152.246 427.678 L147.362 427.678 L147.362 421.798 Z" fill="#ffffff" fill-rule="nonzero" fill-opacity="1" /><path clip-path="url(#clip060)" d="M161.251 393.118 L183.473 393.118 L183.473 395.109 L170.927 427.678 L166.042 427.678 L177.848 397.053 L161.251 397.053 L161.251 393.118 Z" fill="#ffffff" fill-rule="nonzero" fill-opacity="1" /><path clip-path="url(#clip060)" d="M192.639 393.118 L210.996 393.118 L210.996 397.053 L196.922 397.053 L196.922 405.525 Q197.94 405.178 198.959 405.016 Q199.977 404.831 200.996 404.831 Q206.783 404.831 210.162 408.002 Q213.542 411.173 213.542 416.59 Q213.542 422.169 210.07 425.271 Q206.598 428.349 200.278 428.349 Q198.102 428.349 195.834 427.979 Q193.588 427.609 191.181 426.868 L191.181 422.169 Q193.264 423.303 195.487 423.859 Q197.709 424.414 200.186 424.414 Q204.19 424.414 206.528 422.308 Q208.866 420.201 208.866 416.59 Q208.866 412.979 206.528 410.873 Q204.19 408.766 200.186 408.766 Q198.311 408.766 196.436 409.183 Q194.584 409.599 192.639 410.479 L192.639 393.118 Z" fill="#ffffff" fill-rule="nonzero" fill-opacity="1" /><path clip-path="url(#clip060)" d="M117.015 98.9521 L124.654 98.9521 L124.654 72.5865 L116.343 74.2531 L116.343 69.9939 L124.607 68.3272 L129.283 68.3272 L129.283 98.9521 L136.922 98.9521 L136.922 102.887 L117.015 102.887 L117.015 98.9521 Z" fill="#ffffff" fill-rule="nonzero" fill-opacity="1" /><path clip-path="url(#clip060)" d="M146.366 97.0076 L151.251 97.0076 L151.251 102.887 L146.366 102.887 L146.366 97.0076 Z" fill="#ffffff" fill-rule="nonzero" fill-opacity="1" /><path clip-path="url(#clip060)" d="M171.436 71.4059 Q167.825 71.4059 165.996 74.9707 Q164.19 78.5124 164.19 85.6419 Q164.19 92.7484 165.996 96.3132 Q167.825 99.8548 171.436 99.8548 Q175.07 99.8548 176.876 96.3132 Q178.704 92.7484 178.704 85.6419 Q178.704 78.5124 176.876 74.9707 Q175.07 71.4059 171.436 71.4059 M171.436 67.7022 Q177.246 67.7022 180.301 72.3087 Q183.38 76.892 183.38 85.6419 Q183.38 94.3688 180.301 98.9752 Q177.246 103.559 171.436 103.559 Q165.626 103.559 162.547 98.9752 Q159.491 94.3688 159.491 85.6419 Q159.491 76.892 162.547 72.3087 Q165.626 67.7022 171.436 67.7022 Z" fill="#ffffff" fill-rule="nonzero" fill-opacity="1" /><path clip-path="url(#clip060)" d="M201.598 71.4059 Q197.987 71.4059 196.158 74.9707 Q194.352 78.5124 194.352 85.6419 Q194.352 92.7484 196.158 96.3132 Q197.987 99.8548 201.598 99.8548 Q205.232 99.8548 207.037 96.3132 Q208.866 92.7484 208.866 85.6419 Q208.866 78.5124 207.037 74.9707 Q205.232 71.4059 201.598 71.4059 M201.598 67.7022 Q207.408 67.7022 210.463 72.3087 Q213.542 76.892 213.542 85.6419 Q213.542 94.3688 210.463 98.9752 Q207.408 103.559 201.598 103.559 Q195.787 103.559 192.709 98.9752 Q189.653 94.3688 189.653 85.6419 Q189.653 76.892 192.709 72.3087 Q195.787 67.7022 201.598 67.7022 Z" fill="#ffffff" fill-rule="nonzero" fill-opacity="1" /><path clip-path="url(#clip060)" d="M21.7677 977.013 L39.6235 977.013 L39.6235 968.929 Q39.6235 964.441 37.3 961.99 Q34.9765 959.539 30.6797 959.539 Q26.4147 959.539 24.0912 961.99 Q21.7677 964.441 21.7677 968.929 L21.7677 977.013 M16.4842 983.443 L16.4842 968.929 Q16.4842 960.94 20.1126 956.866 Q23.7092 952.76 30.6797 952.76 Q37.7138 952.76 41.3104 956.866 Q44.907 960.94 44.907 968.929 L44.907 977.013 L64.0042 977.013 L64.0042 983.443 L16.4842 983.443 Z" fill="#ffffff" fill-rule="nonzero" fill-opacity="1" /><path clip-path="url(#clip060)" d="M33.8307 924.878 Q33.2578 925.865 33.0032 927.043 Q32.7167 928.188 32.7167 929.589 Q32.7167 934.554 35.9632 937.228 Q39.1779 939.869 45.2253 939.869 L64.0042 939.869 L64.0042 945.758 L28.3562 945.758 L28.3562 939.869 L33.8944 939.869 Q30.6479 938.023 29.0883 935.063 Q27.4968 932.103 27.4968 927.87 Q27.4968 927.265 27.5923 926.533 Q27.656 925.801 27.8151 924.91 L33.8307 924.878 Z" fill="#ffffff" fill-rule="nonzero" fill-opacity="1" /><path clip-path="url(#clip060)" d="M32.4621 906.354 Q32.4621 911.065 36.1542 913.802 Q39.8145 916.539 46.212 916.539 Q52.6095 916.539 56.3017 913.834 Q59.9619 911.096 59.9619 906.354 Q59.9619 901.675 56.2698 898.938 Q52.5777 896.201 46.212 896.201 Q39.8781 896.201 36.186 898.938 Q32.4621 901.675 32.4621 906.354 M27.4968 906.354 Q27.4968 898.715 32.4621 894.355 Q37.4273 889.994 46.212 889.994 Q54.9649 889.994 59.9619 894.355 Q64.9272 898.715 64.9272 906.354 Q64.9272 914.025 59.9619 918.385 Q54.9649 922.714 46.212 922.714 Q37.4273 922.714 32.4621 918.385 Q27.4968 914.025 27.4968 906.354 Z" fill="#ffffff" fill-rule="nonzero" fill-opacity="1" /><path clip-path="url(#clip060)" d="M46.212 854.696 Q39.7508 854.696 36.0905 857.37 Q32.3984 860.012 32.3984 864.659 Q32.3984 869.306 36.0905 871.979 Q39.7508 874.621 46.212 874.621 Q52.6732 874.621 56.3653 871.979 Q60.0256 869.306 60.0256 864.659 Q60.0256 860.012 56.3653 857.37 Q52.6732 854.696 46.212 854.696 M33.7671 874.621 Q30.5842 872.775 29.0564 869.974 Q27.4968 867.141 27.4968 863.226 Q27.4968 856.733 32.6531 852.691 Q37.8093 848.617 46.212 848.617 Q54.6147 848.617 59.771 852.691 Q64.9272 856.733 64.9272 863.226 Q64.9272 867.141 63.3994 869.974 Q61.8398 872.775 58.657 874.621 L64.0042 874.621 L64.0042 880.509 L14.479 880.509 L14.479 874.621 L33.7671 874.621 Z" fill="#ffffff" fill-rule="nonzero" fill-opacity="1" /><path clip-path="url(#clip060)" d="M46.0847 822.709 Q46.0847 829.806 47.7079 832.544 Q49.3312 835.281 53.2461 835.281 Q56.3653 835.281 58.2114 833.244 Q60.0256 831.175 60.0256 827.642 Q60.0256 822.772 56.5881 819.844 Q53.1188 816.884 47.3897 816.884 L46.0847 816.884 L46.0847 822.709 M43.6657 811.028 L64.0042 811.028 L64.0042 816.884 L58.5933 816.884 Q61.8398 818.889 63.3994 821.881 Q64.9272 824.873 64.9272 829.202 Q64.9272 834.676 61.8716 837.923 Q58.7843 841.137 53.6281 841.137 Q47.6125 841.137 44.5569 837.127 Q41.5014 833.085 41.5014 825.096 L41.5014 816.884 L40.9285 816.884 Q36.8862 816.884 34.6901 819.558 Q32.4621 822.199 32.4621 827.005 Q32.4621 830.061 33.1941 832.957 Q33.9262 835.854 35.3903 838.527 L29.9795 838.527 Q28.7381 835.313 28.1334 832.289 Q27.4968 829.265 27.4968 826.401 Q27.4968 818.666 31.5072 814.847 Q35.5176 811.028 43.6657 811.028 Z" fill="#ffffff" fill-rule="nonzero" fill-opacity="1" /><path clip-path="url(#clip060)" d="M46.212 773.374 Q39.7508 773.374 36.0905 776.048 Q32.3984 778.69 32.3984 783.337 Q32.3984 787.984 36.0905 790.657 Q39.7508 793.299 46.212 793.299 Q52.6732 793.299 56.3653 790.657 Q60.0256 787.984 60.0256 783.337 Q60.0256 778.69 56.3653 776.048 Q52.6732 773.374 46.212 773.374 M33.7671 793.299 Q30.5842 791.453 29.0564 788.652 Q27.4968 785.819 27.4968 781.904 Q27.4968 775.411 32.6531 771.369 Q37.8093 767.295 46.212 767.295 Q54.6147 767.295 59.771 771.369 Q64.9272 775.411 64.9272 781.904 Q64.9272 785.819 63.3994 788.652 Q61.8398 791.453 58.657 793.299 L64.0042 793.299 L64.0042 799.187 L14.479 799.187 L14.479 793.299 L33.7671 793.299 Z" fill="#ffffff" fill-rule="nonzero" fill-opacity="1" /><path clip-path="url(#clip060)" d="M28.3562 757.587 L28.3562 751.731 L64.0042 751.731 L64.0042 757.587 L28.3562 757.587 M14.479 757.587 L14.479 751.731 L21.895 751.731 L21.895 757.587 L14.479 757.587 Z" fill="#ffffff" fill-rule="nonzero" fill-opacity="1" /><path clip-path="url(#clip060)" d="M14.479 739.477 L14.479 733.621 L64.0042 733.621 L64.0042 739.477 L14.479 739.477 Z" fill="#ffffff" fill-rule="nonzero" fill-opacity="1" /><path clip-path="url(#clip060)" d="M28.3562 721.367 L28.3562 715.51 L64.0042 715.51 L64.0042 721.367 L28.3562 721.367 M14.479 721.367 L14.479 715.51 L21.895 715.51 L21.895 721.367 L14.479 721.367 Z" fill="#ffffff" fill-rule="nonzero" fill-opacity="1" /><path clip-path="url(#clip060)" d="M18.2347 697.463 L28.3562 697.463 L28.3562 685.4 L32.9077 685.4 L32.9077 697.463 L52.2594 697.463 Q56.6199 697.463 57.8613 696.286 Q59.1026 695.076 59.1026 691.416 L59.1026 685.4 L64.0042 685.4 L64.0042 691.416 Q64.0042 698.195 61.4897 700.773 Q58.9434 703.352 52.2594 703.352 L32.9077 703.352 L32.9077 707.648 L28.3562 707.648 L28.3562 703.352 L18.2347 703.352 L18.2347 697.463 Z" fill="#ffffff" fill-rule="nonzero" fill-opacity="1" /><path clip-path="url(#clip060)" d="M67.3143 662.866 Q73.68 665.348 75.6216 667.704 Q77.5631 670.059 77.5631 674.006 L77.5631 678.684 L72.6615 678.684 L72.6615 675.247 Q72.6615 672.828 71.5157 671.491 Q70.3699 670.154 66.1048 668.531 L63.4312 667.481 L28.3562 681.899 L28.3562 675.693 L56.238 664.553 L28.3562 653.413 L28.3562 647.206 L67.3143 662.866 Z" fill="#ffffff" fill-rule="nonzero" fill-opacity="1" /><path clip-path="url(#clip060)" d="M14.5426 604.333 Q21.8632 608.598 29.0246 610.667 Q36.186 612.736 43.5384 612.736 Q50.8908 612.736 58.1159 610.667 Q65.3091 608.566 72.5979 604.333 L72.5979 609.426 Q65.1182 614.2 57.8931 616.587 Q50.668 618.942 43.5384 618.942 Q36.4406 618.942 29.2474 616.587 Q22.0542 614.232 14.5426 609.426 L14.5426 604.333 Z" fill="#ffffff" fill-rule="nonzero" fill-opacity="1" /><path clip-path="url(#clip060)" d="M22.818 576.833 L46.4666 585.554 L46.4666 568.08 L22.818 576.833 M16.4842 580.462 L16.4842 573.173 L64.0042 555.062 L64.0042 561.746 L51.8138 566.075 L51.8138 587.496 L64.0042 591.824 L64.0042 598.604 L16.4842 580.462 Z" fill="#ffffff" fill-rule="nonzero" fill-opacity="1" /><path clip-path="url(#clip060)" d="M16.4842 548.856 L16.4842 542.395 L45.3526 542.395 Q52.9915 542.395 56.3653 539.626 Q59.7073 536.857 59.7073 530.65 Q59.7073 524.475 56.3653 521.706 Q52.9915 518.937 45.3526 518.937 L16.4842 518.937 L16.4842 512.476 L46.1484 512.476 Q55.4423 512.476 60.1847 517.091 Q64.9272 521.674 64.9272 530.65 Q64.9272 539.657 60.1847 544.273 Q55.4423 548.856 46.1484 548.856 L16.4842 548.856 Z" fill="#ffffff" fill-rule="nonzero" fill-opacity="1" /><path clip-path="url(#clip060)" d="M14.5426 501.591 L14.5426 496.498 Q22.0542 491.724 29.2474 489.368 Q36.4406 486.981 43.5384 486.981 Q50.668 486.981 57.8931 489.368 Q65.1182 491.724 72.5979 496.498 L72.5979 501.591 Q65.3091 497.357 58.1159 495.288 Q50.8908 493.188 43.5384 493.188 Q36.186 493.188 29.0246 495.288 Q21.8632 497.357 14.5426 501.591 Z" fill="#ffffff" fill-rule="nonzero" fill-opacity="1" /><polyline clip-path="url(#clip062)" style="stroke:#00bfff; stroke-linecap:round; stroke-linejoin:round; stroke-width:12; stroke-opacity:1; fill:none" points="309.067,1384.24 311.053,1384.23 313.039,1384.22 315.025,1384.22 317.012,1384.21 318.998,1384.2 320.984,1384.19 322.97,1384.18 324.956,1384.17 326.942,1384.17 328.928,1384.16 330.915,1384.15 332.901,1384.14 334.887,1384.13 336.873,1384.12 338.859,1384.11 340.845,1384.1 342.832,1384.09 344.818,1384.08 346.804,1384.07 348.79,1384.06 350.776,1384.05 352.762,1384.04 354.748,1384.03 356.735,1384.02 358.721,1384.01 360.707,1384 362.693,1383.99 364.679,1383.98 366.665,1383.97 368.651,1383.96 370.638,1383.95 372.624,1383.93 374.61,1383.92 376.596,1383.91 378.582,1383.9 380.568,1383.89 382.555,1383.87 384.541,1383.86 386.527,1383.85 388.513,1383.83 390.499,1383.82 392.485,1383.81 394.471,1383.79 396.458,1383.78 398.444,1383.76 400.43,1383.75 402.416,1383.74 404.402,1383.72 406.388,1383.71 408.374,1383.69 410.361,1383.68 412.347,1383.66 414.333,1383.64 416.319,1383.63 418.305,1383.61 420.291,1383.6 422.278,1383.58 424.264,1383.56 426.25,1383.54 428.236,1383.53 430.222,1383.51 432.208,1383.49 434.194,1383.47 436.181,1383.45 438.167,1383.44 440.153,1383.42 442.139,1383.4 444.125,1383.38 446.111,1383.36 448.097,1383.34 450.084,1383.32 452.07,1383.3 454.056,1383.28 456.042,1383.25 458.028,1383.23 460.014,1383.21 462.001,1383.19 463.987,1383.17 465.973,1383.14 467.959,1383.12 469.945,1383.1 471.931,1383.07 473.917,1383.05 475.904,1383.02 477.89,1383 479.876,1382.97 481.862,1382.95 483.848,1382.92 485.834,1382.9 487.82,1382.87 489.807,1382.84 491.793,1382.82 493.779,1382.79 495.765,1382.76 497.751,1382.73 499.737,1382.7 501.724,1382.67 503.71,1382.64 505.696,1382.61 507.682,1382.58 509.668,1382.55 511.654,1382.52 513.64,1382.49 515.627,1382.45 517.613,1382.42 519.599,1382.39 521.585,1382.35 523.571,1382.32 525.557,1382.28 527.543,1382.25 529.53,1382.21 531.516,1382.18 533.502,1382.14 535.488,1382.1 537.474,1382.06 539.46,1382.03 541.447,1381.99 543.433,1381.95 545.419,1381.91 547.405,1381.87 549.391,1381.82 551.377,1381.78 553.363,1381.74 555.35,1381.7 557.336,1381.65 559.322,1381.61 561.308,1381.56 563.294,1381.52 565.28,1381.47 567.266,1381.42 569.253,1381.38 571.239,1381.33 573.225,1381.28 575.211,1381.23 577.197,1381.18 579.183,1381.13 581.17,1381.08 583.156,1381.02 585.142,1380.97 587.128,1380.92 589.114,1380.86 591.1,1380.81 593.086,1380.75 595.073,1380.69 597.059,1380.63 599.045,1380.57 601.031,1380.51 603.017,1380.45 605.003,1380.39 606.989,1380.33 608.976,1380.27 610.962,1380.2 612.948,1380.14 614.934,1380.07 616.92,1380 618.906,1379.94 620.893,1379.87 622.879,1379.8 624.865,1379.73 626.851,1379.66 628.837,1379.58 630.823,1379.51 632.809,1379.43 634.796,1379.36 636.782,1379.28 638.768,1379.2 640.754,1379.12 642.74,1379.04 644.726,1378.96 646.712,1378.88 648.699,1378.79 650.685,1378.71 652.671,1378.62 654.657,1378.54 656.643,1378.45 658.629,1378.36 660.616,1378.27 662.602,1378.17 664.588,1378.08 666.574,1377.98 668.56,1377.89 670.546,1377.79 672.532,1377.69 674.519,1377.59 676.505,1377.49 678.491,1377.38 680.477,1377.28 682.463,1377.17 684.449,1377.06 686.435,1376.95 688.422,1376.84 690.408,1376.73 692.394,1376.61 694.38,1376.5 696.366,1376.38 698.352,1376.26 700.339,1376.14 702.325,1376.02 704.311,1375.89 706.297,1375.76 708.283,1375.64 710.269,1375.51 712.255,1375.37 714.242,1375.24 716.228,1375.1 718.214,1374.97 720.2,1374.83 722.186,1374.69 724.172,1374.54 726.158,1374.4 728.145,1374.25 730.131,1374.1 732.117,1373.95 734.103,1373.79 736.089,1373.64 738.075,1373.48 740.062,1373.32 742.048,1373.15 744.034,1372.99 746.02,1372.82 748.006,1372.65 749.992,1372.48 751.978,1372.3 753.965,1372.12 755.951,1371.94 757.937,1371.76 759.923,1371.58 761.909,1371.39 763.895,1371.2 765.881,1371 767.868,1370.81 769.854,1370.61 771.84,1370.41 773.826,1370.2 775.812,1369.99 777.798,1369.78 779.785,1369.57 781.771,1369.35 783.757,1369.13 785.743,1368.91 787.729,1368.69 789.715,1368.46 791.701,1368.22 793.688,1367.99 795.674,1367.75 797.66,1367.51 799.646,1367.26 801.632,1367.01 803.618,1366.76 805.604,1366.5 807.591,1366.24 809.577,1365.98 811.563,1365.71 813.549,1365.44 815.535,1365.16 817.521,1364.88 819.508,1364.6 821.494,1364.31 823.48,1364.02 825.466,1363.73 827.452,1363.43 829.438,1363.12 831.424,1362.81 833.411,1362.5 835.397,1362.18 837.383,1361.86 839.369,1361.54 841.355,1361.2 843.341,1360.87 845.328,1360.53 847.314,1360.18 849.3,1359.83 851.286,1359.48 853.272,1359.12 855.258,1358.75 857.244,1358.38 859.231,1358.01 861.217,1357.62 863.203,1357.24 865.189,1356.85 867.175,1356.45 869.161,1356.04 871.147,1355.63 873.134,1355.22 875.12,1354.8 877.106,1354.37 879.092,1353.94 881.078,1353.5 883.064,1353.05 885.051,1352.6 887.037,1352.14 889.023,1351.68 891.009,1351.21 892.995,1350.73 894.981,1350.24 896.967,1349.75 898.954,1349.25 900.94,1348.75 902.926,1348.23 904.912,1347.71 906.898,1347.19 908.884,1346.65 910.87,1346.11 912.857,1345.56 914.843,1345 916.829,1344.43 918.815,1343.86 920.801,1343.27 922.787,1342.68 924.774,1342.08 926.76,1341.48 928.746,1340.86 930.732,1340.23 932.718,1339.6 934.704,1338.95 936.69,1338.3 938.677,1337.64 940.663,1336.97 942.649,1336.29 944.635,1335.6 946.621,1334.9 948.607,1334.19 950.593,1333.47 952.58,1332.73 954.566,1331.99 956.552,1331.24 958.538,1330.48 960.524,1329.71 962.51,1328.92 964.497,1328.13 966.483,1327.32 968.469,1326.5 970.455,1325.67 972.441,1324.83 974.427,1323.97 976.413,1323.11 978.4,1322.23 980.386,1321.34 982.372,1320.43 984.358,1319.52 986.344,1318.59 988.33,1317.65 990.316,1316.69 992.303,1315.72 994.289,1314.74 996.275,1313.74 998.261,1312.73 1000.25,1311.7 1002.23,1310.66 1004.22,1309.6 1006.21,1308.53 1008.19,1307.45 1010.18,1306.35 1012.16,1305.23 1014.15,1304.09 1016.14,1302.95 1018.12,1301.78 1020.11,1300.6 1022.09,1299.4 1024.08,1298.18 1026.07,1296.95 1028.05,1295.7 1030.04,1294.43 1032.03,1293.14 1034.01,1291.84 1036,1290.51 1037.98,1289.17 1039.97,1287.81 1041.96,1286.43 1043.94,1285.03 1045.93,1283.6 1047.91,1282.16 1049.9,1280.7 1051.89,1279.22 1053.87,1277.72 1055.86,1276.19 1057.85,1274.64 1059.83,1273.07 1061.82,1271.48 1063.8,1269.87 1065.79,1268.23 1067.78,1266.57 1069.76,1264.89 1071.75,1263.18 1073.73,1261.45 1075.72,1259.69 1077.71,1257.91 1079.69,1256.1 1081.68,1254.27 1083.67,1252.41 1085.65,1250.53 1087.64,1248.61 1089.62,1246.67 1091.61,1244.71 1093.6,1242.71 1095.58,1240.69 1097.57,1238.63 1099.55,1236.55 1101.54,1234.44 1103.53,1232.3 1105.51,1230.13 1107.5,1227.92 1109.49,1225.69 1111.47,1223.42 1113.46,1221.12 1115.44,1218.79 1117.43,1216.43 1119.42,1214.03 1121.4,1211.6 1123.39,1209.13 1125.37,1206.63 1127.36,1204.09 1129.35,1201.52 1131.33,1198.91 1133.32,1196.26 1135.31,1193.57 1137.29,1190.85 1139.28,1188.09 1141.26,1185.29 1143.25,1182.44 1145.24,1179.56 1147.22,1176.64 1149.21,1173.67 1151.19,1170.67 1153.18,1167.62 1155.17,1164.52 1157.15,1161.38 1159.14,1158.2 1161.13,1154.97 1163.11,1151.7 1165.1,1148.38 1167.08,1145.01 1169.07,1141.6 1171.06,1138.13 1173.04,1134.62 1175.03,1131.06 1177.01,1127.44 1179,1123.78 1180.99,1120.06 1182.97,1116.29 1184.96,1112.46 1186.95,1108.58 1188.93,1104.65 1190.92,1100.66 1192.9,1096.61 1194.89,1092.5 1196.88,1088.34 1198.86,1084.12 1200.85,1079.83 1202.83,1075.49 1204.82,1071.08 1206.81,1066.62 1208.79,1062.08 1210.78,1057.49 1212.77,1052.82 1214.75,1048.1 1216.74,1043.3 1218.72,1038.43 1220.71,1033.5 1222.7,1028.5 1224.68,1023.42 1226.67,1018.27 1228.65,1013.05 1230.64,1007.76 1232.63,1002.39 1234.61,996.938 1236.6,991.413 1238.59,985.809 1240.57,980.126 1242.56,974.361 1244.54,968.515 1246.53,962.585 1248.52,956.57 1250.5,950.47 1252.49,944.283 1254.47,938.008 1256.46,931.644 1258.45,925.188 1260.43,918.641 1262.42,912.001 1264.41,905.266 1266.39,898.435 1268.38,891.506 1270.36,884.479 1272.35,877.352 1274.34,870.124 1276.32,862.792 1278.31,855.356 1280.29,847.814 1282.28,840.165 1284.27,832.406 1286.25,824.537 1288.24,816.556 1290.23,808.462 1292.21,800.251 1294.2,791.924 1296.18,783.479 1298.17,774.913 1300.16,766.225 1302.14,757.413 1304.13,748.476 1306.11,739.411 1308.1,730.255 1310.09,721.201 1312.07,712.273 1314.06,703.471 1316.05,694.793 1318.03,686.236 1320.02,677.8 1322,669.482 1323.99,661.281 1325.98,653.195 1327.96,645.223 1329.95,637.363 1331.93,629.613 1333.92,621.972 1335.91,614.438 1337.89,607.01 1339.88,599.687 1341.87,592.466 1343.85,585.347 1345.84,578.328 1347.82,571.407 1349.81,564.584 1351.8,557.856 1353.78,551.223 1355.77,544.683 1357.75,538.235 1359.74,531.877 1361.73,525.609 1363.71,519.429 1365.7,513.336 1367.69,507.328 1369.67,501.404 1371.66,495.564 1373.64,489.806 1375.63,484.129 1377.62,478.531 1379.6,473.012 1381.59,467.571 1383.57,462.206 1385.56,456.916 1387.55,451.701 1389.53,446.559 1391.52,441.489 1393.5,436.49 1395.49,431.562 1397.48,426.703 1399.46,421.912 1401.45,417.188 1403.44,412.531 1405.42,407.939 1407.41,403.411 1409.39,398.947 1411.38,394.546 1413.37,390.207 1415.35,385.929 1417.34,381.71 1419.32,377.551 1421.31,373.451 1423.3,369.408 1425.28,365.422 1427.27,361.491 1429.26,357.616 1431.24,353.796 1433.23,350.029 1435.21,346.315 1437.2,342.653 1439.19,339.043 1441.17,335.483 1443.16,331.973 1445.14,328.513 1447.13,325.101 1449.12,321.737 1451.1,318.42 1453.09,315.15 1455.08,311.926 1457.06,308.747 1459.05,305.613 1461.03,302.523 1463.02,299.476 1465.01,296.472 1466.99,293.511 1468.98,290.59 1470.96,287.711 1472.95,284.873 1474.94,282.074 1476.92,279.314 1478.91,276.593 1480.9,273.911 1482.88,271.266 1484.87,268.658 1486.85,266.087 1488.84,263.552 1490.83,261.053 1492.81,258.588 1494.8,256.159 1496.78,253.763 1498.77,251.401 1500.76,249.073 1502.74,246.777 1504.73,244.513 1506.72,242.281 1508.7,240.08 1510.69,237.911 1512.67,235.771 1514.66,233.662 1516.65,231.583 1518.63,229.532 1520.62,227.511 1522.6,225.518 1524.59,223.552 1526.58,221.615 1528.56,219.705 1530.55,217.821 1532.54,215.964 1534.52,214.133 1536.51,212.328 1538.49,210.548 1540.48,208.793 1542.47,207.063 1544.45,205.357 1546.44,203.675 1548.42,202.016 1550.41,200.381 1552.4,198.769 1554.38,197.18 1556.37,195.613 1558.36,194.068 1560.34,192.544 1562.33,191.042 1564.31,189.561 1566.3,188.101 1568.29,186.662 1570.27,185.242 1572.26,183.843 1574.24,182.463 1576.23,181.102 1578.22,179.761 1580.2,178.439 1582.19,177.135 1584.18,175.849 1586.16,174.582 1588.15,173.332 1590.13,172.1 1592.12,170.885 1594.11,169.687 1596.09,168.506 1598.08,167.342 1600.06,166.194 1602.05,165.062 1604.04,163.946 1606.02,162.846 1608.01,161.761 1610,160.691 1611.98,159.636 1613.97,158.597 1615.95,157.571 1617.94,156.561 1619.93,155.564 1621.91,154.581 1623.9,153.613 1625.88,152.657 1627.87,151.716 1629.86,150.787 1631.84,149.872 1633.83,148.969 1635.82,148.079 1637.8,147.202 1639.79,146.336 1641.77,145.483 1643.76,144.642 1645.75,143.813 1647.73,142.996 1649.72,142.19 1651.7,141.395 1653.69,140.611 1655.68,139.839 1657.66,139.077 1659.65,138.326 1661.64,137.585 1663.62,136.855 1665.61,136.136 1667.59,135.426 1669.58,134.726 1671.57,134.036 1673.55,133.356 1675.54,132.685 1677.52,132.024 1679.51,131.372 1681.5,130.729 1683.48,130.095 1685.47,129.471 1687.46,128.855 1689.44,128.247 1691.43,127.648 1693.41,127.058 1695.4,126.475 1697.39,125.901 1699.37,125.335 1701.36,124.777 1703.34,124.227 1705.33,123.685 1707.32,123.15 1709.3,122.623 1711.29,122.103 1713.28,121.59 1715.26,121.085 1717.25,120.586 1719.23,120.095 1721.22,119.611 1723.21,119.133 1725.19,118.662 1727.18,118.198 1729.16,117.74 1731.15,117.289 1733.14,116.844 1735.12,116.405 1737.11,115.973 1739.1,115.546 1741.08,115.125 1743.07,114.711 1745.05,114.302 1747.04,113.899 1749.03,113.502 1751.01,113.11 1753,112.724 1754.98,112.343 1756.97,111.967 1758.96,111.597 1760.94,111.232 1762.93,110.872 1764.92,110.517 1766.9,110.167 1768.89,109.822 1770.87,109.482 1772.86,109.147 1774.85,108.816 1776.83,108.49 1778.82,108.169 1780.8,107.852 1782.79,107.539 1784.78,107.231 1786.76,106.928 1788.75,106.628 1790.73,106.333 1792.72,106.042 1794.71,105.755 1796.69,105.472 1798.68,105.193 1800.67,104.918 1802.65,104.646 1804.64,104.379 1806.62,104.115 1808.61,103.855 1810.6,103.599 1812.58,103.346 1814.57,103.097 1816.55,102.852 1818.54,102.609 1820.53,102.371 1822.51,102.135 1824.5,101.903 1826.49,101.674 1828.47,101.448 1830.46,101.226 1832.44,101.007 1834.43,100.79 1836.42,100.577 1838.4,100.367 1840.39,100.159 1842.37,99.955 1844.36,99.7535 1846.35,99.5548 1848.33,99.3589 1850.32,99.1657 1852.31,98.9753 1854.29,98.7875 1856.28,98.6024 1858.26,98.4199 1860.25,98.2399 1862.24,98.0625 1864.22,97.8875 1866.21,97.715 1868.19,97.545 1870.18,97.3773 1872.17,97.212 1874.15,97.049 1876.14,96.8883 1878.13,96.7298 1880.11,96.5736 1882.1,96.4195 1884.08,96.2677 1886.07,96.1179 1888.06,95.9703 1890.04,95.8248 1892.03,95.6812 1894.01,95.5397 1896,95.4002 1897.99,95.2627 1899.97,95.1271 1901.96,94.9933 1903.95,94.8615 1905.93,94.7315 1907.92,94.6034 1909.9,94.477 1911.89,94.3524 1913.88,94.2296 1915.86,94.1085 1917.85,93.9891 1919.83,93.8714 1921.82,93.7553 1923.81,93.6408 1925.79,93.528 1927.78,93.4167 1929.77,93.307 1931.75,93.1989 1933.74,93.0923 1935.72,92.9871 1937.71,92.8835 1939.7,92.7813 1941.68,92.6805 1943.67,92.5812 1945.65,92.4832 1947.64,92.3866 1949.63,92.2914 1951.61,92.1975 1953.6,92.105 1955.59,92.0137 1957.57,91.9237 1959.56,91.835 1961.54,91.7475 1963.53,91.6613 1965.52,91.5762 1967.5,91.4924 1969.49,91.4097 1971.47,91.3282 1973.46,91.2479 1975.45,91.1686 1977.43,91.0905 1979.42,91.0135 1981.41,90.9376 1983.39,90.8627 1985.38,90.7889 1987.36,90.7161 1989.35,90.6443 1991.34,90.5736 1993.32,90.5038 1995.31,90.4351 1997.29,90.3673 1999.28,90.3004 2001.27,90.2345 2003.25,90.1695 2005.24,90.1054 2007.23,90.0422 2009.21,89.9799 2011.2,89.9185 2013.18,89.858 2015.17,89.7982 2017.16,89.7394 2019.14,89.6813 2021.13,89.6241 2023.11,89.5677 2025.1,89.5121 2027.09,89.4572 2029.07,89.4031 2031.06,89.3498 2033.05,89.2973 2035.03,89.2454 2037.02,89.1943 2039,89.1439 2040.99,89.0943 2042.98,89.0453 2044.96,88.997 2046.95,88.9494 2048.93,88.9024 2050.92,88.8562 2052.91,88.8105 2054.89,88.7655 2056.88,88.7212 2058.87,88.6774 2060.85,88.6343 2062.84,88.5918 2064.82,88.5499 2066.81,88.5085 2068.8,88.4678 2070.78,88.4276 2072.77,88.388 2074.75,88.3489 2076.74,88.3104 2078.73,88.2725 2080.71,88.235 2082.7,88.1981 2084.69,88.1617 2086.67,88.1258 2088.66,88.0905 2090.64,88.0556 2092.63,88.0212 2094.62,87.9873 2096.6,87.9539 2098.59,87.9209 2100.57,87.8884 2102.56,87.8564 2104.55,87.8248 2106.53,87.7936 2108.52,87.7629 2110.51,87.7326 2112.49,87.7028 2114.48,87.6734 2116.46,87.6443 2118.45,87.6157 2120.44,87.5875 2122.42,87.5597 2124.41,87.5323 2126.39,87.5052 2128.38,87.4786 2130.37,87.4523 2132.35,87.4264 2134.34,87.4008 2136.33,87.3756 2138.31,87.3508 2140.3,87.3263 2142.28,87.3022 2144.27,87.2783 2146.26,87.2549 2148.24,87.2317 2150.23,87.2089 2152.21,87.1864 2154.2,87.1642 2156.19,87.1424 2158.17,87.1208 2160.16,87.0995 2162.15,87.0786 2164.13,87.0579 2166.12,87.0375 2168.1,87.0175 2170.09,86.9976 2172.08,86.9781 2174.06,86.9589 2176.05,86.9399 2178.03,86.9212 2180.02,86.9027 2182.01,86.8845 2183.99,86.8666 2185.98,86.8489 2187.97,86.8314 2189.95,86.8142 2191.94,86.7973 2193.92,86.7806 2195.91,86.7641 2197.9,86.7478 2199.88,86.7318 2201.87,86.716 2203.85,86.7005 2205.84,86.6851 2207.83,86.67 2209.81,86.655 2211.8,86.6403 2213.78,86.6258 2215.77,86.6115 2217.76,86.5974 2219.74,86.5835 2221.73,86.5698 2223.72,86.5563 2225.7,86.5429 2227.69,86.5298 2229.67,86.5168 2231.66,86.504 2233.65,86.4914 2235.63,86.479 2237.62,86.4668 2239.6,86.4547 2241.59,86.4428 2243.58,86.4311 2245.56,86.4195 2247.55,86.4081 2249.54,86.3968 2251.52,86.3857 2253.51,86.3748 2255.49,86.364 2257.48,86.3534 2259.47,86.3429 2261.45,86.3326 2263.44,86.3224 2265.42,86.3124 2267.41,86.3025 2269.4,86.2927 2271.38,86.2831 2273.37,86.2736 2275.36,86.2642 2277.34,86.255 2279.33,86.2459 2281.31,86.2369 2283.3,86.2281 2285.29,86.2193 2287.27,86.2107 2289.26,86.2023 2291.24,86.1939 2293.23,86.1857 "/>
<path clip-path="url(#clip060)" d="M319.649 196.789 L960.038 196.789 L960.038 93.1086 L319.649 93.1086  Z" fill="#31343a" fill-rule="evenodd" fill-opacity="1"/>
<polyline clip-path="url(#clip060)" style="stroke:#000000; stroke-linecap:round; stroke-linejoin:round; stroke-width:4; stroke-opacity:0; fill:none" points="319.649,196.789 960.038,196.789 960.038,93.1086 319.649,93.1086 319.649,196.789 "/>
<polyline clip-path="url(#clip060)" style="stroke:#00bfff; stroke-linecap:round; stroke-linejoin:round; stroke-width:12; stroke-opacity:1; fill:none" points="343.018,144.949 483.232,144.949 "/>
<path clip-path="url(#clip060)" d="M522.62 130.84 Q517.527 130.84 514.518 134.636 Q511.532 138.432 511.532 144.983 Q511.532 151.511 514.518 155.307 Q517.527 159.104 522.62 159.104 Q527.713 159.104 530.675 155.307 Q533.662 151.511 533.662 144.983 Q533.662 138.432 530.675 134.636 Q527.713 130.84 522.62 130.84 M522.62 127.044 Q529.888 127.044 534.24 131.928 Q538.592 136.789 538.592 144.983 Q538.592 153.155 534.24 158.039 Q529.888 162.9 522.62 162.9 Q515.328 162.9 510.953 158.039 Q506.602 153.178 506.602 144.983 Q506.602 136.789 510.953 131.928 Q515.328 127.044 522.62 127.044 Z" fill="#ffffff" fill-rule="nonzero" fill-opacity="1" /><path clip-path="url(#clip060)" d="M564.333 149.289 Q564.333 144.59 562.388 141.928 Q560.467 139.243 557.087 139.243 Q553.708 139.243 551.763 141.928 Q549.842 144.59 549.842 149.289 Q549.842 153.988 551.763 156.673 Q553.708 159.335 557.087 159.335 Q560.467 159.335 562.388 156.673 Q564.333 153.988 564.333 149.289 M549.842 140.238 Q551.185 137.923 553.222 136.812 Q555.282 135.678 558.129 135.678 Q562.851 135.678 565.791 139.428 Q568.754 143.178 568.754 149.289 Q568.754 155.4 565.791 159.15 Q562.851 162.9 558.129 162.9 Q555.282 162.9 553.222 161.789 Q551.185 160.655 549.842 158.34 L549.842 162.229 L545.56 162.229 L545.56 126.21 L549.842 126.21 L549.842 140.238 Z" fill="#ffffff" fill-rule="nonzero" fill-opacity="1" /><path clip-path="url(#clip060)" d="M592.342 137.067 L592.342 141.094 Q590.536 140.169 588.592 139.706 Q586.647 139.243 584.564 139.243 Q581.393 139.243 579.796 140.215 Q578.221 141.187 578.221 143.131 Q578.221 144.613 579.356 145.469 Q580.49 146.303 583.916 147.067 L585.374 147.391 Q589.911 148.363 591.809 150.145 Q593.731 151.905 593.731 155.076 Q593.731 158.687 590.86 160.793 Q588.013 162.9 583.013 162.9 Q580.93 162.9 578.661 162.483 Q576.416 162.09 573.916 161.28 L573.916 156.881 Q576.277 158.108 578.569 158.733 Q580.86 159.335 583.106 159.335 Q586.115 159.335 587.735 158.317 Q589.356 157.275 589.356 155.4 Q589.356 153.664 588.175 152.738 Q587.018 151.812 583.059 150.956 L581.578 150.608 Q577.62 149.775 575.86 148.062 Q574.101 146.326 574.101 143.317 Q574.101 139.659 576.694 137.669 Q579.286 135.678 584.055 135.678 Q586.416 135.678 588.499 136.025 Q590.583 136.372 592.342 137.067 Z" fill="#ffffff" fill-rule="nonzero" fill-opacity="1" /><path clip-path="url(#clip060)" d="M622.689 148.201 L622.689 150.284 L603.106 150.284 Q603.383 154.682 605.744 156.997 Q608.129 159.289 612.365 159.289 Q614.819 159.289 617.11 158.687 Q619.425 158.085 621.693 156.881 L621.693 160.909 Q619.402 161.881 616.994 162.391 Q614.587 162.9 612.11 162.9 Q605.907 162.9 602.272 159.289 Q598.661 155.678 598.661 149.52 Q598.661 143.155 602.087 139.428 Q605.536 135.678 611.369 135.678 Q616.601 135.678 619.633 139.057 Q622.689 142.414 622.689 148.201 M618.43 146.951 Q618.383 143.456 616.462 141.372 Q614.564 139.289 611.416 139.289 Q607.851 139.289 605.698 141.303 Q603.569 143.317 603.245 146.974 L618.43 146.951 Z" fill="#ffffff" fill-rule="nonzero" fill-opacity="1" /><path clip-path="url(#clip060)" d="M644.703 140.284 Q643.985 139.868 643.129 139.682 Q642.295 139.474 641.277 139.474 Q637.666 139.474 635.721 141.835 Q633.8 144.173 633.8 148.571 L633.8 162.229 L629.518 162.229 L629.518 136.303 L633.8 136.303 L633.8 140.331 Q635.142 137.969 637.295 136.835 Q639.448 135.678 642.527 135.678 Q642.967 135.678 643.499 135.747 Q644.031 135.794 644.679 135.909 L644.703 140.284 Z" fill="#ffffff" fill-rule="nonzero" fill-opacity="1" /><path clip-path="url(#clip060)" d="M646.115 136.303 L650.629 136.303 L658.73 158.062 L666.832 136.303 L671.346 136.303 L661.624 162.229 L655.837 162.229 L646.115 136.303 Z" fill="#ffffff" fill-rule="nonzero" fill-opacity="1" /><path clip-path="url(#clip060)" d="M699.401 148.201 L699.401 150.284 L679.818 150.284 Q680.096 154.682 682.457 156.997 Q684.841 159.289 689.077 159.289 Q691.531 159.289 693.823 158.687 Q696.138 158.085 698.406 156.881 L698.406 160.909 Q696.114 161.881 693.707 162.391 Q691.3 162.9 688.823 162.9 Q682.619 162.9 678.985 159.289 Q675.374 155.678 675.374 149.52 Q675.374 143.155 678.8 139.428 Q682.249 135.678 688.082 135.678 Q693.313 135.678 696.346 139.057 Q699.401 142.414 699.401 148.201 M695.142 146.951 Q695.096 143.456 693.175 141.372 Q691.276 139.289 688.128 139.289 Q684.564 139.289 682.411 141.303 Q680.281 143.317 679.957 146.974 L695.142 146.951 Z" fill="#ffffff" fill-rule="nonzero" fill-opacity="1" /><path clip-path="url(#clip060)" d="M723.452 140.238 L723.452 126.21 L727.711 126.21 L727.711 162.229 L723.452 162.229 L723.452 158.34 Q722.11 160.655 720.049 161.789 Q718.012 162.9 715.142 162.9 Q710.443 162.9 707.48 159.15 Q704.54 155.4 704.54 149.289 Q704.54 143.178 707.48 139.428 Q710.443 135.678 715.142 135.678 Q718.012 135.678 720.049 136.812 Q722.11 137.923 723.452 140.238 M708.938 149.289 Q708.938 153.988 710.86 156.673 Q712.804 159.335 716.184 159.335 Q719.563 159.335 721.508 156.673 Q723.452 153.988 723.452 149.289 Q723.452 144.59 721.508 141.928 Q719.563 139.243 716.184 139.243 Q712.804 139.243 710.86 141.928 Q708.938 144.59 708.938 149.289 Z" fill="#ffffff" fill-rule="nonzero" fill-opacity="1" /><path clip-path="url(#clip060)" d="M756.415 131.511 L756.415 144.497 L762.295 144.497 Q765.558 144.497 767.341 142.807 Q769.123 141.118 769.123 137.993 Q769.123 134.891 767.341 133.201 Q765.558 131.511 762.295 131.511 L756.415 131.511 M751.739 127.669 L762.295 127.669 Q768.105 127.669 771.068 130.307 Q774.054 132.923 774.054 137.993 Q774.054 143.108 771.068 145.724 Q768.105 148.34 762.295 148.34 L756.415 148.34 L756.415 162.229 L751.739 162.229 L751.739 127.669 Z" fill="#ffffff" fill-rule="nonzero" fill-opacity="1" /><path clip-path="url(#clip060)" d="M790.373 126.257 Q787.271 131.581 785.767 136.789 Q784.262 141.997 784.262 147.344 Q784.262 152.692 785.767 157.946 Q787.294 163.178 790.373 168.479 L786.669 168.479 Q783.197 163.039 781.461 157.784 Q779.748 152.53 779.748 147.344 Q779.748 142.182 781.461 136.951 Q783.174 131.72 786.669 126.257 L790.373 126.257 Z" fill="#ffffff" fill-rule="nonzero" fill-opacity="1" /><path clip-path="url(#clip060)" d="M798.197 172.09 L798.197 136.303 L802.456 136.303 L802.456 152.414 Q802.456 155.77 804.054 157.483 Q805.651 159.196 808.776 159.196 Q812.202 159.196 813.915 157.252 Q815.651 155.307 815.651 151.418 L815.651 136.303 L819.91 136.303 L819.91 156.256 Q819.91 157.645 820.304 158.317 Q820.72 158.965 821.577 158.965 Q821.785 158.965 822.155 158.849 Q822.526 158.71 823.174 158.432 L823.174 161.858 Q822.225 162.391 821.368 162.645 Q820.535 162.9 819.725 162.9 Q818.128 162.9 817.179 161.997 Q816.229 161.094 815.882 159.243 Q814.725 161.071 813.035 161.997 Q811.368 162.9 809.1 162.9 Q806.739 162.9 805.072 161.997 Q803.429 161.094 802.456 159.289 L802.456 172.09 L798.197 172.09 Z" fill="#ffffff" fill-rule="nonzero" fill-opacity="1" /><path clip-path="url(#clip060)" d="M874.1 138.71 L851.877 145.122 L874.1 151.465 L874.1 155.585 L844.424 147.067 L844.424 143.131 L874.1 134.636 L874.1 138.71 M844.424 158.293 L874.1 158.293 L874.1 162.229 L844.424 162.229 L844.424 158.293 Z" fill="#ffffff" fill-rule="nonzero" fill-opacity="1" /><path clip-path="url(#clip060)" d="M920.21 136.303 L910.835 148.919 L920.697 162.229 L915.673 162.229 L908.127 152.043 L900.581 162.229 L895.558 162.229 L905.627 148.664 L896.414 136.303 L901.437 136.303 L908.312 145.539 L915.187 136.303 L920.21 136.303 Z" fill="#ffffff" fill-rule="nonzero" fill-opacity="1" /><path clip-path="url(#clip060)" d="M926.044 126.257 L929.747 126.257 Q933.22 131.72 934.933 136.951 Q936.669 142.182 936.669 147.344 Q936.669 152.53 934.933 157.784 Q933.22 163.039 929.747 168.479 L926.044 168.479 Q929.122 163.178 930.627 157.946 Q932.155 152.692 932.155 147.344 Q932.155 141.997 930.627 136.789 Q929.122 131.581 926.044 126.257 Z" fill="#ffffff" fill-rule="nonzero" fill-opacity="1" /></svg>
