<?xml version="1.0" encoding="utf-8"?>
<svg xmlns="http://www.w3.org/2000/svg" xmlns:xlink="http://www.w3.org/1999/xlink" width="600" height="400" viewBox="0 0 2400 1600">
<defs>
  <clipPath id="clip360">
    <rect x="0" y="0" width="2400" height="1600"/>
  </clipPath>
</defs>
<path clip-path="url(#clip360)" d="M0 1600 L2400 1600 L2400 8.88178e-14 L0 8.88178e-14  Z" fill="#ffffff" fill-rule="evenodd" fill-opacity="1"/>
<defs>
  <clipPath id="clip361">
    <rect x="480" y="0" width="1681" height="1600"/>
  </clipPath>
</defs>
<path clip-path="url(#clip360)" d="M205.121 1423.18 L2352.76 1423.18 L2352.76 47.2441 L205.121 47.2441  Z" fill="#f5f5f5" fill-rule="evenodd" fill-opacity="1"/>
<defs>
  <clipPath id="clip362">
    <rect x="205" y="47" width="2149" height="1377"/>
  </clipPath>
</defs>
<polyline clip-path="url(#clip362)" style="stroke:#000000; stroke-linecap:round; stroke-linejoin:round; stroke-width:2; stroke-opacity:0.1; fill:none" points="567.658,1423.18 567.658,47.2441 "/>
<polyline clip-path="url(#clip362)" style="stroke:#000000; stroke-linecap:round; stroke-linejoin:round; stroke-width:2; stroke-opacity:0.1; fill:none" points="998.737,1423.18 998.737,47.2441 "/>
<polyline clip-path="url(#clip362)" style="stroke:#000000; stroke-linecap:round; stroke-linejoin:round; stroke-width:2; stroke-opacity:0.1; fill:none" points="1429.82,1423.18 1429.82,47.2441 "/>
<polyline clip-path="url(#clip362)" style="stroke:#000000; stroke-linecap:round; stroke-linejoin:round; stroke-width:2; stroke-opacity:0.1; fill:none" points="1860.89,1423.18 1860.89,47.2441 "/>
<polyline clip-path="url(#clip362)" style="stroke:#000000; stroke-linecap:round; stroke-linejoin:round; stroke-width:2; stroke-opacity:0.1; fill:none" points="2291.97,1423.18 2291.97,47.2441 "/>
<polyline clip-path="url(#clip362)" style="stroke:#000000; stroke-linecap:round; stroke-linejoin:round; stroke-width:2; stroke-opacity:0.1; fill:none" points="567.658,1423.18 567.658,47.2441 "/>
<polyline clip-path="url(#clip362)" style="stroke:#000000; stroke-linecap:round; stroke-linejoin:round; stroke-width:2; stroke-opacity:0.1; fill:none" points="998.737,1423.18 998.737,47.2441 "/>
<polyline clip-path="url(#clip362)" style="stroke:#000000; stroke-linecap:round; stroke-linejoin:round; stroke-width:2; stroke-opacity:0.1; fill:none" points="1429.82,1423.18 1429.82,47.2441 "/>
<polyline clip-path="url(#clip362)" style="stroke:#000000; stroke-linecap:round; stroke-linejoin:round; stroke-width:2; stroke-opacity:0.1; fill:none" points="1860.89,1423.18 1860.89,47.2441 "/>
<polyline clip-path="url(#clip362)" style="stroke:#000000; stroke-linecap:round; stroke-linejoin:round; stroke-width:2; stroke-opacity:0.1; fill:none" points="2291.97,1423.18 2291.97,47.2441 "/>
<polyline clip-path="url(#clip362)" style="stroke:#000000; stroke-linecap:round; stroke-linejoin:round; stroke-width:2; stroke-opacity:0.1; fill:none" points="205.121,1384.24 2352.76,1384.24 "/>
<polyline clip-path="url(#clip362)" style="stroke:#000000; stroke-linecap:round; stroke-linejoin:round; stroke-width:2; stroke-opacity:0.1; fill:none" points="205.121,1124.63 2352.76,1124.63 "/>
<polyline clip-path="url(#clip362)" style="stroke:#000000; stroke-linecap:round; stroke-linejoin:round; stroke-width:2; stroke-opacity:0.1; fill:none" points="205.121,865.017 2352.76,865.017 "/>
<polyline clip-path="url(#clip362)" style="stroke:#000000; stroke-linecap:round; stroke-linejoin:round; stroke-width:2; stroke-opacity:0.1; fill:none" points="205.121,605.407 2352.76,605.407 "/>
<polyline clip-path="url(#clip362)" style="stroke:#000000; stroke-linecap:round; stroke-linejoin:round; stroke-width:2; stroke-opacity:0.1; fill:none" points="205.121,345.796 2352.76,345.796 "/>
<polyline clip-path="url(#clip362)" style="stroke:#000000; stroke-linecap:round; stroke-linejoin:round; stroke-width:2; stroke-opacity:0.1; fill:none" points="205.121,86.1857 2352.76,86.1857 "/>
<polyline clip-path="url(#clip362)" style="stroke:#000000; stroke-linecap:round; stroke-linejoin:round; stroke-width:2; stroke-opacity:0.1; fill:none" points="205.121,1384.24 2352.76,1384.24 "/>
<polyline clip-path="url(#clip362)" style="stroke:#000000; stroke-linecap:round; stroke-linejoin:round; stroke-width:2; stroke-opacity:0.1; fill:none" points="205.121,1124.63 2352.76,1124.63 "/>
<polyline clip-path="url(#clip362)" style="stroke:#000000; stroke-linecap:round; stroke-linejoin:round; stroke-width:2; stroke-opacity:0.1; fill:none" points="205.121,865.017 2352.76,865.017 "/>
<polyline clip-path="url(#clip362)" style="stroke:#000000; stroke-linecap:round; stroke-linejoin:round; stroke-width:2; stroke-opacity:0.1; fill:none" points="205.121,605.407 2352.76,605.407 "/>
<polyline clip-path="url(#clip362)" style="stroke:#000000; stroke-linecap:round; stroke-linejoin:round; stroke-width:2; stroke-opacity:0.1; fill:none" points="205.121,345.796 2352.76,345.796 "/>
<polyline clip-path="url(#clip362)" style="stroke:#000000; stroke-linecap:round; stroke-linejoin:round; stroke-width:2; stroke-opacity:0.1; fill:none" points="205.121,86.1857 2352.76,86.1857 "/>
<polyline clip-path="url(#clip360)" style="stroke:#000000; stroke-linecap:round; stroke-linejoin:round; stroke-width:4; stroke-opacity:1; fill:none" points="205.121,1423.18 2352.76,1423.18 "/>
<polyline clip-path="url(#clip360)" style="stroke:#000000; stroke-linecap:round; stroke-linejoin:round; stroke-width:4; stroke-opacity:1; fill:none" points="205.121,47.2441 2352.76,47.2441 "/>
<polyline clip-path="url(#clip360)" style="stroke:#000000; stroke-linecap:round; stroke-linejoin:round; stroke-width:4; stroke-opacity:1; fill:none" points="567.658,1423.18 567.658,1404.28 "/>
<polyline clip-path="url(#clip360)" style="stroke:#000000; stroke-linecap:round; stroke-linejoin:round; stroke-width:4; stroke-opacity:1; fill:none" points="998.737,1423.18 998.737,1404.28 "/>
<polyline clip-path="url(#clip360)" style="stroke:#000000; stroke-linecap:round; stroke-linejoin:round; stroke-width:4; stroke-opacity:1; fill:none" points="1429.82,1423.18 1429.82,1404.28 "/>
<polyline clip-path="url(#clip360)" style="stroke:#000000; stroke-linecap:round; stroke-linejoin:round; stroke-width:4; stroke-opacity:1; fill:none" points="1860.89,1423.18 1860.89,1404.28 "/>
<polyline clip-path="url(#clip360)" style="stroke:#000000; stroke-linecap:round; stroke-linejoin:round; stroke-width:4; stroke-opacity:1; fill:none" points="2291.97,1423.18 2291.97,1404.28 "/>
<polyline clip-path="url(#clip360)" style="stroke:#000000; stroke-linecap:round; stroke-linejoin:round; stroke-width:4; stroke-opacity:1; fill:none" points="567.658,47.2441 567.658,66.1417 "/>
<polyline clip-path="url(#clip360)" style="stroke:#000000; stroke-linecap:round; stroke-linejoin:round; stroke-width:4; stroke-opacity:1; fill:none" points="998.737,47.2441 998.737,66.1417 "/>
<polyline clip-path="url(#clip360)" style="stroke:#000000; stroke-linecap:round; stroke-linejoin:round; stroke-width:4; stroke-opacity:1; fill:none" points="1429.82,47.2441 1429.82,66.1417 "/>
<polyline clip-path="url(#clip360)" style="stroke:#000000; stroke-linecap:round; stroke-linejoin:round; stroke-width:4; stroke-opacity:1; fill:none" points="1860.89,47.2441 1860.89,66.1417 "/>
<polyline clip-path="url(#clip360)" style="stroke:#000000; stroke-linecap:round; stroke-linejoin:round; stroke-width:4; stroke-opacity:1; fill:none" points="2291.97,47.2441 2291.97,66.1417 "/>
<path clip-path="url(#clip360)" d="M542.358 1451.02 L560.714 1451.02 L560.714 1454.96 L546.64 1454.96 L546.64 1463.43 Q547.658 1463.08 548.677 1462.92 Q549.695 1462.73 550.714 1462.73 Q556.501 1462.73 559.881 1465.9 Q563.26 1469.08 563.26 1474.49 Q563.26 1480.07 559.788 1483.17 Q556.316 1486.25 549.996 1486.25 Q547.82 1486.25 545.552 1485.88 Q543.307 1485.51 540.899 1484.77 L540.899 1480.07 Q542.983 1481.2 545.205 1481.76 Q547.427 1482.32 549.904 1482.32 Q553.908 1482.32 556.246 1480.21 Q558.584 1478.1 558.584 1474.49 Q558.584 1470.88 556.246 1468.77 Q553.908 1466.67 549.904 1466.67 Q548.029 1466.67 546.154 1467.08 Q544.302 1467.5 542.358 1468.38 L542.358 1451.02 Z" fill="#000000" fill-rule="nonzero" fill-opacity="1" /><path clip-path="url(#clip360)" d="M582.473 1454.1 Q578.862 1454.1 577.033 1457.66 Q575.228 1461.2 575.228 1468.33 Q575.228 1475.44 577.033 1479.01 Q578.862 1482.55 582.473 1482.55 Q586.107 1482.55 587.913 1479.01 Q589.742 1475.44 589.742 1468.33 Q589.742 1461.2 587.913 1457.66 Q586.107 1454.1 582.473 1454.1 M582.473 1450.39 Q588.283 1450.39 591.339 1455 Q594.417 1459.58 594.417 1468.33 Q594.417 1477.06 591.339 1481.67 Q588.283 1486.25 582.473 1486.25 Q576.663 1486.25 573.584 1481.67 Q570.529 1477.06 570.529 1468.33 Q570.529 1459.58 573.584 1455 Q576.663 1450.39 582.473 1450.39 Z" fill="#000000" fill-rule="nonzero" fill-opacity="1" /><path clip-path="url(#clip360)" d="M972.591 1451.02 L994.814 1451.02 L994.814 1453.01 L982.267 1485.58 L977.383 1485.58 L989.189 1454.96 L972.591 1454.96 L972.591 1451.02 Z" fill="#000000" fill-rule="nonzero" fill-opacity="1" /><path clip-path="url(#clip360)" d="M1003.98 1451.02 L1022.34 1451.02 L1022.34 1454.96 L1008.26 1454.96 L1008.26 1463.43 Q1009.28 1463.08 1010.3 1462.92 Q1011.32 1462.73 1012.34 1462.73 Q1018.12 1462.73 1021.5 1465.9 Q1024.88 1469.08 1024.88 1474.49 Q1024.88 1480.07 1021.41 1483.17 Q1017.94 1486.25 1011.62 1486.25 Q1009.44 1486.25 1007.17 1485.88 Q1004.93 1485.51 1002.52 1484.77 L1002.52 1480.07 Q1004.61 1481.2 1006.83 1481.76 Q1009.05 1482.32 1011.53 1482.32 Q1015.53 1482.32 1017.87 1480.21 Q1020.21 1478.1 1020.21 1474.49 Q1020.21 1470.88 1017.87 1468.77 Q1015.53 1466.67 1011.53 1466.67 Q1009.65 1466.67 1007.78 1467.08 Q1005.92 1467.5 1003.98 1468.38 L1003.98 1451.02 Z" fill="#000000" fill-rule="nonzero" fill-opacity="1" /><path clip-path="url(#clip360)" d="M1389.42 1481.64 L1397.06 1481.64 L1397.06 1455.28 L1388.75 1456.95 L1388.75 1452.69 L1397.02 1451.02 L1401.69 1451.02 L1401.69 1481.64 L1409.33 1481.64 L1409.33 1485.58 L1389.42 1485.58 L1389.42 1481.64 Z" fill="#000000" fill-rule="nonzero" fill-opacity="1" /><path clip-path="url(#clip360)" d="M1428.77 1454.1 Q1425.16 1454.1 1423.33 1457.66 Q1421.53 1461.2 1421.53 1468.33 Q1421.53 1475.44 1423.33 1479.01 Q1425.16 1482.55 1428.77 1482.55 Q1432.41 1482.55 1434.21 1479.01 Q1436.04 1475.44 1436.04 1468.33 Q1436.04 1461.2 1434.21 1457.66 Q1432.41 1454.1 1428.77 1454.1 M1428.77 1450.39 Q1434.58 1450.39 1437.64 1455 Q1440.72 1459.58 1440.72 1468.33 Q1440.72 1477.06 1437.64 1481.67 Q1434.58 1486.25 1428.77 1486.25 Q1422.96 1486.25 1419.89 1481.67 Q1416.83 1477.06 1416.83 1468.33 Q1416.83 1459.58 1419.89 1455 Q1422.96 1450.39 1428.77 1450.39 Z" fill="#000000" fill-rule="nonzero" fill-opacity="1" /><path clip-path="url(#clip360)" d="M1458.94 1454.1 Q1455.33 1454.1 1453.5 1457.66 Q1451.69 1461.2 1451.69 1468.33 Q1451.69 1475.44 1453.5 1479.01 Q1455.33 1482.55 1458.94 1482.55 Q1462.57 1482.55 1464.38 1479.01 Q1466.2 1475.44 1466.2 1468.33 Q1466.2 1461.2 1464.38 1457.66 Q1462.57 1454.1 1458.94 1454.1 M1458.94 1450.39 Q1464.75 1450.39 1467.8 1455 Q1470.88 1459.58 1470.88 1468.33 Q1470.88 1477.06 1467.8 1481.67 Q1464.75 1486.25 1458.94 1486.25 Q1453.13 1486.25 1450.05 1481.67 Q1446.99 1477.06 1446.99 1468.33 Q1446.99 1459.58 1450.05 1455 Q1453.13 1450.39 1458.94 1450.39 Z" fill="#000000" fill-rule="nonzero" fill-opacity="1" /><path clip-path="url(#clip360)" d="M1821 1481.64 L1828.64 1481.64 L1828.64 1455.28 L1820.33 1456.95 L1820.33 1452.69 L1828.59 1451.02 L1833.27 1451.02 L1833.27 1481.64 L1840.91 1481.64 L1840.91 1485.58 L1821 1485.58 L1821 1481.64 Z" fill="#000000" fill-rule="nonzero" fill-opacity="1" /><path clip-path="url(#clip360)" d="M1854.38 1481.64 L1870.7 1481.64 L1870.7 1485.58 L1848.75 1485.58 L1848.75 1481.64 Q1851.42 1478.89 1856 1474.26 Q1860.61 1469.61 1861.79 1468.27 Q1864.03 1465.74 1864.91 1464.01 Q1865.81 1462.25 1865.81 1460.56 Q1865.81 1457.8 1863.87 1456.07 Q1861.95 1454.33 1858.85 1454.33 Q1856.65 1454.33 1854.19 1455.09 Q1851.76 1455.86 1848.99 1457.41 L1848.99 1452.69 Q1851.81 1451.55 1854.26 1450.97 Q1856.72 1450.39 1858.75 1450.39 Q1864.12 1450.39 1867.32 1453.08 Q1870.51 1455.77 1870.51 1460.26 Q1870.51 1462.39 1869.7 1464.31 Q1868.92 1466.2 1866.81 1468.8 Q1866.23 1469.47 1863.13 1472.69 Q1860.03 1475.88 1854.38 1481.64 Z" fill="#000000" fill-rule="nonzero" fill-opacity="1" /><path clip-path="url(#clip360)" d="M1880.56 1451.02 L1898.92 1451.02 L1898.92 1454.96 L1884.84 1454.96 L1884.84 1463.43 Q1885.86 1463.08 1886.88 1462.92 Q1887.9 1462.73 1888.92 1462.73 Q1894.7 1462.73 1898.08 1465.9 Q1901.46 1469.08 1901.46 1474.49 Q1901.46 1480.07 1897.99 1483.17 Q1894.52 1486.25 1888.2 1486.25 Q1886.02 1486.25 1883.75 1485.88 Q1881.51 1485.51 1879.1 1484.77 L1879.1 1480.07 Q1881.18 1481.2 1883.41 1481.76 Q1885.63 1482.32 1888.11 1482.32 Q1892.11 1482.32 1894.45 1480.21 Q1896.79 1478.1 1896.79 1474.49 Q1896.79 1470.88 1894.45 1468.77 Q1892.11 1466.67 1888.11 1466.67 Q1886.23 1466.67 1884.36 1467.08 Q1882.5 1467.5 1880.56 1468.38 L1880.56 1451.02 Z" fill="#000000" fill-rule="nonzero" fill-opacity="1" /><path clip-path="url(#clip360)" d="M2251.58 1481.64 L2259.22 1481.64 L2259.22 1455.28 L2250.91 1456.95 L2250.91 1452.69 L2259.17 1451.02 L2263.85 1451.02 L2263.85 1481.64 L2271.49 1481.64 L2271.49 1485.58 L2251.58 1485.58 L2251.58 1481.64 Z" fill="#000000" fill-rule="nonzero" fill-opacity="1" /><path clip-path="url(#clip360)" d="M2280.98 1451.02 L2299.33 1451.02 L2299.33 1454.96 L2285.26 1454.96 L2285.26 1463.43 Q2286.28 1463.08 2287.3 1462.92 Q2288.32 1462.73 2289.33 1462.73 Q2295.12 1462.73 2298.5 1465.9 Q2301.88 1469.08 2301.88 1474.49 Q2301.88 1480.07 2298.41 1483.17 Q2294.94 1486.25 2288.62 1486.25 Q2286.44 1486.25 2284.17 1485.88 Q2281.93 1485.51 2279.52 1484.77 L2279.52 1480.07 Q2281.6 1481.2 2283.83 1481.76 Q2286.05 1482.32 2288.52 1482.32 Q2292.53 1482.32 2294.87 1480.21 Q2297.21 1478.1 2297.21 1474.49 Q2297.21 1470.88 2294.87 1468.77 Q2292.53 1466.67 2288.52 1466.67 Q2286.65 1466.67 2284.77 1467.08 Q2282.92 1467.5 2280.98 1468.38 L2280.98 1451.02 Z" fill="#000000" fill-rule="nonzero" fill-opacity="1" /><path clip-path="url(#clip360)" d="M2321.09 1454.1 Q2317.48 1454.1 2315.65 1457.66 Q2313.85 1461.2 2313.85 1468.33 Q2313.85 1475.44 2315.65 1479.01 Q2317.48 1482.55 2321.09 1482.55 Q2324.73 1482.55 2326.53 1479.01 Q2328.36 1475.44 2328.36 1468.33 Q2328.36 1461.2 2326.53 1457.66 Q2324.73 1454.1 2321.09 1454.1 M2321.09 1450.39 Q2326.9 1450.39 2329.96 1455 Q2333.04 1459.58 2333.04 1468.33 Q2333.04 1477.06 2329.96 1481.67 Q2326.9 1486.25 2321.09 1486.25 Q2315.28 1486.25 2312.21 1481.67 Q2309.15 1477.06 2309.15 1468.33 Q2309.15 1459.58 2312.21 1455 Q2315.28 1450.39 2321.09 1450.39 Z" fill="#000000" fill-rule="nonzero" fill-opacity="1" /><path clip-path="url(#clip360)" d="M890.821 1522.08 L890.821 1528.35 Q887.161 1526.6 883.915 1525.74 Q880.668 1524.88 877.644 1524.88 Q872.393 1524.88 869.528 1526.92 Q866.695 1528.96 866.695 1532.71 Q866.695 1535.87 868.573 1537.49 Q870.483 1539.08 875.766 1540.07 L879.649 1540.86 Q886.843 1542.23 890.248 1545.7 Q893.686 1549.14 893.686 1554.93 Q893.686 1561.84 889.039 1565.4 Q884.424 1568.97 875.48 1568.97 Q872.106 1568.97 868.287 1568.2 Q864.499 1567.44 860.425 1565.94 L860.425 1559.32 Q864.34 1561.52 868.096 1562.63 Q871.852 1563.75 875.48 1563.75 Q880.986 1563.75 883.978 1561.58 Q886.97 1559.42 886.97 1555.41 Q886.97 1551.91 884.806 1549.93 Q882.673 1547.96 877.772 1546.97 L873.857 1546.21 Q866.663 1544.78 863.449 1541.72 Q860.234 1538.67 860.234 1533.22 Q860.234 1526.92 864.658 1523.29 Q869.114 1519.66 876.912 1519.66 Q880.254 1519.66 883.724 1520.27 Q887.193 1520.87 890.821 1522.08 Z" fill="#000000" fill-rule="nonzero" fill-opacity="1" /><path clip-path="url(#clip360)" d="M909.25 1522.27 L909.25 1532.4 L921.313 1532.4 L921.313 1536.95 L909.25 1536.95 L909.25 1556.3 Q909.25 1560.66 910.428 1561.9 Q911.637 1563.14 915.297 1563.14 L921.313 1563.14 L921.313 1568.04 L915.297 1568.04 Q908.518 1568.04 905.94 1565.53 Q903.362 1562.98 903.362 1556.3 L903.362 1536.95 L899.065 1536.95 L899.065 1532.4 L903.362 1532.4 L903.362 1522.27 L909.25 1522.27 Z" fill="#000000" fill-rule="nonzero" fill-opacity="1" /><path clip-path="url(#clip360)" d="M949.672 1537.87 Q948.686 1537.3 947.508 1537.04 Q946.362 1536.76 944.962 1536.76 Q939.996 1536.76 937.323 1540 Q934.681 1543.22 934.681 1549.27 L934.681 1568.04 L928.793 1568.04 L928.793 1532.4 L934.681 1532.4 L934.681 1537.93 Q936.527 1534.69 939.487 1533.13 Q942.447 1531.54 946.68 1531.54 Q947.285 1531.54 948.017 1531.63 Q948.749 1531.7 949.64 1531.85 L949.672 1537.87 Z" fill="#000000" fill-rule="nonzero" fill-opacity="1" /><path clip-path="url(#clip360)" d="M955.815 1532.4 L961.672 1532.4 L961.672 1568.04 L955.815 1568.04 L955.815 1532.4 M955.815 1518.52 L961.672 1518.52 L961.672 1525.93 L955.815 1525.93 L955.815 1518.52 Z" fill="#000000" fill-rule="nonzero" fill-opacity="1" /><path clip-path="url(#clip360)" d="M973.703 1518.52 L979.591 1518.52 L979.591 1547.77 L997.065 1532.4 L1004.54 1532.4 L985.639 1549.07 L1005.34 1568.04 L997.702 1568.04 L979.591 1550.63 L979.591 1568.04 L973.703 1568.04 L973.703 1518.52 Z" fill="#000000" fill-rule="nonzero" fill-opacity="1" /><path clip-path="url(#clip360)" d="M1039.84 1548.76 L1039.84 1551.62 L1012.92 1551.62 Q1013.3 1557.67 1016.54 1560.85 Q1019.82 1564 1025.65 1564 Q1029.02 1564 1032.17 1563.17 Q1035.35 1562.35 1038.47 1560.69 L1038.47 1566.23 Q1035.32 1567.57 1032.01 1568.27 Q1028.7 1568.97 1025.3 1568.97 Q1016.77 1568.97 1011.77 1564 Q1006.8 1559.04 1006.8 1550.57 Q1006.8 1541.82 1011.52 1536.69 Q1016.26 1531.54 1024.28 1531.54 Q1031.47 1531.54 1035.64 1536.18 Q1039.84 1540.8 1039.84 1548.76 M1033.99 1547.04 Q1033.92 1542.23 1031.28 1539.37 Q1028.67 1536.5 1024.34 1536.5 Q1019.44 1536.5 1016.48 1539.27 Q1013.55 1542.04 1013.11 1547.07 L1033.99 1547.04 Z" fill="#000000" fill-rule="nonzero" fill-opacity="1" /><path clip-path="url(#clip360)" d="M1075.84 1562.7 L1075.84 1581.6 L1069.95 1581.6 L1069.95 1532.4 L1075.84 1532.4 L1075.84 1537.81 Q1077.69 1534.62 1080.49 1533.1 Q1083.32 1531.54 1087.24 1531.54 Q1093.73 1531.54 1097.77 1536.69 Q1101.84 1541.85 1101.84 1550.25 Q1101.84 1558.65 1097.77 1563.81 Q1093.73 1568.97 1087.24 1568.97 Q1083.32 1568.97 1080.49 1567.44 Q1077.69 1565.88 1075.84 1562.7 M1095.77 1550.25 Q1095.77 1543.79 1093.09 1540.13 Q1090.45 1536.44 1085.8 1536.44 Q1081.16 1536.44 1078.48 1540.13 Q1075.84 1543.79 1075.84 1550.25 Q1075.84 1556.71 1078.48 1560.4 Q1081.16 1564.07 1085.8 1564.07 Q1090.45 1564.07 1093.09 1560.4 Q1095.77 1556.71 1095.77 1550.25 Z" fill="#000000" fill-rule="nonzero" fill-opacity="1" /><path clip-path="url(#clip360)" d="M1132.21 1537.87 Q1131.22 1537.3 1130.04 1537.04 Q1128.9 1536.76 1127.5 1536.76 Q1122.53 1536.76 1119.86 1540 Q1117.22 1543.22 1117.22 1549.27 L1117.22 1568.04 L1111.33 1568.04 L1111.33 1532.4 L1117.22 1532.4 L1117.22 1537.93 Q1119.06 1534.69 1122.02 1533.13 Q1124.98 1531.54 1129.22 1531.54 Q1129.82 1531.54 1130.55 1531.63 Q1131.29 1531.7 1132.18 1531.85 L1132.21 1537.87 Z" fill="#000000" fill-rule="nonzero" fill-opacity="1" /><path clip-path="url(#clip360)" d="M1138.35 1532.4 L1144.21 1532.4 L1144.21 1568.04 L1138.35 1568.04 L1138.35 1532.4 M1138.35 1518.52 L1144.21 1518.52 L1144.21 1525.93 L1138.35 1525.93 L1138.35 1518.52 Z" fill="#000000" fill-rule="nonzero" fill-opacity="1" /><path clip-path="url(#clip360)" d="M1182.12 1533.76 L1182.12 1539.24 Q1179.63 1537.87 1177.12 1537.2 Q1174.64 1536.5 1172.09 1536.5 Q1166.39 1536.5 1163.24 1540.13 Q1160.09 1543.73 1160.09 1550.25 Q1160.09 1556.78 1163.24 1560.4 Q1166.39 1564 1172.09 1564 Q1174.64 1564 1177.12 1563.33 Q1179.63 1562.63 1182.12 1561.26 L1182.12 1566.68 Q1179.67 1567.82 1177.02 1568.39 Q1174.41 1568.97 1171.45 1568.97 Q1163.4 1568.97 1158.66 1563.91 Q1153.92 1558.85 1153.92 1550.25 Q1153.92 1541.53 1158.69 1536.53 Q1163.5 1531.54 1171.84 1531.54 Q1174.54 1531.54 1177.12 1532.11 Q1179.7 1532.65 1182.12 1533.76 Z" fill="#000000" fill-rule="nonzero" fill-opacity="1" /><path clip-path="url(#clip360)" d="M1222.79 1548.76 L1222.79 1551.62 L1195.87 1551.62 Q1196.25 1557.67 1199.49 1560.85 Q1202.77 1564 1208.6 1564 Q1211.97 1564 1215.12 1563.17 Q1218.31 1562.35 1221.42 1560.69 L1221.42 1566.23 Q1218.27 1567.57 1214.96 1568.27 Q1211.65 1568.97 1208.25 1568.97 Q1199.72 1568.97 1194.72 1564 Q1189.75 1559.04 1189.75 1550.57 Q1189.75 1541.82 1194.47 1536.69 Q1199.21 1531.54 1207.23 1531.54 Q1214.42 1531.54 1218.59 1536.18 Q1222.79 1540.8 1222.79 1548.76 M1216.94 1547.04 Q1216.87 1542.23 1214.23 1539.37 Q1211.62 1536.5 1207.29 1536.5 Q1202.39 1536.5 1199.43 1539.27 Q1196.5 1542.04 1196.06 1547.07 L1216.94 1547.04 Z" fill="#000000" fill-rule="nonzero" fill-opacity="1" /><path clip-path="url(#clip360)" d="M1253.38 1520.52 L1259.81 1520.52 L1259.81 1540.61 L1281.13 1520.52 L1289.41 1520.52 L1265.83 1542.68 L1291.1 1568.04 L1282.63 1568.04 L1259.81 1545.16 L1259.81 1568.04 L1253.38 1568.04 L1253.38 1520.52 Z" fill="#000000" fill-rule="nonzero" fill-opacity="1" /><path clip-path="url(#clip360)" d="M1330.66 1518.58 Q1326.39 1525.9 1324.33 1533.06 Q1322.26 1540.23 1322.26 1547.58 Q1322.26 1554.93 1324.33 1562.16 Q1326.43 1569.35 1330.66 1576.64 L1325.57 1576.64 Q1320.79 1569.16 1318.41 1561.93 Q1316.05 1554.71 1316.05 1547.58 Q1316.05 1540.48 1318.41 1533.29 Q1320.76 1526.09 1325.57 1518.58 L1330.66 1518.58 Z" fill="#000000" fill-rule="nonzero" fill-opacity="1" /><path clip-path="url(#clip360)" d="M1341.55 1520.52 L1348.01 1520.52 L1348.01 1549.39 Q1348.01 1557.03 1350.78 1560.4 Q1353.54 1563.75 1359.75 1563.75 Q1365.93 1563.75 1368.69 1560.4 Q1371.46 1557.03 1371.46 1549.39 L1371.46 1520.52 L1377.93 1520.52 L1377.93 1550.19 Q1377.93 1559.48 1373.31 1564.22 Q1368.73 1568.97 1359.75 1568.97 Q1350.74 1568.97 1346.13 1564.22 Q1341.55 1559.48 1341.55 1550.19 L1341.55 1520.52 Z" fill="#000000" fill-rule="nonzero" fill-opacity="1" /><path clip-path="url(#clip360)" d="M1418.47 1522.08 L1418.47 1528.35 Q1414.81 1526.6 1411.57 1525.74 Q1408.32 1524.88 1405.3 1524.88 Q1400.05 1524.88 1397.18 1526.92 Q1394.35 1528.96 1394.35 1532.71 Q1394.35 1535.87 1396.23 1537.49 Q1398.14 1539.08 1403.42 1540.07 L1407.3 1540.86 Q1414.5 1542.23 1417.9 1545.7 Q1421.34 1549.14 1421.34 1554.93 Q1421.34 1561.84 1416.69 1565.4 Q1412.08 1568.97 1403.13 1568.97 Q1399.76 1568.97 1395.94 1568.2 Q1392.15 1567.44 1388.08 1565.94 L1388.08 1559.32 Q1391.99 1561.52 1395.75 1562.63 Q1399.5 1563.75 1403.13 1563.75 Q1408.64 1563.75 1411.63 1561.58 Q1414.62 1559.42 1414.62 1555.41 Q1414.62 1551.91 1412.46 1549.93 Q1410.33 1547.96 1405.43 1546.97 L1401.51 1546.21 Q1394.32 1544.78 1391.1 1541.72 Q1387.89 1538.67 1387.89 1533.22 Q1387.89 1526.92 1392.31 1523.29 Q1396.77 1519.66 1404.57 1519.66 Q1407.91 1519.66 1411.38 1520.27 Q1414.85 1520.87 1418.47 1522.08 Z" fill="#000000" fill-rule="nonzero" fill-opacity="1" /><path clip-path="url(#clip360)" d="M1437.79 1525.81 L1437.79 1562.76 L1445.56 1562.76 Q1455.4 1562.76 1459.95 1558.3 Q1464.53 1553.85 1464.53 1544.24 Q1464.53 1534.69 1459.95 1530.26 Q1455.4 1525.81 1445.56 1525.81 L1437.79 1525.81 M1431.37 1520.52 L1444.57 1520.52 Q1458.39 1520.52 1464.85 1526.28 Q1471.31 1532.01 1471.31 1544.24 Q1471.31 1556.52 1464.82 1562.28 Q1458.32 1568.04 1444.57 1568.04 L1431.37 1568.04 L1431.37 1520.52 Z" fill="#000000" fill-rule="nonzero" fill-opacity="1" /><path clip-path="url(#clip360)" d="M1491.71 1520.52 L1497.12 1520.52 L1480.57 1574.09 L1475.16 1574.09 L1491.71 1520.52 Z" fill="#000000" fill-rule="nonzero" fill-opacity="1" /><path clip-path="url(#clip360)" d="M1525.99 1533.45 L1525.99 1538.98 Q1523.51 1537.71 1520.84 1537.07 Q1518.16 1536.44 1515.3 1536.44 Q1510.94 1536.44 1508.74 1537.77 Q1506.58 1539.11 1506.58 1541.79 Q1506.58 1543.82 1508.14 1545 Q1509.7 1546.15 1514.41 1547.2 L1516.41 1547.64 Q1522.65 1548.98 1525.26 1551.43 Q1527.9 1553.85 1527.9 1558.21 Q1527.9 1563.17 1523.95 1566.07 Q1520.04 1568.97 1513.16 1568.97 Q1510.3 1568.97 1507.18 1568.39 Q1504.09 1567.85 1500.66 1566.74 L1500.66 1560.69 Q1503.9 1562.38 1507.05 1563.24 Q1510.2 1564.07 1513.29 1564.07 Q1517.43 1564.07 1519.66 1562.66 Q1521.89 1561.23 1521.89 1558.65 Q1521.89 1556.27 1520.26 1554.99 Q1518.67 1553.72 1513.23 1552.54 L1511.19 1552.07 Q1505.75 1550.92 1503.33 1548.56 Q1500.91 1546.18 1500.91 1542.04 Q1500.91 1537.01 1504.48 1534.27 Q1508.04 1531.54 1514.6 1531.54 Q1517.84 1531.54 1520.71 1532.01 Q1523.57 1532.49 1525.99 1533.45 Z" fill="#000000" fill-rule="nonzero" fill-opacity="1" /><path clip-path="url(#clip360)" d="M1566.86 1546.53 L1566.86 1568.04 L1561 1568.04 L1561 1546.72 Q1561 1541.66 1559.03 1539.14 Q1557.06 1536.63 1553.11 1536.63 Q1548.37 1536.63 1545.63 1539.65 Q1542.89 1542.68 1542.89 1547.9 L1542.89 1568.04 L1537 1568.04 L1537 1518.52 L1542.89 1518.52 L1542.89 1537.93 Q1544.99 1534.72 1547.83 1533.13 Q1550.69 1531.54 1554.41 1531.54 Q1560.56 1531.54 1563.71 1535.36 Q1566.86 1539.14 1566.86 1546.53 Z" fill="#000000" fill-rule="nonzero" fill-opacity="1" /><path clip-path="url(#clip360)" d="M1594.74 1550.12 Q1587.64 1550.12 1584.91 1551.75 Q1582.17 1553.37 1582.17 1557.29 Q1582.17 1560.4 1584.21 1562.25 Q1586.27 1564.07 1589.81 1564.07 Q1594.68 1564.07 1597.61 1560.63 Q1600.57 1557.16 1600.57 1551.43 L1600.57 1550.12 L1594.74 1550.12 M1606.42 1547.71 L1606.42 1568.04 L1600.57 1568.04 L1600.57 1562.63 Q1598.56 1565.88 1595.57 1567.44 Q1592.58 1568.97 1588.25 1568.97 Q1582.77 1568.97 1579.53 1565.91 Q1576.31 1562.82 1576.31 1557.67 Q1576.31 1551.65 1580.32 1548.6 Q1584.37 1545.54 1592.35 1545.54 L1600.57 1545.54 L1600.57 1544.97 Q1600.57 1540.93 1597.89 1538.73 Q1595.25 1536.5 1590.44 1536.5 Q1587.39 1536.5 1584.49 1537.23 Q1581.6 1537.97 1578.92 1539.43 L1578.92 1534.02 Q1582.14 1532.78 1585.16 1532.17 Q1588.18 1531.54 1591.05 1531.54 Q1598.78 1531.54 1602.6 1535.55 Q1606.42 1539.56 1606.42 1547.71 Z" fill="#000000" fill-rule="nonzero" fill-opacity="1" /><path clip-path="url(#clip360)" d="M1639.14 1537.87 Q1638.16 1537.3 1636.98 1537.04 Q1635.83 1536.76 1634.43 1536.76 Q1629.47 1536.76 1626.79 1540 Q1624.15 1543.22 1624.15 1549.27 L1624.15 1568.04 L1618.26 1568.04 L1618.26 1532.4 L1624.15 1532.4 L1624.15 1537.93 Q1626 1534.69 1628.96 1533.13 Q1631.92 1531.54 1636.15 1531.54 Q1636.75 1531.54 1637.49 1531.63 Q1638.22 1531.7 1639.11 1531.85 L1639.14 1537.87 Z" fill="#000000" fill-rule="nonzero" fill-opacity="1" /><path clip-path="url(#clip360)" d="M1674.34 1548.76 L1674.34 1551.62 L1647.42 1551.62 Q1647.8 1557.67 1651.05 1560.85 Q1654.32 1564 1660.15 1564 Q1663.52 1564 1666.67 1563.17 Q1669.86 1562.35 1672.98 1560.69 L1672.98 1566.23 Q1669.82 1567.57 1666.51 1568.27 Q1663.2 1568.97 1659.8 1568.97 Q1651.27 1568.97 1646.27 1564 Q1641.31 1559.04 1641.31 1550.57 Q1641.31 1541.82 1646.02 1536.69 Q1650.76 1531.54 1658.78 1531.54 Q1665.97 1531.54 1670.14 1536.18 Q1674.34 1540.8 1674.34 1548.76 M1668.49 1547.04 Q1668.42 1542.23 1665.78 1539.37 Q1663.17 1536.5 1658.84 1536.5 Q1653.94 1536.5 1650.98 1539.27 Q1648.05 1542.04 1647.61 1547.07 L1668.49 1547.04 Z" fill="#000000" fill-rule="nonzero" fill-opacity="1" /><path clip-path="url(#clip360)" d="M1683.03 1518.58 L1688.13 1518.58 Q1692.9 1526.09 1695.26 1533.29 Q1697.64 1540.48 1697.64 1547.58 Q1697.64 1554.71 1695.26 1561.93 Q1692.9 1569.16 1688.13 1576.64 L1683.03 1576.64 Q1687.27 1569.35 1689.34 1562.16 Q1691.44 1554.93 1691.44 1547.58 Q1691.44 1540.23 1689.34 1533.06 Q1687.27 1525.9 1683.03 1518.58 Z" fill="#000000" fill-rule="nonzero" fill-opacity="1" /><polyline clip-path="url(#clip360)" style="stroke:#000000; stroke-linecap:round; stroke-linejoin:round; stroke-width:4; stroke-opacity:1; fill:none" points="205.121,1423.18 205.121,47.2441 "/>
<polyline clip-path="url(#clip360)" style="stroke:#000000; stroke-linecap:round; stroke-linejoin:round; stroke-width:4; stroke-opacity:1; fill:none" points="2352.76,1423.18 2352.76,47.2441 "/>
<polyline clip-path="url(#clip360)" style="stroke:#000000; stroke-linecap:round; stroke-linejoin:round; stroke-width:4; stroke-opacity:1; fill:none" points="205.121,1384.24 224.019,1384.24 "/>
<polyline clip-path="url(#clip360)" style="stroke:#000000; stroke-linecap:round; stroke-linejoin:round; stroke-width:4; stroke-opacity:1; fill:none" points="205.121,1124.63 224.019,1124.63 "/>
<polyline clip-path="url(#clip360)" style="stroke:#000000; stroke-linecap:round; stroke-linejoin:round; stroke-width:4; stroke-opacity:1; fill:none" points="205.121,865.017 224.019,865.017 "/>
<polyline clip-path="url(#clip360)" style="stroke:#000000; stroke-linecap:round; stroke-linejoin:round; stroke-width:4; stroke-opacity:1; fill:none" points="205.121,605.407 224.019,605.407 "/>
<polyline clip-path="url(#clip360)" style="stroke:#000000; stroke-linecap:round; stroke-linejoin:round; stroke-width:4; stroke-opacity:1; fill:none" points="205.121,345.796 224.019,345.796 "/>
<polyline clip-path="url(#clip360)" style="stroke:#000000; stroke-linecap:round; stroke-linejoin:round; stroke-width:4; stroke-opacity:1; fill:none" points="205.121,86.1857 224.019,86.1857 "/>
<polyline clip-path="url(#clip360)" style="stroke:#000000; stroke-linecap:round; stroke-linejoin:round; stroke-width:4; stroke-opacity:1; fill:none" points="2352.76,1384.24 2333.86,1384.24 "/>
<polyline clip-path="url(#clip360)" style="stroke:#000000; stroke-linecap:round; stroke-linejoin:round; stroke-width:4; stroke-opacity:1; fill:none" points="2352.76,1124.63 2333.86,1124.63 "/>
<polyline clip-path="url(#clip360)" style="stroke:#000000; stroke-linecap:round; stroke-linejoin:round; stroke-width:4; stroke-opacity:1; fill:none" points="2352.76,865.017 2333.86,865.017 "/>
<polyline clip-path="url(#clip360)" style="stroke:#000000; stroke-linecap:round; stroke-linejoin:round; stroke-width:4; stroke-opacity:1; fill:none" points="2352.76,605.407 2333.86,605.407 "/>
<polyline clip-path="url(#clip360)" style="stroke:#000000; stroke-linecap:round; stroke-linejoin:round; stroke-width:4; stroke-opacity:1; fill:none" points="2352.76,345.796 2333.86,345.796 "/>
<polyline clip-path="url(#clip360)" style="stroke:#000000; stroke-linecap:round; stroke-linejoin:round; stroke-width:4; stroke-opacity:1; fill:none" points="2352.76,86.1857 2333.86,86.1857 "/>
<path clip-path="url(#clip360)" d="M157.177 1370.04 Q153.566 1370.04 151.737 1373.6 Q149.931 1377.14 149.931 1384.27 Q149.931 1391.38 151.737 1394.94 Q153.566 1398.49 157.177 1398.49 Q160.811 1398.49 162.616 1394.94 Q164.445 1391.38 164.445 1384.27 Q164.445 1377.14 162.616 1373.6 Q160.811 1370.04 157.177 1370.04 M157.177 1366.33 Q162.987 1366.33 166.042 1370.94 Q169.121 1375.52 169.121 1384.27 Q169.121 1393 166.042 1397.61 Q162.987 1402.19 157.177 1402.19 Q151.366 1402.19 148.288 1397.61 Q145.232 1393 145.232 1384.27 Q145.232 1375.52 148.288 1370.94 Q151.366 1366.33 157.177 1366.33 Z" fill="#000000" fill-rule="nonzero" fill-opacity="1" /><path clip-path="url(#clip360)" d="M117.825 1137.97 L125.464 1137.97 L125.464 1111.61 L117.154 1113.27 L117.154 1109.01 L125.418 1107.35 L130.093 1107.35 L130.093 1137.97 L137.732 1137.97 L137.732 1141.91 L117.825 1141.91 L117.825 1137.97 Z" fill="#000000" fill-rule="nonzero" fill-opacity="1" /><path clip-path="url(#clip360)" d="M157.177 1110.43 Q153.566 1110.43 151.737 1113.99 Q149.931 1117.53 149.931 1124.66 Q149.931 1131.77 151.737 1135.33 Q153.566 1138.88 157.177 1138.88 Q160.811 1138.88 162.616 1135.33 Q164.445 1131.77 164.445 1124.66 Q164.445 1117.53 162.616 1113.99 Q160.811 1110.43 157.177 1110.43 M157.177 1106.72 Q162.987 1106.72 166.042 1111.33 Q169.121 1115.91 169.121 1124.66 Q169.121 1133.39 166.042 1138 Q162.987 1142.58 157.177 1142.58 Q151.366 1142.58 148.288 1138 Q145.232 1133.39 145.232 1124.66 Q145.232 1115.91 148.288 1111.33 Q151.366 1106.72 157.177 1106.72 Z" fill="#000000" fill-rule="nonzero" fill-opacity="1" /><path clip-path="url(#clip360)" d="M121.043 878.362 L137.362 878.362 L137.362 882.297 L115.418 882.297 L115.418 878.362 Q118.08 875.607 122.663 870.978 Q127.269 866.325 128.45 864.983 Q130.695 862.459 131.575 860.723 Q132.478 858.964 132.478 857.274 Q132.478 854.52 130.533 852.783 Q128.612 851.047 125.51 851.047 Q123.311 851.047 120.857 851.811 Q118.427 852.575 115.649 854.126 L115.649 849.404 Q118.473 848.27 120.927 847.691 Q123.38 847.112 125.418 847.112 Q130.788 847.112 133.982 849.797 Q137.177 852.483 137.177 856.973 Q137.177 859.103 136.367 861.024 Q135.579 862.922 133.473 865.515 Q132.894 866.186 129.792 869.404 Q126.691 872.598 121.043 878.362 Z" fill="#000000" fill-rule="nonzero" fill-opacity="1" /><path clip-path="url(#clip360)" d="M157.177 850.816 Q153.566 850.816 151.737 854.381 Q149.931 857.922 149.931 865.052 Q149.931 872.158 151.737 875.723 Q153.566 879.265 157.177 879.265 Q160.811 879.265 162.616 875.723 Q164.445 872.158 164.445 865.052 Q164.445 857.922 162.616 854.381 Q160.811 850.816 157.177 850.816 M157.177 847.112 Q162.987 847.112 166.042 851.719 Q169.121 856.302 169.121 865.052 Q169.121 873.779 166.042 878.385 Q162.987 882.969 157.177 882.969 Q151.366 882.969 148.288 878.385 Q145.232 873.779 145.232 865.052 Q145.232 856.302 148.288 851.719 Q151.366 847.112 157.177 847.112 Z" fill="#000000" fill-rule="nonzero" fill-opacity="1" /><path clip-path="url(#clip360)" d="M131.181 604.053 Q134.538 604.77 136.413 607.039 Q138.311 609.307 138.311 612.64 Q138.311 617.756 134.792 620.557 Q131.274 623.358 124.793 623.358 Q122.617 623.358 120.302 622.918 Q118.01 622.502 115.556 621.645 L115.556 617.131 Q117.501 618.265 119.816 618.844 Q122.13 619.423 124.654 619.423 Q129.052 619.423 131.343 617.687 Q133.658 615.951 133.658 612.64 Q133.658 609.585 131.505 607.872 Q129.376 606.136 125.556 606.136 L121.529 606.136 L121.529 602.293 L125.742 602.293 Q129.191 602.293 131.019 600.928 Q132.848 599.539 132.848 596.946 Q132.848 594.284 130.95 592.872 Q129.075 591.437 125.556 591.437 Q123.635 591.437 121.436 591.854 Q119.237 592.27 116.598 593.15 L116.598 588.983 Q119.26 588.242 121.575 587.872 Q123.913 587.502 125.973 587.502 Q131.297 587.502 134.399 589.932 Q137.501 592.34 137.501 596.46 Q137.501 599.33 135.857 601.321 Q134.214 603.289 131.181 604.053 Z" fill="#000000" fill-rule="nonzero" fill-opacity="1" /><path clip-path="url(#clip360)" d="M157.177 591.205 Q153.566 591.205 151.737 594.77 Q149.931 598.312 149.931 605.441 Q149.931 612.548 151.737 616.113 Q153.566 619.654 157.177 619.654 Q160.811 619.654 162.616 616.113 Q164.445 612.548 164.445 605.441 Q164.445 598.312 162.616 594.77 Q160.811 591.205 157.177 591.205 M157.177 587.502 Q162.987 587.502 166.042 592.108 Q169.121 596.691 169.121 605.441 Q169.121 614.168 166.042 618.775 Q162.987 623.358 157.177 623.358 Q151.366 623.358 148.288 618.775 Q145.232 614.168 145.232 605.441 Q145.232 596.691 148.288 592.108 Q151.366 587.502 157.177 587.502 Z" fill="#000000" fill-rule="nonzero" fill-opacity="1" /><path clip-path="url(#clip360)" d="M129.862 332.59 L118.056 351.039 L129.862 351.039 L129.862 332.59 M128.635 328.516 L134.515 328.516 L134.515 351.039 L139.445 351.039 L139.445 354.928 L134.515 354.928 L134.515 363.076 L129.862 363.076 L129.862 354.928 L114.26 354.928 L114.26 350.414 L128.635 328.516 Z" fill="#000000" fill-rule="nonzero" fill-opacity="1" /><path clip-path="url(#clip360)" d="M157.177 331.595 Q153.566 331.595 151.737 335.16 Q149.931 338.701 149.931 345.831 Q149.931 352.937 151.737 356.502 Q153.566 360.044 157.177 360.044 Q160.811 360.044 162.616 356.502 Q164.445 352.937 164.445 345.831 Q164.445 338.701 162.616 335.16 Q160.811 331.595 157.177 331.595 M157.177 327.891 Q162.987 327.891 166.042 332.498 Q169.121 337.081 169.121 345.831 Q169.121 354.558 166.042 359.164 Q162.987 363.747 157.177 363.747 Q151.366 363.747 148.288 359.164 Q145.232 354.558 145.232 345.831 Q145.232 337.081 148.288 332.498 Q151.366 327.891 157.177 327.891 Z" fill="#000000" fill-rule="nonzero" fill-opacity="1" /><path clip-path="url(#clip360)" d="M117.061 68.9057 L135.417 68.9057 L135.417 72.8408 L121.343 72.8408 L121.343 81.313 Q122.362 80.9658 123.38 80.8038 Q124.399 80.6186 125.418 80.6186 Q131.205 80.6186 134.584 83.7899 Q137.964 86.9611 137.964 92.3778 Q137.964 97.9564 134.492 101.058 Q131.019 104.137 124.7 104.137 Q122.524 104.137 120.255 103.767 Q118.01 103.396 115.603 102.655 L115.603 97.9564 Q117.686 99.0907 119.908 99.6462 Q122.13 100.202 124.607 100.202 Q128.612 100.202 130.95 98.0953 Q133.288 95.9889 133.288 92.3778 Q133.288 88.7667 130.95 86.6602 Q128.612 84.5537 124.607 84.5537 Q122.732 84.5537 120.857 84.9704 Q119.006 85.3871 117.061 86.2667 L117.061 68.9057 Z" fill="#000000" fill-rule="nonzero" fill-opacity="1" /><path clip-path="url(#clip360)" d="M157.177 71.9844 Q153.566 71.9844 151.737 75.5492 Q149.931 79.0908 149.931 86.2204 Q149.931 93.3268 151.737 96.8916 Q153.566 100.433 157.177 100.433 Q160.811 100.433 162.616 96.8916 Q164.445 93.3268 164.445 86.2204 Q164.445 79.0908 162.616 75.5492 Q160.811 71.9844 157.177 71.9844 M157.177 68.2807 Q162.987 68.2807 166.042 72.8871 Q169.121 77.4704 169.121 86.2204 Q169.121 94.9472 166.042 99.5537 Q162.987 104.137 157.177 104.137 Q151.366 104.137 148.288 99.5537 Q145.232 94.9472 145.232 86.2204 Q145.232 77.4704 148.288 72.8871 Q151.366 68.2807 157.177 68.2807 Z" fill="#000000" fill-rule="nonzero" fill-opacity="1" /><path clip-path="url(#clip360)" d="M20.1444 1196.22 L26.9239 1196.22 Q23.9002 1199.46 22.4043 1203.16 Q20.9083 1206.82 20.9083 1210.95 Q20.9083 1219.1 25.9054 1223.43 Q30.8707 1227.76 40.2919 1227.76 Q49.6813 1227.76 54.6784 1223.43 Q59.6436 1219.1 59.6436 1210.95 Q59.6436 1206.82 58.1477 1203.16 Q56.6518 1199.46 53.6281 1196.22 L60.3439 1196.22 Q62.6355 1199.59 63.7814 1203.38 Q64.9272 1207.13 64.9272 1211.33 Q64.9272 1222.12 58.3387 1228.33 Q51.7183 1234.54 40.2919 1234.54 Q28.8336 1234.54 22.2451 1228.33 Q15.6248 1222.12 15.6248 1211.33 Q15.6248 1207.07 16.7706 1203.31 Q17.8846 1199.53 20.1444 1196.22 Z" fill="#000000" fill-rule="nonzero" fill-opacity="1" /><path clip-path="url(#clip360)" d="M32.4621 1172.73 Q32.4621 1177.44 36.1542 1180.17 Q39.8145 1182.91 46.212 1182.91 Q52.6095 1182.91 56.3017 1180.21 Q59.9619 1177.47 59.9619 1172.73 Q59.9619 1168.05 56.2698 1165.31 Q52.5777 1162.57 46.212 1162.57 Q39.8781 1162.57 36.186 1165.31 Q32.4621 1168.05 32.4621 1172.73 M27.4968 1172.73 Q27.4968 1165.09 32.4621 1160.73 Q37.4273 1156.37 46.212 1156.37 Q54.9649 1156.37 59.9619 1160.73 Q64.9272 1165.09 64.9272 1172.73 Q64.9272 1180.4 59.9619 1184.76 Q54.9649 1189.09 46.212 1189.09 Q37.4273 1189.09 32.4621 1184.76 Q27.4968 1180.4 27.4968 1172.73 Z" fill="#000000" fill-rule="nonzero" fill-opacity="1" /><path clip-path="url(#clip360)" d="M42.4881 1117.03 L64.0042 1117.03 L64.0042 1122.88 L42.679 1122.88 Q37.6183 1122.88 35.1038 1124.86 Q32.5894 1126.83 32.5894 1130.78 Q32.5894 1135.52 35.6131 1138.26 Q38.6368 1140.99 43.8567 1140.99 L64.0042 1140.99 L64.0042 1146.88 L28.3562 1146.88 L28.3562 1140.99 L33.8944 1140.99 Q30.6797 1138.89 29.0883 1136.06 Q27.4968 1133.2 27.4968 1129.47 Q27.4968 1123.33 31.3163 1120.18 Q35.1038 1117.03 42.4881 1117.03 Z" fill="#000000" fill-rule="nonzero" fill-opacity="1" /><path clip-path="url(#clip360)" d="M18.2347 1099.55 L28.3562 1099.55 L28.3562 1087.49 L32.9077 1087.49 L32.9077 1099.55 L52.2594 1099.55 Q56.6199 1099.55 57.8613 1098.38 Q59.1026 1097.17 59.1026 1093.51 L59.1026 1087.49 L64.0042 1087.49 L64.0042 1093.51 Q64.0042 1100.29 61.4897 1102.86 Q58.9434 1105.44 52.2594 1105.44 L32.9077 1105.44 L32.9077 1109.74 L28.3562 1109.74 L28.3562 1105.44 L18.2347 1105.44 L18.2347 1099.55 Z" fill="#000000" fill-rule="nonzero" fill-opacity="1" /><path clip-path="url(#clip360)" d="M33.8307 1059.13 Q33.2578 1060.12 33.0032 1061.3 Q32.7167 1062.44 32.7167 1063.84 Q32.7167 1068.81 35.9632 1071.48 Q39.1779 1074.12 45.2253 1074.12 L64.0042 1074.12 L64.0042 1080.01 L28.3562 1080.01 L28.3562 1074.12 L33.8944 1074.12 Q30.6479 1072.28 29.0883 1069.32 Q27.4968 1066.36 27.4968 1062.12 Q27.4968 1061.52 27.5923 1060.79 Q27.656 1060.05 27.8151 1059.16 L33.8307 1059.13 Z" fill="#000000" fill-rule="nonzero" fill-opacity="1" /><path clip-path="url(#clip360)" d="M46.0847 1036.79 Q46.0847 1043.89 47.7079 1046.62 Q49.3312 1049.36 53.2461 1049.36 Q56.3653 1049.36 58.2114 1047.32 Q60.0256 1045.25 60.0256 1041.72 Q60.0256 1036.85 56.5881 1033.92 Q53.1188 1030.96 47.3897 1030.96 L46.0847 1030.96 L46.0847 1036.79 M43.6657 1025.11 L64.0042 1025.11 L64.0042 1030.96 L58.5933 1030.96 Q61.8398 1032.97 63.3994 1035.96 Q64.9272 1038.95 64.9272 1043.28 Q64.9272 1048.75 61.8716 1052 Q58.7843 1055.22 53.6281 1055.22 Q47.6125 1055.22 44.5569 1051.21 Q41.5014 1047.16 41.5014 1039.17 L41.5014 1030.96 L40.9285 1030.96 Q36.8862 1030.96 34.6901 1033.64 Q32.4621 1036.28 32.4621 1041.08 Q32.4621 1044.14 33.1941 1047.04 Q33.9262 1049.93 35.3903 1052.61 L29.9795 1052.61 Q28.7381 1049.39 28.1334 1046.37 Q27.4968 1043.34 27.4968 1040.48 Q27.4968 1032.75 31.5072 1028.93 Q35.5176 1025.11 43.6657 1025.11 Z" fill="#000000" fill-rule="nonzero" fill-opacity="1" /><path clip-path="url(#clip360)" d="M29.7248 987.389 L35.1993 987.389 Q33.8307 989.872 33.1623 992.387 Q32.4621 994.869 32.4621 997.415 Q32.4621 1003.11 36.0905 1006.26 Q39.6872 1009.41 46.212 1009.41 Q52.7369 1009.41 56.3653 1006.26 Q59.9619 1003.11 59.9619 997.415 Q59.9619 994.869 59.2935 992.387 Q58.5933 989.872 57.2247 987.389 L62.6355 987.389 Q63.7814 989.84 64.3543 992.482 Q64.9272 995.092 64.9272 998.052 Q64.9272 1006.1 59.8664 1010.85 Q54.8057 1015.59 46.212 1015.59 Q37.491 1015.59 32.4939 1010.82 Q27.4968 1006.01 27.4968 997.67 Q27.4968 994.965 28.0697 992.387 Q28.6108 989.808 29.7248 987.389 Z" fill="#000000" fill-rule="nonzero" fill-opacity="1" /><path clip-path="url(#clip360)" d="M18.2347 971.412 L28.3562 971.412 L28.3562 959.348 L32.9077 959.348 L32.9077 971.412 L52.2594 971.412 Q56.6199 971.412 57.8613 970.234 Q59.1026 969.024 59.1026 965.364 L59.1026 959.348 L64.0042 959.348 L64.0042 965.364 Q64.0042 972.144 61.4897 974.722 Q58.9434 977.3 52.2594 977.3 L32.9077 977.3 L32.9077 981.597 L28.3562 981.597 L28.3562 977.3 L18.2347 977.3 L18.2347 971.412 Z" fill="#000000" fill-rule="nonzero" fill-opacity="1" /><path clip-path="url(#clip360)" d="M58.657 925.26 L77.5631 925.26 L77.5631 931.148 L28.3562 931.148 L28.3562 925.26 L33.7671 925.26 Q30.5842 923.414 29.0564 920.613 Q27.4968 917.78 27.4968 913.866 Q27.4968 907.373 32.6531 903.33 Q37.8093 899.256 46.212 899.256 Q54.6147 899.256 59.771 903.33 Q64.9272 907.373 64.9272 913.866 Q64.9272 917.78 63.3994 920.613 Q61.8398 923.414 58.657 925.26 M46.212 905.335 Q39.7508 905.335 36.0905 908.009 Q32.3984 910.651 32.3984 915.298 Q32.3984 919.945 36.0905 922.618 Q39.7508 925.26 46.212 925.26 Q52.6732 925.26 56.3653 922.618 Q60.0256 919.945 60.0256 915.298 Q60.0256 910.651 56.3653 908.009 Q52.6732 905.335 46.212 905.335 Z" fill="#000000" fill-rule="nonzero" fill-opacity="1" /><path clip-path="url(#clip360)" d="M33.8307 868.892 Q33.2578 869.878 33.0032 871.056 Q32.7167 872.202 32.7167 873.602 Q32.7167 878.568 35.9632 881.241 Q39.1779 883.883 45.2253 883.883 L64.0042 883.883 L64.0042 889.771 L28.3562 889.771 L28.3562 883.883 L33.8944 883.883 Q30.6479 882.037 29.0883 879.077 Q27.4968 876.117 27.4968 871.884 Q27.4968 871.279 27.5923 870.547 Q27.656 869.815 27.8151 868.924 L33.8307 868.892 Z" fill="#000000" fill-rule="nonzero" fill-opacity="1" /><path clip-path="url(#clip360)" d="M44.7161 833.689 L47.5806 833.689 L47.5806 860.616 Q53.6281 860.234 56.8109 856.988 Q59.9619 853.71 59.9619 847.885 Q59.9619 844.511 59.1344 841.36 Q58.3069 838.177 56.6518 835.058 L62.1899 835.058 Q63.5267 838.209 64.227 841.519 Q64.9272 844.829 64.9272 848.235 Q64.9272 856.765 59.9619 861.762 Q54.9967 866.727 46.5303 866.727 Q37.7774 866.727 32.6531 862.017 Q27.4968 857.274 27.4968 849.254 Q27.4968 842.06 32.1438 837.891 Q36.7589 833.689 44.7161 833.689 M42.9973 839.546 Q38.1912 839.61 35.3266 842.251 Q32.4621 844.861 32.4621 849.19 Q32.4621 854.092 35.2312 857.052 Q38.0002 859.98 43.0292 860.425 L42.9973 839.546 Z" fill="#000000" fill-rule="nonzero" fill-opacity="1" /><path clip-path="url(#clip360)" d="M35.1993 796.323 Q31.2526 794.127 29.3747 791.071 Q27.4968 788.016 27.4968 783.878 Q27.4968 778.308 31.4117 775.284 Q35.2948 772.26 42.4881 772.26 L64.0042 772.26 L64.0042 778.149 L42.679 778.149 Q37.5546 778.149 35.072 779.963 Q32.5894 781.777 32.5894 785.501 Q32.5894 790.053 35.6131 792.694 Q38.6368 795.336 43.8567 795.336 L64.0042 795.336 L64.0042 801.224 L42.679 801.224 Q37.5228 801.224 35.072 803.039 Q32.5894 804.853 32.5894 808.64 Q32.5894 813.128 35.6449 815.77 Q38.6686 818.412 43.8567 818.412 L64.0042 818.412 L64.0042 824.3 L28.3562 824.3 L28.3562 818.412 L33.8944 818.412 Q30.616 816.407 29.0564 813.606 Q27.4968 810.805 27.4968 806.953 Q27.4968 803.07 29.4702 800.365 Q31.4436 797.628 35.1993 796.323 Z" fill="#000000" fill-rule="nonzero" fill-opacity="1" /><path clip-path="url(#clip360)" d="M28.3562 760.579 L28.3562 754.723 L64.0042 754.723 L64.0042 760.579 L28.3562 760.579 M14.479 760.579 L14.479 754.723 L21.895 754.723 L21.895 760.579 L14.479 760.579 Z" fill="#000000" fill-rule="nonzero" fill-opacity="1" /><path clip-path="url(#clip360)" d="M49.9359 743.074 L28.3562 743.074 L28.3562 737.217 L49.7131 737.217 Q54.7739 737.217 57.3202 735.244 Q59.8346 733.27 59.8346 729.324 Q59.8346 724.581 56.8109 721.844 Q53.7872 719.075 48.5673 719.075 L28.3562 719.075 L28.3562 713.218 L64.0042 713.218 L64.0042 719.075 L58.5296 719.075 Q61.7762 721.207 63.3676 724.04 Q64.9272 726.841 64.9272 730.565 Q64.9272 736.708 61.1078 739.891 Q57.2883 743.074 49.9359 743.074 M27.4968 728.337 L27.4968 728.337 Z" fill="#000000" fill-rule="nonzero" fill-opacity="1" /><path clip-path="url(#clip360)" d="M35.1993 673.401 Q31.2526 671.205 29.3747 668.149 Q27.4968 665.094 27.4968 660.956 Q27.4968 655.386 31.4117 652.362 Q35.2948 649.339 42.4881 649.339 L64.0042 649.339 L64.0042 655.227 L42.679 655.227 Q37.5546 655.227 35.072 657.041 Q32.5894 658.855 32.5894 662.579 Q32.5894 667.131 35.6131 669.773 Q38.6368 672.414 43.8567 672.414 L64.0042 672.414 L64.0042 678.303 L42.679 678.303 Q37.5228 678.303 35.072 680.117 Q32.5894 681.931 32.5894 685.719 Q32.5894 690.206 35.6449 692.848 Q38.6686 695.49 43.8567 695.49 L64.0042 695.49 L64.0042 701.378 L28.3562 701.378 L28.3562 695.49 L33.8944 695.49 Q30.616 693.485 29.0564 690.684 Q27.4968 687.883 27.4968 684.032 Q27.4968 680.149 29.4702 677.443 Q31.4436 674.706 35.1993 673.401 Z" fill="#000000" fill-rule="nonzero" fill-opacity="1" /><path clip-path="url(#clip360)" d="M14.5426 602.869 Q21.8632 607.134 29.0246 609.203 Q36.186 611.272 43.5384 611.272 Q50.8908 611.272 58.1159 609.203 Q65.3091 607.102 72.5979 602.869 L72.5979 607.961 Q65.1182 612.736 57.8931 615.123 Q50.668 617.478 43.5384 617.478 Q36.4406 617.478 29.2474 615.123 Q22.0542 612.768 14.5426 607.961 L14.5426 602.869 Z" fill="#000000" fill-rule="nonzero" fill-opacity="1" /><path clip-path="url(#clip360)" d="M16.4842 591.984 L16.4842 585.522 L45.3526 585.522 Q52.9915 585.522 56.3653 582.753 Q59.7073 579.984 59.7073 573.778 Q59.7073 567.603 56.3653 564.834 Q52.9915 562.065 45.3526 562.065 L16.4842 562.065 L16.4842 555.604 L46.1484 555.604 Q55.4423 555.604 60.1847 560.219 Q64.9272 564.802 64.9272 573.778 Q64.9272 582.785 60.1847 587.4 Q55.4423 591.984 46.1484 591.984 L16.4842 591.984 Z" fill="#000000" fill-rule="nonzero" fill-opacity="1" /><path clip-path="url(#clip360)" d="M18.0438 515.054 L24.314 515.054 Q22.5634 518.714 21.704 521.961 Q20.8447 525.207 20.8447 528.231 Q20.8447 533.483 22.8817 536.347 Q24.9187 539.18 28.6745 539.18 Q31.8255 539.18 33.4488 537.302 Q35.0402 535.392 36.0269 530.109 L36.8226 526.226 Q38.1912 519.033 41.6605 515.627 Q45.098 512.189 50.8908 512.189 Q57.7976 512.189 61.3624 516.836 Q64.9272 521.452 64.9272 530.395 Q64.9272 533.769 64.1633 537.589 Q63.3994 541.376 61.9035 545.45 L55.2831 545.45 Q57.4793 541.535 58.5933 537.78 Q59.7073 534.024 59.7073 530.395 Q59.7073 524.889 57.543 521.897 Q55.3786 518.905 51.3682 518.905 Q47.8671 518.905 45.8937 521.07 Q43.9204 523.202 42.9337 528.104 L42.1698 532.019 Q40.7375 539.212 37.682 542.427 Q34.6264 545.641 29.1837 545.641 Q22.8817 545.641 19.2532 541.217 Q15.6248 536.761 15.6248 528.963 Q15.6248 525.621 16.2295 522.152 Q16.8343 518.682 18.0438 515.054 Z" fill="#000000" fill-rule="nonzero" fill-opacity="1" /><path clip-path="url(#clip360)" d="M21.7677 495.734 L58.7206 495.734 L58.7206 487.968 Q58.7206 478.133 54.2646 473.581 Q49.8086 468.998 40.1964 468.998 Q30.6479 468.998 26.2237 473.581 Q21.7677 478.133 21.7677 487.968 L21.7677 495.734 M16.4842 502.163 L16.4842 488.955 Q16.4842 475.141 22.2451 468.68 Q27.9743 462.219 40.1964 462.219 Q52.4822 462.219 58.2432 468.712 Q64.0042 475.205 64.0042 488.955 L64.0042 502.163 L16.4842 502.163 Z" fill="#000000" fill-rule="nonzero" fill-opacity="1" /><path clip-path="url(#clip360)" d="M16.4842 441.817 L16.4842 436.406 L70.0516 452.957 L70.0516 458.367 L16.4842 441.817 Z" fill="#000000" fill-rule="nonzero" fill-opacity="1" /><path clip-path="url(#clip360)" d="M29.4065 407.537 L34.9447 407.537 Q33.6716 410.02 33.035 412.693 Q32.3984 415.367 32.3984 418.232 Q32.3984 422.592 33.7352 424.788 Q35.072 426.953 37.7456 426.953 Q39.7826 426.953 40.9603 425.393 Q42.1061 423.833 43.1565 419.123 L43.6021 417.118 Q44.9389 410.879 47.3897 408.269 Q49.8086 405.628 54.1691 405.628 Q59.1344 405.628 62.0308 409.574 Q64.9272 413.489 64.9272 420.364 Q64.9272 423.229 64.3543 426.348 Q63.8132 429.435 62.6992 432.873 L56.6518 432.873 Q58.3387 429.626 59.198 426.475 Q60.0256 423.324 60.0256 420.237 Q60.0256 416.099 58.6251 413.871 Q57.1929 411.643 54.6147 411.643 Q52.2276 411.643 50.9545 413.266 Q49.6813 414.858 48.5037 420.3 L48.0262 422.337 Q46.8804 427.78 44.5251 430.199 Q42.138 432.618 38.0002 432.618 Q32.9713 432.618 30.2341 429.053 Q27.4968 425.489 27.4968 418.932 Q27.4968 415.685 27.9743 412.821 Q28.4517 409.956 29.4065 407.537 Z" fill="#000000" fill-rule="nonzero" fill-opacity="1" /><path clip-path="url(#clip360)" d="M42.4881 366.669 L64.0042 366.669 L64.0042 372.526 L42.679 372.526 Q37.6183 372.526 35.1038 374.499 Q32.5894 376.473 32.5894 380.419 Q32.5894 385.162 35.6131 387.899 Q38.6368 390.636 43.8567 390.636 L64.0042 390.636 L64.0042 396.525 L14.479 396.525 L14.479 390.636 L33.8944 390.636 Q30.6797 388.536 29.0883 385.703 Q27.4968 382.838 27.4968 379.114 Q27.4968 372.971 31.3163 369.82 Q35.1038 366.669 42.4881 366.669 Z" fill="#000000" fill-rule="nonzero" fill-opacity="1" /><path clip-path="url(#clip360)" d="M46.0847 338.788 Q46.0847 345.885 47.7079 348.623 Q49.3312 351.36 53.2461 351.36 Q56.3653 351.36 58.2114 349.323 Q60.0256 347.254 60.0256 343.721 Q60.0256 338.851 56.5881 335.923 Q53.1188 332.963 47.3897 332.963 L46.0847 332.963 L46.0847 338.788 M43.6657 327.107 L64.0042 327.107 L64.0042 332.963 L58.5933 332.963 Q61.8398 334.968 63.3994 337.96 Q64.9272 340.952 64.9272 345.281 Q64.9272 350.755 61.8716 354.002 Q58.7843 357.216 53.6281 357.216 Q47.6125 357.216 44.5569 353.206 Q41.5014 349.164 41.5014 341.175 L41.5014 332.963 L40.9285 332.963 Q36.8862 332.963 34.6901 335.637 Q32.4621 338.278 32.4621 343.084 Q32.4621 346.14 33.1941 349.036 Q33.9262 351.933 35.3903 354.606 L29.9795 354.606 Q28.7381 351.392 28.1334 348.368 Q27.4968 345.344 27.4968 342.48 Q27.4968 334.745 31.5072 330.926 Q35.5176 327.107 43.6657 327.107 Z" fill="#000000" fill-rule="nonzero" fill-opacity="1" /><path clip-path="url(#clip360)" d="M33.8307 294.387 Q33.2578 295.373 33.0032 296.551 Q32.7167 297.697 32.7167 299.097 Q32.7167 304.063 35.9632 306.736 Q39.1779 309.378 45.2253 309.378 L64.0042 309.378 L64.0042 315.266 L28.3562 315.266 L28.3562 309.378 L33.8944 309.378 Q30.6479 307.532 29.0883 304.572 Q27.4968 301.612 27.4968 297.379 Q27.4968 296.774 27.5923 296.042 Q27.656 295.31 27.8151 294.419 L33.8307 294.387 Z" fill="#000000" fill-rule="nonzero" fill-opacity="1" /><path clip-path="url(#clip360)" d="M44.7161 259.184 L47.5806 259.184 L47.5806 286.111 Q53.6281 285.729 56.8109 282.483 Q59.9619 279.205 59.9619 273.38 Q59.9619 270.006 59.1344 266.855 Q58.3069 263.672 56.6518 260.553 L62.1899 260.553 Q63.5267 263.704 64.227 267.014 Q64.9272 270.324 64.9272 273.73 Q64.9272 282.26 59.9619 287.257 Q54.9967 292.222 46.5303 292.222 Q37.7774 292.222 32.6531 287.512 Q27.4968 282.769 27.4968 274.749 Q27.4968 267.555 32.1438 263.386 Q36.7589 259.184 44.7161 259.184 M42.9973 265.041 Q38.1912 265.105 35.3266 267.746 Q32.4621 270.356 32.4621 274.685 Q32.4621 279.587 35.2312 282.547 Q38.0002 285.475 43.0292 285.92 L42.9973 265.041 Z" fill="#000000" fill-rule="nonzero" fill-opacity="1" /><path clip-path="url(#clip360)" d="M14.5426 250.495 L14.5426 245.403 Q22.0542 240.628 29.2474 238.273 Q36.4406 235.886 43.5384 235.886 Q50.668 235.886 57.8931 238.273 Q65.1182 240.628 72.5979 245.403 L72.5979 250.495 Q65.3091 246.262 58.1159 244.193 Q50.8908 242.093 43.5384 242.093 Q36.186 242.093 29.0246 244.193 Q21.8632 246.262 14.5426 250.495 Z" fill="#000000" fill-rule="nonzero" fill-opacity="1" /><polyline clip-path="url(#clip362)" style="stroke:#000080; stroke-linecap:round; stroke-linejoin:round; stroke-width:12; stroke-opacity:1; fill:none" points="265.903,157.059 309.011,220.145 352.119,284.268 395.227,347.354 438.335,413.555 481.443,477.938 524.55,539.725 567.658,595.542 653.874,729.501 696.982,795.701 740.09,855.412 783.198,904.738 826.306,973.794 869.414,1029.61 912.521,1082.83 955.629,1130.83 998.737,1173.69 1041.85,1215.28 1084.95,1248.77 1128.06,1277.41 1171.17,1302.31 1214.28,1320.92 1257.38,1335.25 1300.49,1346.8 1343.6,1354.05 1386.71,1362.14 1429.82,1366.56 1516.03,1373.59 1602.25,1377.27 1688.46,1379.85 1774.68,1381.16 1860.89,1381.66 1947.11,1382.72 2033.33,1383.1 2119.54,1382.05 2205.76,1382.98 2291.97,1383.99 "/>
<circle clip-path="url(#clip362)" cx="265.903" cy="149.79" r="14.4" fill="#ffffff" fill-rule="evenodd" fill-opacity="1" stroke="#000000" stroke-opacity="1" stroke-width="3.2"/>
<circle clip-path="url(#clip362)" cx="309.011" cy="210.799" r="14.4" fill="#ffffff" fill-rule="evenodd" fill-opacity="1" stroke="#000000" stroke-opacity="1" stroke-width="3.2"/>
<circle clip-path="url(#clip362)" cx="352.119" cy="275.701" r="14.4" fill="#ffffff" fill-rule="evenodd" fill-opacity="1" stroke="#000000" stroke-opacity="1" stroke-width="3.2"/>
<circle clip-path="url(#clip362)" cx="395.227" cy="338.008" r="14.4" fill="#ffffff" fill-rule="evenodd" fill-opacity="1" stroke="#000000" stroke-opacity="1" stroke-width="3.2"/>
<circle clip-path="url(#clip362)" cx="438.335" cy="402.911" r="14.4" fill="#ffffff" fill-rule="evenodd" fill-opacity="1" stroke="#000000" stroke-opacity="1" stroke-width="3.2"/>
<circle clip-path="url(#clip362)" cx="481.443" cy="470.409" r="14.4" fill="#ffffff" fill-rule="evenodd" fill-opacity="1" stroke="#000000" stroke-opacity="1" stroke-width="3.2"/>
<circle clip-path="url(#clip362)" cx="524.55" cy="531.418" r="14.4" fill="#ffffff" fill-rule="evenodd" fill-opacity="1" stroke="#000000" stroke-opacity="1" stroke-width="3.2"/>
<circle clip-path="url(#clip362)" cx="567.658" cy="595.022" r="14.4" fill="#ffffff" fill-rule="evenodd" fill-opacity="1" stroke="#000000" stroke-opacity="1" stroke-width="3.2"/>
<circle clip-path="url(#clip362)" cx="653.874" cy="720.933" r="14.4" fill="#ffffff" fill-rule="evenodd" fill-opacity="1" stroke="#000000" stroke-opacity="1" stroke-width="3.2"/>
<circle clip-path="url(#clip362)" cx="696.982" cy="789.73" r="14.4" fill="#ffffff" fill-rule="evenodd" fill-opacity="1" stroke="#000000" stroke-opacity="1" stroke-width="3.2"/>
<circle clip-path="url(#clip362)" cx="740.09" cy="845.546" r="14.4" fill="#ffffff" fill-rule="evenodd" fill-opacity="1" stroke="#000000" stroke-opacity="1" stroke-width="3.2"/>
<circle clip-path="url(#clip362)" cx="783.198" cy="905.257" r="14.4" fill="#ffffff" fill-rule="evenodd" fill-opacity="1" stroke="#000000" stroke-opacity="1" stroke-width="3.2"/>
<circle clip-path="url(#clip362)" cx="826.306" cy="971.458" r="14.4" fill="#ffffff" fill-rule="evenodd" fill-opacity="1" stroke="#000000" stroke-opacity="1" stroke-width="3.2"/>
<circle clip-path="url(#clip362)" cx="869.414" cy="1027.27" r="14.4" fill="#ffffff" fill-rule="evenodd" fill-opacity="1" stroke="#000000" stroke-opacity="1" stroke-width="3.2"/>
<circle clip-path="url(#clip362)" cx="912.521" cy="1080.49" r="14.4" fill="#ffffff" fill-rule="evenodd" fill-opacity="1" stroke="#000000" stroke-opacity="1" stroke-width="3.2"/>
<circle clip-path="url(#clip362)" cx="955.629" cy="1128.52" r="14.4" fill="#ffffff" fill-rule="evenodd" fill-opacity="1" stroke="#000000" stroke-opacity="1" stroke-width="3.2"/>
<circle clip-path="url(#clip362)" cx="998.737" cy="1173.95" r="14.4" fill="#ffffff" fill-rule="evenodd" fill-opacity="1" stroke="#000000" stroke-opacity="1" stroke-width="3.2"/>
<circle clip-path="url(#clip362)" cx="1041.85" cy="1212.9" r="14.4" fill="#ffffff" fill-rule="evenodd" fill-opacity="1" stroke="#000000" stroke-opacity="1" stroke-width="3.2"/>
<circle clip-path="url(#clip362)" cx="1084.95" cy="1247.94" r="14.4" fill="#ffffff" fill-rule="evenodd" fill-opacity="1" stroke="#000000" stroke-opacity="1" stroke-width="3.2"/>
<circle clip-path="url(#clip362)" cx="1128.06" cy="1276.5" r="14.4" fill="#ffffff" fill-rule="evenodd" fill-opacity="1" stroke="#000000" stroke-opacity="1" stroke-width="3.2"/>
<circle clip-path="url(#clip362)" cx="1171.17" cy="1301.16" r="14.4" fill="#ffffff" fill-rule="evenodd" fill-opacity="1" stroke="#000000" stroke-opacity="1" stroke-width="3.2"/>
<circle clip-path="url(#clip362)" cx="1214.28" cy="1320.37" r="14.4" fill="#ffffff" fill-rule="evenodd" fill-opacity="1" stroke="#000000" stroke-opacity="1" stroke-width="3.2"/>
<circle clip-path="url(#clip362)" cx="1257.38" cy="1335.17" r="14.4" fill="#ffffff" fill-rule="evenodd" fill-opacity="1" stroke="#000000" stroke-opacity="1" stroke-width="3.2"/>
<circle clip-path="url(#clip362)" cx="1300.49" cy="1346.59" r="14.4" fill="#ffffff" fill-rule="evenodd" fill-opacity="1" stroke="#000000" stroke-opacity="1" stroke-width="3.2"/>
<circle clip-path="url(#clip362)" cx="1343.6" cy="1354.12" r="14.4" fill="#ffffff" fill-rule="evenodd" fill-opacity="1" stroke="#000000" stroke-opacity="1" stroke-width="3.2"/>
<circle clip-path="url(#clip362)" cx="1386.71" cy="1361.39" r="14.4" fill="#ffffff" fill-rule="evenodd" fill-opacity="1" stroke="#000000" stroke-opacity="1" stroke-width="3.2"/>
<circle clip-path="url(#clip362)" cx="1429.82" cy="1366.58" r="14.4" fill="#ffffff" fill-rule="evenodd" fill-opacity="1" stroke="#000000" stroke-opacity="1" stroke-width="3.2"/>
<circle clip-path="url(#clip362)" cx="1516.03" cy="1373.33" r="14.4" fill="#ffffff" fill-rule="evenodd" fill-opacity="1" stroke="#000000" stroke-opacity="1" stroke-width="3.2"/>
<circle clip-path="url(#clip362)" cx="1602.25" cy="1376.97" r="14.4" fill="#ffffff" fill-rule="evenodd" fill-opacity="1" stroke="#000000" stroke-opacity="1" stroke-width="3.2"/>
<circle clip-path="url(#clip362)" cx="1688.46" cy="1379.31" r="14.4" fill="#ffffff" fill-rule="evenodd" fill-opacity="1" stroke="#000000" stroke-opacity="1" stroke-width="3.2"/>
<circle clip-path="url(#clip362)" cx="1774.68" cy="1380.86" r="14.4" fill="#ffffff" fill-rule="evenodd" fill-opacity="1" stroke="#000000" stroke-opacity="1" stroke-width="3.2"/>
<circle clip-path="url(#clip362)" cx="1860.89" cy="1381.64" r="14.4" fill="#ffffff" fill-rule="evenodd" fill-opacity="1" stroke="#000000" stroke-opacity="1" stroke-width="3.2"/>
<circle clip-path="url(#clip362)" cx="1947.11" cy="1382.16" r="14.4" fill="#ffffff" fill-rule="evenodd" fill-opacity="1" stroke="#000000" stroke-opacity="1" stroke-width="3.2"/>
<circle clip-path="url(#clip362)" cx="2033.33" cy="1382.42" r="14.4" fill="#ffffff" fill-rule="evenodd" fill-opacity="1" stroke="#000000" stroke-opacity="1" stroke-width="3.2"/>
<circle clip-path="url(#clip362)" cx="2119.54" cy="1380.08" r="14.4" fill="#ffffff" fill-rule="evenodd" fill-opacity="1" stroke="#000000" stroke-opacity="1" stroke-width="3.2"/>
<circle clip-path="url(#clip362)" cx="2205.76" cy="1381.12" r="14.4" fill="#ffffff" fill-rule="evenodd" fill-opacity="1" stroke="#000000" stroke-opacity="1" stroke-width="3.2"/>
<circle clip-path="url(#clip362)" cx="2291.97" cy="1382.68" r="14.4" fill="#ffffff" fill-rule="evenodd" fill-opacity="1" stroke="#000000" stroke-opacity="1" stroke-width="3.2"/>
<polyline clip-path="url(#clip362)" style="stroke:#ff0000; stroke-linecap:round; stroke-linejoin:round; stroke-width:8; stroke-opacity:1; fill:none" stroke-dasharray="32, 20" points="265.903,164.069 309.011,228.971 352.119,293.874 395.227,358.777 438.335,423.679 481.443,488.582 524.55,553.485 567.658,618.387 653.874,748.192 696.982,813.095 740.09,877.998 783.198,942.9 826.306,1007.8 869.414,1072.71 912.521,1137.61 955.629,1202.51 998.737,1267.41 1041.85,1332.32 1084.95,1384.24 1128.06,1384.24 1171.17,1384.24 1214.28,1384.24 1257.38,1384.24 1300.49,1384.24 1343.6,1384.24 1386.71,1384.24 1429.82,1384.24 1516.03,1384.24 1602.25,1384.24 1688.46,1384.24 1774.68,1384.24 1860.89,1384.24 1947.11,1384.24 2033.33,1384.24 2119.54,1384.24 2205.76,1384.24 2291.97,1384.24 "/>
<polyline clip-path="url(#clip362)" style="stroke:#333333; stroke-linecap:round; stroke-linejoin:round; stroke-width:4; stroke-opacity:1; fill:none" stroke-dasharray="16, 10" points="1076.33,1384.24 1076.33,1371.13 1076.33,1358.01 1076.33,1344.9 1076.33,1331.79 1076.33,1318.68 1076.33,1305.57 1076.33,1292.46 1076.33,1279.35 1076.33,1266.23 1076.33,1253.12 1076.33,1240.01 1076.33,1226.9 1076.33,1213.79 1076.33,1200.68 1076.33,1187.56 1076.33,1174.45 1076.33,1161.34 1076.33,1148.23 1076.33,1135.12 1076.33,1122.01 1076.33,1108.89 1076.33,1095.78 1076.33,1082.67 1076.33,1069.56 1076.33,1056.45 1076.33,1043.34 1076.33,1030.22 1076.33,1017.11 1076.33,1004 1076.33,990.889 1076.33,977.777 1076.33,964.666 1076.33,951.554 1076.33,938.442 1076.33,925.331 1076.33,912.219 1076.33,899.107 1076.33,885.996 1076.33,872.884 1076.33,859.773 1076.33,846.661 1076.33,833.549 1076.33,820.438 1076.33,807.326 1076.33,794.214 1076.33,781.103 1076.33,767.991 1076.33,754.879 1076.33,741.768 1076.33,728.656 1076.33,715.545 1076.33,702.433 1076.33,689.321 1076.33,676.21 1076.33,663.098 1076.33,649.986 1076.33,636.875 1076.33,623.763 1076.33,610.651 1076.33,597.54 1076.33,584.428 1076.33,571.316 1076.33,558.205 1076.33,545.093 1076.33,531.982 1076.33,518.87 1076.33,505.758 1076.33,492.647 1076.33,479.535 1076.33,466.423 1076.33,453.312 1076.33,440.2 1076.33,427.088 1076.33,413.977 1076.33,400.865 1076.33,387.753 1076.33,374.642 1076.33,361.53 1076.33,348.419 1076.33,335.307 1076.33,322.195 1076.33,309.084 1076.33,295.972 1076.33,282.86 1076.33,269.749 1076.33,256.637 1076.33,243.525 1076.33,230.414 1076.33,217.302 1076.33,204.19 1076.33,191.079 1076.33,177.967 1076.33,164.856 1076.33,151.744 1076.33,138.632 1076.33,125.521 1076.33,112.409 1076.33,99.2973 1076.33,86.1857 "/>
<path clip-path="url(#clip360)" d="M1583.19 352.309 L2281.17 352.309 L2281.17 93.1086 L1583.19 93.1086  Z" fill="#f5f5f5" fill-rule="evenodd" fill-opacity="1"/>
<polyline clip-path="url(#clip360)" style="stroke:#000000; stroke-linecap:round; stroke-linejoin:round; stroke-width:4; stroke-opacity:0; fill:none" points="1583.19,352.309 2281.17,352.309 2281.17,93.1086 1583.19,93.1086 1583.19,352.309 "/>
<polyline clip-path="url(#clip360)" style="stroke:#000080; stroke-linecap:round; stroke-linejoin:round; stroke-width:12; stroke-opacity:1; fill:none" points="1607.05,144.949 1750.23,144.949 "/>
<path clip-path="url(#clip360)" d="M1801.96 130.331 L1801.96 135.261 Q1799.6 133.062 1796.91 131.974 Q1794.25 130.886 1791.24 130.886 Q1785.32 130.886 1782.17 134.52 Q1779.02 138.132 1779.02 144.983 Q1779.02 151.812 1782.17 155.446 Q1785.32 159.057 1791.24 159.057 Q1794.25 159.057 1796.91 157.969 Q1799.6 156.881 1801.96 154.682 L1801.96 159.567 Q1799.51 161.233 1796.75 162.067 Q1794.02 162.9 1790.97 162.9 Q1783.12 162.9 1778.6 158.108 Q1774.09 153.293 1774.09 144.983 Q1774.09 136.65 1778.6 131.858 Q1783.12 127.044 1790.97 127.044 Q1794.07 127.044 1796.8 127.877 Q1799.55 128.687 1801.96 130.331 Z" fill="#000000" fill-rule="nonzero" fill-opacity="1" /><path clip-path="url(#clip360)" d="M1819.04 139.289 Q1815.62 139.289 1813.63 141.974 Q1811.64 144.636 1811.64 149.289 Q1811.64 153.942 1813.6 156.627 Q1815.59 159.289 1819.04 159.289 Q1822.45 159.289 1824.44 156.604 Q1826.43 153.918 1826.43 149.289 Q1826.43 144.682 1824.44 141.997 Q1822.45 139.289 1819.04 139.289 M1819.04 135.678 Q1824.6 135.678 1827.77 139.289 Q1830.94 142.9 1830.94 149.289 Q1830.94 155.655 1827.77 159.289 Q1824.6 162.9 1819.04 162.9 Q1813.47 162.9 1810.29 159.289 Q1807.15 155.655 1807.15 149.289 Q1807.15 142.9 1810.29 139.289 Q1813.47 135.678 1819.04 135.678 Z" fill="#000000" fill-rule="nonzero" fill-opacity="1" /><path clip-path="url(#clip360)" d="M1858.19 141.28 Q1859.78 138.409 1862.01 137.044 Q1864.23 135.678 1867.24 135.678 Q1871.29 135.678 1873.49 138.525 Q1875.69 141.349 1875.69 146.581 L1875.69 162.229 L1871.4 162.229 L1871.4 146.719 Q1871.4 142.993 1870.09 141.187 Q1868.77 139.382 1866.06 139.382 Q1862.75 139.382 1860.83 141.581 Q1858.9 143.78 1858.9 147.576 L1858.9 162.229 L1854.62 162.229 L1854.62 146.719 Q1854.62 142.969 1853.3 141.187 Q1851.98 139.382 1849.23 139.382 Q1845.97 139.382 1844.04 141.604 Q1842.12 143.803 1842.12 147.576 L1842.12 162.229 L1837.84 162.229 L1837.84 136.303 L1842.12 136.303 L1842.12 140.331 Q1843.58 137.946 1845.62 136.812 Q1847.65 135.678 1850.46 135.678 Q1853.28 135.678 1855.25 137.113 Q1857.24 138.548 1858.19 141.28 Z" fill="#000000" fill-rule="nonzero" fill-opacity="1" /><path clip-path="url(#clip360)" d="M1888.3 158.34 L1888.3 172.09 L1884.02 172.09 L1884.02 136.303 L1888.3 136.303 L1888.3 140.238 Q1889.65 137.923 1891.68 136.812 Q1893.74 135.678 1896.59 135.678 Q1901.31 135.678 1904.25 139.428 Q1907.21 143.178 1907.21 149.289 Q1907.21 155.4 1904.25 159.15 Q1901.31 162.9 1896.59 162.9 Q1893.74 162.9 1891.68 161.789 Q1889.65 160.655 1888.3 158.34 M1902.79 149.289 Q1902.79 144.59 1900.85 141.928 Q1898.93 139.243 1895.55 139.243 Q1892.17 139.243 1890.22 141.928 Q1888.3 144.59 1888.3 149.289 Q1888.3 153.988 1890.22 156.673 Q1892.17 159.335 1895.55 159.335 Q1898.93 159.335 1900.85 156.673 Q1902.79 153.988 1902.79 149.289 Z" fill="#000000" fill-rule="nonzero" fill-opacity="1" /><path clip-path="url(#clip360)" d="M1913.84 151.997 L1913.84 136.303 L1918.09 136.303 L1918.09 151.835 Q1918.09 155.516 1919.53 157.368 Q1920.96 159.196 1923.84 159.196 Q1927.28 159.196 1929.27 156.997 Q1931.29 154.798 1931.29 151.002 L1931.29 136.303 L1935.55 136.303 L1935.55 162.229 L1931.29 162.229 L1931.29 158.247 Q1929.74 160.608 1927.68 161.766 Q1925.64 162.9 1922.93 162.9 Q1918.46 162.9 1916.15 160.122 Q1913.84 157.344 1913.84 151.997 M1924.55 135.678 L1924.55 135.678 Z" fill="#000000" fill-rule="nonzero" fill-opacity="1" /><path clip-path="url(#clip360)" d="M1948.53 128.942 L1948.53 136.303 L1957.31 136.303 L1957.31 139.613 L1948.53 139.613 L1948.53 153.687 Q1948.53 156.858 1949.39 157.761 Q1950.27 158.664 1952.93 158.664 L1957.31 158.664 L1957.31 162.229 L1952.93 162.229 Q1948 162.229 1946.13 160.4 Q1944.25 158.548 1944.25 153.687 L1944.25 139.613 L1941.13 139.613 L1941.13 136.303 L1944.25 136.303 L1944.25 128.942 L1948.53 128.942 Z" fill="#000000" fill-rule="nonzero" fill-opacity="1" /><path clip-path="url(#clip360)" d="M1985.08 148.201 L1985.08 150.284 L1965.5 150.284 Q1965.78 154.682 1968.14 156.997 Q1970.52 159.289 1974.76 159.289 Q1977.21 159.289 1979.51 158.687 Q1981.82 158.085 1984.09 156.881 L1984.09 160.909 Q1981.8 161.881 1979.39 162.391 Q1976.98 162.9 1974.51 162.9 Q1968.3 162.9 1964.67 159.289 Q1961.06 155.678 1961.06 149.52 Q1961.06 143.155 1964.48 139.428 Q1967.93 135.678 1973.77 135.678 Q1979 135.678 1982.03 139.057 Q1985.08 142.414 1985.08 148.201 M1980.83 146.951 Q1980.78 143.456 1978.86 141.372 Q1976.96 139.289 1973.81 139.289 Q1970.25 139.289 1968.09 141.303 Q1965.96 143.317 1965.64 146.974 L1980.83 146.951 Z" fill="#000000" fill-rule="nonzero" fill-opacity="1" /><path clip-path="url(#clip360)" d="M2009.14 140.238 L2009.14 126.21 L2013.39 126.21 L2013.39 162.229 L2009.14 162.229 L2009.14 158.34 Q2007.79 160.655 2005.73 161.789 Q2003.7 162.9 2000.83 162.9 Q1996.13 162.9 1993.16 159.15 Q1990.22 155.4 1990.22 149.289 Q1990.22 143.178 1993.16 139.428 Q1996.13 135.678 2000.83 135.678 Q2003.7 135.678 2005.73 136.812 Q2007.79 137.923 2009.14 140.238 M1994.62 149.289 Q1994.62 153.988 1996.54 156.673 Q1998.49 159.335 2001.87 159.335 Q2005.25 159.335 2007.19 156.673 Q2009.14 153.988 2009.14 149.289 Q2009.14 144.59 2007.19 141.928 Q2005.25 139.243 2001.87 139.243 Q1998.49 139.243 1996.54 141.928 Q1994.62 144.59 1994.62 149.289 Z" fill="#000000" fill-rule="nonzero" fill-opacity="1" /><circle clip-path="url(#clip360)" cx="1678.64" cy="196.789" r="20.48" fill="#ffffff" fill-rule="evenodd" fill-opacity="1" stroke="#000000" stroke-opacity="1" stroke-width="4.55111"/>
<path clip-path="url(#clip360)" d="M1790.11 182.68 Q1785.02 182.68 1782.01 186.476 Q1779.02 190.272 1779.02 196.823 Q1779.02 203.351 1782.01 207.147 Q1785.02 210.944 1790.11 210.944 Q1795.2 210.944 1798.16 207.147 Q1801.15 203.351 1801.15 196.823 Q1801.15 190.272 1798.16 186.476 Q1795.2 182.68 1790.11 182.68 M1790.11 178.884 Q1797.38 178.884 1801.73 183.768 Q1806.08 188.629 1806.08 196.823 Q1806.08 204.995 1801.73 209.879 Q1797.38 214.74 1790.11 214.74 Q1782.82 214.74 1778.44 209.879 Q1774.09 205.018 1774.09 196.823 Q1774.09 188.629 1778.44 183.768 Q1782.82 178.884 1790.11 178.884 Z" fill="#000000" fill-rule="nonzero" fill-opacity="1" /><path clip-path="url(#clip360)" d="M1831.82 201.129 Q1831.82 196.43 1829.88 193.768 Q1827.96 191.083 1824.58 191.083 Q1821.2 191.083 1819.25 193.768 Q1817.33 196.43 1817.33 201.129 Q1817.33 205.828 1819.25 208.513 Q1821.2 211.175 1824.58 211.175 Q1827.96 211.175 1829.88 208.513 Q1831.82 205.828 1831.82 201.129 M1817.33 192.078 Q1818.67 189.763 1820.71 188.652 Q1822.77 187.518 1825.62 187.518 Q1830.34 187.518 1833.28 191.268 Q1836.24 195.018 1836.24 201.129 Q1836.24 207.24 1833.28 210.99 Q1830.34 214.74 1825.62 214.74 Q1822.77 214.74 1820.71 213.629 Q1818.67 212.495 1817.33 210.18 L1817.33 214.069 L1813.05 214.069 L1813.05 178.05 L1817.33 178.05 L1817.33 192.078 Z" fill="#000000" fill-rule="nonzero" fill-opacity="1" /><path clip-path="url(#clip360)" d="M1859.83 188.907 L1859.83 192.934 Q1858.03 192.009 1856.08 191.546 Q1854.14 191.083 1852.05 191.083 Q1848.88 191.083 1847.28 192.055 Q1845.71 193.027 1845.71 194.971 Q1845.71 196.453 1846.84 197.309 Q1847.98 198.143 1851.4 198.907 L1852.86 199.231 Q1857.4 200.203 1859.3 201.985 Q1861.22 203.745 1861.22 206.916 Q1861.22 210.527 1858.35 212.633 Q1855.5 214.74 1850.5 214.74 Q1848.42 214.74 1846.15 214.323 Q1843.9 213.93 1841.4 213.12 L1841.4 208.721 Q1843.77 209.948 1846.06 210.573 Q1848.35 211.175 1850.59 211.175 Q1853.6 211.175 1855.22 210.157 Q1856.84 209.115 1856.84 207.24 Q1856.84 205.504 1855.66 204.578 Q1854.51 203.652 1850.55 202.796 L1849.07 202.448 Q1845.11 201.615 1843.35 199.902 Q1841.59 198.166 1841.59 195.157 Q1841.59 191.499 1844.18 189.509 Q1846.78 187.518 1851.54 187.518 Q1853.9 187.518 1855.99 187.865 Q1858.07 188.212 1859.83 188.907 Z" fill="#000000" fill-rule="nonzero" fill-opacity="1" /><path clip-path="url(#clip360)" d="M1890.18 200.041 L1890.18 202.124 L1870.59 202.124 Q1870.87 206.522 1873.23 208.837 Q1875.62 211.129 1879.85 211.129 Q1882.31 211.129 1884.6 210.527 Q1886.91 209.925 1889.18 208.721 L1889.18 212.749 Q1886.89 213.721 1884.48 214.231 Q1882.08 214.74 1879.6 214.74 Q1873.4 214.74 1869.76 211.129 Q1866.15 207.518 1866.15 201.36 Q1866.15 194.995 1869.58 191.268 Q1873.03 187.518 1878.86 187.518 Q1884.09 187.518 1887.12 190.897 Q1890.18 194.254 1890.18 200.041 M1885.92 198.791 Q1885.87 195.296 1883.95 193.212 Q1882.05 191.129 1878.9 191.129 Q1875.34 191.129 1873.19 193.143 Q1871.06 195.157 1870.73 198.814 L1885.92 198.791 Z" fill="#000000" fill-rule="nonzero" fill-opacity="1" /><path clip-path="url(#clip360)" d="M1912.19 192.124 Q1911.47 191.708 1910.62 191.522 Q1909.78 191.314 1908.77 191.314 Q1905.15 191.314 1903.21 193.675 Q1901.29 196.013 1901.29 200.411 L1901.29 214.069 L1897.01 214.069 L1897.01 188.143 L1901.29 188.143 L1901.29 192.171 Q1902.63 189.809 1904.78 188.675 Q1906.94 187.518 1910.02 187.518 Q1910.46 187.518 1910.99 187.587 Q1911.52 187.634 1912.17 187.749 L1912.19 192.124 Z" fill="#000000" fill-rule="nonzero" fill-opacity="1" /><path clip-path="url(#clip360)" d="M1913.6 188.143 L1918.12 188.143 L1926.22 209.902 L1934.32 188.143 L1938.83 188.143 L1929.11 214.069 L1923.33 214.069 L1913.6 188.143 Z" fill="#000000" fill-rule="nonzero" fill-opacity="1" /><path clip-path="url(#clip360)" d="M1966.89 200.041 L1966.89 202.124 L1947.31 202.124 Q1947.58 206.522 1949.95 208.837 Q1952.33 211.129 1956.57 211.129 Q1959.02 211.129 1961.31 210.527 Q1963.63 209.925 1965.89 208.721 L1965.89 212.749 Q1963.6 213.721 1961.2 214.231 Q1958.79 214.74 1956.31 214.74 Q1950.11 214.74 1946.47 211.129 Q1942.86 207.518 1942.86 201.36 Q1942.86 194.995 1946.29 191.268 Q1949.74 187.518 1955.57 187.518 Q1960.8 187.518 1963.83 190.897 Q1966.89 194.254 1966.89 200.041 M1962.63 198.791 Q1962.58 195.296 1960.66 193.212 Q1958.77 191.129 1955.62 191.129 Q1952.05 191.129 1949.9 193.143 Q1947.77 195.157 1947.45 198.814 L1962.63 198.791 Z" fill="#000000" fill-rule="nonzero" fill-opacity="1" /><path clip-path="url(#clip360)" d="M1990.94 192.078 L1990.94 178.05 L1995.2 178.05 L1995.2 214.069 L1990.94 214.069 L1990.94 210.18 Q1989.6 212.495 1987.54 213.629 Q1985.5 214.74 1982.63 214.74 Q1977.93 214.74 1974.97 210.99 Q1972.03 207.24 1972.03 201.129 Q1972.03 195.018 1974.97 191.268 Q1977.93 187.518 1982.63 187.518 Q1985.5 187.518 1987.54 188.652 Q1989.6 189.763 1990.94 192.078 M1976.43 201.129 Q1976.43 205.828 1978.35 208.513 Q1980.29 211.175 1983.67 211.175 Q1987.05 211.175 1989 208.513 Q1990.94 205.828 1990.94 201.129 Q1990.94 196.43 1989 193.768 Q1987.05 191.083 1983.67 191.083 Q1980.29 191.083 1978.35 193.768 Q1976.43 196.43 1976.43 201.129 Z" fill="#000000" fill-rule="nonzero" fill-opacity="1" /><path clip-path="url(#clip360)" d="M2029.27 178.097 Q2026.17 183.421 2024.67 188.629 Q2023.16 193.837 2023.16 199.184 Q2023.16 204.532 2024.67 209.786 Q2026.2 215.018 2029.27 220.319 L2025.57 220.319 Q2022.1 214.879 2020.36 209.624 Q2018.65 204.37 2018.65 199.184 Q2018.65 194.022 2020.36 188.791 Q2022.08 183.56 2025.57 178.097 L2029.27 178.097 Z" fill="#000000" fill-rule="nonzero" fill-opacity="1" /><path clip-path="url(#clip360)" d="M2049.32 201.036 Q2044.16 201.036 2042.17 202.217 Q2040.18 203.397 2040.18 206.245 Q2040.18 208.513 2041.66 209.856 Q2043.16 211.175 2045.73 211.175 Q2049.27 211.175 2051.4 208.675 Q2053.56 206.152 2053.56 201.985 L2053.56 201.036 L2049.32 201.036 M2057.82 199.277 L2057.82 214.069 L2053.56 214.069 L2053.56 210.133 Q2052.1 212.495 2049.92 213.629 Q2047.75 214.74 2044.6 214.74 Q2040.62 214.74 2038.26 212.518 Q2035.92 210.272 2035.92 206.522 Q2035.92 202.147 2038.83 199.925 Q2041.77 197.703 2047.58 197.703 L2053.56 197.703 L2053.56 197.286 Q2053.56 194.347 2051.61 192.749 Q2049.69 191.129 2046.2 191.129 Q2043.97 191.129 2041.87 191.661 Q2039.76 192.194 2037.82 193.259 L2037.82 189.323 Q2040.15 188.421 2042.35 187.981 Q2044.55 187.518 2046.64 187.518 Q2052.26 187.518 2055.04 190.434 Q2057.82 193.351 2057.82 199.277 Z" fill="#000000" fill-rule="nonzero" fill-opacity="1" /><path clip-path="url(#clip360)" d="M2083.12 188.907 L2083.12 192.934 Q2081.31 192.009 2079.37 191.546 Q2077.42 191.083 2075.34 191.083 Q2072.17 191.083 2070.57 192.055 Q2069 193.027 2069 194.971 Q2069 196.453 2070.13 197.309 Q2071.26 198.143 2074.69 198.907 L2076.15 199.231 Q2080.69 200.203 2082.58 201.985 Q2084.51 203.745 2084.51 206.916 Q2084.51 210.527 2081.64 212.633 Q2078.79 214.74 2073.79 214.74 Q2071.7 214.74 2069.44 214.323 Q2067.19 213.93 2064.69 213.12 L2064.69 208.721 Q2067.05 209.948 2069.34 210.573 Q2071.64 211.175 2073.88 211.175 Q2076.89 211.175 2078.51 210.157 Q2080.13 209.115 2080.13 207.24 Q2080.13 205.504 2078.95 204.578 Q2077.79 203.652 2073.83 202.796 L2072.35 202.448 Q2068.39 201.615 2066.64 199.902 Q2064.88 198.166 2064.88 195.157 Q2064.88 191.499 2067.47 189.509 Q2070.06 187.518 2074.83 187.518 Q2077.19 187.518 2079.27 187.865 Q2081.36 188.212 2083.12 188.907 Z" fill="#000000" fill-rule="nonzero" fill-opacity="1" /><path clip-path="url(#clip360)" d="M2091.13 178.05 L2095.41 178.05 L2095.41 199.323 L2108.12 188.143 L2113.56 188.143 L2099.81 200.272 L2114.13 214.069 L2108.58 214.069 L2095.41 201.407 L2095.41 214.069 L2091.13 214.069 L2091.13 178.05 Z" fill="#000000" fill-rule="nonzero" fill-opacity="1" /><path clip-path="url(#clip360)" d="M2118.07 178.097 L2121.77 178.097 Q2125.25 183.56 2126.96 188.791 Q2128.7 194.022 2128.7 199.184 Q2128.7 204.37 2126.96 209.624 Q2125.25 214.879 2121.77 220.319 L2118.07 220.319 Q2121.15 215.018 2122.65 209.786 Q2124.18 204.532 2124.18 199.184 Q2124.18 193.837 2122.65 188.629 Q2121.15 183.421 2118.07 178.097 Z" fill="#000000" fill-rule="nonzero" fill-opacity="1" /><polyline clip-path="url(#clip360)" style="stroke:#ff0000; stroke-linecap:round; stroke-linejoin:round; stroke-width:8; stroke-opacity:1; fill:none" stroke-dasharray="32, 20" points="1607.05,248.629 1750.23,248.629 "/>
<path clip-path="url(#clip360)" d="M1778.77 235.191 L1778.77 248.177 L1784.65 248.177 Q1787.91 248.177 1789.69 246.487 Q1791.47 244.798 1791.47 241.673 Q1791.47 238.571 1789.69 236.881 Q1787.91 235.191 1784.65 235.191 L1778.77 235.191 M1774.09 231.349 L1784.65 231.349 Q1790.46 231.349 1793.42 233.987 Q1796.41 236.603 1796.41 241.673 Q1796.41 246.788 1793.42 249.404 Q1790.46 252.02 1784.65 252.02 L1778.77 252.02 L1778.77 265.909 L1774.09 265.909 L1774.09 231.349 Z" fill="#000000" fill-rule="nonzero" fill-opacity="1" /><path clip-path="url(#clip360)" d="M1812.15 252.876 Q1806.98 252.876 1804.99 254.057 Q1803 255.237 1803 258.085 Q1803 260.353 1804.48 261.696 Q1805.99 263.015 1808.56 263.015 Q1812.1 263.015 1814.23 260.515 Q1816.38 257.992 1816.38 253.825 L1816.38 252.876 L1812.15 252.876 M1820.64 251.117 L1820.64 265.909 L1816.38 265.909 L1816.38 261.973 Q1814.92 264.335 1812.75 265.469 Q1810.57 266.58 1807.42 266.58 Q1803.44 266.58 1801.08 264.358 Q1798.74 262.112 1798.74 258.362 Q1798.74 253.987 1801.66 251.765 Q1804.6 249.543 1810.41 249.543 L1816.38 249.543 L1816.38 249.126 Q1816.38 246.187 1814.44 244.589 Q1812.52 242.969 1809.02 242.969 Q1806.8 242.969 1804.69 243.501 Q1802.59 244.034 1800.64 245.099 L1800.64 241.163 Q1802.98 240.261 1805.18 239.821 Q1807.38 239.358 1809.46 239.358 Q1815.09 239.358 1817.86 242.274 Q1820.64 245.191 1820.64 251.117 Z" fill="#000000" fill-rule="nonzero" fill-opacity="1" /><path clip-path="url(#clip360)" d="M1840.2 268.316 Q1838.4 272.946 1836.68 274.358 Q1834.97 275.77 1832.1 275.77 L1828.7 275.77 L1828.7 272.205 L1831.2 272.205 Q1832.96 272.205 1833.93 271.372 Q1834.9 270.538 1836.08 267.436 L1836.84 265.492 L1826.36 239.983 L1830.87 239.983 L1838.97 260.261 L1847.08 239.983 L1851.59 239.983 L1840.2 268.316 Z" fill="#000000" fill-rule="nonzero" fill-opacity="1" /><path clip-path="url(#clip360)" d="M1867.52 242.969 Q1864.09 242.969 1862.1 245.654 Q1860.11 248.316 1860.11 252.969 Q1860.11 257.622 1862.08 260.307 Q1864.07 262.969 1867.52 262.969 Q1870.92 262.969 1872.91 260.284 Q1874.9 257.598 1874.9 252.969 Q1874.9 248.362 1872.91 245.677 Q1870.92 242.969 1867.52 242.969 M1867.52 239.358 Q1873.07 239.358 1876.24 242.969 Q1879.41 246.58 1879.41 252.969 Q1879.41 259.335 1876.24 262.969 Q1873.07 266.58 1867.52 266.58 Q1861.94 266.58 1858.77 262.969 Q1855.62 259.335 1855.62 252.969 Q1855.62 246.58 1858.77 242.969 Q1861.94 239.358 1867.52 239.358 Z" fill="#000000" fill-rule="nonzero" fill-opacity="1" /><path clip-path="url(#clip360)" d="M1899.6 229.89 L1899.6 233.432 L1895.52 233.432 Q1893.23 233.432 1892.33 234.358 Q1891.45 235.284 1891.45 237.691 L1891.45 239.983 L1898.46 239.983 L1898.46 243.293 L1891.45 243.293 L1891.45 265.909 L1887.17 265.909 L1887.17 243.293 L1883.09 243.293 L1883.09 239.983 L1887.17 239.983 L1887.17 238.177 Q1887.17 233.849 1889.18 231.881 Q1891.2 229.89 1895.57 229.89 L1899.6 229.89 Z" fill="#000000" fill-rule="nonzero" fill-opacity="1" /><path clip-path="url(#clip360)" d="M1916.29 229.89 L1916.29 233.432 L1912.21 233.432 Q1909.92 233.432 1909.02 234.358 Q1908.14 235.284 1908.14 237.691 L1908.14 239.983 L1915.15 239.983 L1915.15 243.293 L1908.14 243.293 L1908.14 265.909 L1903.86 265.909 L1903.86 243.293 L1899.78 243.293 L1899.78 239.983 L1903.86 239.983 L1903.86 238.177 Q1903.86 233.849 1905.87 231.881 Q1907.89 229.89 1912.26 229.89 L1916.29 229.89 Z" fill="#000000" fill-rule="nonzero" fill-opacity="1" /><path clip-path="url(#clip360)" d="M1945.15 229.937 Q1942.05 235.261 1940.55 240.469 Q1939.04 245.677 1939.04 251.024 Q1939.04 256.372 1940.55 261.626 Q1942.08 266.858 1945.15 272.159 L1941.45 272.159 Q1937.98 266.719 1936.24 261.464 Q1934.53 256.21 1934.53 251.024 Q1934.53 245.862 1936.24 240.631 Q1937.96 235.4 1941.45 229.937 L1945.15 229.937 Z" fill="#000000" fill-rule="nonzero" fill-opacity="1" /><path clip-path="url(#clip360)" d="M1953.42 239.983 L1957.68 239.983 L1957.68 265.909 L1953.42 265.909 L1953.42 239.983 M1953.42 229.89 L1957.68 229.89 L1957.68 235.284 L1953.42 235.284 L1953.42 229.89 Z" fill="#000000" fill-rule="nonzero" fill-opacity="1" /><path clip-path="url(#clip360)" d="M1988.14 250.261 L1988.14 265.909 L1983.88 265.909 L1983.88 250.399 Q1983.88 246.719 1982.45 244.89 Q1981.01 243.062 1978.14 243.062 Q1974.69 243.062 1972.7 245.261 Q1970.71 247.46 1970.71 251.256 L1970.71 265.909 L1966.43 265.909 L1966.43 239.983 L1970.71 239.983 L1970.71 244.011 Q1972.24 241.673 1974.3 240.515 Q1976.38 239.358 1979.09 239.358 Q1983.56 239.358 1985.85 242.136 Q1988.14 244.89 1988.14 250.261 Z" fill="#000000" fill-rule="nonzero" fill-opacity="1" /><path clip-path="url(#clip360)" d="M2000.85 232.622 L2000.85 239.983 L2009.62 239.983 L2009.62 243.293 L2000.85 243.293 L2000.85 257.367 Q2000.85 260.538 2001.7 261.441 Q2002.58 262.344 2005.25 262.344 L2009.62 262.344 L2009.62 265.909 L2005.25 265.909 Q2000.32 265.909 1998.44 264.08 Q1996.57 262.228 1996.57 257.367 L1996.57 243.293 L1993.44 243.293 L1993.44 239.983 L1996.57 239.983 L1996.57 232.622 L2000.85 232.622 Z" fill="#000000" fill-rule="nonzero" fill-opacity="1" /><path clip-path="url(#clip360)" d="M2030.25 243.964 Q2029.53 243.548 2028.67 243.362 Q2027.84 243.154 2026.82 243.154 Q2023.21 243.154 2021.27 245.515 Q2019.34 247.853 2019.34 252.251 L2019.34 265.909 L2015.06 265.909 L2015.06 239.983 L2019.34 239.983 L2019.34 244.011 Q2020.69 241.649 2022.84 240.515 Q2024.99 239.358 2028.07 239.358 Q2028.51 239.358 2029.04 239.427 Q2029.58 239.474 2030.22 239.589 L2030.25 243.964 Z" fill="#000000" fill-rule="nonzero" fill-opacity="1" /><path clip-path="url(#clip360)" d="M2034.71 239.983 L2038.97 239.983 L2038.97 265.909 L2034.71 265.909 L2034.71 239.983 M2034.71 229.89 L2038.97 229.89 L2038.97 235.284 L2034.71 235.284 L2034.71 229.89 Z" fill="#000000" fill-rule="nonzero" fill-opacity="1" /><path clip-path="url(#clip360)" d="M2069.44 250.261 L2069.44 265.909 L2065.18 265.909 L2065.18 250.399 Q2065.18 246.719 2063.74 244.89 Q2062.31 243.062 2059.44 243.062 Q2055.99 243.062 2054 245.261 Q2052.01 247.46 2052.01 251.256 L2052.01 265.909 L2047.72 265.909 L2047.72 239.983 L2052.01 239.983 L2052.01 244.011 Q2053.53 241.673 2055.59 240.515 Q2057.68 239.358 2060.39 239.358 Q2064.85 239.358 2067.14 242.136 Q2069.44 244.89 2069.44 250.261 Z" fill="#000000" fill-rule="nonzero" fill-opacity="1" /><path clip-path="url(#clip360)" d="M2094.46 240.747 L2094.46 244.774 Q2092.65 243.849 2090.71 243.386 Q2088.76 242.923 2086.68 242.923 Q2083.51 242.923 2081.91 243.895 Q2080.34 244.867 2080.34 246.811 Q2080.34 248.293 2081.47 249.149 Q2082.61 249.983 2086.03 250.747 L2087.49 251.071 Q2092.03 252.043 2093.93 253.825 Q2095.85 255.585 2095.85 258.756 Q2095.85 262.367 2092.98 264.473 Q2090.13 266.58 2085.13 266.58 Q2083.05 266.58 2080.78 266.163 Q2078.53 265.77 2076.03 264.96 L2076.03 260.561 Q2078.39 261.788 2080.69 262.413 Q2082.98 263.015 2085.22 263.015 Q2088.23 263.015 2089.85 261.997 Q2091.47 260.955 2091.47 259.08 Q2091.47 257.344 2090.29 256.418 Q2089.14 255.492 2085.18 254.636 L2083.7 254.288 Q2079.74 253.455 2077.98 251.742 Q2076.22 250.006 2076.22 246.997 Q2076.22 243.339 2078.81 241.349 Q2081.4 239.358 2086.17 239.358 Q2088.53 239.358 2090.62 239.705 Q2092.7 240.052 2094.46 240.747 Z" fill="#000000" fill-rule="nonzero" fill-opacity="1" /><path clip-path="url(#clip360)" d="M2102.63 239.983 L2106.89 239.983 L2106.89 265.909 L2102.63 265.909 L2102.63 239.983 M2102.63 229.89 L2106.89 229.89 L2106.89 235.284 L2102.63 235.284 L2102.63 229.89 Z" fill="#000000" fill-rule="nonzero" fill-opacity="1" /><path clip-path="url(#clip360)" d="M2134.46 240.978 L2134.46 244.96 Q2132.65 243.964 2130.82 243.478 Q2129.02 242.969 2127.17 242.969 Q2123.02 242.969 2120.73 245.608 Q2118.44 248.224 2118.44 252.969 Q2118.44 257.714 2120.73 260.353 Q2123.02 262.969 2127.17 262.969 Q2129.02 262.969 2130.82 262.483 Q2132.65 261.973 2134.46 260.978 L2134.46 264.913 Q2132.68 265.747 2130.76 266.163 Q2128.86 266.58 2126.7 266.58 Q2120.85 266.58 2117.4 262.899 Q2113.95 259.219 2113.95 252.969 Q2113.95 246.626 2117.42 242.992 Q2120.92 239.358 2126.98 239.358 Q2128.95 239.358 2130.82 239.775 Q2132.7 240.168 2134.46 240.978 Z" fill="#000000" fill-rule="nonzero" fill-opacity="1" /><path clip-path="url(#clip360)" d="M2141.19 229.937 L2144.9 229.937 Q2148.37 235.4 2150.08 240.631 Q2151.82 245.862 2151.82 251.024 Q2151.82 256.21 2150.08 261.464 Q2148.37 266.719 2144.9 272.159 L2141.19 272.159 Q2144.27 266.858 2145.78 261.626 Q2147.31 256.372 2147.31 251.024 Q2147.31 245.677 2145.78 240.469 Q2144.27 235.261 2141.19 229.937 Z" fill="#000000" fill-rule="nonzero" fill-opacity="1" /><polyline clip-path="url(#clip360)" style="stroke:#333333; stroke-linecap:round; stroke-linejoin:round; stroke-width:4; stroke-opacity:1; fill:none" stroke-dasharray="16, 10" points="1607.05,300.469 1750.23,300.469 "/>
<path clip-path="url(#clip360)" d="M1796.34 284.323 L1796.34 288.883 Q1793.67 287.61 1791.31 286.985 Q1788.95 286.36 1786.75 286.36 Q1782.93 286.36 1780.85 287.841 Q1778.79 289.323 1778.79 292.054 Q1778.79 294.346 1780.16 295.527 Q1781.54 296.684 1785.39 297.402 L1788.21 297.98 Q1793.44 298.976 1795.92 301.499 Q1798.42 303.999 1798.42 308.212 Q1798.42 313.235 1795.04 315.827 Q1791.68 318.42 1785.18 318.42 Q1782.72 318.42 1779.95 317.864 Q1777.19 317.309 1774.23 316.221 L1774.23 311.406 Q1777.08 313.003 1779.81 313.813 Q1782.54 314.624 1785.18 314.624 Q1789.18 314.624 1791.36 313.05 Q1793.53 311.476 1793.53 308.559 Q1793.53 306.013 1791.96 304.577 Q1790.41 303.142 1786.85 302.425 L1784 301.869 Q1778.77 300.827 1776.43 298.605 Q1774.09 296.383 1774.09 292.425 Q1774.09 287.841 1777.31 285.202 Q1780.55 282.564 1786.22 282.564 Q1788.65 282.564 1791.17 283.003 Q1793.7 283.443 1796.34 284.323 Z" fill="#000000" fill-rule="nonzero" fill-opacity="1" /><path clip-path="url(#clip360)" d="M1810.2 304.901 Q1808.05 304.901 1806.78 306.406 Q1805.53 307.888 1805.53 310.503 Q1805.53 313.119 1806.78 314.624 Q1808.03 316.105 1810.2 316.105 Q1812.35 316.105 1813.6 314.6 Q1814.85 313.096 1814.85 310.503 Q1814.85 307.934 1813.6 306.429 Q1812.35 304.901 1810.2 304.901 M1810.2 302.888 Q1813.7 302.888 1815.69 304.901 Q1817.7 306.915 1817.7 310.503 Q1817.7 314.068 1815.69 316.105 Q1813.7 318.119 1810.2 318.119 Q1806.68 318.119 1804.69 316.105 Q1802.7 314.068 1802.7 310.503 Q1802.7 306.915 1804.69 304.901 Q1806.68 302.888 1810.2 302.888 Z" fill="#000000" fill-rule="nonzero" fill-opacity="1" /><path clip-path="url(#clip360)" d="M1840.76 296.221 L1870.43 296.221 L1870.43 300.11 L1840.76 300.11 L1840.76 296.221 M1840.76 305.665 L1870.43 305.665 L1870.43 309.601 L1840.76 309.601 L1840.76 305.665 Z" fill="#000000" fill-rule="nonzero" fill-opacity="1" /><path clip-path="url(#clip360)" d="M1894.41 283.189 L1916.64 283.189 L1916.64 285.179 L1904.09 317.749 L1899.21 317.749 L1911.01 287.124 L1894.41 287.124 L1894.41 283.189 Z" fill="#000000" fill-rule="nonzero" fill-opacity="1" /><path clip-path="url(#clip360)" d="M1925.9 317.031 L1925.9 312.772 Q1927.65 313.605 1929.46 314.045 Q1931.27 314.485 1933 314.485 Q1937.63 314.485 1940.06 311.383 Q1942.52 308.258 1942.86 301.915 Q1941.52 303.906 1939.46 304.971 Q1937.4 306.036 1934.9 306.036 Q1929.71 306.036 1926.68 302.911 Q1923.67 299.763 1923.67 294.323 Q1923.67 288.999 1926.82 285.781 Q1929.97 282.564 1935.2 282.564 Q1941.2 282.564 1944.34 287.17 Q1947.52 291.753 1947.52 300.503 Q1947.52 308.675 1943.63 313.559 Q1939.76 318.42 1933.21 318.42 Q1931.45 318.42 1929.65 318.073 Q1927.84 317.725 1925.9 317.031 M1935.2 302.378 Q1938.35 302.378 1940.18 300.226 Q1942.03 298.073 1942.03 294.323 Q1942.03 290.596 1940.18 288.443 Q1938.35 286.267 1935.2 286.267 Q1932.05 286.267 1930.2 288.443 Q1928.37 290.596 1928.37 294.323 Q1928.37 298.073 1930.2 300.226 Q1932.05 302.378 1935.2 302.378 Z" fill="#000000" fill-rule="nonzero" fill-opacity="1" /><path clip-path="url(#clip360)" d="M1955.92 311.869 L1960.8 311.869 L1960.8 317.749 L1955.92 317.749 L1955.92 311.869 Z" fill="#000000" fill-rule="nonzero" fill-opacity="1" /><path clip-path="url(#clip360)" d="M1971.03 283.189 L1989.39 283.189 L1989.39 287.124 L1975.32 287.124 L1975.32 295.596 Q1976.33 295.249 1977.35 295.087 Q1978.37 294.902 1979.39 294.902 Q1985.18 294.902 1988.56 298.073 Q1991.94 301.244 1991.94 306.661 Q1991.94 312.239 1988.46 315.341 Q1984.99 318.42 1978.67 318.42 Q1976.5 318.42 1974.23 318.05 Q1971.98 317.679 1969.58 316.938 L1969.58 312.239 Q1971.66 313.374 1973.88 313.929 Q1976.1 314.485 1978.58 314.485 Q1982.58 314.485 1984.92 312.378 Q1987.26 310.272 1987.26 306.661 Q1987.26 303.05 1984.92 300.943 Q1982.58 298.837 1978.58 298.837 Q1976.71 298.837 1974.83 299.253 Q1972.98 299.67 1971.03 300.55 L1971.03 283.189 Z" fill="#000000" fill-rule="nonzero" fill-opacity="1" /><path clip-path="url(#clip360)" d="M2015.27 283.189 L2019.97 283.189 L2019.97 304.184 Q2019.97 309.739 2021.98 312.193 Q2024 314.624 2028.51 314.624 Q2033 314.624 2035.01 312.193 Q2037.03 309.739 2037.03 304.184 L2037.03 283.189 L2041.73 283.189 L2041.73 304.763 Q2041.73 311.522 2038.37 314.971 Q2035.04 318.42 2028.51 318.42 Q2021.96 318.42 2018.6 314.971 Q2015.27 311.522 2015.27 304.763 L2015.27 283.189 Z" fill="#000000" fill-rule="nonzero" fill-opacity="1" /><path clip-path="url(#clip360)" d="M2071.22 284.323 L2071.22 288.883 Q2068.56 287.61 2066.2 286.985 Q2063.83 286.36 2061.64 286.36 Q2057.82 286.36 2055.73 287.841 Q2053.67 289.323 2053.67 292.054 Q2053.67 294.346 2055.04 295.527 Q2056.43 296.684 2060.27 297.402 L2063.09 297.98 Q2068.32 298.976 2070.8 301.499 Q2073.3 303.999 2073.3 308.212 Q2073.3 313.235 2069.92 315.827 Q2066.57 318.42 2060.06 318.42 Q2057.61 318.42 2054.83 317.864 Q2052.08 317.309 2049.11 316.221 L2049.11 311.406 Q2051.96 313.003 2054.69 313.813 Q2057.42 314.624 2060.06 314.624 Q2064.07 314.624 2066.24 313.05 Q2068.42 311.476 2068.42 308.559 Q2068.42 306.013 2066.84 304.577 Q2065.29 303.142 2061.73 302.425 L2058.88 301.869 Q2053.65 300.827 2051.31 298.605 Q2048.97 296.383 2048.97 292.425 Q2048.97 287.841 2052.19 285.202 Q2055.43 282.564 2061.1 282.564 Q2063.53 282.564 2066.06 283.003 Q2068.58 283.443 2071.22 284.323 Z" fill="#000000" fill-rule="nonzero" fill-opacity="1" /><path clip-path="url(#clip360)" d="M2085.27 287.031 L2085.27 313.906 L2090.92 313.906 Q2098.07 313.906 2101.38 310.665 Q2104.71 307.425 2104.71 300.434 Q2104.71 293.489 2101.38 290.272 Q2098.07 287.031 2090.92 287.031 L2085.27 287.031 M2080.59 283.189 L2090.2 283.189 Q2100.25 283.189 2104.95 287.378 Q2109.64 291.545 2109.64 300.434 Q2109.64 309.369 2104.92 313.559 Q2100.2 317.749 2090.2 317.749 L2080.59 317.749 L2080.59 283.189 Z" fill="#000000" fill-rule="nonzero" fill-opacity="1" /><path clip-path="url(#clip360)" d="M2124.48 283.189 L2128.42 283.189 L2116.38 322.147 L2112.45 322.147 L2124.48 283.189 Z" fill="#000000" fill-rule="nonzero" fill-opacity="1" /><path clip-path="url(#clip360)" d="M2149.41 292.587 L2149.41 296.614 Q2147.61 295.689 2145.66 295.226 Q2143.72 294.763 2141.63 294.763 Q2138.46 294.763 2136.87 295.735 Q2135.29 296.707 2135.29 298.651 Q2135.29 300.133 2136.43 300.989 Q2137.56 301.823 2140.99 302.587 L2142.44 302.911 Q2146.98 303.883 2148.88 305.665 Q2150.8 307.425 2150.8 310.596 Q2150.8 314.207 2147.93 316.313 Q2145.08 318.42 2140.08 318.42 Q2138 318.42 2135.73 318.003 Q2133.49 317.61 2130.99 316.8 L2130.99 312.401 Q2133.35 313.628 2135.64 314.253 Q2137.93 314.855 2140.18 314.855 Q2143.19 314.855 2144.81 313.837 Q2146.43 312.795 2146.43 310.92 Q2146.43 309.184 2145.25 308.258 Q2144.09 307.332 2140.13 306.476 L2138.65 306.128 Q2134.69 305.295 2132.93 303.582 Q2131.17 301.846 2131.17 298.837 Q2131.17 295.179 2133.76 293.189 Q2136.36 291.198 2141.13 291.198 Q2143.49 291.198 2145.57 291.545 Q2147.65 291.892 2149.41 292.587 Z" fill="#000000" fill-rule="nonzero" fill-opacity="1" /><path clip-path="url(#clip360)" d="M2179.13 302.101 L2179.13 317.749 L2174.88 317.749 L2174.88 302.239 Q2174.88 298.559 2173.44 296.73 Q2172 294.902 2169.13 294.902 Q2165.69 294.902 2163.69 297.101 Q2161.7 299.3 2161.7 303.096 L2161.7 317.749 L2157.42 317.749 L2157.42 281.73 L2161.7 281.73 L2161.7 295.851 Q2163.23 293.513 2165.29 292.355 Q2167.38 291.198 2170.08 291.198 Q2174.55 291.198 2176.84 293.976 Q2179.13 296.73 2179.13 302.101 Z" fill="#000000" fill-rule="nonzero" fill-opacity="1" /><path clip-path="url(#clip360)" d="M2199.41 304.716 Q2194.25 304.716 2192.26 305.897 Q2190.27 307.077 2190.27 309.925 Q2190.27 312.193 2191.75 313.536 Q2193.25 314.855 2195.82 314.855 Q2199.37 314.855 2201.5 312.355 Q2203.65 309.832 2203.65 305.665 L2203.65 304.716 L2199.41 304.716 M2207.91 302.957 L2207.91 317.749 L2203.65 317.749 L2203.65 313.813 Q2202.19 316.175 2200.01 317.309 Q2197.84 318.42 2194.69 318.42 Q2190.71 318.42 2188.35 316.198 Q2186.01 313.952 2186.01 310.202 Q2186.01 305.827 2188.93 303.605 Q2191.87 301.383 2197.68 301.383 L2203.65 301.383 L2203.65 300.966 Q2203.65 298.027 2201.7 296.429 Q2199.78 294.809 2196.29 294.809 Q2194.07 294.809 2191.96 295.341 Q2189.85 295.874 2187.91 296.939 L2187.91 293.003 Q2190.25 292.101 2192.44 291.661 Q2194.64 291.198 2196.73 291.198 Q2202.35 291.198 2205.13 294.114 Q2207.91 297.031 2207.91 302.957 Z" fill="#000000" fill-rule="nonzero" fill-opacity="1" /><path clip-path="url(#clip360)" d="M2231.7 295.804 Q2230.99 295.388 2230.13 295.202 Q2229.3 294.994 2228.28 294.994 Q2224.67 294.994 2222.72 297.355 Q2220.8 299.693 2220.8 304.091 L2220.8 317.749 L2216.52 317.749 L2216.52 291.823 L2220.8 291.823 L2220.8 295.851 Q2222.14 293.489 2224.3 292.355 Q2226.45 291.198 2229.53 291.198 Q2229.97 291.198 2230.5 291.267 Q2231.03 291.314 2231.68 291.429 L2231.7 295.804 Z" fill="#000000" fill-rule="nonzero" fill-opacity="1" /><path clip-path="url(#clip360)" d="M2257.31 303.721 L2257.31 305.804 L2237.72 305.804 Q2238 310.202 2240.36 312.517 Q2242.75 314.809 2246.98 314.809 Q2249.44 314.809 2251.73 314.207 Q2254.04 313.605 2256.31 312.401 L2256.31 316.429 Q2254.02 317.401 2251.61 317.911 Q2249.2 318.42 2246.73 318.42 Q2240.52 318.42 2236.89 314.809 Q2233.28 311.198 2233.28 305.04 Q2233.28 298.675 2236.7 294.948 Q2240.15 291.198 2245.99 291.198 Q2251.22 291.198 2254.25 294.577 Q2257.31 297.934 2257.31 303.721 M2253.05 302.471 Q2253 298.976 2251.08 296.892 Q2249.18 294.809 2246.03 294.809 Q2242.47 294.809 2240.31 296.823 Q2238.19 298.837 2237.86 302.494 L2253.05 302.471 Z" fill="#000000" fill-rule="nonzero" fill-opacity="1" /></svg>
