<?xml version="1.0" encoding="utf-8"?>
<svg xmlns="http://www.w3.org/2000/svg" xmlns:xlink="http://www.w3.org/1999/xlink" width="600" height="400" viewBox="0 0 2400 1600">
<defs>
  <clipPath id="clip250">
    <rect x="0" y="0" width="2400" height="1600"/>
  </clipPath>
</defs>
<path clip-path="url(#clip250)" d="M0 1600 L2400 1600 L2400 8.88178e-14 L0 8.88178e-14  Z" fill="#000000" fill-rule="evenodd" fill-opacity="1"/>
<defs>
  <clipPath id="clip251">
    <rect x="480" y="0" width="1681" height="1600"/>
  </clipPath>
</defs>
<path clip-path="url(#clip250)" d="M262.551 1423.18 L2352.76 1423.18 L2352.76 47.2441 L262.551 47.2441  Z" fill="#30343b" fill-rule="evenodd" fill-opacity="1"/>
<defs>
  <clipPath id="clip252">
    <rect x="262" y="47" width="2091" height="1377"/>
  </clipPath>
</defs>
<polyline clip-path="url(#clip252)" style="stroke:#ffffff; stroke-linecap:round; stroke-linejoin:round; stroke-width:2; stroke-opacity:0.1; fill:none" points="312.089,1423.18 312.089,47.2441 "/>
<polyline clip-path="url(#clip252)" style="stroke:#ffffff; stroke-linecap:round; stroke-linejoin:round; stroke-width:2; stroke-opacity:0.1; fill:none" points="793.038,1423.18 793.038,47.2441 "/>
<polyline clip-path="url(#clip252)" style="stroke:#ffffff; stroke-linecap:round; stroke-linejoin:round; stroke-width:2; stroke-opacity:0.1; fill:none" points="1273.99,1423.18 1273.99,47.2441 "/>
<polyline clip-path="url(#clip252)" style="stroke:#ffffff; stroke-linecap:round; stroke-linejoin:round; stroke-width:2; stroke-opacity:0.1; fill:none" points="1754.94,1423.18 1754.94,47.2441 "/>
<polyline clip-path="url(#clip252)" style="stroke:#ffffff; stroke-linecap:round; stroke-linejoin:round; stroke-width:2; stroke-opacity:0.1; fill:none" points="2235.89,1423.18 2235.89,47.2441 "/>
<polyline clip-path="url(#clip252)" style="stroke:#ffffff; stroke-linecap:round; stroke-linejoin:round; stroke-width:2; stroke-opacity:0.1; fill:none" points="312.089,1423.18 312.089,47.2441 "/>
<polyline clip-path="url(#clip252)" style="stroke:#ffffff; stroke-linecap:round; stroke-linejoin:round; stroke-width:2; stroke-opacity:0.1; fill:none" points="793.038,1423.18 793.038,47.2441 "/>
<polyline clip-path="url(#clip252)" style="stroke:#ffffff; stroke-linecap:round; stroke-linejoin:round; stroke-width:2; stroke-opacity:0.1; fill:none" points="1273.99,1423.18 1273.99,47.2441 "/>
<polyline clip-path="url(#clip252)" style="stroke:#ffffff; stroke-linecap:round; stroke-linejoin:round; stroke-width:2; stroke-opacity:0.1; fill:none" points="1754.94,1423.18 1754.94,47.2441 "/>
<polyline clip-path="url(#clip252)" style="stroke:#ffffff; stroke-linecap:round; stroke-linejoin:round; stroke-width:2; stroke-opacity:0.1; fill:none" points="2235.89,1423.18 2235.89,47.2441 "/>
<polyline clip-path="url(#clip252)" style="stroke:#ffffff; stroke-linecap:round; stroke-linejoin:round; stroke-width:2; stroke-opacity:0.1; fill:none" points="262.551,1306.81 2352.76,1306.81 "/>
<polyline clip-path="url(#clip252)" style="stroke:#ffffff; stroke-linecap:round; stroke-linejoin:round; stroke-width:2; stroke-opacity:0.1; fill:none" points="262.551,1056 2352.76,1056 "/>
<polyline clip-path="url(#clip252)" style="stroke:#ffffff; stroke-linecap:round; stroke-linejoin:round; stroke-width:2; stroke-opacity:0.1; fill:none" points="262.551,805.196 2352.76,805.196 "/>
<polyline clip-path="url(#clip252)" style="stroke:#ffffff; stroke-linecap:round; stroke-linejoin:round; stroke-width:2; stroke-opacity:0.1; fill:none" points="262.551,554.391 2352.76,554.391 "/>
<polyline clip-path="url(#clip252)" style="stroke:#ffffff; stroke-linecap:round; stroke-linejoin:round; stroke-width:2; stroke-opacity:0.1; fill:none" points="262.551,303.586 2352.76,303.586 "/>
<polyline clip-path="url(#clip252)" style="stroke:#ffffff; stroke-linecap:round; stroke-linejoin:round; stroke-width:2; stroke-opacity:0.1; fill:none" points="262.551,52.7811 2352.76,52.7811 "/>
<polyline clip-path="url(#clip252)" style="stroke:#ffffff; stroke-linecap:round; stroke-linejoin:round; stroke-width:2; stroke-opacity:0.1; fill:none" points="262.551,1306.81 2352.76,1306.81 "/>
<polyline clip-path="url(#clip252)" style="stroke:#ffffff; stroke-linecap:round; stroke-linejoin:round; stroke-width:2; stroke-opacity:0.1; fill:none" points="262.551,1056 2352.76,1056 "/>
<polyline clip-path="url(#clip252)" style="stroke:#ffffff; stroke-linecap:round; stroke-linejoin:round; stroke-width:2; stroke-opacity:0.1; fill:none" points="262.551,805.196 2352.76,805.196 "/>
<polyline clip-path="url(#clip252)" style="stroke:#ffffff; stroke-linecap:round; stroke-linejoin:round; stroke-width:2; stroke-opacity:0.1; fill:none" points="262.551,554.391 2352.76,554.391 "/>
<polyline clip-path="url(#clip252)" style="stroke:#ffffff; stroke-linecap:round; stroke-linejoin:round; stroke-width:2; stroke-opacity:0.1; fill:none" points="262.551,303.586 2352.76,303.586 "/>
<polyline clip-path="url(#clip252)" style="stroke:#ffffff; stroke-linecap:round; stroke-linejoin:round; stroke-width:2; stroke-opacity:0.1; fill:none" points="262.551,52.7811 2352.76,52.7811 "/>
<polyline clip-path="url(#clip250)" style="stroke:#ffffff; stroke-linecap:round; stroke-linejoin:round; stroke-width:4; stroke-opacity:1; fill:none" points="262.551,1423.18 2352.76,1423.18 "/>
<polyline clip-path="url(#clip250)" style="stroke:#ffffff; stroke-linecap:round; stroke-linejoin:round; stroke-width:4; stroke-opacity:1; fill:none" points="262.551,47.2441 2352.76,47.2441 "/>
<polyline clip-path="url(#clip250)" style="stroke:#ffffff; stroke-linecap:round; stroke-linejoin:round; stroke-width:4; stroke-opacity:1; fill:none" points="312.089,1423.18 312.089,1404.28 "/>
<polyline clip-path="url(#clip250)" style="stroke:#ffffff; stroke-linecap:round; stroke-linejoin:round; stroke-width:4; stroke-opacity:1; fill:none" points="793.038,1423.18 793.038,1404.28 "/>
<polyline clip-path="url(#clip250)" style="stroke:#ffffff; stroke-linecap:round; stroke-linejoin:round; stroke-width:4; stroke-opacity:1; fill:none" points="1273.99,1423.18 1273.99,1404.28 "/>
<polyline clip-path="url(#clip250)" style="stroke:#ffffff; stroke-linecap:round; stroke-linejoin:round; stroke-width:4; stroke-opacity:1; fill:none" points="1754.94,1423.18 1754.94,1404.28 "/>
<polyline clip-path="url(#clip250)" style="stroke:#ffffff; stroke-linecap:round; stroke-linejoin:round; stroke-width:4; stroke-opacity:1; fill:none" points="2235.89,1423.18 2235.89,1404.28 "/>
<polyline clip-path="url(#clip250)" style="stroke:#ffffff; stroke-linecap:round; stroke-linejoin:round; stroke-width:4; stroke-opacity:1; fill:none" points="312.089,47.2441 312.089,66.1417 "/>
<polyline clip-path="url(#clip250)" style="stroke:#ffffff; stroke-linecap:round; stroke-linejoin:round; stroke-width:4; stroke-opacity:1; fill:none" points="793.038,47.2441 793.038,66.1417 "/>
<polyline clip-path="url(#clip250)" style="stroke:#ffffff; stroke-linecap:round; stroke-linejoin:round; stroke-width:4; stroke-opacity:1; fill:none" points="1273.99,47.2441 1273.99,66.1417 "/>
<polyline clip-path="url(#clip250)" style="stroke:#ffffff; stroke-linecap:round; stroke-linejoin:round; stroke-width:4; stroke-opacity:1; fill:none" points="1754.94,47.2441 1754.94,66.1417 "/>
<polyline clip-path="url(#clip250)" style="stroke:#ffffff; stroke-linecap:round; stroke-linejoin:round; stroke-width:4; stroke-opacity:1; fill:none" points="2235.89,47.2441 2235.89,66.1417 "/>
<path clip-path="url(#clip250)" d="M312.089 1454.1 Q308.478 1454.1 306.649 1457.66 Q304.844 1461.2 304.844 1468.33 Q304.844 1475.44 306.649 1479.01 Q308.478 1482.55 312.089 1482.55 Q315.723 1482.55 317.529 1479.01 Q319.357 1475.44 319.357 1468.33 Q319.357 1461.2 317.529 1457.66 Q315.723 1454.1 312.089 1454.1 M312.089 1450.39 Q317.899 1450.39 320.955 1455 Q324.033 1459.58 324.033 1468.33 Q324.033 1477.06 320.955 1481.67 Q317.899 1486.25 312.089 1486.25 Q306.279 1486.25 303.2 1481.67 Q300.145 1477.06 300.145 1468.33 Q300.145 1459.58 303.2 1455 Q306.279 1450.39 312.089 1450.39 Z" fill="#ffffff" fill-rule="nonzero" fill-opacity="1" /><path clip-path="url(#clip250)" d="M767.737 1451.02 L786.094 1451.02 L786.094 1454.96 L772.02 1454.96 L772.02 1463.43 Q773.038 1463.08 774.057 1462.92 Q775.075 1462.73 776.094 1462.73 Q781.881 1462.73 785.26 1465.9 Q788.64 1469.08 788.64 1474.49 Q788.64 1480.07 785.168 1483.17 Q781.696 1486.25 775.376 1486.25 Q773.2 1486.25 770.932 1485.88 Q768.686 1485.51 766.279 1484.77 L766.279 1480.07 Q768.362 1481.2 770.584 1481.76 Q772.807 1482.32 775.284 1482.32 Q779.288 1482.32 781.626 1480.21 Q783.964 1478.1 783.964 1474.49 Q783.964 1470.88 781.626 1468.77 Q779.288 1466.67 775.284 1466.67 Q773.409 1466.67 771.534 1467.08 Q769.682 1467.5 767.737 1468.38 L767.737 1451.02 Z" fill="#ffffff" fill-rule="nonzero" fill-opacity="1" /><path clip-path="url(#clip250)" d="M807.853 1454.1 Q804.242 1454.1 802.413 1457.66 Q800.607 1461.2 800.607 1468.33 Q800.607 1475.44 802.413 1479.01 Q804.242 1482.55 807.853 1482.55 Q811.487 1482.55 813.293 1479.01 Q815.121 1475.44 815.121 1468.33 Q815.121 1461.2 813.293 1457.66 Q811.487 1454.1 807.853 1454.1 M807.853 1450.39 Q813.663 1450.39 816.718 1455 Q819.797 1459.58 819.797 1468.33 Q819.797 1477.06 816.718 1481.67 Q813.663 1486.25 807.853 1486.25 Q802.043 1486.25 798.964 1481.67 Q795.908 1477.06 795.908 1468.33 Q795.908 1459.58 798.964 1455 Q802.043 1450.39 807.853 1450.39 Z" fill="#ffffff" fill-rule="nonzero" fill-opacity="1" /><path clip-path="url(#clip250)" d="M1233.59 1481.64 L1241.23 1481.64 L1241.23 1455.28 L1232.92 1456.95 L1232.92 1452.69 L1241.19 1451.02 L1245.86 1451.02 L1245.86 1481.64 L1253.5 1481.64 L1253.5 1485.58 L1233.59 1485.58 L1233.59 1481.64 Z" fill="#ffffff" fill-rule="nonzero" fill-opacity="1" /><path clip-path="url(#clip250)" d="M1272.95 1454.1 Q1269.33 1454.1 1267.51 1457.66 Q1265.7 1461.2 1265.7 1468.33 Q1265.7 1475.44 1267.51 1479.01 Q1269.33 1482.55 1272.95 1482.55 Q1276.58 1482.55 1278.39 1479.01 Q1280.21 1475.44 1280.21 1468.33 Q1280.21 1461.2 1278.39 1457.66 Q1276.58 1454.1 1272.95 1454.1 M1272.95 1450.39 Q1278.76 1450.39 1281.81 1455 Q1284.89 1459.58 1284.89 1468.33 Q1284.89 1477.06 1281.81 1481.67 Q1278.76 1486.25 1272.95 1486.25 Q1267.14 1486.25 1264.06 1481.67 Q1261 1477.06 1261 1468.33 Q1261 1459.58 1264.06 1455 Q1267.14 1450.39 1272.95 1450.39 Z" fill="#ffffff" fill-rule="nonzero" fill-opacity="1" /><path clip-path="url(#clip250)" d="M1303.11 1454.1 Q1299.5 1454.1 1297.67 1457.66 Q1295.86 1461.2 1295.86 1468.33 Q1295.86 1475.44 1297.67 1479.01 Q1299.5 1482.55 1303.11 1482.55 Q1306.74 1482.55 1308.55 1479.01 Q1310.38 1475.44 1310.38 1468.33 Q1310.38 1461.2 1308.55 1457.66 Q1306.74 1454.1 1303.11 1454.1 M1303.11 1450.39 Q1308.92 1450.39 1311.97 1455 Q1315.05 1459.58 1315.05 1468.33 Q1315.05 1477.06 1311.97 1481.67 Q1308.92 1486.25 1303.11 1486.25 Q1297.3 1486.25 1294.22 1481.67 Q1291.16 1477.06 1291.16 1468.33 Q1291.16 1459.58 1294.22 1455 Q1297.3 1450.39 1303.11 1450.39 Z" fill="#ffffff" fill-rule="nonzero" fill-opacity="1" /><path clip-path="url(#clip250)" d="M1714.54 1481.64 L1722.18 1481.64 L1722.18 1455.28 L1713.87 1456.95 L1713.87 1452.69 L1722.14 1451.02 L1726.81 1451.02 L1726.81 1481.64 L1734.45 1481.64 L1734.45 1485.58 L1714.54 1485.58 L1714.54 1481.64 Z" fill="#ffffff" fill-rule="nonzero" fill-opacity="1" /><path clip-path="url(#clip250)" d="M1743.94 1451.02 L1762.3 1451.02 L1762.3 1454.96 L1748.22 1454.96 L1748.22 1463.43 Q1749.24 1463.08 1750.26 1462.92 Q1751.28 1462.73 1752.3 1462.73 Q1758.08 1462.73 1761.46 1465.9 Q1764.84 1469.08 1764.84 1474.49 Q1764.84 1480.07 1761.37 1483.17 Q1757.9 1486.25 1751.58 1486.25 Q1749.4 1486.25 1747.14 1485.88 Q1744.89 1485.51 1742.48 1484.77 L1742.48 1480.07 Q1744.57 1481.2 1746.79 1481.76 Q1749.01 1482.32 1751.49 1482.32 Q1755.49 1482.32 1757.83 1480.21 Q1760.17 1478.1 1760.17 1474.49 Q1760.17 1470.88 1757.83 1468.77 Q1755.49 1466.67 1751.49 1466.67 Q1749.61 1466.67 1747.74 1467.08 Q1745.89 1467.5 1743.94 1468.38 L1743.94 1451.02 Z" fill="#ffffff" fill-rule="nonzero" fill-opacity="1" /><path clip-path="url(#clip250)" d="M1784.06 1454.1 Q1780.45 1454.1 1778.62 1457.66 Q1776.81 1461.2 1776.81 1468.33 Q1776.81 1475.44 1778.62 1479.01 Q1780.45 1482.55 1784.06 1482.55 Q1787.69 1482.55 1789.5 1479.01 Q1791.32 1475.44 1791.32 1468.33 Q1791.32 1461.2 1789.5 1457.66 Q1787.69 1454.1 1784.06 1454.1 M1784.06 1450.39 Q1789.87 1450.39 1792.92 1455 Q1796 1459.58 1796 1468.33 Q1796 1477.06 1792.92 1481.67 Q1789.87 1486.25 1784.06 1486.25 Q1778.25 1486.25 1775.17 1481.67 Q1772.11 1477.06 1772.11 1468.33 Q1772.11 1459.58 1775.17 1455 Q1778.25 1450.39 1784.06 1450.39 Z" fill="#ffffff" fill-rule="nonzero" fill-opacity="1" /><path clip-path="url(#clip250)" d="M2199.58 1481.64 L2215.9 1481.64 L2215.9 1485.58 L2193.95 1485.58 L2193.95 1481.64 Q2196.61 1478.89 2201.2 1474.26 Q2205.8 1469.61 2206.98 1468.27 Q2209.23 1465.74 2210.11 1464.01 Q2211.01 1462.25 2211.01 1460.56 Q2211.01 1457.8 2209.07 1456.07 Q2207.15 1454.33 2204.05 1454.33 Q2201.85 1454.33 2199.39 1455.09 Q2196.96 1455.86 2194.18 1457.41 L2194.18 1452.69 Q2197.01 1451.55 2199.46 1450.97 Q2201.92 1450.39 2203.95 1450.39 Q2209.32 1450.39 2212.52 1453.08 Q2215.71 1455.77 2215.71 1460.26 Q2215.71 1462.39 2214.9 1464.31 Q2214.11 1466.2 2212.01 1468.8 Q2211.43 1469.47 2208.33 1472.69 Q2205.23 1475.88 2199.58 1481.64 Z" fill="#ffffff" fill-rule="nonzero" fill-opacity="1" /><path clip-path="url(#clip250)" d="M2235.71 1454.1 Q2232.1 1454.1 2230.27 1457.66 Q2228.47 1461.2 2228.47 1468.33 Q2228.47 1475.44 2230.27 1479.01 Q2232.1 1482.55 2235.71 1482.55 Q2239.35 1482.55 2241.15 1479.01 Q2242.98 1475.44 2242.98 1468.33 Q2242.98 1461.2 2241.15 1457.66 Q2239.35 1454.1 2235.71 1454.1 M2235.71 1450.39 Q2241.52 1450.39 2244.58 1455 Q2247.66 1459.58 2247.66 1468.33 Q2247.66 1477.06 2244.58 1481.67 Q2241.52 1486.25 2235.71 1486.25 Q2229.9 1486.25 2226.82 1481.67 Q2223.77 1477.06 2223.77 1468.33 Q2223.77 1459.58 2226.82 1455 Q2229.9 1450.39 2235.71 1450.39 Z" fill="#ffffff" fill-rule="nonzero" fill-opacity="1" /><path clip-path="url(#clip250)" d="M2265.87 1454.1 Q2262.26 1454.1 2260.43 1457.66 Q2258.63 1461.2 2258.63 1468.33 Q2258.63 1475.44 2260.43 1479.01 Q2262.26 1482.55 2265.87 1482.55 Q2269.51 1482.55 2271.31 1479.01 Q2273.14 1475.44 2273.14 1468.33 Q2273.14 1461.2 2271.31 1457.66 Q2269.51 1454.1 2265.87 1454.1 M2265.87 1450.39 Q2271.68 1450.39 2274.74 1455 Q2277.82 1459.58 2277.82 1468.33 Q2277.82 1477.06 2274.74 1481.67 Q2271.68 1486.25 2265.87 1486.25 Q2260.06 1486.25 2256.98 1481.67 Q2253.93 1477.06 2253.93 1468.33 Q2253.93 1459.58 2256.98 1455 Q2260.06 1450.39 2265.87 1450.39 Z" fill="#ffffff" fill-rule="nonzero" fill-opacity="1" /><path clip-path="url(#clip250)" d="M939 1520.52 L979.199 1520.52 L979.199 1525.93 L962.33 1525.93 L962.33 1568.04 L955.869 1568.04 L955.869 1525.93 L939 1525.93 L939 1520.52 Z" fill="#ffffff" fill-rule="nonzero" fill-opacity="1" /><path clip-path="url(#clip250)" d="M996.227 1537.87 Q995.241 1537.3 994.063 1537.04 Q992.917 1536.76 991.517 1536.76 Q986.551 1536.76 983.878 1540 Q981.236 1543.22 981.236 1549.27 L981.236 1568.04 L975.348 1568.04 L975.348 1532.4 L981.236 1532.4 L981.236 1537.93 Q983.082 1534.69 986.042 1533.13 Q989.002 1531.54 993.235 1531.54 Q993.84 1531.54 994.572 1531.63 Q995.304 1531.7 996.195 1531.85 L996.227 1537.87 Z" fill="#ffffff" fill-rule="nonzero" fill-opacity="1" /><path clip-path="url(#clip250)" d="M1018.57 1550.12 Q1011.47 1550.12 1008.74 1551.75 Q1006 1553.37 1006 1557.29 Q1006 1560.4 1008.04 1562.25 Q1010.1 1564.07 1013.64 1564.07 Q1018.51 1564.07 1021.44 1560.63 Q1024.4 1557.16 1024.4 1551.43 L1024.4 1550.12 L1018.57 1550.12 M1030.25 1547.71 L1030.25 1568.04 L1024.4 1568.04 L1024.4 1562.63 Q1022.39 1565.88 1019.4 1567.44 Q1016.41 1568.97 1012.08 1568.97 Q1006.6 1568.97 1003.36 1565.91 Q1000.14 1562.82 1000.14 1557.67 Q1000.14 1551.65 1004.15 1548.6 Q1008.19 1545.54 1016.18 1545.54 L1024.4 1545.54 L1024.4 1544.97 Q1024.4 1540.93 1021.72 1538.73 Q1019.08 1536.5 1014.27 1536.5 Q1011.22 1536.5 1008.32 1537.23 Q1005.43 1537.97 1002.75 1539.43 L1002.75 1534.02 Q1005.97 1532.78 1008.99 1532.17 Q1012.01 1531.54 1014.88 1531.54 Q1022.61 1531.54 1026.43 1535.55 Q1030.25 1539.56 1030.25 1547.71 Z" fill="#ffffff" fill-rule="nonzero" fill-opacity="1" /><path clip-path="url(#clip250)" d="M1065.77 1537.81 L1065.77 1518.52 L1071.63 1518.52 L1071.63 1568.04 L1065.77 1568.04 L1065.77 1562.7 Q1063.93 1565.88 1061.09 1567.44 Q1058.29 1568.97 1054.35 1568.97 Q1047.88 1568.97 1043.81 1563.81 Q1039.77 1558.65 1039.77 1550.25 Q1039.77 1541.85 1043.81 1536.69 Q1047.88 1531.54 1054.35 1531.54 Q1058.29 1531.54 1061.09 1533.1 Q1063.93 1534.62 1065.77 1537.81 M1045.82 1550.25 Q1045.82 1556.71 1048.46 1560.4 Q1051.13 1564.07 1055.78 1564.07 Q1060.43 1564.07 1063.1 1560.4 Q1065.77 1556.71 1065.77 1550.25 Q1065.77 1543.79 1063.1 1540.13 Q1060.43 1536.44 1055.78 1536.44 Q1051.13 1536.44 1048.46 1540.13 Q1045.82 1543.79 1045.82 1550.25 Z" fill="#ffffff" fill-rule="nonzero" fill-opacity="1" /><path clip-path="url(#clip250)" d="M1083.69 1532.4 L1089.55 1532.4 L1089.55 1568.04 L1083.69 1568.04 L1083.69 1532.4 M1083.69 1518.52 L1089.55 1518.52 L1089.55 1525.93 L1083.69 1525.93 L1083.69 1518.52 Z" fill="#ffffff" fill-rule="nonzero" fill-opacity="1" /><path clip-path="url(#clip250)" d="M1131.43 1546.53 L1131.43 1568.04 L1125.58 1568.04 L1125.58 1546.72 Q1125.58 1541.66 1123.61 1539.14 Q1121.63 1536.63 1117.68 1536.63 Q1112.94 1536.63 1110.21 1539.65 Q1107.47 1542.68 1107.47 1547.9 L1107.47 1568.04 L1101.58 1568.04 L1101.58 1532.4 L1107.47 1532.4 L1107.47 1537.93 Q1109.57 1534.72 1112.4 1533.13 Q1115.27 1531.54 1118.99 1531.54 Q1125.13 1531.54 1128.28 1535.36 Q1131.43 1539.14 1131.43 1546.53 Z" fill="#ffffff" fill-rule="nonzero" fill-opacity="1" /><path clip-path="url(#clip250)" d="M1166.57 1549.81 Q1166.57 1543.44 1163.93 1539.94 Q1161.32 1536.44 1156.58 1536.44 Q1151.87 1536.44 1149.23 1539.94 Q1146.62 1543.44 1146.62 1549.81 Q1146.62 1556.14 1149.23 1559.64 Q1151.87 1563.14 1156.58 1563.14 Q1161.32 1563.14 1163.93 1559.64 Q1166.57 1556.14 1166.57 1549.81 M1172.43 1563.62 Q1172.43 1572.72 1168.39 1577.15 Q1164.35 1581.6 1156.01 1581.6 Q1152.92 1581.6 1150.18 1581.13 Q1147.44 1580.68 1144.87 1579.72 L1144.87 1574.03 Q1147.44 1575.43 1149.96 1576.1 Q1152.47 1576.76 1155.08 1576.76 Q1160.84 1576.76 1163.71 1573.74 Q1166.57 1570.75 1166.57 1564.67 L1166.57 1561.77 Q1164.76 1564.92 1161.93 1566.48 Q1159.09 1568.04 1155.15 1568.04 Q1148.59 1568.04 1144.58 1563.05 Q1140.57 1558.05 1140.57 1549.81 Q1140.57 1541.53 1144.58 1536.53 Q1148.59 1531.54 1155.15 1531.54 Q1159.09 1531.54 1161.93 1533.1 Q1164.76 1534.66 1166.57 1537.81 L1166.57 1532.4 L1172.43 1532.4 L1172.43 1563.62 Z" fill="#ffffff" fill-rule="nonzero" fill-opacity="1" /><path clip-path="url(#clip250)" d="M1228.67 1537.81 L1228.67 1518.52 L1234.53 1518.52 L1234.53 1568.04 L1228.67 1568.04 L1228.67 1562.7 Q1226.83 1565.88 1223.99 1567.44 Q1221.19 1568.97 1217.24 1568.97 Q1210.78 1568.97 1206.71 1563.81 Q1202.67 1558.65 1202.67 1550.25 Q1202.67 1541.85 1206.71 1536.69 Q1210.78 1531.54 1217.24 1531.54 Q1221.19 1531.54 1223.99 1533.1 Q1226.83 1534.62 1228.67 1537.81 M1208.71 1550.25 Q1208.71 1556.71 1211.36 1560.4 Q1214.03 1564.07 1218.68 1564.07 Q1223.32 1564.07 1226 1560.4 Q1228.67 1556.71 1228.67 1550.25 Q1228.67 1543.79 1226 1540.13 Q1223.32 1536.44 1218.68 1536.44 Q1214.03 1536.44 1211.36 1540.13 Q1208.71 1543.79 1208.71 1550.25 Z" fill="#ffffff" fill-rule="nonzero" fill-opacity="1" /><path clip-path="url(#clip250)" d="M1262.79 1550.12 Q1255.69 1550.12 1252.96 1551.75 Q1250.22 1553.37 1250.22 1557.29 Q1250.22 1560.4 1252.26 1562.25 Q1254.32 1564.07 1257.86 1564.07 Q1262.73 1564.07 1265.66 1560.63 Q1268.62 1557.16 1268.62 1551.43 L1268.62 1550.12 L1262.79 1550.12 M1274.47 1547.71 L1274.47 1568.04 L1268.62 1568.04 L1268.62 1562.63 Q1266.61 1565.88 1263.62 1567.44 Q1260.63 1568.97 1256.3 1568.97 Q1250.82 1568.97 1247.58 1565.91 Q1244.36 1562.82 1244.36 1557.67 Q1244.36 1551.65 1248.37 1548.6 Q1252.42 1545.54 1260.4 1545.54 L1268.62 1545.54 L1268.62 1544.97 Q1268.62 1540.93 1265.94 1538.73 Q1263.3 1536.5 1258.49 1536.5 Q1255.44 1536.5 1252.54 1537.23 Q1249.65 1537.97 1246.97 1539.43 L1246.97 1534.02 Q1250.19 1532.78 1253.21 1532.17 Q1256.23 1531.54 1259.1 1531.54 Q1266.83 1531.54 1270.65 1535.55 Q1274.47 1539.56 1274.47 1547.71 Z" fill="#ffffff" fill-rule="nonzero" fill-opacity="1" /><path clip-path="url(#clip250)" d="M1301.37 1571.35 Q1298.88 1577.72 1296.53 1579.66 Q1294.17 1581.6 1290.23 1581.6 L1285.55 1581.6 L1285.55 1576.7 L1288.99 1576.7 Q1291.41 1576.7 1292.74 1575.56 Q1294.08 1574.41 1295.7 1570.14 L1296.75 1567.47 L1282.33 1532.4 L1288.54 1532.4 L1299.68 1560.28 L1310.82 1532.4 L1317.03 1532.4 L1301.37 1571.35 Z" fill="#ffffff" fill-rule="nonzero" fill-opacity="1" /><path clip-path="url(#clip250)" d="M1345.83 1532.4 L1351.69 1532.4 L1351.69 1568.04 L1345.83 1568.04 L1345.83 1532.4 M1345.83 1518.52 L1351.69 1518.52 L1351.69 1525.93 L1345.83 1525.93 L1345.83 1518.52 Z" fill="#ffffff" fill-rule="nonzero" fill-opacity="1" /><path clip-path="url(#clip250)" d="M1393.57 1546.53 L1393.57 1568.04 L1387.72 1568.04 L1387.72 1546.72 Q1387.72 1541.66 1385.74 1539.14 Q1383.77 1536.63 1379.82 1536.63 Q1375.08 1536.63 1372.35 1539.65 Q1369.61 1542.68 1369.61 1547.9 L1369.61 1568.04 L1363.72 1568.04 L1363.72 1532.4 L1369.61 1532.4 L1369.61 1537.93 Q1371.71 1534.72 1374.54 1533.13 Q1377.41 1531.54 1381.13 1531.54 Q1387.27 1531.54 1390.42 1535.36 Q1393.57 1539.14 1393.57 1546.53 Z" fill="#ffffff" fill-rule="nonzero" fill-opacity="1" /><path clip-path="url(#clip250)" d="M1428.71 1537.81 L1428.71 1518.52 L1434.57 1518.52 L1434.57 1568.04 L1428.71 1568.04 L1428.71 1562.7 Q1426.87 1565.88 1424.03 1567.44 Q1421.23 1568.97 1417.29 1568.97 Q1410.83 1568.97 1406.75 1563.81 Q1402.71 1558.65 1402.71 1550.25 Q1402.71 1541.85 1406.75 1536.69 Q1410.83 1531.54 1417.29 1531.54 Q1421.23 1531.54 1424.03 1533.1 Q1426.87 1534.62 1428.71 1537.81 M1408.76 1550.25 Q1408.76 1556.71 1411.4 1560.4 Q1414.07 1564.07 1418.72 1564.07 Q1423.37 1564.07 1426.04 1560.4 Q1428.71 1556.71 1428.71 1550.25 Q1428.71 1543.79 1426.04 1540.13 Q1423.37 1536.44 1418.72 1536.44 Q1414.07 1536.44 1411.4 1540.13 Q1408.76 1543.79 1408.76 1550.25 Z" fill="#ffffff" fill-rule="nonzero" fill-opacity="1" /><path clip-path="url(#clip250)" d="M1477.12 1548.76 L1477.12 1551.62 L1450.2 1551.62 Q1450.58 1557.67 1453.83 1560.85 Q1457.1 1564 1462.93 1564 Q1466.3 1564 1469.45 1563.17 Q1472.64 1562.35 1475.76 1560.69 L1475.76 1566.23 Q1472.6 1567.57 1469.29 1568.27 Q1465.98 1568.97 1462.58 1568.97 Q1454.05 1568.97 1449.05 1564 Q1444.09 1559.04 1444.09 1550.57 Q1444.09 1541.82 1448.8 1536.69 Q1453.54 1531.54 1461.56 1531.54 Q1468.75 1531.54 1472.92 1536.18 Q1477.12 1540.8 1477.12 1548.76 M1471.27 1547.04 Q1471.2 1542.23 1468.56 1539.37 Q1465.95 1536.5 1461.62 1536.5 Q1456.72 1536.5 1453.76 1539.27 Q1450.83 1542.04 1450.39 1547.07 L1471.27 1547.04 Z" fill="#ffffff" fill-rule="nonzero" fill-opacity="1" /><path clip-path="url(#clip250)" d="M1515.22 1532.4 L1502.33 1549.74 L1515.89 1568.04 L1508.98 1568.04 L1498.61 1554.04 L1488.23 1568.04 L1481.33 1568.04 L1495.17 1549.39 L1482.5 1532.4 L1489.41 1532.4 L1498.86 1545.1 L1508.32 1532.4 L1515.22 1532.4 Z" fill="#ffffff" fill-rule="nonzero" fill-opacity="1" /><path clip-path="url(#clip250)" d="M1558.96 1518.58 Q1554.69 1525.9 1552.62 1533.06 Q1550.55 1540.23 1550.55 1547.58 Q1550.55 1554.93 1552.62 1562.16 Q1554.72 1569.35 1558.96 1576.64 L1553.86 1576.64 Q1549.09 1569.16 1546.7 1561.93 Q1544.35 1554.71 1544.35 1547.58 Q1544.35 1540.48 1546.7 1533.29 Q1549.06 1526.09 1553.86 1518.58 L1558.96 1518.58 Z" fill="#ffffff" fill-rule="nonzero" fill-opacity="1" /><path clip-path="url(#clip250)" d="M1586.46 1526.86 L1577.73 1550.51 L1595.21 1550.51 L1586.46 1526.86 M1582.83 1520.52 L1590.12 1520.52 L1608.23 1568.04 L1601.54 1568.04 L1597.21 1555.85 L1575.79 1555.85 L1571.46 1568.04 L1564.68 1568.04 L1582.83 1520.52 Z" fill="#ffffff" fill-rule="nonzero" fill-opacity="1" /><path clip-path="url(#clip250)" d="M1614.43 1520.52 L1620.89 1520.52 L1620.89 1549.39 Q1620.89 1557.03 1623.66 1560.4 Q1626.43 1563.75 1632.64 1563.75 Q1638.81 1563.75 1641.58 1560.4 Q1644.35 1557.03 1644.35 1549.39 L1644.35 1520.52 L1650.81 1520.52 L1650.81 1550.19 Q1650.81 1559.48 1646.2 1564.22 Q1641.61 1568.97 1632.64 1568.97 Q1623.63 1568.97 1619.02 1564.22 Q1614.43 1559.48 1614.43 1550.19 L1614.43 1520.52 Z" fill="#ffffff" fill-rule="nonzero" fill-opacity="1" /><path clip-path="url(#clip250)" d="M1661.7 1518.58 L1666.79 1518.58 Q1671.57 1526.09 1673.92 1533.29 Q1676.31 1540.48 1676.31 1547.58 Q1676.31 1554.71 1673.92 1561.93 Q1671.57 1569.16 1666.79 1576.64 L1661.7 1576.64 Q1665.93 1569.35 1668 1562.16 Q1670.1 1554.93 1670.1 1547.58 Q1670.1 1540.23 1668 1533.06 Q1665.93 1525.9 1661.7 1518.58 Z" fill="#ffffff" fill-rule="nonzero" fill-opacity="1" /><polyline clip-path="url(#clip250)" style="stroke:#ffffff; stroke-linecap:round; stroke-linejoin:round; stroke-width:4; stroke-opacity:1; fill:none" points="262.551,1423.18 262.551,47.2441 "/>
<polyline clip-path="url(#clip250)" style="stroke:#ffffff; stroke-linecap:round; stroke-linejoin:round; stroke-width:4; stroke-opacity:1; fill:none" points="2352.76,1423.18 2352.76,47.2441 "/>
<polyline clip-path="url(#clip250)" style="stroke:#ffffff; stroke-linecap:round; stroke-linejoin:round; stroke-width:4; stroke-opacity:1; fill:none" points="262.551,1306.81 281.449,1306.81 "/>
<polyline clip-path="url(#clip250)" style="stroke:#ffffff; stroke-linecap:round; stroke-linejoin:round; stroke-width:4; stroke-opacity:1; fill:none" points="262.551,1056 281.449,1056 "/>
<polyline clip-path="url(#clip250)" style="stroke:#ffffff; stroke-linecap:round; stroke-linejoin:round; stroke-width:4; stroke-opacity:1; fill:none" points="262.551,805.196 281.449,805.196 "/>
<polyline clip-path="url(#clip250)" style="stroke:#ffffff; stroke-linecap:round; stroke-linejoin:round; stroke-width:4; stroke-opacity:1; fill:none" points="262.551,554.391 281.449,554.391 "/>
<polyline clip-path="url(#clip250)" style="stroke:#ffffff; stroke-linecap:round; stroke-linejoin:round; stroke-width:4; stroke-opacity:1; fill:none" points="262.551,303.586 281.449,303.586 "/>
<polyline clip-path="url(#clip250)" style="stroke:#ffffff; stroke-linecap:round; stroke-linejoin:round; stroke-width:4; stroke-opacity:1; fill:none" points="262.551,52.7811 281.449,52.7811 "/>
<polyline clip-path="url(#clip250)" style="stroke:#ffffff; stroke-linecap:round; stroke-linejoin:round; stroke-width:4; stroke-opacity:1; fill:none" points="2352.76,1306.81 2333.86,1306.81 "/>
<polyline clip-path="url(#clip250)" style="stroke:#ffffff; stroke-linecap:round; stroke-linejoin:round; stroke-width:4; stroke-opacity:1; fill:none" points="2352.76,1056 2333.86,1056 "/>
<polyline clip-path="url(#clip250)" style="stroke:#ffffff; stroke-linecap:round; stroke-linejoin:round; stroke-width:4; stroke-opacity:1; fill:none" points="2352.76,805.196 2333.86,805.196 "/>
<polyline clip-path="url(#clip250)" style="stroke:#ffffff; stroke-linecap:round; stroke-linejoin:round; stroke-width:4; stroke-opacity:1; fill:none" points="2352.76,554.391 2333.86,554.391 "/>
<polyline clip-path="url(#clip250)" style="stroke:#ffffff; stroke-linecap:round; stroke-linejoin:round; stroke-width:4; stroke-opacity:1; fill:none" points="2352.76,303.586 2333.86,303.586 "/>
<polyline clip-path="url(#clip250)" style="stroke:#ffffff; stroke-linecap:round; stroke-linejoin:round; stroke-width:4; stroke-opacity:1; fill:none" points="2352.76,52.7811 2333.86,52.7811 "/>
<path clip-path="url(#clip250)" d="M114.931 1320.15 L122.57 1320.15 L122.57 1293.79 L114.26 1295.45 L114.26 1291.19 L122.524 1289.53 L127.2 1289.53 L127.2 1320.15 L134.839 1320.15 L134.839 1324.09 L114.931 1324.09 L114.931 1320.15 Z" fill="#ffffff" fill-rule="nonzero" fill-opacity="1" /><path clip-path="url(#clip250)" d="M154.283 1292.6 Q150.672 1292.6 148.843 1296.17 Q147.038 1299.71 147.038 1306.84 Q147.038 1313.95 148.843 1317.51 Q150.672 1321.05 154.283 1321.05 Q157.917 1321.05 159.723 1317.51 Q161.552 1313.95 161.552 1306.84 Q161.552 1299.71 159.723 1296.17 Q157.917 1292.6 154.283 1292.6 M154.283 1288.9 Q160.093 1288.9 163.149 1293.51 Q166.227 1298.09 166.227 1306.84 Q166.227 1315.57 163.149 1320.17 Q160.093 1324.76 154.283 1324.76 Q148.473 1324.76 145.394 1320.17 Q142.339 1315.57 142.339 1306.84 Q142.339 1298.09 145.394 1293.51 Q148.473 1288.9 154.283 1288.9 Z" fill="#ffffff" fill-rule="nonzero" fill-opacity="1" /><path clip-path="url(#clip250)" d="M184.445 1292.6 Q180.834 1292.6 179.005 1296.17 Q177.2 1299.71 177.2 1306.84 Q177.2 1313.95 179.005 1317.51 Q180.834 1321.05 184.445 1321.05 Q188.079 1321.05 189.885 1317.51 Q191.713 1313.95 191.713 1306.84 Q191.713 1299.71 189.885 1296.17 Q188.079 1292.6 184.445 1292.6 M184.445 1288.9 Q190.255 1288.9 193.311 1293.51 Q196.389 1298.09 196.389 1306.84 Q196.389 1315.57 193.311 1320.17 Q190.255 1324.76 184.445 1324.76 Q178.635 1324.76 175.556 1320.17 Q172.501 1315.57 172.501 1306.84 Q172.501 1298.09 175.556 1293.51 Q178.635 1288.9 184.445 1288.9 Z" fill="#ffffff" fill-rule="nonzero" fill-opacity="1" /><path clip-path="url(#clip250)" d="M214.607 1292.6 Q210.996 1292.6 209.167 1296.17 Q207.362 1299.71 207.362 1306.84 Q207.362 1313.95 209.167 1317.51 Q210.996 1321.05 214.607 1321.05 Q218.241 1321.05 220.047 1317.51 Q221.875 1313.95 221.875 1306.84 Q221.875 1299.71 220.047 1296.17 Q218.241 1292.6 214.607 1292.6 M214.607 1288.9 Q220.417 1288.9 223.473 1293.51 Q226.551 1298.09 226.551 1306.84 Q226.551 1315.57 223.473 1320.17 Q220.417 1324.76 214.607 1324.76 Q208.797 1324.76 205.718 1320.17 Q202.662 1315.57 202.662 1306.84 Q202.662 1298.09 205.718 1293.51 Q208.797 1288.9 214.607 1288.9 Z" fill="#ffffff" fill-rule="nonzero" fill-opacity="1" /><path clip-path="url(#clip250)" d="M114.931 1069.35 L122.57 1069.35 L122.57 1042.98 L114.26 1044.65 L114.26 1040.39 L122.524 1038.72 L127.2 1038.72 L127.2 1069.35 L134.839 1069.35 L134.839 1073.28 L114.931 1073.28 L114.931 1069.35 Z" fill="#ffffff" fill-rule="nonzero" fill-opacity="1" /><path clip-path="url(#clip250)" d="M154.283 1041.8 Q150.672 1041.8 148.843 1045.36 Q147.038 1048.91 147.038 1056.04 Q147.038 1063.14 148.843 1066.71 Q150.672 1070.25 154.283 1070.25 Q157.917 1070.25 159.723 1066.71 Q161.552 1063.14 161.552 1056.04 Q161.552 1048.91 159.723 1045.36 Q157.917 1041.8 154.283 1041.8 M154.283 1038.1 Q160.093 1038.1 163.149 1042.7 Q166.227 1047.29 166.227 1056.04 Q166.227 1064.76 163.149 1069.37 Q160.093 1073.95 154.283 1073.95 Q148.473 1073.95 145.394 1069.37 Q142.339 1064.76 142.339 1056.04 Q142.339 1047.29 145.394 1042.7 Q148.473 1038.1 154.283 1038.1 Z" fill="#ffffff" fill-rule="nonzero" fill-opacity="1" /><path clip-path="url(#clip250)" d="M174.491 1038.72 L192.848 1038.72 L192.848 1042.66 L178.774 1042.66 L178.774 1051.13 Q179.792 1050.78 180.811 1050.62 Q181.829 1050.43 182.848 1050.43 Q188.635 1050.43 192.014 1053.61 Q195.394 1056.78 195.394 1062.19 Q195.394 1067.77 191.922 1070.87 Q188.45 1073.95 182.13 1073.95 Q179.954 1073.95 177.686 1073.58 Q175.44 1073.21 173.033 1072.47 L173.033 1067.77 Q175.116 1068.91 177.339 1069.46 Q179.561 1070.02 182.038 1070.02 Q186.042 1070.02 188.38 1067.91 Q190.718 1065.8 190.718 1062.19 Q190.718 1058.58 188.38 1056.48 Q186.042 1054.37 182.038 1054.37 Q180.163 1054.37 178.288 1054.79 Q176.436 1055.2 174.491 1056.08 L174.491 1038.72 Z" fill="#ffffff" fill-rule="nonzero" fill-opacity="1" /><path clip-path="url(#clip250)" d="M214.607 1041.8 Q210.996 1041.8 209.167 1045.36 Q207.362 1048.91 207.362 1056.04 Q207.362 1063.14 209.167 1066.71 Q210.996 1070.25 214.607 1070.25 Q218.241 1070.25 220.047 1066.71 Q221.875 1063.14 221.875 1056.04 Q221.875 1048.91 220.047 1045.36 Q218.241 1041.8 214.607 1041.8 M214.607 1038.1 Q220.417 1038.1 223.473 1042.7 Q226.551 1047.29 226.551 1056.04 Q226.551 1064.76 223.473 1069.37 Q220.417 1073.95 214.607 1073.95 Q208.797 1073.95 205.718 1069.37 Q202.662 1064.76 202.662 1056.04 Q202.662 1047.29 205.718 1042.7 Q208.797 1038.1 214.607 1038.1 Z" fill="#ffffff" fill-rule="nonzero" fill-opacity="1" /><path clip-path="url(#clip250)" d="M114.931 818.541 L122.57 818.541 L122.57 792.175 L114.26 793.842 L114.26 789.583 L122.524 787.916 L127.2 787.916 L127.2 818.541 L134.839 818.541 L134.839 822.476 L114.931 822.476 L114.931 818.541 Z" fill="#ffffff" fill-rule="nonzero" fill-opacity="1" /><path clip-path="url(#clip250)" d="M145.093 818.541 L152.732 818.541 L152.732 792.175 L144.422 793.842 L144.422 789.583 L152.686 787.916 L157.362 787.916 L157.362 818.541 L165.001 818.541 L165.001 822.476 L145.093 822.476 L145.093 818.541 Z" fill="#ffffff" fill-rule="nonzero" fill-opacity="1" /><path clip-path="url(#clip250)" d="M184.445 790.995 Q180.834 790.995 179.005 794.559 Q177.2 798.101 177.2 805.231 Q177.2 812.337 179.005 815.902 Q180.834 819.444 184.445 819.444 Q188.079 819.444 189.885 815.902 Q191.713 812.337 191.713 805.231 Q191.713 798.101 189.885 794.559 Q188.079 790.995 184.445 790.995 M184.445 787.291 Q190.255 787.291 193.311 791.897 Q196.389 796.481 196.389 805.231 Q196.389 813.958 193.311 818.564 Q190.255 823.147 184.445 823.147 Q178.635 823.147 175.556 818.564 Q172.501 813.958 172.501 805.231 Q172.501 796.481 175.556 791.897 Q178.635 787.291 184.445 787.291 Z" fill="#ffffff" fill-rule="nonzero" fill-opacity="1" /><path clip-path="url(#clip250)" d="M214.607 790.995 Q210.996 790.995 209.167 794.559 Q207.362 798.101 207.362 805.231 Q207.362 812.337 209.167 815.902 Q210.996 819.444 214.607 819.444 Q218.241 819.444 220.047 815.902 Q221.875 812.337 221.875 805.231 Q221.875 798.101 220.047 794.559 Q218.241 790.995 214.607 790.995 M214.607 787.291 Q220.417 787.291 223.473 791.897 Q226.551 796.481 226.551 805.231 Q226.551 813.958 223.473 818.564 Q220.417 823.147 214.607 823.147 Q208.797 823.147 205.718 818.564 Q202.662 813.958 202.662 805.231 Q202.662 796.481 205.718 791.897 Q208.797 787.291 214.607 787.291 Z" fill="#ffffff" fill-rule="nonzero" fill-opacity="1" /><path clip-path="url(#clip250)" d="M114.931 567.736 L122.57 567.736 L122.57 541.37 L114.26 543.037 L114.26 538.778 L122.524 537.111 L127.2 537.111 L127.2 567.736 L134.839 567.736 L134.839 571.671 L114.931 571.671 L114.931 567.736 Z" fill="#ffffff" fill-rule="nonzero" fill-opacity="1" /><path clip-path="url(#clip250)" d="M145.093 567.736 L152.732 567.736 L152.732 541.37 L144.422 543.037 L144.422 538.778 L152.686 537.111 L157.362 537.111 L157.362 567.736 L165.001 567.736 L165.001 571.671 L145.093 571.671 L145.093 567.736 Z" fill="#ffffff" fill-rule="nonzero" fill-opacity="1" /><path clip-path="url(#clip250)" d="M174.491 537.111 L192.848 537.111 L192.848 541.046 L178.774 541.046 L178.774 549.518 Q179.792 549.171 180.811 549.009 Q181.829 548.824 182.848 548.824 Q188.635 548.824 192.014 551.995 Q195.394 555.166 195.394 560.583 Q195.394 566.162 191.922 569.264 Q188.45 572.342 182.13 572.342 Q179.954 572.342 177.686 571.972 Q175.44 571.602 173.033 570.861 L173.033 566.162 Q175.116 567.296 177.339 567.852 Q179.561 568.407 182.038 568.407 Q186.042 568.407 188.38 566.301 Q190.718 564.194 190.718 560.583 Q190.718 556.972 188.38 554.866 Q186.042 552.759 182.038 552.759 Q180.163 552.759 178.288 553.176 Q176.436 553.592 174.491 554.472 L174.491 537.111 Z" fill="#ffffff" fill-rule="nonzero" fill-opacity="1" /><path clip-path="url(#clip250)" d="M214.607 540.19 Q210.996 540.19 209.167 543.755 Q207.362 547.296 207.362 554.426 Q207.362 561.532 209.167 565.097 Q210.996 568.639 214.607 568.639 Q218.241 568.639 220.047 565.097 Q221.875 561.532 221.875 554.426 Q221.875 547.296 220.047 543.755 Q218.241 540.19 214.607 540.19 M214.607 536.486 Q220.417 536.486 223.473 541.092 Q226.551 545.676 226.551 554.426 Q226.551 563.153 223.473 567.759 Q220.417 572.342 214.607 572.342 Q208.797 572.342 205.718 567.759 Q202.662 563.153 202.662 554.426 Q202.662 545.676 205.718 541.092 Q208.797 536.486 214.607 536.486 Z" fill="#ffffff" fill-rule="nonzero" fill-opacity="1" /><path clip-path="url(#clip250)" d="M114.931 316.931 L122.57 316.931 L122.57 290.565 L114.26 292.232 L114.26 287.973 L122.524 286.306 L127.2 286.306 L127.2 316.931 L134.839 316.931 L134.839 320.866 L114.931 320.866 L114.931 316.931 Z" fill="#ffffff" fill-rule="nonzero" fill-opacity="1" /><path clip-path="url(#clip250)" d="M148.311 316.931 L164.63 316.931 L164.63 320.866 L142.686 320.866 L142.686 316.931 Q145.348 314.176 149.931 309.547 Q154.538 304.894 155.718 303.551 Q157.964 301.028 158.843 299.292 Q159.746 297.533 159.746 295.843 Q159.746 293.088 157.802 291.352 Q155.88 289.616 152.778 289.616 Q150.579 289.616 148.126 290.38 Q145.695 291.144 142.917 292.695 L142.917 287.973 Q145.741 286.838 148.195 286.26 Q150.649 285.681 152.686 285.681 Q158.056 285.681 161.251 288.366 Q164.445 291.051 164.445 295.542 Q164.445 297.672 163.635 299.593 Q162.848 301.491 160.741 304.084 Q160.163 304.755 157.061 307.973 Q153.959 311.167 148.311 316.931 Z" fill="#ffffff" fill-rule="nonzero" fill-opacity="1" /><path clip-path="url(#clip250)" d="M184.445 289.385 Q180.834 289.385 179.005 292.95 Q177.2 296.491 177.2 303.621 Q177.2 310.727 179.005 314.292 Q180.834 317.834 184.445 317.834 Q188.079 317.834 189.885 314.292 Q191.713 310.727 191.713 303.621 Q191.713 296.491 189.885 292.95 Q188.079 289.385 184.445 289.385 M184.445 285.681 Q190.255 285.681 193.311 290.288 Q196.389 294.871 196.389 303.621 Q196.389 312.348 193.311 316.954 Q190.255 321.537 184.445 321.537 Q178.635 321.537 175.556 316.954 Q172.501 312.348 172.501 303.621 Q172.501 294.871 175.556 290.288 Q178.635 285.681 184.445 285.681 Z" fill="#ffffff" fill-rule="nonzero" fill-opacity="1" /><path clip-path="url(#clip250)" d="M214.607 289.385 Q210.996 289.385 209.167 292.95 Q207.362 296.491 207.362 303.621 Q207.362 310.727 209.167 314.292 Q210.996 317.834 214.607 317.834 Q218.241 317.834 220.047 314.292 Q221.875 310.727 221.875 303.621 Q221.875 296.491 220.047 292.95 Q218.241 289.385 214.607 289.385 M214.607 285.681 Q220.417 285.681 223.473 290.288 Q226.551 294.871 226.551 303.621 Q226.551 312.348 223.473 316.954 Q220.417 321.537 214.607 321.537 Q208.797 321.537 205.718 316.954 Q202.662 312.348 202.662 303.621 Q202.662 294.871 205.718 290.288 Q208.797 285.681 214.607 285.681 Z" fill="#ffffff" fill-rule="nonzero" fill-opacity="1" /><path clip-path="url(#clip250)" d="M114.931 66.1259 L122.57 66.1259 L122.57 39.7603 L114.26 41.427 L114.26 37.1678 L122.524 35.5011 L127.2 35.5011 L127.2 66.1259 L134.839 66.1259 L134.839 70.0611 L114.931 70.0611 L114.931 66.1259 Z" fill="#ffffff" fill-rule="nonzero" fill-opacity="1" /><path clip-path="url(#clip250)" d="M148.311 66.1259 L164.63 66.1259 L164.63 70.0611 L142.686 70.0611 L142.686 66.1259 Q145.348 63.3713 149.931 58.7417 Q154.538 54.089 155.718 52.7464 Q157.964 50.2232 158.843 48.4871 Q159.746 46.7279 159.746 45.0381 Q159.746 42.2835 157.802 40.5474 Q155.88 38.8113 152.778 38.8113 Q150.579 38.8113 148.126 39.5751 Q145.695 40.339 142.917 41.8899 L142.917 37.1678 Q145.741 36.0335 148.195 35.4548 Q150.649 34.8761 152.686 34.8761 Q158.056 34.8761 161.251 37.5613 Q164.445 40.2464 164.445 44.7372 Q164.445 46.8668 163.635 48.7881 Q162.848 50.6862 160.741 53.2788 Q160.163 53.9501 157.061 57.1676 Q153.959 60.3621 148.311 66.1259 Z" fill="#ffffff" fill-rule="nonzero" fill-opacity="1" /><path clip-path="url(#clip250)" d="M174.491 35.5011 L192.848 35.5011 L192.848 39.4363 L178.774 39.4363 L178.774 47.9084 Q179.792 47.5612 180.811 47.3992 Q181.829 47.214 182.848 47.214 Q188.635 47.214 192.014 50.3853 Q195.394 53.5566 195.394 58.9732 Q195.394 64.5519 191.922 67.6537 Q188.45 70.7324 182.13 70.7324 Q179.954 70.7324 177.686 70.362 Q175.44 69.9917 173.033 69.2509 L173.033 64.5519 Q175.116 65.6861 177.339 66.2417 Q179.561 66.7972 182.038 66.7972 Q186.042 66.7972 188.38 64.6908 Q190.718 62.5843 190.718 58.9732 Q190.718 55.3621 188.38 53.2556 Q186.042 51.1492 182.038 51.1492 Q180.163 51.1492 178.288 51.5658 Q176.436 51.9825 174.491 52.8621 L174.491 35.5011 Z" fill="#ffffff" fill-rule="nonzero" fill-opacity="1" /><path clip-path="url(#clip250)" d="M214.607 38.5798 Q210.996 38.5798 209.167 42.1446 Q207.362 45.6862 207.362 52.8158 Q207.362 59.9223 209.167 63.4871 Q210.996 67.0287 214.607 67.0287 Q218.241 67.0287 220.047 63.4871 Q221.875 59.9223 221.875 52.8158 Q221.875 45.6862 220.047 42.1446 Q218.241 38.5798 214.607 38.5798 M214.607 34.8761 Q220.417 34.8761 223.473 39.4826 Q226.551 44.0659 226.551 52.8158 Q226.551 61.5426 223.473 66.1491 Q220.417 70.7324 214.607 70.7324 Q208.797 70.7324 205.718 66.1491 Q202.662 61.5426 202.662 52.8158 Q202.662 44.0659 205.718 39.4826 Q208.797 34.8761 214.607 34.8761 Z" fill="#ffffff" fill-rule="nonzero" fill-opacity="1" /><path clip-path="url(#clip250)" d="M16.4842 949.593 L16.4842 943.1 L56.6518 933.106 L16.4842 923.144 L16.4842 915.918 L56.6518 905.924 L16.4842 895.962 L16.4842 889.437 L64.0042 901.373 L64.0042 909.457 L22.7544 919.483 L64.0042 929.605 L64.0042 937.689 L16.4842 949.593 Z" fill="#ffffff" fill-rule="nonzero" fill-opacity="1" /><path clip-path="url(#clip250)" d="M44.7161 854.489 L47.5806 854.489 L47.5806 881.416 Q53.6281 881.034 56.8109 877.788 Q59.9619 874.51 59.9619 868.685 Q59.9619 865.311 59.1344 862.16 Q58.3069 858.977 56.6518 855.858 L62.1899 855.858 Q63.5267 859.009 64.227 862.319 Q64.9272 865.629 64.9272 869.035 Q64.9272 877.565 59.9619 882.562 Q54.9967 887.527 46.5303 887.527 Q37.7774 887.527 32.6531 882.817 Q27.4968 878.074 27.4968 870.054 Q27.4968 862.86 32.1438 858.691 Q36.7589 854.489 44.7161 854.489 M42.9973 860.346 Q38.1912 860.41 35.3266 863.051 Q32.4621 865.661 32.4621 869.99 Q32.4621 874.891 35.2312 877.852 Q38.0002 880.78 43.0292 881.225 L42.9973 860.346 Z" fill="#ffffff" fill-rule="nonzero" fill-opacity="1" /><path clip-path="url(#clip250)" d="M46.0847 828.676 Q46.0847 835.774 47.7079 838.511 Q49.3312 841.249 53.2461 841.249 Q56.3653 841.249 58.2114 839.212 Q60.0256 837.143 60.0256 833.61 Q60.0256 828.74 56.5881 825.812 Q53.1188 822.852 47.3897 822.852 L46.0847 822.852 L46.0847 828.676 M43.6657 816.995 L64.0042 816.995 L64.0042 822.852 L58.5933 822.852 Q61.8398 824.857 63.3994 827.849 Q64.9272 830.841 64.9272 835.169 Q64.9272 840.644 61.8716 843.89 Q58.7843 847.105 53.6281 847.105 Q47.6125 847.105 44.5569 843.095 Q41.5014 839.053 41.5014 831.064 L41.5014 822.852 L40.9285 822.852 Q36.8862 822.852 34.6901 825.525 Q32.4621 828.167 32.4621 832.973 Q32.4621 836.029 33.1941 838.925 Q33.9262 841.822 35.3903 844.495 L29.9795 844.495 Q28.7381 841.281 28.1334 838.257 Q27.4968 835.233 27.4968 832.369 Q27.4968 824.634 31.5072 820.815 Q35.5176 816.995 43.6657 816.995 Z" fill="#ffffff" fill-rule="nonzero" fill-opacity="1" /><path clip-path="url(#clip250)" d="M14.479 804.932 L14.479 799.076 L64.0042 799.076 L64.0042 804.932 L14.479 804.932 Z" fill="#ffffff" fill-rule="nonzero" fill-opacity="1" /><path clip-path="url(#clip250)" d="M18.2347 781.029 L28.3562 781.029 L28.3562 768.966 L32.9077 768.966 L32.9077 781.029 L52.2594 781.029 Q56.6199 781.029 57.8613 779.851 Q59.1026 778.642 59.1026 774.982 L59.1026 768.966 L64.0042 768.966 L64.0042 774.982 Q64.0042 781.761 61.4897 784.339 Q58.9434 786.917 52.2594 786.917 L32.9077 786.917 L32.9077 791.214 L28.3562 791.214 L28.3562 786.917 L18.2347 786.917 L18.2347 781.029 Z" fill="#ffffff" fill-rule="nonzero" fill-opacity="1" /><path clip-path="url(#clip250)" d="M42.4881 731.631 L64.0042 731.631 L64.0042 737.488 L42.679 737.488 Q37.6183 737.488 35.1038 739.461 Q32.5894 741.434 32.5894 745.381 Q32.5894 750.124 35.6131 752.861 Q38.6368 755.598 43.8567 755.598 L64.0042 755.598 L64.0042 761.486 L14.479 761.486 L14.479 755.598 L33.8944 755.598 Q30.6797 753.497 29.0883 750.665 Q27.4968 747.8 27.4968 744.076 Q27.4968 737.933 31.3163 734.782 Q35.1038 731.631 42.4881 731.631 Z" fill="#ffffff" fill-rule="nonzero" fill-opacity="1" /><path clip-path="url(#clip250)" d="M14.5426 685.162 Q21.8632 689.427 29.0246 691.495 Q36.186 693.564 43.5384 693.564 Q50.8908 693.564 58.1159 691.495 Q65.3091 689.395 72.5979 685.162 L72.5979 690.254 Q65.1182 695.028 57.8931 697.416 Q50.668 699.771 43.5384 699.771 Q36.4406 699.771 29.2474 697.416 Q22.0542 695.06 14.5426 690.254 L14.5426 685.162 Z" fill="#ffffff" fill-rule="nonzero" fill-opacity="1" /><path clip-path="url(#clip250)" d="M16.4842 674.276 L16.4842 667.815 L45.3526 667.815 Q52.9915 667.815 56.3653 665.046 Q59.7073 662.277 59.7073 656.07 Q59.7073 649.896 56.3653 647.127 Q52.9915 644.357 45.3526 644.357 L16.4842 644.357 L16.4842 637.896 L46.1484 637.896 Q55.4423 637.896 60.1847 642.511 Q64.9272 647.095 64.9272 656.07 Q64.9272 665.078 60.1847 669.693 Q55.4423 674.276 46.1484 674.276 L16.4842 674.276 Z" fill="#ffffff" fill-rule="nonzero" fill-opacity="1" /><path clip-path="url(#clip250)" d="M18.0438 597.347 L24.314 597.347 Q22.5634 601.007 21.704 604.253 Q20.8447 607.5 20.8447 610.524 Q20.8447 615.775 22.8817 618.64 Q24.9187 621.473 28.6745 621.473 Q31.8255 621.473 33.4488 619.595 Q35.0402 617.685 36.0269 612.402 L36.8226 608.518 Q38.1912 601.325 41.6605 597.92 Q45.098 594.482 50.8908 594.482 Q57.7976 594.482 61.3624 599.129 Q64.9272 603.744 64.9272 612.688 Q64.9272 616.062 64.1633 619.881 Q63.3994 623.669 61.9035 627.743 L55.2831 627.743 Q57.4793 623.828 58.5933 620.072 Q59.7073 616.316 59.7073 612.688 Q59.7073 607.182 57.543 604.19 Q55.3786 601.198 51.3682 601.198 Q47.8671 601.198 45.8937 603.362 Q43.9204 605.495 42.9337 610.396 L42.1698 614.311 Q40.7375 621.505 37.682 624.719 Q34.6264 627.934 29.1837 627.934 Q22.8817 627.934 19.2532 623.51 Q15.6248 619.054 15.6248 611.256 Q15.6248 607.914 16.2295 604.444 Q16.8343 600.975 18.0438 597.347 Z" fill="#ffffff" fill-rule="nonzero" fill-opacity="1" /><path clip-path="url(#clip250)" d="M21.7677 578.027 L58.7206 578.027 L58.7206 570.261 Q58.7206 560.426 54.2646 555.874 Q49.8086 551.291 40.1964 551.291 Q30.6479 551.291 26.2237 555.874 Q21.7677 560.426 21.7677 570.261 L21.7677 578.027 M16.4842 584.456 L16.4842 571.247 Q16.4842 557.434 22.2451 550.973 Q27.9743 544.511 40.1964 544.511 Q52.4822 544.511 58.2432 551.004 Q64.0042 557.497 64.0042 571.247 L64.0042 584.456 L16.4842 584.456 Z" fill="#ffffff" fill-rule="nonzero" fill-opacity="1" /><path clip-path="url(#clip250)" d="M14.5426 535.44 L14.5426 530.348 Q22.0542 525.573 29.2474 523.218 Q36.4406 520.831 43.5384 520.831 Q50.668 520.831 57.8931 523.218 Q65.1182 525.573 72.5979 530.348 L72.5979 535.44 Q65.3091 531.207 58.1159 529.138 Q50.8908 527.037 43.5384 527.037 Q36.186 527.037 29.0246 529.138 Q21.8632 531.207 14.5426 535.44 Z" fill="#ffffff" fill-rule="nonzero" fill-opacity="1" /><polyline clip-path="url(#clip252)" style="stroke:#f9da57; stroke-linecap:round; stroke-linejoin:round; stroke-width:12; stroke-opacity:1; fill:none" points="321.708,1306.81 331.327,1303.48 340.946,1300.12 350.565,1329.23 360.184,1313.16 369.803,1316.01 379.422,1317.17 389.041,1270.31 398.66,1302.02 408.279,1332.14 417.898,1328.33 427.517,1312.85 437.136,1315.34 446.755,1289.13 456.374,1308.44 465.993,1299.32 475.612,1292.73 485.231,1275.08 494.85,1247.88 504.469,1252 514.088,1237.06 523.707,1262.87 533.326,1300.18 542.945,1288.91 552.564,1280.85 562.182,1292.19 571.801,1308.27 581.42,1309.88 591.039,1373.2 600.658,1384.24 610.277,1344.72 619.896,1330.47 629.515,1296.37 639.134,1299.18 648.753,1284.69 658.372,1249.57 667.991,1264.61 677.61,1257.74 687.229,1249.75 696.848,1204.74 706.467,1168.15 716.086,1113.01 725.705,1094.51 735.324,1068.48 744.943,1011.78 754.562,972.836 764.181,970.487 773.8,980.03 783.419,952.684 793.038,977.138 802.657,983.151 812.276,970.745 821.895,963.618 831.514,934.602 841.133,906.194 850.752,928.273 860.371,937.623 869.99,928.075 879.609,895.324 889.228,851.322 898.847,819.25 908.466,790.03 918.085,776.412 927.704,776.825 937.323,753.008 946.942,744.828 956.561,719.61 966.18,748.157 975.799,733.544 985.418,735.282 995.037,758.279 1004.66,740.324 1014.27,737.097 1023.89,737.236 1033.51,704.448 1043.13,747.644 1052.75,736.153 1062.37,725.233 1071.99,742.123 1081.61,729.118 1091.23,734.889 1100.85,793.803 1110.46,786.428 1120.08,789.806 1129.7,779.18 1139.32,733.168 1148.94,727.399 1158.56,735.606 1168.18,697.111 1177.8,639.899 1187.42,671.947 1197.04,655.821 1206.65,621.062 1216.27,611.455 1225.89,577.711 1235.51,548.42 1245.13,544.693 1254.75,595.903 1264.37,675.48 1273.99,686.502 1283.61,691.376 1293.23,731.005 1302.84,755.85 1312.46,747.22 1322.08,719.196 1331.7,733.879 1341.32,697.324 1350.94,660.843 1360.56,745.186 1370.18,751.603 1379.8,742.674 1389.41,713.09 1399.03,740.357 1408.65,700.58 1418.27,694.466 1427.89,662.795 1437.51,648.004 1447.13,685.096 1456.75,671.552 1466.37,705.325 1475.99,751.791 1485.6,723.61 1495.22,718.277 1504.84,698.677 1514.46,690.728 1524.08,649.969 1533.7,603.241 1543.32,622.411 1552.94,622.119 1562.56,581.503 1572.18,539.325 1581.79,534.913 1591.41,524.813 1601.03,458.347 1610.65,427.664 1620.27,455.522 1629.89,540.416 1639.51,556.187 1649.13,559.262 1658.75,559.926 1668.37,629.277 1677.98,590.411 1687.6,594.064 1697.22,590.912 1706.84,551.069 1716.46,533.511 1726.08,567.167 1735.7,664.123 1745.32,649.279 1754.94,632.581 1764.56,586.679 1774.17,567.659 1783.79,542.857 1793.41,524.572 1803.03,525.348 1812.65,505.46 1822.27,448.733 1831.89,428.263 1841.51,411.78 1851.13,416.82 1860.75,461.221 1870.36,422.624 1879.98,402.013 1889.6,408.163 1899.22,426.833 1908.84,408.847 1918.46,415.712 1928.08,425.025 1937.7,425.477 1947.32,400.442 1956.93,441.18 1966.55,437.362 1976.17,421.265 1985.79,454.229 1995.41,368.09 2005.03,303.316 2014.65,280.917 2024.27,303.794 2033.89,312.775 2043.51,281.036 2053.12,241.613 2062.74,237.851 2072.36,238.01 2081.98,225.145 2091.6,211.964 2101.22,211.253 2110.84,232.601 2120.46,210.326 2130.08,242.35 2139.7,270.763 2149.31,263.952 2158.93,288.812 2168.55,316.023 2178.17,314.515 2187.79,311.98 2197.41,249.727 2207.03,242.671 2216.65,202.16 2226.27,185.338 2235.89,163.765 2245.5,135.105 2255.12,144.146 2264.74,137.973 2274.36,161.084 2283.98,150.865 2293.6,144.445 "/>
<polyline clip-path="url(#clip252)" style="stroke:#c0d6df; stroke-linecap:round; stroke-linejoin:round; stroke-width:4; stroke-opacity:1; fill:none" stroke-dasharray="16, 10" points="321.708,1306.81 331.327,1321.16 340.946,1326.24 350.565,1284.7 360.184,1267.97 369.803,1245.07 379.422,1248.98 389.041,1235.4 398.66,1253.27 408.279,1286.79 417.898,1255.06 427.517,1199.33 437.136,1159.7 446.755,1155.65 456.374,1128.05 465.993,1124.86 475.612,1116.9 485.231,1100.3 494.85,1082.97 504.469,1136.06 514.088,1128.74 523.707,1060.12 533.326,1060.62 542.945,1059.86 552.564,1015.38 562.182,1006.15 571.801,982.006 581.42,969.048 591.039,1046.49 600.658,1020.49 610.277,977.32 619.896,975.62 629.515,1023.47 639.134,1030 648.753,923.219 658.372,895.397 667.991,909.903 677.61,918.959 687.229,921.047 696.848,900.685 706.467,865.483 716.086,849.7 725.705,900.528 735.324,879.641 744.943,833.27 754.562,835.714 764.181,871.66 773.8,824.541 783.419,811.304 793.038,830.374 802.657,878.857 812.276,843.419 821.895,836.14 831.514,794.273 841.133,741.877 850.752,753.085 860.371,768.571 869.99,772.975 879.609,760.94 889.228,735.384 898.847,744.612 908.466,787.628 918.085,775.839 927.704,794.75 937.323,797.185 946.942,783.721 956.561,796.505 966.18,834.259 975.799,809.899 985.418,853.963 995.037,896.665 1004.66,941.044 1014.27,962.673 1023.89,977.857 1033.51,1019.15 1043.13,998.057 1052.75,938.332 1062.37,928.832 1071.99,968.192 1081.61,900.002 1091.23,883.505 1100.85,923.789 1110.46,958.146 1120.08,949.879 1129.7,872.801 1139.32,829.24 1148.94,798.699 1158.56,804.844 1168.18,781.495 1177.8,762.547 1187.42,760.515 1197.04,747.429 1206.65,685.937 1216.27,666.928 1225.89,677.507 1235.51,662.228 1245.13,660.416 1254.75,667.525 1264.37,686.335 1273.99,676.825 1283.61,672.485 1293.23,701.396 1302.84,732.596 1312.46,730.907 1322.08,701.159 1331.7,695.814 1341.32,637.756 1350.94,618.692 1360.56,617.676 1370.18,615.492 1379.8,609.732 1389.41,540.237 1399.03,537.608 1408.65,539.624 1418.27,500.434 1427.89,475.986 1437.51,477.869 1447.13,509.978 1456.75,512.447 1466.37,516.379 1475.99,507.431 1485.6,496.572 1495.22,495.378 1504.84,507.323 1514.46,485.29 1524.08,448.555 1533.7,413.663 1543.32,396.56 1552.94,386.592 1562.56,351.261 1572.18,365.006 1581.79,340.585 1591.41,324.594 1601.03,306.158 1610.65,360.201 1620.27,406.349 1629.89,448.173 1639.51,413.932 1649.13,400.752 1658.75,508.775 1668.37,542.21 1677.98,517.45 1687.6,503.351 1697.22,531.944 1706.84,454.377 1716.46,505.167 1726.08,640.939 1735.7,791.132 1745.32,732.764 1754.94,733.601 1764.56,688.133 1774.17,646.836 1783.79,630.769 1793.41,567.906 1803.03,525.882 1812.65,439.121 1822.27,414.805 1831.89,374.297 1841.51,356.378 1851.13,343.528 1860.75,366.247 1870.36,336.956 1879.98,332.334 1889.6,334.499 1899.22,361.716 1908.84,343.319 1918.46,328.527 1928.08,396.454 1937.7,435.596 1947.32,453.381 1956.93,528.883 1966.55,503.424 1976.17,481.834 1985.79,465.908 1995.41,377.57 2005.03,328.654 2014.65,325.359 2024.27,307.844 2033.89,307.369 2043.51,242.13 2053.12,262.533 2062.74,245.446 2072.36,235.548 2081.98,233.914 2091.6,216.442 2101.22,214.525 2110.84,216.248 2120.46,250.166 2130.08,254.719 2139.7,266.155 2149.31,226.977 2158.93,245.758 2168.55,219.778 2178.17,175.734 2187.79,174.286 2197.41,143.031 2207.03,97.8042 2216.65,115.693 2226.27,118.927 2235.89,95.4237 2245.5,86.1857 2255.12,99.5068 2264.74,102.391 2274.36,146.942 2283.98,142.287 2293.6,124.444 "/>
<path clip-path="url(#clip250)" d="M332.225 248.629 L1090.13 248.629 L1090.13 93.1086 L332.225 93.1086  Z" fill="#31343a" fill-rule="evenodd" fill-opacity="1"/>
<polyline clip-path="url(#clip250)" style="stroke:#000000; stroke-linecap:round; stroke-linejoin:round; stroke-width:4; stroke-opacity:0; fill:none" points="332.225,248.629 1090.13,248.629 1090.13,93.1086 332.225,93.1086 332.225,248.629 "/>
<polyline clip-path="url(#clip250)" style="stroke:#f9da57; stroke-linecap:round; stroke-linejoin:round; stroke-width:12; stroke-opacity:1; fill:none" points="355.449,144.949 494.796,144.949 "/>
<path clip-path="url(#clip250)" d="M534.039 130.84 Q528.947 130.84 525.937 134.636 Q522.951 138.432 522.951 144.983 Q522.951 151.511 525.937 155.307 Q528.947 159.104 534.039 159.104 Q539.132 159.104 542.095 155.307 Q545.081 151.511 545.081 144.983 Q545.081 138.432 542.095 134.636 Q539.132 130.84 534.039 130.84 M534.039 127.044 Q541.308 127.044 545.659 131.928 Q550.011 136.789 550.011 144.983 Q550.011 153.155 545.659 158.039 Q541.308 162.9 534.039 162.9 Q526.747 162.9 522.373 158.039 Q518.021 153.178 518.021 144.983 Q518.021 136.789 522.373 131.928 Q526.747 127.044 534.039 127.044 Z" fill="#ffffff" fill-rule="nonzero" fill-opacity="1" /><path clip-path="url(#clip250)" d="M571.354 130.84 Q566.261 130.84 563.252 134.636 Q560.266 138.432 560.266 144.983 Q560.266 151.511 563.252 155.307 Q566.261 159.104 571.354 159.104 Q576.446 159.104 579.409 155.307 Q582.395 151.511 582.395 144.983 Q582.395 138.432 579.409 134.636 Q576.446 130.84 571.354 130.84 M571.354 127.044 Q578.622 127.044 582.974 131.928 Q587.326 136.789 587.326 144.983 Q587.326 153.155 582.974 158.039 Q578.622 162.9 571.354 162.9 Q564.062 162.9 559.687 158.039 Q555.335 153.178 555.335 144.983 Q555.335 136.789 559.687 131.928 Q564.062 127.044 571.354 127.044 Z" fill="#ffffff" fill-rule="nonzero" fill-opacity="1" /><path clip-path="url(#clip250)" d="M615.358 128.803 L615.358 133.363 Q612.696 132.09 610.335 131.465 Q607.974 130.84 605.775 130.84 Q601.955 130.84 599.872 132.321 Q597.812 133.803 597.812 136.534 Q597.812 138.826 599.178 140.007 Q600.567 141.164 604.409 141.882 L607.233 142.46 Q612.465 143.456 614.941 145.979 Q617.441 148.479 617.441 152.692 Q617.441 157.715 614.062 160.307 Q610.705 162.9 604.201 162.9 Q601.747 162.9 598.969 162.344 Q596.215 161.789 593.252 160.701 L593.252 155.886 Q596.099 157.483 598.83 158.293 Q601.562 159.104 604.201 159.104 Q608.205 159.104 610.381 157.53 Q612.557 155.956 612.557 153.039 Q612.557 150.493 610.983 149.057 Q609.432 147.622 605.867 146.905 L603.02 146.349 Q597.789 145.307 595.451 143.085 Q593.113 140.863 593.113 136.905 Q593.113 132.321 596.33 129.682 Q599.571 127.044 605.242 127.044 Q607.673 127.044 610.196 127.483 Q612.719 127.923 615.358 128.803 Z" fill="#ffffff" fill-rule="nonzero" fill-opacity="1" /><path clip-path="url(#clip250)" d="M625.636 156.349 L630.52 156.349 L630.52 162.229 L625.636 162.229 L625.636 156.349 M625.636 137.715 L630.52 137.715 L630.52 143.594 L625.636 143.594 L625.636 137.715 Z" fill="#ffffff" fill-rule="nonzero" fill-opacity="1" /><path clip-path="url(#clip250)" d="M660.45 131.511 L660.45 144.497 L666.33 144.497 Q669.594 144.497 671.376 142.807 Q673.159 141.118 673.159 137.993 Q673.159 134.891 671.376 133.201 Q669.594 131.511 666.33 131.511 L660.45 131.511 M655.775 127.669 L666.33 127.669 Q672.14 127.669 675.103 130.307 Q678.089 132.923 678.089 137.993 Q678.089 143.108 675.103 145.724 Q672.14 148.34 666.33 148.34 L660.45 148.34 L660.45 162.229 L655.775 162.229 L655.775 127.669 Z" fill="#ffffff" fill-rule="nonzero" fill-opacity="1" /><path clip-path="url(#clip250)" d="M692.534 139.289 Q689.108 139.289 687.117 141.974 Q685.126 144.636 685.126 149.289 Q685.126 153.942 687.094 156.627 Q689.085 159.289 692.534 159.289 Q695.936 159.289 697.927 156.604 Q699.918 153.918 699.918 149.289 Q699.918 144.682 697.927 141.997 Q695.936 139.289 692.534 139.289 M692.534 135.678 Q698.089 135.678 701.26 139.289 Q704.432 142.9 704.432 149.289 Q704.432 155.655 701.26 159.289 Q698.089 162.9 692.534 162.9 Q686.955 162.9 683.784 159.289 Q680.636 155.655 680.636 149.289 Q680.636 142.9 683.784 139.289 Q686.955 135.678 692.534 135.678 Z" fill="#ffffff" fill-rule="nonzero" fill-opacity="1" /><path clip-path="url(#clip250)" d="M726.515 140.284 Q725.797 139.868 724.941 139.682 Q724.108 139.474 723.089 139.474 Q719.478 139.474 717.534 141.835 Q715.612 144.173 715.612 148.571 L715.612 162.229 L711.33 162.229 L711.33 136.303 L715.612 136.303 L715.612 140.331 Q716.955 137.969 719.108 136.835 Q721.26 135.678 724.339 135.678 Q724.779 135.678 725.311 135.747 Q725.844 135.794 726.492 135.909 L726.515 140.284 Z" fill="#ffffff" fill-rule="nonzero" fill-opacity="1" /><path clip-path="url(#clip250)" d="M735.195 128.942 L735.195 136.303 L743.969 136.303 L743.969 139.613 L735.195 139.613 L735.195 153.687 Q735.195 156.858 736.052 157.761 Q736.932 158.664 739.594 158.664 L743.969 158.664 L743.969 162.229 L739.594 162.229 Q734.663 162.229 732.788 160.4 Q730.913 158.548 730.913 153.687 L730.913 139.613 L727.788 139.613 L727.788 136.303 L730.913 136.303 L730.913 128.942 L735.195 128.942 Z" fill="#ffffff" fill-rule="nonzero" fill-opacity="1" /><path clip-path="url(#clip250)" d="M762.695 126.21 L762.695 129.752 L758.621 129.752 Q756.33 129.752 755.427 130.678 Q754.547 131.604 754.547 134.011 L754.547 136.303 L761.561 136.303 L761.561 139.613 L754.547 139.613 L754.547 162.229 L750.265 162.229 L750.265 139.613 L746.191 139.613 L746.191 136.303 L750.265 136.303 L750.265 134.497 Q750.265 130.169 752.279 128.201 Q754.293 126.21 758.668 126.21 L762.695 126.21 Z" fill="#ffffff" fill-rule="nonzero" fill-opacity="1" /><path clip-path="url(#clip250)" d="M776.306 139.289 Q772.88 139.289 770.89 141.974 Q768.899 144.636 768.899 149.289 Q768.899 153.942 770.867 156.627 Q772.857 159.289 776.306 159.289 Q779.709 159.289 781.7 156.604 Q783.691 153.918 783.691 149.289 Q783.691 144.682 781.7 141.997 Q779.709 139.289 776.306 139.289 M776.306 135.678 Q781.862 135.678 785.033 139.289 Q788.204 142.9 788.204 149.289 Q788.204 155.655 785.033 159.289 Q781.862 162.9 776.306 162.9 Q770.728 162.9 767.556 159.289 Q764.408 155.655 764.408 149.289 Q764.408 142.9 767.556 139.289 Q770.728 135.678 776.306 135.678 Z" fill="#ffffff" fill-rule="nonzero" fill-opacity="1" /><path clip-path="url(#clip250)" d="M795.265 126.21 L799.524 126.21 L799.524 162.229 L795.265 162.229 L795.265 126.21 Z" fill="#ffffff" fill-rule="nonzero" fill-opacity="1" /><path clip-path="url(#clip250)" d="M808.436 136.303 L812.695 136.303 L812.695 162.229 L808.436 162.229 L808.436 136.303 M808.436 126.21 L812.695 126.21 L812.695 131.604 L808.436 131.604 L808.436 126.21 Z" fill="#ffffff" fill-rule="nonzero" fill-opacity="1" /><path clip-path="url(#clip250)" d="M831.653 139.289 Q828.227 139.289 826.237 141.974 Q824.246 144.636 824.246 149.289 Q824.246 153.942 826.213 156.627 Q828.204 159.289 831.653 159.289 Q835.056 159.289 837.047 156.604 Q839.037 153.918 839.037 149.289 Q839.037 144.682 837.047 141.997 Q835.056 139.289 831.653 139.289 M831.653 135.678 Q837.209 135.678 840.38 139.289 Q843.551 142.9 843.551 149.289 Q843.551 155.655 840.38 159.289 Q837.209 162.9 831.653 162.9 Q826.075 162.9 822.903 159.289 Q819.755 155.655 819.755 149.289 Q819.755 142.9 822.903 139.289 Q826.075 135.678 831.653 135.678 Z" fill="#ffffff" fill-rule="nonzero" fill-opacity="1" /><path clip-path="url(#clip250)" d="M882.255 146.025 Q883.759 146.534 885.171 148.201 Q886.607 149.868 888.042 152.784 L892.787 162.229 L887.764 162.229 L883.343 153.363 Q881.63 149.891 880.009 148.756 Q878.412 147.622 875.635 147.622 L870.542 147.622 L870.542 162.229 L865.866 162.229 L865.866 127.669 L876.422 127.669 Q882.347 127.669 885.264 130.145 Q888.181 132.622 888.181 137.622 Q888.181 140.886 886.653 143.039 Q885.148 145.192 882.255 146.025 M870.542 131.511 L870.542 143.78 L876.422 143.78 Q879.801 143.78 881.514 142.229 Q883.25 140.655 883.25 137.622 Q883.25 134.59 881.514 133.062 Q879.801 131.511 876.422 131.511 L870.542 131.511 Z" fill="#ffffff" fill-rule="nonzero" fill-opacity="1" /><path clip-path="url(#clip250)" d="M914.245 140.701 L943.921 140.701 L943.921 144.59 L914.245 144.59 L914.245 140.701 M914.245 150.145 L943.921 150.145 L943.921 154.081 L914.245 154.081 L914.245 150.145 Z" fill="#ffffff" fill-rule="nonzero" fill-opacity="1" /><path clip-path="url(#clip250)" d="M979.083 130.747 Q975.472 130.747 973.643 134.312 Q971.838 137.854 971.838 144.983 Q971.838 152.09 973.643 155.655 Q975.472 159.196 979.083 159.196 Q982.717 159.196 984.523 155.655 Q986.352 152.09 986.352 144.983 Q986.352 137.854 984.523 134.312 Q982.717 130.747 979.083 130.747 M979.083 127.044 Q984.893 127.044 987.949 131.65 Q991.027 136.233 991.027 144.983 Q991.027 153.71 987.949 158.317 Q984.893 162.9 979.083 162.9 Q973.273 162.9 970.194 158.317 Q967.139 153.71 967.139 144.983 Q967.139 136.233 970.194 131.65 Q973.273 127.044 979.083 127.044 Z" fill="#ffffff" fill-rule="nonzero" fill-opacity="1" /><path clip-path="url(#clip250)" d="M999.245 156.349 L1004.13 156.349 L1004.13 162.229 L999.245 162.229 L999.245 156.349 Z" fill="#ffffff" fill-rule="nonzero" fill-opacity="1" /><path clip-path="url(#clip250)" d="M1024.31 130.747 Q1020.7 130.747 1018.87 134.312 Q1017.07 137.854 1017.07 144.983 Q1017.07 152.09 1018.87 155.655 Q1020.7 159.196 1024.31 159.196 Q1027.95 159.196 1029.75 155.655 Q1031.58 152.09 1031.58 144.983 Q1031.58 137.854 1029.75 134.312 Q1027.95 130.747 1024.31 130.747 M1024.31 127.044 Q1030.12 127.044 1033.18 131.65 Q1036.26 136.233 1036.26 144.983 Q1036.26 153.71 1033.18 158.317 Q1030.12 162.9 1024.31 162.9 Q1018.5 162.9 1015.43 158.317 Q1012.37 153.71 1012.37 144.983 Q1012.37 136.233 1015.43 131.65 Q1018.5 127.044 1024.31 127.044 Z" fill="#ffffff" fill-rule="nonzero" fill-opacity="1" /><path clip-path="url(#clip250)" d="M1057.32 131.743 L1045.52 150.192 L1057.32 150.192 L1057.32 131.743 M1056.1 127.669 L1061.98 127.669 L1061.98 150.192 L1066.91 150.192 L1066.91 154.081 L1061.98 154.081 L1061.98 162.229 L1057.32 162.229 L1057.32 154.081 L1041.72 154.081 L1041.72 149.567 L1056.1 127.669 Z" fill="#ffffff" fill-rule="nonzero" fill-opacity="1" /><polyline clip-path="url(#clip250)" style="stroke:#c0d6df; stroke-linecap:round; stroke-linejoin:round; stroke-width:4; stroke-opacity:1; fill:none" stroke-dasharray="16, 10" points="355.449,196.789 494.796,196.789 "/>
<path clip-path="url(#clip250)" d="M534.039 182.68 Q528.947 182.68 525.937 186.476 Q522.951 190.272 522.951 196.823 Q522.951 203.351 525.937 207.147 Q528.947 210.944 534.039 210.944 Q539.132 210.944 542.095 207.147 Q545.081 203.351 545.081 196.823 Q545.081 190.272 542.095 186.476 Q539.132 182.68 534.039 182.68 M534.039 178.884 Q541.308 178.884 545.659 183.768 Q550.011 188.629 550.011 196.823 Q550.011 204.995 545.659 209.879 Q541.308 214.74 534.039 214.74 Q526.747 214.74 522.373 209.879 Q518.021 205.018 518.021 196.823 Q518.021 188.629 522.373 183.768 Q526.747 178.884 534.039 178.884 Z" fill="#ffffff" fill-rule="nonzero" fill-opacity="1" /><path clip-path="url(#clip250)" d="M571.354 182.68 Q566.261 182.68 563.252 186.476 Q560.266 190.272 560.266 196.823 Q560.266 203.351 563.252 207.147 Q566.261 210.944 571.354 210.944 Q576.446 210.944 579.409 207.147 Q582.395 203.351 582.395 196.823 Q582.395 190.272 579.409 186.476 Q576.446 182.68 571.354 182.68 M571.354 178.884 Q578.622 178.884 582.974 183.768 Q587.326 188.629 587.326 196.823 Q587.326 204.995 582.974 209.879 Q578.622 214.74 571.354 214.74 Q564.062 214.74 559.687 209.879 Q555.335 205.018 555.335 196.823 Q555.335 188.629 559.687 183.768 Q564.062 178.884 571.354 178.884 Z" fill="#ffffff" fill-rule="nonzero" fill-opacity="1" /><path clip-path="url(#clip250)" d="M615.358 180.643 L615.358 185.203 Q612.696 183.93 610.335 183.305 Q607.974 182.68 605.775 182.68 Q601.955 182.68 599.872 184.161 Q597.812 185.643 597.812 188.374 Q597.812 190.666 599.178 191.847 Q600.567 193.004 604.409 193.722 L607.233 194.3 Q612.465 195.296 614.941 197.819 Q617.441 200.319 617.441 204.532 Q617.441 209.555 614.062 212.147 Q610.705 214.74 604.201 214.74 Q601.747 214.74 598.969 214.184 Q596.215 213.629 593.252 212.541 L593.252 207.726 Q596.099 209.323 598.83 210.133 Q601.562 210.944 604.201 210.944 Q608.205 210.944 610.381 209.37 Q612.557 207.796 612.557 204.879 Q612.557 202.333 610.983 200.897 Q609.432 199.462 605.867 198.745 L603.02 198.189 Q597.789 197.147 595.451 194.925 Q593.113 192.703 593.113 188.745 Q593.113 184.161 596.33 181.522 Q599.571 178.884 605.242 178.884 Q607.673 178.884 610.196 179.323 Q612.719 179.763 615.358 180.643 Z" fill="#ffffff" fill-rule="nonzero" fill-opacity="1" /><path clip-path="url(#clip250)" d="M625.636 208.189 L630.52 208.189 L630.52 214.069 L625.636 214.069 L625.636 208.189 M625.636 189.555 L630.52 189.555 L630.52 195.434 L625.636 195.434 L625.636 189.555 Z" fill="#ffffff" fill-rule="nonzero" fill-opacity="1" /><path clip-path="url(#clip250)" d="M676.492 180.643 L676.492 185.203 Q673.83 183.93 671.469 183.305 Q669.108 182.68 666.909 182.68 Q663.089 182.68 661.006 184.161 Q658.946 185.643 658.946 188.374 Q658.946 190.666 660.312 191.847 Q661.7 193.004 665.543 193.722 L668.367 194.3 Q673.599 195.296 676.075 197.819 Q678.575 200.319 678.575 204.532 Q678.575 209.555 675.196 212.147 Q671.839 214.74 665.335 214.74 Q662.881 214.74 660.103 214.184 Q657.349 213.629 654.386 212.541 L654.386 207.726 Q657.233 209.323 659.964 210.133 Q662.696 210.944 665.335 210.944 Q669.339 210.944 671.515 209.37 Q673.691 207.796 673.691 204.879 Q673.691 202.333 672.117 200.897 Q670.566 199.462 667.001 198.745 L664.154 198.189 Q658.923 197.147 656.585 194.925 Q654.247 192.703 654.247 188.745 Q654.247 184.161 657.464 181.522 Q660.705 178.884 666.376 178.884 Q668.807 178.884 671.33 179.323 Q673.853 179.763 676.492 180.643 Z" fill="#ffffff" fill-rule="nonzero" fill-opacity="1" /><path clip-path="url(#clip250)" d="M690.543 183.351 L690.543 196.337 L696.423 196.337 Q699.686 196.337 701.469 194.647 Q703.251 192.958 703.251 189.833 Q703.251 186.731 701.469 185.041 Q699.686 183.351 696.423 183.351 L690.543 183.351 M685.867 179.509 L696.423 179.509 Q702.233 179.509 705.196 182.147 Q708.182 184.763 708.182 189.833 Q708.182 194.948 705.196 197.564 Q702.233 200.18 696.423 200.18 L690.543 200.18 L690.543 214.069 L685.867 214.069 L685.867 179.509 Z" fill="#ffffff" fill-rule="nonzero" fill-opacity="1" /><path clip-path="url(#clip250)" d="M708.668 179.509 L713.691 179.509 L723.274 193.722 L732.788 179.509 L737.811 179.509 L725.589 197.61 L725.589 214.069 L720.89 214.069 L720.89 197.61 L708.668 179.509 Z" fill="#ffffff" fill-rule="nonzero" fill-opacity="1" /></svg>
