<?xml version="1.0" encoding="utf-8"?>
<svg xmlns="http://www.w3.org/2000/svg" xmlns:xlink="http://www.w3.org/1999/xlink" width="600" height="400" viewBox="0 0 2400 1600">
<defs>
  <clipPath id="clip560">
    <rect x="0" y="0" width="2400" height="1600"/>
  </clipPath>
</defs>
<path clip-path="url(#clip560)" d="M0 1600 L2400 1600 L2400 8.88178e-14 L0 8.88178e-14  Z" fill="#000000" fill-rule="evenodd" fill-opacity="1"/>
<defs>
  <clipPath id="clip561">
    <rect x="480" y="0" width="1681" height="1600"/>
  </clipPath>
</defs>
<path clip-path="url(#clip560)" d="M262.551 1423.18 L2352.76 1423.18 L2352.76 47.2441 L262.551 47.2441  Z" fill="#30343b" fill-rule="evenodd" fill-opacity="1"/>
<defs>
  <clipPath id="clip562">
    <rect x="262" y="47" width="2091" height="1377"/>
  </clipPath>
</defs>
<polyline clip-path="url(#clip562)" style="stroke:#ffffff; stroke-linecap:round; stroke-linejoin:round; stroke-width:2; stroke-opacity:0.1; fill:none" points="312.089,1423.18 312.089,47.2441 "/>
<polyline clip-path="url(#clip562)" style="stroke:#ffffff; stroke-linecap:round; stroke-linejoin:round; stroke-width:2; stroke-opacity:0.1; fill:none" points="793.038,1423.18 793.038,47.2441 "/>
<polyline clip-path="url(#clip562)" style="stroke:#ffffff; stroke-linecap:round; stroke-linejoin:round; stroke-width:2; stroke-opacity:0.1; fill:none" points="1273.99,1423.18 1273.99,47.2441 "/>
<polyline clip-path="url(#clip562)" style="stroke:#ffffff; stroke-linecap:round; stroke-linejoin:round; stroke-width:2; stroke-opacity:0.1; fill:none" points="1754.94,1423.18 1754.94,47.2441 "/>
<polyline clip-path="url(#clip562)" style="stroke:#ffffff; stroke-linecap:round; stroke-linejoin:round; stroke-width:2; stroke-opacity:0.1; fill:none" points="2235.89,1423.18 2235.89,47.2441 "/>
<polyline clip-path="url(#clip562)" style="stroke:#ffffff; stroke-linecap:round; stroke-linejoin:round; stroke-width:2; stroke-opacity:0.1; fill:none" points="312.089,1423.18 312.089,47.2441 "/>
<polyline clip-path="url(#clip562)" style="stroke:#ffffff; stroke-linecap:round; stroke-linejoin:round; stroke-width:2; stroke-opacity:0.1; fill:none" points="793.038,1423.18 793.038,47.2441 "/>
<polyline clip-path="url(#clip562)" style="stroke:#ffffff; stroke-linecap:round; stroke-linejoin:round; stroke-width:2; stroke-opacity:0.1; fill:none" points="1273.99,1423.18 1273.99,47.2441 "/>
<polyline clip-path="url(#clip562)" style="stroke:#ffffff; stroke-linecap:round; stroke-linejoin:round; stroke-width:2; stroke-opacity:0.1; fill:none" points="1754.94,1423.18 1754.94,47.2441 "/>
<polyline clip-path="url(#clip562)" style="stroke:#ffffff; stroke-linecap:round; stroke-linejoin:round; stroke-width:2; stroke-opacity:0.1; fill:none" points="2235.89,1423.18 2235.89,47.2441 "/>
<polyline clip-path="url(#clip562)" style="stroke:#ffffff; stroke-linecap:round; stroke-linejoin:round; stroke-width:2; stroke-opacity:0.1; fill:none" points="262.551,1372.41 2352.76,1372.41 "/>
<polyline clip-path="url(#clip562)" style="stroke:#ffffff; stroke-linecap:round; stroke-linejoin:round; stroke-width:2; stroke-opacity:0.1; fill:none" points="262.551,1067.09 2352.76,1067.09 "/>
<polyline clip-path="url(#clip562)" style="stroke:#ffffff; stroke-linecap:round; stroke-linejoin:round; stroke-width:2; stroke-opacity:0.1; fill:none" points="262.551,761.778 2352.76,761.778 "/>
<polyline clip-path="url(#clip562)" style="stroke:#ffffff; stroke-linecap:round; stroke-linejoin:round; stroke-width:2; stroke-opacity:0.1; fill:none" points="262.551,456.462 2352.76,456.462 "/>
<polyline clip-path="url(#clip562)" style="stroke:#ffffff; stroke-linecap:round; stroke-linejoin:round; stroke-width:2; stroke-opacity:0.1; fill:none" points="262.551,151.146 2352.76,151.146 "/>
<polyline clip-path="url(#clip562)" style="stroke:#ffffff; stroke-linecap:round; stroke-linejoin:round; stroke-width:2; stroke-opacity:0.1; fill:none" points="262.551,1372.41 2352.76,1372.41 "/>
<polyline clip-path="url(#clip562)" style="stroke:#ffffff; stroke-linecap:round; stroke-linejoin:round; stroke-width:2; stroke-opacity:0.1; fill:none" points="262.551,1067.09 2352.76,1067.09 "/>
<polyline clip-path="url(#clip562)" style="stroke:#ffffff; stroke-linecap:round; stroke-linejoin:round; stroke-width:2; stroke-opacity:0.1; fill:none" points="262.551,761.778 2352.76,761.778 "/>
<polyline clip-path="url(#clip562)" style="stroke:#ffffff; stroke-linecap:round; stroke-linejoin:round; stroke-width:2; stroke-opacity:0.1; fill:none" points="262.551,456.462 2352.76,456.462 "/>
<polyline clip-path="url(#clip562)" style="stroke:#ffffff; stroke-linecap:round; stroke-linejoin:round; stroke-width:2; stroke-opacity:0.1; fill:none" points="262.551,151.146 2352.76,151.146 "/>
<polyline clip-path="url(#clip560)" style="stroke:#ffffff; stroke-linecap:round; stroke-linejoin:round; stroke-width:4; stroke-opacity:1; fill:none" points="262.551,1423.18 2352.76,1423.18 "/>
<polyline clip-path="url(#clip560)" style="stroke:#ffffff; stroke-linecap:round; stroke-linejoin:round; stroke-width:4; stroke-opacity:1; fill:none" points="262.551,47.2441 2352.76,47.2441 "/>
<polyline clip-path="url(#clip560)" style="stroke:#ffffff; stroke-linecap:round; stroke-linejoin:round; stroke-width:4; stroke-opacity:1; fill:none" points="312.089,1423.18 312.089,1404.28 "/>
<polyline clip-path="url(#clip560)" style="stroke:#ffffff; stroke-linecap:round; stroke-linejoin:round; stroke-width:4; stroke-opacity:1; fill:none" points="793.038,1423.18 793.038,1404.28 "/>
<polyline clip-path="url(#clip560)" style="stroke:#ffffff; stroke-linecap:round; stroke-linejoin:round; stroke-width:4; stroke-opacity:1; fill:none" points="1273.99,1423.18 1273.99,1404.28 "/>
<polyline clip-path="url(#clip560)" style="stroke:#ffffff; stroke-linecap:round; stroke-linejoin:round; stroke-width:4; stroke-opacity:1; fill:none" points="1754.94,1423.18 1754.94,1404.28 "/>
<polyline clip-path="url(#clip560)" style="stroke:#ffffff; stroke-linecap:round; stroke-linejoin:round; stroke-width:4; stroke-opacity:1; fill:none" points="2235.89,1423.18 2235.89,1404.28 "/>
<polyline clip-path="url(#clip560)" style="stroke:#ffffff; stroke-linecap:round; stroke-linejoin:round; stroke-width:4; stroke-opacity:1; fill:none" points="312.089,47.2441 312.089,66.1417 "/>
<polyline clip-path="url(#clip560)" style="stroke:#ffffff; stroke-linecap:round; stroke-linejoin:round; stroke-width:4; stroke-opacity:1; fill:none" points="793.038,47.2441 793.038,66.1417 "/>
<polyline clip-path="url(#clip560)" style="stroke:#ffffff; stroke-linecap:round; stroke-linejoin:round; stroke-width:4; stroke-opacity:1; fill:none" points="1273.99,47.2441 1273.99,66.1417 "/>
<polyline clip-path="url(#clip560)" style="stroke:#ffffff; stroke-linecap:round; stroke-linejoin:round; stroke-width:4; stroke-opacity:1; fill:none" points="1754.94,47.2441 1754.94,66.1417 "/>
<polyline clip-path="url(#clip560)" style="stroke:#ffffff; stroke-linecap:round; stroke-linejoin:round; stroke-width:4; stroke-opacity:1; fill:none" points="2235.89,47.2441 2235.89,66.1417 "/>
<path clip-path="url(#clip560)" d="M312.089 1454.1 Q308.478 1454.1 306.649 1457.66 Q304.844 1461.2 304.844 1468.33 Q304.844 1475.44 306.649 1479.01 Q308.478 1482.55 312.089 1482.55 Q315.723 1482.55 317.529 1479.01 Q319.357 1475.44 319.357 1468.33 Q319.357 1461.2 317.529 1457.66 Q315.723 1454.1 312.089 1454.1 M312.089 1450.39 Q317.899 1450.39 320.955 1455 Q324.033 1459.58 324.033 1468.33 Q324.033 1477.06 320.955 1481.67 Q317.899 1486.25 312.089 1486.25 Q306.279 1486.25 303.2 1481.67 Q300.145 1477.06 300.145 1468.33 Q300.145 1459.58 303.2 1455 Q306.279 1450.39 312.089 1450.39 Z" fill="#ffffff" fill-rule="nonzero" fill-opacity="1" /><path clip-path="url(#clip560)" d="M767.737 1451.02 L786.094 1451.02 L786.094 1454.96 L772.02 1454.96 L772.02 1463.43 Q773.038 1463.08 774.057 1462.92 Q775.075 1462.73 776.094 1462.73 Q781.881 1462.73 785.26 1465.9 Q788.64 1469.08 788.64 1474.49 Q788.64 1480.07 785.168 1483.17 Q781.696 1486.25 775.376 1486.25 Q773.2 1486.25 770.932 1485.88 Q768.686 1485.51 766.279 1484.77 L766.279 1480.07 Q768.362 1481.2 770.584 1481.76 Q772.807 1482.32 775.284 1482.32 Q779.288 1482.32 781.626 1480.21 Q783.964 1478.1 783.964 1474.49 Q783.964 1470.88 781.626 1468.77 Q779.288 1466.67 775.284 1466.67 Q773.409 1466.67 771.534 1467.08 Q769.682 1467.5 767.737 1468.38 L767.737 1451.02 Z" fill="#ffffff" fill-rule="nonzero" fill-opacity="1" /><path clip-path="url(#clip560)" d="M807.853 1454.1 Q804.242 1454.1 802.413 1457.66 Q800.607 1461.2 800.607 1468.33 Q800.607 1475.44 802.413 1479.01 Q804.242 1482.55 807.853 1482.55 Q811.487 1482.55 813.293 1479.01 Q815.121 1475.44 815.121 1468.33 Q815.121 1461.2 813.293 1457.66 Q811.487 1454.1 807.853 1454.1 M807.853 1450.39 Q813.663 1450.39 816.718 1455 Q819.797 1459.58 819.797 1468.33 Q819.797 1477.06 816.718 1481.67 Q813.663 1486.25 807.853 1486.25 Q802.043 1486.25 798.964 1481.67 Q795.908 1477.06 795.908 1468.33 Q795.908 1459.58 798.964 1455 Q802.043 1450.39 807.853 1450.39 Z" fill="#ffffff" fill-rule="nonzero" fill-opacity="1" /><path clip-path="url(#clip560)" d="M1233.59 1481.64 L1241.23 1481.64 L1241.23 1455.28 L1232.92 1456.95 L1232.92 1452.69 L1241.19 1451.02 L1245.86 1451.02 L1245.86 1481.64 L1253.5 1481.64 L1253.5 1485.58 L1233.59 1485.58 L1233.59 1481.64 Z" fill="#ffffff" fill-rule="nonzero" fill-opacity="1" /><path clip-path="url(#clip560)" d="M1272.95 1454.1 Q1269.33 1454.1 1267.51 1457.66 Q1265.7 1461.2 1265.7 1468.33 Q1265.7 1475.44 1267.51 1479.01 Q1269.33 1482.55 1272.95 1482.55 Q1276.58 1482.55 1278.39 1479.01 Q1280.21 1475.44 1280.21 1468.33 Q1280.21 1461.2 1278.39 1457.66 Q1276.58 1454.1 1272.95 1454.1 M1272.95 1450.39 Q1278.76 1450.39 1281.81 1455 Q1284.89 1459.58 1284.89 1468.33 Q1284.89 1477.06 1281.81 1481.67 Q1278.76 1486.25 1272.95 1486.25 Q1267.14 1486.25 1264.06 1481.67 Q1261 1477.06 1261 1468.33 Q1261 1459.58 1264.06 1455 Q1267.14 1450.39 1272.95 1450.39 Z" fill="#ffffff" fill-rule="nonzero" fill-opacity="1" /><path clip-path="url(#clip560)" d="M1303.11 1454.1 Q1299.5 1454.1 1297.67 1457.66 Q1295.86 1461.2 1295.86 1468.33 Q1295.86 1475.44 1297.67 1479.01 Q1299.5 1482.55 1303.11 1482.55 Q1306.74 1482.55 1308.55 1479.01 Q1310.38 1475.44 1310.38 1468.33 Q1310.38 1461.2 1308.55 1457.66 Q1306.74 1454.1 1303.11 1454.1 M1303.11 1450.39 Q1308.92 1450.39 1311.97 1455 Q1315.05 1459.58 1315.05 1468.33 Q1315.05 1477.06 1311.97 1481.67 Q1308.92 1486.25 1303.11 1486.25 Q1297.3 1486.25 1294.22 1481.67 Q1291.16 1477.06 1291.16 1468.33 Q1291.16 1459.58 1294.22 1455 Q1297.3 1450.39 1303.11 1450.39 Z" fill="#ffffff" fill-rule="nonzero" fill-opacity="1" /><path clip-path="url(#clip560)" d="M1714.54 1481.64 L1722.18 1481.64 L1722.18 1455.28 L1713.87 1456.95 L1713.87 1452.69 L1722.14 1451.02 L1726.81 1451.02 L1726.81 1481.64 L1734.45 1481.64 L1734.45 1485.58 L1714.54 1485.58 L1714.54 1481.64 Z" fill="#ffffff" fill-rule="nonzero" fill-opacity="1" /><path clip-path="url(#clip560)" d="M1743.94 1451.02 L1762.3 1451.02 L1762.3 1454.96 L1748.22 1454.96 L1748.22 1463.43 Q1749.24 1463.08 1750.26 1462.92 Q1751.28 1462.73 1752.3 1462.73 Q1758.08 1462.73 1761.46 1465.9 Q1764.84 1469.08 1764.84 1474.49 Q1764.84 1480.07 1761.37 1483.17 Q1757.9 1486.25 1751.58 1486.25 Q1749.4 1486.25 1747.14 1485.88 Q1744.89 1485.51 1742.48 1484.77 L1742.48 1480.07 Q1744.57 1481.2 1746.79 1481.76 Q1749.01 1482.32 1751.49 1482.32 Q1755.49 1482.32 1757.83 1480.21 Q1760.17 1478.1 1760.17 1474.49 Q1760.17 1470.88 1757.83 1468.77 Q1755.49 1466.67 1751.49 1466.67 Q1749.61 1466.67 1747.74 1467.08 Q1745.89 1467.5 1743.94 1468.38 L1743.94 1451.02 Z" fill="#ffffff" fill-rule="nonzero" fill-opacity="1" /><path clip-path="url(#clip560)" d="M1784.06 1454.1 Q1780.45 1454.1 1778.62 1457.66 Q1776.81 1461.2 1776.81 1468.33 Q1776.81 1475.44 1778.62 1479.01 Q1780.45 1482.55 1784.06 1482.55 Q1787.69 1482.55 1789.5 1479.01 Q1791.32 1475.44 1791.32 1468.33 Q1791.32 1461.2 1789.5 1457.66 Q1787.69 1454.1 1784.06 1454.1 M1784.06 1450.39 Q1789.87 1450.39 1792.92 1455 Q1796 1459.58 1796 1468.33 Q1796 1477.06 1792.92 1481.67 Q1789.87 1486.25 1784.06 1486.25 Q1778.25 1486.25 1775.17 1481.67 Q1772.11 1477.06 1772.11 1468.33 Q1772.11 1459.58 1775.17 1455 Q1778.25 1450.39 1784.06 1450.39 Z" fill="#ffffff" fill-rule="nonzero" fill-opacity="1" /><path clip-path="url(#clip560)" d="M2199.58 1481.64 L2215.9 1481.64 L2215.9 1485.58 L2193.95 1485.58 L2193.95 1481.64 Q2196.61 1478.89 2201.2 1474.26 Q2205.8 1469.61 2206.98 1468.27 Q2209.23 1465.74 2210.11 1464.01 Q2211.01 1462.25 2211.01 1460.56 Q2211.01 1457.8 2209.07 1456.07 Q2207.15 1454.33 2204.05 1454.33 Q2201.85 1454.33 2199.39 1455.09 Q2196.96 1455.86 2194.18 1457.41 L2194.18 1452.69 Q2197.01 1451.55 2199.46 1450.97 Q2201.92 1450.39 2203.95 1450.39 Q2209.32 1450.39 2212.52 1453.08 Q2215.71 1455.77 2215.71 1460.26 Q2215.71 1462.39 2214.9 1464.31 Q2214.11 1466.2 2212.01 1468.8 Q2211.43 1469.47 2208.33 1472.69 Q2205.23 1475.88 2199.58 1481.64 Z" fill="#ffffff" fill-rule="nonzero" fill-opacity="1" /><path clip-path="url(#clip560)" d="M2235.71 1454.1 Q2232.1 1454.1 2230.27 1457.66 Q2228.47 1461.2 2228.47 1468.33 Q2228.47 1475.44 2230.27 1479.01 Q2232.1 1482.55 2235.71 1482.55 Q2239.35 1482.55 2241.15 1479.01 Q2242.98 1475.44 2242.98 1468.33 Q2242.98 1461.2 2241.15 1457.66 Q2239.35 1454.1 2235.71 1454.1 M2235.71 1450.39 Q2241.52 1450.39 2244.58 1455 Q2247.66 1459.58 2247.66 1468.33 Q2247.66 1477.06 2244.58 1481.67 Q2241.52 1486.25 2235.71 1486.25 Q2229.9 1486.25 2226.82 1481.67 Q2223.77 1477.06 2223.77 1468.33 Q2223.77 1459.58 2226.82 1455 Q2229.9 1450.39 2235.71 1450.39 Z" fill="#ffffff" fill-rule="nonzero" fill-opacity="1" /><path clip-path="url(#clip560)" d="M2265.87 1454.1 Q2262.26 1454.1 2260.43 1457.66 Q2258.63 1461.2 2258.63 1468.33 Q2258.63 1475.44 2260.43 1479.01 Q2262.26 1482.55 2265.87 1482.55 Q2269.51 1482.55 2271.31 1479.01 Q2273.14 1475.44 2273.14 1468.33 Q2273.14 1461.2 2271.31 1457.66 Q2269.51 1454.1 2265.87 1454.1 M2265.87 1450.39 Q2271.68 1450.39 2274.74 1455 Q2277.82 1459.58 2277.82 1468.33 Q2277.82 1477.06 2274.74 1481.67 Q2271.68 1486.25 2265.87 1486.25 Q2260.06 1486.25 2256.98 1481.67 Q2253.93 1477.06 2253.93 1468.33 Q2253.93 1459.58 2256.98 1455 Q2260.06 1450.39 2265.87 1450.39 Z" fill="#ffffff" fill-rule="nonzero" fill-opacity="1" /><path clip-path="url(#clip560)" d="M939 1520.52 L979.199 1520.52 L979.199 1525.93 L962.33 1525.93 L962.33 1568.04 L955.869 1568.04 L955.869 1525.93 L939 1525.93 L939 1520.52 Z" fill="#ffffff" fill-rule="nonzero" fill-opacity="1" /><path clip-path="url(#clip560)" d="M996.227 1537.87 Q995.241 1537.3 994.063 1537.04 Q992.917 1536.76 991.517 1536.76 Q986.551 1536.76 983.878 1540 Q981.236 1543.22 981.236 1549.27 L981.236 1568.04 L975.348 1568.04 L975.348 1532.4 L981.236 1532.4 L981.236 1537.93 Q983.082 1534.69 986.042 1533.13 Q989.002 1531.54 993.235 1531.54 Q993.84 1531.54 994.572 1531.63 Q995.304 1531.7 996.195 1531.85 L996.227 1537.87 Z" fill="#ffffff" fill-rule="nonzero" fill-opacity="1" /><path clip-path="url(#clip560)" d="M1018.57 1550.12 Q1011.47 1550.12 1008.74 1551.75 Q1006 1553.37 1006 1557.29 Q1006 1560.4 1008.04 1562.25 Q1010.1 1564.07 1013.64 1564.07 Q1018.51 1564.07 1021.44 1560.63 Q1024.4 1557.16 1024.4 1551.43 L1024.4 1550.12 L1018.57 1550.12 M1030.25 1547.71 L1030.25 1568.04 L1024.4 1568.04 L1024.4 1562.63 Q1022.39 1565.88 1019.4 1567.44 Q1016.41 1568.97 1012.08 1568.97 Q1006.6 1568.97 1003.36 1565.91 Q1000.14 1562.82 1000.14 1557.67 Q1000.14 1551.65 1004.15 1548.6 Q1008.19 1545.54 1016.18 1545.54 L1024.4 1545.54 L1024.4 1544.97 Q1024.4 1540.93 1021.72 1538.73 Q1019.08 1536.5 1014.27 1536.5 Q1011.22 1536.5 1008.32 1537.23 Q1005.43 1537.97 1002.75 1539.43 L1002.75 1534.02 Q1005.97 1532.78 1008.99 1532.17 Q1012.01 1531.54 1014.88 1531.54 Q1022.61 1531.54 1026.43 1535.55 Q1030.25 1539.56 1030.25 1547.71 Z" fill="#ffffff" fill-rule="nonzero" fill-opacity="1" /><path clip-path="url(#clip560)" d="M1065.77 1537.81 L1065.77 1518.52 L1071.63 1518.52 L1071.63 1568.04 L1065.77 1568.04 L1065.77 1562.7 Q1063.93 1565.88 1061.09 1567.44 Q1058.29 1568.97 1054.35 1568.97 Q1047.88 1568.97 1043.81 1563.81 Q1039.77 1558.65 1039.77 1550.25 Q1039.77 1541.85 1043.81 1536.69 Q1047.88 1531.54 1054.35 1531.54 Q1058.29 1531.54 1061.09 1533.1 Q1063.93 1534.62 1065.77 1537.81 M1045.82 1550.25 Q1045.82 1556.71 1048.46 1560.4 Q1051.13 1564.07 1055.78 1564.07 Q1060.43 1564.07 1063.1 1560.4 Q1065.77 1556.71 1065.77 1550.25 Q1065.77 1543.79 1063.1 1540.13 Q1060.43 1536.44 1055.78 1536.44 Q1051.13 1536.44 1048.46 1540.13 Q1045.82 1543.79 1045.82 1550.25 Z" fill="#ffffff" fill-rule="nonzero" fill-opacity="1" /><path clip-path="url(#clip560)" d="M1083.69 1532.4 L1089.55 1532.4 L1089.55 1568.04 L1083.69 1568.04 L1083.69 1532.4 M1083.69 1518.52 L1089.55 1518.52 L1089.55 1525.93 L1083.69 1525.93 L1083.69 1518.52 Z" fill="#ffffff" fill-rule="nonzero" fill-opacity="1" /><path clip-path="url(#clip560)" d="M1131.43 1546.53 L1131.43 1568.04 L1125.58 1568.04 L1125.58 1546.72 Q1125.58 1541.66 1123.61 1539.14 Q1121.63 1536.63 1117.68 1536.63 Q1112.94 1536.63 1110.21 1539.65 Q1107.47 1542.68 1107.47 1547.9 L1107.47 1568.04 L1101.58 1568.04 L1101.58 1532.4 L1107.47 1532.4 L1107.47 1537.93 Q1109.57 1534.72 1112.4 1533.13 Q1115.27 1531.54 1118.99 1531.54 Q1125.13 1531.54 1128.28 1535.36 Q1131.43 1539.14 1131.43 1546.53 Z" fill="#ffffff" fill-rule="nonzero" fill-opacity="1" /><path clip-path="url(#clip560)" d="M1166.57 1549.81 Q1166.57 1543.44 1163.93 1539.94 Q1161.32 1536.44 1156.58 1536.44 Q1151.87 1536.44 1149.23 1539.94 Q1146.62 1543.44 1146.62 1549.81 Q1146.62 1556.14 1149.23 1559.64 Q1151.87 1563.14 1156.58 1563.14 Q1161.32 1563.14 1163.93 1559.64 Q1166.57 1556.14 1166.57 1549.81 M1172.43 1563.62 Q1172.43 1572.72 1168.39 1577.15 Q1164.35 1581.6 1156.01 1581.6 Q1152.92 1581.6 1150.18 1581.13 Q1147.44 1580.68 1144.87 1579.72 L1144.87 1574.03 Q1147.44 1575.43 1149.96 1576.1 Q1152.47 1576.76 1155.08 1576.76 Q1160.84 1576.76 1163.71 1573.74 Q1166.57 1570.75 1166.57 1564.67 L1166.57 1561.77 Q1164.76 1564.92 1161.93 1566.48 Q1159.09 1568.04 1155.15 1568.04 Q1148.59 1568.04 1144.58 1563.05 Q1140.57 1558.05 1140.57 1549.81 Q1140.57 1541.53 1144.58 1536.53 Q1148.59 1531.54 1155.15 1531.54 Q1159.09 1531.54 1161.93 1533.1 Q1164.76 1534.66 1166.57 1537.81 L1166.57 1532.4 L1172.43 1532.4 L1172.43 1563.62 Z" fill="#ffffff" fill-rule="nonzero" fill-opacity="1" /><path clip-path="url(#clip560)" d="M1228.67 1537.81 L1228.67 1518.52 L1234.53 1518.52 L1234.53 1568.04 L1228.67 1568.04 L1228.67 1562.7 Q1226.83 1565.88 1223.99 1567.44 Q1221.19 1568.97 1217.24 1568.97 Q1210.78 1568.97 1206.71 1563.81 Q1202.67 1558.65 1202.67 1550.25 Q1202.67 1541.85 1206.71 1536.69 Q1210.78 1531.54 1217.24 1531.54 Q1221.19 1531.54 1223.99 1533.1 Q1226.83 1534.62 1228.67 1537.81 M1208.71 1550.25 Q1208.71 1556.71 1211.36 1560.4 Q1214.03 1564.07 1218.68 1564.07 Q1223.32 1564.07 1226 1560.4 Q1228.67 1556.71 1228.67 1550.25 Q1228.67 1543.79 1226 1540.13 Q1223.32 1536.44 1218.68 1536.44 Q1214.03 1536.44 1211.36 1540.13 Q1208.71 1543.79 1208.71 1550.25 Z" fill="#ffffff" fill-rule="nonzero" fill-opacity="1" /><path clip-path="url(#clip560)" d="M1262.79 1550.12 Q1255.69 1550.12 1252.96 1551.75 Q1250.22 1553.37 1250.22 1557.29 Q1250.22 1560.4 1252.26 1562.25 Q1254.32 1564.07 1257.86 1564.07 Q1262.73 1564.07 1265.66 1560.63 Q1268.62 1557.16 1268.62 1551.43 L1268.62 1550.12 L1262.79 1550.12 M1274.47 1547.71 L1274.47 1568.04 L1268.62 1568.04 L1268.62 1562.63 Q1266.61 1565.88 1263.62 1567.44 Q1260.63 1568.97 1256.3 1568.97 Q1250.82 1568.97 1247.58 1565.91 Q1244.36 1562.82 1244.36 1557.67 Q1244.36 1551.65 1248.37 1548.6 Q1252.42 1545.54 1260.4 1545.54 L1268.62 1545.54 L1268.62 1544.97 Q1268.62 1540.93 1265.94 1538.73 Q1263.3 1536.5 1258.49 1536.5 Q1255.44 1536.5 1252.54 1537.23 Q1249.65 1537.97 1246.97 1539.43 L1246.97 1534.02 Q1250.19 1532.78 1253.21 1532.17 Q1256.23 1531.54 1259.1 1531.54 Q1266.83 1531.54 1270.65 1535.55 Q1274.47 1539.56 1274.47 1547.71 Z" fill="#ffffff" fill-rule="nonzero" fill-opacity="1" /><path clip-path="url(#clip560)" d="M1301.37 1571.35 Q1298.88 1577.72 1296.53 1579.66 Q1294.17 1581.6 1290.23 1581.6 L1285.55 1581.6 L1285.55 1576.7 L1288.99 1576.7 Q1291.41 1576.7 1292.74 1575.56 Q1294.08 1574.41 1295.7 1570.14 L1296.75 1567.47 L1282.33 1532.4 L1288.54 1532.4 L1299.68 1560.28 L1310.82 1532.4 L1317.03 1532.4 L1301.37 1571.35 Z" fill="#ffffff" fill-rule="nonzero" fill-opacity="1" /><path clip-path="url(#clip560)" d="M1345.83 1532.4 L1351.69 1532.4 L1351.69 1568.04 L1345.83 1568.04 L1345.83 1532.4 M1345.83 1518.52 L1351.69 1518.52 L1351.69 1525.93 L1345.83 1525.93 L1345.83 1518.52 Z" fill="#ffffff" fill-rule="nonzero" fill-opacity="1" /><path clip-path="url(#clip560)" d="M1393.57 1546.53 L1393.57 1568.04 L1387.72 1568.04 L1387.72 1546.72 Q1387.72 1541.66 1385.74 1539.14 Q1383.77 1536.63 1379.82 1536.63 Q1375.08 1536.63 1372.35 1539.65 Q1369.61 1542.68 1369.61 1547.9 L1369.61 1568.04 L1363.72 1568.04 L1363.72 1532.4 L1369.61 1532.4 L1369.61 1537.93 Q1371.71 1534.72 1374.54 1533.13 Q1377.41 1531.54 1381.13 1531.54 Q1387.27 1531.54 1390.42 1535.36 Q1393.57 1539.14 1393.57 1546.53 Z" fill="#ffffff" fill-rule="nonzero" fill-opacity="1" /><path clip-path="url(#clip560)" d="M1428.71 1537.81 L1428.71 1518.52 L1434.57 1518.52 L1434.57 1568.04 L1428.71 1568.04 L1428.71 1562.7 Q1426.87 1565.88 1424.03 1567.44 Q1421.23 1568.97 1417.29 1568.97 Q1410.83 1568.97 1406.75 1563.81 Q1402.71 1558.65 1402.71 1550.25 Q1402.71 1541.85 1406.75 1536.69 Q1410.83 1531.54 1417.29 1531.54 Q1421.23 1531.54 1424.03 1533.1 Q1426.87 1534.62 1428.71 1537.81 M1408.76 1550.25 Q1408.76 1556.71 1411.4 1560.4 Q1414.07 1564.07 1418.72 1564.07 Q1423.37 1564.07 1426.04 1560.4 Q1428.71 1556.71 1428.71 1550.25 Q1428.71 1543.79 1426.04 1540.13 Q1423.37 1536.44 1418.72 1536.44 Q1414.07 1536.44 1411.4 1540.13 Q1408.76 1543.79 1408.76 1550.25 Z" fill="#ffffff" fill-rule="nonzero" fill-opacity="1" /><path clip-path="url(#clip560)" d="M1477.12 1548.76 L1477.12 1551.62 L1450.2 1551.62 Q1450.58 1557.67 1453.83 1560.85 Q1457.1 1564 1462.93 1564 Q1466.3 1564 1469.45 1563.17 Q1472.64 1562.35 1475.76 1560.69 L1475.76 1566.23 Q1472.6 1567.57 1469.29 1568.27 Q1465.98 1568.97 1462.58 1568.97 Q1454.05 1568.97 1449.05 1564 Q1444.09 1559.04 1444.09 1550.57 Q1444.09 1541.82 1448.8 1536.69 Q1453.54 1531.54 1461.56 1531.54 Q1468.75 1531.54 1472.92 1536.18 Q1477.12 1540.8 1477.12 1548.76 M1471.27 1547.04 Q1471.2 1542.23 1468.56 1539.37 Q1465.95 1536.5 1461.62 1536.5 Q1456.72 1536.5 1453.76 1539.27 Q1450.83 1542.04 1450.39 1547.07 L1471.27 1547.04 Z" fill="#ffffff" fill-rule="nonzero" fill-opacity="1" /><path clip-path="url(#clip560)" d="M1515.22 1532.4 L1502.33 1549.74 L1515.89 1568.04 L1508.98 1568.04 L1498.61 1554.04 L1488.23 1568.04 L1481.33 1568.04 L1495.17 1549.39 L1482.5 1532.4 L1489.41 1532.4 L1498.86 1545.1 L1508.32 1532.4 L1515.22 1532.4 Z" fill="#ffffff" fill-rule="nonzero" fill-opacity="1" /><path clip-path="url(#clip560)" d="M1558.96 1518.58 Q1554.69 1525.9 1552.62 1533.06 Q1550.55 1540.23 1550.55 1547.58 Q1550.55 1554.93 1552.62 1562.16 Q1554.72 1569.35 1558.96 1576.64 L1553.86 1576.64 Q1549.09 1569.16 1546.7 1561.93 Q1544.35 1554.71 1544.35 1547.58 Q1544.35 1540.48 1546.7 1533.29 Q1549.06 1526.09 1553.86 1518.58 L1558.96 1518.58 Z" fill="#ffffff" fill-rule="nonzero" fill-opacity="1" /><path clip-path="url(#clip560)" d="M1586.46 1526.86 L1577.73 1550.51 L1595.21 1550.51 L1586.46 1526.86 M1582.83 1520.52 L1590.12 1520.52 L1608.23 1568.04 L1601.54 1568.04 L1597.21 1555.85 L1575.79 1555.85 L1571.46 1568.04 L1564.68 1568.04 L1582.83 1520.52 Z" fill="#ffffff" fill-rule="nonzero" fill-opacity="1" /><path clip-path="url(#clip560)" d="M1614.43 1520.52 L1620.89 1520.52 L1620.89 1549.39 Q1620.89 1557.03 1623.66 1560.4 Q1626.43 1563.75 1632.64 1563.75 Q1638.81 1563.75 1641.58 1560.4 Q1644.35 1557.03 1644.35 1549.39 L1644.35 1520.52 L1650.81 1520.52 L1650.81 1550.19 Q1650.81 1559.48 1646.2 1564.22 Q1641.61 1568.97 1632.64 1568.97 Q1623.63 1568.97 1619.02 1564.22 Q1614.43 1559.48 1614.43 1550.19 L1614.43 1520.52 Z" fill="#ffffff" fill-rule="nonzero" fill-opacity="1" /><path clip-path="url(#clip560)" d="M1661.7 1518.58 L1666.79 1518.58 Q1671.57 1526.09 1673.92 1533.29 Q1676.31 1540.48 1676.31 1547.58 Q1676.31 1554.71 1673.92 1561.93 Q1671.57 1569.16 1666.79 1576.64 L1661.7 1576.64 Q1665.93 1569.35 1668 1562.16 Q1670.1 1554.93 1670.1 1547.58 Q1670.1 1540.23 1668 1533.06 Q1665.93 1525.9 1661.7 1518.58 Z" fill="#ffffff" fill-rule="nonzero" fill-opacity="1" /><polyline clip-path="url(#clip560)" style="stroke:#ffffff; stroke-linecap:round; stroke-linejoin:round; stroke-width:4; stroke-opacity:1; fill:none" points="262.551,1423.18 262.551,47.2441 "/>
<polyline clip-path="url(#clip560)" style="stroke:#ffffff; stroke-linecap:round; stroke-linejoin:round; stroke-width:4; stroke-opacity:1; fill:none" points="2352.76,1423.18 2352.76,47.2441 "/>
<polyline clip-path="url(#clip560)" style="stroke:#ffffff; stroke-linecap:round; stroke-linejoin:round; stroke-width:4; stroke-opacity:1; fill:none" points="262.551,1372.41 281.449,1372.41 "/>
<polyline clip-path="url(#clip560)" style="stroke:#ffffff; stroke-linecap:round; stroke-linejoin:round; stroke-width:4; stroke-opacity:1; fill:none" points="262.551,1067.09 281.449,1067.09 "/>
<polyline clip-path="url(#clip560)" style="stroke:#ffffff; stroke-linecap:round; stroke-linejoin:round; stroke-width:4; stroke-opacity:1; fill:none" points="262.551,761.778 281.449,761.778 "/>
<polyline clip-path="url(#clip560)" style="stroke:#ffffff; stroke-linecap:round; stroke-linejoin:round; stroke-width:4; stroke-opacity:1; fill:none" points="262.551,456.462 281.449,456.462 "/>
<polyline clip-path="url(#clip560)" style="stroke:#ffffff; stroke-linecap:round; stroke-linejoin:round; stroke-width:4; stroke-opacity:1; fill:none" points="262.551,151.146 281.449,151.146 "/>
<polyline clip-path="url(#clip560)" style="stroke:#ffffff; stroke-linecap:round; stroke-linejoin:round; stroke-width:4; stroke-opacity:1; fill:none" points="2352.76,1372.41 2333.86,1372.41 "/>
<polyline clip-path="url(#clip560)" style="stroke:#ffffff; stroke-linecap:round; stroke-linejoin:round; stroke-width:4; stroke-opacity:1; fill:none" points="2352.76,1067.09 2333.86,1067.09 "/>
<polyline clip-path="url(#clip560)" style="stroke:#ffffff; stroke-linecap:round; stroke-linejoin:round; stroke-width:4; stroke-opacity:1; fill:none" points="2352.76,761.778 2333.86,761.778 "/>
<polyline clip-path="url(#clip560)" style="stroke:#ffffff; stroke-linecap:round; stroke-linejoin:round; stroke-width:4; stroke-opacity:1; fill:none" points="2352.76,456.462 2333.86,456.462 "/>
<polyline clip-path="url(#clip560)" style="stroke:#ffffff; stroke-linecap:round; stroke-linejoin:round; stroke-width:4; stroke-opacity:1; fill:none" points="2352.76,151.146 2333.86,151.146 "/>
<path clip-path="url(#clip560)" d="M114.931 1385.76 L122.57 1385.76 L122.57 1359.39 L114.26 1361.06 L114.26 1356.8 L122.524 1355.13 L127.2 1355.13 L127.2 1385.76 L134.839 1385.76 L134.839 1389.69 L114.931 1389.69 L114.931 1385.76 Z" fill="#ffffff" fill-rule="nonzero" fill-opacity="1" /><path clip-path="url(#clip560)" d="M154.283 1358.21 Q150.672 1358.21 148.843 1361.77 Q147.038 1365.32 147.038 1372.44 Q147.038 1379.55 148.843 1383.12 Q150.672 1386.66 154.283 1386.66 Q157.917 1386.66 159.723 1383.12 Q161.552 1379.55 161.552 1372.44 Q161.552 1365.32 159.723 1361.77 Q157.917 1358.21 154.283 1358.21 M154.283 1354.51 Q160.093 1354.51 163.149 1359.11 Q166.227 1363.7 166.227 1372.44 Q166.227 1381.17 163.149 1385.78 Q160.093 1390.36 154.283 1390.36 Q148.473 1390.36 145.394 1385.78 Q142.339 1381.17 142.339 1372.44 Q142.339 1363.7 145.394 1359.11 Q148.473 1354.51 154.283 1354.51 Z" fill="#ffffff" fill-rule="nonzero" fill-opacity="1" /><path clip-path="url(#clip560)" d="M184.445 1358.21 Q180.834 1358.21 179.005 1361.77 Q177.2 1365.32 177.2 1372.44 Q177.2 1379.55 179.005 1383.12 Q180.834 1386.66 184.445 1386.66 Q188.079 1386.66 189.885 1383.12 Q191.713 1379.55 191.713 1372.44 Q191.713 1365.32 189.885 1361.77 Q188.079 1358.21 184.445 1358.21 M184.445 1354.51 Q190.255 1354.51 193.311 1359.11 Q196.389 1363.7 196.389 1372.44 Q196.389 1381.17 193.311 1385.78 Q190.255 1390.36 184.445 1390.36 Q178.635 1390.36 175.556 1385.78 Q172.501 1381.17 172.501 1372.44 Q172.501 1363.7 175.556 1359.11 Q178.635 1354.51 184.445 1354.51 Z" fill="#ffffff" fill-rule="nonzero" fill-opacity="1" /><path clip-path="url(#clip560)" d="M214.607 1358.21 Q210.996 1358.21 209.167 1361.77 Q207.362 1365.32 207.362 1372.44 Q207.362 1379.55 209.167 1383.12 Q210.996 1386.66 214.607 1386.66 Q218.241 1386.66 220.047 1383.12 Q221.875 1379.55 221.875 1372.44 Q221.875 1365.32 220.047 1361.77 Q218.241 1358.21 214.607 1358.21 M214.607 1354.51 Q220.417 1354.51 223.473 1359.11 Q226.551 1363.7 226.551 1372.44 Q226.551 1381.17 223.473 1385.78 Q220.417 1390.36 214.607 1390.36 Q208.797 1390.36 205.718 1385.78 Q202.662 1381.17 202.662 1372.44 Q202.662 1363.7 205.718 1359.11 Q208.797 1354.51 214.607 1354.51 Z" fill="#ffffff" fill-rule="nonzero" fill-opacity="1" /><path clip-path="url(#clip560)" d="M114.931 1080.44 L122.57 1080.44 L122.57 1054.07 L114.26 1055.74 L114.26 1051.48 L122.524 1049.81 L127.2 1049.81 L127.2 1080.44 L134.839 1080.44 L134.839 1084.37 L114.931 1084.37 L114.931 1080.44 Z" fill="#ffffff" fill-rule="nonzero" fill-opacity="1" /><path clip-path="url(#clip560)" d="M145.093 1080.44 L152.732 1080.44 L152.732 1054.07 L144.422 1055.74 L144.422 1051.48 L152.686 1049.81 L157.362 1049.81 L157.362 1080.44 L165.001 1080.44 L165.001 1084.37 L145.093 1084.37 L145.093 1080.44 Z" fill="#ffffff" fill-rule="nonzero" fill-opacity="1" /><path clip-path="url(#clip560)" d="M184.445 1052.89 Q180.834 1052.89 179.005 1056.46 Q177.2 1060 177.2 1067.13 Q177.2 1074.24 179.005 1077.8 Q180.834 1081.34 184.445 1081.34 Q188.079 1081.34 189.885 1077.8 Q191.713 1074.24 191.713 1067.13 Q191.713 1060 189.885 1056.46 Q188.079 1052.89 184.445 1052.89 M184.445 1049.19 Q190.255 1049.19 193.311 1053.8 Q196.389 1058.38 196.389 1067.13 Q196.389 1075.86 193.311 1080.46 Q190.255 1085.05 184.445 1085.05 Q178.635 1085.05 175.556 1080.46 Q172.501 1075.86 172.501 1067.13 Q172.501 1058.38 175.556 1053.8 Q178.635 1049.19 184.445 1049.19 Z" fill="#ffffff" fill-rule="nonzero" fill-opacity="1" /><path clip-path="url(#clip560)" d="M214.607 1052.89 Q210.996 1052.89 209.167 1056.46 Q207.362 1060 207.362 1067.13 Q207.362 1074.24 209.167 1077.8 Q210.996 1081.34 214.607 1081.34 Q218.241 1081.34 220.047 1077.8 Q221.875 1074.24 221.875 1067.13 Q221.875 1060 220.047 1056.46 Q218.241 1052.89 214.607 1052.89 M214.607 1049.19 Q220.417 1049.19 223.473 1053.8 Q226.551 1058.38 226.551 1067.13 Q226.551 1075.86 223.473 1080.46 Q220.417 1085.05 214.607 1085.05 Q208.797 1085.05 205.718 1080.46 Q202.662 1075.86 202.662 1067.13 Q202.662 1058.38 205.718 1053.8 Q208.797 1049.19 214.607 1049.19 Z" fill="#ffffff" fill-rule="nonzero" fill-opacity="1" /><path clip-path="url(#clip560)" d="M114.931 775.123 L122.57 775.123 L122.57 748.757 L114.26 750.424 L114.26 746.165 L122.524 744.498 L127.2 744.498 L127.2 775.123 L134.839 775.123 L134.839 779.058 L114.931 779.058 L114.931 775.123 Z" fill="#ffffff" fill-rule="nonzero" fill-opacity="1" /><path clip-path="url(#clip560)" d="M148.311 775.123 L164.63 775.123 L164.63 779.058 L142.686 779.058 L142.686 775.123 Q145.348 772.368 149.931 767.739 Q154.538 763.086 155.718 761.743 Q157.964 759.22 158.843 757.484 Q159.746 755.725 159.746 754.035 Q159.746 751.281 157.802 749.544 Q155.88 747.808 152.778 747.808 Q150.579 747.808 148.126 748.572 Q145.695 749.336 142.917 750.887 L142.917 746.165 Q145.741 745.031 148.195 744.452 Q150.649 743.873 152.686 743.873 Q158.056 743.873 161.251 746.558 Q164.445 749.244 164.445 753.734 Q164.445 755.864 163.635 757.785 Q162.848 759.683 160.741 762.276 Q160.163 762.947 157.061 766.165 Q153.959 769.359 148.311 775.123 Z" fill="#ffffff" fill-rule="nonzero" fill-opacity="1" /><path clip-path="url(#clip560)" d="M184.445 747.577 Q180.834 747.577 179.005 751.142 Q177.2 754.683 177.2 761.813 Q177.2 768.919 179.005 772.484 Q180.834 776.026 184.445 776.026 Q188.079 776.026 189.885 772.484 Q191.713 768.919 191.713 761.813 Q191.713 754.683 189.885 751.142 Q188.079 747.577 184.445 747.577 M184.445 743.873 Q190.255 743.873 193.311 748.48 Q196.389 753.063 196.389 761.813 Q196.389 770.54 193.311 775.146 Q190.255 779.73 184.445 779.73 Q178.635 779.73 175.556 775.146 Q172.501 770.54 172.501 761.813 Q172.501 753.063 175.556 748.48 Q178.635 743.873 184.445 743.873 Z" fill="#ffffff" fill-rule="nonzero" fill-opacity="1" /><path clip-path="url(#clip560)" d="M214.607 747.577 Q210.996 747.577 209.167 751.142 Q207.362 754.683 207.362 761.813 Q207.362 768.919 209.167 772.484 Q210.996 776.026 214.607 776.026 Q218.241 776.026 220.047 772.484 Q221.875 768.919 221.875 761.813 Q221.875 754.683 220.047 751.142 Q218.241 747.577 214.607 747.577 M214.607 743.873 Q220.417 743.873 223.473 748.48 Q226.551 753.063 226.551 761.813 Q226.551 770.54 223.473 775.146 Q220.417 779.73 214.607 779.73 Q208.797 779.73 205.718 775.146 Q202.662 770.54 202.662 761.813 Q202.662 753.063 205.718 748.48 Q208.797 743.873 214.607 743.873 Z" fill="#ffffff" fill-rule="nonzero" fill-opacity="1" /><path clip-path="url(#clip560)" d="M114.931 469.807 L122.57 469.807 L122.57 443.441 L114.26 445.108 L114.26 440.849 L122.524 439.182 L127.2 439.182 L127.2 469.807 L134.839 469.807 L134.839 473.742 L114.931 473.742 L114.931 469.807 Z" fill="#ffffff" fill-rule="nonzero" fill-opacity="1" /><path clip-path="url(#clip560)" d="M158.45 455.108 Q161.806 455.826 163.681 458.094 Q165.579 460.363 165.579 463.696 Q165.579 468.812 162.061 471.613 Q158.542 474.413 152.061 474.413 Q149.885 474.413 147.57 473.974 Q145.279 473.557 142.825 472.701 L142.825 468.187 Q144.769 469.321 147.084 469.9 Q149.399 470.478 151.922 470.478 Q156.32 470.478 158.612 468.742 Q160.927 467.006 160.927 463.696 Q160.927 460.64 158.774 458.927 Q156.644 457.191 152.825 457.191 L148.797 457.191 L148.797 453.349 L153.01 453.349 Q156.459 453.349 158.288 451.983 Q160.116 450.594 160.116 448.002 Q160.116 445.34 158.218 443.928 Q156.343 442.492 152.825 442.492 Q150.903 442.492 148.704 442.909 Q146.505 443.326 143.866 444.205 L143.866 440.039 Q146.529 439.298 148.843 438.928 Q151.181 438.557 153.241 438.557 Q158.565 438.557 161.667 440.988 Q164.769 443.395 164.769 447.515 Q164.769 450.386 163.126 452.377 Q161.482 454.344 158.45 455.108 Z" fill="#ffffff" fill-rule="nonzero" fill-opacity="1" /><path clip-path="url(#clip560)" d="M184.445 442.261 Q180.834 442.261 179.005 445.826 Q177.2 449.367 177.2 456.497 Q177.2 463.603 179.005 467.168 Q180.834 470.71 184.445 470.71 Q188.079 470.71 189.885 467.168 Q191.713 463.603 191.713 456.497 Q191.713 449.367 189.885 445.826 Q188.079 442.261 184.445 442.261 M184.445 438.557 Q190.255 438.557 193.311 443.164 Q196.389 447.747 196.389 456.497 Q196.389 465.224 193.311 469.83 Q190.255 474.413 184.445 474.413 Q178.635 474.413 175.556 469.83 Q172.501 465.224 172.501 456.497 Q172.501 447.747 175.556 443.164 Q178.635 438.557 184.445 438.557 Z" fill="#ffffff" fill-rule="nonzero" fill-opacity="1" /><path clip-path="url(#clip560)" d="M214.607 442.261 Q210.996 442.261 209.167 445.826 Q207.362 449.367 207.362 456.497 Q207.362 463.603 209.167 467.168 Q210.996 470.71 214.607 470.71 Q218.241 470.71 220.047 467.168 Q221.875 463.603 221.875 456.497 Q221.875 449.367 220.047 445.826 Q218.241 442.261 214.607 442.261 M214.607 438.557 Q220.417 438.557 223.473 443.164 Q226.551 447.747 226.551 456.497 Q226.551 465.224 223.473 469.83 Q220.417 474.413 214.607 474.413 Q208.797 474.413 205.718 469.83 Q202.662 465.224 202.662 456.497 Q202.662 447.747 205.718 443.164 Q208.797 438.557 214.607 438.557 Z" fill="#ffffff" fill-rule="nonzero" fill-opacity="1" /><path clip-path="url(#clip560)" d="M114.931 164.491 L122.57 164.491 L122.57 138.125 L114.26 139.792 L114.26 135.533 L122.524 133.866 L127.2 133.866 L127.2 164.491 L134.839 164.491 L134.839 168.426 L114.931 168.426 L114.931 164.491 Z" fill="#ffffff" fill-rule="nonzero" fill-opacity="1" /><path clip-path="url(#clip560)" d="M157.13 137.94 L145.325 156.389 L157.13 156.389 L157.13 137.94 M155.903 133.866 L161.783 133.866 L161.783 156.389 L166.714 156.389 L166.714 160.278 L161.783 160.278 L161.783 168.426 L157.13 168.426 L157.13 160.278 L141.529 160.278 L141.529 155.764 L155.903 133.866 Z" fill="#ffffff" fill-rule="nonzero" fill-opacity="1" /><path clip-path="url(#clip560)" d="M184.445 136.945 Q180.834 136.945 179.005 140.51 Q177.2 144.051 177.2 151.181 Q177.2 158.287 179.005 161.852 Q180.834 165.394 184.445 165.394 Q188.079 165.394 189.885 161.852 Q191.713 158.287 191.713 151.181 Q191.713 144.051 189.885 140.51 Q188.079 136.945 184.445 136.945 M184.445 133.241 Q190.255 133.241 193.311 137.848 Q196.389 142.431 196.389 151.181 Q196.389 159.908 193.311 164.514 Q190.255 169.097 184.445 169.097 Q178.635 169.097 175.556 164.514 Q172.501 159.908 172.501 151.181 Q172.501 142.431 175.556 137.848 Q178.635 133.241 184.445 133.241 Z" fill="#ffffff" fill-rule="nonzero" fill-opacity="1" /><path clip-path="url(#clip560)" d="M214.607 136.945 Q210.996 136.945 209.167 140.51 Q207.362 144.051 207.362 151.181 Q207.362 158.287 209.167 161.852 Q210.996 165.394 214.607 165.394 Q218.241 165.394 220.047 161.852 Q221.875 158.287 221.875 151.181 Q221.875 144.051 220.047 140.51 Q218.241 136.945 214.607 136.945 M214.607 133.241 Q220.417 133.241 223.473 137.848 Q226.551 142.431 226.551 151.181 Q226.551 159.908 223.473 164.514 Q220.417 169.097 214.607 169.097 Q208.797 169.097 205.718 164.514 Q202.662 159.908 202.662 151.181 Q202.662 142.431 205.718 137.848 Q208.797 133.241 214.607 133.241 Z" fill="#ffffff" fill-rule="nonzero" fill-opacity="1" /><path clip-path="url(#clip560)" d="M16.4842 949.593 L16.4842 943.1 L56.6518 933.106 L16.4842 923.144 L16.4842 915.918 L56.6518 905.924 L16.4842 895.962 L16.4842 889.437 L64.0042 901.373 L64.0042 909.457 L22.7544 919.483 L64.0042 929.605 L64.0042 937.689 L16.4842 949.593 Z" fill="#ffffff" fill-rule="nonzero" fill-opacity="1" /><path clip-path="url(#clip560)" d="M44.7161 854.489 L47.5806 854.489 L47.5806 881.416 Q53.6281 881.034 56.8109 877.788 Q59.9619 874.51 59.9619 868.685 Q59.9619 865.311 59.1344 862.16 Q58.3069 858.977 56.6518 855.858 L62.1899 855.858 Q63.5267 859.009 64.227 862.319 Q64.9272 865.629 64.9272 869.035 Q64.9272 877.565 59.9619 882.562 Q54.9967 887.527 46.5303 887.527 Q37.7774 887.527 32.6531 882.817 Q27.4968 878.074 27.4968 870.054 Q27.4968 862.86 32.1438 858.691 Q36.7589 854.489 44.7161 854.489 M42.9973 860.346 Q38.1912 860.41 35.3266 863.051 Q32.4621 865.661 32.4621 869.99 Q32.4621 874.891 35.2312 877.852 Q38.0002 880.78 43.0292 881.225 L42.9973 860.346 Z" fill="#ffffff" fill-rule="nonzero" fill-opacity="1" /><path clip-path="url(#clip560)" d="M46.0847 828.676 Q46.0847 835.774 47.7079 838.511 Q49.3312 841.249 53.2461 841.249 Q56.3653 841.249 58.2114 839.212 Q60.0256 837.143 60.0256 833.61 Q60.0256 828.74 56.5881 825.812 Q53.1188 822.852 47.3897 822.852 L46.0847 822.852 L46.0847 828.676 M43.6657 816.995 L64.0042 816.995 L64.0042 822.852 L58.5933 822.852 Q61.8398 824.857 63.3994 827.849 Q64.9272 830.841 64.9272 835.169 Q64.9272 840.644 61.8716 843.89 Q58.7843 847.105 53.6281 847.105 Q47.6125 847.105 44.5569 843.095 Q41.5014 839.053 41.5014 831.064 L41.5014 822.852 L40.9285 822.852 Q36.8862 822.852 34.6901 825.525 Q32.4621 828.167 32.4621 832.973 Q32.4621 836.029 33.1941 838.925 Q33.9262 841.822 35.3903 844.495 L29.9795 844.495 Q28.7381 841.281 28.1334 838.257 Q27.4968 835.233 27.4968 832.369 Q27.4968 824.634 31.5072 820.815 Q35.5176 816.995 43.6657 816.995 Z" fill="#ffffff" fill-rule="nonzero" fill-opacity="1" /><path clip-path="url(#clip560)" d="M14.479 804.932 L14.479 799.076 L64.0042 799.076 L64.0042 804.932 L14.479 804.932 Z" fill="#ffffff" fill-rule="nonzero" fill-opacity="1" /><path clip-path="url(#clip560)" d="M18.2347 781.029 L28.3562 781.029 L28.3562 768.966 L32.9077 768.966 L32.9077 781.029 L52.2594 781.029 Q56.6199 781.029 57.8613 779.851 Q59.1026 778.642 59.1026 774.982 L59.1026 768.966 L64.0042 768.966 L64.0042 774.982 Q64.0042 781.761 61.4897 784.339 Q58.9434 786.917 52.2594 786.917 L32.9077 786.917 L32.9077 791.214 L28.3562 791.214 L28.3562 786.917 L18.2347 786.917 L18.2347 781.029 Z" fill="#ffffff" fill-rule="nonzero" fill-opacity="1" /><path clip-path="url(#clip560)" d="M42.4881 731.631 L64.0042 731.631 L64.0042 737.488 L42.679 737.488 Q37.6183 737.488 35.1038 739.461 Q32.5894 741.434 32.5894 745.381 Q32.5894 750.124 35.6131 752.861 Q38.6368 755.598 43.8567 755.598 L64.0042 755.598 L64.0042 761.486 L14.479 761.486 L14.479 755.598 L33.8944 755.598 Q30.6797 753.497 29.0883 750.665 Q27.4968 747.8 27.4968 744.076 Q27.4968 737.933 31.3163 734.782 Q35.1038 731.631 42.4881 731.631 Z" fill="#ffffff" fill-rule="nonzero" fill-opacity="1" /><path clip-path="url(#clip560)" d="M14.5426 685.162 Q21.8632 689.427 29.0246 691.495 Q36.186 693.564 43.5384 693.564 Q50.8908 693.564 58.1159 691.495 Q65.3091 689.395 72.5979 685.162 L72.5979 690.254 Q65.1182 695.028 57.8931 697.416 Q50.668 699.771 43.5384 699.771 Q36.4406 699.771 29.2474 697.416 Q22.0542 695.06 14.5426 690.254 L14.5426 685.162 Z" fill="#ffffff" fill-rule="nonzero" fill-opacity="1" /><path clip-path="url(#clip560)" d="M16.4842 674.276 L16.4842 667.815 L45.3526 667.815 Q52.9915 667.815 56.3653 665.046 Q59.7073 662.277 59.7073 656.07 Q59.7073 649.896 56.3653 647.127 Q52.9915 644.357 45.3526 644.357 L16.4842 644.357 L16.4842 637.896 L46.1484 637.896 Q55.4423 637.896 60.1847 642.511 Q64.9272 647.095 64.9272 656.07 Q64.9272 665.078 60.1847 669.693 Q55.4423 674.276 46.1484 674.276 L16.4842 674.276 Z" fill="#ffffff" fill-rule="nonzero" fill-opacity="1" /><path clip-path="url(#clip560)" d="M18.0438 597.347 L24.314 597.347 Q22.5634 601.007 21.704 604.253 Q20.8447 607.5 20.8447 610.524 Q20.8447 615.775 22.8817 618.64 Q24.9187 621.473 28.6745 621.473 Q31.8255 621.473 33.4488 619.595 Q35.0402 617.685 36.0269 612.402 L36.8226 608.518 Q38.1912 601.325 41.6605 597.92 Q45.098 594.482 50.8908 594.482 Q57.7976 594.482 61.3624 599.129 Q64.9272 603.744 64.9272 612.688 Q64.9272 616.062 64.1633 619.881 Q63.3994 623.669 61.9035 627.743 L55.2831 627.743 Q57.4793 623.828 58.5933 620.072 Q59.7073 616.316 59.7073 612.688 Q59.7073 607.182 57.543 604.19 Q55.3786 601.198 51.3682 601.198 Q47.8671 601.198 45.8937 603.362 Q43.9204 605.495 42.9337 610.396 L42.1698 614.311 Q40.7375 621.505 37.682 624.719 Q34.6264 627.934 29.1837 627.934 Q22.8817 627.934 19.2532 623.51 Q15.6248 619.054 15.6248 611.256 Q15.6248 607.914 16.2295 604.444 Q16.8343 600.975 18.0438 597.347 Z" fill="#ffffff" fill-rule="nonzero" fill-opacity="1" /><path clip-path="url(#clip560)" d="M21.7677 578.027 L58.7206 578.027 L58.7206 570.261 Q58.7206 560.426 54.2646 555.874 Q49.8086 551.291 40.1964 551.291 Q30.6479 551.291 26.2237 555.874 Q21.7677 560.426 21.7677 570.261 L21.7677 578.027 M16.4842 584.456 L16.4842 571.247 Q16.4842 557.434 22.2451 550.973 Q27.9743 544.511 40.1964 544.511 Q52.4822 544.511 58.2432 551.004 Q64.0042 557.497 64.0042 571.247 L64.0042 584.456 L16.4842 584.456 Z" fill="#ffffff" fill-rule="nonzero" fill-opacity="1" /><path clip-path="url(#clip560)" d="M14.5426 535.44 L14.5426 530.348 Q22.0542 525.573 29.2474 523.218 Q36.4406 520.831 43.5384 520.831 Q50.668 520.831 57.8931 523.218 Q65.1182 525.573 72.5979 530.348 L72.5979 535.44 Q65.3091 531.207 58.1159 529.138 Q50.8908 527.037 43.5384 527.037 Q36.186 527.037 29.0246 529.138 Q21.8632 531.207 14.5426 535.44 Z" fill="#ffffff" fill-rule="nonzero" fill-opacity="1" /><polyline clip-path="url(#clip562)" style="stroke:#ff7d00; stroke-linecap:round; stroke-linejoin:round; stroke-width:12; stroke-opacity:1; fill:none" points="321.708,1372.41 331.327,1373.01 340.946,1352.41 350.565,1272.82 360.184,1233.54 369.803,1201.25 379.422,1201.26 389.041,1192.29 398.66,1105.77 408.279,1109.27 417.898,1027.99 427.517,958.792 437.136,941.059 446.755,941.633 456.374,836.995 465.993,802.699 475.612,841.112 485.231,840.865 494.85,867.379 504.469,949.668 514.088,926.79 523.707,832.677 533.326,834.568 542.945,890.978 552.564,840.356 562.182,835.948 571.801,794.677 581.42,781.243 591.039,856.942 600.658,805.296 610.277,808.315 619.896,820.718 629.515,942.976 639.134,957.239 648.753,741.59 658.372,750.139 667.991,772.162 677.61,781.253 687.229,794.353 696.848,679.557 706.467,576.014 716.086,501.476 725.705,595.476 735.324,519.577 744.943,484.02 754.562,457.102 764.181,597.681 773.8,550.72 783.419,586.241 793.038,603.143 802.657,619.347 812.276,597.283 821.895,680.644 831.514,674.435 841.133,639.589 850.752,654.714 860.371,655.533 869.99,661.532 879.609,693.568 889.228,672.844 898.847,647.728 908.466,722.396 918.085,685.637 927.704,743.065 937.323,767.608 946.942,774.639 956.561,789.572 966.18,816.042 975.799,748.931 985.418,797.593 995.037,835.244 1004.66,848.307 1014.27,909.704 1023.89,960.874 1033.51,1061.39 1043.13,1075.72 1052.75,1000.35 1062.37,987.388 1071.99,1018.46 1081.61,920.333 1091.23,909.022 1100.85,941.374 1110.46,1062.97 1120.08,1046 1129.7,932.527 1139.32,865.324 1148.94,863.37 1158.56,880.491 1168.18,889.157 1177.8,873.978 1187.42,871.759 1197.04,862.77 1206.65,771.194 1216.27,710.299 1225.89,719.305 1235.51,685.556 1245.13,683.81 1254.75,662.128 1264.37,652.803 1273.99,630.596 1283.61,539.815 1293.23,573.237 1302.84,603.658 1312.46,655.329 1322.08,623.614 1331.7,637.053 1341.32,548.105 1350.94,525.64 1360.56,521.952 1370.18,557.897 1379.8,545.269 1389.41,439.496 1399.03,424.298 1408.65,415.847 1418.27,405.507 1427.89,410.685 1437.51,368.937 1447.13,417.993 1456.75,452.437 1466.37,447.548 1475.99,429.733 1485.6,416.478 1495.22,398.761 1504.84,441.189 1514.46,383.056 1524.08,332.992 1533.7,234.733 1543.32,182.478 1552.94,168.075 1562.56,86.1857 1572.18,155.012 1581.79,135.509 1591.41,146.701 1601.03,215.531 1610.65,397.046 1620.27,467.213 1629.89,510.175 1639.51,454.96 1649.13,441.072 1658.75,597.62 1668.37,702.66 1677.98,699.464 1687.6,681.644 1697.22,772.898 1706.84,646.739 1716.46,746.083 1726.08,827.496 1735.7,952.101 1745.32,914.609 1754.94,904.148 1764.56,886.669 1774.17,859.314 1783.79,807.296 1793.41,717.409 1803.03,694.215 1812.65,600.641 1822.27,571.245 1831.89,518.816 1841.51,456.915 1851.13,460.158 1860.75,512.219 1870.36,506.294 1879.98,539.802 1889.6,545.375 1899.22,596.402 1908.84,586.64 1918.46,600.988 1928.08,737.638 1937.7,766.826 1947.32,765.42 1956.93,851.058 1966.55,820.803 1976.17,760.21 1985.79,667.855 1995.41,577.511 2005.03,542.462 2014.65,573.98 2024.27,560.227 2033.89,580.725 2043.51,463.34 2053.12,496.001 2062.74,501.246 2072.36,484.204 2081.98,431.032 2091.6,380.32 2101.22,411.186 2110.84,419.837 2120.46,498.701 2130.08,505.2 2139.7,467.599 2149.31,418.817 2158.93,403.672 2168.55,361.338 2178.17,341.197 2187.79,378.426 2197.41,370.703 2207.03,327.815 2216.65,417.45 2226.27,441.857 2235.89,395.808 2245.5,400.496 2255.12,382.172 2264.74,365.727 2274.36,409.251 2283.98,406.635 2293.6,345.819 "/>
<polyline clip-path="url(#clip562)" style="stroke:#c0d6df; stroke-linecap:round; stroke-linejoin:round; stroke-width:4; stroke-opacity:1; fill:none" stroke-dasharray="16, 10" points="321.708,1372.41 331.327,1381.15 340.946,1384.24 350.565,1358.96 360.184,1348.77 369.803,1334.83 379.422,1337.21 389.041,1328.95 398.66,1339.82 408.279,1360.23 417.898,1340.91 427.517,1306.99 437.136,1282.87 446.755,1280.41 456.374,1263.61 465.993,1261.67 475.612,1256.82 485.231,1246.71 494.85,1236.17 504.469,1268.48 514.088,1264.03 523.707,1222.26 533.326,1222.56 542.945,1222.1 552.564,1195.03 562.182,1189.41 571.801,1174.71 581.42,1166.83 591.039,1213.96 600.658,1198.14 610.277,1171.86 619.896,1170.83 629.515,1199.95 639.134,1203.93 648.753,1138.93 658.372,1122 667.991,1130.83 677.61,1136.34 687.229,1137.61 696.848,1125.22 706.467,1103.79 716.086,1094.18 725.705,1125.12 735.324,1112.41 744.943,1084.18 754.562,1085.67 764.181,1107.55 773.8,1078.87 783.419,1070.81 793.038,1082.42 802.657,1111.93 812.276,1090.36 821.895,1085.93 831.514,1060.45 841.133,1028.55 850.752,1035.38 860.371,1044.8 869.99,1047.48 879.609,1040.16 889.228,1024.6 898.847,1030.22 908.466,1056.4 918.085,1049.23 927.704,1060.74 937.323,1062.22 946.942,1054.02 956.561,1061.8 966.18,1084.78 975.799,1069.96 985.418,1096.78 995.037,1122.77 1004.66,1149.78 1014.27,1162.95 1023.89,1172.19 1033.51,1197.32 1043.13,1184.48 1052.75,1148.13 1062.37,1142.35 1071.99,1166.31 1081.61,1124.8 1091.23,1114.76 1100.85,1139.28 1110.46,1160.19 1120.08,1155.16 1129.7,1108.24 1139.32,1081.73 1148.94,1063.14 1158.56,1066.88 1168.18,1052.67 1177.8,1041.13 1187.42,1039.9 1197.04,1031.93 1206.65,994.504 1216.27,982.934 1225.89,989.373 1235.51,980.074 1245.13,978.971 1254.75,983.298 1264.37,994.747 1273.99,988.958 1283.61,986.317 1293.23,1003.91 1302.84,1022.9 1312.46,1021.88 1322.08,1003.77 1331.7,1000.52 1341.32,965.178 1350.94,953.574 1360.56,952.956 1370.18,951.627 1379.8,948.121 1389.41,905.821 1399.03,904.221 1408.65,905.448 1418.27,881.594 1427.89,866.713 1437.51,867.859 1447.13,887.403 1456.75,888.906 1466.37,891.3 1475.99,885.853 1485.6,879.243 1495.22,878.516 1504.84,885.787 1514.46,872.376 1524.08,850.016 1533.7,828.779 1543.32,818.369 1552.94,812.302 1562.56,790.796 1572.18,799.163 1581.79,784.298 1591.41,774.565 1601.03,763.344 1610.65,796.238 1620.27,824.327 1629.89,849.785 1639.51,828.943 1649.13,820.921 1658.75,886.671 1668.37,907.022 1677.98,891.951 1687.6,883.369 1697.22,900.774 1706.84,853.56 1716.46,884.475 1726.08,967.116 1735.7,1058.53 1745.32,1023.01 1754.94,1023.52 1764.56,995.841 1774.17,970.705 1783.79,960.925 1793.41,922.662 1803.03,897.084 1812.65,844.275 1822.27,829.474 1831.89,804.818 1841.51,793.911 1851.13,786.09 1860.75,799.918 1870.36,782.09 1879.98,779.276 1889.6,780.594 1899.22,797.16 1908.84,785.962 1918.46,776.959 1928.08,818.304 1937.7,842.129 1947.32,852.954 1956.93,898.91 1966.55,883.414 1976.17,870.273 1985.79,860.579 1995.41,806.81 2005.03,777.037 2014.65,775.031 2024.27,764.37 2033.89,764.081 2043.51,724.372 2053.12,736.791 2062.74,726.39 2072.36,720.366 2081.98,719.371 2091.6,708.736 2101.22,707.569 2110.84,708.618 2120.46,729.263 2130.08,732.034 2139.7,738.995 2149.31,715.149 2158.93,726.58 2168.55,710.767 2178.17,683.958 2187.79,683.077 2197.41,664.053 2207.03,636.525 2216.65,647.413 2226.27,649.381 2235.89,635.076 2245.5,629.453 2255.12,637.561 2264.74,639.316 2274.36,666.433 2283.98,663.6 2293.6,652.74 "/>
<path clip-path="url(#clip560)" d="M332.225 248.629 L1089.55 248.629 L1089.55 93.1086 L332.225 93.1086  Z" fill="#31343a" fill-rule="evenodd" fill-opacity="1"/>
<polyline clip-path="url(#clip560)" style="stroke:#000000; stroke-linecap:round; stroke-linejoin:round; stroke-width:4; stroke-opacity:0; fill:none" points="332.225,248.629 1089.55,248.629 1089.55,93.1086 332.225,93.1086 332.225,248.629 "/>
<polyline clip-path="url(#clip560)" style="stroke:#ff7d00; stroke-linecap:round; stroke-linejoin:round; stroke-width:12; stroke-opacity:1; fill:none" points="355.449,144.949 494.796,144.949 "/>
<path clip-path="url(#clip560)" d="M534.039 130.84 Q528.947 130.84 525.937 134.636 Q522.951 138.432 522.951 144.983 Q522.951 151.511 525.937 155.307 Q528.947 159.104 534.039 159.104 Q539.132 159.104 542.095 155.307 Q545.081 151.511 545.081 144.983 Q545.081 138.432 542.095 134.636 Q539.132 130.84 534.039 130.84 M534.039 127.044 Q541.308 127.044 545.659 131.928 Q550.011 136.789 550.011 144.983 Q550.011 153.155 545.659 158.039 Q541.308 162.9 534.039 162.9 Q526.747 162.9 522.373 158.039 Q518.021 153.178 518.021 144.983 Q518.021 136.789 522.373 131.928 Q526.747 127.044 534.039 127.044 Z" fill="#ffffff" fill-rule="nonzero" fill-opacity="1" /><path clip-path="url(#clip560)" d="M571.354 130.84 Q566.261 130.84 563.252 134.636 Q560.266 138.432 560.266 144.983 Q560.266 151.511 563.252 155.307 Q566.261 159.104 571.354 159.104 Q576.446 159.104 579.409 155.307 Q582.395 151.511 582.395 144.983 Q582.395 138.432 579.409 134.636 Q576.446 130.84 571.354 130.84 M571.354 127.044 Q578.622 127.044 582.974 131.928 Q587.326 136.789 587.326 144.983 Q587.326 153.155 582.974 158.039 Q578.622 162.9 571.354 162.9 Q564.062 162.9 559.687 158.039 Q555.335 153.178 555.335 144.983 Q555.335 136.789 559.687 131.928 Q564.062 127.044 571.354 127.044 Z" fill="#ffffff" fill-rule="nonzero" fill-opacity="1" /><path clip-path="url(#clip560)" d="M615.358 128.803 L615.358 133.363 Q612.696 132.09 610.335 131.465 Q607.974 130.84 605.775 130.84 Q601.955 130.84 599.872 132.321 Q597.812 133.803 597.812 136.534 Q597.812 138.826 599.178 140.007 Q600.567 141.164 604.409 141.882 L607.233 142.46 Q612.465 143.456 614.941 145.979 Q617.441 148.479 617.441 152.692 Q617.441 157.715 614.062 160.307 Q610.705 162.9 604.201 162.9 Q601.747 162.9 598.969 162.344 Q596.215 161.789 593.252 160.701 L593.252 155.886 Q596.099 157.483 598.83 158.293 Q601.562 159.104 604.201 159.104 Q608.205 159.104 610.381 157.53 Q612.557 155.956 612.557 153.039 Q612.557 150.493 610.983 149.057 Q609.432 147.622 605.867 146.905 L603.02 146.349 Q597.789 145.307 595.451 143.085 Q593.113 140.863 593.113 136.905 Q593.113 132.321 596.33 129.682 Q599.571 127.044 605.242 127.044 Q607.673 127.044 610.196 127.483 Q612.719 127.923 615.358 128.803 Z" fill="#ffffff" fill-rule="nonzero" fill-opacity="1" /><path clip-path="url(#clip560)" d="M625.636 156.349 L630.52 156.349 L630.52 162.229 L625.636 162.229 L625.636 156.349 M625.636 137.715 L630.52 137.715 L630.52 143.594 L625.636 143.594 L625.636 137.715 Z" fill="#ffffff" fill-rule="nonzero" fill-opacity="1" /><path clip-path="url(#clip560)" d="M660.45 131.511 L660.45 144.497 L666.33 144.497 Q669.594 144.497 671.376 142.807 Q673.159 141.118 673.159 137.993 Q673.159 134.891 671.376 133.201 Q669.594 131.511 666.33 131.511 L660.45 131.511 M655.775 127.669 L666.33 127.669 Q672.14 127.669 675.103 130.307 Q678.089 132.923 678.089 137.993 Q678.089 143.108 675.103 145.724 Q672.14 148.34 666.33 148.34 L660.45 148.34 L660.45 162.229 L655.775 162.229 L655.775 127.669 Z" fill="#ffffff" fill-rule="nonzero" fill-opacity="1" /><path clip-path="url(#clip560)" d="M692.534 139.289 Q689.108 139.289 687.117 141.974 Q685.126 144.636 685.126 149.289 Q685.126 153.942 687.094 156.627 Q689.085 159.289 692.534 159.289 Q695.936 159.289 697.927 156.604 Q699.918 153.918 699.918 149.289 Q699.918 144.682 697.927 141.997 Q695.936 139.289 692.534 139.289 M692.534 135.678 Q698.089 135.678 701.26 139.289 Q704.432 142.9 704.432 149.289 Q704.432 155.655 701.26 159.289 Q698.089 162.9 692.534 162.9 Q686.955 162.9 683.784 159.289 Q680.636 155.655 680.636 149.289 Q680.636 142.9 683.784 139.289 Q686.955 135.678 692.534 135.678 Z" fill="#ffffff" fill-rule="nonzero" fill-opacity="1" /><path clip-path="url(#clip560)" d="M726.515 140.284 Q725.797 139.868 724.941 139.682 Q724.108 139.474 723.089 139.474 Q719.478 139.474 717.534 141.835 Q715.612 144.173 715.612 148.571 L715.612 162.229 L711.33 162.229 L711.33 136.303 L715.612 136.303 L715.612 140.331 Q716.955 137.969 719.108 136.835 Q721.26 135.678 724.339 135.678 Q724.779 135.678 725.311 135.747 Q725.844 135.794 726.492 135.909 L726.515 140.284 Z" fill="#ffffff" fill-rule="nonzero" fill-opacity="1" /><path clip-path="url(#clip560)" d="M735.195 128.942 L735.195 136.303 L743.969 136.303 L743.969 139.613 L735.195 139.613 L735.195 153.687 Q735.195 156.858 736.052 157.761 Q736.932 158.664 739.594 158.664 L743.969 158.664 L743.969 162.229 L739.594 162.229 Q734.663 162.229 732.788 160.4 Q730.913 158.548 730.913 153.687 L730.913 139.613 L727.788 139.613 L727.788 136.303 L730.913 136.303 L730.913 128.942 L735.195 128.942 Z" fill="#ffffff" fill-rule="nonzero" fill-opacity="1" /><path clip-path="url(#clip560)" d="M762.695 126.21 L762.695 129.752 L758.621 129.752 Q756.33 129.752 755.427 130.678 Q754.547 131.604 754.547 134.011 L754.547 136.303 L761.561 136.303 L761.561 139.613 L754.547 139.613 L754.547 162.229 L750.265 162.229 L750.265 139.613 L746.191 139.613 L746.191 136.303 L750.265 136.303 L750.265 134.497 Q750.265 130.169 752.279 128.201 Q754.293 126.21 758.668 126.21 L762.695 126.21 Z" fill="#ffffff" fill-rule="nonzero" fill-opacity="1" /><path clip-path="url(#clip560)" d="M776.306 139.289 Q772.88 139.289 770.89 141.974 Q768.899 144.636 768.899 149.289 Q768.899 153.942 770.867 156.627 Q772.857 159.289 776.306 159.289 Q779.709 159.289 781.7 156.604 Q783.691 153.918 783.691 149.289 Q783.691 144.682 781.7 141.997 Q779.709 139.289 776.306 139.289 M776.306 135.678 Q781.862 135.678 785.033 139.289 Q788.204 142.9 788.204 149.289 Q788.204 155.655 785.033 159.289 Q781.862 162.9 776.306 162.9 Q770.728 162.9 767.556 159.289 Q764.408 155.655 764.408 149.289 Q764.408 142.9 767.556 139.289 Q770.728 135.678 776.306 135.678 Z" fill="#ffffff" fill-rule="nonzero" fill-opacity="1" /><path clip-path="url(#clip560)" d="M795.265 126.21 L799.524 126.21 L799.524 162.229 L795.265 162.229 L795.265 126.21 Z" fill="#ffffff" fill-rule="nonzero" fill-opacity="1" /><path clip-path="url(#clip560)" d="M808.436 136.303 L812.695 136.303 L812.695 162.229 L808.436 162.229 L808.436 136.303 M808.436 126.21 L812.695 126.21 L812.695 131.604 L808.436 131.604 L808.436 126.21 Z" fill="#ffffff" fill-rule="nonzero" fill-opacity="1" /><path clip-path="url(#clip560)" d="M831.653 139.289 Q828.227 139.289 826.237 141.974 Q824.246 144.636 824.246 149.289 Q824.246 153.942 826.213 156.627 Q828.204 159.289 831.653 159.289 Q835.056 159.289 837.047 156.604 Q839.037 153.918 839.037 149.289 Q839.037 144.682 837.047 141.997 Q835.056 139.289 831.653 139.289 M831.653 135.678 Q837.209 135.678 840.38 139.289 Q843.551 142.9 843.551 149.289 Q843.551 155.655 840.38 159.289 Q837.209 162.9 831.653 162.9 Q826.075 162.9 822.903 159.289 Q819.755 155.655 819.755 149.289 Q819.755 142.9 822.903 139.289 Q826.075 135.678 831.653 135.678 Z" fill="#ffffff" fill-rule="nonzero" fill-opacity="1" /><path clip-path="url(#clip560)" d="M882.255 146.025 Q883.759 146.534 885.171 148.201 Q886.607 149.868 888.042 152.784 L892.787 162.229 L887.764 162.229 L883.343 153.363 Q881.63 149.891 880.009 148.756 Q878.412 147.622 875.635 147.622 L870.542 147.622 L870.542 162.229 L865.866 162.229 L865.866 127.669 L876.422 127.669 Q882.347 127.669 885.264 130.145 Q888.181 132.622 888.181 137.622 Q888.181 140.886 886.653 143.039 Q885.148 145.192 882.255 146.025 M870.542 131.511 L870.542 143.78 L876.422 143.78 Q879.801 143.78 881.514 142.229 Q883.25 140.655 883.25 137.622 Q883.25 134.59 881.514 133.062 Q879.801 131.511 876.422 131.511 L870.542 131.511 Z" fill="#ffffff" fill-rule="nonzero" fill-opacity="1" /><path clip-path="url(#clip560)" d="M914.245 140.701 L943.921 140.701 L943.921 144.59 L914.245 144.59 L914.245 140.701 M914.245 150.145 L943.921 150.145 L943.921 154.081 L914.245 154.081 L914.245 150.145 Z" fill="#ffffff" fill-rule="nonzero" fill-opacity="1" /><path clip-path="url(#clip560)" d="M979.083 130.747 Q975.472 130.747 973.643 134.312 Q971.838 137.854 971.838 144.983 Q971.838 152.09 973.643 155.655 Q975.472 159.196 979.083 159.196 Q982.717 159.196 984.523 155.655 Q986.352 152.09 986.352 144.983 Q986.352 137.854 984.523 134.312 Q982.717 130.747 979.083 130.747 M979.083 127.044 Q984.893 127.044 987.949 131.65 Q991.027 136.233 991.027 144.983 Q991.027 153.71 987.949 158.317 Q984.893 162.9 979.083 162.9 Q973.273 162.9 970.194 158.317 Q967.139 153.71 967.139 144.983 Q967.139 136.233 970.194 131.65 Q973.273 127.044 979.083 127.044 Z" fill="#ffffff" fill-rule="nonzero" fill-opacity="1" /><path clip-path="url(#clip560)" d="M999.245 156.349 L1004.13 156.349 L1004.13 162.229 L999.245 162.229 L999.245 156.349 Z" fill="#ffffff" fill-rule="nonzero" fill-opacity="1" /><path clip-path="url(#clip560)" d="M1018.34 158.293 L1034.66 158.293 L1034.66 162.229 L1012.72 162.229 L1012.72 158.293 Q1015.38 155.539 1019.96 150.909 Q1024.57 146.256 1025.75 144.914 Q1027.99 142.391 1028.87 140.655 Q1029.78 138.895 1029.78 137.206 Q1029.78 134.451 1027.83 132.715 Q1025.91 130.979 1022.81 130.979 Q1020.61 130.979 1018.16 131.743 Q1015.73 132.507 1012.95 134.057 L1012.95 129.335 Q1015.77 128.201 1018.23 127.622 Q1020.68 127.044 1022.72 127.044 Q1028.09 127.044 1031.28 129.729 Q1034.48 132.414 1034.48 136.905 Q1034.48 139.034 1033.67 140.956 Q1032.88 142.854 1030.77 145.446 Q1030.19 146.118 1027.09 149.335 Q1023.99 152.53 1018.34 158.293 Z" fill="#ffffff" fill-rule="nonzero" fill-opacity="1" /><path clip-path="url(#clip560)" d="M1054.48 145.817 Q1051.14 145.817 1049.22 147.599 Q1047.32 149.381 1047.32 152.506 Q1047.32 155.631 1049.22 157.414 Q1051.14 159.196 1054.48 159.196 Q1057.81 159.196 1059.73 157.414 Q1061.65 155.608 1061.65 152.506 Q1061.65 149.381 1059.73 147.599 Q1057.83 145.817 1054.48 145.817 M1049.8 143.826 Q1046.79 143.085 1045.1 141.025 Q1043.43 138.965 1043.43 136.002 Q1043.43 131.858 1046.37 129.451 Q1049.34 127.044 1054.48 127.044 Q1059.64 127.044 1062.58 129.451 Q1065.52 131.858 1065.52 136.002 Q1065.52 138.965 1063.83 141.025 Q1062.16 143.085 1059.18 143.826 Q1062.55 144.613 1064.43 146.905 Q1066.33 149.196 1066.33 152.506 Q1066.33 157.53 1063.25 160.215 Q1060.19 162.9 1054.48 162.9 Q1048.76 162.9 1045.68 160.215 Q1042.62 157.53 1042.62 152.506 Q1042.62 149.196 1044.52 146.905 Q1046.42 144.613 1049.8 143.826 M1048.09 136.442 Q1048.09 139.127 1049.75 140.632 Q1051.44 142.136 1054.48 142.136 Q1057.49 142.136 1059.18 140.632 Q1060.89 139.127 1060.89 136.442 Q1060.89 133.757 1059.18 132.252 Q1057.49 130.747 1054.48 130.747 Q1051.44 130.747 1049.75 132.252 Q1048.09 133.757 1048.09 136.442 Z" fill="#ffffff" fill-rule="nonzero" fill-opacity="1" /><polyline clip-path="url(#clip560)" style="stroke:#c0d6df; stroke-linecap:round; stroke-linejoin:round; stroke-width:4; stroke-opacity:1; fill:none" stroke-dasharray="16, 10" points="355.449,196.789 494.796,196.789 "/>
<path clip-path="url(#clip560)" d="M534.039 182.68 Q528.947 182.68 525.937 186.476 Q522.951 190.272 522.951 196.823 Q522.951 203.351 525.937 207.147 Q528.947 210.944 534.039 210.944 Q539.132 210.944 542.095 207.147 Q545.081 203.351 545.081 196.823 Q545.081 190.272 542.095 186.476 Q539.132 182.68 534.039 182.68 M534.039 178.884 Q541.308 178.884 545.659 183.768 Q550.011 188.629 550.011 196.823 Q550.011 204.995 545.659 209.879 Q541.308 214.74 534.039 214.74 Q526.747 214.74 522.373 209.879 Q518.021 205.018 518.021 196.823 Q518.021 188.629 522.373 183.768 Q526.747 178.884 534.039 178.884 Z" fill="#ffffff" fill-rule="nonzero" fill-opacity="1" /><path clip-path="url(#clip560)" d="M571.354 182.68 Q566.261 182.68 563.252 186.476 Q560.266 190.272 560.266 196.823 Q560.266 203.351 563.252 207.147 Q566.261 210.944 571.354 210.944 Q576.446 210.944 579.409 207.147 Q582.395 203.351 582.395 196.823 Q582.395 190.272 579.409 186.476 Q576.446 182.68 571.354 182.68 M571.354 178.884 Q578.622 178.884 582.974 183.768 Q587.326 188.629 587.326 196.823 Q587.326 204.995 582.974 209.879 Q578.622 214.74 571.354 214.74 Q564.062 214.74 559.687 209.879 Q555.335 205.018 555.335 196.823 Q555.335 188.629 559.687 183.768 Q564.062 178.884 571.354 178.884 Z" fill="#ffffff" fill-rule="nonzero" fill-opacity="1" /><path clip-path="url(#clip560)" d="M615.358 180.643 L615.358 185.203 Q612.696 183.93 610.335 183.305 Q607.974 182.68 605.775 182.68 Q601.955 182.68 599.872 184.161 Q597.812 185.643 597.812 188.374 Q597.812 190.666 599.178 191.847 Q600.567 193.004 604.409 193.722 L607.233 194.3 Q612.465 195.296 614.941 197.819 Q617.441 200.319 617.441 204.532 Q617.441 209.555 614.062 212.147 Q610.705 214.74 604.201 214.74 Q601.747 214.74 598.969 214.184 Q596.215 213.629 593.252 212.541 L593.252 207.726 Q596.099 209.323 598.83 210.133 Q601.562 210.944 604.201 210.944 Q608.205 210.944 610.381 209.37 Q612.557 207.796 612.557 204.879 Q612.557 202.333 610.983 200.897 Q609.432 199.462 605.867 198.745 L603.02 198.189 Q597.789 197.147 595.451 194.925 Q593.113 192.703 593.113 188.745 Q593.113 184.161 596.33 181.522 Q599.571 178.884 605.242 178.884 Q607.673 178.884 610.196 179.323 Q612.719 179.763 615.358 180.643 Z" fill="#ffffff" fill-rule="nonzero" fill-opacity="1" /><path clip-path="url(#clip560)" d="M625.636 208.189 L630.52 208.189 L630.52 214.069 L625.636 214.069 L625.636 208.189 M625.636 189.555 L630.52 189.555 L630.52 195.434 L625.636 195.434 L625.636 189.555 Z" fill="#ffffff" fill-rule="nonzero" fill-opacity="1" /><path clip-path="url(#clip560)" d="M676.492 180.643 L676.492 185.203 Q673.83 183.93 671.469 183.305 Q669.108 182.68 666.909 182.68 Q663.089 182.68 661.006 184.161 Q658.946 185.643 658.946 188.374 Q658.946 190.666 660.312 191.847 Q661.7 193.004 665.543 193.722 L668.367 194.3 Q673.599 195.296 676.075 197.819 Q678.575 200.319 678.575 204.532 Q678.575 209.555 675.196 212.147 Q671.839 214.74 665.335 214.74 Q662.881 214.74 660.103 214.184 Q657.349 213.629 654.386 212.541 L654.386 207.726 Q657.233 209.323 659.964 210.133 Q662.696 210.944 665.335 210.944 Q669.339 210.944 671.515 209.37 Q673.691 207.796 673.691 204.879 Q673.691 202.333 672.117 200.897 Q670.566 199.462 667.001 198.745 L664.154 198.189 Q658.923 197.147 656.585 194.925 Q654.247 192.703 654.247 188.745 Q654.247 184.161 657.464 181.522 Q660.705 178.884 666.376 178.884 Q668.807 178.884 671.33 179.323 Q673.853 179.763 676.492 180.643 Z" fill="#ffffff" fill-rule="nonzero" fill-opacity="1" /><path clip-path="url(#clip560)" d="M690.543 183.351 L690.543 196.337 L696.423 196.337 Q699.686 196.337 701.469 194.647 Q703.251 192.958 703.251 189.833 Q703.251 186.731 701.469 185.041 Q699.686 183.351 696.423 183.351 L690.543 183.351 M685.867 179.509 L696.423 179.509 Q702.233 179.509 705.196 182.147 Q708.182 184.763 708.182 189.833 Q708.182 194.948 705.196 197.564 Q702.233 200.18 696.423 200.18 L690.543 200.18 L690.543 214.069 L685.867 214.069 L685.867 179.509 Z" fill="#ffffff" fill-rule="nonzero" fill-opacity="1" /><path clip-path="url(#clip560)" d="M708.668 179.509 L713.691 179.509 L723.274 193.722 L732.788 179.509 L737.811 179.509 L725.589 197.61 L725.589 214.069 L720.89 214.069 L720.89 197.61 L708.668 179.509 Z" fill="#ffffff" fill-rule="nonzero" fill-opacity="1" /></svg>
